<svg width="40" height="40" viewBox="0 0 40 40" fill="none" xmlns="http://www.w3.org/2000/svg">
    <path d="M20.0041 18.0392L10.9805 9.00439L20.0041 0L29.0197 9.00439L20.0041 18.0392Z"
        fill="url(#paint0_linear_10019_54346)" />
    <path d="M10.9805 9.00439L20.0041 0L29.0197 9.00439L20.0041 1.7774L10.9805 9.00439Z"
        fill="url(#paint1_linear_10019_54346)" />
    <path
        d="M19.9795 0.0293439V1.80256L20.0038 1.7774L22.5925 3.85244L21.3996 1.39593L20.0038 0L19.9795 0.0293439Z"
        fill="url(#paint2_linear_10019_54346)" />
    <path style="mix-blend-mode:multiply" opacity="0.3"
        d="M16.5717 4.53151L19.98 1.80252L18.9088 1.08569L15.9307 4.07039L16.5717 4.53151Z"
        fill="url(#paint3_linear_10019_54346)" />
    <path style="mix-blend-mode:multiply" opacity="0.3"
        d="M16.5717 4.53151L19.98 1.80252L18.9088 1.08569L15.9307 4.07039L16.5717 4.53151Z"
        fill="url(#paint4_linear_10019_54346)" />
    <path style="mix-blend-mode:multiply" opacity="0.2"
        d="M18.1215 3.28645L19.9798 1.80248L18.9086 1.08984L17.1802 2.82114L18.1215 3.28645Z"
        fill="url(#paint5_linear_10019_54346)" />
    <path style="mix-blend-mode:multiply" opacity="0.3"
        d="M29.0197 9.00429L27.2588 7.24365L27.6645 7.91856L29.0197 9.00429Z"
        fill="url(#paint6_linear_10019_54346)" />
    <path style="mix-blend-mode:multiply" opacity="0.4"
        d="M25.6599 12.1765L20.3921 16.6295H21.3499L25.6599 12.1765Z"
        fill="url(#paint7_linear_10019_54346)" />
    <path opacity="0.3"
        d="M16.8472 4.30531L17.4396 3.8358L16.6605 3.33276L16.1655 3.83161L16.8472 4.30531Z"
        fill="url(#paint8_linear_10019_54346)" />
    <path opacity="0.2"
        d="M19.1439 2.46482L19.9797 1.80248L18.9086 1.08984L18.1782 1.81925L19.1439 2.46482Z"
        fill="url(#paint9_linear_10019_54346)" />
    <path style="mix-blend-mode:multiply" opacity="0.3"
        d="M18.0482 1.94092L17.6587 2.33496L18.243 3.19851L19.022 2.56552L18.0482 1.94092Z"
        fill="url(#paint10_linear_10019_54346)" />
    <path style="mix-blend-mode:multiply" opacity="0.5"
        d="M21.6665 11.2556L20.5791 12.2114L21.0903 12.3707L20.7657 13.121H20.8144L22.2183 11.4275L21.6665 11.2556Z"
        fill="url(#paint11_linear_10019_54346)" />
    <path style="mix-blend-mode:multiply" opacity="0.2"
        d="M17.8943 15.175H18.0079L10.9805 9.00439L11.2888 9.37329L17.8943 15.175Z"
        fill="url(#paint12_linear_10019_54346)" />
    <path d="M27.9483 8.14504L29.0195 9.00439L20.0039 0L19.8984 0.1048L27.9483 8.14504Z"
        fill="url(#paint13_linear_10019_54346)" />
    <g style="mix-blend-mode:screen" opacity="0.1">
        <path
            d="M11.0049 9.01278L17.6849 16.0801L19.5253 17.0229L21.9949 15.8328L11.2564 8.80737L11.0049 9.01278Z"
            fill="white" />
    </g>
    <path d="M12.5493 9.13627L19.8923 2.35303L27.4513 9.13627L19.8923 15.6864L12.5493 9.13627Z"
        fill="url(#paint14_linear_10019_54346)" />
    <path d="M14.1177 9.12242L19.9148 3.13721L25.8824 9.12242L19.9148 14.9019L14.1177 9.12242Z"
        fill="url(#paint15_linear_10019_54346)" />
    <path d="M20.0041 39.9999L10.9805 30.9651L20.0041 21.9607L29.0197 30.9651L20.0041 39.9999Z"
        fill="url(#paint16_linear_10019_54346)" />
    <path d="M10.9805 30.9651L20.0041 21.9607L29.0197 30.9651L20.0041 23.7381L10.9805 30.9651Z"
        fill="url(#paint17_linear_10019_54346)" />
    <path
        d="M19.9795 21.99V23.7632L20.0038 23.7381L22.5925 25.8131L21.3996 23.3566L20.0038 21.9607L19.9795 21.99Z"
        fill="url(#paint18_linear_10019_54346)" />
    <path style="mix-blend-mode:multiply" opacity="0.3"
        d="M16.5717 26.4922L19.98 23.7632L18.9088 23.0464L15.9307 26.0311L16.5717 26.4922Z"
        fill="url(#paint19_linear_10019_54346)" />
    <path style="mix-blend-mode:multiply" opacity="0.3"
        d="M16.5717 26.4922L19.98 23.7632L18.9088 23.0464L15.9307 26.0311L16.5717 26.4922Z"
        fill="url(#paint20_linear_10019_54346)" />
    <path style="mix-blend-mode:multiply" opacity="0.2"
        d="M18.1215 25.2471L19.9798 23.7632L18.9086 23.0505L17.1802 24.7818L18.1215 25.2471Z"
        fill="url(#paint21_linear_10019_54346)" />
    <path style="mix-blend-mode:multiply" opacity="0.3"
        d="M29.0197 30.965L27.2588 29.2043L27.6645 29.8793L29.0197 30.965Z"
        fill="url(#paint22_linear_10019_54346)" />
    <path style="mix-blend-mode:multiply" opacity="0.4"
        d="M25.6599 34.1372L20.3921 38.5902H21.3499L25.6599 34.1372Z"
        fill="url(#paint23_linear_10019_54346)" />
    <path opacity="0.3"
        d="M16.8472 26.266L17.4396 25.7965L16.6605 25.2935L16.1655 25.7923L16.8472 26.266Z"
        fill="url(#paint24_linear_10019_54346)" />
    <path opacity="0.2"
        d="M19.1439 24.4255L19.9797 23.7632L18.9086 23.0505L18.1782 23.7799L19.1439 24.4255Z"
        fill="url(#paint25_linear_10019_54346)" />
    <path style="mix-blend-mode:multiply" opacity="0.3"
        d="M18.0482 23.9016L17.6587 24.2957L18.243 25.1592L19.022 24.5262L18.0482 23.9016Z"
        fill="url(#paint26_linear_10019_54346)" />
    <path style="mix-blend-mode:multiply" opacity="0.5"
        d="M21.6665 33.2163L20.5791 34.1721L21.0903 34.3314L20.7657 35.0817H20.8144L22.2183 33.3882L21.6665 33.2163Z"
        fill="url(#paint27_linear_10019_54346)" />
    <path style="mix-blend-mode:multiply" opacity="0.2"
        d="M17.8943 37.1357H18.0079L10.9805 30.9651L11.2888 31.334L17.8943 37.1357Z"
        fill="url(#paint28_linear_10019_54346)" />
    <path d="M27.9483 30.1057L29.0195 30.9651L20.0039 21.9607L19.8984 22.0655L27.9483 30.1057Z"
        fill="url(#paint29_linear_10019_54346)" />
    <g style="mix-blend-mode:screen" opacity="0.1">
        <path
            d="M11.0049 30.9735L17.6849 38.0408L19.5253 38.9836L21.9949 37.7934L11.2564 30.7681L11.0049 30.9735Z"
            fill="white" />
    </g>
    <path d="M12.5493 31.097L19.8923 24.3137L27.4513 31.097L19.8923 37.6471L12.5493 31.097Z"
        fill="url(#paint30_linear_10019_54346)" />
    <path d="M14.1177 31.0831L19.9148 25.0979L25.8824 31.0831L19.9148 36.8626L14.1177 31.0831Z"
        fill="url(#paint31_linear_10019_54346)" />
    <path d="M30.9846 29.0197L21.9609 19.9849L30.9846 10.9805L40.0002 19.9849L30.9846 29.0197Z"
        fill="url(#paint32_linear_10019_54346)" />
    <path d="M21.9609 19.9849L30.9846 10.9805L40.0002 19.9849L30.9846 12.7579L21.9609 19.9849Z"
        fill="url(#paint33_linear_10019_54346)" />
    <path
        d="M30.96 11.0098V12.783L30.9843 12.7579L33.5729 14.8329L32.3801 12.3764L30.9843 10.9805L30.96 11.0098Z"
        fill="url(#paint34_linear_10019_54346)" />
    <path style="mix-blend-mode:multiply" opacity="0.3"
        d="M27.5522 15.512L30.9604 12.783L29.8893 12.0662L26.9111 15.0509L27.5522 15.512Z"
        fill="url(#paint35_linear_10019_54346)" />
    <path style="mix-blend-mode:multiply" opacity="0.3"
        d="M27.5522 15.512L30.9604 12.783L29.8893 12.0662L26.9111 15.0509L27.5522 15.512Z"
        fill="url(#paint36_linear_10019_54346)" />
    <path style="mix-blend-mode:multiply" opacity="0.2"
        d="M29.102 14.2669L30.9603 12.783L29.8891 12.0703L28.1606 13.8016L29.102 14.2669Z"
        fill="url(#paint37_linear_10019_54346)" />
    <path style="mix-blend-mode:multiply" opacity="0.3"
        d="M40.0002 19.9848L38.2393 18.2241L38.645 18.899L40.0002 19.9848Z"
        fill="url(#paint38_linear_10019_54346)" />
    <path style="mix-blend-mode:multiply" opacity="0.4"
        d="M36.6403 23.157L31.3726 27.61H32.3303L36.6403 23.157Z"
        fill="url(#paint39_linear_10019_54346)" />
    <path opacity="0.3"
        d="M27.8276 15.2858L28.42 14.8163L27.641 14.3132L27.146 14.8121L27.8276 15.2858Z"
        fill="url(#paint40_linear_10019_54346)" />
    <path opacity="0.2"
        d="M30.1244 13.4453L30.9602 12.783L29.889 12.0703L29.1587 12.7997L30.1244 13.4453Z"
        fill="url(#paint41_linear_10019_54346)" />
    <path style="mix-blend-mode:multiply" opacity="0.3"
        d="M29.0287 12.9214L28.6392 13.3154L29.2234 14.179L30.0024 13.546L29.0287 12.9214Z"
        fill="url(#paint42_linear_10019_54346)" />
    <path style="mix-blend-mode:multiply" opacity="0.5"
        d="M32.647 22.2361L31.5596 23.1919L32.0708 23.3512L31.7462 24.1015H31.7949L33.1988 22.408L32.647 22.2361Z"
        fill="url(#paint43_linear_10019_54346)" />
    <path style="mix-blend-mode:multiply" opacity="0.2"
        d="M28.8748 26.1555H28.9884L21.9609 19.9849L22.2693 20.3538L28.8748 26.1555Z"
        fill="url(#paint44_linear_10019_54346)" />
    <path d="M38.9288 19.1255L39.9999 19.9849L30.9844 10.9805L30.8789 11.0853L38.9288 19.1255Z"
        fill="url(#paint45_linear_10019_54346)" />
    <g style="mix-blend-mode:screen" opacity="0.1">
        <path
            d="M21.9854 19.9932L28.6654 27.0606L30.5058 28.0034L32.9754 26.8132L22.2369 19.7878L21.9854 19.9932Z"
            fill="white" />
    </g>
    <path d="M23.5298 20.1167L30.8728 13.3335L38.4317 20.1167L30.8728 26.6668L23.5298 20.1167Z"
        fill="url(#paint46_linear_10019_54346)" />
    <path d="M25.0981 20.1029L30.8952 14.1177L36.8628 20.1029L30.8952 25.8824L25.0981 20.1029Z"
        fill="url(#paint47_linear_10019_54346)" />
    <path d="M9.02366 29.0197L0 19.9849L9.02366 10.9805L18.0392 19.9849L9.02366 29.0197Z"
        fill="url(#paint48_linear_10019_54346)" />
    <path d="M0 19.9849L9.02367 10.9805L18.0392 19.9849L9.02367 12.7579L0 19.9849Z"
        fill="url(#paint49_linear_10019_54346)" />
    <path
        d="M8.99902 11.0098V12.783L9.02337 12.7579L11.612 14.8329L10.4191 12.3764L9.02337 10.9805L8.99902 11.0098Z"
        fill="url(#paint50_linear_10019_54346)" />
    <path style="mix-blend-mode:multiply" opacity="0.3"
        d="M5.59126 15.512L8.99948 12.783L7.92833 12.0662L4.9502 15.0509L5.59126 15.512Z"
        fill="url(#paint51_linear_10019_54346)" />
    <path style="mix-blend-mode:multiply" opacity="0.3"
        d="M5.59126 15.512L8.99948 12.783L7.92833 12.0662L4.9502 15.0509L5.59126 15.512Z"
        fill="url(#paint52_linear_10019_54346)" />
    <path style="mix-blend-mode:multiply" opacity="0.2"
        d="M7.14103 14.2669L8.99932 12.783L7.92816 12.0703L6.19971 13.8016L7.14103 14.2669Z"
        fill="url(#paint53_linear_10019_54346)" />
    <path style="mix-blend-mode:multiply" opacity="0.3"
        d="M18.0392 19.9848L16.2783 18.2241L16.6841 18.899L18.0392 19.9848Z"
        fill="url(#paint54_linear_10019_54346)" />
    <path style="mix-blend-mode:multiply" opacity="0.4"
        d="M14.6794 23.157L9.41162 27.61H10.3694L14.6794 23.157Z"
        fill="url(#paint55_linear_10019_54346)" />
    <path opacity="0.3"
        d="M5.8667 15.2858L6.45908 14.8163L5.68006 14.3132L5.18506 14.8121L5.8667 15.2858Z"
        fill="url(#paint56_linear_10019_54346)" />
    <path opacity="0.2"
        d="M8.16342 13.4453L8.99924 12.783L7.92809 12.0703L7.19775 12.7997L8.16342 13.4453Z"
        fill="url(#paint57_linear_10019_54346)" />
    <path style="mix-blend-mode:multiply" opacity="0.3"
        d="M7.06773 12.9214L6.67822 13.3154L7.26249 14.179L8.04151 13.546L7.06773 12.9214Z"
        fill="url(#paint58_linear_10019_54346)" />
    <path style="mix-blend-mode:multiply" opacity="0.5"
        d="M10.686 22.2361L9.59863 23.1919L10.1099 23.3512L9.78527 24.1015H9.83396L11.2378 22.408L10.686 22.2361Z"
        fill="url(#paint59_linear_10019_54346)" />
    <path style="mix-blend-mode:multiply" opacity="0.2"
        d="M6.91382 26.1555H7.02742L0 19.9849L0.308363 20.3538L6.91382 26.1555Z"
        fill="url(#paint60_linear_10019_54346)" />
    <path d="M16.9679 19.1255L18.039 19.9849L9.02346 10.9805L8.91797 11.0853L16.9679 19.1255Z"
        fill="url(#paint61_linear_10019_54346)" />
    <g style="mix-blend-mode:screen" opacity="0.1">
        <path
            d="M0.0244141 19.9932L6.70443 27.0606L8.54485 28.0034L11.0144 26.8132L0.275973 19.7878L0.0244141 19.9932Z"
            fill="white" />
    </g>
    <path d="M1.56885 20.1167L8.91184 13.3335L16.4708 20.1167L8.91184 26.6668L1.56885 20.1167Z"
        fill="url(#paint62_linear_10019_54346)" />
    <path d="M3.13721 20.1029L8.93431 14.1177L14.9019 20.1029L8.93431 25.8824L3.13721 20.1029Z"
        fill="url(#paint63_linear_10019_54346)" />
    <defs>
        <linearGradient id="paint0_linear_10019_54346" x1="20.0041" y1="15.2127" x2="20.0041"
            y2="0.213791" gradientUnits="userSpaceOnUse">
            <stop stop-color="#AA792E" />
            <stop offset="0.52" stop-color="#E1CA7E" />
            <stop offset="1" stop-color="#8A4A00" />
        </linearGradient>
        <linearGradient id="paint1_linear_10019_54346" x1="20.0041" y1="8.96667" x2="20.0041"
            y2="0.544959" gradientUnits="userSpaceOnUse">
            <stop stop-color="#FFE490" />
            <stop offset="0.32" stop-color="#DCBB6C" />
            <stop offset="1" stop-color="#8A5917" />
        </linearGradient>
        <linearGradient id="paint2_linear_10019_54346" x1="19.9795" y1="1.92412" x2="22.5925"
            y2="1.92412" gradientUnits="userSpaceOnUse">
            <stop stop-color="#FFE490" />
            <stop offset="0.32" stop-color="#DCBB6C" />
            <stop offset="1" stop-color="#8A5917" />
        </linearGradient>
        <linearGradient id="paint3_linear_10019_54346" x1="17.9513" y1="4.51474" x2="17.9513"
            y2="1.29529" gradientUnits="userSpaceOnUse">
            <stop stop-color="white" />
            <stop offset="0.36" stop-color="#C5C8D6" />
            <stop offset="1" stop-color="#606A8E" />
        </linearGradient>
        <linearGradient id="paint4_linear_10019_54346" x1="17.9513" y1="4.51474" x2="17.9513"
            y2="1.29529" gradientUnits="userSpaceOnUse">
            <stop stop-color="white" />
            <stop offset="0.36" stop-color="#C5C8D6" />
            <stop offset="1" stop-color="#606A8E" />
        </linearGradient>
        <linearGradient id="paint5_linear_10019_54346" x1="18.5759" y1="3.27806" x2="18.5759"
            y2="1.22399" gradientUnits="userSpaceOnUse">
            <stop stop-color="#B6BACA" />
            <stop offset="1" stop-color="#606A8E" />
        </linearGradient>
        <linearGradient id="paint6_linear_10019_54346" x1="27.2182" y1="7.29815" x2="27.733"
            y2="9.29609" gradientUnits="userSpaceOnUse">
            <stop stop-color="#9AA0B6" />
            <stop offset="1" stop-color="#606A8E" />
        </linearGradient>
        <linearGradient id="paint7_linear_10019_54346" x1="23.7104" y1="14.6779" x2="22.7987"
            y2="13.7765" gradientUnits="userSpaceOnUse">
            <stop stop-color="#D2D4DC" />
            <stop offset="0.11" stop-color="#C5C8D3" />
            <stop offset="1" stop-color="#606A8E" />
        </linearGradient>
        <linearGradient id="paint8_linear_10019_54346" x1="16.7985" y1="4.30111" x2="16.7985"
            y2="3.39145" gradientUnits="userSpaceOnUse">
            <stop stop-color="#FFE490" />
            <stop offset="0.32" stop-color="#DCBB6C" />
            <stop offset="1" stop-color="#8A5917" />
        </linearGradient>
        <linearGradient id="paint9_linear_10019_54346" x1="19.079" y1="2.46062" x2="19.079"
            y2="1.17368" gradientUnits="userSpaceOnUse">
            <stop stop-color="#FFE490" />
            <stop offset="0.32" stop-color="#DCBB6C" />
            <stop offset="1" stop-color="#8A5917" />
        </linearGradient>
        <linearGradient id="paint10_linear_10019_54346" x1="18.3403" y1="3.19432" x2="18.3403"
            y2="2.01637" gradientUnits="userSpaceOnUse">
            <stop stop-color="#606A8E" />
            <stop offset="0.89" stop-color="#C5C8D3" />
            <stop offset="1" stop-color="#D2D4DC" />
        </linearGradient>
        <linearGradient id="paint11_linear_10019_54346" x1="21.9586" y1="12.7773" x2="21.594"
            y2="11.317" gradientUnits="userSpaceOnUse">
            <stop stop-color="#606A8E" />
            <stop offset="0.89" stop-color="#C5C8D3" />
            <stop offset="1" stop-color="#D2D4DC" />
        </linearGradient>
        <linearGradient id="paint12_linear_10019_54346" x1="17.2694" y1="15.0828" x2="15.5281"
            y2="8.0882" gradientUnits="userSpaceOnUse">
            <stop stop-color="#B7B7B7" />
            <stop offset="1" stop-color="#36426C" />
        </linearGradient>
        <linearGradient id="paint13_linear_10019_54346" x1="19.8984" y1="4.5022" x2="29.0195"
            y2="4.5022" gradientUnits="userSpaceOnUse">
            <stop stop-color="#FFE490" />
            <stop offset="0.32" stop-color="#DCBB6C" />
            <stop offset="1" stop-color="#8A5917" />
        </linearGradient>
        <linearGradient id="paint14_linear_10019_54346" x1="14.8072" y1="5.01969" x2="17.7038"
            y2="15.9893" gradientUnits="userSpaceOnUse">
            <stop stop-color="#7640AF" />
            <stop offset="1" stop-color="#3D0F6D" />
        </linearGradient>
        <linearGradient id="paint15_linear_10019_54346" x1="15.9002" y1="5.49015" x2="18.7111"
            y2="15.0145" gradientUnits="userSpaceOnUse">
            <stop stop-color="#8F59C7" />
            <stop offset="1" stop-color="#441676" />
        </linearGradient>
        <linearGradient id="paint16_linear_10019_54346" x1="20.0041" y1="37.1734" x2="20.0041"
            y2="22.1745" gradientUnits="userSpaceOnUse">
            <stop stop-color="#AA792E" />
            <stop offset="0.52" stop-color="#E1CA7E" />
            <stop offset="1" stop-color="#8A4A00" />
        </linearGradient>
        <linearGradient id="paint17_linear_10019_54346" x1="20.0041" y1="30.9274" x2="20.0041"
            y2="22.5057" gradientUnits="userSpaceOnUse">
            <stop stop-color="#FFE490" />
            <stop offset="0.32" stop-color="#DCBB6C" />
            <stop offset="1" stop-color="#8A5917" />
        </linearGradient>
        <linearGradient id="paint18_linear_10019_54346" x1="19.9795" y1="23.8848" x2="22.5925"
            y2="23.8848" gradientUnits="userSpaceOnUse">
            <stop stop-color="#FFE490" />
            <stop offset="0.32" stop-color="#DCBB6C" />
            <stop offset="1" stop-color="#8A5917" />
        </linearGradient>
        <linearGradient id="paint19_linear_10019_54346" x1="17.9513" y1="26.4754" x2="17.9513"
            y2="23.256" gradientUnits="userSpaceOnUse">
            <stop stop-color="white" />
            <stop offset="0.36" stop-color="#C5C8D6" />
            <stop offset="1" stop-color="#606A8E" />
        </linearGradient>
        <linearGradient id="paint20_linear_10019_54346" x1="17.9513" y1="26.4754" x2="17.9513"
            y2="23.256" gradientUnits="userSpaceOnUse">
            <stop stop-color="white" />
            <stop offset="0.36" stop-color="#C5C8D6" />
            <stop offset="1" stop-color="#606A8E" />
        </linearGradient>
        <linearGradient id="paint21_linear_10019_54346" x1="18.5759" y1="25.2388" x2="18.5759"
            y2="23.1847" gradientUnits="userSpaceOnUse">
            <stop stop-color="#B6BACA" />
            <stop offset="1" stop-color="#606A8E" />
        </linearGradient>
        <linearGradient id="paint22_linear_10019_54346" x1="27.2182" y1="29.2588" x2="27.733"
            y2="31.2568" gradientUnits="userSpaceOnUse">
            <stop stop-color="#9AA0B6" />
            <stop offset="1" stop-color="#606A8E" />
        </linearGradient>
        <linearGradient id="paint23_linear_10019_54346" x1="23.7104" y1="36.6386" x2="22.7987"
            y2="35.7372" gradientUnits="userSpaceOnUse">
            <stop stop-color="#D2D4DC" />
            <stop offset="0.11" stop-color="#C5C8D3" />
            <stop offset="1" stop-color="#606A8E" />
        </linearGradient>
        <linearGradient id="paint24_linear_10019_54346" x1="16.7985" y1="26.2618" x2="16.7985"
            y2="25.3521" gradientUnits="userSpaceOnUse">
            <stop stop-color="#FFE490" />
            <stop offset="0.32" stop-color="#DCBB6C" />
            <stop offset="1" stop-color="#8A5917" />
        </linearGradient>
        <linearGradient id="paint25_linear_10019_54346" x1="19.079" y1="24.4213" x2="19.079"
            y2="23.1344" gradientUnits="userSpaceOnUse">
            <stop stop-color="#FFE490" />
            <stop offset="0.32" stop-color="#DCBB6C" />
            <stop offset="1" stop-color="#8A5917" />
        </linearGradient>
        <linearGradient id="paint26_linear_10019_54346" x1="18.3403" y1="25.155" x2="18.3403"
            y2="23.9771" gradientUnits="userSpaceOnUse">
            <stop stop-color="#606A8E" />
            <stop offset="0.89" stop-color="#C5C8D3" />
            <stop offset="1" stop-color="#D2D4DC" />
        </linearGradient>
        <linearGradient id="paint27_linear_10019_54346" x1="21.9586" y1="34.738" x2="21.594"
            y2="33.2777" gradientUnits="userSpaceOnUse">
            <stop stop-color="#606A8E" />
            <stop offset="0.89" stop-color="#C5C8D3" />
            <stop offset="1" stop-color="#D2D4DC" />
        </linearGradient>
        <linearGradient id="paint28_linear_10019_54346" x1="17.2694" y1="37.0435" x2="15.5281"
            y2="30.0489" gradientUnits="userSpaceOnUse">
            <stop stop-color="#B7B7B7" />
            <stop offset="1" stop-color="#36426C" />
        </linearGradient>
        <linearGradient id="paint29_linear_10019_54346" x1="19.8984" y1="26.4629" x2="29.0195"
            y2="26.4629" gradientUnits="userSpaceOnUse">
            <stop stop-color="#FFE490" />
            <stop offset="0.32" stop-color="#DCBB6C" />
            <stop offset="1" stop-color="#8A5917" />
        </linearGradient>
        <linearGradient id="paint30_linear_10019_54346" x1="14.8072" y1="26.9804" x2="17.7038"
            y2="37.9499" gradientUnits="userSpaceOnUse">
            <stop stop-color="#7640AF" />
            <stop offset="1" stop-color="#3D0F6D" />
        </linearGradient>
        <linearGradient id="paint31_linear_10019_54346" x1="15.9002" y1="27.4508" x2="18.7111"
            y2="36.9752" gradientUnits="userSpaceOnUse">
            <stop stop-color="#8F59C7" />
            <stop offset="1" stop-color="#441676" />
        </linearGradient>
        <linearGradient id="paint32_linear_10019_54346" x1="30.9846" y1="26.1932" x2="30.9846"
            y2="11.1943" gradientUnits="userSpaceOnUse">
            <stop stop-color="#AA792E" />
            <stop offset="0.52" stop-color="#E1CA7E" />
            <stop offset="1" stop-color="#8A4A00" />
        </linearGradient>
        <linearGradient id="paint33_linear_10019_54346" x1="30.9846" y1="19.9471" x2="30.9846"
            y2="11.5254" gradientUnits="userSpaceOnUse">
            <stop stop-color="#FFE490" />
            <stop offset="0.32" stop-color="#DCBB6C" />
            <stop offset="1" stop-color="#8A5917" />
        </linearGradient>
        <linearGradient id="paint34_linear_10019_54346" x1="30.96" y1="12.9046" x2="33.5729"
            y2="12.9046" gradientUnits="userSpaceOnUse">
            <stop stop-color="#FFE490" />
            <stop offset="0.32" stop-color="#DCBB6C" />
            <stop offset="1" stop-color="#8A5917" />
        </linearGradient>
        <linearGradient id="paint35_linear_10019_54346" x1="28.9317" y1="15.4952" x2="28.9317"
            y2="12.2758" gradientUnits="userSpaceOnUse">
            <stop stop-color="white" />
            <stop offset="0.36" stop-color="#C5C8D6" />
            <stop offset="1" stop-color="#606A8E" />
        </linearGradient>
        <linearGradient id="paint36_linear_10019_54346" x1="28.9317" y1="15.4952" x2="28.9317"
            y2="12.2758" gradientUnits="userSpaceOnUse">
            <stop stop-color="white" />
            <stop offset="0.36" stop-color="#C5C8D6" />
            <stop offset="1" stop-color="#606A8E" />
        </linearGradient>
        <linearGradient id="paint37_linear_10019_54346" x1="29.5564" y1="14.2585" x2="29.5564"
            y2="12.2045" gradientUnits="userSpaceOnUse">
            <stop stop-color="#B6BACA" />
            <stop offset="1" stop-color="#606A8E" />
        </linearGradient>
        <linearGradient id="paint38_linear_10019_54346" x1="38.1987" y1="18.2786" x2="38.7135"
            y2="20.2766" gradientUnits="userSpaceOnUse">
            <stop stop-color="#9AA0B6" />
            <stop offset="1" stop-color="#606A8E" />
        </linearGradient>
        <linearGradient id="paint39_linear_10019_54346" x1="34.6908" y1="25.6583" x2="33.7792"
            y2="24.757" gradientUnits="userSpaceOnUse">
            <stop stop-color="#D2D4DC" />
            <stop offset="0.11" stop-color="#C5C8D3" />
            <stop offset="1" stop-color="#606A8E" />
        </linearGradient>
        <linearGradient id="paint40_linear_10019_54346" x1="27.779" y1="15.2816" x2="27.779"
            y2="14.3719" gradientUnits="userSpaceOnUse">
            <stop stop-color="#FFE490" />
            <stop offset="0.32" stop-color="#DCBB6C" />
            <stop offset="1" stop-color="#8A5917" />
        </linearGradient>
        <linearGradient id="paint41_linear_10019_54346" x1="30.0594" y1="13.4411" x2="30.0594"
            y2="12.1542" gradientUnits="userSpaceOnUse">
            <stop stop-color="#FFE490" />
            <stop offset="0.32" stop-color="#DCBB6C" />
            <stop offset="1" stop-color="#8A5917" />
        </linearGradient>
        <linearGradient id="paint42_linear_10019_54346" x1="29.3208" y1="14.1748" x2="29.3208"
            y2="12.9968" gradientUnits="userSpaceOnUse">
            <stop stop-color="#606A8E" />
            <stop offset="0.89" stop-color="#C5C8D3" />
            <stop offset="1" stop-color="#D2D4DC" />
        </linearGradient>
        <linearGradient id="paint43_linear_10019_54346" x1="32.9391" y1="23.7578" x2="32.5745"
            y2="22.2974" gradientUnits="userSpaceOnUse">
            <stop stop-color="#606A8E" />
            <stop offset="0.89" stop-color="#C5C8D3" />
            <stop offset="1" stop-color="#D2D4DC" />
        </linearGradient>
        <linearGradient id="paint44_linear_10019_54346" x1="28.2499" y1="26.0633" x2="26.5086"
            y2="19.0687" gradientUnits="userSpaceOnUse">
            <stop stop-color="#B7B7B7" />
            <stop offset="1" stop-color="#36426C" />
        </linearGradient>
        <linearGradient id="paint45_linear_10019_54346" x1="30.8789" y1="15.4827" x2="39.9999"
            y2="15.4827" gradientUnits="userSpaceOnUse">
            <stop stop-color="#FFE490" />
            <stop offset="0.32" stop-color="#DCBB6C" />
            <stop offset="1" stop-color="#8A5917" />
        </linearGradient>
        <linearGradient id="paint46_linear_10019_54346" x1="25.7877" y1="16.0002" x2="28.6842"
            y2="26.9697" gradientUnits="userSpaceOnUse">
            <stop stop-color="#7640AF" />
            <stop offset="1" stop-color="#3D0F6D" />
        </linearGradient>
        <linearGradient id="paint47_linear_10019_54346" x1="26.8807" y1="16.4706" x2="29.6915"
            y2="25.995" gradientUnits="userSpaceOnUse">
            <stop stop-color="#8F59C7" />
            <stop offset="1" stop-color="#441676" />
        </linearGradient>
        <linearGradient id="paint48_linear_10019_54346" x1="9.02366" y1="26.1932" x2="9.02366"
            y2="11.1943" gradientUnits="userSpaceOnUse">
            <stop stop-color="#AA792E" />
            <stop offset="0.52" stop-color="#E1CA7E" />
            <stop offset="1" stop-color="#8A4A00" />
        </linearGradient>
        <linearGradient id="paint49_linear_10019_54346" x1="9.02366" y1="19.9471" x2="9.02366"
            y2="11.5254" gradientUnits="userSpaceOnUse">
            <stop stop-color="#FFE490" />
            <stop offset="0.32" stop-color="#DCBB6C" />
            <stop offset="1" stop-color="#8A5917" />
        </linearGradient>
        <linearGradient id="paint50_linear_10019_54346" x1="8.99902" y1="12.9046" x2="11.612"
            y2="12.9046" gradientUnits="userSpaceOnUse">
            <stop stop-color="#FFE490" />
            <stop offset="0.32" stop-color="#DCBB6C" />
            <stop offset="1" stop-color="#8A5917" />
        </linearGradient>
        <linearGradient id="paint51_linear_10019_54346" x1="6.97078" y1="15.4952" x2="6.97078"
            y2="12.2758" gradientUnits="userSpaceOnUse">
            <stop stop-color="white" />
            <stop offset="0.36" stop-color="#C5C8D6" />
            <stop offset="1" stop-color="#606A8E" />
        </linearGradient>
        <linearGradient id="paint52_linear_10019_54346" x1="6.97078" y1="15.4952" x2="6.97078"
            y2="12.2758" gradientUnits="userSpaceOnUse">
            <stop stop-color="white" />
            <stop offset="0.36" stop-color="#C5C8D6" />
            <stop offset="1" stop-color="#606A8E" />
        </linearGradient>
        <linearGradient id="paint53_linear_10019_54346" x1="7.59545" y1="14.2585" x2="7.59545"
            y2="12.2045" gradientUnits="userSpaceOnUse">
            <stop stop-color="#B6BACA" />
            <stop offset="1" stop-color="#606A8E" />
        </linearGradient>
        <linearGradient id="paint54_linear_10019_54346" x1="16.2377" y1="18.2786" x2="16.7525"
            y2="20.2766" gradientUnits="userSpaceOnUse">
            <stop stop-color="#9AA0B6" />
            <stop offset="1" stop-color="#606A8E" />
        </linearGradient>
        <linearGradient id="paint55_linear_10019_54346" x1="12.7299" y1="25.6583" x2="11.8182"
            y2="24.757" gradientUnits="userSpaceOnUse">
            <stop stop-color="#D2D4DC" />
            <stop offset="0.11" stop-color="#C5C8D3" />
            <stop offset="1" stop-color="#606A8E" />
        </linearGradient>
        <linearGradient id="paint56_linear_10019_54346" x1="5.81801" y1="15.2816" x2="5.81801"
            y2="14.3719" gradientUnits="userSpaceOnUse">
            <stop stop-color="#FFE490" />
            <stop offset="0.32" stop-color="#DCBB6C" />
            <stop offset="1" stop-color="#8A5917" />
        </linearGradient>
        <linearGradient id="paint57_linear_10019_54346" x1="8.0985" y1="13.4411" x2="8.0985"
            y2="12.1542" gradientUnits="userSpaceOnUse">
            <stop stop-color="#FFE490" />
            <stop offset="0.32" stop-color="#DCBB6C" />
            <stop offset="1" stop-color="#8A5917" />
        </linearGradient>
        <linearGradient id="paint58_linear_10019_54346" x1="7.35987" y1="14.1748" x2="7.35987"
            y2="12.9968" gradientUnits="userSpaceOnUse">
            <stop stop-color="#606A8E" />
            <stop offset="0.89" stop-color="#C5C8D3" />
            <stop offset="1" stop-color="#D2D4DC" />
        </linearGradient>
        <linearGradient id="paint59_linear_10019_54346" x1="10.9781" y1="23.7578" x2="10.6135"
            y2="22.2974" gradientUnits="userSpaceOnUse">
            <stop stop-color="#606A8E" />
            <stop offset="0.89" stop-color="#C5C8D3" />
            <stop offset="1" stop-color="#D2D4DC" />
        </linearGradient>
        <linearGradient id="paint60_linear_10019_54346" x1="6.28897" y1="26.0633" x2="4.54766"
            y2="19.0687" gradientUnits="userSpaceOnUse">
            <stop stop-color="#B7B7B7" />
            <stop offset="1" stop-color="#36426C" />
        </linearGradient>
        <linearGradient id="paint61_linear_10019_54346" x1="8.91797" y1="15.4827" x2="18.039"
            y2="15.4827" gradientUnits="userSpaceOnUse">
            <stop stop-color="#FFE490" />
            <stop offset="0.32" stop-color="#DCBB6C" />
            <stop offset="1" stop-color="#8A5917" />
        </linearGradient>
        <linearGradient id="paint62_linear_10019_54346" x1="3.82672" y1="16.0002" x2="6.7233"
            y2="26.9697" gradientUnits="userSpaceOnUse">
            <stop stop-color="#7640AF" />
            <stop offset="1" stop-color="#3D0F6D" />
        </linearGradient>
        <linearGradient id="paint63_linear_10019_54346" x1="4.91974" y1="16.4706" x2="7.73058"
            y2="25.995" gradientUnits="userSpaceOnUse">
            <stop stop-color="#8F59C7" />
            <stop offset="1" stop-color="#441676" />
        </linearGradient>
    </defs>
</svg>