<svg width="58" height="58" viewBox="0 0 58 58" fill="none" xmlns="http://www.w3.org/2000/svg">
<g clip-path="url(#clip0_959_21477)">
<path d="M46.9142 10.8535H6.76591C5.26045 10.8535 4.04004 12.0739 4.04004 13.5794V52.461C4.04004 53.9664 5.26045 55.1868 6.76591 55.1868H46.9142C48.4196 55.1868 49.64 53.9664 49.64 52.461V13.5794C49.64 12.0739 48.4196 10.8535 46.9142 10.8535Z" fill="url(#paint0_linear_959_21477)"/>
<path d="M52.2471 31.9307H53.6936V9.08008H56.2269V34.4134H52.3484" fill="#FFE33A"/>
<path d="M54.8337 9.33333C56.5826 9.33333 58.0003 7.91557 58.0003 6.16667C58.0003 4.41777 56.5826 3 54.8337 3C53.0848 3 51.667 4.41777 51.667 6.16667C51.667 7.91557 53.0848 9.33333 54.8337 9.33333Z" fill="#971401"/>
<path d="M10.7535 51.134C11.8029 51.134 12.6535 50.2833 12.6535 49.234C12.6535 48.1846 11.8029 47.334 10.7535 47.334C9.70417 47.334 8.85352 48.1846 8.85352 49.234C8.85352 50.2833 9.70417 51.134 10.7535 51.134Z" fill="#EFEFEF"/>
<path d="M21.6471 51.134C22.6964 51.134 23.5471 50.2833 23.5471 49.234C23.5471 48.1846 22.6964 47.334 21.6471 47.334C20.5977 47.334 19.7471 48.1846 19.7471 49.234C19.7471 50.2833 20.5977 51.134 21.6471 51.134Z" fill="#EFEFEF"/>
<path d="M32.5396 51.134C33.589 51.134 34.4396 50.2833 34.4396 49.234C34.4396 48.1846 33.589 47.334 32.5396 47.334C31.4903 47.334 30.6396 48.1846 30.6396 49.234C30.6396 50.2833 31.4903 51.134 32.5396 51.134Z" fill="#EFEFEF"/>
<path d="M43.4332 51.134C44.4825 51.134 45.3332 50.2833 45.3332 49.234C45.3332 48.1846 44.4825 47.334 43.4332 47.334C42.3839 47.334 41.5332 48.1846 41.5332 49.234C41.5332 50.2833 42.3839 51.134 43.4332 51.134Z" fill="#EFEFEF"/>
<path d="M49.118 23.3936H4.56175C2.80445 23.3936 1.37988 24.8181 1.37988 26.5754V39.7184C1.37988 41.4757 2.80445 42.9002 4.56175 42.9002H49.118C50.8753 42.9002 52.2999 41.4757 52.2999 39.7184V26.5754C52.2999 24.8181 50.8753 23.3936 49.118 23.3936Z" fill="#F8FAFB" stroke="#593C12" stroke-width="0.76" stroke-linecap="round" stroke-linejoin="round"/>
<path d="M16.96 23.6475V43.1541" stroke="#593C12" stroke-width="0.76" stroke-linecap="round" stroke-linejoin="round"/>
<path d="M37.7334 23.6475V43.1541" stroke="#593C12" stroke-width="0.76" stroke-linecap="round" stroke-linejoin="round"/>
</g>
<g clip-path="url(#clip1_959_21477)">
<path fill-rule="evenodd" clip-rule="evenodd" d="M3.01853 32.8668C2.33604 35.0409 3.86288 37.1947 5.71811 37.7814C7.57334 38.3681 9.78635 37.8305 10.6455 35.3966C10.9723 34.4754 10.9687 33.2986 10.2936 32.5226C10.0217 32.2094 9.667 32.042 9.30383 31.9426C8.70334 31.7818 8.13926 31.6694 7.73383 31.5495C7.26827 31.4112 6.62455 31.0959 5.9214 30.9252C5.62834 30.8522 5.31246 30.8325 4.97347 30.8954C3.98436 31.0898 3.27303 32.0411 3.01853 32.8668Z" fill="url(#paint1_radial_959_21477)"/>
<path fill-rule="evenodd" clip-rule="evenodd" d="M6.67964 31.3577C6.20635 31.0897 6.0165 31.3294 6.25175 31.7338C6.59802 32.3303 7.59017 32.6488 8.2019 32.5616C8.77111 32.483 9.14669 31.9678 8.45451 31.9392C7.4966 31.9015 7.26296 31.6837 6.67964 31.3577Z" fill="#A10505"/>
<path fill-rule="evenodd" clip-rule="evenodd" d="M7.12037 31.66C6.84925 31.5101 6.71621 31.6452 6.85365 31.8777C7.056 32.2171 7.54035 32.3768 7.88932 32.3218C8.22481 32.2757 8.38824 31.9956 7.99109 31.9473C7.58162 31.9022 7.41702 31.827 7.12037 31.66Z" fill="#8A0505"/>
<path style="mix-blend-mode:multiply" fill-rule="evenodd" clip-rule="evenodd" d="M8.27731 31.6977C10.0191 32.3538 10.3031 33.9968 9.70336 35.443C9.091 36.9215 7.60477 38.211 5.50971 37.7138C5.57425 37.7389 5.64437 37.7653 5.71008 37.7849C7.56531 38.3716 9.77832 37.834 10.6375 35.4001C10.9643 34.4789 10.9607 33.3021 10.2855 32.5261C10.0137 32.213 9.65898 32.0455 9.2958 31.9461C8.93263 31.8467 8.58268 31.7675 8.2729 31.691L8.27731 31.6977Z" fill="url(#paint2_radial_959_21477)"/>
<path style="mix-blend-mode:screen" fill-rule="evenodd" clip-rule="evenodd" d="M5.37108 31.8516C4.98031 31.7173 4.51808 32.0629 4.4298 32.4286C4.10177 33.7164 6.00868 34.7505 6.7335 33.7905C7.00714 33.4287 6.89891 33.0567 6.53709 32.812C6.39389 32.718 6.26067 32.6318 6.13446 32.5122C5.87206 32.2651 5.78297 31.9961 5.36991 31.8572L5.37108 31.8516Z" fill="url(#paint3_radial_959_21477)"/>
<path style="mix-blend-mode:screen" fill-rule="evenodd" clip-rule="evenodd" d="M5.86186 31.7554C5.9673 32.3072 6.81293 32.7697 7.442 32.7385C7.57163 32.7308 7.71501 32.6851 7.72436 32.6405C7.73138 32.6071 7.66332 32.5986 7.51841 32.5683C7.0614 32.4725 6.40158 32.2061 6.14215 31.6395C6.04695 31.4274 5.81062 31.5001 5.85746 31.7486L5.86186 31.7554Z" fill="url(#paint4_radial_959_21477)"/>
<path style="mix-blend-mode:multiply" fill-rule="evenodd" clip-rule="evenodd" d="M3.10435 35.2893C2.45676 33.1043 3.86928 30.6117 6.33003 31.0575C5.92722 30.8974 5.47694 30.7972 4.97345 30.8955C3.98434 31.0899 3.273 32.0412 3.01851 32.8669C2.75494 33.7082 2.81867 34.5424 3.11109 35.2849L3.10435 35.2893Z" fill="url(#paint5_radial_959_21477)"/>
<path style="mix-blend-mode:screen" fill-rule="evenodd" clip-rule="evenodd" d="M5.12768 31.0958C3.43633 31.504 2.57496 33.6988 3.16213 35.1725C3.21562 35.3059 3.2505 35.2783 3.23899 35.1944C3.04807 33.7455 3.60758 31.8252 5.24005 31.1426C5.29722 31.1197 5.33651 31.0988 5.33768 31.0932C5.33004 31.0742 5.16463 31.0861 5.13326 31.097L5.12768 31.0958Z" fill="url(#paint6_radial_959_21477)"/>
<path fill-rule="evenodd" clip-rule="evenodd" d="M13.6584 27.0544C13.0749 27.291 12.5497 28.0658 12.5582 28.6226C12.5879 30.0728 13.5924 31.4895 14.4665 32.1943C14.484 32.2105 14.4983 32.2218 14.5111 32.2204C14.5191 32.222 14.5305 32.2077 14.5418 32.1934C15.4512 30.9984 15.8617 29.7364 15.0987 28.4413C14.7692 27.884 14.2713 27.3539 13.6544 27.0536L13.6584 27.0544Z" fill="url(#paint7_radial_959_21477)"/>
<path style="mix-blend-mode:screen" fill-rule="evenodd" clip-rule="evenodd" d="M13.6582 27.0527C14.3459 28.3487 14.7182 30.5928 14.5149 32.2195C14.5229 32.2212 14.5343 32.2069 14.5456 32.1926C15.455 30.9976 15.8655 29.7356 15.1025 28.4405C14.773 27.8831 14.2751 27.3531 13.6582 27.0527Z" fill="url(#paint8_radial_959_21477)"/>
<path style="mix-blend-mode:screen" fill-rule="evenodd" clip-rule="evenodd" d="M14.0146 27.2617C14.9394 28.1233 15.3764 29.0829 15.0466 30.4578C14.8693 31.1844 14.5376 31.5531 14.5146 32.2202C14.5226 32.2219 14.534 32.2076 14.5453 32.1932C15.4547 30.9982 15.8652 29.7362 15.1022 28.4412C14.8405 27.9982 14.4714 27.5703 14.0186 27.2626L14.0146 27.2617Z" fill="url(#paint9_radial_959_21477)"/>
<path style="mix-blend-mode:screen" opacity="0.5" fill-rule="evenodd" clip-rule="evenodd" d="M14.5693 31.2104C15.0654 30.1166 15.0491 28.8611 14.1074 28.1797C14.3926 29.1075 14.5626 30.2074 14.5693 31.2104Z" fill="url(#paint10_radial_959_21477)"/>
<path style="mix-blend-mode:multiply" fill-rule="evenodd" clip-rule="evenodd" d="M14.5151 32.2212C13.3746 31.0557 13.2032 29.3462 14.1115 28.176C13.9817 27.7607 13.8323 27.3788 13.6584 27.0544C13.0749 27.291 12.5497 28.0658 12.5582 28.6226C12.5879 30.0728 13.5924 31.4895 14.4665 32.1943C14.484 32.2105 14.4983 32.2218 14.5111 32.2204L14.5151 32.2212Z" fill="url(#paint11_radial_959_21477)"/>
<path fill-rule="evenodd" clip-rule="evenodd" d="M13.521 26.2398C13.5362 26.6645 13.9563 27.4662 14.1054 27.9691C14.5061 29.3009 14.7838 30.7822 14.5181 32.1497C14.604 30.7446 14.4008 29.3456 13.9809 28.0056C13.8068 27.4433 13.3883 26.7337 13.3658 26.224L13.521 26.2398Z" fill="url(#paint12_radial_959_21477)"/>
<path fill-rule="evenodd" clip-rule="evenodd" d="M7.88175 35.0701C7.39532 37.4191 9.22653 39.5086 11.2274 39.9279C13.2282 40.3472 15.4906 39.5463 16.1293 36.9148C16.3743 35.9124 16.2472 34.6865 15.46 33.9452C14.6229 33.1643 13.3189 33.4732 12.6087 33.3361C11.8986 33.1989 10.8993 32.4422 9.71883 32.8003C8.70636 33.1063 8.06316 34.1766 7.88175 35.0701Z" fill="url(#paint13_radial_959_21477)"/>
<path style="mix-blend-mode:multiply" fill-rule="evenodd" clip-rule="evenodd" d="M13.1972 33.3843C15.0548 33.5989 15.6317 35.4547 15.1499 37.0595C14.6658 38.6755 13.2458 40.1768 11.0037 39.8816C11.0761 39.8968 11.153 39.9187 11.2254 39.9339C13.2319 40.3544 15.4886 39.5523 16.1274 36.9209C16.3723 35.9185 16.2452 34.6925 15.458 33.9512C14.8202 33.3577 13.9108 33.3941 13.2028 33.3855L13.1972 33.3843Z" fill="url(#paint14_radial_959_21477)"/>
<path style="mix-blend-mode:multiply" fill-rule="evenodd" clip-rule="evenodd" d="M8.23048 37.594C7.32301 35.372 8.53911 32.6228 11.1551 32.8275C10.7163 32.7007 10.2332 32.646 9.71681 32.8056C8.70434 33.1116 8.06114 34.1819 7.87972 35.0753C7.6904 35.9788 7.85095 36.8508 8.22931 37.5995L8.23048 37.594Z" fill="url(#paint15_radial_959_21477)"/>
<path style="mix-blend-mode:screen" fill-rule="evenodd" clip-rule="evenodd" d="M10.239 33.7594C9.81779 33.6595 9.37056 34.0723 9.31222 34.4618C9.1051 35.8389 11.2122 36.7229 11.8689 35.6438C12.1173 35.2359 11.97 34.8557 11.5554 34.6408C11.3932 34.5544 11.2453 34.4826 11.1 34.3707C10.7995 34.1389 10.6758 33.8684 10.2323 33.7639L10.239 33.7594Z" fill="url(#paint16_radial_959_21477)"/>
<path style="mix-blend-mode:screen" fill-rule="evenodd" clip-rule="evenodd" d="M9.90593 32.9915C8.17924 33.596 7.51041 35.9825 8.27621 37.4645C8.34642 37.6015 8.37689 37.5671 8.35981 37.4821C8.00959 35.9882 8.38626 33.9131 10.025 33.0339C10.0834 33.0054 10.1238 32.9789 10.1206 32.9666C10.113 32.9475 9.93847 32.975 9.90593 32.9915Z" fill="url(#paint17_radial_959_21477)"/>
<path style="mix-blend-mode:screen" fill-rule="evenodd" clip-rule="evenodd" d="M10.7432 33.609C10.9156 34.1749 11.8456 34.5677 12.4999 34.472C12.6374 34.4542 12.7787 34.3907 12.7892 34.3405C12.7962 34.307 12.7214 34.303 12.5675 34.2882C12.0788 34.2324 11.3604 34.0236 11.0294 33.4652C10.9051 33.2529 10.6685 33.3547 10.7432 33.609Z" fill="url(#paint18_radial_959_21477)"/>
<path fill-rule="evenodd" clip-rule="evenodd" d="M11.5514 33.1089C11.023 32.8817 10.8508 33.1484 11.1453 33.5477C11.5754 34.1327 12.6444 34.3625 13.2701 34.2084C13.8589 34.064 14.1949 33.4882 13.4708 33.5285C12.4628 33.5909 12.1978 33.384 11.5526 33.1033L11.5514 33.1089Z" fill="#A10505"/>
<path fill-rule="evenodd" clip-rule="evenodd" d="M12.0473 33.3749C11.7425 33.247 11.6227 33.4024 11.7903 33.6296C12.034 33.966 12.5579 34.0758 12.9195 33.9885C13.2631 33.9034 13.4045 33.5895 12.9869 33.5835C12.5513 33.5795 12.3733 33.5131 12.0417 33.3738L12.0473 33.3749Z" fill="#8A0505"/>
<path d="M7.13932 32.2107C7.12384 32.1625 7.25319 32.1311 7.26763 32.0622C7.88517 29.2374 10.2558 27.2745 13.2067 26.4C13.2652 26.6821 13.2238 27.0017 13.0951 27.2984C12.8131 27.9363 12.5961 28.264 12.4045 29.447C12.1598 30.956 12.2891 32.5119 12.7952 33.832C12.8044 33.861 12.8996 33.9439 12.8853 33.9634C12.8186 34.0618 12.5116 34.0379 12.3705 33.9544C12.2975 33.9121 12.2296 33.7085 12.2107 33.6281C11.5542 31.5121 11.3854 29.364 12.7348 26.8452C10.4225 27.7134 8.77187 29.5016 7.76856 32.0622C7.74238 32.1871 7.6981 32.2783 7.66096 32.3335C7.6001 32.4286 7.17556 32.3307 7.14022 32.2064L7.13932 32.2107Z" fill="url(#paint19_radial_959_21477)"/>
<path fill-rule="evenodd" clip-rule="evenodd" d="M12.6141 26.5955C12.9465 26.6202 13.1763 26.8662 13.1916 27.0132C13.1941 27.0498 13.2714 26.9985 13.2973 26.9725C13.3308 26.9345 13.3288 26.8711 13.3583 26.8279C13.4451 26.7066 13.6831 26.5227 13.8558 26.4555C13.8723 26.4499 13.9124 26.4538 13.9111 26.4356C13.9353 26.0764 13.3832 25.8303 13.1601 25.9185C13.1154 25.9361 13.0939 25.99 13.0702 26.03C12.9744 26.1943 12.8225 26.3334 12.6448 26.449C12.6264 26.4632 12.5943 26.4699 12.5889 26.4958C12.5817 26.5302 12.5745 26.5647 12.619 26.5965L12.6141 26.5955Z" fill="url(#paint20_radial_959_21477)"/>
<path style="mix-blend-mode:screen" fill-rule="evenodd" clip-rule="evenodd" d="M13.4594 26.2412C13.5482 26.0619 13.1902 25.915 13.0633 26.0323C12.9675 26.1966 12.8164 26.3313 12.6436 26.448C12.6253 26.4621 12.5981 26.4699 12.5887 26.4904C12.6582 26.5005 12.7259 26.5192 12.7887 26.5368C12.9753 26.5984 13.111 26.7078 13.1922 26.8327C13.2022 26.7853 13.1957 26.6941 13.1036 26.6208C13.1492 26.5989 13.1956 26.5726 13.2322 26.5443C13.3305 26.466 13.407 26.3696 13.4634 26.2465L13.4594 26.2412Z" fill="url(#paint21_radial_959_21477)"/>
<path style="mix-blend-mode:multiply" fill-rule="evenodd" clip-rule="evenodd" d="M13.2882 26.6427C13.2204 26.6734 13.2743 26.8556 13.2684 26.9083C13.2612 26.9428 13.2358 26.9419 13.2042 26.9218C13.1726 26.9017 13.129 26.8656 13.0983 26.8412C13.1472 26.9009 13.1755 26.9608 13.1852 27.0123C13.1878 27.0488 13.265 26.9975 13.291 26.9715C13.3245 26.9336 13.3224 26.8702 13.352 26.8269C13.4387 26.7057 13.6768 26.5218 13.8495 26.4545C13.866 26.449 13.9061 26.4529 13.9048 26.4346C13.9228 26.1776 13.6421 25.9794 13.4047 25.9161C13.6554 26.0136 13.8696 26.2609 13.6945 26.413C13.6502 26.4532 13.5227 26.476 13.4749 26.5334C13.4556 26.5518 13.4836 26.5892 13.4693 26.6087C13.4407 26.6476 13.3182 26.622 13.2833 26.6416L13.2882 26.6427Z" fill="url(#paint22_radial_959_21477)"/>
<path style="mix-blend-mode:multiply" fill-rule="evenodd" clip-rule="evenodd" d="M7.83997 30.938C7.66511 31.333 7.58967 31.5465 7.54299 31.8425C7.52855 31.9114 7.52301 31.9867 7.51566 32.0706L7.50663 32.1137C7.51012 32.1459 7.5038 32.176 7.50238 32.2072C7.48678 32.3793 7.30997 32.3198 7.20397 32.2886C7.33435 32.3743 7.61148 32.4189 7.65804 32.3432C7.68757 32.3 7.70337 32.2619 7.71582 32.2072C7.72828 32.1526 7.74098 32.0739 7.74098 32.0739C7.74098 32.0739 7.80624 31.9865 7.80804 31.9779C7.82158 31.9133 7.82553 31.8415 7.83997 31.7725C8.94039 29.4342 10.1464 27.8513 12.7328 26.8507C12.7596 26.8203 12.7864 26.79 12.8132 26.7596C10.5214 27.2236 8.60803 29.2014 7.83507 30.937L7.83997 30.938Z" fill="url(#paint23_radial_959_21477)"/>
<path style="mix-blend-mode:multiply" fill-rule="evenodd" clip-rule="evenodd" d="M12.9928 26.7327C13.0922 26.8929 13.0462 26.9417 12.9283 27.1868C12.7871 27.4944 12.6585 27.7418 12.5484 28.0964C12.0028 29.8212 12.0276 31.4362 12.4575 33.2664C12.4817 33.3704 12.5274 33.4699 12.573 33.5694C12.5934 33.6187 12.6196 33.6646 12.6351 33.7128L12.6492 33.7428L12.6554 33.7621C12.7373 33.9816 12.6753 34.009 12.4779 33.9991C12.6271 34.0439 12.8272 34.0409 12.8845 33.9629C12.8988 33.9434 12.8036 33.8606 12.7943 33.8316C12.7872 33.8167 12.781 33.7974 12.7739 33.7824L12.7585 33.7342C12.7421 33.6903 12.7257 33.6464 12.7093 33.6025C12.2745 32.3332 12.1673 30.8674 12.3987 29.4455C12.5912 28.2583 12.8074 27.9349 13.0894 27.297C13.1298 27.202 13.1643 27.1103 13.1851 27.0113C13.1803 26.9608 13.147 26.8999 13.0982 26.8402C13.0702 26.8028 13.0315 26.7678 12.983 26.7306L12.9928 26.7327Z" fill="url(#paint24_radial_959_21477)"/>
<path style="mix-blend-mode:screen" opacity="0.5" fill-rule="evenodd" clip-rule="evenodd" d="M7.48605 31.5999C7.9575 29.9361 9.01418 28.6287 10.0914 28.0046C8.69462 29.2992 8.18627 29.8941 7.48605 31.5999Z" fill="url(#paint25_radial_959_21477)"/>
</g>
<path fill-rule="evenodd" clip-rule="evenodd" d="M19.177 35.3564C19.0673 35.4922 18.9785 35.8319 19.0046 36.0044C19.5478 36.3859 20.0544 36.8354 20.6812 37.0653C26.0035 39.0252 32.2607 34.609 31.1795 29.8113C31.0437 29.2103 30.6885 28.6615 29.9677 28.2225C29.5917 27.9926 29.2365 27.7678 28.9858 27.3811C28.8709 27.2034 28.7978 27.0205 28.7351 26.7383C28.6829 26.8637 28.5366 26.848 28.4322 27.01C28.2285 26.8271 28.1397 26.9317 27.9569 26.754C27.8002 26.963 27.9569 27.0989 28.1292 27.3863C28.3486 27.726 28.5471 27.9769 28.6307 28.3846C28.6829 28.6615 28.3956 28.7765 28.3173 29.2991C28.0509 31.0029 27.3562 32.7328 25.1887 33.6317C23.4233 34.3634 21.9452 34.2954 20.1746 34.8755C19.856 34.9801 19.5165 35.2257 19.1874 35.3564H19.177Z" fill="#FFCC00"/>
<path fill-rule="evenodd" clip-rule="evenodd" d="M28.4317 27.0107C28.4943 27.2824 28.6354 27.4967 28.8652 27.8521C29.1472 28.2807 29.283 28.4479 29.3614 28.7876C29.6069 29.8381 29.5442 30.9565 29.1368 31.939C28.7346 32.9111 27.9407 33.8048 27.0058 34.4528C25.4702 35.519 23.9033 35.7071 22.0961 35.6601C21.3336 35.6392 20.5762 35.5556 19.8137 35.566C19.4376 35.5713 19.2078 35.634 19.025 35.7333C19.0041 35.8378 18.9937 35.9371 19.0041 36.0103C19.5473 36.3918 20.0539 36.8412 20.6807 37.0712C26.003 39.031 32.2602 34.6149 31.179 29.8172C31.0432 29.2161 30.688 28.6726 29.9672 28.2284C29.5912 27.9984 29.236 27.7737 28.9853 27.387C28.8704 27.2093 28.7973 27.0264 28.7346 26.7441C28.6824 26.8696 28.5361 26.8539 28.4317 27.0159V27.0107Z" fill="url(#paint26_radial_959_21477)"/>
<path fill-rule="evenodd" clip-rule="evenodd" d="M19.0244 35.7326C19.2072 35.6333 19.437 35.5706 19.8131 35.5653C20.5809 35.5497 21.3382 35.6228 22.0956 35.6594C25.0257 35.8005 27.961 34.7814 29.1362 31.9383C29.5436 30.9558 29.6011 29.8374 29.3608 28.7869C29.2824 28.4472 29.1467 28.28 28.8646 27.8514C28.6348 27.496 28.4938 27.2818 28.4311 27.01C28.2274 26.8271 28.1386 26.9316 27.9558 26.7539C27.7991 26.963 27.9558 27.0988 28.1282 27.3863C28.3475 27.726 28.546 27.9769 28.6296 28.3845C28.6818 28.6615 28.3945 28.7765 28.3162 29.2991C28.0498 31.0028 27.3552 32.7327 25.1876 33.6316C23.4222 34.3633 21.9441 34.2954 20.1735 34.8755C19.8549 34.98 19.5154 35.2256 19.1863 35.3563C19.1237 35.4347 19.0662 35.5863 19.0349 35.7274L19.0244 35.7326Z" fill="url(#paint27_radial_959_21477)"/>
<path style="mix-blend-mode:multiply" fill-rule="evenodd" clip-rule="evenodd" d="M19.1758 35.9736C19.7294 36.1252 20.9673 36.6896 22.3618 36.8935C21.1814 37.0607 19.7399 36.3656 19.1758 35.9736Z" fill="url(#paint28_radial_959_21477)"/>
<path style="mix-blend-mode:multiply" fill-rule="evenodd" clip-rule="evenodd" d="M19.2461 35.8584C19.7214 35.8845 20.719 36.2086 21.7427 36.3079C20.8757 36.4281 19.7162 36.057 19.2461 35.8584Z" fill="url(#paint29_radial_959_21477)"/>
<path fill-rule="evenodd" clip-rule="evenodd" d="M28.6524 28.5413C28.7778 28.3688 29.1747 28.4106 29.2531 28.5413C29.3001 28.6144 29.3314 28.6876 29.3576 28.7765C29.2792 28.442 29.1434 28.2747 28.8614 27.8514C28.6786 27.5692 28.5532 27.3811 28.4749 27.172C28.454 27.1197 28.4383 27.0623 28.4226 27.01C28.2189 26.8271 28.1301 26.9316 27.9473 26.7539C27.7906 26.963 27.9473 27.0936 28.1197 27.3863C28.3391 27.726 28.5375 27.9769 28.6211 28.3845C28.6368 28.4681 28.6263 28.5465 28.6054 28.6249C28.6159 28.5988 28.6263 28.5779 28.6368 28.5622C28.6368 28.5517 28.6472 28.5465 28.6524 28.5413Z" fill="url(#paint30_radial_959_21477)"/>
<path style="mix-blend-mode:screen" opacity="0.5" fill-rule="evenodd" clip-rule="evenodd" d="M21.75 35.6429C23.4266 35.6064 24.9778 35.5593 26.832 34.4723C28.049 33.7615 28.681 32.9096 29.1876 31.833C28.8115 32.988 28.1639 33.9549 26.973 34.697C25.4845 35.6273 23.5519 35.7579 21.75 35.6429Z" fill="url(#paint31_radial_959_21477)"/>
<path style="mix-blend-mode:multiply" fill-rule="evenodd" clip-rule="evenodd" d="M28.3105 29.3044C28.0441 31.0082 27.3494 32.738 25.1819 33.637C23.4165 34.3686 21.9384 34.3007 20.1678 34.8808C19.9641 34.9487 19.7552 35.0689 19.541 35.1839C20.1208 34.9174 20.6117 34.7815 21.3482 34.6352C24.623 33.9871 27.1823 34.0707 28.1904 30.3706C28.3575 29.7643 28.2844 29.3828 28.4828 28.8184C28.4149 28.9386 28.347 29.0849 28.3157 29.3044H28.3105Z" fill="url(#paint32_radial_959_21477)"/>
<path style="mix-blend-mode:screen" fill-rule="evenodd" clip-rule="evenodd" d="M28.5422 29.6297C28.443 30.3301 28.3542 30.8579 28.1453 31.3962C27.7588 32.3892 27.1842 32.917 27.2312 32.9014C28.1714 32.593 29.075 30.9729 29.0593 29.9329C29.0541 29.4155 28.6728 28.7256 28.5422 29.6297Z" fill="url(#paint33_radial_959_21477)"/>
<path fill-rule="evenodd" clip-rule="evenodd" d="M30.3127 31.7971C28.8555 36.2655 24.8703 36.6941 25.5649 36.6105C28.0407 36.3126 29.9262 34.4102 30.5529 32.5026C30.7149 32.0114 30.5947 30.9295 30.3075 31.7971H30.3127Z" fill="#E39B00"/>
<path fill-rule="evenodd" clip-rule="evenodd" d="M27.9551 26.7544C27.9916 26.6551 28.0961 26.5454 28.1118 26.5349C28.1849 26.4983 28.2894 26.4408 28.5923 26.4199C28.6341 26.4356 28.7281 26.6185 28.7333 26.7387C28.7176 26.8014 28.702 26.8589 28.6863 26.9216C28.6184 27.0053 28.5505 27.0941 28.4826 27.1777C28.3886 27.1202 28.2946 27.0628 28.2006 27.0053C28.1222 26.9216 28.0386 26.838 27.9603 26.7596L27.9551 26.7544Z" fill="#663300"/>
<path fill-rule="evenodd" clip-rule="evenodd" d="M21.9905 38.738C21.9226 38.9157 21.9591 39.2972 22.0427 39.4697C22.7374 39.6683 23.4164 39.9505 24.1476 39.961C30.3212 40.0812 35.1839 33.3027 32.3582 28.7559C32.003 28.1862 31.4442 27.7525 30.5458 27.5539C30.081 27.4493 29.6265 27.3448 29.2348 27.0365C29.052 26.8954 28.911 26.7333 28.7491 26.4668C28.7386 26.6131 28.5872 26.6549 28.5349 26.8588C28.2633 26.7438 28.2111 26.8849 27.9552 26.7647C27.8664 27.0365 28.0805 27.1149 28.3574 27.3553C28.7021 27.627 28.9998 27.8152 29.2244 28.2071C29.3758 28.4684 29.1251 28.6932 29.2244 29.2628C29.5587 31.1129 29.4594 33.1355 27.553 34.834C25.9965 36.2137 24.4557 36.6684 22.8366 37.9018C22.5441 38.1213 22.283 38.4976 21.9905 38.7485V38.738Z" fill="#FFCC00"/>
<path fill-rule="evenodd" clip-rule="evenodd" d="M28.5397 26.8487C28.7016 27.11 28.9262 27.2772 29.2866 27.5594C29.7305 27.8991 29.929 28.0246 30.1275 28.3434C30.7542 29.3363 31.0885 30.507 31.0206 31.662C30.9527 32.8066 30.4513 34.0086 29.7201 35.0068C28.5188 36.6531 26.9728 37.4057 25.0977 38.0014C24.3038 38.2523 23.4994 38.4352 22.716 38.7174C22.3295 38.8586 22.1153 39.0049 21.9639 39.1721C21.9795 39.2871 22.0057 39.3916 22.0422 39.4648C22.7369 39.6634 23.4159 39.9456 24.1471 39.9561C30.3207 40.0763 35.1834 33.2978 32.3577 28.751C32.0025 28.1813 31.4437 27.7476 30.5453 27.549C30.0805 27.4444 29.6261 27.3399 29.2343 27.0316C29.0515 26.8905 28.9105 26.7285 28.7486 26.4619C28.7381 26.6082 28.5867 26.6501 28.5344 26.8539L28.5397 26.8487Z" fill="url(#paint34_radial_959_21477)"/>
<path fill-rule="evenodd" clip-rule="evenodd" d="M21.9634 39.1721C22.1149 39.0048 22.329 38.8585 22.7155 38.7174C23.499 38.43 24.3033 38.2314 25.0972 38.0014C28.1579 37.1025 30.8217 35.0068 31.0149 31.6672C31.0828 30.5122 30.7485 29.3415 30.1218 28.3485C29.9233 28.0297 29.7196 27.9043 29.2809 27.5646C28.9153 27.2824 28.6959 27.1151 28.534 26.8538C28.2624 26.7389 28.2102 26.88 27.9542 26.7598C27.8654 27.0315 28.0796 27.1099 28.3564 27.3503C28.7011 27.6221 28.9988 27.8102 29.2234 28.2022C29.3749 28.4635 29.1242 28.6882 29.2234 29.2579C29.5577 31.108 29.4585 33.1358 27.5521 34.8291C25.9956 36.2088 24.4548 36.6635 22.8357 37.8969C22.5432 38.1164 22.282 38.4927 21.9895 38.7435C21.953 38.8481 21.9477 39.0205 21.9634 39.1825V39.1721Z" fill="url(#paint35_radial_959_21477)"/>
<path style="mix-blend-mode:multiply" fill-rule="evenodd" clip-rule="evenodd" d="M22.2031 39.4285C22.7933 39.3971 24.1827 39.4964 25.6138 39.2979C24.5222 39.7055 22.8873 39.5696 22.2031 39.4285Z" fill="url(#paint36_radial_959_21477)"/>
<path fill-rule="evenodd" clip-rule="evenodd" d="M21.9584 38.9528C21.9584 39.0051 21.9688 39.0835 22.0263 39.0574C22.1203 39.0156 22.1934 38.979 22.2561 38.9424C22.2195 39.0051 22.0576 39.1096 22.0158 39.3918C21.9897 39.3448 21.9479 39.303 21.9323 39.2507C21.8957 39.1462 21.9323 39.0574 21.9636 38.9581L21.9584 38.9528Z" fill="#663300"/>
<path fill-rule="evenodd" clip-rule="evenodd" d="M29.3064 28.3479C29.3743 28.1232 29.7973 28.0291 29.9279 28.1336C30.001 28.1964 30.0585 28.2591 30.1212 28.3375C29.9227 28.0239 29.719 27.8985 29.2855 27.5588C28.9982 27.334 28.7997 27.1825 28.6483 26.9995C28.6065 26.9525 28.5699 26.9002 28.5386 26.848C28.267 26.733 28.2148 26.8741 27.9588 26.7539C27.87 27.0257 28.0842 27.1041 28.361 27.3445C28.7057 27.6162 29.0034 27.8044 29.228 28.1964C29.275 28.28 29.2907 28.3584 29.2959 28.4472C29.2959 28.4211 29.2959 28.395 29.3064 28.374C29.3064 28.3636 29.3064 28.3531 29.3116 28.3479H29.3064Z" fill="url(#paint37_radial_959_21477)"/>
<path style="mix-blend-mode:screen" opacity="0.5" fill-rule="evenodd" clip-rule="evenodd" d="M24.7363 38.1114C26.4443 37.479 28.0268 36.8728 29.5467 35.0958C30.5443 33.9304 30.8943 32.8276 31.0301 31.542C31.0562 32.8642 30.7324 34.0872 29.7713 35.2788C28.57 36.763 26.6323 37.594 24.7363 38.1114Z" fill="url(#paint38_radial_959_21477)"/>
<path fill-rule="evenodd" clip-rule="evenodd" d="M21.9957 38.7373C21.9278 38.7791 21.8912 38.7896 21.8599 38.9254C21.8076 39.1397 21.8285 39.4219 22.0479 39.469C22.0322 39.2233 22.0113 38.9829 21.9957 38.7373Z" fill="#663300"/>
<path style="mix-blend-mode:multiply" fill-rule="evenodd" clip-rule="evenodd" d="M29.2236 29.2522C29.5579 31.1023 29.4586 33.1301 27.5522 34.8234C25.9958 36.2031 24.455 36.6578 22.8358 37.8912C22.653 38.0323 22.4754 38.2361 22.2979 38.4295C22.7993 37.9487 23.2589 37.6351 23.9588 37.2222C27.0978 35.3878 29.7616 34.5569 29.4795 30.3968C29.4325 29.7121 29.2236 29.3463 29.2236 28.6982C29.1975 28.8446 29.1766 29.0223 29.2236 29.2575V29.2522Z" fill="url(#paint39_radial_959_21477)"/>
<path style="mix-blend-mode:screen" fill-rule="evenodd" clip-rule="evenodd" d="M29.5859 29.5039C29.7321 30.2565 29.8314 30.8366 29.8105 31.4638C29.7687 32.624 29.3665 33.3713 29.4083 33.34C30.2649 32.6867 30.6148 30.7007 30.2283 29.6346C30.0351 29.1067 29.3979 28.5266 29.5859 29.5039Z" fill="url(#paint40_radial_959_21477)"/>
<path fill-rule="evenodd" clip-rule="evenodd" d="M32.1768 31.1033C32.2709 36.2197 28.3222 38.0803 29.0065 37.7458C31.4456 36.5594 32.7096 33.9306 32.6783 31.7409C32.6678 31.1816 32.1612 30.1103 32.1768 31.1033Z" fill="#E39B00"/>
<path fill-rule="evenodd" clip-rule="evenodd" d="M27.9551 26.7546C27.9551 26.6396 28.0282 26.488 28.0386 26.4724C28.1013 26.4096 28.1901 26.3103 28.4878 26.1797C28.5348 26.1797 28.6967 26.3312 28.749 26.4567C28.749 26.5246 28.7594 26.5926 28.7646 26.6605L28.6497 26.995C28.5296 26.9688 28.4147 26.9427 28.2946 26.9166C28.1797 26.8591 28.07 26.8068 27.9551 26.7493V26.7546Z" fill="#663300"/>
<path style="mix-blend-mode:multiply" opacity="0.5" fill-rule="evenodd" clip-rule="evenodd" d="M22.9355 38.7073C23.6093 38.3885 24.8785 38.2369 26.2104 37.6934C25.265 38.425 23.7817 38.4564 22.9355 38.7073Z" fill="url(#paint41_radial_959_21477)"/>
<path fill-rule="evenodd" clip-rule="evenodd" d="M26.5293 40.6394C26.5293 40.838 26.7017 41.1986 26.8479 41.3345C27.6 41.277 28.3626 41.2979 29.0834 41.0418C35.1578 38.8938 37.4141 30.49 32.9902 27.0877C32.4313 26.6592 31.7262 26.4449 30.7808 26.5808C30.2847 26.654 29.8094 26.7167 29.3132 26.5599C29.0834 26.4867 28.8849 26.3822 28.629 26.1836C28.676 26.3299 28.5402 26.424 28.5663 26.6435C28.2581 26.6331 28.2581 26.7898 27.9656 26.7637C27.9813 27.0616 28.2163 27.0616 28.5715 27.1923C29.0102 27.3334 29.3654 27.4013 29.731 27.7044C29.9765 27.9083 29.8094 28.2166 30.1175 28.734C31.1203 30.4169 31.768 32.429 30.5301 34.786C29.5169 36.704 28.1798 37.7179 27.0516 39.5105C26.8479 39.8345 26.7278 40.2944 26.5345 40.6498L26.5293 40.6394Z" fill="#FFCC00"/>
<path fill-rule="evenodd" clip-rule="evenodd" d="M28.5558 26.6331C28.8117 26.8264 29.0885 26.91 29.5482 27.0512C30.107 27.2236 30.3473 27.2707 30.6607 27.5058C31.6374 28.248 32.3895 29.2671 32.7499 30.4169C33.105 31.5562 33.058 32.915 32.7081 34.1588C32.1388 36.2075 30.9061 37.5089 29.2974 38.7788C28.6185 39.3119 27.8924 39.7875 27.2343 40.3572C26.9105 40.6394 26.7538 40.8589 26.665 41.0784C26.7225 41.1829 26.7852 41.2822 26.8478 41.3345C27.6 41.277 28.3625 41.2979 29.0833 41.0418C35.1577 38.8938 37.414 30.49 32.9901 27.0877C32.4313 26.6592 31.7262 26.4449 30.7808 26.5808C30.2846 26.654 29.8093 26.7167 29.3131 26.5599C29.0833 26.4867 28.8848 26.3822 28.6289 26.1836C28.6759 26.3299 28.5401 26.424 28.5662 26.6435L28.5558 26.6331Z" fill="url(#paint42_radial_959_21477)"/>
<path fill-rule="evenodd" clip-rule="evenodd" d="M26.6703 41.0734C26.7591 40.8539 26.9106 40.6344 27.2396 40.3522C27.8977 39.7878 28.6081 39.2965 29.3027 38.7739C31.9613 36.7722 33.7945 33.7515 32.7552 30.4171C32.3948 29.2673 31.6426 28.243 30.6659 27.5061C30.3526 27.2657 30.1123 27.2187 29.5534 27.0514C29.0938 26.9103 28.817 26.8267 28.5611 26.6333C28.2529 26.6229 28.2529 26.7796 27.9604 26.7535C27.9761 27.0514 28.2111 27.0514 28.5663 27.1821C29.005 27.3232 29.3602 27.3911 29.7258 27.6942C29.9713 27.8981 29.8041 28.2064 30.1123 28.7238C31.1151 30.4067 31.7628 32.4188 30.5249 34.7758C29.5116 36.6938 28.1746 37.7077 27.0464 39.5003C26.8427 39.8243 26.7225 40.2843 26.5293 40.6396C26.5293 40.7546 26.5868 40.9271 26.6651 41.0734H26.6703Z" fill="url(#paint43_radial_959_21477)"/>
<path style="mix-blend-mode:multiply" opacity="0.5" fill-rule="evenodd" clip-rule="evenodd" d="M26.9668 41.1774C27.5622 40.9056 29.0456 40.5032 30.4192 39.667C29.5104 40.6652 27.7503 41.1094 26.9668 41.1774Z" fill="url(#paint44_radial_959_21477)"/>
<path fill-rule="evenodd" clip-rule="evenodd" d="M26.5771 40.8645C26.598 40.9168 26.6346 40.99 26.6816 40.9429C26.9219 40.7025 26.9584 40.5875 27.2927 40.3105C27.1726 40.436 26.5667 41.0527 26.7913 41.2722C26.7443 41.2356 26.6921 41.2095 26.6555 41.1624C26.5824 41.0736 26.5876 40.9743 26.5771 40.8645Z" fill="#663300"/>
<path fill-rule="evenodd" clip-rule="evenodd" d="M29.8563 27.8108C29.8406 27.5704 30.2167 27.3196 30.3838 27.3771C30.4778 27.4084 30.5561 27.4502 30.6502 27.5077C30.342 27.2725 30.0965 27.2255 29.5481 27.0583C29.1877 26.9485 28.937 26.8701 28.7176 26.7499C28.6602 26.7185 28.608 26.682 28.5557 26.6401C28.2476 26.6297 28.2476 26.7865 27.9551 26.7604C27.9707 27.0583 28.2058 27.0583 28.5609 27.1889C28.9997 27.33 29.3549 27.398 29.7205 27.7011C29.7988 27.7638 29.8406 27.837 29.8772 27.9206C29.8667 27.8945 29.8615 27.8631 29.8563 27.8422C29.8563 27.8317 29.8563 27.8213 29.8563 27.8161V27.8108Z" fill="url(#paint45_radial_959_21477)"/>
<path fill-rule="evenodd" clip-rule="evenodd" d="M26.5262 40.6396C26.474 40.7024 26.4427 40.7285 26.4636 40.8748C26.4949 41.0996 26.615 41.3713 26.8449 41.3347C26.7404 41.1048 26.6307 40.8748 26.5262 40.6396Z" fill="#663300"/>
<path style="mix-blend-mode:multiply" opacity="0.5" fill-rule="evenodd" clip-rule="evenodd" d="M30.1173 28.7245C31.1201 30.4074 31.7678 32.4195 30.5299 34.7765C29.5166 36.6946 28.1795 37.7084 27.0514 39.501C26.9208 39.7049 26.8268 39.9662 26.7275 40.2223C27.0409 39.569 27.3752 39.0934 27.9079 38.4349C30.2949 35.4925 32.593 33.7051 30.7911 29.7437C30.4933 29.0956 30.1539 28.8134 29.9188 28.1758C29.9449 28.3273 29.9919 28.505 30.1225 28.7193L30.1173 28.7245Z" fill="url(#paint46_radial_959_21477)"/>
<path style="mix-blend-mode:screen" fill-rule="evenodd" clip-rule="evenodd" d="M30.5496 28.8398C30.9674 29.5245 31.2756 30.0471 31.4845 30.6742C31.8658 31.824 31.7508 32.6968 31.777 32.655C32.3724 31.7038 31.9859 29.6342 31.2181 28.7353C30.8368 28.2911 30.0064 27.9618 30.5443 28.8451L30.5496 28.8398Z" fill="url(#paint47_radial_959_21477)"/>
<path fill-rule="evenodd" clip-rule="evenodd" d="M27.9578 26.7544C27.916 26.6446 27.9317 26.4669 27.9369 26.4513C27.9735 26.3676 28.0257 26.237 28.2712 26.0018C28.3182 25.9861 28.5324 26.075 28.6264 26.1743L28.7152 26.3729C28.7152 26.4983 28.7204 26.6185 28.7256 26.7439C28.6003 26.7596 28.4749 26.7805 28.3495 26.7962C28.219 26.7805 28.0884 26.7701 27.9578 26.7544Z" fill="#663300"/>
<path style="mix-blend-mode:multiply" fill-rule="evenodd" clip-rule="evenodd" d="M28.6043 26.3626C28.9751 26.6553 29.2571 26.5821 29.769 26.7023C30.1451 26.7912 30.1398 27.0159 30.213 27.0211C30.2652 27.0211 30.4271 26.9375 30.6569 26.8905C31.4717 26.718 32.0985 26.7859 32.6782 27.3869C36.1777 31.0244 34.0937 37.113 30.7823 39.7418C29.7272 40.578 28.4789 41.1163 27.0844 41.179C26.865 41.1894 26.7762 41.2051 26.7188 41.1476C26.7658 41.2208 26.8128 41.2887 26.8598 41.3306C27.6119 41.2731 28.3745 41.294 29.0952 41.0379C35.1696 38.8899 37.426 30.4861 33.0021 27.0838C32.4432 26.6553 31.7381 26.441 30.7927 26.5769C30.2965 26.65 29.8212 26.7128 29.325 26.556C29.0952 26.4828 28.8968 26.3783 28.6408 26.1797C28.6617 26.2476 28.6408 26.3051 28.6199 26.3678L28.6043 26.3626Z" fill="url(#paint48_radial_959_21477)"/>
<path fill-rule="evenodd" clip-rule="evenodd" d="M27.9111 27.0105C27.8693 26.9007 27.8171 26.6081 27.8275 26.5924C27.8641 26.5088 28.0156 26.2265 28.2715 26.0018C28.3185 25.9861 28.5326 26.075 28.6267 26.1743L28.7154 26.3729C28.7154 26.4983 28.7207 26.6185 28.7259 26.7439C28.6789 26.7962 28.4282 26.9739 28.3028 27.0523L27.9111 27.0105Z" fill="url(#paint49_radial_959_21477)"/>
<path style="mix-blend-mode:screen" opacity="0.5" fill-rule="evenodd" clip-rule="evenodd" d="M33.6711 29.4514C35.635 34.4111 32.4646 37.6775 33.013 37.0974C34.9612 35.0435 35.2276 32.0123 34.3919 29.8852C34.1778 29.3417 33.2846 28.4846 33.6711 29.4462V29.4514Z" fill="url(#paint50_radial_959_21477)"/>
<path fill-rule="evenodd" clip-rule="evenodd" d="M42.8796 28.7222C39.9635 30.4943 39.027 34.1359 41.1689 36.9563C44.3215 41.1128 51.1505 38.6913 50.9975 33.7926C50.9557 32.4983 50.506 31.1716 49.7133 30.1556C48.1045 28.0867 45.2255 27.298 42.8796 28.7222Z" fill="url(#paint51_radial_959_21477)"/>
<path style="mix-blend-mode:multiply" fill-rule="evenodd" clip-rule="evenodd" d="M48.6654 36.5808C47.9514 37.3787 46.9871 37.9261 45.8049 38.121C43.3941 38.5153 41.5443 37.4622 40.4873 35.8293C40.6635 36.219 40.8906 36.5947 41.1688 36.9612C44.3214 41.1177 51.1504 38.6962 50.9974 33.7974C50.9556 32.5032 50.5059 31.1764 49.7132 30.1605C49.1568 29.4461 48.4521 28.8848 47.6686 28.5137C50.645 30.3321 50.9556 34.0155 48.6654 36.5808Z" fill="url(#paint52_radial_959_21477)"/>
<path fill-rule="evenodd" clip-rule="evenodd" d="M45.4345 31.4816C45.4066 31.3471 45.4437 30.795 45.5736 30.3682C45.6941 29.9647 45.9074 29.5703 46.3988 29.7513C46.8207 29.909 46.9273 29.9322 47.1823 29.7513C47.4373 29.575 47.7108 29.4219 47.989 29.4126C48.5824 29.3941 48.944 29.8812 48.9996 30.3914C49.0228 30.6095 48.9579 30.8553 49.0135 31.1012C49.0599 31.3146 49.6209 31.797 49.7785 32.3259C49.8666 32.6181 49.8666 32.9243 49.6348 33.1238C49.4725 33.263 49.2175 33.3418 49.1063 33.4763C48.9579 33.6619 49.0228 34.0052 48.9208 34.2047C48.6241 34.7892 47.53 34.3949 47.2101 34.1861C46.4637 33.314 45.5365 31.9687 45.4298 31.4816H45.4345Z" fill="url(#paint53_radial_959_21477)"/>
<path style="mix-blend-mode:screen" fill-rule="evenodd" clip-rule="evenodd" d="M45.1421 29.6915C44.4235 29.7193 44.4792 28.8936 45.1607 28.6663C45.5362 28.541 46.1945 28.541 46.533 28.7915C46.7462 28.9492 46.7184 29.2415 46.3985 29.2925C46.2734 29.3111 46.1296 29.3018 46.0091 29.3435C45.6938 29.4549 45.5733 29.6775 45.1421 29.6915ZM42.6526 29.8538C42.5274 30.0116 42.43 30.3224 42.277 30.4569C41.9803 30.7167 41.7207 30.9347 41.4333 31.2038C40.7378 31.8579 40.4365 33.1892 40.6451 34.0057C40.9094 35.0541 41.8644 35.2397 42.9215 34.2933C43.2599 33.9918 43.4824 33.6207 43.552 33.1104C43.5937 32.7857 43.4639 32.4285 43.5983 32.1316C43.8255 31.6352 44.3633 31.329 44.5904 30.8327C44.7249 30.5358 44.7898 30.1414 44.6368 29.8538C44.2242 29.0977 43.2274 29.1209 42.6572 29.8538H42.6526ZM44.0666 31.8811C43.8162 32.0713 43.7328 32.2707 43.7281 32.4795C43.7235 32.7253 43.8348 33.2774 44.1454 33.3006C44.2335 33.3052 44.3355 33.2727 44.4375 33.18C44.7295 32.9155 45.1607 31.9553 44.8825 31.6491C44.7527 31.5053 44.456 31.5842 44.0666 31.8811Z" fill="url(#paint54_radial_959_21477)"/>
<path style="mix-blend-mode:multiply" fill-rule="evenodd" clip-rule="evenodd" d="M47.4839 30.3914C47.3912 30.0574 47.6415 29.6631 48.0773 29.5981C48.2906 29.5657 48.527 29.612 48.7264 29.7327C48.5548 29.5332 48.3045 29.4033 47.9892 29.4126C47.8131 29.4172 47.6415 29.4822 47.47 29.5703C47.3726 29.6213 47.2753 29.6863 47.1779 29.7512C46.9229 29.9275 46.8209 29.9043 46.3944 29.7512C45.9076 29.5703 45.6897 29.9646 45.5692 30.3682C45.444 30.7996 45.4023 31.347 45.4301 31.4815C45.4533 31.3424 45.495 31.2079 45.546 31.078C45.7268 30.6465 46.2832 30.1641 46.7375 30.2012C46.9554 30.2198 47.164 30.2708 47.3634 30.345C47.4005 30.3589 47.4375 30.3728 47.4793 30.3914H47.4839Z" fill="url(#paint55_radial_959_21477)"/>
<path fill-rule="evenodd" clip-rule="evenodd" d="M46.7416 30.2022C47.298 30.2532 47.8126 30.4991 48.1927 30.8424C48.6332 31.2413 49.1061 32.1227 49.1061 32.698C49.1061 33.2175 48.7259 34.1917 48.1232 34.2984C47.3304 34.4376 46.3198 33.816 45.8515 33.199C45.4111 32.6098 45.2627 31.7655 45.5502 31.079C45.731 30.6475 46.2873 30.1651 46.7416 30.2022Z" fill="url(#paint56_radial_959_21477)"/>
<path fill-rule="evenodd" clip-rule="evenodd" d="M45.4529 31.7972C45.4854 31.6998 45.541 31.6024 45.5735 31.505C45.6708 31.2081 45.6754 30.7766 46.0463 30.605C46.2689 30.5029 46.5239 30.5122 46.7649 30.489C46.9504 30.4705 47.1915 30.4194 47.3723 30.4566C47.9425 30.5772 48.1233 30.9668 48.369 31.4075C48.5406 31.723 48.6565 31.8854 48.879 32.1822C49.1664 32.5719 48.9903 33.3698 48.6147 33.7502C48.3505 34.0193 48.1882 33.9219 47.8544 33.9358C47.72 33.9451 47.5855 33.9775 47.4511 33.9961C47.2749 34.0193 47.1358 34.0193 47.0153 34.0054C46.5424 33.9404 46.2364 33.5786 46.0185 33.1843C45.8748 32.9291 45.6754 32.7992 45.5595 32.5209C45.4575 32.2797 45.4019 31.9689 45.4576 31.7926L45.4529 31.7972Z" fill="url(#paint57_radial_959_21477)"/>
<path style="mix-blend-mode:screen" opacity="0.3" fill-rule="evenodd" clip-rule="evenodd" d="M46.7962 31.4786C46.7684 31.3812 46.7313 31.2884 46.6989 31.1956C46.6618 31.0889 46.4949 30.741 46.3233 30.9405C46.2306 31.0425 46.3233 31.2095 46.3929 31.358C46.5459 31.6641 46.2074 31.7477 45.9849 31.7894C45.7624 31.8312 45.6789 31.9518 45.6882 32.0863C45.716 32.5177 46.2074 32.4713 46.3836 32.6337C46.4253 32.6708 46.4624 32.7172 46.4763 32.7729C46.5273 33.028 46.2862 33.2321 46.5088 33.5012C46.6015 33.6172 46.7267 33.696 46.8704 33.7192C47.283 33.7888 47.1996 33.2739 47.385 33.2043C47.4916 33.1672 47.7791 33.4919 47.8903 33.5708C48.3308 33.8908 48.7295 33.26 48.4884 33.0141C48.2705 32.7868 47.7976 32.6198 47.8811 32.4249C47.9692 32.2115 48.3308 32.3275 48.4281 32.1002C48.493 31.9471 48.391 31.7894 48.2798 31.7198C48.1268 31.6178 47.9274 31.6317 47.7605 31.6224C47.6956 31.6224 47.6261 31.6224 47.5612 31.6085C47.4963 31.5899 47.436 31.5528 47.385 31.5064C47.3247 31.4554 47.2784 31.3905 47.232 31.3255C47.1764 31.2513 47.1486 31.1585 47.0837 31.0936C46.9678 30.9683 46.7916 31.0472 46.8055 31.1585C46.824 31.2884 46.875 31.4183 46.9307 31.5389C47.0698 31.8543 47.2784 31.9842 47.5936 32.0028C47.7188 32.0121 47.7698 32.0956 47.7095 32.1559C47.6168 32.2487 47.4406 32.3554 47.5658 32.5827C47.6354 32.7079 47.7374 32.7775 47.8162 32.8424C47.9738 32.977 47.8811 33.1254 47.691 32.9631C47.5519 32.8378 47.334 32.694 47.1393 32.7961C47.0095 32.8656 47.0188 33.0605 46.9956 33.1533C46.9353 33.4455 46.6525 33.3203 46.7777 33.0698C46.9817 32.6569 46.6896 32.4342 46.3975 32.2255C46.3187 32.1698 46.3512 32.0538 46.4531 32.0399C46.6989 32.0028 46.8936 31.8451 46.7962 31.4879V31.4786Z" fill="url(#paint58_radial_959_21477)"/>
<path fill-rule="evenodd" clip-rule="evenodd" d="M47.0991 32.0852C47.0435 32.062 46.974 32.0527 46.9183 32.0759C46.7978 32.1223 46.7792 32.28 46.821 32.3867C46.8627 32.4981 47.0064 32.614 47.127 32.6048C47.1826 32.6048 47.2382 32.563 47.2753 32.5166C47.3912 32.3682 47.266 32.1502 47.1038 32.0852H47.0991Z" fill="#644746"/>
<path style="mix-blend-mode:screen" fill-rule="evenodd" clip-rule="evenodd" d="M49.7827 32.3265C49.6251 31.7977 49.0642 31.3152 49.0178 31.1019C48.9622 30.8514 49.0271 30.6055 49.0039 30.3921C49.0039 30.355 48.9946 30.3225 48.99 30.29C48.9714 30.6519 48.8741 30.9441 48.8555 31.2735C48.8463 31.4359 48.8648 31.5936 48.9483 31.7652C49.143 32.1688 49.5556 32.5399 49.3284 33.0177C49.2357 33.2126 49.0224 33.3286 48.9297 33.5791C48.8463 33.8017 48.8323 34.0476 48.6886 34.2285C48.5403 34.4187 48.276 34.479 48.0859 34.4976C48.4336 34.5486 48.7814 34.4976 48.9297 34.21C49.0317 34.0105 48.9668 33.6672 49.1152 33.4816C49.2264 33.3471 49.4814 33.2682 49.6437 33.1291C49.8755 32.9296 49.8755 32.6234 49.7874 32.3312L49.7827 32.3265Z" fill="url(#paint59_radial_959_21477)"/>
<g clip-path="url(#clip2_959_21477)">
<path d="M32.0626 13.6068L35.7474 9.9916C35.9031 9.83915 35.9897 9.62851 35.986 9.41047L35.9445 7.65692L18.042 7.58301L18.0669 9.30607C18.0807 9.54628 18.1811 9.77263 18.3506 9.94263L21.9902 13.6068L21.2496 17.6072L21.2616 19.3312C21.1814 19.7978 21.6697 20.1535 22.0879 19.9336L26.7611 17.4696C26.9269 17.3818 27.125 17.3818 27.2908 17.4696L31.964 19.9336C32.3823 20.1535 32.8705 19.7978 32.7904 19.3312L32.736 17.6821L32.0617 13.6068H32.0626Z" fill="url(#paint60_linear_959_21477)"/>
<path d="M27.5006 1.31874L29.8376 6.06755C29.9205 6.2357 30.0808 6.35303 30.266 6.37983L35.491 7.14111C35.9581 7.20948 36.1451 7.78507 35.807 8.11582L32.0264 11.8123C31.8919 11.9435 31.8311 12.1329 31.8624 12.3177L32.7551 17.5368C32.8352 18.0033 32.347 18.359 31.9288 18.1391L27.2555 15.6751C27.0897 15.5873 26.8917 15.5873 26.7258 15.6751L22.0526 18.1391C21.6344 18.359 21.1461 18.0033 21.2263 17.5368L22.1189 12.3177C22.1502 12.132 22.0895 11.9435 21.955 11.8123L18.1725 8.1149C17.8344 7.78414 18.0214 7.20856 18.4885 7.14019L23.7135 6.3789C23.8987 6.35211 24.059 6.23477 24.1419 6.06663L26.479 1.31874C26.6881 0.893752 27.2914 0.893752 27.5006 1.31874Z" fill="url(#paint61_linear_959_21477)"/>
<path d="M27.4291 2.03977L29.5681 6.38668C29.6436 6.54097 29.791 6.64814 29.9605 6.67309L34.7443 7.37063C35.1717 7.43253 35.3431 7.96007 35.0336 8.26218L31.5726 11.6464C31.4501 11.7665 31.3939 11.9393 31.4225 12.1093L32.2396 16.8876C32.3123 17.3145 31.8656 17.6406 31.4833 17.4392L27.2052 15.1831C27.0532 15.1027 26.8718 15.1027 26.7198 15.1831L22.4417 17.4392C22.0594 17.6406 21.6117 17.3154 21.6854 16.8876L22.5025 12.1093C22.5311 11.9393 22.4758 11.7665 22.3524 11.6464L18.8896 8.26218C18.5801 7.96007 18.7505 7.43253 19.1788 7.37063L23.9626 6.67309C24.1321 6.64814 24.2795 6.54097 24.355 6.38668L26.4941 2.03977C26.6857 1.65081 27.2375 1.65081 27.4291 2.03977Z" fill="url(#paint62_linear_959_21477)"/>
<path d="M27.0306 5.14228C27.2796 4.57822 27.2148 4.00256 26.8859 3.85653C26.557 3.71049 26.0885 4.04937 25.8395 4.61343C25.5905 5.1775 25.6553 5.75315 25.9842 5.89919C26.3131 6.04523 26.7816 5.70635 27.0306 5.14228Z" fill="white"/>
<path d="M25.9259 6.76352C26.0417 6.50132 26.0114 6.23367 25.8584 6.16571C25.7053 6.09775 25.4874 6.25522 25.3717 6.51742C25.2559 6.77963 25.2862 7.04728 25.4392 7.11524C25.5923 7.1832 25.8102 7.02573 25.9259 6.76352Z" fill="white"/>
<path opacity="0.5" d="M22.433 17.4539L26.711 15.1978C26.863 15.1174 27.0445 15.1174 27.1965 15.1978L31.4745 17.4539C31.8568 17.6553 32.3045 17.3301 32.2308 16.9024L31.4137 12.124C31.3843 11.954 31.4405 11.7812 31.5639 11.6611L35.0248 8.2769C35.3344 7.97479 35.1639 7.44725 34.7356 7.38535L31.7472 6.9502C29.1476 10.959 25.0824 12.5111 22.3225 13.1126L21.6749 16.9024C21.6021 17.3292 22.0489 17.6553 22.4312 17.4539H22.433Z" fill="#FF9900"/>
</g>
<defs>
<linearGradient id="paint0_linear_959_21477" x1="8.19634" y1="11.4984" x2="25.8527" y2="49.7296" gradientUnits="userSpaceOnUse">
<stop stop-color="#B92318"/>
<stop offset="1" stop-color="#72160F"/>
</linearGradient>
<radialGradient id="paint1_radial_959_21477" cx="0" cy="0" r="1" gradientUnits="userSpaceOnUse" gradientTransform="translate(5.92876 32.4171) rotate(11.8354) scale(6.15573 6.1595)">
<stop stop-color="#FA2931"/>
<stop offset="0.51" stop-color="#A6001A"/>
<stop offset="1" stop-color="#570012"/>
</radialGradient>
<radialGradient id="paint2_radial_959_21477" cx="0" cy="0" r="1" gradientUnits="userSpaceOnUse" gradientTransform="translate(6.63053 32.8372) rotate(11.8354) scale(7.19212 7.19654)">
<stop offset="0.34" stop-color="white"/>
<stop offset="0.4" stop-color="#F8F0F0"/>
<stop offset="0.52" stop-color="#E5CBCB"/>
<stop offset="0.67" stop-color="#C88F8F"/>
<stop offset="0.87" stop-color="#A03D3D"/>
<stop offset="1" stop-color="#820000"/>
</radialGradient>
<radialGradient id="paint3_radial_959_21477" cx="0" cy="0" r="1" gradientUnits="userSpaceOnUse" gradientTransform="translate(6.15739 30.7647) rotate(11.8354) scale(4.78905 4.792)">
<stop stop-color="#FF7A7A"/>
<stop offset="1"/>
</radialGradient>
<radialGradient id="paint4_radial_959_21477" cx="0" cy="0" r="1" gradientUnits="userSpaceOnUse" gradientTransform="translate(5.90276 31.9211) rotate(11.8354) scale(2.39167 2.39315)">
<stop stop-color="#FF5252"/>
<stop offset="1"/>
</radialGradient>
<radialGradient id="paint5_radial_959_21477" cx="0" cy="0" r="1" gradientUnits="userSpaceOnUse" gradientTransform="translate(6.42342 33.0274) rotate(11.8354) scale(4.86878 4.87177)">
<stop offset="0.34" stop-color="white"/>
<stop offset="0.4" stop-color="#F8F0F0"/>
<stop offset="0.52" stop-color="#E5CBCB"/>
<stop offset="0.67" stop-color="#C88F8F"/>
<stop offset="0.87" stop-color="#A03D3D"/>
<stop offset="1" stop-color="#820000"/>
</radialGradient>
<radialGradient id="paint6_radial_959_21477" cx="0" cy="0" r="1" gradientUnits="userSpaceOnUse" gradientTransform="translate(5.76967 35.8062) rotate(11.8354) scale(5.68307 5.68658)">
<stop/>
<stop offset="1" stop-color="#FF3838"/>
</radialGradient>
<radialGradient id="paint7_radial_959_21477" cx="0" cy="0" r="1" gradientUnits="userSpaceOnUse" gradientTransform="translate(13.7999 27.0757) rotate(11.8354) scale(5.86206 5.86566)">
<stop stop-color="#386E02"/>
<stop offset="1" stop-color="#599100"/>
</radialGradient>
<radialGradient id="paint8_radial_959_21477" cx="0" cy="0" r="1" gradientUnits="userSpaceOnUse" gradientTransform="translate(18.5102 30.4901) rotate(11.8354) scale(5.92331 5.92693)">
<stop stop-color="#7CB500"/>
<stop offset="0.13" stop-color="#78B000"/>
<stop offset="0.28" stop-color="#6FA200"/>
<stop offset="0.44" stop-color="#608C00"/>
<stop offset="0.6" stop-color="#4A6C00"/>
<stop offset="0.77" stop-color="#2E4400"/>
<stop offset="0.94" stop-color="#0D1300"/>
<stop offset="1"/>
</radialGradient>
<radialGradient id="paint9_radial_959_21477" cx="0" cy="0" r="1" gradientUnits="userSpaceOnUse" gradientTransform="translate(14.8208 28.3905) rotate(11.8354) scale(5.49875 5.50212)">
<stop/>
<stop offset="1" stop-color="#91D600"/>
</radialGradient>
<radialGradient id="paint10_radial_959_21477" cx="0" cy="0" r="1" gradientUnits="userSpaceOnUse" gradientTransform="translate(13.6932 30.7138) rotate(11.8354) scale(4.15978 4.16234)">
<stop stop-color="#91D600"/>
<stop offset="1"/>
</radialGradient>
<radialGradient id="paint11_radial_959_21477" cx="0" cy="0" r="1" gradientUnits="userSpaceOnUse" gradientTransform="translate(17.7125 29.9406) rotate(11.8354) scale(7.27451 7.27897)">
<stop offset="0.4" stop-color="white"/>
<stop offset="0.44" stop-color="#EFF5E3"/>
<stop offset="0.53" stop-color="#CFE1A9"/>
<stop offset="0.61" stop-color="#B4D077"/>
<stop offset="0.7" stop-color="#9DC24F"/>
<stop offset="0.78" stop-color="#8CB72F"/>
<stop offset="0.86" stop-color="#80B019"/>
<stop offset="0.93" stop-color="#78AB0B"/>
<stop offset="1" stop-color="#76AA07"/>
</radialGradient>
<radialGradient id="paint12_radial_959_21477" cx="0" cy="0" r="1" gradientUnits="userSpaceOnUse" gradientTransform="translate(16.2731 31.3781) rotate(11.8354) scale(8.39712 8.40228)">
<stop stop-color="#499100"/>
<stop offset="1" stop-color="#2C4701"/>
</radialGradient>
<radialGradient id="paint13_radial_959_21477" cx="0" cy="0" r="1" gradientUnits="userSpaceOnUse" gradientTransform="translate(11.3897 34.961) rotate(11.8354) scale(5.13642 5.13957)">
<stop stop-color="#FA2931"/>
<stop offset="0.62" stop-color="#A6001A"/>
<stop offset="1" stop-color="#570012"/>
</radialGradient>
<radialGradient id="paint14_radial_959_21477" cx="0" cy="0" r="1" gradientUnits="userSpaceOnUse" gradientTransform="translate(10.7916 34.813) rotate(11.8354) scale(7.40852 7.41306)">
<stop offset="0.58" stop-color="white"/>
<stop offset="0.62" stop-color="#F8F0F0"/>
<stop offset="0.69" stop-color="#E5CBCB"/>
<stop offset="0.79" stop-color="#C88F8F"/>
<stop offset="0.91" stop-color="#A03D3D"/>
<stop offset="1" stop-color="#820000"/>
</radialGradient>
<radialGradient id="paint15_radial_959_21477" cx="0" cy="0" r="1" gradientUnits="userSpaceOnUse" gradientTransform="translate(12.0741 34.4115) rotate(11.8354) scale(5.82545 5.82903)">
<stop offset="0.34" stop-color="white"/>
<stop offset="0.4" stop-color="#F8F0F0"/>
<stop offset="0.52" stop-color="#E5CBCB"/>
<stop offset="0.67" stop-color="#C88F8F"/>
<stop offset="0.87" stop-color="#A03D3D"/>
<stop offset="1" stop-color="#820000"/>
</radialGradient>
<radialGradient id="paint16_radial_959_21477" cx="0" cy="0" r="1" gradientUnits="userSpaceOnUse" gradientTransform="translate(11.0919 33.4375) rotate(11.8354) scale(4.48156 4.4843)">
<stop stop-color="#FF7A7A"/>
<stop offset="1"/>
</radialGradient>
<radialGradient id="paint17_radial_959_21477" cx="0" cy="0" r="1" gradientUnits="userSpaceOnUse" gradientTransform="translate(10.1997 38.281) rotate(11.8354) scale(6.22977 6.23358)">
<stop/>
<stop offset="1" stop-color="#FF3838"/>
</radialGradient>
<radialGradient id="paint18_radial_959_21477" cx="0" cy="0" r="1" gradientUnits="userSpaceOnUse" gradientTransform="translate(10.8338 33.954) rotate(11.8354) scale(3.31989 3.32192)">
<stop stop-color="#FF5252"/>
<stop offset="1"/>
</radialGradient>
<radialGradient id="paint19_radial_959_21477" cx="0" cy="0" r="1" gradientUnits="userSpaceOnUse" gradientTransform="translate(9.34964 28.9867) rotate(11.8354) scale(9.74353 8.5643)">
<stop stop-color="#76B000"/>
<stop offset="0.71" stop-color="#314F01"/>
</radialGradient>
<radialGradient id="paint20_radial_959_21477" cx="0" cy="0" r="1" gradientUnits="userSpaceOnUse" gradientTransform="translate(13.1949 26.0697) rotate(11.8354) scale(2.00778 1.76479)">
<stop stop-color="#774E34"/>
<stop offset="1" stop-color="#563D2B"/>
</radialGradient>
<radialGradient id="paint21_radial_959_21477" cx="0" cy="0" r="1" gradientUnits="userSpaceOnUse" gradientTransform="translate(11.4512 24.9121) rotate(11.8354) scale(2.91905 2.56577)">
<stop stop-color="#FFAA00"/>
<stop offset="1"/>
</radialGradient>
<radialGradient id="paint22_radial_959_21477" cx="0" cy="0" r="1" gradientUnits="userSpaceOnUse" gradientTransform="translate(13.1869 25.6861) rotate(11.8354) scale(1.87759 1.65037)">
<stop stop-color="white"/>
<stop offset="1" stop-color="#CA9E67"/>
</radialGradient>
<radialGradient id="paint23_radial_959_21477" cx="0" cy="0" r="1" gradientUnits="userSpaceOnUse" gradientTransform="translate(8.92453 31.0843) rotate(11.8354) scale(7.02976 6.17897)">
<stop stop-color="#76AA07"/>
<stop offset="0.11" stop-color="#78AB0B"/>
<stop offset="0.24" stop-color="#80B019"/>
<stop offset="0.37" stop-color="#8CB72F"/>
<stop offset="0.51" stop-color="#9DC24F"/>
<stop offset="0.65" stop-color="#B4D077"/>
<stop offset="0.79" stop-color="#CFE1A9"/>
<stop offset="0.94" stop-color="#EFF5E3"/>
<stop offset="1" stop-color="white"/>
</radialGradient>
<radialGradient id="paint24_radial_959_21477" cx="0" cy="0" r="1" gradientUnits="userSpaceOnUse" gradientTransform="translate(13.9059 31.9692) rotate(11.8354) scale(8.68707 7.6357)">
<stop stop-color="#76AA07"/>
<stop offset="0.11" stop-color="#78AB0B"/>
<stop offset="0.24" stop-color="#80B019"/>
<stop offset="0.37" stop-color="#8CB72F"/>
<stop offset="0.51" stop-color="#9DC24F"/>
<stop offset="0.65" stop-color="#B4D077"/>
<stop offset="0.79" stop-color="#CFE1A9"/>
<stop offset="0.94" stop-color="#EFF5E3"/>
<stop offset="1" stop-color="white"/>
</radialGradient>
<radialGradient id="paint25_radial_959_21477" cx="0" cy="0" r="1" gradientUnits="userSpaceOnUse" gradientTransform="translate(8.53713 27.6339) rotate(11.8354) scale(4.86676 4.27775)">
<stop stop-color="#91D600"/>
<stop offset="1"/>
</radialGradient>
<radialGradient id="paint26_radial_959_21477" cx="0" cy="0" r="1" gradientUnits="userSpaceOnUse" gradientTransform="translate(21.7984 30.1673) scale(7.99646 8.00137)">
<stop offset="0.71" stop-color="#FFD52E"/>
<stop offset="1" stop-color="#F0A432"/>
</radialGradient>
<radialGradient id="paint27_radial_959_21477" cx="0" cy="0" r="1" gradientUnits="userSpaceOnUse" gradientTransform="translate(24.2683 31.2432) scale(4.87831 4.88131)">
<stop offset="0.71" stop-color="#FFED44"/>
<stop offset="1" stop-color="#FFDC34"/>
</radialGradient>
<radialGradient id="paint28_radial_959_21477" cx="0" cy="0" r="1" gradientUnits="userSpaceOnUse" gradientTransform="translate(19.5518 33.81) scale(4.75819 4.7611)">
<stop stop-color="#CA9E67"/>
<stop offset="1" stop-color="white"/>
</radialGradient>
<radialGradient id="paint29_radial_959_21477" cx="0" cy="0" r="1" gradientUnits="userSpaceOnUse" gradientTransform="translate(19.2983 32.686) scale(4.72162 4.72458)">
<stop stop-color="#CA9E67"/>
<stop offset="1" stop-color="white"/>
</radialGradient>
<radialGradient id="paint30_radial_959_21477" cx="0" cy="0" r="1" gradientUnits="userSpaceOnUse" gradientTransform="translate(29.1852 28.8026) scale(2.38693 2.3884)">
<stop stop-color="#FFDB4A"/>
<stop offset="1" stop-color="#CFD900"/>
</radialGradient>
<radialGradient id="paint31_radial_959_21477" cx="0" cy="0" r="1" gradientUnits="userSpaceOnUse" gradientTransform="translate(24.5182 32.8417) scale(4.97755 4.98062)">
<stop stop-color="#FFF584"/>
<stop offset="1"/>
</radialGradient>
<radialGradient id="paint32_radial_959_21477" cx="0" cy="0" r="1" gradientUnits="userSpaceOnUse" gradientTransform="translate(21.0609 27.3132) scale(8.28895 8.29405)">
<stop offset="0.81" stop-color="#EDA213"/>
<stop offset="0.84" stop-color="#EEAB2B"/>
<stop offset="0.89" stop-color="#F3C46B"/>
<stop offset="0.97" stop-color="#FBECD0"/>
<stop offset="1" stop-color="white"/>
</radialGradient>
<radialGradient id="paint33_radial_959_21477" cx="0" cy="0" r="1" gradientUnits="userSpaceOnUse" gradientTransform="translate(26.7768 29.3632) scale(4.87832 4.88132)">
<stop stop-color="#FFF584"/>
<stop offset="1"/>
</radialGradient>
<radialGradient id="paint34_radial_959_21477" cx="0" cy="0" r="1" gradientUnits="userSpaceOnUse" gradientTransform="translate(22.81 32.263) scale(8.61801 8.6233)">
<stop offset="0.71" stop-color="#FFD52E"/>
<stop offset="1" stop-color="#F0A432"/>
</radialGradient>
<radialGradient id="paint35_radial_959_21477" cx="0" cy="0" r="1" gradientUnits="userSpaceOnUse" gradientTransform="translate(26.4918 32.9633) scale(5.43718 5.44051)">
<stop offset="0.71" stop-color="#FFED44"/>
<stop offset="1" stop-color="#FFDC34"/>
</radialGradient>
<radialGradient id="paint36_radial_959_21477" cx="0" cy="0" r="1" gradientUnits="userSpaceOnUse" gradientTransform="translate(22.7515 38.1167) scale(4.52837 4.53112)">
<stop stop-color="#CA9E67"/>
<stop offset="1" stop-color="white"/>
</radialGradient>
<radialGradient id="paint37_radial_959_21477" cx="0" cy="0" r="1" gradientUnits="userSpaceOnUse" gradientTransform="translate(29.7033 28.489) scale(2.61152 2.61313)">
<stop stop-color="#FFDB4A"/>
<stop offset="1" stop-color="#CFD900"/>
</radialGradient>
<radialGradient id="paint38_radial_959_21477" cx="0" cy="0" r="1" gradientUnits="userSpaceOnUse" gradientTransform="translate(26.695 33.9774) scale(4.79474 4.79769)">
<stop stop-color="#FFF584"/>
<stop offset="1"/>
</radialGradient>
<radialGradient id="paint39_radial_959_21477" cx="0" cy="0" r="1" gradientUnits="userSpaceOnUse" gradientTransform="translate(20.9399 29.6703) scale(9.19776 9.20342)">
<stop offset="0.81" stop-color="#EDA213"/>
<stop offset="0.84" stop-color="#EEAB2B"/>
<stop offset="0.89" stop-color="#F3C46B"/>
<stop offset="0.97" stop-color="#FBECD0"/>
<stop offset="1" stop-color="white"/>
</radialGradient>
<radialGradient id="paint40_radial_959_21477" cx="0" cy="0" r="1" gradientUnits="userSpaceOnUse" gradientTransform="translate(28.2122 29.5405) scale(4.64849 4.65135)">
<stop stop-color="#FFF584"/>
<stop offset="1"/>
</radialGradient>
<radialGradient id="paint41_radial_959_21477" cx="0" cy="0" r="1" gradientUnits="userSpaceOnUse" gradientTransform="translate(23.0766 36.9826) scale(3.86505 3.86743)">
<stop stop-color="#CA9E67"/>
<stop offset="1" stop-color="white"/>
</radialGradient>
<radialGradient id="paint42_radial_959_21477" cx="0" cy="0" r="1" gradientUnits="userSpaceOnUse" gradientTransform="translate(26.0696 32.1311) scale(9.40146 9.40723)">
<stop offset="0.71" stop-color="#FFD52E"/>
<stop offset="1" stop-color="#F0A432"/>
</radialGradient>
<radialGradient id="paint43_radial_959_21477" cx="0" cy="0" r="1" gradientUnits="userSpaceOnUse" gradientTransform="translate(24.696 32.3508) scale(8.7068 8.71214)">
<stop offset="0.71" stop-color="#FFED44"/>
<stop offset="1" stop-color="#FFDC34"/>
</radialGradient>
<radialGradient id="paint44_radial_959_21477" cx="0" cy="0" r="1" gradientUnits="userSpaceOnUse" gradientTransform="translate(27.1653 41.7888) scale(7.18167 7.18605)">
<stop stop-color="#CA9E67"/>
<stop offset="1" stop-color="white"/>
</radialGradient>
<radialGradient id="paint45_radial_959_21477" cx="0" cy="0" r="1" gradientUnits="userSpaceOnUse" gradientTransform="translate(30.3263 27.8579) scale(3.60911 3.61135)">
<stop stop-color="#FFDB4A"/>
<stop offset="1" stop-color="#CFD900"/>
</radialGradient>
<radialGradient id="paint46_radial_959_21477" cx="0" cy="0" r="1" gradientUnits="userSpaceOnUse" gradientTransform="translate(22.3245 31.3586) scale(9.91332 9.91941)">
<stop offset="0.81" stop-color="#EDA213"/>
<stop offset="0.84" stop-color="#EEAB2B"/>
<stop offset="0.89" stop-color="#F3C46B"/>
<stop offset="0.97" stop-color="#FBECD0"/>
<stop offset="1" stop-color="white"/>
</radialGradient>
<radialGradient id="paint47_radial_959_21477" cx="0" cy="0" r="1" gradientUnits="userSpaceOnUse" gradientTransform="translate(30.0168 29.7962) scale(4.74773 4.75065)">
<stop stop-color="#FFF584"/>
<stop offset="1"/>
</radialGradient>
<radialGradient id="paint48_radial_959_21477" cx="0" cy="0" r="1" gradientUnits="userSpaceOnUse" gradientTransform="translate(27.5753 33.2142) scale(8.49265 8.49786)">
<stop offset="0.69" stop-color="white"/>
<stop offset="0.84" stop-color="#E1D49C"/>
<stop offset="0.95" stop-color="#CEB95C"/>
<stop offset="1" stop-color="#C7AF44"/>
</radialGradient>
<radialGradient id="paint49_radial_959_21477" cx="0" cy="0" r="1" gradientUnits="userSpaceOnUse" gradientTransform="translate(28.9296 26.0018) scale(2.11534 2.11664)">
<stop stop-color="#633A20"/>
<stop offset="1" stop-color="#422917"/>
</radialGradient>
<radialGradient id="paint50_radial_959_21477" cx="0" cy="0" r="1" gradientUnits="userSpaceOnUse" gradientTransform="translate(29.43 31.5367) scale(9.39101 9.39678)">
<stop stop-color="#FFF200"/>
<stop offset="1"/>
</radialGradient>
<radialGradient id="paint51_radial_959_21477" cx="0" cy="0" r="1" gradientUnits="userSpaceOnUse" gradientTransform="translate(43.6539 30.1649) scale(9.63384 9.63975)">
<stop stop-color="#706BE8"/>
<stop offset="0.61" stop-color="#4434BF"/>
<stop offset="1" stop-color="#3B1880"/>
</radialGradient>
<radialGradient id="paint52_radial_959_21477" cx="0" cy="0" r="1" gradientUnits="userSpaceOnUse" gradientTransform="translate(44.683 31.1904) scale(9.2815 9.28719)">
<stop offset="0.5" stop-color="white"/>
<stop offset="1" stop-color="#8F5DD4"/>
</radialGradient>
<radialGradient id="paint53_radial_959_21477" cx="0" cy="0" r="1" gradientUnits="userSpaceOnUse" gradientTransform="translate(49.9639 34.0748) scale(6.21239 6.2162)">
<stop stop-color="#706BE8"/>
<stop offset="1" stop-color="#2F188D"/>
</radialGradient>
<radialGradient id="paint54_radial_959_21477" cx="0" cy="0" r="1" gradientUnits="userSpaceOnUse" gradientTransform="translate(44.8315 35.4299) scale(14.3117 14.3205)">
<stop offset="0.15"/>
<stop offset="1" stop-color="#68B4ED"/>
</radialGradient>
<radialGradient id="paint55_radial_959_21477" cx="0" cy="0" r="1" gradientUnits="userSpaceOnUse" gradientTransform="translate(48.3555 31.3006) scale(3.60225 3.60446)">
<stop stop-color="white"/>
<stop offset="1" stop-color="#B782BD"/>
</radialGradient>
<radialGradient id="paint56_radial_959_21477" cx="0" cy="0" r="1" gradientUnits="userSpaceOnUse" gradientTransform="translate(48.151 33.7557) scale(3.90824 3.91064)">
<stop stop-color="#54454D"/>
<stop offset="1" stop-color="#38333F"/>
</radialGradient>
<radialGradient id="paint57_radial_959_21477" cx="0" cy="0" r="1" gradientUnits="userSpaceOnUse" gradientTransform="translate(47.567 34.0239) scale(3.81088 3.81322)">
<stop stop-color="#4F43BA"/>
<stop offset="1" stop-color="#311E80"/>
</radialGradient>
<radialGradient id="paint58_radial_959_21477" cx="0" cy="0" r="1" gradientUnits="userSpaceOnUse" gradientTransform="translate(49.1282 33.0698) scale(4.19569 4.19826)">
<stop stop-color="#7490DE"/>
<stop offset="1"/>
</radialGradient>
<radialGradient id="paint59_radial_959_21477" cx="0" cy="0" r="1" gradientUnits="userSpaceOnUse" gradientTransform="translate(47.372 31.6029) scale(3.92215 3.92455)">
<stop offset="0.31" stop-color="#0C1621"/>
<stop offset="1" stop-color="#4D6CDB"/>
</radialGradient>
<linearGradient id="paint60_linear_959_21477" x1="18.042" y1="13.7916" x2="35.986" y2="13.7916" gradientUnits="userSpaceOnUse">
<stop stop-color="#E17200"/>
<stop offset="1" stop-color="#900B00"/>
</linearGradient>
<linearGradient id="paint61_linear_959_21477" x1="19.2107" y1="7.09122" x2="35.4159" y2="14.9026" gradientUnits="userSpaceOnUse">
<stop stop-color="#FFA14C"/>
<stop offset="1" stop-color="#FFD94C"/>
</linearGradient>
<linearGradient id="paint62_linear_959_21477" x1="18.7321" y1="9.624" x2="35.1911" y2="9.624" gradientUnits="userSpaceOnUse">
<stop offset="0.13" stop-color="#FFC400"/>
<stop offset="0.74" stop-color="#FFDB3D"/>
</linearGradient>
<clipPath id="clip0_959_21477">
<rect width="57" height="52.1867" fill="white" transform="translate(1 3)"/>
</clipPath>
<clipPath id="clip1_959_21477">
<rect width="13.6837" height="14.1655" fill="white" transform="translate(4.83203 24.1201) rotate(11.8354)"/>
</clipPath>
<clipPath id="clip2_959_21477">
<rect width="17.9858" height="19" fill="white" transform="translate(18 1)"/>
</clipPath>
</defs>
</svg>
