<svg width="300" height="48" viewBox="0 0 300 48" fill="none" xmlns="http://www.w3.org/2000/svg">
<path d="M123.531 5.43054C123.805 5.7999 123.952 6.24893 123.952 6.7081V13.7709L114.524 3.52435H110.37L120.112 14.1142H119.387L109.644 3.52435H106.575L107.986 5.43054C108.26 5.7999 108.407 6.24893 108.407 6.7081V21.5188C108.407 21.9779 108.26 22.427 107.986 22.7963L106.575 24.7011H112.299L110.889 22.7963C110.615 22.4255 110.467 21.9779 110.467 21.5188V8.94165L124.961 24.6953H126.012V6.7081C126.012 6.24893 126.16 5.7999 126.435 5.43054L127.844 3.52435H122.12L123.531 5.43054ZM87.558 20.9872L89.7278 24.6967L91.8976 20.9872L89.7278 17.2776L87.558 20.9872ZM93.236 24.6967H104.36L102.034 22.0619L95.0046 3.52435H91.7788L95.7897 14.1113H95.2175L91.2067 3.52435H87.9911L88.6791 5.34074L82.4014 21.8722C82.1407 22.5588 81.8756 22.9296 81.7163 23.1106L80.1012 24.6967H86.0762L84.3887 23.0411C84.2207 22.876 84.2728 22.6862 84.2902 22.6355L89.7814 8.24928L94.825 21.5477C94.9264 21.8896 95.0147 22.5197 94.5541 23.0831C93.8806 23.9073 93.2346 24.6982 93.2346 24.6982L93.236 24.6967ZM20.2068 20.9886L22.3766 24.6982L24.5464 20.9886L22.3766 17.2805L20.2068 20.9886ZM27.6534 3.52435H24.4276L28.4384 14.1098H27.8663L23.8555 3.52435H20.6398L21.3293 5.34219L15.0502 21.8722C14.7895 22.5588 14.5244 22.931 14.3651 23.1106L12.75 24.6967H18.725L17.0375 23.0411C16.8695 22.8745 16.9216 22.6848 16.9404 22.6355L22.4316 8.24928L27.4752 21.5477C27.5766 21.8896 27.665 22.5197 27.2043 23.0831C26.5308 23.9058 25.8848 24.6982 25.8848 24.6982H37.0091L34.6828 22.0634L27.6534 3.52435ZM74.4797 22.6515H68.8973V6.71969C68.8973 6.25907 69.045 5.80859 69.3188 5.43778L70.7296 3.52725H65.6657V14.1142H65.1298V3.52869H60.0645L61.5028 5.36826C61.7664 5.7072 61.9113 6.12436 61.9113 6.55456V21.6752C61.9113 22.1054 61.7664 22.5226 61.5028 22.8615L60.0645 24.7011H77.6982L78.0038 20.0196C78.0038 20.0196 77.3317 20.6888 75.8413 21.9736C75.3213 22.3618 75.2778 22.6529 74.4797 22.6529V22.6515ZM163.951 5.43489L165.361 3.52435H160.296V14.1185H159.76V3.52435H154.696L156.107 5.43489C156.381 5.8057 156.529 6.25472 156.529 6.71534V21.5072C156.529 21.9678 156.381 22.4183 156.107 22.7876L154.696 24.6982H165.361L163.951 22.7876C163.677 22.4168 163.529 21.9678 163.529 21.5072V6.71534C163.529 6.25472 163.677 5.80425 163.951 5.43489ZM141.53 3.52435V14.1185H140.995V3.52435H130.834L130.528 8.20582C130.528 8.20582 131.201 7.53807 132.69 6.25328C133.21 5.86508 133.254 5.57394 134.051 5.57394H137.762V21.5072C137.762 21.9678 137.614 22.4183 137.341 22.7876L135.928 24.6982H146.594L145.183 22.7876C144.909 22.4168 144.761 21.9678 144.761 21.5072V5.57249H148.471C149.269 5.57249 149.312 5.86364 149.832 6.25183C151.321 7.53663 151.993 8.20437 151.993 8.20437L151.688 3.5229H141.527L141.53 3.52435ZM185.407 22.7616C185.19 22.9614 184.932 23.0904 184.665 23.1338C184.177 23.2135 183.667 23.2526 183.15 23.2526C181.357 23.2526 180.03 22.4313 178.709 20.5034C177.455 18.6711 176.819 16.523 176.819 14.1185C176.819 11.714 177.423 9.48193 178.616 7.65975C179.869 5.74341 181.199 4.92647 183.063 4.92647C183.551 4.92647 184.026 4.9931 184.475 5.12636C184.678 5.19734 187.536 7.53228 189.408 9.0836L189.519 9.1763L189.429 4.41226L189.396 4.39343C188.779 4.05159 187.821 3.73003 186.55 3.43889C185.369 3.16947 184.197 3.03042 183.047 3.01014C174.792 3.34619 173.844 12.8221 173.754 14.1156H173.216C173.285 13.106 173.935 6.09684 179.071 3.46062C178.718 3.55042 178.369 3.65326 178.025 3.77059C176.528 4.28045 175.179 5.01628 174.016 5.96068C172.853 6.90509 171.907 8.13919 171.205 9.62967C170.505 11.1187 170.149 12.7917 170.149 14.6008C170.149 16.0522 170.385 17.3935 170.847 18.5914C171.309 19.7893 171.927 20.8032 172.682 21.6042C173.437 22.4023 174.32 23.0904 175.308 23.6495C176.296 24.21 177.323 24.6185 178.359 24.8662C179.394 25.1139 180.443 25.2399 181.474 25.2399C182.986 25.2399 184.471 25.0864 185.885 24.7865C187.299 24.4852 188.459 24.1101 189.335 23.6726L189.368 23.6553L189.642 18.8695L185.405 22.7616H185.407ZM46.921 3.52435V14.1142H46.3865V3.52435H36.2254L35.9198 8.20582C35.9198 8.20582 36.5934 7.53807 38.0824 6.25328C38.6024 5.86508 38.6458 5.57394 39.444 5.57394H43.1535V21.5072C43.1535 21.9678 43.0058 22.4183 42.732 22.7876L41.3212 24.6982H51.9863L50.5755 22.7876C50.3017 22.4168 50.154 21.9678 50.154 21.5072V5.57249H53.8635C54.6631 5.57249 54.7051 5.86364 55.2266 6.25183C56.7156 7.53663 57.3877 8.20437 57.3877 8.20437L57.082 3.5229H46.921V3.52435ZM238.11 6.72693V21.5173C238.11 21.9779 238.257 22.4284 238.531 22.7992L239.942 24.7098H229.277L230.688 22.7992C230.961 22.4284 231.111 21.9794 231.111 21.5173V6.72693C231.111 6.26631 230.963 5.81728 230.688 5.44648L229.277 3.53594H234.344V14.1228H234.88V3.53594H239.943L238.533 5.44648C238.259 5.81728 238.111 6.26631 238.111 6.72693H238.11ZM253.627 3.53594V14.1228H253.091V3.53594H242.93L242.625 8.21741C242.625 8.21741 243.297 7.54821 244.786 6.26486C245.307 5.87522 245.351 5.58553 246.149 5.58553H249.858V21.5173C249.858 21.9779 249.71 22.4284 249.437 22.7992L248.026 24.7098H258.691L257.28 22.7992C257.008 22.4284 256.859 21.9794 256.859 21.5173V5.58408H260.568C261.366 5.58408 261.41 5.87522 261.931 6.26342C263.42 7.54821 264.092 8.21596 264.092 8.21596L263.787 3.53449H253.626L253.627 3.53594ZM280.588 21.5173V13.9534L287.436 3.53594H281.409L283.154 5.32046C283.412 5.60291 283.445 6.02587 283.235 6.34453L278.849 13.0191L274.23 6.53428C273.974 6.16637 273.962 5.67968 274.203 5.30018L275.315 3.53594H269.282L276.83 14.1228H276.173L268.622 3.53594H265.799L273.587 14.4603V21.5188C273.587 21.9794 273.439 22.4299 273.166 22.8007L271.755 24.7112H282.42L281.011 22.8007C280.735 22.4299 280.588 21.9808 280.588 21.5188V21.5173ZM219.959 22.75C219.742 22.9499 219.485 23.0788 219.219 23.1222C218.73 23.2019 218.219 23.2424 217.704 23.2424C215.912 23.2424 214.582 22.4212 213.262 20.4932C212.007 18.6609 211.371 16.5114 211.371 14.1084C211.371 11.7053 211.976 9.47179 213.168 7.64961C214.423 5.73327 215.752 4.91633 217.617 4.91633C218.105 4.91633 218.58 4.98296 219.027 5.11622C219.232 5.1872 222.09 7.52214 223.961 9.07346L224.072 9.16616L223.983 4.40212L223.949 4.38329C223.334 4.04145 222.375 3.71989 221.102 3.42875C219.921 3.15933 218.749 3.02028 217.599 3C209.346 3.33605 208.396 12.812 208.306 14.1055H207.768C207.835 13.0959 208.487 6.0867 213.623 3.45048C213.27 3.54028 212.921 3.64312 212.577 3.76045C211.081 4.27031 209.733 5.00614 208.568 5.95054C207.405 6.89495 206.459 8.12905 205.758 9.61953C205.057 11.1086 204.702 12.7816 204.702 14.5921C204.702 16.0421 204.937 17.3848 205.399 18.5827C205.861 19.7806 206.478 20.7931 207.235 21.5955C207.99 22.3922 208.874 23.0817 209.861 23.6408C210.849 24.1999 211.876 24.6098 212.912 24.8575C213.948 25.1052 214.995 25.2312 216.026 25.2312C217.538 25.2312 219.023 25.0791 220.437 24.7778C221.85 24.478 223.011 24.1028 223.887 23.664L223.922 23.6466L224.196 18.8608L219.959 22.7543V22.75Z" fill="#58BAA4"/>
<path d="M121.673 44.977C119.859 44.977 118.499 44.4526 117.225 43.1533L118.13 42.2828C119.276 43.3431 120.301 43.6661 121.851 43.6661C122.842 43.6661 124.606 43.3547 124.606 42.067C124.606 41.6252 124.38 41.2921 124.009 41.0531C123.544 40.7547 123.104 40.73 121.79 40.7069L120.455 40.6837C119.071 40.6591 117.807 39.9319 117.807 38.4052C117.807 37.106 118.892 36.234 120.026 35.8646C120.527 35.7096 121.051 35.6372 121.564 35.6372C122.9 35.6372 124.189 36.0428 125.261 36.8539L124.532 37.891C123.566 37.2943 122.887 36.9611 121.729 36.9611C120.859 36.9611 119.116 37.2349 119.116 38.3922C119.116 39.2627 119.916 39.4177 120.618 39.4177H121.942C122.933 39.4177 123.743 39.4293 124.625 39.9537C125.423 40.4317 125.878 41.2414 125.878 42.1713C125.878 44.331 123.41 44.9741 121.669 44.9741" fill="#58BAA4"/>
<path d="M134.447 35.8598H129.283V44.7564H130.584V40.9744H134.448C136.011 40.9744 137.047 39.9735 137.047 38.399C137.047 36.8245 136.022 35.8584 134.448 35.8584L134.447 35.8598ZM134.447 39.665H130.582V37.1591H134.447C135.306 37.1591 135.759 37.5169 135.759 38.4005C135.759 39.284 135.283 39.665 134.447 39.665Z" fill="#58BAA4"/>
<path d="M144.644 35.6211C142.09 35.6211 139.85 37.5881 139.85 40.1997C139.85 42.8113 141.938 44.9942 144.631 44.9942C147.324 44.9942 149.425 42.9677 149.425 40.3431C149.425 37.7185 147.28 35.6196 144.644 35.6196V35.6211ZM144.644 43.6833C142.784 43.6833 141.126 42.2754 141.126 40.3561C141.126 38.4369 142.652 36.9319 144.631 36.9319C146.61 36.9319 148.138 38.3167 148.138 40.2721C148.138 42.2276 146.552 43.6833 144.644 43.6833Z" fill="#58BAA4"/>
<path d="M161.283 38.4831C161.283 36.7898 160.103 35.8599 158.48 35.8599H153.208V44.7564H154.509V41.0715H157.824L159.613 44.7564H161.08L159.231 41.0222C160.52 40.7123 161.282 39.8301 161.282 38.4816L161.283 38.4831ZM154.509 39.7707V37.1476H158.48C159.328 37.1476 159.994 37.4822 159.994 38.4121C159.994 39.342 159.363 39.7707 158.48 39.7707H154.509Z" fill="#58BAA4"/>
<path d="M168.058 37.1591V44.7564H166.795V37.1591H163.621V35.8599H171.194V37.1591H168.058Z" fill="#58BAA4"/>
<path d="M177.803 44.977C175.989 44.977 174.631 44.4526 173.354 43.1533L174.26 42.2828C175.406 43.3431 176.431 43.6661 177.981 43.6661C178.972 43.6661 180.736 43.3547 180.736 42.067C180.736 41.6252 180.51 41.2921 180.139 41.0531C179.674 40.7547 179.232 40.73 177.922 40.7069L176.586 40.6837C175.201 40.6591 173.938 39.9319 173.938 38.4052C173.938 37.106 175.023 36.234 176.156 35.8646C176.656 35.7096 177.181 35.6372 177.694 35.6372C179.031 35.6372 180.319 36.0428 181.392 36.8539L180.663 37.891C179.699 37.2943 179.019 36.9611 177.861 36.9611C176.99 36.9611 175.251 37.2349 175.251 38.3922C175.251 39.2627 176.049 39.4177 176.753 39.4177H178.077C179.067 39.4177 179.878 39.4293 180.761 39.9537C181.559 40.4317 182.013 41.2414 182.013 42.1713C182.013 44.331 179.544 44.9741 177.803 44.9741" fill="#58BAA4"/>
<path d="M100.908 36.3467L94.1953 40.217L100.908 44.0873L107.621 40.217L100.908 36.3467Z" fill="#58BAA4"/>
<path d="M99.3906 40.9788C99.3906 41.4655 100.141 41.6306 100.516 41.6306C100.945 41.6306 101.155 41.564 101.537 41.3743L100.457 40.2285C100.082 40.3343 99.3906 40.4661 99.3906 40.9788Z" fill="#58BAA4"/>
<path d="M197.762 36.3467L191.05 40.217L197.762 44.0873L204.476 40.217L197.762 36.3467Z" fill="#58BAA4"/>
<path d="M196.247 40.9788C196.247 41.4655 196.997 41.6306 197.373 41.6306C197.801 41.6306 198.011 41.564 198.394 41.3743L197.313 40.2285C196.938 40.3343 196.247 40.4661 196.247 40.9788Z" fill="#58BAA4"/>
</svg>
