<svg width="49" height="49" viewBox="0 0 49 49" fill="none" xmlns="http://www.w3.org/2000/svg">
<g clip-path="url(#clip0_1620_18083)">
<path d="M15.3505 32.6739V19.6422H12.3379V16.3027H19.5075V32.6739H15.3505Z" fill="white"/>
<path d="M35.1308 20.5296C35.1308 21.9541 34.3601 23.2152 33.0757 23.9159C34.8738 24.6631 35.9949 26.2279 35.9949 28.0494C35.9949 30.9919 33.3792 32.8603 29.2924 32.8603C25.2054 32.8603 22.5898 31.0153 22.5898 28.1196C22.5898 26.2512 23.8042 24.6631 25.6958 23.9159C24.318 23.1451 23.4306 21.8375 23.4306 20.4129C23.4306 17.7971 25.7193 16.1392 29.269 16.1392C32.8654 16.1392 35.1308 17.8439 35.1308 20.5296ZM26.5132 27.6993C26.5132 29.0773 27.4942 29.8479 29.2924 29.8479C31.0906 29.8479 32.0947 29.1008 32.0947 27.6993C32.0947 26.3449 31.0906 25.574 29.2924 25.574C27.494 25.574 26.5132 26.3448 26.5132 27.6993ZM26.9337 20.7631C26.9337 21.931 27.7744 22.5846 29.2924 22.5846C30.8103 22.5846 31.651 21.9309 31.651 20.7631C31.651 19.549 30.8103 18.8716 29.2924 18.8716C27.7743 18.8716 26.9337 19.549 26.9337 20.7631Z" fill="white"/>
<path d="M42.9135 18.1509C43.6046 20.1907 43.9552 22.3241 43.9552 24.5001C43.9552 35.4107 35.0787 44.2872 24.1679 44.2872C13.2571 44.2872 4.38045 35.4107 4.38045 24.5001C4.38045 13.5892 13.257 4.71292 24.1678 4.71292C26.344 4.71292 28.4774 5.06321 30.5169 5.75461V1.35122C28.4569 0.786514 26.3292 0.5 24.1679 0.5C10.9344 0.5 0.167969 11.2664 0.167969 24.5001C0.167969 37.7337 10.9344 48.5001 24.1679 48.5001C37.4014 48.5001 48.1677 37.7337 48.1677 24.5001C48.1677 22.3389 47.8813 20.2111 47.3166 18.1509H42.9135Z" fill="white"/>
<path d="M41.7155 6.93832V2.33643H38.4063V6.93832H33.832V10.2472H38.4063V14.8489H41.7155V10.2472H46.3171V6.93832H41.7155Z" fill="white"/>
</g>
<defs>
<clipPath id="clip0_1620_18083">
<rect width="48" height="48" fill="white" transform="translate(0.166016 0.5)"/>
</clipPath>
</defs>
</svg>