<svg xmlns="http://www.w3.org/2000/svg" width="129" height="24" viewBox="0 0 129 24" fill="none"><path d="M49.306.043v4.766c0 .193.064.236.235.236h2.646c.192 0 .256.043.256.236a18.7 18.7 0 0 0 0 1.545c0 .215-.064.237-.256.237h-2.646c-.17 0-.235.042-.235.236v6.44c0 .257.022.493.086.751a2.385 2.385 0 0 0 2.347 1.996c.256.022.512.022.747 0 .128 0 .15 0 .15.13v1.91c0 .086 0 .15-.129.172-1.494.128-2.923-.043-4.182-.988-.96-.751-1.366-1.803-1.494-2.984-.043-.408-.064-.816-.043-1.223V7.385c0-.237-.064-.28-.277-.28-.405.022-.81 0-1.216 0-.15 0-.192-.042-.192-.193V5.26c0-.15.064-.193.192-.171.405 0 .81-.022 1.216 0 .277.021.363-.043.363-.344-.022-1.438 0-2.898 0-4.336 0-.108.021-.193.021-.3l2.411-.065Zm-18.308 0c.213.043.256.193.256.386a19.224 19.224 0 0 0 0 1.567c0 .194-.021.258-.235.237a3.79 3.79 0 0 0-1.557.15 2.405 2.405 0 0 0-1.558 2.49c.021.172.128.129.213.129H30.7c.214 0 .278.064.278.279-.022.494-.022.987 0 1.481 0 .215-.043.28-.256.258-.833-.022-1.686 0-2.54 0-.235 0-.299.043-.299.279v10.99c0 .43.064.366-.362.366-.598 0-1.195-.022-1.771 0-.278 0-.299-.086-.299-.322V7.363c0-.3-.064-.386-.363-.365-.363.022-.725 0-1.088 0-.128 0-.17-.021-.17-.172V5.152c0-.129.042-.172.17-.172h1.195c.192 0 .256-.043.256-.236a5.318 5.318 0 0 1 .448-2.297c.619-1.374 1.729-2.06 3.158-2.34.17 0 .32-.043.47-.107l1.472.043Zm21.808 4.98h2.646c.17 0 .17.13.213.236a923.2 923.2 0 0 1 2.646 6.956c.427 1.009.79 2.06 1.089 3.112.02.043.042.086.064.13.405-1.675 1.066-3.2 1.621-4.788.662-1.803 1.323-3.606 1.985-5.431.064-.172.128-.236.32-.236.81.021 1.621 0 2.454 0-.15.386-.299.73-.427 1.095-1.9 4.851-3.82 9.703-5.74 14.576-.405 1.052-1.024 1.953-2.006 2.533-1.515.88-3.03.794-4.545-.065-.17-.085-.17-.171-.085-.322.234-.493.47-.966.661-1.48.086-.194.15-.215.32-.108 1.153.708 2.262.493 3.073-.515a3.99 3.99 0 0 0 .47-.752c.234-.515.448-1.052.682-1.567a.39.39 0 0 0-.021-.343c-1.366-3.22-2.71-6.44-4.076-9.66-.426-1.01-.853-2.04-1.28-3.049a.958.958 0 0 1-.064-.322ZM8.315 8.35a4.87 4.87 0 0 0-3.52-1.116 2.318 2.318 0 0 0-1.11.344A1.322 1.322 0 0 0 3.15 9.38c.086.15.192.3.342.408.405.322.875.58 1.344.751.79.344 1.58.623 2.347 1.01.576.278 1.11.643 1.558 1.094 1.259 1.395 1.174 3.563-.213 4.83-.086.064-.171.15-.256.215-.79.6-1.75.966-2.753 1.009a7.115 7.115 0 0 1-5.292-1.696c-.192-.15-.192-.28-.043-.473.32-.45.62-.88.918-1.33.107-.15.15-.15.299-.043a5.33 5.33 0 0 0 3.777 1.352c.448-.021.853-.15 1.237-.386.875-.58.939-1.61.107-2.276-.384-.3-.811-.515-1.26-.708-.767-.344-1.557-.623-2.304-.988a6.664 6.664 0 0 1-1.323-.858C.228 10.11.015 7.986 1.21 6.569c.17-.193.362-.387.576-.537a4.977 4.977 0 0 1 2.646-.966c1.472-.129 2.88.086 4.182.859.747.45.747.472.341 1.223l-.64 1.203Z" fill="#fff"/><path fill-rule="evenodd" clip-rule="evenodd" d="M42.77 15.601c-.11-.196-.22-.394-.335-.596-.106.086-.213.172-.298.236a6.016 6.016 0 0 1-3.863 1.267c-2.197-.043-3.99-1.782-4.118-3.993-.021-.257.043-.322.299-.322h8.834c.235 0 .299-.064.32-.279a8.58 8.58 0 0 0-.107-2.34c-.362-1.739-1.195-3.134-2.816-3.971-1.089-.537-2.326-.73-3.542-.537-1.964.236-3.521 1.18-4.567 2.877a7.364 7.364 0 0 0-.981 4.594c.17 1.953.981 3.606 2.581 4.787 1.793 1.33 3.82 1.631 5.975 1.159a7.48 7.48 0 0 0 3.116-1.481.298.298 0 0 0 .085-.065.235.235 0 0 0 0-.322c-.205-.329-.392-.667-.584-1.014Zm-8.251-5.254h3.158l2.86-.021c.3 0 .45 0 .513-.075.062-.073.04-.218-.002-.505-.192-1.267-.81-2.233-2.112-2.598-1.707-.493-4.076.258-4.673 2.877-.064.28 0 .322.256.322ZM19.335 16.3a19.8 19.8 0 0 1 .098-.157c-.009.309-.01.614-.012.917-.003.456-.005.907-.031 1.359 0 .193.043.279.277.279a23.851 23.851 0 0 1 1.75 0c.235.021.299-.043.299-.301v-8.136a7.69 7.69 0 0 0-.107-1.395c-.277-1.675-1.13-2.898-2.753-3.5a6.82 6.82 0 0 0-3.286-.3 8.289 8.289 0 0 0-3.649 1.352c-.128.086-.149.172-.064.322.278.451.534.902.769 1.374.106.215.17.258.405.108a6.073 6.073 0 0 1 3.777-1.074c1.28.086 2.091.752 2.347 1.954.043.279.085.58.085.858 0 .194-.042.258-.256.258a18.37 18.37 0 0 0-3.435.236c-1.152.215-2.24.515-3.2 1.224a3.517 3.517 0 0 0-.641.622c-1.323 1.632-1.088 4.058.534 5.389a4.545 4.545 0 0 0 2.496.966c1.729.15 3.158-.408 4.225-1.804.134-.168.254-.362.372-.552Zm-.244-4.171h-.896c-.49 0-.96.021-1.472.086-.811.107-1.6.236-2.326.665a1.894 1.894 0 0 0-1.003 1.932 1.924 1.924 0 0 0 1.28 1.675 2.83 2.83 0 0 0 2.924-.408c1.216-.966 1.685-2.254 1.685-3.757 0-.172-.064-.193-.192-.193Z" fill="#fff"/><path d="M83.47 11.764a.196.196 0 0 1 0-.215v.215Zm-.043.859c0-.065-.022-.13.02-.172v.171c0 .022 0 .022-.02 0Z" fill="#fff"/><path d="M83.427 12.623h.02v.171c-.042-.043 0-.107-.02-.171Z" fill="#fff"/><path d="M80.204 12.107c0-.772-.106-1.524-.298-2.254-.982-3.263-3.137-5.302-6.423-6.14A6.97 6.97 0 0 0 72.01 3.5c-.106 0-.106-.064-.106-.129V.236h.277a.187.187 0 0 1-.016.01.292.292 0 0 0 .037-.01h.171c.116.026.239.028.365.031.084.002.169.003.254.012 1.024.129 2.048.365 3.009.751a11.877 11.877 0 0 1 3.414 2.083 11.825 11.825 0 0 1 3.03 4.057c.533 1.16.875 2.383 1.003 3.628.008.077.01.154.012.23v.002c.002.116.005.232.03.347v.172a.353.353 0 0 0 0 .215v.365l-.009.006a.401.401 0 0 1-.012.007v.287a.25.25 0 0 0-.01.078v.016c0 .018 0 .035-.003.05l-.001.008-.002.006a.089.089 0 0 1-.005.014c-.021.043-.022.129.021.172v.086c-.01.046-.015.092-.02.139a2.402 2.402 0 0 0-.008.148l-.003.12-.001.06a5.597 5.597 0 0 1-.01.177 14.147 14.147 0 0 1-.427 2.06 10.935 10.935 0 0 1-1.451 3.07c-.342.537-.747 1.03-1.174 1.503a11.887 11.887 0 0 1-2.603 2.147 11.733 11.733 0 0 1-4.844 1.652c-.069.01-.14.01-.213.013a1.472 1.472 0 0 0-.32.03h-.064a.218.218 0 0 0-.06-.01.074.074 0 0 1 .038.032h-.341c.049-.033.098-.028.138-.024h.001a.306.306 0 0 0 .031.003c.02 0 .038-.004.056-.008l.01-.002.01-.001a.28.28 0 0 1-.035-.004.08.08 0 0 1-.02-.007.559.559 0 0 1-.048-.003c-.047-.004-.09-.008-.122.024h-.085v-3.134c0-.107.021-.129.128-.129 3.84-.171 7.212-3.048 8.002-6.826.106-.558.17-1.16.17-1.782Z" fill="#fff"/><path d="m69.151 7.234.704.558a1204.378 1204.378 0 0 0 3.93 3.093l1.469 1.158c.042.021.085.043.085.086-.192.171-.384.343-.597.494a1197.525 1197.525 0 0 1-5.42 4.25c-.043.043-.107.064-.15.107-.032-.032-.028-.053-.023-.07l.002-.016v-9.66Zm44.64 16.573a1.263 1.263 0 0 0-.555-.15 5.028 5.028 0 0 1-1.301-.58c-.128-.086-.15-.15-.064-.28.298-.471.618-.944.917-1.437.086-.13.128-.15.278-.065a2.466 2.466 0 0 0 2.944-.3 4.83 4.83 0 0 0 1.025-1.245c.256-.43.533-.88.81-1.31a.519.519 0 0 0 .064-.472c-.96-4.208-1.941-8.437-2.923-12.666-.043-.236-.043-.3.235-.3.683.021 1.365 0 2.027 0 .171 0 .256.021.299.236.597 3.027 1.195 6.075 1.792 9.123.085.43.128.859.192 1.374.363-.773.726-1.46 1.11-2.146l4.545-8.308a.444.444 0 0 1 .469-.28c.811.022 1.622 0 2.411 0 .043.108-.042.173-.085.237-3.051 5.195-6.124 10.411-9.175 15.606-.662 1.138-1.537 2.061-2.774 2.62-.342.15-.726.193-1.067.343h-1.174Z" fill="#fff"/><path fill-rule="evenodd" clip-rule="evenodd" d="M86.585 21.188c-.171.88-.32 1.739-.47 2.619l2.39-.043.283-1.468c.38-1.958.758-3.916 1.083-5.874h.021c.013.04.035.073.055.101a.42.42 0 0 1 .03.05 3.518 3.518 0 0 0 2.305 1.889c1.899.515 3.606.064 5.164-1.052 2.859-2.082 3.798-5.947 3.115-8.845-.341-1.46-1.152-2.597-2.582-3.177a5.415 5.415 0 0 0-6.316 1.74l-.033.047c-.05.074-.1.15-.223.167a16.58 16.58 0 0 0 .47-2.04c.042-.193.02-.279-.214-.279-.597.022-1.216.022-1.814 0-.192 0-.234.065-.277.237-.192 1.051-.39 2.098-.587 3.144a543.348 543.348 0 0 0-.587 3.145 1553.72 1553.72 0 0 0-1.813 9.639Zm6.08-12.88c-1.386 1.266-2.005 2.898-2.069 4.723 0 .343.043.686.085 1.03.257 1.417 1.217 2.297 2.582 2.383a3.93 3.93 0 0 0 2.604-.816c2.133-1.524 2.71-4.487 2.197-6.397-.32-1.224-1.237-1.954-2.517-2.018a3.89 3.89 0 0 0-2.881 1.095Zm16.887 7.986a35.9 35.9 0 0 1 .099-.13l-.144.758c-.099.52-.196 1.024-.282 1.518-.043.215-.022.258.192.258.198 0 .399-.003.6-.005.406-.005.814-.01 1.214.005.192 0 .256-.065.298-.258.256-1.33.512-2.657.769-3.982l.768-3.982a6.731 6.731 0 0 0 .106-2.447c-.298-1.567-1.301-2.576-2.944-2.877-2.198-.408-4.247.107-6.189 1.138-.128.064-.128.129-.085.258.075.236.155.477.235.719.08.241.16.483.235.719.128.386.128.386.469.193 1.28-.708 2.603-1.18 4.097-1.009.939.107 1.558.644 1.686 1.503.042.43.042.858-.022 1.288-.021.214-.106.279-.32.279a18.847 18.847 0 0 0-3.115.193 10.14 10.14 0 0 0-3.5 1.116c-1.024.558-1.792 1.353-2.155 2.512-.491 1.546-.106 2.984 1.024 3.821.833.601 1.836.902 2.838.816 1.58-.086 2.817-.859 3.82-2.018a9.15 9.15 0 0 0 .306-.386Zm.547-4.208h-.853c-.448 0-.918.021-1.408.064a7.674 7.674 0 0 0-2.561.666 2.576 2.576 0 0 0-1.131 1.009c-.597 1.095-.299 2.597 1.43 2.77a3.253 3.253 0 0 0 2.219-.58 6.05 6.05 0 0 0 2.433-3.757c.042-.129-.001-.172-.129-.172Z" fill="#fff"/></svg>