<svg width="28" height="28" viewBox="0 0 28 28" fill="none" xmlns="http://www.w3.org/2000/svg">
<g clip-path="url(#clip0_9173_34954)">
<path d="M23.8887 23.8724C29.3535 18.4113 29.3535 9.55701 23.8887 4.09587C18.4239 -1.36526 9.56375 -1.36526 4.09897 4.09587C-1.36582 9.55701 -1.36582 18.4113 4.09897 23.8724C9.56375 29.3335 18.4239 29.3335 23.8887 23.8724Z" fill="url(#paint0_linear_9173_34954)"/>
<path d="M13.3537 27.3746L13.335 27.2073C13.3406 27.2073 13.928 27.1334 14.6193 26.5379C15.2601 25.9854 16.1245 24.859 16.5978 22.6285C17.6137 17.8412 16.3771 14.0495 16.364 14.0121L16.5239 13.9589C16.537 13.9972 17.7877 17.8319 16.7625 22.664C16.277 24.9506 15.3827 26.1079 14.7176 26.6763C13.9888 27.2998 13.378 27.3727 13.3527 27.3755L13.3537 27.3746Z" fill="url(#paint1_linear_9173_34954)"/>
<path d="M27.0533 16.8475C25.3396 12.5351 22.4425 10.529 20.3143 9.60633C18.0093 8.60606 16.0889 8.62476 16.0692 8.62569L16.0664 8.45742C16.0851 8.45742 18.043 8.43779 20.3817 9.45208C21.7549 10.0476 22.9906 10.8786 24.0533 11.92C25.3817 13.2213 26.4443 14.8591 27.2095 16.7858L27.0533 16.8484V16.8475Z" fill="url(#paint2_linear_9173_34954)"/>
<path d="M16.3646 8.1489L16.229 8.04887C16.8202 7.24399 17.7819 5.64262 18.7126 4.09361C19.3095 3.09989 19.8735 2.16132 20.3057 1.49011L20.4479 1.58079C20.0176 2.25013 19.4544 3.18776 18.8576 4.18055C17.925 5.73237 16.9615 7.33653 16.3656 8.14797L16.3646 8.1489Z" fill="url(#paint3_linear_9173_34954)"/>
<path d="M15.4843 8.33116C15.4759 8.31527 14.591 6.7298 12.8118 5.3771C11.1738 4.13191 8.41793 2.83343 4.59473 3.72339L4.87256 3.54764C6.59005 3.14847 7.92494 3.15782 9.46376 3.55325C10.6958 3.86922 11.8576 4.43947 12.9193 5.24716C14.7248 6.62136 15.6237 8.23394 15.6321 8.24983L15.4843 8.33116Z" fill="url(#paint4_linear_9173_34954)"/>
<path d="M2.22368 21.4375L2.05811 21.4047C4.00853 11.4675 11.4005 10.7598 14.5567 10.457C14.9019 10.4242 15.2003 10.3953 15.4276 10.3597L15.4538 10.5261C15.2209 10.5617 14.9206 10.5906 14.5726 10.6243C11.4538 10.9234 4.14978 11.6227 2.22368 21.4365V21.4375Z" fill="url(#paint5_linear_9173_34954)"/>
<path d="M18.3132 4.2395L12.7725 4.82189C12.4854 4.85181 12.2496 5.06402 12.1898 5.34633L11.0317 10.7926C10.9718 11.075 11.1 11.3638 11.3507 11.5087L16.1757 14.2926C16.4255 14.4366 16.7407 14.4039 16.955 14.2104L21.0953 10.4851C21.3104 10.2916 21.3759 9.98215 21.258 9.71853L18.9924 4.63212C18.8745 4.3685 18.6004 4.21052 18.3132 4.24043V4.2395Z" fill="url(#paint6_linear_9173_34954)"/>
<path d="M3.43238 5.21261L6.49506 3.40652C6.53435 3.38315 6.55867 3.34108 6.55867 3.29434V2.37634C6.55867 2.27164 6.44174 2.20994 6.35568 2.26883C5.26494 3.00454 4.14801 3.99453 3.26774 5.01536C3.17139 5.1266 3.30516 5.28739 3.43238 5.21261Z" fill="url(#paint7_linear_9173_34954)"/>
<path d="M18.6238 1.22926L19.8268 2.29777C19.8567 2.32488 19.8932 2.34357 19.9325 2.35292L21.5873 2.74555C21.8446 2.80631 22.0017 2.47351 21.7912 2.31366C21.4713 2.0706 21.1196 1.81726 20.8436 1.65554C20.2047 1.28161 19.4507 1.00116 18.8577 0.814192C18.607 0.734732 18.4264 1.05538 18.6229 1.22926H18.6238Z" fill="url(#paint8_linear_9173_34954)"/>
<path d="M12.5171 25.9584C8.56011 25.9584 4.91839 22.363 4.22803 21.4731L4.36086 21.3702C5.04 22.2471 8.62747 25.7901 12.5161 25.7901V25.9584H12.5171Z" fill="url(#paint9_linear_9173_34954)"/>
<path d="M21.303 24.7197L21.2095 24.5794C22.8241 23.5035 24.0654 22.061 24.8998 20.2914L25.0523 20.3634C24.2048 22.161 22.9438 23.6269 21.303 24.7197Z" fill="url(#paint10_linear_9173_34954)"/>
<path d="M27.2283 13.8401L27.0646 13.799C27.4285 12.3509 27.0861 10.1719 26.1254 7.82169C25.3162 5.84266 23.9504 4.19455 23.5894 3.80566C24.0982 4.23662 25.4575 5.74356 26.2807 7.75812C27.2545 10.141 27.5996 12.3575 27.2273 13.8401H27.2283Z" fill="url(#paint11_linear_9173_34954)"/>
<path d="M0.980304 14.9452C0.406871 12.1528 0.955047 7.84793 2.67348 5.76233C1.91763 6.68033 1.37507 8.27328 1.09537 10.0541C0.834374 11.7172 0.853083 13.4878 1.14588 14.9124L0.98124 14.9461L0.980304 14.9452Z" fill="url(#paint12_linear_9173_34954)"/>
<path d="M11.1452 26.2836L11.9609 27.511C12.1087 27.7335 12.35 27.8765 12.6167 27.9027C13.0694 27.9467 13.5287 27.97 13.9936 27.97C16.4324 27.97 18.7261 27.3465 20.7224 26.2499C20.8851 26.1602 21.0133 26.019 21.0919 25.8508L21.4885 24.9991C21.6849 24.5785 21.5212 24.0774 21.1153 23.8521L17.2537 21.7123C16.9637 21.5515 16.6073 21.5664 16.3323 21.7506L11.3893 25.0599C10.9843 25.331 10.8748 25.8779 11.1442 26.2836H11.1452Z" fill="url(#paint13_linear_9173_34954)"/>
<path d="M25.2076 21.4497H25.4003C25.6725 21.4497 25.9223 21.3038 26.0607 21.0692C27.2852 18.9911 27.9878 16.5699 27.9878 13.9841C27.9878 13.9551 27.9878 13.7541 27.9878 13.5653C27.9878 13.3447 27.8923 13.1344 27.7249 12.9895L27.6089 12.8885C27.4199 12.7249 27.1636 12.6632 26.9213 12.7249L25.6931 13.0353C25.3807 13.1138 25.1515 13.3802 25.1206 13.7009L24.4471 20.613C24.4031 21.0617 24.7558 21.4497 25.2067 21.4497H25.2076Z" fill="url(#paint14_linear_9173_34954)"/>
<path d="M7.5705 7.11961C8.18108 6.16403 8.10951 5.02786 7.41064 4.58189C6.71176 4.13593 5.65023 4.54905 5.03965 5.50463C4.42906 6.46021 4.50063 7.59639 5.19951 8.04235C5.89838 8.48832 6.95991 8.07519 7.5705 7.11961Z" fill="white"/>
<g opacity="0.1">
<path d="M25.8772 6.60836C27.2224 8.75659 27.9998 11.2956 27.9998 14.0159C27.9998 21.7395 21.7341 28.0001 14.0063 28.0001C8.663 28.0001 4.01848 25.0067 1.66113 20.6065C1.66113 20.6065 14.04 22.3322 19.8164 17.8057C27.5255 11.7639 25.8782 6.60742 25.8782 6.60742L25.8772 6.60836Z" fill="url(#paint15_linear_9173_34954)"/>
</g>
<path d="M3.26743 22.6332L4.61635 22.5902C5.1112 22.5743 5.491 22.1471 5.44797 21.6535L4.91382 15.5248C4.88295 15.1658 4.63132 14.8648 4.28426 14.7685L1.41429 13.9739C1.07659 13.8804 0.715508 14.001 0.501289 14.2777L0.18417 14.6881C0.0588194 14.8498 -0.00198511 15.0508 0.00549852 15.2555C0.0990439 17.7029 1.21036 20.7514 2.59858 22.3471C2.76509 22.5388 3.01298 22.6397 3.26649 22.6323L3.26743 22.6332Z" fill="url(#paint16_linear_9173_34954)"/>
</g>
<defs>
<linearGradient id="paint0_linear_9173_34954" x1="4.10436" y1="5.0202" x2="24.8224" y2="23.825" gradientUnits="userSpaceOnUse">
<stop stop-color="#E1E1E1"/>
<stop offset="0.08" stop-color="#EDEDED"/>
<stop offset="0.2" stop-color="#FAFAFA"/>
<stop offset="0.31" stop-color="white"/>
<stop offset="0.47" stop-color="#BDBDBD"/>
<stop offset="0.59" stop-color="#909090"/>
<stop offset="0.65" stop-color="#808080"/>
<stop offset="0.9" stop-color="#3F3F41"/>
<stop offset="1" stop-color="#222226"/>
</linearGradient>
<linearGradient id="paint1_linear_9173_34954" x1="13.335" y1="20.6663" x2="17.1666" y2="20.6663" gradientUnits="userSpaceOnUse">
<stop stop-color="#616268"/>
<stop offset="0.11" stop-color="#505156"/>
<stop offset="0.37" stop-color="#2D2E31"/>
<stop offset="0.62" stop-color="#141416"/>
<stop offset="0.83" stop-color="#050505"/>
<stop offset="1"/>
</linearGradient>
<linearGradient id="paint2_linear_9173_34954" x1="16.0664" y1="12.652" x2="27.2095" y2="12.652" gradientUnits="userSpaceOnUse">
<stop stop-color="#616268"/>
<stop offset="0.11" stop-color="#505156"/>
<stop offset="0.37" stop-color="#2D2E31"/>
<stop offset="0.62" stop-color="#141416"/>
<stop offset="0.83" stop-color="#050505"/>
<stop offset="1"/>
</linearGradient>
<linearGradient id="paint3_linear_9173_34954" x1="16.229" y1="4.81904" x2="20.447" y2="4.81904" gradientUnits="userSpaceOnUse">
<stop stop-color="#808080"/>
<stop offset="0.19" stop-color="#777779"/>
<stop offset="0.65" stop-color="#66676C"/>
<stop offset="1" stop-color="#616268"/>
</linearGradient>
<linearGradient id="paint4_linear_9173_34954" x1="4.59473" y1="5.79123" x2="15.6321" y2="5.79123" gradientUnits="userSpaceOnUse">
<stop stop-color="#E1E1E1"/>
<stop offset="0.22" stop-color="#B7B7B9"/>
<stop offset="0.45" stop-color="#929296"/>
<stop offset="0.66" stop-color="#77777C"/>
<stop offset="0.85" stop-color="#66676D"/>
<stop offset="1" stop-color="#616268"/>
</linearGradient>
<linearGradient id="paint5_linear_9173_34954" x1="2.05811" y1="15.8995" x2="15.4538" y2="15.8995" gradientUnits="userSpaceOnUse">
<stop stop-color="#616268"/>
<stop offset="0.22" stop-color="#56575D"/>
<stop offset="0.66" stop-color="#46474C"/>
<stop offset="1" stop-color="#414247"/>
</linearGradient>
<linearGradient id="paint6_linear_9173_34954" x1="12.4461" y1="6.62144" x2="21.5163" y2="11.5016" gradientUnits="userSpaceOnUse">
<stop stop-color="#808080"/>
<stop offset="0.7" stop-color="#222226"/>
</linearGradient>
<linearGradient id="paint7_linear_9173_34954" x1="3.235" y1="3.73932" x2="6.55867" y2="3.73932" gradientUnits="userSpaceOnUse">
<stop stop-color="#616268"/>
<stop offset="0.11" stop-color="#505156"/>
<stop offset="0.37" stop-color="#2D2E31"/>
<stop offset="0.62" stop-color="#141416"/>
<stop offset="0.83" stop-color="#050505"/>
<stop offset="1"/>
</linearGradient>
<linearGradient id="paint8_linear_9173_34954" x1="18.5405" y1="1.77707" x2="21.8895" y2="1.77707" gradientUnits="userSpaceOnUse">
<stop stop-color="#616268"/>
<stop offset="0.11" stop-color="#505156"/>
<stop offset="0.37" stop-color="#2D2E31"/>
<stop offset="0.62" stop-color="#141416"/>
<stop offset="0.83" stop-color="#050505"/>
<stop offset="1"/>
</linearGradient>
<linearGradient id="paint9_linear_9173_34954" x1="4.22896" y1="23.6643" x2="12.5171" y2="23.6643" gradientUnits="userSpaceOnUse">
<stop stop-color="#616268"/>
<stop offset="0.11" stop-color="#505156"/>
<stop offset="0.37" stop-color="#2D2E31"/>
<stop offset="0.62" stop-color="#141416"/>
<stop offset="0.83" stop-color="#050505"/>
<stop offset="1"/>
</linearGradient>
<linearGradient id="paint10_linear_9173_34954" x1="21.2095" y1="22.506" x2="25.0523" y2="22.506" gradientUnits="userSpaceOnUse">
<stop stop-color="#616268"/>
<stop offset="0.11" stop-color="#505156"/>
<stop offset="0.37" stop-color="#2D2E31"/>
<stop offset="0.62" stop-color="#141416"/>
<stop offset="0.83" stop-color="#050505"/>
<stop offset="1"/>
</linearGradient>
<linearGradient id="paint11_linear_9173_34954" x1="23.5903" y1="8.82289" x2="27.3751" y2="8.82289" gradientUnits="userSpaceOnUse">
<stop stop-color="#616268"/>
<stop offset="0.11" stop-color="#505156"/>
<stop offset="0.37" stop-color="#2D2E31"/>
<stop offset="0.62" stop-color="#141416"/>
<stop offset="0.83" stop-color="#050505"/>
<stop offset="1"/>
</linearGradient>
<linearGradient id="paint12_linear_9173_34954" x1="0.761408" y1="10.3542" x2="2.67348" y2="10.3542" gradientUnits="userSpaceOnUse">
<stop stop-color="#9F9FA3"/>
<stop offset="0.05" stop-color="#97979B"/>
<stop offset="0.33" stop-color="#727276"/>
<stop offset="0.59" stop-color="#57575C"/>
<stop offset="0.82" stop-color="#46474C"/>
<stop offset="1" stop-color="#414247"/>
</linearGradient>
<linearGradient id="paint13_linear_9173_34954" x1="10.9974" y1="24.7851" x2="21.5718" y2="24.7851" gradientUnits="userSpaceOnUse">
<stop stop-color="#414247"/>
<stop offset="0.21" stop-color="#2C2D30"/>
<stop offset="0.52" stop-color="#141416"/>
<stop offset="0.79" stop-color="#050505"/>
<stop offset="1"/>
</linearGradient>
<linearGradient id="paint14_linear_9173_34954" x1="24.4443" y1="17.0756" x2="27.9878" y2="17.0756" gradientUnits="userSpaceOnUse">
<stop stop-color="#616268"/>
<stop offset="0.11" stop-color="#505156"/>
<stop offset="0.37" stop-color="#2D2E31"/>
<stop offset="0.62" stop-color="#141416"/>
<stop offset="0.83" stop-color="#050505"/>
<stop offset="1"/>
</linearGradient>
<linearGradient id="paint15_linear_9173_34954" x1="10.6359" y1="11.3171" x2="24.5031" y2="23.9035" gradientUnits="userSpaceOnUse">
<stop stop-color="#616268"/>
<stop offset="0.23" stop-color="#58595F"/>
<stop offset="0.6" stop-color="#414146"/>
<stop offset="1" stop-color="#222226"/>
</linearGradient>
<linearGradient id="paint16_linear_9173_34954" x1="0.00549852" y1="18.2881" x2="5.45171" y2="18.2881" gradientUnits="userSpaceOnUse">
<stop stop-color="#616268"/>
<stop offset="0.11" stop-color="#505156"/>
<stop offset="0.37" stop-color="#2D2E31"/>
<stop offset="0.62" stop-color="#141416"/>
<stop offset="0.83" stop-color="#050505"/>
<stop offset="1"/>
</linearGradient>
<clipPath id="clip0_9173_34954">
<rect width="28" height="28" fill="white"/>
</clipPath>
</defs>
</svg>
