<svg width="56" height="37" viewBox="0 0 56 37" fill="none" xmlns="http://www.w3.org/2000/svg">
<rect x="0.0595703" y="0.339844" width="55.8806" height="36" rx="8" fill="white"/>
<path d="M16.0277 18.678C15.8988 17.1591 16.57 16.0507 17.9393 15.9058C18.7153 15.8226 19.4107 16.0481 19.8242 16.4613C20.9223 17.5589 20.5437 19.9017 19.314 20.484C18.6992 20.7792 17.6762 20.7926 17.1178 20.4599C16.5217 20.1083 16.1002 19.5099 16.0277 18.678Z" fill="#E40000"/>
<path fill-rule="evenodd" clip-rule="evenodd" d="M12.7118 10.2891L23.4005 10.2917C24.8906 10.2944 26.1069 11.5128 26.1015 12.9995V23.6829C26.1015 25.1723 24.8853 26.3906 23.3924 26.3906L12.7064 26.3879C11.2163 26.3852 9.99732 25.1669 10 23.6775V12.9968C10.0054 11.5074 11.2243 10.2891 12.7118 10.2891ZM20.3316 23.4413H23.3951V13.5657H20.3048V15.0846C19.5879 13.9924 18.6509 13.1229 16.7553 13.2517C14.9967 13.3752 13.7965 14.3735 13.2058 15.6858C12.5856 17.0651 12.5346 19.204 13.1065 20.7256C13.6596 22.1988 14.7926 23.2213 16.3418 23.4038C18.326 23.6372 19.4805 22.7087 20.3316 21.5709V23.4413Z" fill="#E40000"/>
<path d="M45.4129 17.1281C45.0214 16.7367 44.5062 16.541 43.8671 16.541C43.2201 16.541 42.7328 16.7726 42.4052 17.236C42.3972 17.2519 42.3853 17.2559 42.3693 17.2479C42.3533 17.24 42.3453 17.224 42.3453 17.2V16.7806C42.3453 16.7407 42.3293 16.7087 42.2974 16.6848C42.2734 16.6528 42.2415 16.6368 42.2015 16.6368H40.7996C40.7596 16.6368 40.7237 16.6528 40.6917 16.6848C40.6678 16.7087 40.6558 16.7407 40.6558 16.7806V22.6521C40.6558 22.692 40.6678 22.728 40.6917 22.7599C40.7237 22.7839 40.7596 22.7959 40.7996 22.7959H42.2015C42.2415 22.7959 42.2734 22.7839 42.2974 22.7599C42.3293 22.728 42.3453 22.692 42.3453 22.6521V19.0693C42.3453 18.7498 42.4332 18.4901 42.6089 18.2904C42.7927 18.0907 43.0323 17.9909 43.3279 17.9909C43.6235 17.9909 43.8591 18.0907 44.0349 18.2904C44.2186 18.4901 44.3105 18.7498 44.3105 19.0693V22.6521C44.3105 22.692 44.3224 22.728 44.3464 22.7599C44.3784 22.7839 44.4143 22.7959 44.4543 22.7959H45.8562C45.8962 22.7959 45.9281 22.7839 45.9521 22.7599C45.984 22.728 46 22.692 46 22.6521V18.7218C46 18.0508 45.8043 17.5195 45.4129 17.1281Z" fill="#E40000"/>
<path fill-rule="evenodd" clip-rule="evenodd" d="M36.8256 22.8917C36.1546 22.8917 35.5795 22.716 35.1002 22.3645C34.6209 22.013 34.2933 21.5337 34.1176 20.9266C34.0058 20.5511 33.9498 20.1437 33.9498 19.7044C33.9498 19.2331 34.0058 18.8097 34.1176 18.4342C34.3013 17.8431 34.6328 17.3798 35.1121 17.0442C35.5914 16.7087 36.1666 16.541 36.8376 16.541C37.4927 16.541 38.0519 16.7087 38.5152 17.0442C38.9785 17.3718 39.306 17.8311 39.4978 18.4222C39.6256 18.8217 39.6895 19.241 39.6895 19.6804C39.6895 20.1118 39.6336 20.5152 39.5217 20.8906C39.346 21.5137 39.0185 22.005 38.5392 22.3645C38.0678 22.716 37.4967 22.8917 36.8256 22.8917ZM36.8256 21.4418C37.0893 21.4418 37.3129 21.362 37.4967 21.2022C37.6804 21.0424 37.8122 20.8227 37.8921 20.5431C37.956 20.2875 37.988 20.0079 37.988 19.7044C37.988 19.3689 37.956 19.0853 37.8921 18.8536C37.8042 18.582 37.6684 18.3703 37.4847 18.2185C37.301 18.0668 37.0773 17.9909 36.8137 17.9909C36.5421 17.9909 36.3144 18.0668 36.1307 18.2185C35.9549 18.3703 35.8271 18.582 35.7472 18.8536C35.6833 19.0453 35.6514 19.3289 35.6514 19.7044C35.6514 20.0638 35.6793 20.3434 35.7352 20.5431C35.8151 20.8227 35.9469 21.0424 36.1307 21.2022C36.3224 21.362 36.554 21.4418 36.8256 21.4418Z" fill="#E40000"/>
<path fill-rule="evenodd" clip-rule="evenodd" d="M33.1533 19.6924C33.1533 19.1172 33.0774 18.6219 32.9256 18.2065C32.7419 17.6953 32.4503 17.2919 32.0509 16.9963C31.6595 16.6927 31.1722 16.541 30.589 16.541C30.0139 16.541 29.5705 16.7407 29.259 17.1401C29.243 17.1641 29.227 17.172 29.211 17.1641C29.1951 17.1561 29.1871 17.1401 29.1871 17.1161V14.5519C29.1871 14.5119 29.1711 14.48 29.1391 14.456C29.1152 14.424 29.0832 14.4081 29.0433 14.4081H27.6413C27.6014 14.4081 27.5654 14.424 27.5335 14.456C27.5095 14.48 27.4975 14.5119 27.4975 14.5519V22.6521C27.4975 22.692 27.5095 22.7279 27.5335 22.7599C27.5654 22.7839 27.6014 22.7959 27.6413 22.7959H29.0433C29.0832 22.7959 29.1152 22.7839 29.1391 22.7599C29.1711 22.7279 29.1871 22.692 29.1871 22.6521V22.2566C29.1871 22.2327 29.1951 22.2207 29.211 22.2207C29.227 22.2127 29.243 22.2167 29.259 22.2327C29.5945 22.672 30.0538 22.8917 30.637 22.8917C31.1882 22.8917 31.6635 22.7359 32.0629 22.4244C32.4703 22.1128 32.7659 21.6855 32.9496 21.1423C33.0854 20.7269 33.1533 20.2436 33.1533 19.6924ZM31.4038 19.7283C31.4038 20.2236 31.32 20.623 31.1522 20.9266C30.9605 21.2701 30.6689 21.4418 30.2775 21.4418C29.91 21.4418 29.6304 21.2701 29.4387 20.9266C29.2789 20.655 29.1991 20.2516 29.1991 19.7163C29.1991 19.1811 29.2869 18.7617 29.4627 18.4582C29.6464 18.1466 29.914 17.9908 30.2655 17.9908C30.641 17.9908 30.9245 18.1466 31.1163 18.4582C31.308 18.7537 31.4038 19.1771 31.4038 19.7283Z" fill="#E40000"/>
</svg>
