<svg width="32" height="32" viewBox="0 0 32 32" fill="none" xmlns="http://www.w3.org/2000/svg">
<rect width="32" height="32" rx="10" fill="url(#paint0_linear_12779_22831)"/>
<path d="M16.3324 18.3869C17.852 18.3869 19.084 17.2146 19.084 15.7684C19.084 14.3223 17.852 13.15 16.3324 13.15C14.8128 13.15 13.5809 14.3223 13.5809 15.7684C13.5809 17.2146 14.8128 18.3869 16.3324 18.3869Z" fill="white"/>
<path fill-rule="evenodd" clip-rule="evenodd" d="M20.7415 17.8191C20.6752 17.8507 20.5757 17.7876 20.642 17.7245C22.0344 16.1786 22.4985 14.3488 21.6698 12.9923C20.642 11.3203 17.99 10.9732 15.4042 11.8566C12.6526 12.803 10.8625 14.7905 11.2271 16.8096C11.9564 20.9108 20.5095 20.5638 23.4931 20.3429C23.5925 20.3429 23.5925 20.4691 23.5262 20.4691C15.8683 22.1412 9.10542 21.1316 8.1109 17.4721C7.14952 13.9387 12.6858 11.8881 15.1721 11.2572C18.5867 10.4054 22.9626 10.437 23.8577 12.803C24.4545 14.3173 23.1284 16.2733 20.7415 17.8191Z" fill="white"/>
<defs>
<linearGradient id="paint0_linear_12779_22831" x1="0" y1="32" x2="32" y2="0" gradientUnits="userSpaceOnUse">
<stop stop-color="#4D6216"/>
<stop offset="1" stop-color="#A6CE39"/>
</linearGradient>
</defs>
</svg>
