<svg width="57" height="37" viewBox="0 0 57 37" fill="none" xmlns="http://www.w3.org/2000/svg">
<rect x="0.179199" y="0.339844" width="55.8806" height="36" rx="8" fill="white"/>
<path d="M17.9847 13.6248C18.3575 13.1585 18.6105 12.5324 18.5438 11.8926C17.998 11.9197 17.332 12.2526 16.9465 12.7193C16.6003 13.1189 16.2939 13.7713 16.3737 14.3843C16.9864 14.4374 17.5984 14.078 17.9847 13.6248Z" fill="black"/>
<path d="M18.5368 14.504C17.6471 14.451 16.8907 15.0089 16.4658 15.0089C16.0407 15.0089 15.3901 14.5307 14.6864 14.5435C13.7705 14.557 12.9207 15.0749 12.4559 15.8985C11.4999 17.5462 12.2036 19.9903 13.1333 21.3322C13.5847 21.9961 14.1288 22.7271 14.8457 22.7008C15.523 22.6743 15.7885 22.2622 16.6119 22.2622C17.4346 22.2622 17.6738 22.7008 18.3908 22.6875C19.1344 22.6743 19.5992 22.0233 20.0507 21.3588C20.5686 20.602 20.7806 19.8712 20.7939 19.8311C20.7806 19.8178 19.3601 19.2729 19.3469 17.6389C19.3335 16.2707 20.4622 15.62 20.5153 15.5796C19.8779 14.6369 18.8821 14.5307 18.5368 14.504Z" fill="black"/>
<path d="M26.2835 12.6524C28.2172 12.6524 29.5637 13.9853 29.5637 15.9259C29.5637 17.8735 28.1895 19.2134 26.235 19.2134H24.094V22.6181H22.5471V12.6524L26.2835 12.6524ZM24.094 17.9149H25.8689C27.2157 17.9149 27.9822 17.1899 27.9822 15.9329C27.9822 14.676 27.2157 13.9577 25.8758 13.9577H24.094V17.9149Z" fill="black"/>
<path d="M29.9678 20.5532C29.9678 19.2823 30.9416 18.502 32.6683 18.4053L34.6572 18.2879V17.7286C34.6572 16.9205 34.1115 16.4371 33.2001 16.4371C32.3366 16.4371 31.7979 16.8513 31.6668 17.5006H30.258C30.3408 16.1883 31.4595 15.2215 33.2552 15.2215C35.0163 15.2215 36.1419 16.1538 36.1419 17.6111V22.6181H34.7123V21.4233H34.6779C34.2567 22.2314 33.3381 22.7424 32.3851 22.7424C30.9624 22.7424 29.9678 21.8584 29.9678 20.5532ZM34.6572 19.8971V19.3239L32.8684 19.4343C31.9775 19.4966 31.4734 19.8902 31.4734 20.5118C31.4734 21.1471 31.9982 21.5615 32.7994 21.5615C33.8422 21.5615 34.6572 20.8432 34.6572 19.8971Z" fill="black"/>
<path d="M37.4917 25.2909V24.0823C37.602 24.1098 37.8505 24.1098 37.975 24.1098C38.6655 24.1098 39.0385 23.8198 39.2663 23.074C39.2663 23.0601 39.3977 22.632 39.3977 22.625L36.7734 15.3527H38.3892L40.2265 21.2645H40.2539L42.0912 15.3527H43.6658L40.9445 22.9979C40.3232 24.7591 39.6049 25.3254 38.0994 25.3254C37.975 25.3254 37.602 25.3115 37.4917 25.2909Z" fill="black"/>
</svg>
