<svg width="120" height="41" viewBox="0 0 120 41" fill="none" xmlns="http://www.w3.org/2000/svg">
<rect x="0.5" y="0.839844" width="119" height="39" rx="5.5" fill="black"/>
<rect x="0.5" y="0.839844" width="119" height="39" rx="5.5" stroke="#A6A6A6"/>
<path d="M24.7045 21.1028C24.7166 20.1829 24.9669 19.281 25.4321 18.4809C25.8972 17.6808 26.5621 17.0085 27.3648 16.5267C26.8548 15.8157 26.1821 15.2305 25.4 14.8177C24.6178 14.4049 23.7479 14.1758 22.8592 14.1487C20.9635 13.9544 19.1258 15.2561 18.1598 15.2561C17.1751 15.2561 15.6878 14.168 14.0862 14.2001C13.0502 14.2328 12.0406 14.5269 11.1557 15.0538C10.2708 15.5807 9.54075 16.3224 9.03674 17.2066C6.85352 20.897 8.48201 26.3206 10.5734 29.3037C11.6197 30.7644 12.8426 32.3961 14.4428 32.3382C16.0086 32.2748 16.5934 31.3634 18.4835 31.3634C20.3561 31.3634 20.9048 32.3382 22.5374 32.3014C24.2176 32.2748 25.2762 30.8342 26.2859 29.3597C27.0377 28.3189 27.6162 27.1685 28 25.9513C27.0238 25.5482 26.1908 24.8735 25.6048 24.0113C25.0187 23.1491 24.7056 22.1376 24.7045 21.1028Z" fill="white"/>
<path d="M21.621 12.187C22.5372 11.1133 22.9885 9.7332 22.8792 8.33984C21.4796 8.48336 20.1867 9.13644 19.2582 10.1689C18.8043 10.6734 18.4566 11.2602 18.235 11.8958C18.0135 12.5315 17.9224 13.2036 17.9671 13.8736C18.6672 13.8807 19.3597 13.7325 19.9927 13.4404C20.6256 13.1482 21.1824 12.7197 21.621 12.187Z" fill="white"/>
<path d="M36.791 8.84131H38.8608C40.6494 8.84131 41.5195 9.90479 41.5195 11.834C41.5195 13.7632 40.6406 14.8398 38.8608 14.8398H36.791V8.84131ZM37.7886 9.68066V14.0005H38.751C39.9375 14.0005 40.4956 13.2842 40.4956 11.8472C40.4956 10.4014 39.9331 9.68066 38.751 9.68066H37.7886ZM44.6748 10.1157C45.8877 10.1157 46.7358 10.9023 46.7358 12.2075V12.8096C46.7358 14.1587 45.8877 14.9189 44.6748 14.9189C43.4443 14.9189 42.605 14.1675 42.605 12.814V12.2119C42.605 10.9419 43.4575 10.1157 44.6748 10.1157ZM44.6792 10.9023C43.9849 10.9023 43.5894 11.4824 43.5894 12.2603V12.7788C43.5894 13.5566 43.9585 14.1323 44.6792 14.1323C45.3911 14.1323 45.7559 13.561 45.7559 12.7788V12.2603C45.7559 11.4824 45.3735 10.9023 44.6792 10.9023ZM53.8989 10.1948L52.6772 14.8398H51.6841L50.7129 11.4121H50.6865L49.7329 14.8398H48.7354L47.4609 10.1948H48.5112L49.2583 13.7368H49.3022L50.2383 10.1948H51.1567L52.1191 13.7368H52.1631L52.9233 10.1948H53.8989ZM54.8657 14.8398V10.1948H55.8237V11.0298H55.8721C55.9907 10.665 56.3291 10.1245 57.2695 10.1245C58.2056 10.1245 58.834 10.6431 58.834 11.7021V14.8398H57.8584V11.9878C57.8584 11.2803 57.4893 10.9551 56.9399 10.9551C56.2192 10.9551 55.8413 11.5088 55.8413 12.2603V14.8398H54.8657ZM60.3105 14.8398V8.5249H61.2861V14.8398H60.3105ZM64.6348 10.1157C65.8477 10.1157 66.6958 10.9023 66.6958 12.2075V12.8096C66.6958 14.1587 65.8477 14.9189 64.6348 14.9189C63.4043 14.9189 62.5649 14.1675 62.5649 12.814V12.2119C62.5649 10.9419 63.4175 10.1157 64.6348 10.1157ZM64.6392 10.9023C63.9448 10.9023 63.5493 11.4824 63.5493 12.2603V12.7788C63.5493 13.5566 63.9185 14.1323 64.6392 14.1323C65.3511 14.1323 65.7158 13.561 65.7158 12.7788V12.2603C65.7158 11.4824 65.3335 10.9023 64.6392 10.9023ZM69.2227 14.9102C68.3218 14.9102 67.7021 14.3564 67.7021 13.4907C67.7021 12.6689 68.2734 12.1152 69.3457 12.1152H70.519V11.6802C70.519 11.1484 70.1807 10.8979 69.6445 10.8979C69.1172 10.8979 68.8799 11.1177 68.8052 11.4253H67.8779C67.9351 10.6475 68.5195 10.1245 69.6753 10.1245C70.6685 10.1245 71.4902 10.5376 71.4902 11.6934V14.8398H70.563V14.2378H70.519C70.3125 14.5938 69.9082 14.9102 69.2227 14.9102ZM69.5259 14.1543C70.0796 14.1543 70.519 13.7764 70.519 13.271V12.77H69.4995C68.9326 12.77 68.6821 13.0557 68.6821 13.4424C68.6821 13.9258 69.0864 14.1543 69.5259 14.1543ZM74.4961 10.1333C75.1509 10.1333 75.6519 10.4233 75.832 10.8936H75.8804V8.5249H76.856V14.8398H75.9067V14.0972H75.8584C75.7178 14.5674 75.1597 14.9014 74.4829 14.9014C73.415 14.9014 72.7207 14.1411 72.7207 12.915V12.1196C72.7207 10.8936 73.4282 10.1333 74.4961 10.1333ZM74.7686 10.9331C74.1182 10.9331 73.7139 11.4165 73.7139 12.2603V12.77C73.7139 13.6182 74.1226 14.1016 74.7905 14.1016C75.4497 14.1016 75.8804 13.6226 75.8804 12.8315V12.1284C75.8804 11.4121 75.4102 10.9331 74.7686 10.9331ZM82.2129 10.1157C83.4258 10.1157 84.2739 10.9023 84.2739 12.2075V12.8096C84.2739 14.1587 83.4258 14.9189 82.2129 14.9189C80.9824 14.9189 80.1431 14.1675 80.1431 12.814V12.2119C80.1431 10.9419 80.9956 10.1157 82.2129 10.1157ZM82.2173 10.9023C81.5229 10.9023 81.1274 11.4824 81.1274 12.2603V12.7788C81.1274 13.5566 81.4966 14.1323 82.2173 14.1323C82.9292 14.1323 83.2939 13.561 83.2939 12.7788V12.2603C83.2939 11.4824 82.9116 10.9023 82.2173 10.9023ZM85.5308 14.8398V10.1948H86.4888V11.0298H86.5371C86.6558 10.665 86.9941 10.1245 87.9346 10.1245C88.8706 10.1245 89.499 10.6431 89.499 11.7021V14.8398H88.5234V11.9878C88.5234 11.2803 88.1543 10.9551 87.605 10.9551C86.8843 10.9551 86.5063 11.5088 86.5063 12.2603V14.8398H85.5308ZM93.2739 10.2256V9.06543H94.2275V10.2256H95.269V10.9902H94.2275V13.4556C94.2275 13.9609 94.4165 14.1016 94.9395 14.1016C95.0713 14.1016 95.2471 14.0928 95.3218 14.084V14.8311C95.2427 14.8442 94.9175 14.8706 94.6978 14.8706C93.5684 14.8706 93.2607 14.4663 93.2607 13.5347V10.9902H92.5532V10.2256H93.2739ZM96.4995 14.8398V8.5249H97.4707V11.0298H97.519C97.6201 10.7002 97.998 10.1245 98.9297 10.1245C99.835 10.1245 100.481 10.6475 100.481 11.7065V14.8398H99.5098V11.9922C99.5098 11.2847 99.1187 10.9551 98.5649 10.9551C97.8662 10.9551 97.4707 11.5044 97.4707 12.2603V14.8398H96.4995ZM103.755 14.9189C102.489 14.9189 101.703 14.1411 101.703 12.8315V12.2031C101.703 10.8848 102.564 10.1157 103.698 10.1157C104.862 10.1157 105.684 10.9243 105.684 12.2031V12.748H102.669V12.9766C102.669 13.6445 103.065 14.1367 103.75 14.1367C104.26 14.1367 104.612 13.895 104.678 13.605H105.631C105.574 14.1411 105.007 14.9189 103.755 14.9189ZM102.669 12.1108H104.73V12.0493C104.73 11.3506 104.322 10.8848 103.702 10.8848C103.083 10.8848 102.669 11.3506 102.669 12.0493V12.1108Z" fill="white"/>
<path d="M38.2061 30.8398H36.1758L40.3066 18.8428H42.5391L46.6611 30.8398H44.5518L43.4883 27.5176H39.2783L38.2061 30.8398ZM41.4316 20.917H41.3525L39.7266 25.9883H43.04L41.4316 20.917ZM52.2644 30.9717C51.0603 30.9717 50.1462 30.4004 49.654 29.5479H49.5837V33.9248H47.6325V21.5498H49.531V22.9121H49.6013C50.1111 22.0244 51.0603 21.4268 52.3083 21.4268C54.3913 21.4268 55.8767 23 55.8767 25.7773V26.6035C55.8767 29.3633 54.4089 30.9717 52.2644 30.9717ZM51.8161 29.3633C53.0554 29.3633 53.8991 28.3701 53.8991 26.498V25.8477C53.8991 24.0459 53.1081 23.0176 51.781 23.0176C50.4187 23.0176 49.5661 24.125 49.5661 25.8389V26.498C49.5661 28.2559 50.4275 29.3633 51.8161 29.3633ZM62.183 30.9717C60.9789 30.9717 60.0649 30.4004 59.5727 29.5479H59.5024V33.9248H57.5512V21.5498H59.4496V22.9121H59.52C60.0297 22.0244 60.9789 21.4268 62.227 21.4268C64.31 21.4268 65.7954 23 65.7954 25.7773V26.6035C65.7954 29.3633 64.3276 30.9717 62.183 30.9717ZM61.7348 29.3633C62.9741 29.3633 63.8178 28.3701 63.8178 26.498V25.8477C63.8178 24.0459 63.0268 23.0176 61.6996 23.0176C60.3373 23.0176 59.4848 24.125 59.4848 25.8389V26.498C59.4848 28.2559 60.3461 29.3633 61.7348 29.3633ZM69.8387 27.5088H71.7899C71.8778 28.5459 72.7919 29.4336 74.4882 29.4336C76.0438 29.4336 76.9667 28.7041 76.9667 27.5703C76.9667 26.6562 76.3514 26.1641 75.0682 25.8564L73.0995 25.3643C71.5526 25.0039 70.1639 24.0811 70.1639 22.1299C70.1639 19.8359 72.1679 18.5791 74.497 18.5791C76.8261 18.5791 78.7684 19.8359 78.8124 22.0771H76.8964C76.8085 21.0576 76.0262 20.2139 74.4706 20.2139C73.0995 20.2139 72.1679 20.8643 72.1679 21.9805C72.1679 22.7627 72.7128 23.3252 73.829 23.5801L75.7889 24.0635C77.5907 24.5029 78.9618 25.3555 78.9618 27.3945C78.9618 29.75 77.0546 31.0771 74.3387 31.0771C70.9989 31.0771 69.8827 29.126 69.8387 27.5088ZM81.3395 21.5498V19.291H83.2555V21.5498H85.066V23.1143H83.2555V28.0713C83.2555 29.082 83.6334 29.3633 84.6793 29.3633C84.8463 29.3633 85.0045 29.3633 85.1188 29.3457V30.8398C84.9605 30.8662 84.5914 30.9014 84.1959 30.9014C81.9371 30.9014 81.3131 30.0928 81.3131 28.2295V23.1143H80.0299V21.5498H81.3395ZM90.3353 21.3916C93.0071 21.3916 94.4573 23.2725 94.4573 25.8037V26.5508C94.4573 29.1699 93.0159 30.998 90.3353 30.998C87.6546 30.998 86.1956 29.1699 86.1956 26.5508V25.8037C86.1956 23.2812 87.6634 21.3916 90.3353 21.3916ZM90.3353 22.9561C88.8851 22.9561 88.1644 24.1426 88.1644 25.8301V26.542C88.1644 28.2031 88.8763 29.4248 90.3353 29.4248C91.7943 29.4248 92.4974 28.2119 92.4974 26.542V25.8301C92.4974 24.1338 91.7855 22.9561 90.3353 22.9561ZM96.1055 30.8398V21.5498H98.0567V22.7715H98.127C98.3643 22.1914 99.0586 21.418 100.351 21.418C100.606 21.418 100.825 21.4355 101.01 21.4707V23.1934C100.843 23.1494 100.5 23.123 100.175 23.123C98.6104 23.123 98.083 24.0898 98.083 25.3379V30.8398H96.1055ZM105.743 30.998C103.256 30.998 101.674 29.3545 101.674 26.6035V25.6631C101.674 23.0703 103.22 21.3916 105.664 21.3916C108.142 21.3916 109.636 23.1318 109.636 25.751V26.6387H103.598V26.8584C103.598 28.4229 104.442 29.46 105.769 29.46C106.762 29.46 107.439 28.9678 107.677 28.168H109.531C109.25 29.6709 108.037 30.998 105.743 30.998ZM103.598 25.2764H107.729V25.2588C107.729 23.9404 106.912 22.9033 105.673 22.9033C104.416 22.9033 103.598 23.9404 103.598 25.2588V25.2764Z" fill="white"/>
</svg>
