<svg width="32" height="32" viewBox="0 0 32 32" fill="none" xmlns="http://www.w3.org/2000/svg">
<rect width="32" height="32" rx="10" fill="url(#paint0_linear_31089_111030)"/>
<path d="M18.298 8.41129L18.5903 8.70359L18.7089 8.51164C18.8697 8.25156 19.2109 8.17106 19.471 8.33183C19.7311 8.49261 19.8116 8.83378 19.6508 9.09386L18.2906 11.2941H13.8684L12.5082 9.09386C12.3474 8.83378 12.4279 8.49261 12.688 8.33183C12.9481 8.17106 13.2893 8.25156 13.4501 8.51164L13.5687 8.7036L13.861 8.41129C14.4094 7.8629 15.3136 7.8629 15.862 8.41129C15.978 8.52726 16.1811 8.52726 16.297 8.41129C16.8454 7.8629 17.7496 7.8629 18.298 8.41129Z" fill="white"/>
<path d="M13.9741 12.4014C13.6555 13.0793 13.1296 13.6878 12.4463 14.1581C10.5895 15.4074 9.80021 17.3403 10.0427 19.1863C10.2849 21.0303 11.5488 22.7311 13.6662 23.5479C15.2299 24.1493 16.9786 24.1526 18.4964 23.5465C20.615 22.7281 21.8739 21.0128 22.123 19.1603C22.3724 17.3055 21.6025 15.3566 19.7697 14.1039C19.0893 13.636 18.5745 13.0776 18.2578 12.4014L13.9741 12.4014Z" fill="white"/>
<defs>
<linearGradient id="paint0_linear_31089_111030" x1="0" y1="32" x2="32" y2="0" gradientUnits="userSpaceOnUse">
<stop stop-color="#700036"/>
<stop offset="1" stop-color="#FF017C"/>
</linearGradient>
</defs>
</svg>
