<svg width="32" height="32" viewBox="0 0 32 32" fill="none" xmlns="http://www.w3.org/2000/svg">
<rect width="32" height="32" rx="10" fill="url(#paint0_linear_31089_110999)"/>
<path d="M18.557 13.5575C18.9878 13.5575 19.3553 13.6483 19.6594 13.83C19.9678 14.0116 20.2022 14.2798 20.3627 14.6347C20.5275 14.9852 20.6098 15.4161 20.6098 15.9272V15.9399C20.6098 16.4974 20.5317 16.9621 20.3754 17.3338C20.2191 17.7055 19.9889 17.9843 19.6848 18.1701C19.3807 18.3518 19.0047 18.4426 18.557 18.4426H17.7143V13.5575H18.557Z" fill="white"/>
<path fill-rule="evenodd" clip-rule="evenodd" d="M9.14286 10.2858C8.51168 10.2858 8 10.7975 8 11.4286V20.5715C8 21.2026 8.51168 21.7143 9.14286 21.7143H22.8571C23.4883 21.7143 24 21.2026 24 20.5715V11.4286C24 10.7975 23.4883 10.2858 22.8571 10.2858H9.14286ZM12.055 11.4286C12.9674 11.4286 13.7404 11.6018 14.374 11.9482C15.0076 12.2904 15.4892 12.793 15.8186 13.4561C16.1523 14.1193 16.3192 14.9261 16.3192 15.8764V15.8891C16.3192 16.8988 16.1544 17.752 15.825 18.4489C15.4997 19.1458 15.0203 19.6739 14.3867 20.033C13.7531 20.3919 12.9759 20.5715 12.055 20.5715H18.9122C19.833 20.5715 20.6102 20.3919 21.2438 20.033C21.8774 19.6739 22.3569 19.1458 22.6821 18.4489C23.0116 17.752 23.1763 16.8988 23.1763 15.8891V15.8764C23.1763 14.9261 23.0095 14.1193 22.6758 13.4561C22.3463 12.793 21.8648 12.2904 21.2312 11.9482C20.5976 11.6018 19.8246 11.4286 18.9122 11.4286H12.055ZM10.6865 18.4426H11.5292C11.9769 18.4426 12.3529 18.3518 12.6569 18.1701C12.9611 17.9843 13.1913 17.7055 13.3476 17.3338C13.5039 16.9621 13.582 16.4974 13.582 15.9399V15.9272C13.582 15.4161 13.4997 14.9853 13.3349 14.6347C13.1744 14.2798 12.94 14.0116 12.6316 13.83C12.3275 13.6484 11.96 13.5575 11.5292 13.5575H10.6865V18.4426Z" fill="white"/>
<defs>
<linearGradient id="paint0_linear_31089_110999" x1="0" y1="32" x2="32" y2="0" gradientUnits="userSpaceOnUse">
<stop stop-color="#B25600"/>
<stop offset="1" stop-color="#FFBF2A"/>
</linearGradient>
</defs>
</svg>
