<svg width="32" height="32" viewBox="0 0 32 32" fill="none" xmlns="http://www.w3.org/2000/svg">
<rect width="32" height="32" rx="10" fill="url(#paint0_linear_8970_60059)"/>
<path d="M11.6698 17.0912C11.716 16.9266 11.7711 16.7645 11.835 16.6051C11.9452 16.3302 12.0817 16.0648 12.2406 15.8165C12.3982 15.5704 12.5791 15.3389 12.7785 15.1285C12.978 14.918 13.1973 14.727 13.4305 14.5607C13.6657 14.393 13.9171 14.249 14.1778 14.1327C14.7197 13.8908 15.2959 13.7681 15.8905 13.7681C16.4851 13.7681 17.0613 13.8908 17.6034 14.1327C17.8639 14.249 18.1153 14.393 18.3506 14.5607C18.4488 14.6308 18.5446 14.7053 18.6374 14.7837L19.6282 14.4557C18.6705 13.4483 17.3494 12.8254 15.8904 12.8254C13.2879 12.8254 11.124 14.8074 10.6797 17.4191L11.6698 17.0912Z" fill="white"/>
<path d="M20.1111 19.7342C20.0649 19.8988 20.0098 20.0609 19.946 20.2202C19.8357 20.4952 19.6993 20.7606 19.5403 21.0089C19.3828 21.255 19.2018 21.4865 19.0024 21.6969C18.803 21.9073 18.5837 22.0984 18.3504 22.2646C18.1152 22.4324 17.8638 22.5764 17.6032 22.6927C17.0612 22.9346 16.4849 23.0573 15.8904 23.0573C15.2959 23.0573 14.7196 22.9346 14.1776 22.6927C13.917 22.5764 13.6656 22.4324 13.4304 22.2646C13.3321 22.1946 13.2363 22.1201 13.1435 22.0417L12.1527 22.3697C13.1103 23.3771 14.4314 24 15.8903 24C18.4929 24 20.6568 22.018 21.1011 19.4063L20.1111 19.7342Z" fill="white"/>
<path d="M9.65625 18.7268C10.152 18.5554 10.646 18.3795 11.1524 18.2423C11.2362 18.2196 11.3208 18.196 11.4054 18.1875C11.5447 18.1735 11.6835 18.1562 11.8256 18.1639C12.1024 18.1789 12.3559 18.2552 12.5817 18.4255C12.8338 18.6155 12.9797 18.8831 13.0673 19.1889C13.104 19.3167 13.1179 19.4504 13.1341 19.5834C13.1595 19.793 13.1437 20.001 13.1088 20.2059C13.0745 20.4069 13.0127 20.6003 12.9239 20.7846C12.7843 21.0743 12.5984 21.3233 12.3617 21.5298C12.1874 21.6819 11.9976 21.8075 11.7919 21.9091C11.6141 21.997 11.4274 22.056 11.2421 22.1197C10.8612 22.2507 10.4695 22.3477 10.0916 22.4885C10.0916 22.4885 9.6845 19.1005 9.65625 18.7268ZM12.2284 19.951C12.231 19.8655 12.2147 19.7348 12.1801 19.6068C12.1417 19.4653 12.0826 19.3336 11.9822 19.2301C11.7644 19.0054 11.4983 18.9853 11.2177 19.0446C11.0396 19.0823 10.8682 19.1463 10.6953 19.2041C10.6348 19.2243 10.6249 19.2385 10.6361 19.304C10.6676 19.4892 10.6736 19.6773 10.6952 19.8637C10.7225 20.0999 10.7397 20.3374 10.7628 20.5743C10.7877 20.8293 10.8149 21.0842 10.8399 21.3392C10.8459 21.4011 10.8621 21.4166 10.9183 21.3951C11.0873 21.3306 11.2636 21.2909 11.4304 21.2185C11.5971 21.1461 11.7479 21.0495 11.8771 20.9179C12.1233 20.6672 12.2341 20.3576 12.2284 19.951Z" fill="white"/>
<path d="M14.7477 11.1789C14.7404 10.9531 14.7705 10.7311 14.8188 10.5119C14.8578 10.3344 14.9149 10.1625 14.9869 9.99574C15.0811 9.77747 15.2005 9.57544 15.346 9.39016C15.4611 9.24345 15.5903 9.1106 15.7328 8.99182C15.7446 8.98195 15.7558 8.97137 15.767 8.96078C15.775 8.95317 15.7844 8.9441 15.7946 8.95099C15.8079 8.95991 15.799 8.97304 15.7942 8.98319C15.768 9.03837 15.7455 9.09508 15.7224 9.15158C15.6838 9.24599 15.6511 9.34258 15.6209 9.4399C15.5821 9.56492 15.5499 9.69197 15.5226 9.82033C15.4813 10.0149 15.4562 10.2119 15.4374 10.4098C15.4278 10.5095 15.4274 10.61 15.4269 10.7102C15.4262 10.8694 15.4227 11.029 15.437 11.1876C15.4469 11.2978 15.4575 11.4082 15.4721 11.5181C15.4918 11.6662 15.5183 11.813 15.5496 11.9588C15.5659 12.0349 15.5819 12.1117 15.6079 12.1855C15.6245 12.2328 15.6197 12.2368 15.57 12.2403C15.429 12.2504 15.2881 12.2612 15.1474 12.2792C15.0209 12.2954 14.8952 12.3164 14.7702 12.3407C14.6566 12.3628 14.5445 12.3921 14.4324 12.4219C14.2717 12.4647 14.1138 12.5168 13.9583 12.5755C13.8049 12.6334 13.6545 12.6998 13.507 12.7726C13.3417 12.8544 13.1801 12.9433 13.0244 13.0431C13.0011 13.0581 12.9876 13.0604 12.9764 13.0276C12.9413 12.9243 12.9062 12.8209 12.865 12.7201C12.8203 12.6103 12.772 12.502 12.7207 12.3952C12.6408 12.2289 12.5529 12.0673 12.4563 11.9108C12.3432 11.7276 12.2186 11.553 12.083 11.3867C11.9705 11.2488 11.85 11.1187 11.7223 10.9963C11.5224 10.8045 11.3065 10.6337 11.0698 10.4921C11.0616 10.4872 11.0463 10.4861 11.0514 10.4709C11.0551 10.4599 11.0674 10.4628 11.0763 10.463C11.1736 10.4655 11.2693 10.4823 11.3651 10.4978C11.4552 10.5123 11.5443 10.5327 11.6317 10.5593C11.7066 10.5823 11.7816 10.606 11.8545 10.6346C11.9678 10.6791 12.0777 10.7316 12.1838 10.7925C12.4539 10.9476 12.6914 11.1444 12.8989 11.3807C13.0249 11.5242 13.1374 11.6774 13.2324 11.8443C13.2377 11.8536 13.2416 11.8671 13.2548 11.8615C13.2677 11.856 13.2615 11.8427 13.2594 11.8327C13.2321 11.7031 13.2063 11.5733 13.1816 11.4432C13.1505 11.2788 13.1219 11.114 13.0956 10.9488C13.075 10.8192 13.0527 10.6899 13.0359 10.5598C13.0172 10.4153 12.998 10.2708 12.9805 10.1261C12.9572 9.93229 12.9418 9.73773 12.9214 9.5436C12.9132 9.46572 12.9104 9.38718 12.9054 9.30901C12.8863 9.01495 12.8789 8.72046 12.8858 8.42597C12.8889 8.29348 12.8872 8.16041 12.9037 8.02843C12.905 8.01828 12.9008 8.00472 12.9145 8.0008C12.9284 7.99681 12.9347 8.00849 12.9421 8.01821C13.1128 8.24185 13.2714 8.47419 13.4205 8.71372C13.5626 8.94186 13.6962 9.17514 13.8234 9.41227C13.9348 9.61974 14.0419 9.82968 14.1435 10.0424C14.2503 10.2659 14.354 10.4909 14.4527 10.7184C14.5456 10.9327 14.6366 11.1477 14.7202 11.3661C14.7238 11.3757 14.7259 11.3911 14.7387 11.3884C14.7517 11.3857 14.747 11.3703 14.7471 11.3602C14.7479 11.2996 14.7477 11.2393 14.7477 11.1789Z" fill="white"/>
<path d="M22.3441 14.3495L21.8533 18.3587C21.4814 18.5057 21.1046 18.6306 20.7256 18.7581C20.7007 18.7664 20.6891 18.7503 20.6812 18.7302C20.6486 18.646 20.6158 18.5619 20.5844 18.4773C20.3515 17.8489 20.1261 17.2176 19.8989 16.5866C19.8927 16.5697 19.8928 16.5443 19.8711 16.5443C19.8458 16.5443 19.8443 16.5719 19.8415 16.5906C19.7219 17.4279 19.6241 18.2691 19.5168 19.108C19.5136 19.133 19.5058 19.1493 19.4817 19.1569C19.3215 19.2086 19.1616 19.2607 19.0016 19.3131C18.867 19.3571 18.7323 19.4007 18.5982 19.4465C18.553 19.4619 18.5059 19.4707 18.4625 19.4934C18.4299 19.5103 18.4127 19.4851 18.4022 19.4577C17.9693 18.3268 17.574 17.1793 17.1206 16.0566C17.1014 16.009 17.1181 15.9927 17.1572 15.98C17.4283 15.8925 17.6991 15.8044 17.9701 15.7165C17.9869 15.7111 18.0045 15.708 18.0214 15.7025C18.0587 15.6904 18.0772 15.7087 18.0884 15.7444C18.3352 16.5395 18.5894 17.3319 18.8291 18.1288C18.8333 18.143 18.8378 18.1572 18.8435 18.1709C18.8489 18.1838 18.853 18.2022 18.8715 18.1969C18.8859 18.1928 18.8854 18.1638 18.8854 18.1638C18.8854 18.1638 19.1592 16.2903 19.228 15.3615C19.2306 15.3251 19.2516 15.302 19.2815 15.292C19.4091 15.2495 19.5374 15.2094 19.6653 15.1681C19.8017 15.1242 19.938 15.08 20.0743 15.0357C20.113 15.0232 20.1511 15.0087 20.1899 14.9968C20.2241 14.9863 20.2392 15.0118 20.2487 15.0387C20.5264 15.8237 20.8095 16.6067 21.0826 17.393C21.0901 17.4145 21.0904 17.4485 21.1206 17.4428C21.1437 17.4385 21.1416 17.4078 21.1435 17.3859C21.217 16.4869 21.2927 15.5878 21.37 14.6891C21.3747 14.6338 21.3949 14.6033 21.453 14.5864C21.7554 14.4978 21.9862 14.4324 22.3441 14.3495Z" fill="white"/>
<path d="M15.462 16.6198C15.6599 16.6256 15.847 16.6668 16.0003 16.8118C16.1044 16.9101 16.1723 17.0321 16.2022 17.1764C16.2113 17.22 16.2278 17.2618 16.2284 17.3075C16.2289 17.3415 16.2185 17.3622 16.1842 17.3723C15.9773 17.4335 15.7703 17.4945 15.5651 17.5615C15.5149 17.5779 15.4619 17.5861 15.4143 17.6115C15.39 17.6243 15.3767 17.6146 15.3738 17.5882C15.3702 17.5562 15.3591 17.5271 15.3467 17.498C15.3154 17.4243 15.245 17.3706 15.17 17.3812C15.0379 17.3999 14.9222 17.4558 14.8529 17.5853C14.7903 17.702 14.808 17.8151 14.8773 17.9213C14.9581 18.0453 15.0732 18.1299 15.1915 18.2081C15.3902 18.3391 15.5915 18.4659 15.7915 18.5949C15.8907 18.6588 15.9892 18.7236 16.0881 18.788C16.1094 18.8019 16.1266 18.7971 16.1336 18.7719C16.1682 18.6488 16.2198 18.533 16.2678 18.4157C16.288 18.3661 16.3094 18.3171 16.3308 18.2682C16.3411 18.2447 16.3594 18.2303 16.3824 18.2234C16.5197 18.1823 16.6573 18.142 16.7945 18.1007C16.9233 18.0619 17.0518 18.0223 17.1803 17.9827C17.1964 17.9778 17.2132 17.9587 17.2282 17.9776C17.2424 17.9953 17.2315 18.0171 17.2243 18.0358C17.1914 18.1219 17.1596 18.2088 17.1239 18.2936C17.0473 18.4755 16.9938 18.6666 16.9228 18.8507C16.885 18.9487 16.8482 19.0474 16.8009 19.1411C16.7675 19.2074 16.7725 19.2249 16.8312 19.2627C17.117 19.4465 17.4027 19.6308 17.6884 19.8148C17.6987 19.8215 17.7135 19.8248 17.7122 19.841C17.7108 19.859 17.6953 19.8636 17.6818 19.8678C17.5752 19.9009 17.4686 19.9336 17.362 19.9667C17.2167 20.0119 17.0715 20.0575 16.9262 20.1025C16.8518 20.1256 16.7773 20.1478 16.703 20.1709C16.6818 20.1775 16.6653 20.1682 16.6484 20.1574C16.5565 20.0986 16.4635 20.0417 16.3732 19.9804C16.332 19.9525 16.302 19.9514 16.2671 19.9909C16.1181 20.1592 15.9501 20.3037 15.7635 20.423C15.6354 20.5046 15.5008 20.5722 15.3611 20.6301C15.236 20.6818 15.1085 20.7244 14.978 20.7549C14.7275 20.8131 14.4749 20.8396 14.2235 20.764C13.9527 20.6827 13.7632 20.5064 13.6743 20.2182C13.5992 19.9747 13.6038 19.7326 13.6742 19.489C13.7605 19.19 13.9265 18.9475 14.143 18.7399C14.173 18.7111 14.2031 18.6822 14.2347 18.6557C14.2635 18.6314 14.2608 18.61 14.2344 18.5879C14.1572 18.5231 14.0966 18.4431 14.0514 18.3518C13.9552 18.1576 13.933 17.9507 13.9759 17.7382C14.0538 17.3521 14.2794 17.0834 14.5945 16.8888C14.816 16.7519 15.0525 16.662 15.3091 16.6329C15.36 16.6271 15.4102 16.6168 15.462 16.6198ZM14.8793 19.9736C14.9973 19.98 15.1055 19.9433 15.2135 19.9006C15.3848 19.8328 15.5322 19.728 15.6616 19.593C15.6886 19.5649 15.6931 19.5456 15.6537 19.5209C15.3921 19.3564 15.1316 19.1896 14.8713 19.0227C14.8397 19.0024 14.8111 19 14.7842 19.0264C14.6371 19.1715 14.514 19.3335 14.4956 19.5551C14.4838 19.6961 14.522 19.8198 14.6398 19.9056C14.7131 19.9587 14.7932 19.9782 14.8793 19.9736Z" fill="white"/>
<defs>
<linearGradient id="paint0_linear_8970_60059" x1="0" y1="32" x2="32" y2="0" gradientUnits="userSpaceOnUse">
<stop stop-color="#CC3E40"/>
<stop offset="1" stop-color="#FF7C02"/>
</linearGradient>
</defs>
</svg>
