<svg width="32" height="32" viewBox="0 0 32 32" fill="none" xmlns="http://www.w3.org/2000/svg">
<rect width="32" height="32" rx="10" fill="url(#paint0_linear_31089_110993)"/>
<path d="M11.8995 22.7647C12.0532 22.8139 12.2311 22.7946 12.3777 22.6997C12.5199 22.608 12.6138 22.4581 12.6344 22.2903L12.9639 19.5711C12.9322 19.5305 12.8984 19.4926 12.8682 19.4501H10.1875C10.2078 19.8281 10.233 20.2083 10.29 20.5876C10.5271 21.7716 11.0686 22.5042 11.8995 22.7647Z" fill="white"/>
<path d="M18.8208 15.7871V13.3847C18.468 13.1191 17.5341 12.5496 15.9772 12.5496C14.4232 12.5496 13.4894 13.117 13.1336 13.3849V15.782C13.1539 18.1238 13.7349 18.9171 14.459 19.4501H17.5002C18.2699 18.9021 18.8419 18.1345 18.8208 15.7871Z" fill="white"/>
<path d="M10.1202 18.3127H12.3118C12.1153 17.6813 12.0051 16.8145 11.9962 15.7871V15.3932H8.87756C9.79625 16.1724 10.0285 17.2357 10.1169 18.3133L10.1202 18.3127Z" fill="white"/>
<path d="M11.9962 13.2528L10.3987 10.0575L8.2998 14.2558H11.9962V13.2528Z" fill="white"/>
<path d="M21.5559 10.0576L19.9583 13.2528V14.2558H23.6547L21.5559 10.0576Z" fill="white"/>
<path d="M16.9547 20.5876H14.9997L15.2841 21.725H16.6704L16.9547 20.5876Z" fill="white"/>
<path d="M20.8201 8.98551C20.253 8.69567 18.62 7.99988 15.9772 7.99988C13.3343 7.99988 11.7018 8.69523 11.1344 8.98522L12.7715 12.2597C13.3836 11.8838 14.4538 11.4122 15.9772 11.4122C17.5006 11.4122 18.5714 11.8838 19.1829 12.2598L20.8201 8.98551Z" fill="white"/>
<path d="M19.5796 22.698C19.7218 22.7897 19.8983 22.8142 20.0605 22.7631C20.8885 22.5009 21.4279 21.7694 21.6644 20.587C21.7272 20.2727 21.7284 19.8727 21.7278 19.4501H19.1108C19.0802 19.4926 19.0455 19.5307 19.0132 19.5713L19.3241 22.2854C19.3429 22.4543 19.4368 22.6058 19.5796 22.698Z" fill="white"/>
<path d="M16.1016 23.9999L16.386 22.8624H15.5685L15.8528 23.9999H16.1016Z" fill="white"/>
<path d="M21.7586 18.3131C21.8343 17.3344 22.1201 16.2054 23.0853 15.3932H19.9583V15.782C19.9675 16.8115 19.8661 17.6798 19.6714 18.3127H21.7561L21.7586 18.3131Z" fill="white"/>
<defs>
<linearGradient id="paint0_linear_31089_110993" x1="0" y1="32" x2="32" y2="0" gradientUnits="userSpaceOnUse">
<stop stop-color="#391C00"/>
<stop offset="1" stop-color="#FF7C02"/>
</linearGradient>
</defs>
</svg>
