<svg width="32" height="32" viewBox="0 0 32 32" fill="none" xmlns="http://www.w3.org/2000/svg">
<rect width="32" height="32" rx="10" fill="url(#paint0_linear_19470_3905)"/>
<path d="M23.9934 17.3115C23.9065 16.459 22.2937 15.8696 19.9494 15.6914C19.7253 14.3775 19.466 12.8613 19.3904 12.4493C19.2165 11.5054 17.9734 10.9776 17.05 11.6582C16.5657 12.0152 16.1326 12.0405 15.9031 12.0405C15.6736 12.0405 15.4187 12.0913 14.7561 11.6582C13.7961 11.0303 12.5896 11.5054 12.4163 12.4493C12.3235 12.9527 11.9573 15.1006 11.7166 16.5181C9.40996 17.1685 7.91241 18.084 8.00078 18.9468C8.13359 20.2475 11.8216 20.9365 16.2375 20.4848C20.6545 20.0332 24.1266 18.6128 23.9934 17.3115ZM12.1311 17.6226L12.386 16.2974C12.386 16.2974 16.9231 17.0108 19.4719 15.6856L19.7268 16.8072C19.7268 16.8072 16.9739 18.5401 12.1311 17.6226Z" fill="white"/>
<defs>
<linearGradient id="paint0_linear_19470_3905" x1="0" y1="32" x2="32" y2="0" gradientUnits="userSpaceOnUse">
<stop stop-color="#B25600"/>
<stop offset="1" stop-color="#FFBF2A"/>
</linearGradient>
</defs>
</svg>
