<svg width="32" height="32" viewBox="0 0 32 32" fill="none" xmlns="http://www.w3.org/2000/svg">
<rect width="32" height="32" rx="10" fill="url(#paint0_linear_12781_23081)"/>
<path d="M13.3783 21.8141C12.8729 21.0981 12.8729 20.3821 13.4204 19.3712C14.0101 18.4025 15.8633 17.1389 15.8633 17.1389C15.8633 17.1389 16.9584 16.5492 16.9584 16.0017V15.9175C16.9584 15.3278 15.8633 14.7802 15.8633 14.7802C15.7791 14.7381 13.968 13.5167 13.4204 12.5479C12.8307 11.5792 12.8729 10.821 13.3783 10.105C13.8837 9.38899 15.0631 8.96779 16.8742 9.05203C18.6853 9.17839 20.707 9.72594 22.2233 11.0738C22.2233 11.0738 20.9597 8.79932 17.6744 8.16753C14.3892 7.53574 11.9041 8.79932 10.43 10.1471C10.0509 10.4841 9.84028 10.821 9.79816 11.158C9.62969 12.0425 10.4721 12.8006 11.146 13.4745C12.0726 14.359 12.4938 15.2014 12.4938 16.0017C12.4938 16.7598 12.0726 17.6443 11.146 18.5288C10.4721 19.1606 9.62969 19.9609 9.79816 20.8454C9.8824 21.1823 10.0509 21.4772 10.43 21.8563C11.862 23.1619 14.3892 24.4676 17.6744 23.8359C20.9597 23.2041 22.2233 20.9296 22.2233 20.9296C20.707 22.2774 18.7274 22.825 16.8742 22.9514C15.0631 22.9935 13.8837 22.5302 13.3783 21.8141Z" fill="white"/>
<path d="M12.0726 13.0112L15.8633 14.7802C15.7791 14.7381 13.968 13.5167 13.4204 12.5479C12.8307 11.5792 12.8729 10.821 13.3783 10.105C13.8837 9.38899 15.0631 8.96779 16.8742 9.05203C18.6853 9.17839 20.707 9.72594 22.2233 11.0738C22.2233 11.0738 20.9597 8.79932 17.6744 8.16753C14.3892 7.53574 11.9041 8.79932 10.43 10.1471C10.0509 10.4841 9.84028 10.821 9.79816 11.158C9.84028 12.1267 12.0726 13.0112 12.0726 13.0112Z" fill="white"/>
<path d="M13.3783 21.8141C12.8729 21.0981 12.8729 20.3821 13.4204 19.3712C14.0101 18.4025 15.8633 17.1389 15.8633 17.1389L12.0726 18.9079C12.0726 18.9079 9.79816 19.7924 9.79816 20.7612C9.8824 21.0981 10.0509 21.3929 10.43 21.772C11.862 23.0777 14.3892 24.3834 17.6744 23.7516C20.9597 23.1198 22.2233 20.8454 22.2233 20.8454C20.707 22.1932 18.7274 22.7408 16.8742 22.8671C15.0631 22.9935 13.8837 22.5302 13.3783 21.8141Z" fill="white"/>
<path d="M12.0726 18.9079L15.8633 17.1389C15.8633 17.1389 16.9584 16.5492 16.9584 16.0017V15.9175C16.9584 15.3278 15.8633 14.7802 15.8633 14.7802L12.0726 13.0112C12.0726 13.0112 9.79816 12.1267 9.79816 11.158C9.62969 12.0425 10.4721 12.8006 11.146 13.4745C12.0726 14.359 12.4938 15.2014 12.4938 16.0017C12.4938 16.7598 12.0726 17.6443 11.146 18.5288C10.4721 19.1606 9.62969 19.9609 9.79816 20.8454C9.79816 19.7924 12.0726 18.9079 12.0726 18.9079Z" fill="white"/>
<defs>
<linearGradient id="paint0_linear_12781_23081" x1="0" y1="32" x2="32" y2="0" gradientUnits="userSpaceOnUse">
<stop stop-color="#0D2668"/>
<stop offset="1" stop-color="#0E7798"/>
</linearGradient>
</defs>
</svg>
