<svg width="14" height="14" viewBox="0 0 14 14" fill="none" xmlns="http://www.w3.org/2000/svg">
<path d="M13.3445 6.65624e-07H0.65779C0.527952 -0.000184122 0.40097 0.0381097 0.292887 0.110045C0.184803 0.18198 0.100466 0.28433 0.0505276 0.404166C0.000589599 0.524001 -0.0127087 0.655947 0.0123126 0.783335C0.0373338 0.910724 0.0995521 1.02784 0.191108 1.11989L5.25111 6.18273V11.8172C5.25113 11.9227 5.27659 12.0267 5.32534 12.1203C5.37408 12.2139 5.44466 12.2944 5.53112 12.355L7.71869 13.882C7.8171 13.9506 7.93243 13.9909 8.05215 13.9986C8.17188 14.0064 8.29142 13.9811 8.39783 13.9257C8.50423 13.8703 8.59342 13.7868 8.65572 13.6843C8.71802 13.5818 8.75105 13.4642 8.75122 13.3442V6.18273L13.8089 1.11989C13.9003 1.02798 13.9625 0.911079 13.9876 0.783907C14.0127 0.656736 13.9996 0.524983 13.9499 0.405242C13.9003 0.285501 13.8163 0.183128 13.7086 0.111016C13.6008 0.0389031 13.4742 0.000276473 13.3445 6.65624e-07Z" fill="white"/>
</svg>
