<svg width="32" height="32" viewBox="0 0 32 32" fill="none" xmlns="http://www.w3.org/2000/svg">
<rect width="32" height="32" rx="10" fill="url(#paint0_linear_31089_110983)"/>
<path d="M12.2448 12.6907C12.9104 12.6897 13.5669 12.5354 14.1633 12.2399C13.6078 13.2709 13.2807 14.4094 13.2041 15.5781C12.5791 15.6384 11.9755 15.8373 11.4372 16.1604C10.8989 16.4835 10.4395 16.9226 10.0923 17.4458C9.74524 17.9689 9.51921 18.5629 9.43074 19.1845C9.34226 19.8061 9.39357 20.4396 9.58092 21.0388C9.76827 21.638 10.0869 22.1879 10.5137 22.6484C10.9405 23.1088 11.4646 23.4683 12.0479 23.7006C12.6312 23.9328 13.259 24.032 13.8854 23.991C14.5119 23.9499 15.1214 23.7696 15.6693 23.4631C15.1771 22.9783 14.7861 22.4005 14.5193 21.7631C14.2525 21.1258 14.1152 20.4418 14.1154 19.7508C14.1153 19.0642 14.2528 18.3845 14.5197 17.7518C14.7866 17.1192 15.1775 16.5464 15.6693 16.0673C15.1971 15.8059 14.6795 15.6366 14.1441 15.5685C14.2412 13.9655 14.8812 12.4433 15.9586 11.2525C17.0361 10.0617 18.487 9.27317 20.0723 9.01681C19.2442 10.1787 18.8014 11.571 18.8061 12.9977V15.5781C17.7353 15.7006 16.7518 16.2281 16.0575 17.0524C15.3632 17.8768 15.0105 18.9356 15.0719 20.0117C15.1332 21.0877 15.6039 22.0996 16.3874 22.8397C17.1709 23.5798 18.2079 23.9922 19.2857 23.9922C20.3635 23.9922 21.4005 23.5798 22.184 22.8397C22.9676 22.0996 23.4382 21.0877 23.4996 20.0117C23.5609 18.9356 23.2083 17.8768 22.5139 17.0524C21.8196 16.2281 20.8362 15.7006 19.7653 15.5781V12.9977C19.7605 12.2188 19.9097 11.4466 20.2044 10.7255C20.4991 10.0044 20.9334 9.34876 21.4824 8.79618L22.2786 8H21.1563C20.1061 8.00026 19.0664 8.20802 18.0968 8.61134C17.1272 9.01465 16.2468 9.60558 15.5063 10.3502C14.6313 9.49502 13.4676 8.99876 12.2448 8.95925C10.9605 9.01082 9.74504 9.55333 8.84906 10.4749L8.49414 10.8106L8.84906 11.1559C9.74424 12.0813 10.9588 12.6302 12.2448 12.6907ZM19.2761 18.3407C18.9021 18.3407 18.5435 18.4893 18.279 18.7537C18.0146 19.0182 17.866 19.3769 17.866 19.7508H16.9068C16.9068 19.1301 17.1534 18.5347 17.5923 18.0958C18.0313 17.6569 18.6266 17.4103 19.2474 17.4103L19.2761 18.3407ZM13.6549 18.3407C13.2809 18.3407 12.9223 18.4893 12.6578 18.7537C12.3934 19.0182 12.2448 19.3769 12.2448 19.7508H11.2856C11.2868 19.4414 11.3492 19.1352 11.469 18.85C11.5889 18.5647 11.7639 18.3059 11.9841 18.0884C12.2042 17.8709 12.4651 17.6991 12.7519 17.5827C13.0386 17.4663 13.3455 17.4077 13.6549 17.4103V18.3407Z" fill="white"/>
<defs>
<linearGradient id="paint0_linear_31089_110983" x1="6.40133e-06" y1="32" x2="32" y2="6.40133e-06" gradientUnits="userSpaceOnUse">
<stop stop-color="#2E2C2C"/>
<stop offset="1" stop-color="#00DBC1"/>
</linearGradient>
</defs>
</svg>
