<svg width="32" height="32" viewBox="0 0 32 32" fill="none" xmlns="http://www.w3.org/2000/svg">
<rect width="32" height="32" rx="10" fill="url(#paint0_linear_8970_60136)"/>
<path d="M16 23.3958C15.9194 23.3958 15.8228 23.3716 15.71 23.3233C15.6026 23.2803 15.5059 23.232 15.4199 23.1783C13.9053 22.2115 12.5921 21.1991 11.4804 20.141C10.3686 19.0776 9.50923 17.9873 8.90232 16.8701C8.30077 15.7476 8 14.6143 8 13.4703C8 12.756 8.11279 12.1034 8.33837 11.5126C8.56932 10.9164 8.88889 10.4008 9.29708 9.96578C9.70527 9.53073 10.1806 9.19505 10.7231 8.95873C11.2655 8.72241 11.8536 8.60425 12.4874 8.60425C13.2769 8.60425 13.9698 8.80566 14.566 9.20848C15.1621 9.6113 15.6401 10.143 16 10.8036C16.3652 10.1376 16.8459 9.60593 17.4421 9.20848C18.0383 8.80566 18.7284 8.60425 19.5126 8.60425C20.1464 8.60425 20.7345 8.72241 21.2769 8.95873C21.8248 9.19505 22.3001 9.53073 22.7029 9.96578C23.1111 10.4008 23.428 10.9164 23.6536 11.5126C23.8845 12.1034 24 12.756 24 13.4703C24 14.6143 23.6965 15.7476 23.0896 16.8701C22.4881 17.9873 21.6314 19.0776 20.5196 20.141C19.4132 21.1991 18.1027 22.2115 16.5881 23.1783C16.5022 23.232 16.4028 23.2803 16.29 23.3233C16.1826 23.3716 16.0859 23.3958 16 23.3958Z" fill="white"/>
<defs>
<linearGradient id="paint0_linear_8970_60136" x1="32" y1="0" x2="3.8147e-06" y2="32" gradientUnits="userSpaceOnUse">
<stop stop-color="#353DFF"/>
<stop offset="1" stop-color="#DB0010"/>
</linearGradient>
</defs>
</svg>
