<svg width="32" height="32" viewBox="0 0 32 32" fill="none" xmlns="http://www.w3.org/2000/svg">
<rect width="32" height="32" rx="10" fill="url(#paint0_linear_40403_57242)"/>
<path fill-rule="evenodd" clip-rule="evenodd" d="M13.714 8.7619C13.714 8.34112 14.0551 8 14.4759 8H17.5235C17.9443 8 18.2854 8.34112 18.2854 8.7619C18.2854 9.18269 17.9443 9.52381 17.5235 9.52381H16.7616V10.3276C18.0842 10.4738 19.2934 10.9961 20.2799 11.7852L20.7943 11.2708C21.0918 10.9732 21.5743 10.9732 21.8718 11.2708C22.1693 11.5683 22.1693 12.0507 21.8718 12.3483L21.3574 12.8627C22.2957 14.0358 22.8569 15.5238 22.8569 17.1429C22.8569 20.93 19.7868 24 15.9997 24C12.2126 24 9.14258 20.93 9.14258 17.1429C9.14258 13.6133 11.8093 10.7066 15.2378 10.3276V9.52381H14.4759C14.0551 9.52381 13.714 9.18269 13.714 8.7619ZM17.3004 13.5565C17.5979 13.854 17.5979 14.3365 17.3004 14.634L15.7622 16.1722L17.863 17.2226C18.0822 17.3323 18.2354 17.5405 18.2747 17.7824C18.314 18.0245 18.2347 18.2711 18.0613 18.4445L15.7766 20.7292C15.479 21.0267 14.9966 21.0267 14.6991 20.7292C14.4015 20.4317 14.4015 19.9493 14.6991 19.6517L16.2373 18.1135L14.1365 17.0631C13.9171 16.9534 13.7639 16.7449 13.7247 16.5029C13.6855 16.261 13.7648 16.0146 13.9382 15.8411L16.2229 13.5565C16.5204 13.2589 17.0028 13.2589 17.3004 13.5565Z" fill="white"/>
<defs>
<linearGradient id="paint0_linear_40403_57242" x1="0" y1="32" x2="32" y2="0" gradientUnits="userSpaceOnUse">
<stop stop-color="#B25600"/>
<stop offset="1" stop-color="#FFBF2A"/>
</linearGradient>
</defs>
</svg>
