<svg width="18" height="19" viewBox="0 0 18 19" fill="none" xmlns="http://www.w3.org/2000/svg">
<g clip-path="url(#clip0_9186_15867)">
<path d="M9 1.96055C11.4047 1.96055 11.6895 1.97109 12.6352 2.01328C13.5141 2.05195 13.9887 2.19961 14.3051 2.32266C14.7234 2.48438 15.0258 2.68125 15.3387 2.99414C15.6551 3.31055 15.8484 3.60938 16.0102 4.02773C16.1332 4.34414 16.2809 4.82227 16.3195 5.69766C16.3617 6.64687 16.3723 6.93164 16.3723 9.33281C16.3723 11.7375 16.3617 12.0223 16.3195 12.968C16.2809 13.8469 16.1332 14.3215 16.0102 14.6379C15.8484 15.0562 15.6516 15.3586 15.3387 15.6715C15.0223 15.9879 14.7234 16.1812 14.3051 16.343C13.9887 16.466 13.5105 16.6137 12.6352 16.6523C11.6859 16.6945 11.4012 16.7051 9 16.7051C6.59531 16.7051 6.31055 16.6945 5.36484 16.6523C4.48594 16.6137 4.01133 16.466 3.69492 16.343C3.27656 16.1812 2.97422 15.9844 2.66133 15.6715C2.34492 15.3551 2.15156 15.0562 1.98984 14.6379C1.8668 14.3215 1.71914 13.8434 1.68047 12.968C1.63828 12.0188 1.62773 11.734 1.62773 9.33281C1.62773 6.92812 1.63828 6.64336 1.68047 5.69766C1.71914 4.81875 1.8668 4.34414 1.98984 4.02773C2.15156 3.60938 2.34844 3.30703 2.66133 2.99414C2.97773 2.67773 3.27656 2.48438 3.69492 2.32266C4.01133 2.19961 4.48945 2.05195 5.36484 2.01328C6.31055 1.97109 6.59531 1.96055 9 1.96055ZM9 0.339844C6.55664 0.339844 6.25078 0.350391 5.29102 0.392578C4.33477 0.434766 3.67734 0.589453 3.10781 0.810937C2.51367 1.04297 2.01094 1.34883 1.51172 1.85156C1.00898 2.35078 0.703125 2.85352 0.471094 3.44414C0.249609 4.01719 0.0949219 4.67109 0.0527344 5.62734C0.0105469 6.59062 0 6.89648 0 9.33984C0 11.7832 0.0105469 12.0891 0.0527344 13.0488C0.0949219 14.0051 0.249609 14.6625 0.471094 15.232C0.703125 15.8262 1.00898 16.3289 1.51172 16.8281C2.01094 17.3273 2.51367 17.6367 3.1043 17.8652C3.67734 18.0867 4.33125 18.2414 5.2875 18.2836C6.24727 18.3258 6.55312 18.3363 8.99648 18.3363C11.4398 18.3363 11.7457 18.3258 12.7055 18.2836C13.6617 18.2414 14.3191 18.0867 14.8887 17.8652C15.4793 17.6367 15.982 17.3273 16.4813 16.8281C16.9805 16.3289 17.2898 15.8262 17.5184 15.2355C17.7398 14.6625 17.8945 14.0086 17.9367 13.0523C17.9789 12.0926 17.9895 11.7867 17.9895 9.34336C17.9895 6.9 17.9789 6.59414 17.9367 5.63437C17.8945 4.67812 17.7398 4.0207 17.5184 3.45117C17.2969 2.85352 16.991 2.35078 16.4883 1.85156C15.9891 1.35234 15.4863 1.04297 14.8957 0.814453C14.3227 0.592969 13.6688 0.438281 12.7125 0.396094C11.7492 0.350391 11.4434 0.339844 9 0.339844Z" fill="#D0D5DD"/>
<path d="M9 4.7168C6.44766 4.7168 4.37695 6.7875 4.37695 9.33984C4.37695 11.8922 6.44766 13.9629 9 13.9629C11.5523 13.9629 13.623 11.8922 13.623 9.33984C13.623 6.7875 11.5523 4.7168 9 4.7168ZM9 12.3387C7.34414 12.3387 6.00117 10.9957 6.00117 9.33984C6.00117 7.68398 7.34414 6.34102 9 6.34102C10.6559 6.34102 11.9988 7.68398 11.9988 9.33984C11.9988 10.9957 10.6559 12.3387 9 12.3387Z" fill="#D0D5DD"/>
<path d="M14.8852 4.53438C14.8852 5.13203 14.4 5.61367 13.8059 5.61367C13.2082 5.61367 12.7266 5.12852 12.7266 4.53438C12.7266 3.93672 13.2117 3.45508 13.8059 3.45508C14.4 3.45508 14.8852 3.94024 14.8852 4.53438Z" fill="#D0D5DD"/>
</g>
<defs>
<clipPath id="clip0_9186_15867">
<rect width="18" height="18" fill="white" transform="translate(0 0.339844)"/>
</clipPath>
</defs>
</svg>
