<?xml version="1.0" encoding="utf-8"?>
<!-- Generator: Adobe Illustrator 23.0.3, SVG Export Plug-In . SVG Version: 6.00 Build 0)  -->
<svg version="1.1" id="Layer_1" xmlns="http://www.w3.org/2000/svg" xmlns:xlink="http://www.w3.org/1999/xlink" x="0px" y="0px"
	 viewBox="0 0 120 50" enable-background="new 0 0 120 50" xml:space="preserve">
<g>
	<path fill-rule="evenodd" clip-rule="evenodd" fill="#FCAF17" d="M115,50H5c-2.8,0-5-2.2-5-5V5c0-2.8,2.2-5,5-5h110
		c2.8,0,5,2.2,5,5v40C120,47.8,117.8,50,115,50z"/>
	<g>
		<path fill-rule="evenodd" clip-rule="evenodd" fill="#FFFFFF" d="M110,10.3h-4.2V29h-2.2V10.3h-4.2V8.4H110V10.3z M97,10.3h-7.2v7
			h5.3v1.9h-5.3v7.9h7.6V29h-9.8V8.4H97V10.3z M80.6,11c-0.6-0.5-1.5-0.7-2.8-0.7h-2.2v7h1.3c1.6,0,2.8-0.3,3.5-0.9
			c0.8-0.6,1.1-1.5,1.1-2.9C81.4,12.3,81.1,11.5,80.6,11z M78.8,8.4c1.5,0,2.7,0.5,3.6,1.4c0.8,0.9,1.3,2.2,1.3,3.7
			c0,1.1-0.2,2-0.7,2.8c-0.5,0.8-1.3,1.4-2.4,1.8v0.1c1.2,0.3,2.2,1,2.7,1.9c0.6,0.9,0.9,2,0.9,3.3c0,1.9-0.5,3.4-1.6,4.3
			c-1.1,1-2.8,1.4-5,1.4h-4.2V8.4H78.8z M77.8,19.2h-2.2v8h2.2c1.3,0,2.4-0.3,3.1-0.9c0.7-0.6,1-1.6,1-2.9c0-1.4-0.3-2.4-1-3.1
			C80.2,19.5,79.2,19.2,77.8,19.2z M12.3,10.3c-0.4,0.3-0.5,0.8-0.5,1.3c0,0.6,0.2,1,0.5,1.3c0.4,0.3,0.8,0.5,1.3,0.5
			c0.5,0,0.9-0.2,1.3-0.5c0.4-0.3,0.5-0.8,0.5-1.3c0-0.6-0.2-1-0.5-1.3C14.4,10,14,9.9,13.5,9.9C13,9.9,12.6,10,12.3,10.3z
			 M13.5,8.1c0.9,0,1.7,0.3,2.4,0.9c0.3,0.2,0.5,0.5,0.7,1c0.2,0.4,0.3,1,0.4,1.6c0,0.7-0.1,1.2-0.4,1.6s-0.5,0.7-0.8,1
			c-0.7,0.6-1.5,0.9-2.4,0.9c-0.9,0-1.7-0.3-2.4-0.9c-0.3-0.2-0.5-0.5-0.7-1c-0.2-0.4-0.4-1-0.4-1.6c0-0.7,0.1-1.2,0.4-1.6
			c0.2-0.4,0.5-0.7,0.8-1C11.8,8.4,12.6,8.1,13.5,8.1z M14.6,16.8v12.3h-2.2V16.8h0c0.3,0.1,0.7,0.2,1.1,0.2
			C13.9,16.9,14.2,16.9,14.6,16.8z"/>
		<path fill-rule="evenodd" clip-rule="evenodd" fill="#4A5863" d="M70.9,10.3h-4.2V29h-2.2V10.3h-4.2V8.4h10.7V10.3z M57.5,10.3
			h-6.6v7h5v1.9h-5V29h-2.2V8.4h8.9V10.3z M63,36.2c0,0,0.1,0,0.1,0.1c0,0,0,0.1,0.1,0.1c0,0,0,0,0,0.1l-2,3.1v2.1
			c0,0.2-0.1,0.3-0.3,0.3h-0.1c-0.2,0-0.2-0.1-0.2-0.3v-2.1l-2-3.1c0,0,0,0,0-0.1c0,0,0-0.1,0.1-0.1c0,0,0.1-0.1,0.1-0.1
			c0,0,0.1,0,0.2,0c0.1,0,0.2,0.1,0.3,0.2l1.6,2.6l1.6-2.6c0.1-0.1,0.2-0.2,0.3-0.2C62.9,36.2,62.9,36.2,63,36.2z M71.1,37.9
			c0,0.6-0.2,1-0.5,1.3c-0.4,0.3-0.9,0.4-1.6,0.4h-1.1v1.9c0,0.1,0,0.1-0.1,0.2c0,0-0.1,0.1-0.2,0.1h-0.1c-0.2,0-0.3-0.1-0.3-0.3v-5
			c0-0.1,0-0.2,0.1-0.2c0.1-0.1,0.1-0.1,0.2-0.1H69c0.7,0,1.2,0.1,1.5,0.4C70.9,36.9,71.1,37.3,71.1,37.9z M67.8,36.7v2.4H69
			c0.5,0,0.9-0.1,1.1-0.3c0.2-0.2,0.4-0.5,0.4-0.9c0-0.8-0.5-1.2-1.5-1.2H67.8z M54,36.2c0.2,0,0.3,0.1,0.3,0.3v4.8H57
			c0.2,0,0.3,0.1,0.3,0.2v0.1c0,0.2-0.1,0.2-0.3,0.2h-3c-0.1,0-0.2,0-0.2-0.1c-0.1-0.1-0.1-0.1-0.1-0.2v-5
			C53.7,36.2,53.8,36.2,54,36.2L54,36.2z M51.8,37.9c0,0.6-0.2,1-0.5,1.3c-0.4,0.3-0.9,0.4-1.6,0.4h-1.1v1.9c0,0.1,0,0.1-0.1,0.2
			c0,0-0.1,0.1-0.2,0.1h-0.1c-0.2,0-0.3-0.1-0.3-0.3v-5c0-0.1,0-0.2,0.1-0.2c0.1-0.1,0.1-0.1,0.2-0.1h1.4c0.7,0,1.2,0.1,1.5,0.4
			C51.7,36.9,51.8,37.3,51.8,37.9z M51.2,37.9c0-0.8-0.5-1.2-1.5-1.2h-1.2v2.4h1.2c0.5,0,0.9-0.1,1.1-0.3
			C51.1,38.6,51.2,38.3,51.2,37.9z M84.1,36.3c0,0,0.1-0.1,0.1-0.1c0,0,0.1,0,0.2,0c0.1,0,0.2,0.1,0.3,0.2l1.6,2.6l1.6-2.6
			c0.1-0.1,0.2-0.2,0.3-0.2c0.1,0,0.1,0,0.2,0c0,0,0.1,0,0.1,0.1c0,0,0,0.1,0.1,0.1c0,0,0,0,0,0.1l-2,3.1v2.1c0,0.2-0.1,0.3-0.3,0.3
			h-0.1c-0.2,0-0.2-0.1-0.2-0.3v-2.1l-2-3.1C84,36.4,84,36.4,84.1,36.3C84,36.3,84,36.3,84.1,36.3z M73.2,36.2
			c0.2,0,0.3,0.1,0.3,0.3v4.8h2.7c0.2,0,0.3,0.1,0.3,0.2v0.1c0,0.2-0.1,0.2-0.3,0.2h-3c-0.1,0-0.2,0-0.2-0.1
			c-0.1-0.1-0.1-0.1-0.1-0.2v-5C72.9,36.2,73,36.2,73.2,36.2L73.2,36.2z M80.7,36.4l2,5.3c0,0,0,0.1-0.1,0.1c-0.1,0-0.2,0.1-0.2,0.1
			c-0.1,0-0.1,0-0.2,0c-0.1,0-0.1-0.1-0.2-0.2L81.5,40h-2.4l-0.6,1.6c0,0.1-0.1,0.2-0.2,0.2c-0.1,0-0.1,0-0.2,0
			c-0.1,0-0.2,0-0.2-0.1c-0.1,0-0.1-0.1-0.1-0.1l2-5.3c0-0.1,0.1-0.1,0.1-0.2c0.1,0,0.2-0.1,0.3-0.1c0.1,0,0.2,0,0.3,0.1
			C80.7,36.2,80.7,36.3,80.7,36.4z M80.3,36.8l-1,2.6h2L80.3,36.8z M41.1,10.7C40.6,10.2,40,10,39.3,10c-0.7,0-1.3,0.2-1.8,0.7
			c-0.5,0.5-1,1.4-1.3,2.6c-0.3,1.3-0.5,3.1-0.5,5.4c0,2.3,0.2,4.1,0.5,5.4c0.3,1.3,0.7,2.2,1.3,2.7c0.5,0.5,1.1,0.7,1.8,0.7
			c0.7,0,1.3-0.2,1.8-0.7c0.5-0.5,1-1.4,1.3-2.7c0.3-1.3,0.5-3.1,0.5-5.4c0-2.3-0.2-4.1-0.5-5.4C42.1,12.1,41.6,11.2,41.1,10.7z
			 M44.4,12.6c0.5,1.6,0.7,3.6,0.7,6.2c0,2.5-0.3,4.6-0.7,6.2c-0.5,1.6-1.2,2.7-2,3.4c-0.9,0.7-1.9,1-3.1,1c-1.2,0-2.2-0.3-3.1-1
			c-0.9-0.7-1.6-1.9-2-3.4c-0.5-1.6-0.7-3.6-0.7-6.2c0-2.6,0.3-4.6,0.7-6.2c0.5-1.6,1.2-2.7,2-3.4c0.9-0.7,1.9-1.1,3.1-1
			c1.2,0,2.2,0.3,3.1,1C43.2,9.9,43.9,11,44.4,12.6z M30.3,24.1c0,1.7-0.5,2.9-1.4,3.9c-0.9,0.9-2.2,1.4-3.9,1.4
			c-1.1,0-2-0.2-2.8-0.7c-0.8-0.5-1.4-1.2-1.8-2c-0.4-0.9-0.7-1.9-0.7-3.1h2.1c0,1.2,0.3,2.2,0.9,2.9c0.6,0.7,1.4,1,2.5,1.1
			c0.9,0,1.7-0.3,2.2-0.9c0.5-0.6,0.8-1.4,0.8-2.5c0-0.9-0.3-1.7-0.9-2.4c-0.6-0.7-1.2-1.3-2.1-1.9c-0.8-0.6-1.6-1.1-2.5-1.8
			c-0.8-0.6-1.5-1.3-2.1-2.1c-0.5-0.8-0.8-1.8-0.9-3c0-1.5,0.5-2.6,1.4-3.5c0.9-0.9,2.1-1.3,3.6-1.3c1.5,0,2.7,0.5,3.6,1.4
			c0.9,1,1.4,2.4,1.5,4.2H28c-0.1-1.1-0.4-2-0.9-2.7c-0.5-0.7-1.3-1-2.3-1.1c-0.9,0-1.6,0.3-2.1,0.8c-0.5,0.5-0.8,1.1-0.8,1.9
			c0,0.9,0.3,1.7,0.9,2.3c0.6,0.6,1.2,1.2,2.1,1.8c0.8,0.5,1.6,1.1,2.5,1.7c0.8,0.6,1.5,1.4,2.1,2.2C30,21.7,30.3,22.8,30.3,24.1z
			 M45.2,36.2h0.1c0.1,0,0.2,0,0.3,0.1c0.1,0.1,0.1,0.2,0.1,0.3v5c0,0.2-0.1,0.3-0.2,0.3h-0.1c-0.2,0-0.2-0.1-0.2-0.3v-4.7L43.7,40
			c-0.1,0.1-0.1,0.2-0.2,0.3c-0.1,0.1-0.2,0.1-0.3,0.1c-0.1,0-0.3,0-0.3-0.1c-0.1-0.1-0.1-0.2-0.2-0.3l-1.5-3.2v4.7
			c0,0.2-0.1,0.3-0.2,0.3h-0.1c-0.2,0-0.2-0.1-0.2-0.3v-5c0-0.1,0-0.2,0.1-0.3c0.1-0.1,0.2-0.1,0.3-0.1h0.1c0.2,0,0.3,0,0.3,0.1
			c0.1,0.1,0.1,0.2,0.2,0.3l1.5,3.3l1.5-3.3c0.1-0.2,0.1-0.3,0.2-0.3C45,36.2,45.1,36.2,45.2,36.2z M34.5,36.2
			c0.2,0.1,0.4,0.1,0.6,0.2c0.2,0.1,0.3,0.2,0.4,0.3c0.1,0.1,0.1,0.2,0.1,0.3c0,0.1,0,0.1-0.1,0.2c0,0-0.1,0.1-0.1,0.1
			c0,0-0.1,0.1-0.1,0.1c0,0-0.1,0-0.1,0c-0.1-0.2-0.3-0.4-0.6-0.6c-0.3-0.2-0.6-0.2-0.9-0.2c-0.4,0-0.7,0.1-1,0.3
			c-0.2,0.2-0.4,0.4-0.4,0.7c0,0.2,0,0.3,0.1,0.4c0.1,0.1,0.2,0.2,0.3,0.3c0.1,0.1,0.3,0.1,0.5,0.2c0.2,0,0.4,0.1,0.6,0.1
			c0.2,0,0.5,0.1,0.7,0.2c0.2,0.1,0.4,0.2,0.6,0.3c0.2,0.1,0.3,0.3,0.4,0.5c0.1,0.2,0.2,0.4,0.2,0.7c0,0.2,0,0.5-0.1,0.7
			c-0.1,0.2-0.2,0.4-0.4,0.5c-0.2,0.1-0.4,0.2-0.6,0.3c-0.2,0.1-0.5,0.1-0.8,0.1c-0.3,0-0.6,0-0.8-0.1c-0.3-0.1-0.5-0.2-0.7-0.3
			c-0.2-0.1-0.3-0.2-0.4-0.4c-0.1-0.1-0.2-0.2-0.2-0.3c0-0.1,0-0.1,0.1-0.2c0,0,0.1-0.1,0.1-0.1c0,0,0.1-0.1,0.1-0.1
			c0,0,0.1,0,0.1,0c0.2,0.2,0.4,0.5,0.7,0.7c0.3,0.2,0.6,0.3,1,0.3c0.4,0,0.8-0.1,1-0.3c0.2-0.2,0.4-0.4,0.4-0.8
			c0-0.2,0-0.3-0.1-0.5c-0.1-0.1-0.2-0.2-0.3-0.3c-0.1-0.1-0.3-0.2-0.5-0.2c-0.2,0-0.4-0.1-0.6-0.1c-0.2-0.1-0.4-0.1-0.6-0.2
			c-0.2-0.1-0.4-0.2-0.5-0.3c-0.2-0.1-0.3-0.3-0.4-0.4c-0.1-0.2-0.2-0.4-0.2-0.7c0-0.2,0-0.4,0.1-0.6c0.1-0.2,0.2-0.3,0.4-0.5
			c0.2-0.1,0.4-0.2,0.6-0.3c0.2-0.1,0.5-0.1,0.7-0.1C34.1,36.1,34.3,36.1,34.5,36.2z M38.3,36.4v5.1c0,0.2-0.1,0.3-0.3,0.3H38
			c-0.2,0-0.2-0.1-0.2-0.3v-5.1c0-0.2,0.1-0.3,0.2-0.3h0.1C38.3,36.2,38.3,36.2,38.3,36.4z"/>
	</g>
</g>
</svg>
