<svg width="57" height="37" viewBox="0 0 57 37" fill="none" xmlns="http://www.w3.org/2000/svg">
<rect x="0.417969" y="0.339844" width="55.8806" height="36" rx="8" fill="white"/>
<path fill-rule="evenodd" clip-rule="evenodd" d="M28.0856 25.1898C26.532 26.5305 24.5168 27.3398 22.3147 27.3398C17.4012 27.3398 13.418 23.3104 13.418 18.3398C13.418 13.3693 17.4012 9.33984 22.3147 9.33984C24.5168 9.33984 26.532 10.1492 28.0856 11.4899C29.6391 10.1492 31.6544 9.33984 33.8565 9.33984C38.77 9.33984 42.7532 13.3693 42.7532 18.3398C42.7532 23.3104 38.77 27.3398 33.8565 27.3398C31.6544 27.3398 29.6391 26.5305 28.0856 25.1898Z" fill="#00A3E6"/>
<path fill-rule="evenodd" clip-rule="evenodd" d="M28.0854 25.1898C29.9983 23.5391 31.2113 21.0827 31.2113 18.3398C31.2113 15.5969 29.9983 13.1406 28.0854 11.4899C29.639 10.1492 31.6542 9.33984 33.8563 9.33984C38.7699 9.33984 42.7531 13.3693 42.7531 18.3398C42.7531 23.3104 38.7699 27.3398 33.8563 27.3398C31.6542 27.3398 29.639 26.5305 28.0854 25.1898Z" fill="#EC0014"/>
<path fill-rule="evenodd" clip-rule="evenodd" d="M28.0858 25.1902C29.9987 23.5394 31.2116 21.0831 31.2116 18.3402C31.2116 15.5973 29.9987 13.141 28.0858 11.4902C26.1729 13.141 24.96 15.5973 24.96 18.3402C24.96 21.0831 26.1729 23.5394 28.0858 25.1902Z" fill="#7476D0"/>
</svg>
