<svg width="28" height="28" viewBox="0 0 28 28" fill="none" xmlns="http://www.w3.org/2000/svg">
<rect x="0.5" y="0.5" width="27" height="27" rx="5.5" fill="black"/>
<rect x="0.5" y="0.5" width="27" height="27" rx="5.5" stroke="#A6A6A6"/>
<path d="M18.2877 14.4768C18.2955 13.9015 18.4555 13.3374 18.753 12.8371C19.0505 12.3367 19.4757 11.9163 19.9891 11.615C19.6629 11.1703 19.2327 10.8044 18.7325 10.5462C18.2323 10.2881 17.6759 10.1448 17.1076 10.1279C15.8952 10.0064 14.7199 10.8204 14.1021 10.8204C13.4724 10.8204 12.5212 10.1399 11.4969 10.16C10.8344 10.1805 10.1887 10.3644 9.62278 10.6939C9.05685 11.0234 8.58997 11.4872 8.26764 12.0402C6.8714 14.348 7.91287 17.7398 9.25038 19.6053C9.91957 20.5188 10.7016 21.5392 11.725 21.503C12.7264 21.4633 13.1004 20.8934 14.3092 20.8934C15.5068 20.8934 15.8576 21.503 16.9018 21.48C17.9763 21.4633 18.6533 20.5625 19.2991 19.6403C19.7799 18.9894 20.1498 18.2701 20.3953 17.5089C19.771 17.2568 19.2383 16.8348 18.8635 16.2956C18.4887 15.7565 18.2884 15.1239 18.2877 14.4768Z" fill="white"/>
<path d="M16.3156 8.90099C16.9015 8.22953 17.1901 7.36648 17.1202 6.49512C16.2251 6.58487 15.3983 6.99328 14.8045 7.63898C14.5142 7.95442 14.2918 8.3214 14.1501 8.71893C14.0084 9.11646 13.9502 9.53675 13.9788 9.95578C14.4265 9.96018 14.8694 9.86753 15.2742 9.68483C15.679 9.50212 16.035 9.23411 16.3156 8.90099Z" fill="white"/>
</svg>
