<svg width="57" height="37" viewBox="0 0 57 37" fill="none" xmlns="http://www.w3.org/2000/svg">
<rect x="0.582031" y="0.339844" width="55.8806" height="36" rx="8" fill="white"/>
<path d="M28.2863 14.5236C28.7449 14.0424 29.1999 13.5575 29.6656 13.0835C29.8029 12.9437 30.0023 12.9867 30.1791 12.9867C32.2677 12.9867 34.3551 13.0023 36.4437 12.976C36.9189 12.97 37.0013 13.1444 36.9894 13.5647C36.9524 14.8592 37.1207 14.6335 35.9254 14.6526C35.3486 14.6621 34.7694 14.6848 34.1962 14.6454C33.6935 14.6108 33.6672 14.8723 33.6684 15.2616C33.6792 17.8661 33.6565 20.4705 33.6851 23.075C33.6911 23.6136 33.5383 23.7521 33.0152 23.727C31.9787 23.6769 31.9763 23.7067 31.9751 22.6762C31.9751 20.1911 31.9644 17.7061 31.9847 15.221C31.9882 14.7768 31.8652 14.6323 31.4162 14.6454C30.4036 14.6753 29.3897 14.655 28.3771 14.655L28.2875 14.526L28.2863 14.5236Z" fill="#2969AE"/>
<path d="M28.1992 12.9843C26.6933 14.5725 25.3308 16.0449 23.9217 17.472C23.4834 17.9162 23.4631 18.1968 23.8775 18.6805C25.1457 20.1588 26.3554 21.6862 27.583 23.2004C27.6869 23.3281 27.9114 23.4404 27.8039 23.641C27.7179 23.8034 27.5125 23.6852 27.3632 23.7126C26.2467 23.9121 25.498 23.4881 24.8376 22.5412C23.8393 21.1094 22.6809 19.7886 21.5728 18.4333C21.3435 18.1526 21.3065 17.9854 21.5847 17.6941C22.9711 16.242 24.3313 14.766 25.6938 13.2912C25.898 13.0703 26.1189 12.9664 26.4258 12.9783C26.9572 12.9986 27.491 12.9843 28.198 12.9843H28.1992Z" fill="#2969AE"/>
<path d="M17.9377 18.2159C17.9545 19.5164 17.7717 20.6795 17.1747 21.7542C16.4641 23.0344 15.3357 23.684 13.9325 23.93C13.6602 23.9778 13.5074 23.9002 13.5241 23.5968C13.5325 23.438 13.5432 23.2768 13.5217 23.1204C13.456 22.6343 13.6017 22.3931 14.1415 22.2868C15.0861 22.1006 15.639 21.4055 15.9184 20.5302C16.3961 19.0316 16.408 17.5209 15.8503 16.0318C15.5231 15.1577 14.9201 14.5391 13.9946 14.3492C13.5695 14.2621 13.4811 14.0698 13.5205 13.7044C13.5361 13.5671 13.5396 13.425 13.5217 13.2876C13.4572 12.7992 13.6328 12.6655 14.1272 12.7562C16.242 13.1443 17.5389 14.5224 17.8338 16.7638C17.9007 17.2749 17.9736 17.7884 17.9365 18.2148L17.9377 18.2159Z" fill="#2969AE"/>
<path d="M46.7767 18.1204C46.7815 19.7576 46.5427 21.1237 45.6351 22.306C44.9162 23.2434 43.949 23.721 42.8073 23.9145C42.5255 23.9623 42.3858 23.8966 42.4049 23.5921C42.4133 23.4536 42.4192 23.3126 42.4025 23.1753C42.3464 22.6953 42.4312 22.4158 43.0127 22.2713C44.3765 21.9334 44.7956 20.7894 44.9927 19.5689C45.1586 18.5444 45.1371 17.509 44.8505 16.4964C44.5365 15.3882 43.9167 14.5618 42.7273 14.3242C42.3297 14.2442 42.4133 13.9827 42.4073 13.7426C42.381 12.5927 42.3858 12.5855 43.4928 12.8721C45.1168 13.2924 46.0459 14.3982 46.4925 15.9614C46.7122 16.7304 46.8114 17.5174 46.7779 18.1216L46.7767 18.1204Z" fill="#2969AE"/>
<path d="M12.8984 13.6351C13.0238 14.0615 12.8088 14.2692 12.3085 14.4173C11.0044 14.8018 10.553 15.9017 10.3369 17.091C10.159 18.0691 10.1673 19.0674 10.4205 20.0478C10.7202 21.2049 11.3352 22.0767 12.5676 22.3477C12.9461 22.4313 12.8972 22.669 12.9008 22.9257C12.9187 24.0972 12.89 24.1115 11.7532 23.7748C10.3787 23.3687 9.40903 22.5066 8.95286 21.1572C8.1874 18.8859 8.24353 16.66 9.5786 14.5845C10.1494 13.6984 10.9961 13.1551 12.0099 12.8757C12.89 12.6332 12.9008 12.6452 12.8984 13.6339V13.6351Z" fill="#2969AE"/>
<path d="M41.7219 13.585C41.8628 14.0483 41.6395 14.3074 41.0818 14.44C40.3617 14.6107 39.8721 15.1386 39.5915 15.7977C38.8714 17.4815 38.8368 19.1904 39.5724 20.8825C39.8506 21.5226 40.3187 22.0444 41.0125 22.2128C41.6096 22.3573 41.7875 22.6343 41.7398 23.2338C41.6777 24.0064 41.7266 24.0076 40.9791 23.8643C39.4506 23.5705 38.3663 22.7024 37.8277 21.2563C37.0276 19.108 37.0897 16.968 38.1919 14.9272C38.7759 13.8465 39.7228 13.173 40.911 12.8565C41.7207 12.6416 41.723 12.6499 41.7219 13.5874V13.585Z" fill="#2969AE"/>
<path d="M19.1271 18.3795C19.1271 16.7686 19.1426 15.1577 19.1164 13.5468C19.1092 13.1121 19.2035 12.9628 19.6681 12.9736C20.8025 13.001 20.8037 12.976 20.8037 14.1021C20.8037 17.0851 20.7918 20.0693 20.8133 23.0523C20.8169 23.5574 20.7154 23.7521 20.1625 23.7282C19.1247 23.6828 19.1247 23.7174 19.1259 22.6749C19.1271 21.2431 19.1259 19.8113 19.1259 18.3783L19.1271 18.3795Z" fill="#2969AE"/>
<path d="M49.1448 22.9197C49.1113 23.8154 49.3084 23.7043 48.1751 23.7139C47.4479 23.7198 47.4992 23.7115 47.4347 22.6737C47.387 21.888 47.8778 22.054 48.3041 22.0552C49.3024 22.0564 49.1161 21.9811 49.1436 22.9197H49.1448Z" fill="#2969AE"/>
</svg>
