<svg width="32" height="32" viewBox="0 0 32 32" fill="none" xmlns="http://www.w3.org/2000/svg">
<rect width="32" height="32" rx="10" fill="url(#paint0_linear_12779_23016)"/>
<path fill-rule="evenodd" clip-rule="evenodd" d="M8.38744 8.86442C8.62938 8.70425 8.93552 8.67607 9.20264 8.78939L23.4729 14.8434C23.785 14.9758 23.9909 15.2783 23.9997 15.6172C24.0085 15.9561 23.8185 16.2688 23.5137 16.4172L12.5588 21.7506C12.2907 21.8811 11.9744 21.8643 11.7216 21.7062C11.4688 21.5482 11.3153 21.2711 11.3153 20.973V15.6396C11.3153 15.162 11.7025 14.7748 12.1802 14.7748C12.6578 14.7748 13.045 15.162 13.045 15.6396V19.59L21.0482 15.6937L9.72973 10.892V22.4144C9.72973 22.892 9.34252 23.2793 8.86486 23.2793C8.38721 23.2793 8 22.892 8 22.4144V9.58557C8 9.29541 8.1455 9.02459 8.38744 8.86442Z" fill="white"/>
<defs>
<linearGradient id="paint0_linear_12779_23016" x1="0" y1="32" x2="32" y2="0" gradientUnits="userSpaceOnUse">
<stop stop-color="#6E0000"/>
<stop offset="1" stop-color="#DB0010"/>
</linearGradient>
</defs>
</svg>
