<svg width="32" height="32" viewBox="0 0 32 32" fill="none" xmlns="http://www.w3.org/2000/svg">
<rect width="32" height="32" rx="10" fill="url(#paint0_linear_12781_23030)"/>
<path d="M16.3331 13.7431H11.9403C11.9403 13.7431 11.9 13.7431 11.9 13.7834L10.4894 18.2166C10.4894 18.2569 10.4894 18.2569 10.5297 18.2569H12.6254C12.6254 18.2569 12.6657 18.2569 12.6657 18.2166L13.0284 16.9672C13.0284 16.9269 13.0284 16.9269 12.9881 16.9269H12.0612C12.0209 16.9269 12.0209 16.8866 12.0209 16.8866L12.5851 15.1134L12.6254 15.0731H15.8092C15.8495 15.0731 15.8495 15.1134 15.8495 15.1134L14.8823 18.2166C14.4793 19.4659 13.2702 20.5137 11.9806 20.5137H9.68341C8.43408 20.5137 7.70865 19.5062 8.11167 18.2166L9.56251 13.6625C9.96552 12.4132 11.2955 11.4863 12.5448 11.4863H16.9376C16.9779 11.4863 16.9779 11.5266 16.9779 11.5266L16.3331 13.7431Z" fill="white"/>
<path d="M22.2977 11.4863H20.202C18.9124 11.4863 17.5421 12.4535 17.1391 13.7431L15.7689 18.1763C15.3659 19.4659 16.051 20.5137 17.3406 20.5137H19.4363C20.7259 20.5137 22.1365 19.4659 22.5395 18.1763L23.8694 13.7431C24.3127 12.4535 23.5873 11.4863 22.2977 11.4863ZM20.2423 18.2569H18.1064C18.0661 18.2569 18.0661 18.2166 18.0661 18.2166L19.4766 13.7431L19.5169 13.7028H21.6529C21.6932 13.7028 21.6932 13.7431 21.6932 13.7431L20.2423 18.2569Z" fill="white"/>
<defs>
<linearGradient id="paint0_linear_12781_23030" x1="0" y1="32" x2="32" y2="0" gradientUnits="userSpaceOnUse">
<stop stop-color="#6E0000"/>
<stop offset="1" stop-color="#DB0010"/>
</linearGradient>
</defs>
</svg>
