<svg width="30" height="48" viewBox="0 0 30 48" fill="none" xmlns="http://www.w3.org/2000/svg">
<path d="M6.70159 45.4849V40.3078C6.70159 39.8956 6.36629 39.5603 5.95406 39.5603L3.97944 39.5597V47.4662H4.91313V46.308H5.87842C6.33226 46.308 6.70159 45.9389 6.70159 45.4849ZM5.76789 45.3744H4.91313V40.494H5.76789V45.3744Z" fill="white"/>
<path d="M11.2043 39.6015V47.4259H13.2791V45.9369L12.7237 46.4922H12.138V39.6015H11.2043Z" fill="white"/>
<path d="M9.51968 39.5602H8.30931C7.88508 39.5602 7.53991 39.9053 7.53991 40.3296V46.6611C7.53991 47.0853 7.88508 47.4305 8.30931 47.4305H9.51968C9.94392 47.4305 10.2891 47.0853 10.2891 46.6611V40.3296C10.2891 39.9053 9.94392 39.5602 9.51968 39.5602ZM9.35539 46.4968H8.47375V40.4939H9.35539V46.4968Z" fill="white"/>
<path d="M14.8815 39.6015H13.9478V47.4663H14.8815V39.6015Z" fill="white"/>
<path d="M21.2205 47.4615V40.2988C21.2205 39.8915 20.889 39.5602 20.4818 39.5602H18.5233V47.4615H19.457V46.287H20.2868V47.4615H21.2205ZM19.457 45.3534V40.4937H20.2868V45.3534H19.457Z" fill="white"/>
<path d="M17.6778 39.5622H16.7442V47.4663H17.6778V39.5622Z" fill="white"/>
<path d="M25.9913 39.6015H25.0576V47.4663H25.9913V39.6015Z" fill="white"/>
<path d="M24.3212 44.3579C24.3212 44.2963 24.3144 44.2272 24.3009 44.1524C24.2124 43.6584 23.908 43.2197 23.4657 42.9486L23.3668 42.888C23.2145 42.7946 23.0906 42.6795 22.9985 42.546C22.9922 42.5368 22.9873 42.5294 22.9836 42.5237L22.9726 42.5062V40.4941H23.8743L24.2512 40.8597L24.2497 39.5604H22.8768C22.4148 39.5604 22.039 39.9362 22.039 40.3982V42.5122C22.039 42.7667 22.1411 42.9473 22.2299 43.0762C22.3965 43.3177 22.6148 43.5221 22.8788 43.684L22.9777 43.7446C23.1838 43.8709 23.3275 44.0675 23.376 44.2874H23.3875V46.4924H22.4751L22.0586 46.0874V47.4261H22.8036V48H23.3528V47.4261H23.4835C23.9455 47.4261 24.3212 47.0502 24.3212 46.5883V44.3579Z" fill="white"/>
<path d="M28.7636 11.7735V10.8507C28.7636 10.2372 28.3942 9.68409 27.8275 9.44917L24.4724 8.05807C24.4724 8.05807 23.0594 7.35158 21.8557 8.63373L20.1429 10.6365C20.1429 10.6365 17.4336 9.65421 15.7328 6.95908L19.0036 6.61892L20.4428 7.10192L20.8734 6.5786L19.4484 6.06943L19.4746 5.7031L21.1351 6.29077L22.0483 5.28687L22.0459 4.00143L15.3796 1.34648L12.9985 0.482994L13.3627 2.45962C13.3627 2.45962 9.8211 3.85745 9.07357 8.25438H10.1344C10.1344 8.25438 9.99397 9.35837 10.2346 10.8835C10.3251 11.2548 10.4153 11.6244 10.5059 11.9957C10.6278 12.3801 10.6937 12.7893 10.6937 13.214C10.6937 14.1315 10.3866 14.9773 9.86971 15.6543H12.3282C12.2916 15.9171 11.9966 17.6003 10.3394 18.7755C10.1124 18.9584 9.27418 19.5424 7.25537 20.1053C6.53887 20.305 5.84511 20.7121 5.30191 21.2515C4.69865 21.8504 4.30172 22.5912 4.15388 23.3937L4.14673 23.4275C4.13958 23.4597 4.03706 23.9379 4.08267 24.6792C4.12571 25.3797 4.31388 26.4681 4.96589 27.6756C5.61533 28.8783 5.7433 30.5179 5.34623 32.5493C5.252 33.0316 5.1389 33.4768 5.02895 33.859L6.70488 32.691C7.15771 31.1912 7.26609 29.0151 6.31724 27.2335C6.12021 26.8635 5.9452 26.5239 5.84239 26.1965C5.55327 25.2759 5.49236 24.259 5.89544 23.3944C6.27621 22.5778 6.87918 22.166 7.44025 21.9615C7.45355 22.4036 7.46842 22.8382 7.47743 22.9074C7.47743 22.9074 7.60826 24.582 9.15207 25.4978C9.15207 25.4978 9.98939 25.995 9.98939 26.8846C9.98939 27.7743 9.59475 28.2429 9.59475 28.2429C9.59475 28.2429 8.15632 30.1883 8.11571 30.3124C8.0751 30.4365 7.42123 32.9584 9.30149 36.8663L9.28333 36.8875L8.96133 38.3062H12.305L10.1844 36.1196V31.567L14.9485 26.0922C14.9485 26.0922 15.7628 25.6563 16.7048 26.2058L13.1554 30.2863L18.8445 32.7039C18.8445 32.7039 19.3416 32.8347 19.1585 33.3318L18.4949 34.4922L20.86 35.3642C21.2465 34.7651 21.2806 34.004 20.9482 33.3732C20.7044 32.9106 20.3354 32.3946 19.7872 31.9889C18.4789 31.0208 17.003 29.7521 17.003 29.7521L19.5269 26.7931C19.5269 26.7931 20.3381 26.0343 20.0764 24.9615C20.0764 24.9615 19.7636 24.1764 18.9913 23.5143C18.286 22.9098 17.9738 22.5721 17.9738 22.5721C17.9738 22.5721 19.4972 21.2569 20.1275 18.9031L25.52 14.9624L25.5989 15.1188L27.0532 18.1251L26.5236 18.6757L27.5571 20.5663C27.5571 20.5663 28.5227 18.959 28.5291 18.9495C28.9062 18.4032 28.708 18.0381 28.522 17.6359L26.4441 13.1441C26.4441 13.1441 26.1852 12.8585 25.7008 12.8155C25.512 12.764 25.2878 12.7423 25.022 12.7683L21.7512 13.3178L21.6101 12.7886L23.8183 9.419C23.8183 9.419 26.6269 10.3819 27.0455 10.8267L26.2424 11.774H28.7638L28.7636 11.7735ZM24.1322 14.3117L24.2107 14.5733L20.1811 16.9021C20.1811 16.9021 19.0158 16.2161 17.969 16.0386C17.969 16.0386 17.9738 20.1631 13.8975 22.4793C13.8975 22.4793 14.1207 23.2796 14.0028 24.3577L13.9986 24.4096C13.9199 24.8814 13.7157 25.3264 13.4322 25.7089L10.9951 28.552C11.1852 28.1009 12.079 25.7237 10.4734 24.3072C10.4548 24.2909 10.4366 24.2745 10.4188 24.2582C9.23686 23.1808 9.50496 20.9186 10.9245 20.1819C11.2803 19.9973 11.9288 19.6013 12.4261 19.0888C13.9903 17.4764 14.013 14.4558 13.9933 13.6356H12.2238C12.2238 13.6356 12.264 12.5181 11.8116 11.0692C10.874 8.06722 11.3089 6.57845 12.7742 4.53748C12.7742 4.53748 13.5271 3.48669 14.4608 3.08633L14.3965 2.19667L21.071 4.72165V5.10113L20.8355 5.38896L19.086 4.69105C19.086 4.69105 18.1596 6.26603 16.5844 5.80276C15.1706 5.38696 14.9481 4.10681 14.9481 4.10681L14.6865 4.00215C14.6865 4.00215 13.8561 5.91415 14.9608 7.91308C15.5524 8.98318 15.9883 9.5158 16.6023 10.2529L16.0285 10.8985C16.0285 10.8985 19.5534 11.5643 20.129 15.0706L24.1325 14.3118L24.1322 14.3117Z" fill="#4C60A1"/>
<path d="M12.9985 0.482861L15.3796 1.34635L22.0459 4.0013L22.0483 5.28674L21.1351 6.29064L19.4746 5.70297L19.4484 6.06929L20.8734 6.57846L20.4428 7.10179L19.0036 6.61879L15.7328 6.95895C17.4336 9.65408 20.1429 10.6364 20.1429 10.6364L21.8557 8.63359C22.4284 8.02362 23.0484 7.86376 23.5411 7.86376C24.084 7.86376 24.4724 8.05793 24.4724 8.05793L27.8275 9.44904C28.3942 9.68396 28.7636 10.2372 28.7636 10.8506V11.7734H26.2422L27.0454 10.8261C26.6267 10.3813 23.8182 9.41844 23.8182 9.41844L21.6099 12.788L21.7511 13.3172L25.0219 12.7677C25.0984 12.7603 25.1716 12.7567 25.2413 12.7567C25.4139 12.7567 25.5662 12.7783 25.7006 12.8149C26.185 12.8579 26.444 13.1435 26.444 13.1435L28.5218 17.6354C28.7079 18.0377 28.906 18.4026 28.529 18.949C28.5224 18.9584 27.557 20.5657 27.557 20.5657L26.5235 18.6752L27.0531 18.1245L25.5988 15.1183L25.5199 14.9618L20.1273 18.9025C19.4971 21.2563 17.9737 22.5715 17.9737 22.5715C17.9737 22.5715 18.2858 22.9092 18.9912 23.5138C19.7634 24.1758 20.0763 24.9609 20.0763 24.9609C20.3379 26.0338 19.5268 26.7926 19.5268 26.7926L17.0028 29.7515C17.0028 29.7515 18.4787 31.0202 19.787 31.9884C20.3352 32.394 20.7043 32.9101 20.9481 33.3726C21.2805 34.0035 21.2463 34.7646 20.8598 35.3637L18.4947 34.4916L19.1583 33.3313C19.3415 32.8341 18.8443 32.7033 18.8443 32.7033L13.1552 30.2857L16.7047 26.2052C16.3405 25.9927 15.9955 25.9277 15.7092 25.9277C15.255 25.9277 14.9484 26.0917 14.9484 26.0917L10.1844 31.5664V36.1191L12.305 38.3056H8.96133L9.28333 36.8869L9.30149 36.8657C7.42123 32.9578 8.07496 30.4358 8.11571 30.3119C8.15632 30.1878 9.59475 28.2423 9.59475 28.2423C9.59475 28.2423 9.98939 27.7737 9.98939 26.8841C9.98939 25.9944 9.15207 25.4973 9.15207 25.4973C7.60826 24.5814 7.47743 22.9068 7.47743 22.9068C7.46842 22.8376 7.45355 22.4031 7.44025 21.961C6.87918 22.1656 6.27606 22.5772 5.89544 23.3938C5.49236 24.2584 5.55327 25.2754 5.84239 26.1959C5.9452 26.5233 6.12021 26.8629 6.31724 27.233C7.26595 29.0146 7.15757 31.1905 6.70488 32.6904L5.02895 33.8585C5.1389 33.4763 5.25186 33.0309 5.34623 32.5487C5.7433 30.5175 5.61533 28.8777 4.96589 27.6751C4.31373 26.4674 4.12557 25.379 4.08267 24.6787C4.0372 23.9373 4.13958 23.4592 4.14673 23.427L4.15388 23.3931C4.30172 22.5907 4.69865 21.8499 5.30191 21.2509C5.84511 20.7116 6.53873 20.3045 7.25537 20.1047C9.27432 19.5419 10.1124 18.9578 10.3394 18.775C11.9966 17.5998 12.2916 15.9165 12.3282 15.6537H9.86971C10.3865 14.9767 10.6937 14.1309 10.6937 13.2134C10.6937 12.7887 10.6278 12.3795 10.5059 11.9952C10.4153 11.6238 10.3251 11.2542 10.2346 10.8829C9.99411 9.35781 10.1344 8.25382 10.1344 8.25382H9.07357C9.8211 3.85688 13.3627 2.45906 13.3627 2.45906L12.9985 0.482432M12.2237 13.6352H13.9931C14.013 14.4554 13.9901 17.4759 12.426 19.0884C11.9288 19.601 11.2803 19.9969 10.9244 20.1815C9.50481 20.9182 9.23672 23.1803 10.4186 24.2577C10.4365 24.274 10.4548 24.2905 10.4733 24.3068C12.0787 25.7233 11.1849 28.1006 10.995 28.5516L13.432 25.7085C13.7156 25.326 13.9198 24.881 13.9984 24.4092L14.0027 24.3572C14.1207 23.2791 13.8973 22.4789 13.8973 22.4789C17.9738 20.1626 17.9688 16.0382 17.9688 16.0382C19.0156 16.2157 20.1809 16.9017 20.1809 16.9017L24.2106 14.5729L24.1321 14.3112L20.1286 15.0701C19.553 11.5638 16.0281 10.8979 16.0281 10.8979L16.6019 10.2523C15.9878 9.51524 15.5518 8.98262 14.9604 7.91252C13.8557 5.91373 14.686 4.00158 14.686 4.00158L14.9477 4.10625C14.9477 4.10625 15.1702 5.3864 16.584 5.8022C16.786 5.86154 16.9772 5.88742 17.1572 5.88742C18.3813 5.88742 19.0855 4.69034 19.0855 4.69034L20.8351 5.38826L21.0706 5.10043V4.72094L14.3961 2.19597L14.4604 3.08562C13.5267 3.48598 12.7737 4.53678 12.7737 4.53678C11.3084 6.57775 10.8738 8.06651 11.8112 11.0685C12.2636 12.5174 12.2234 13.6349 12.2234 13.6349M12.5897 0L13.009 2.27547C12.6669 2.44419 12.0006 2.81967 11.2857 3.4764C10.6942 4.01974 10.1901 4.64516 9.7875 5.33535C9.2849 6.19684 8.94045 7.16113 8.76358 8.20149L8.70109 8.56882H9.79307C9.76762 9.02308 9.75761 9.87785 9.9239 10.9324L9.92591 10.9452L9.92905 10.958L10.2002 12.0704L10.2027 12.0808L10.206 12.091C10.3208 12.453 10.3792 12.8308 10.3792 13.2141C10.3792 13.6281 10.3115 14.0346 10.1781 14.4221C10.0492 14.7967 9.86128 15.1471 9.61977 15.4636L9.234 15.969H11.9417C11.8881 16.1712 11.8 16.4383 11.6576 16.7379C11.5057 17.0573 11.3176 17.3584 11.0985 17.6328C10.831 17.9678 10.5144 18.2661 10.1577 18.519L10.1498 18.5246L10.1424 18.5306C9.94478 18.6897 9.14635 19.2517 7.17101 19.8023C6.40346 20.0162 5.66108 20.4516 5.08042 21.0283C4.43256 21.6717 4.00546 22.4684 3.84546 23.3326L3.8396 23.3602C3.82616 23.4207 3.72135 23.926 3.76882 24.6986C3.81372 25.4305 4.00989 26.5671 4.68921 27.8252C5.30305 28.9619 5.4203 30.5311 5.03767 32.489C4.95574 32.9083 4.85107 33.3402 4.72682 33.7721L4.48189 34.624L6.97469 32.8866L7.00629 32.7819C7.12911 32.3751 7.22148 31.943 7.28082 31.4976C7.34488 31.0165 7.36861 30.5316 7.35131 30.0565C7.3323 29.536 7.26381 29.0301 7.1477 28.5527C7.0203 28.0284 6.83442 27.5348 6.59521 27.0857C6.40375 26.7262 6.2376 26.4041 6.1428 26.1022C5.99867 25.6431 5.92518 25.1963 5.92432 24.7739C5.92332 24.3141 6.00968 23.8947 6.18098 23.5275C6.40161 23.0542 6.72375 22.6926 7.14155 22.4478C7.15514 22.8406 7.16157 22.9122 7.16515 22.9414C7.17172 23.0115 7.21962 23.4459 7.44668 23.9821C7.58895 24.3184 7.77326 24.6285 7.99432 24.9039C8.27142 25.2492 8.60687 25.54 8.99121 25.7682C9.00093 25.7742 9.17723 25.8842 9.34796 26.0804C9.56515 26.33 9.6754 26.6007 9.6754 26.8849C9.6754 27.1998 9.62135 27.4901 9.51454 27.7477C9.43947 27.929 9.36312 28.0297 9.35368 28.0417L9.3461 28.0504L9.34238 28.0561C9.33881 28.061 8.97777 28.5493 8.61659 29.0465C7.8582 30.0902 7.83832 30.1507 7.8173 30.2148C7.79585 30.2804 7.74524 30.4876 7.70763 30.8023C7.65687 31.2275 7.64572 31.6941 7.67475 32.1893C7.71421 32.863 7.82803 33.5698 8.01319 34.2899C8.23153 35.1396 8.55067 36.012 8.96218 36.8848L8.56798 38.6213H13.0488L10.4996 35.9927V31.6852L15.1416 26.3506C15.2299 26.3144 15.4384 26.2432 15.7098 26.2432C15.8728 26.2432 16.0335 26.2684 16.1908 26.3184L12.6345 30.4068L18.7478 33.0047L18.763 33.008C18.7928 33.0177 18.8578 33.0495 18.8776 33.0892C18.8922 33.1184 18.8824 33.1663 18.8712 33.2019L18.0377 34.6592L20.9881 35.747L21.1248 35.5353C21.5725 34.8414 21.6117 33.9568 21.227 33.2269C20.9039 32.6136 20.4826 32.1122 19.9748 31.7364C18.999 31.0144 17.9168 30.1131 17.4474 29.7168L19.757 27.0092C19.8148 26.9524 20.0099 26.748 20.1788 26.4262C20.4375 25.9337 20.508 25.4016 20.3826 24.8873L20.3773 24.8658L20.3691 24.8454C20.3552 24.8104 20.0182 23.9802 19.1965 23.2759C18.839 22.9694 18.5839 22.7324 18.4222 22.5761C18.5851 22.4075 18.8154 22.1497 19.068 21.8073C19.3451 21.4316 19.5933 21.0297 19.8059 20.6125C20.0547 20.1242 20.255 19.6134 20.4021 19.0927L25.4039 15.4375L26.6751 18.0653L26.1373 18.6244L27.5445 21.199L27.8271 20.7287C28.0813 20.3055 28.7372 19.2139 28.7934 19.1213C29.2498 18.4535 29.0177 17.9554 28.8313 17.5549C28.8234 17.538 28.8155 17.5213 28.8078 17.5043L26.7098 12.9688L26.6775 12.9332C26.643 12.8953 26.329 12.5657 25.7568 12.5053C25.5957 12.464 25.4226 12.4431 25.2418 12.4431C25.1607 12.4431 25.0765 12.4473 24.9917 12.4557L24.981 12.4567L24.9702 12.4586L21.9817 12.9606L21.9505 12.8438L23.9469 9.79763C24.2138 9.89215 24.6794 10.0604 25.1621 10.25C25.5931 10.4193 25.9527 10.572 26.2309 10.7042C26.3849 10.7772 26.4993 10.837 26.5843 10.885L25.5633 12.0891H29.0785V10.8517C29.0785 10.4883 28.9718 10.1365 28.7699 9.83424C28.568 9.53197 28.2839 9.29876 27.9482 9.15949L24.6008 7.77153C24.5226 7.73464 24.1025 7.55019 23.5414 7.55019C23.2185 7.55019 22.9055 7.61039 22.611 7.72921C22.2517 7.87405 21.9205 8.10626 21.6267 8.4194L21.6217 8.42469L21.617 8.43027L20.0521 10.26C19.7937 10.1471 19.3066 9.91331 18.7321 9.53569C18.2339 9.20825 17.7684 8.8382 17.3481 8.4357C16.9532 8.0575 16.5977 7.64971 16.2872 7.21875L18.9686 6.93993L20.5483 7.47012L21.219 6.65511L21.2275 6.65811L22.3635 5.40942L22.3603 3.78911L15.4963 1.05537L15.4917 1.05352L15.4872 1.0518L12.59 0.00114388L12.5897 0Z" fill="white"/>
<path d="M17.396 4.33031L17.4359 3.87247L16.0109 3.39819L16.074 4.21492L17.396 4.33031Z" fill="#4C60A1"/>
<path d="M8.80433 17.5529V16.5656C8.80433 16.5656 8.04879 16.9726 6.37572 17.3723C5.3867 17.6086 4.62387 18.0247 4.04521 18.449L4.04321 18.4448C0.594832 20.922 0.760265 25.5462 2.21428 28.3577C3.60238 31.0417 2.31695 33.8593 2.31695 33.8593L4.01961 32.6463C4.04135 32.5467 4.07667 32.4022 4.09668 32.2989C4.32646 31.1123 4.61372 29.8924 3.81743 28.3022C2.46637 25.6041 2.84299 23.419 2.90004 23.1646C3.09679 22.113 3.61454 21.1462 4.3981 20.3683C5.092 19.6792 5.98166 19.1582 6.90291 18.9014C7.77569 18.658 8.38967 18.4165 8.80419 18.222L8.8059 17.5523L8.80419 17.5529H8.80433Z" fill="#4C60A1"/>
<path d="M8.80433 16.5656V17.5529L8.80604 17.5523L8.80433 18.2221C8.38981 18.4165 7.77584 18.658 6.90305 18.9014C5.9818 19.1582 5.09215 19.6792 4.39824 20.3683C3.61468 21.1462 3.09693 22.113 2.90018 23.1646C2.84313 23.419 2.46651 25.6041 3.81758 28.3022C4.61386 29.8924 4.3266 31.1123 4.09683 32.2989C4.07681 32.4022 4.04149 32.5467 4.01976 32.6463L2.31709 33.8593C2.31709 33.8593 3.60253 31.0417 2.21443 28.3577C0.760408 25.5463 0.595117 20.922 4.04349 18.4448L4.04549 18.449C4.62416 18.0247 5.38698 17.6085 6.37601 17.3723C8.04894 16.9726 8.80462 16.5656 8.80462 16.5656M9.11918 16.0388L8.65577 16.2885C8.6399 16.2969 7.89537 16.686 6.30295 17.0664C5.5384 17.249 4.82362 17.5555 4.17304 17.9787L4.16803 17.9681L3.8599 18.1895C3.0007 18.8067 2.31494 19.582 1.82164 20.4938C1.3761 21.3174 1.09228 22.2415 0.977889 23.2401C0.873796 24.1495 0.912402 25.0882 1.09285 26.0302C1.26057 26.9065 1.55183 27.7613 1.93489 28.5021C2.23401 29.0805 2.42533 29.7142 2.50354 30.386C2.56645 30.9269 2.55687 31.4937 2.4748 32.0707C2.33496 33.0543 2.03383 33.7222 2.03083 33.7288L1.54368 34.7966L4.30115 32.832L4.32703 32.7133C4.33447 32.6794 4.34362 32.6393 4.35348 32.5968C4.37236 32.515 4.3918 32.4305 4.40567 32.3587C4.4154 32.3088 4.42512 32.2588 4.43484 32.2087C4.54852 31.6272 4.66605 31.0258 4.6559 30.3642C4.64432 29.6073 4.46201 28.8867 4.09883 28.1614C3.7987 27.5618 3.56378 26.9416 3.40063 26.3174C3.26794 25.8098 3.18186 25.2972 3.14469 24.7939C3.07434 23.8408 3.20174 23.258 3.20731 23.2335L3.2086 23.2281L3.2096 23.2225C3.39448 22.2339 3.88221 21.3243 4.62015 20.5916C5.2766 19.9397 6.11749 19.4471 6.98784 19.2045C7.74624 18.993 8.40254 18.7584 8.93816 18.507L9.11861 18.4224L9.12204 17.1108L9.11918 17.1118V16.0388Z" fill="white"/>
</svg>
