<?xml version="1.0" encoding="UTF-8"?>
<svg id="Layer_1" xmlns="http://www.w3.org/2000/svg" version="1.1" viewBox="0 0 120 50">
  <!-- Generator: Adobe Illustrator 29.5.1, SVG Export Plug-In . SVG Version: 2.1.0 Build 141)  -->
  <path d="M115,50H5c-2.8,0-5-2.2-5-5V5C0,2.2,2.2,0,5,0h110c2.8,0,5,2.2,5,5v40c0,2.8-2.2,5-5,5Z" fill="#fff" fill-rule="evenodd"/>
  <path d="M25.6,26.2c-1,.9-2.5,1.3-4.4,1.3h-3.7v6.3h-3.7v-17.7h7.6c1.7,0,3.1.5,4.2,1.4,1,.9,1.6,2.3,1.6,4.2s-.5,3.6-1.6,4.4h0ZM22.8,19.8c-.5-.4-1.1-.6-2-.6h-3.3v5.2h3.3c.8,0,1.5-.2,2-.6s.7-1.1.7-2-.2-1.6-.7-2Z"/>
  <path d="M43.7,32.3c-1.3,1.4-3.3,2.1-5.8,2.1s-4.5-.7-5.8-2.1c-1.8-1.7-2.7-4.1-2.7-7.3s.9-5.7,2.7-7.3c1.3-1.4,3.3-2.1,5.8-2.1s4.5.7,5.8,2.1c1.8,1.6,2.7,4,2.7,7.3s-.9,5.6-2.7,7.3ZM41.4,29.6c.9-1.1,1.3-2.6,1.3-4.6s-.4-3.5-1.3-4.6c-.9-1.1-2-1.6-3.5-1.6s-2.6.5-3.5,1.6-1.3,2.6-1.3,4.6.4,3.5,1.3,4.6c.9,1.1,2,1.6,3.5,1.6s2.6-.5,3.5-1.6Z"/>
  <path d="M61.1,26.2c-1,.9-2.5,1.3-4.4,1.3h-3.7v6.3h-3.7v-17.7h7.6c1.7,0,3.1.5,4.2,1.4,1,.9,1.6,2.3,1.6,4.2s-.5,3.6-1.6,4.4h0ZM58.3,19.8c-.5-.4-1.1-.6-2-.6h-3.3v5.2h3.3c.8,0,1.5-.2,2-.6s.7-1.1.7-2-.2-1.6-.7-2Z"/>
  <path d="M84.5,16.2h3.6v7.3l6.8-7.3h4.8l-7.2,7.3,7.6,10.4h-4.7l-5.4-7.7-1.8,1.8v5.9h-3.6v-17.7h-.1Z"/>
  <path d="M76.7,16.2c-.7,1-1.8,1.5-3.2,1.5s-2.5-.6-3.2-1.5h-4.7c1.3,3.1,4.3,5.2,7.9,5.2s6.6-2.2,7.9-5.2h-4.7Z" fill="#faa31b"/>
  <path d="M65,33.9h4.2s0,0,0,0c0-2.8-.3-7.3,4.2-7.3s4.6,5.2,4.2,7.3c0,0,0,0,0,0h4.4s0,0,0,0c.6-6-2.3-11-8.6-11s-9,6.2-8.4,11c0,0,0,0,0,0Z" fill="#ee644a"/>
  <path d="M104.2,31.2v1.1h.4v-.7h1c0,.1,0,.3,0,.6,0,.8-.5,1.3-1.4,1.3s-1.4-.5-1.4-1.4,0-.6.1-.8h-.4c0,0-.2.4-.2.8,0,1.2.8,1.9,1.8,1.9.5,0,1-.2,1.3-.5.3-.3.5-.8.5-1.3s-.1-.9-.2-1.1h-1.7Z"/>
  <path d="M106,28.3v-.5l-3.4,1.2v.5l3.4,1.2v-.5l-1.1-.4v-1.2l1.1-.4ZM104.6,29.8l-1-.3c-.2,0-.4-.1-.6-.2h0c.2,0,.4-.1.6-.2l1-.3v1Z"/>
  <path d="M104.5,24.5h1.5v-.5l-3.4.2v.6l1.7.6c.4.2.8.3,1.2.4h0c-.4.1-.7.2-1.2.4l-1.7.6v.6l3.4.2v-.4h-1.5c-.5-.1-1.1-.1-1.5-.2h0c.4-.1.9-.2,1.3-.4l1.6-.6v-.3l-1.7-.6c-.5-.2-.9-.3-1.3-.4h0c.4,0,1,0,1.5,0Z"/>
  <rect x="102.6" y="22.8" width="3.4" height=".4"/>
  <path d="M106,19.9v-.5h-3.4v.4h1.4c.5,0,1,0,1.4,0h0c-.4.2-.7.4-1.1.6l-1.7,1.1v.5h3.4v-.4h-1.5c-.6,0-1,0-1.4,0h0c.4-.2.8-.4,1.2-.7l1.8-1.1Z"/>
  <path d="M104.3,18.9c.5,0,1-.2,1.3-.5.3-.3.5-.8.5-1.3s-.1-.9-.2-1.1h-1.7v1.1h.4v-.7h1c0,.1,0,.3,0,.6,0,.8-.5,1.3-1.4,1.3s-1.4-.5-1.4-1.4,0-.6.1-.8h-.4c0,0-.2.4-.2.8,0,1.2.8,1.9,1.8,1.9Z"/>
</svg>