<svg width="32" height="32" viewBox="0 0 32 32" fill="none" xmlns="http://www.w3.org/2000/svg">
<rect width="32" height="32" rx="10" fill="url(#paint0_linear_12779_23008)"/>
<path d="M15.8873 8.93763C15.5066 9.22729 15.206 9.60912 15.0138 10.0471C14.8224 10.4838 14.7462 10.9623 14.7924 11.4369C14.7924 11.4369 13.9621 9.30666 12.8796 8C12.7347 9.68441 13.2676 11.9129 13.2676 11.9129C13.0351 11.4922 12.699 11.1378 12.2912 10.8834C11.8819 10.6277 11.4145 10.4798 10.9326 10.4534C11.8942 11.0411 12.614 11.9532 12.9619 13.0251C13.7838 12.5245 14.7205 12.2437 15.6822 12.2094C15.3566 11.1294 15.4294 9.9685 15.8873 8.93763Z" fill="white"/>
<path fill-rule="evenodd" clip-rule="evenodd" d="M15.9998 24C19.0511 24 21.5246 21.5265 21.5246 18.4752C21.5246 15.424 19.0511 12.9505 15.9998 12.9505C12.9486 12.9505 10.4751 15.424 10.4751 18.4752C10.4751 21.5265 12.9486 24 15.9998 24ZM16.3874 15.1622C14.6547 15.2684 15.4407 17.5 17.3338 17.3813C19.2276 17.2625 18.2302 15.0467 16.3874 15.1622Z" fill="white"/>
<defs>
<linearGradient id="paint0_linear_12779_23008" x1="0" y1="32" x2="32" y2="0" gradientUnits="userSpaceOnUse">
<stop stop-color="#CC3E40"/>
<stop offset="1" stop-color="#FF7C02"/>
</linearGradient>
</defs>
</svg>
