<svg width="32" height="32" viewBox="0 0 32 32" fill="none" xmlns="http://www.w3.org/2000/svg">
<rect width="32" height="32" rx="10" fill="url(#paint0_linear_8970_60068)"/>
<path d="M10.9531 16.8862C10.9531 16.7429 11.0152 16.5901 11.1394 16.4277L17.6511 8.29693C17.7705 8.14411 17.8995 8.05098 18.038 8.01755C18.1813 7.98412 18.3078 7.99845 18.4177 8.06053C18.5323 8.11784 18.6111 8.21336 18.6541 8.34708C18.7018 8.4808 18.6899 8.6384 18.6182 8.81988L16.4835 14.6224H20.5309C20.6838 14.6224 20.8079 14.6702 20.9034 14.7657C20.999 14.8565 21.0467 14.9711 21.0467 15.1096C21.0467 15.2576 20.9846 15.4104 20.8605 15.568L14.3487 23.7059C14.2293 23.854 14.098 23.9447 13.9547 23.9782C13.8162 24.0164 13.6896 24.0044 13.575 23.9423C13.4652 23.885 13.3864 23.7895 13.3386 23.6558C13.2956 23.5221 13.31 23.3621 13.3816 23.1758L15.5164 17.3733H11.4689C11.3161 17.3733 11.1919 17.3279 11.0964 17.2372C11.0009 17.1417 10.9531 17.0246 10.9531 16.8862Z" fill="white"/>
<defs>
<linearGradient id="paint0_linear_8970_60068" x1="9.60199e-06" y1="32" x2="32" y2="3.87994e-06" gradientUnits="userSpaceOnUse">
<stop stop-color="#00705C"/>
<stop offset="1" stop-color="#88DB00"/>
</linearGradient>
</defs>
</svg>
