<?xml version="1.0" encoding="utf-8"?>
<!-- Generator: Adobe Illustrator 27.3.1, SVG Export Plug-In . SVG Version: 6.00 Build 0)  -->
<svg version="1.1" id="Layer_1" xmlns="http://www.w3.org/2000/svg" xmlns:xlink="http://www.w3.org/1999/xlink" x="0px" y="0px"
	 viewBox="0 0 120 50" style="enable-background:new 0 0 120 50;" xml:space="preserve">
<style type="text/css">
	.st0{fill-rule:evenodd;clip-rule:evenodd;fill:#7B3A8E;}
	.st1{display:none;}
	.st2{display:inline;fill-rule:evenodd;clip-rule:evenodd;fill:#FFFFFF;}
	.st3{display:inline;fill-rule:evenodd;clip-rule:evenodd;fill:#4A5863;}
	.st4{display:inline;}
	.st5{fill:#FFFFFF;}
</style>
<path class="st0" d="M115,50H5c-2.8,0-5-2.2-5-5V5c0-2.8,2.2-5,5-5h110c2.8,0,5,2.2,5,5v40C120,47.8,117.8,50,115,50z"/>
<g class="st1">
	<path class="st2" d="M110,10.3h-4.2V29h-2.2V10.3h-4.2V8.4H110V10.3z M97,10.3h-7.2v7h5.3v1.9h-5.3v7.9h7.6V29h-9.8V8.4H97V10.3z
		 M80.6,11c-0.6-0.5-1.5-0.7-2.8-0.7h-2.2v7h1.3c1.6,0,2.8-0.3,3.5-0.9c0.8-0.6,1.1-1.5,1.1-2.9C81.4,12.3,81.1,11.5,80.6,11z
		 M78.8,8.4c1.5,0,2.7,0.5,3.6,1.4c0.8,0.9,1.3,2.2,1.3,3.7c0,1.1-0.2,2-0.7,2.8c-0.5,0.8-1.3,1.4-2.4,1.8v0.1
		c1.2,0.3,2.2,1,2.7,1.9c0.6,0.9,0.9,2,0.9,3.3c0,1.9-0.5,3.4-1.6,4.3c-1.1,1-2.8,1.4-5,1.4h-4.2V8.4H78.8z M77.8,19.2h-2.2v8h2.2
		c1.3,0,2.4-0.3,3.1-0.9s1-1.6,1-2.9c0-1.4-0.3-2.4-1-3.1C80.2,19.5,79.2,19.2,77.8,19.2z M12.3,10.3c-0.4,0.3-0.5,0.8-0.5,1.3
		c0,0.6,0.2,1,0.5,1.3c0.4,0.3,0.8,0.5,1.3,0.5s0.9-0.2,1.3-0.5c0.4-0.3,0.5-0.8,0.5-1.3c0-0.6-0.2-1-0.5-1.3
		C14.4,10,14,9.9,13.5,9.9S12.6,10,12.3,10.3z M13.5,8.1c0.9,0,1.7,0.3,2.4,0.9c0.3,0.2,0.5,0.5,0.7,1c0.2,0.4,0.3,1,0.4,1.6
		c0,0.7-0.1,1.2-0.4,1.6s-0.5,0.7-0.8,1c-0.7,0.6-1.5,0.9-2.4,0.9c-0.9,0-1.7-0.3-2.4-0.9c-0.3-0.2-0.5-0.5-0.7-1
		c-0.2-0.4-0.4-1-0.4-1.6c0-0.7,0.1-1.2,0.4-1.6c0.2-0.4,0.5-0.7,0.8-1C11.8,8.4,12.6,8.1,13.5,8.1z M14.6,16.8v12.3h-2.2V16.8l0,0
		c0.3,0.1,0.7,0.2,1.1,0.2C13.9,16.9,14.2,16.9,14.6,16.8z"/>
	<path class="st3" d="M70.9,10.3h-4.2V29h-2.2V10.3h-4.2V8.4H71v1.9H70.9z M57.5,10.3h-6.6v7h5v1.9h-5V29h-2.2V8.4h8.9L57.5,10.3
		L57.5,10.3z M63,36.2C63,36.2,63.1,36.2,63,36.2c0.1,0.1,0.1,0.2,0.2,0.2c0,0,0,0,0,0.1l-2,3.1v2.1c0,0.2-0.1,0.3-0.3,0.3h-0.1
		c-0.2,0-0.2-0.1-0.2-0.3v-2.1l-2-3.1c0,0,0,0,0-0.1c0,0,0-0.1,0.1-0.1l0.1-0.1c0,0,0.1,0,0.2,0c0.1,0,0.2,0.1,0.3,0.2l1.6,2.6
		l1.6-2.6c0.1-0.1,0.2-0.2,0.3-0.2C62.9,36.2,62.9,36.2,63,36.2z M71.1,37.9c0,0.6-0.2,1-0.5,1.3c-0.4,0.3-0.9,0.4-1.6,0.4h-1.1v1.9
		c0,0.1,0,0.1-0.1,0.2c0,0-0.1,0.1-0.2,0.1h-0.1c-0.2,0-0.3-0.1-0.3-0.3v-5c0-0.1,0-0.2,0.1-0.2c0.1-0.1,0.1-0.1,0.2-0.1H69
		c0.7,0,1.2,0.1,1.5,0.4C70.9,36.9,71.1,37.3,71.1,37.9z M67.8,36.7v2.4H69c0.5,0,0.9-0.1,1.1-0.3s0.4-0.5,0.4-0.9
		c0-0.8-0.5-1.2-1.5-1.2H67.8z M54,36.2c0.2,0,0.3,0.1,0.3,0.3v4.8H57c0.2,0,0.3,0.1,0.3,0.2v0.1c0,0.2-0.1,0.2-0.3,0.2h-3
		c-0.1,0-0.2,0-0.2-0.1c-0.1-0.1-0.1-0.1-0.1-0.2v-5C53.7,36.2,53.8,36.2,54,36.2L54,36.2z M51.8,37.9c0,0.6-0.2,1-0.5,1.3
		c-0.4,0.3-0.9,0.4-1.6,0.4h-1.1v1.9c0,0.1,0,0.1-0.1,0.2c0,0-0.1,0.1-0.2,0.1h-0.1c-0.2,0-0.3-0.1-0.3-0.3v-5c0-0.1,0-0.2,0.1-0.2
		c0.1-0.1,0.1-0.1,0.2-0.1h1.4c0.7,0,1.2,0.1,1.5,0.4C51.7,36.9,51.8,37.3,51.8,37.9z M51.2,37.9c0-0.8-0.5-1.2-1.5-1.2h-1.2v2.4
		h1.2c0.5,0,0.9-0.1,1.1-0.3C51.1,38.6,51.2,38.3,51.2,37.9z M84.1,36.3L84.1,36.3c0.1-0.1,0.2-0.1,0.3-0.1s0.2,0.1,0.3,0.2l1.6,2.6
		l1.6-2.6c0.1-0.1,0.2-0.2,0.3-0.2c0.1,0,0.1,0,0.2,0c0,0,0.1,0,0.1,0.1c0,0,0,0.1,0.1,0.1c0,0,0,0,0,0.1l-2,3.1v2.1
		c0,0.2-0.1,0.3-0.3,0.3h-0.1C86,42,86,41.9,86,41.7v-2.1l-2-3.1C84,36.4,84,36.4,84.1,36.3C84,36.3,84,36.3,84.1,36.3z M73.2,36.2
		c0.2,0,0.3,0.1,0.3,0.3v4.8h2.7c0.2,0,0.3,0.1,0.3,0.2v0.1c0,0.2-0.1,0.2-0.3,0.2h-3c-0.1,0-0.2,0-0.2-0.1
		c-0.1-0.1-0.1-0.1-0.1-0.2v-5C72.9,36.2,73,36.2,73.2,36.2L73.2,36.2z M80.7,36.4l2,5.3c0,0,0,0.1-0.1,0.1s-0.2,0.1-0.2,0.1
		c-0.1,0-0.1,0-0.2,0s-0.1-0.1-0.2-0.2L81.5,40h-2.4l-0.6,1.6c0,0.1-0.1,0.2-0.2,0.2s-0.1,0-0.2,0s-0.2,0-0.2-0.1
		c-0.1,0-0.1-0.1-0.1-0.1l2-5.3c0-0.1,0.1-0.1,0.1-0.2c0.1,0,0.2-0.1,0.3-0.1c0.1,0,0.2,0,0.3,0.1C80.7,36.2,80.7,36.3,80.7,36.4z
		 M80.3,36.8l-1,2.6h2L80.3,36.8z M41.1,10.7C40.6,10.2,40,10,39.3,10s-1.3,0.2-1.8,0.7s-1,1.4-1.3,2.6c-0.3,1.3-0.5,3.1-0.5,5.4
		s0.2,4.1,0.5,5.4s0.7,2.2,1.3,2.7c0.5,0.5,1.1,0.7,1.8,0.7s1.3-0.2,1.8-0.7s1-1.4,1.3-2.7c0.3-1.3,0.5-3.1,0.5-5.4
		s-0.2-4.1-0.5-5.4C42.1,12.1,41.6,11.2,41.1,10.7z M44.4,12.6c0.5,1.6,0.7,3.6,0.7,6.2c0,2.5-0.3,4.6-0.7,6.2
		c-0.5,1.6-1.2,2.7-2,3.4c-0.9,0.7-1.9,1-3.1,1c-1.2,0-2.2-0.3-3.1-1c-0.9-0.7-1.6-1.9-2-3.4c-0.5-1.6-0.7-3.6-0.7-6.2
		s0.3-4.6,0.7-6.2c0.5-1.6,1.2-2.7,2-3.4c0.9-0.7,1.9-1.1,3.1-1c1.2,0,2.2,0.3,3.1,1C43.2,9.9,43.9,11,44.4,12.6z M30.3,24.1
		c0,1.7-0.5,2.9-1.4,3.9c-0.9,0.9-2.2,1.4-3.9,1.4c-1.1,0-2-0.2-2.8-0.7s-1.4-1.2-1.8-2c-0.4-0.9-0.7-1.9-0.7-3.1h2.1
		c0,1.2,0.3,2.2,0.9,2.9c0.6,0.7,1.4,1,2.5,1.1c0.9,0,1.7-0.3,2.2-0.9s0.8-1.4,0.8-2.5c0-0.9-0.3-1.7-0.9-2.4
		c-0.6-0.7-1.2-1.3-2.1-1.9c-0.8-0.6-1.6-1.1-2.5-1.8c-0.8-0.6-1.5-1.3-2.1-2.1c-0.5-0.8-0.8-1.8-0.9-3c0-1.5,0.5-2.6,1.4-3.5
		s2.1-1.3,3.6-1.3s2.7,0.5,3.6,1.4c0.9,1,1.4,2.4,1.5,4.2H28c-0.1-1.1-0.4-2-0.9-2.7s-1.3-1-2.3-1.1c-0.9,0-1.6,0.3-2.1,0.8
		s-0.8,1.1-0.8,1.9c0,0.9,0.3,1.7,0.9,2.3s1.2,1.2,2.1,1.8c0.8,0.5,1.6,1.1,2.5,1.7c0.8,0.6,1.5,1.4,2.1,2.2
		C30,21.7,30.3,22.8,30.3,24.1z M45.2,36.2L45.2,36.2c0.2,0,0.3,0,0.4,0.1s0.1,0.2,0.1,0.3v5c0,0.2-0.1,0.3-0.2,0.3h-0.1
		c-0.2,0-0.2-0.1-0.2-0.3v-4.7L43.7,40c-0.1,0.1-0.1,0.2-0.2,0.3c-0.1,0.1-0.2,0.1-0.3,0.1s-0.3,0-0.3-0.1c-0.1-0.1-0.1-0.2-0.2-0.3
		l-1.5-3.2v4.7c0,0.2-0.1,0.3-0.2,0.3h-0.1c-0.2,0-0.2-0.1-0.2-0.3v-5c0-0.1,0-0.2,0.1-0.3s0.2-0.1,0.3-0.1h0.1c0.2,0,0.3,0,0.3,0.1
		c0.1,0.1,0.1,0.2,0.2,0.3l1.5,3.3l1.5-3.3c0.1-0.2,0.1-0.3,0.2-0.3S45.1,36.2,45.2,36.2z M34.5,36.2c0.2,0.1,0.4,0.1,0.6,0.2
		c0.2,0.1,0.3,0.2,0.4,0.3c0.1,0.1,0.1,0.2,0.1,0.3s0,0.1-0.1,0.2l-0.1,0.1l-0.1,0.1h-0.1c-0.1-0.2-0.3-0.4-0.6-0.6
		c-0.3-0.2-0.6-0.2-0.9-0.2c-0.4,0-0.7,0.1-1,0.3c-0.2,0.2-0.4,0.4-0.4,0.7c0,0.2,0,0.3,0.1,0.4c0.1,0.1,0.2,0.2,0.3,0.3
		s0.3,0.1,0.5,0.2c0.2,0,0.4,0.1,0.6,0.1c0.2,0,0.5,0.1,0.7,0.2c0.2,0.1,0.4,0.2,0.6,0.3c0.2,0.1,0.3,0.3,0.4,0.5
		c0.1,0.2,0.2,0.4,0.2,0.7c0,0.2,0,0.5-0.1,0.7s-0.2,0.4-0.4,0.5s-0.4,0.2-0.6,0.3c-0.2,0.1-0.5,0.1-0.8,0.1s-0.6,0-0.8-0.1
		c-0.3-0.1-0.5-0.2-0.7-0.3s-0.3-0.2-0.4-0.4c-0.1-0.1-0.2-0.2-0.2-0.3s0-0.1,0.1-0.2l0.1-0.1l0.1-0.1h0.1c0.2,0.2,0.4,0.5,0.7,0.7
		s0.6,0.3,1,0.3s0.8-0.1,1-0.3s0.4-0.4,0.4-0.8c0-0.2,0-0.3-0.1-0.5c-0.1-0.1-0.2-0.2-0.3-0.3s-0.3-0.2-0.5-0.2s-0.4-0.1-0.6-0.1
		c-0.2-0.1-0.4-0.1-0.6-0.2c-0.2-0.1-0.4-0.2-0.5-0.3c-0.2-0.1-0.3-0.3-0.4-0.4c-0.1-0.2-0.2-0.4-0.2-0.7c0-0.2,0-0.4,0.1-0.6
		c0.1-0.2,0.2-0.3,0.4-0.5c0.2-0.1,0.4-0.2,0.6-0.3c0.2-0.1,0.5-0.1,0.7-0.1C34.1,36.1,34.3,36.1,34.5,36.2z M38.3,36.4v5.1
		c0,0.2-0.1,0.3-0.3,0.3l0,0c-0.2,0-0.2-0.1-0.2-0.3v-5.1c0-0.2,0.1-0.3,0.2-0.3h0.1C38.3,36.2,38.3,36.2,38.3,36.4z"/>
</g>
<g class="st1">
	<g class="st4">
		<polygon class="st5" points="61.3,7.3 61.3,42.7 62.3,42.7 62.3,35.9 75.2,35.9 75.2,31.8 65.3,31.8 65.3,27 73.7,27 73.7,22.9 
			65.3,22.9 65.3,18.3 75.2,18.3 75.2,14.1 62.3,14.1 62.3,7.3 		"/>
	</g>
	<g class="st4">
		<polygon class="st5" points="22.3,14.1 22.3,27.5 18.6,21.5 13.9,14.2 13.9,14.1 10,14.1 10,35.9 14.3,35.9 14.3,22.5 17.5,27.7 
			22.7,35.9 26.6,35.9 26.6,14.1 		"/>
	</g>
	<g class="st4">
		<polygon class="st5" points="29,35.9 43.3,35.9 43.3,31.8 33.4,31.8 33.4,27 41.8,27 41.8,22.9 33.4,22.9 33.4,18.3 43.3,18.3 
			43.3,14.1 29,14.1 		"/>
	</g>
	<g class="st4">
		<polygon class="st5" points="45,18.3 50,18.3 50,35.9 54.3,35.9 54.3,18.3 59.3,18.3 59.3,14.1 45,14.1 		"/>
	</g>
	<g class="st4">
		<polygon class="st5" points="89.6,27.5 86,21.6 81.3,14.2 81.2,14.1 77.4,14.1 77.4,35.9 81.7,35.9 81.7,22.5 84.9,27.8 90,35.9 
			94,35.9 94,14.1 89.6,14.1 		"/>
	</g>
	<g class="st4">
		<polygon class="st5" points="95.7,14.1 95.7,18.3 100.7,18.3 100.7,35.9 105.1,35.9 105.1,18.3 110,18.3 110,14.1 		"/>
	</g>
</g>
<g>
	<g>
		<polygon class="st5" points="56.8,37.9 53.1,32.8 53.1,41 49.5,41 49.5,26.8 53,26.8 56.8,32.6 60.8,26.8 64.2,26.8 64.2,41 
			60.5,41 60.5,32.8 56.9,37.9 		"/>
		<path class="st5" d="M71.6,34.7c0-0.8-0.7-1.4-2.2-1.4c-1,0-2,0.3-2.9,0.7v-2.9c0.9-0.5,2.2-0.8,3.7-0.8c3.1,0,4.9,1.5,4.9,4.2V41
			h-3.5v-0.5c-0.3,0.3-1.3,0.7-2.5,0.7c-2.1,0-3.8-1.2-3.8-3.4c0-2,1.8-3.3,4-3.3c0.9,0,1.9,0.3,2.3,0.6L71.6,34.7L71.6,34.7z
			 M71.6,37.5c-0.2-0.4-0.8-0.7-1.5-0.7c-0.7,0-1.4,0.3-1.4,1c0,0.7,0.7,1,1.4,1c0.6,0,1.2-0.3,1.5-0.7V37.5z"/>
		<polygon class="st5" points="81.3,41 77.6,41 77.6,33.4 75.8,33.4 75.8,30.6 77.6,30.6 77.6,27.7 81.3,27.7 81.3,30.6 83.3,30.6 
			83.3,33.4 81.3,33.4 		"/>
		<path class="st5" d="M91.4,34c-0.4-0.2-0.9-0.3-1.5-0.3c-1,0-1.7,0.4-1.9,1.2V41h-3.6V30.6h3.6v0.9c0.5-0.7,1.3-1.2,2.4-1.2
			c0.5,0,0.8,0.1,1,0.2V34z"/>
		<rect x="92.6" y="30.6" class="st5" width="3.6" height="10.4"/>
		<polygon class="st5" points="104.8,35.7 108.5,41 104.6,41 102.8,38.3 101,41 97.2,41 100.9,35.7 97.4,30.6 101.3,30.6 
			102.9,33.1 104.6,30.6 108.3,30.6 		"/>
		<path class="st5" d="M28.7,7.8c-9.5,0-17.2,7.7-17.2,17.2s7.7,17.2,17.2,17.2S45.8,34.5,45.8,25S38.2,7.8,28.7,7.8 M23.3,38.9
			c-2.6,1.3-6.8-1.7-9.3-6.7c-2.5-5-2.3-10.1,0.3-11.4c2.6-1.3,6.8,1.7,9.3,6.7C26.1,32.5,26,37.6,23.3,38.9 M18.4,14.5
			c0-3.2,4.6-5.8,10.3-5.8s10.3,2.6,10.3,5.8s-4.6,5.8-10.3,5.8S18.4,17.7,18.4,14.5 M31.2,39c-2.8-2-2.5-7.3,0.7-11.8
			s8.1-6.7,10.9-4.7s2.5,7.3-0.7,11.8C38.9,38.9,34,41,31.2,39"/>
		<path class="st5" d="M29.6,13.2c-0.4-0.2-0.7-0.3-1-0.5c-0.4-0.3-0.6-0.6-0.8-1c0.5-0.4,1-0.7,1.3-0.9l-0.7-0.4
			c-0.4,0.2-1,0.6-1.6,1.1c-0.9,0-2.6,0.2-3.6,0.9c-1.5,0.9-1.3,2.5-1.3,2.5s2.3,0,3.9-0.7c0.1,0.3,0.2,0.6,0.3,1
			c-0.1,0-0.2,0.1-0.3,0.1c-1.3,0.8-1.3,2,0,2.8c1.3,0.8,3.5,0.8,4.8,0s1.3-2,0-2.8c-1-0.6-2.5-0.7-3.8-0.4
			c-0.2-0.4-0.3-0.9-0.3-1.2c0.4-0.3,0.6-0.7,0.7-1.1c0.1,0.1,0.3,0.2,0.4,0.4c0.4,0.3,0.8,0.5,1.2,0.7c-0.2,0.2-0.4,0.5-0.4,0.8
			c1,0,1.9,0.2,2.6,0.7c0.7,0.4,1.1,1,1.2,1.5c0.7-0.1,1.5-0.2,2-0.6c1.3-0.8,1.3-2,0-2.8C33.1,12.4,30.9,12.4,29.6,13.2 M30.3,16
			c0.3,0.2,0.5,0.5,0.5,0.8c0,0.3-0.3,0.7-0.6,0.8c-0.2,0.1-0.4,0-0.4-0.1c0-0.1,0.2-0.4,0.2-0.7c0-0.3-0.1-0.6-0.2-0.7
			C29.9,15.9,30.1,15.9,30.3,16 M34.4,14.7c0,0.3-0.3,0.7-0.6,0.8c-0.2,0.1-0.4,0-0.4-0.1c0-0.1,0.2-0.4,0.2-0.7s-0.1-0.6-0.2-0.7
			c0-0.1,0.2-0.2,0.4-0.1C34.3,14,34.5,14.4,34.4,14.7"/>
	</g>
	<g>
		<path class="st5" d="M49.8,18.8c1.2,0.8,2.9,1.5,4.5,1.5c1.2,0,2.2-0.2,2.2-1.1c0-0.7-0.4-0.9-1.2-1.2l-2.1-0.6
			c-2.3-0.7-3.6-1.8-3.6-4.1c0-2.8,2.3-4.3,5.2-4.3c1.9,0,3.2,0.4,4.4,1v3.3c-1.2-0.9-2.6-1.4-4.2-1.4c-1,0-1.8,0.3-1.8,1
			c0,0.6,0.4,0.9,1.2,1.1l2.1,0.6c2.5,0.8,3.7,2.1,3.7,4.3c0,3-2.6,4.3-5.7,4.3c-1.9,0-3.5-0.5-4.5-1.1L49.8,18.8L49.8,18.8z"/>
		<path class="st5" d="M64.9,23.1h-3.6V8.4h3.6V23.1z"/>
		<path class="st5" d="M71.1,23.3c-3.1,0-5.2-2.2-5.2-5.3s2.1-5.3,5.2-5.3c3.1,0,5.2,2.2,5.2,5.3S74.2,23.3,71.1,23.3z M71.1,15.6
			c-1.1,0-1.7,1-1.7,2.4c0,1.4,0.6,2.4,1.7,2.4c1.1,0,1.7-1,1.7-2.4C72.9,16.6,72.3,15.6,71.1,15.6z"/>
		<path class="st5" d="M81.9,23.1h-3.5v-7.4h-1.8v-2.8h1.8v-2.8h3.5v2.8h2v2.8h-2V23.1z"/>
	</g>
</g>
</svg>
