<svg width="57" height="37" viewBox="0 0 57 37" fill="none" xmlns="http://www.w3.org/2000/svg">
<rect x="0.656738" y="0.339844" width="55.8806" height="36" rx="8" fill="white"/>
<path d="M28.2552 12.4729L25.6487 24.6568H22.497L25.1038 12.4729H28.2552ZM41.5158 20.3401L43.1751 15.7646L44.13 20.3401H41.5158ZM45.0323 24.6568H47.9477L45.4037 12.4729H42.7128C42.1081 12.4729 41.5979 12.8246 41.3708 13.3668L36.6422 24.6568H39.9521L40.6092 22.8374H44.6529L45.0323 24.6568ZM36.8065 20.6787C36.82 17.4629 32.3594 17.2859 32.3903 15.8495C32.3995 15.4118 32.8164 14.9475 33.7269 14.8283C34.1792 14.7693 35.4229 14.7242 36.835 15.374L37.388 12.7903C36.6295 12.5149 35.6535 12.25 34.4395 12.25C31.3244 12.25 29.1317 13.9063 29.1132 16.2779C29.0936 18.0317 30.6785 19.0105 31.8728 19.5935C33.1006 20.1909 33.5132 20.5734 33.5078 21.1075C33.4997 21.9254 32.5283 22.2856 31.6221 22.2999C30.0372 22.3249 29.1175 21.8722 28.3844 21.5305L27.8133 24.2002C28.5494 24.5384 29.9088 24.8323 31.319 24.8473C34.6296 24.8473 36.7957 23.2115 36.8065 20.6787ZM23.7514 12.4729L18.645 24.6568H15.3128L12.8 14.9332C12.6473 14.3343 12.5146 14.1153 12.0507 13.8627C11.2937 13.452 10.0424 13.066 8.94141 12.8269L9.0166 12.4729H14.3795C15.0629 12.4729 15.6779 12.9279 15.833 13.715L17.1603 20.7658L20.4401 12.4729H23.7514Z" fill="#1434CB"/>
</svg>
