<svg width="32" height="32" viewBox="0 0 32 32" fill="none" xmlns="http://www.w3.org/2000/svg">
<rect width="32" height="32" rx="10" fill="url(#paint0_linear_12781_23072)"/>
<path d="M24 16.4639C23.935 17.115 23.8699 17.766 23.6748 18.352C20.748 18.1567 18.0163 16.8545 16 14.706C13.9837 16.8545 11.252 18.1567 8.3252 18.352C8.13008 17.766 8 17.115 8 16.4639C8.97561 16.3988 9.95122 16.2686 10.9268 15.8779C10.0813 15.2269 9.17073 14.706 8.19512 14.3805C8.3252 13.7294 8.52033 13.1434 8.78049 12.5575C10.2764 13.0132 11.6423 13.8596 12.748 14.9664C13.3984 14.5107 14.0488 14.0549 14.5691 13.469C12.748 13.1434 11.0569 12.2319 9.82114 10.8647C10.2114 10.3438 10.6667 9.9532 11.187 9.56256C11.9024 10.3438 12.813 10.9949 13.8537 11.3204C13.4634 10.409 13.2033 9.43235 13.0732 8.45575C13.6585 8.19532 14.3089 8.06511 14.8943 8C15.0244 9.23703 15.3496 10.409 15.935 11.4507C16.5203 10.409 16.8455 9.23703 16.9756 8C17.626 8.06511 18.2114 8.26043 18.7967 8.45575C18.6667 9.43235 18.4065 10.409 18.0163 11.3204C19.0569 10.9298 19.9675 10.3438 20.6829 9.56256C21.2033 9.9532 21.6585 10.409 22.0488 10.8647C20.813 12.2319 19.122 13.1434 17.3008 13.469C17.8211 14.0549 18.4715 14.5758 19.122 14.9664C20.2276 13.8596 21.5935 13.0132 23.0894 12.5575C23.3496 13.1434 23.5447 13.7294 23.6748 14.3805C22.6992 14.706 21.7236 15.2269 20.9431 15.8779C22.0488 16.2686 23.0244 16.4639 24 16.4639ZM16.9106 23.9512V21.2818L19.6423 17.7009C19.0569 17.4405 18.4715 17.115 17.9512 16.7894L16 19.3937L14.0488 16.7894C13.5285 17.115 12.9431 17.4405 12.3577 17.7009L15.0894 21.2818V23.9512C15.6748 24.0163 16.3252 24.0163 16.9106 23.9512Z" fill="white"/>
<defs>
<linearGradient id="paint0_linear_12781_23072" x1="0" y1="32" x2="32" y2="0" gradientUnits="userSpaceOnUse">
<stop stop-color="#CC3E40"/>
<stop offset="1" stop-color="#FF7C02"/>
</linearGradient>
</defs>
</svg>
