<svg width="28" height="28" viewBox="0 0 28 28" fill="none" xmlns="http://www.w3.org/2000/svg">
<g clip-path="url(#clip0_9173_45512)">
<path d="M6.37244 21.662L5.94385 22.0108L6.19161 21.6912C6.23361 21.6848 6.29484 21.6748 6.37244 21.662Z" fill="#FF4F41"/>
<path d="M26.0505 1.96878C26.0505 1.96878 26.0982 4.68273 25.1991 7.68217H25.1955C23.2633 5.7293 21.6194 4.121 20.78 3.30582C20.3991 2.93561 20.1841 2.72914 20.1841 2.72914V2.72772C23.3587 1.75377 26.0505 1.96878 26.0505 1.96878Z" fill="url(#paint0_linear_9173_45512)"/>
<path d="M17.7922 16.6919C15.929 18.0353 14.0274 19.2399 12.6477 20.0772C11.505 19.4834 10.7667 18.9217 10.2947 18.4255C11.7207 17.1568 14.943 14.1481 14.7436 13.041C14.7436 13.041 13.1752 13.523 9.61617 17.4245C9.36913 16.8058 9.54783 16.4249 9.54783 16.4249C13.3247 5.88732 20.7553 3.39051 20.7553 3.39051L20.7803 3.30579C21.6196 4.12097 23.2635 5.72926 25.1958 7.68143H25.1993C24.6853 9.39936 23.8601 11.2106 22.5395 12.6594C21.3213 13.9957 19.5742 15.4068 17.7922 16.6919ZM21.4509 9.11387C21.4509 7.57606 20.2036 6.32872 18.6658 6.32872C17.128 6.32872 15.8806 7.57606 15.8806 9.11387C15.8806 10.6517 17.128 11.899 18.6658 11.899C20.2036 11.899 21.4509 10.6517 21.4509 9.11387Z" fill="url(#paint1_linear_9173_45512)"/>
<path d="M7.76928 18.3087L7.50728 18.0331L7.14703 17.6551L6.69922 17.1845C7.65252 15.4445 9.82966 12.2486 11.3789 10.0251C12.3649 8.60907 13.0975 7.58743 13.0975 7.58743C15.0981 4.88059 17.7793 3.46382 20.1835 2.72766V2.72909C20.1835 2.72909 20.3993 2.93555 20.7802 3.30576L20.7552 3.39049C20.7552 3.39049 13.3246 5.88729 9.54773 16.4249C9.54773 16.4249 9.36903 16.8057 9.61608 17.4244C9.31492 17.7548 8.99953 18.11 8.66918 18.4909L8.34382 18.9117L8.05619 18.6091L7.76999 18.3087H7.76928Z" fill="url(#paint2_linear_9173_45512)"/>
<path d="M16.5446 9.63645C16.6984 10.2003 17.0736 10.6716 17.5713 10.9528C17.8866 11.1315 18.2505 11.2334 18.6385 11.2334C19.8367 11.2334 20.8085 10.2615 20.8085 9.06262C20.8085 8.74367 20.7401 8.44109 20.6155 8.16841C20.3927 7.67503 19.9897 7.2799 19.4914 7.06703C19.2294 6.95454 18.941 6.8926 18.6385 6.8926C17.4395 6.8926 16.4677 7.86441 16.4677 9.06262C16.4677 9.26126 16.4941 9.45348 16.5446 9.63645ZM18.6655 6.32874C20.2033 6.32874 21.4507 7.57607 21.4507 9.11388C21.4507 10.6517 20.2033 11.899 18.6655 11.899C17.1277 11.899 15.8804 10.6517 15.8804 9.11388C15.8804 7.57607 17.1277 6.32874 18.6655 6.32874Z" fill="url(#paint3_linear_9173_45512)"/>
<path d="M20.6156 8.16846C20.7402 8.44113 20.8085 8.74371 20.8085 9.06267C20.8085 10.2616 19.8367 11.2334 18.6385 11.2334C18.2505 11.2334 17.8867 11.1316 17.5713 10.9529H17.572L20.6099 8.1713L20.6156 8.16846Z" fill="#4FBEF0"/>
<path d="M20.6154 8.16842L20.6097 8.17127L17.5718 10.9521H17.5711C17.0734 10.6716 16.6982 10.2003 16.5444 9.63646L19.4912 7.06775C19.9896 7.27991 20.3925 7.67504 20.6154 8.16842Z" fill="#98E5FF"/>
<path d="M19.4914 7.06701L16.5447 9.63643C16.4941 9.45346 16.4678 9.26123 16.4678 9.0626C16.4678 7.86439 17.4396 6.89258 18.6385 6.89258C18.9411 6.89258 19.2294 6.95452 19.4914 7.06701Z" fill="#4FBEF0"/>
<path d="M17.7917 16.6919C17.7989 16.835 18.0523 22.317 15.1803 23.5259C12.2699 24.7512 9.07178 25.3798 9.07178 25.3798L10.6003 21.2818C10.6003 21.2818 11.4155 20.8262 12.6472 20.0772C14.0269 19.24 15.9286 18.0353 17.7917 16.6919Z" fill="url(#paint4_linear_9173_45512)"/>
<path d="M14.7432 13.041C14.9425 14.1481 11.7202 17.1568 10.2942 18.4255C9.9361 18.0496 9.73035 17.7114 9.61572 17.4245C13.1748 13.523 14.7432 13.041 14.7432 13.041Z" fill="#FF4F41"/>
<path d="M11.3737 10.0217L11.3787 10.0252C9.82945 12.2486 7.65231 15.4446 6.69901 17.1846L2.58252 18.7373C2.58252 18.7373 3.20334 15.5371 4.42077 12.6246C5.63892 9.71125 11.3737 10.0217 11.3737 10.0217Z" fill="url(#paint5_linear_9173_45512)"/>
<path d="M9.19242 19.803L8.95605 19.5546L9.63383 19.0021C9.63383 19.0021 9.89298 18.7828 10.2945 18.4254C10.7665 18.9216 11.5048 19.4834 12.6475 20.0771C11.4158 20.8261 10.6007 21.2818 10.6007 21.2818L10.1835 20.8439L9.85097 20.4943L9.50568 20.132L9.19242 19.803Z" fill="#B4B4B4"/>
<path d="M9.85066 20.4944L10.1831 20.844L10.181 20.8461C10.2415 24.9099 1.94873 25.9607 1.94873 25.9607C3.18823 17.2116 6.97937 17.6324 7.14667 17.6551L7.50692 18.0332L7.50336 18.0367C7.50336 18.0367 4.46191 17.5405 3.48369 24.4528C3.48369 24.4528 9.88982 23.6412 9.84354 20.5015L9.85066 20.4944Z" fill="#E43224"/>
<path d="M9.85085 20.4944L9.84373 20.5015C9.89001 23.6412 3.48389 24.4528 3.48389 24.4528C4.46211 17.5405 7.50355 18.0368 7.50355 18.0368L7.50711 18.0332L7.76911 18.3087C7.58756 18.2888 5.51081 18.1685 4.82164 23.0346C4.82164 23.0346 9.52976 22.4387 9.50556 20.132L9.85085 20.4944Z" fill="#FF8B00"/>
<path d="M10.2945 18.4254C9.89295 18.7828 9.6338 19.0021 9.6338 19.0021L8.95603 19.5546L8.34375 18.9117L8.66911 18.4909C8.99946 18.11 9.31485 17.7548 9.616 17.4244C9.73063 17.7114 9.93638 18.0495 10.2945 18.4254Z" fill="#FF4F41"/>
<path d="M9.50569 20.132C9.5299 22.4387 4.82178 23.0346 4.82178 23.0346C5.51094 18.1684 7.5877 18.2888 7.76925 18.3087L8.05545 18.6091C7.92516 18.5956 6.57816 18.5337 6.12963 21.6997C6.12963 21.6997 6.1517 21.6969 6.19157 21.6912L5.94381 22.0108L6.3724 21.662C7.09859 21.5324 9.20454 21.0504 9.19243 19.8031L9.50569 20.132Z" fill="#FFBC00"/>
<path d="M9.1921 19.803C9.2042 21.0504 7.09826 21.5324 6.37207 21.6619L8.95573 19.5546L9.1921 19.803Z" fill="#FFE13D"/>
<path d="M8.95591 19.5546L6.37224 21.662C6.29464 21.6748 6.23341 21.6848 6.19141 21.6912L8.34363 18.9117L8.95591 19.5546Z" fill="#FF4F41"/>
<path d="M8.05593 18.6092L8.34356 18.9118L6.19133 21.6912C6.15146 21.6969 6.12939 21.6998 6.12939 21.6998C6.57792 18.5337 7.92493 18.5957 8.05522 18.6092H8.05593Z" fill="#FFE13D"/>
</g>
<defs>
<linearGradient id="paint0_linear_9173_45512" x1="20.6481" y1="6.19462" x2="26.3311" y2="4.15714" gradientUnits="userSpaceOnUse">
<stop stop-color="#FF4E41"/>
<stop offset="0.14" stop-color="#E73F32"/>
<stop offset="0.39" stop-color="#C2281C"/>
<stop offset="0.63" stop-color="#A7180D"/>
<stop offset="0.84" stop-color="#960E03"/>
<stop offset="1" stop-color="#910B00"/>
</linearGradient>
<linearGradient id="paint1_linear_9173_45512" x1="20.451" y1="6.30081" x2="10.4629" y2="19.4102" gradientUnits="userSpaceOnUse">
<stop stop-color="white"/>
<stop offset="1" stop-color="#C9C9C9"/>
</linearGradient>
<linearGradient id="paint2_linear_9173_45512" x1="16.5253" y1="5.6178" x2="6.72096" y2="17.5672" gradientUnits="userSpaceOnUse">
<stop stop-color="#EBEBEB"/>
<stop offset="1" stop-color="#B1B1B1"/>
</linearGradient>
<linearGradient id="paint3_linear_9173_45512" x1="16.3209" y1="10.4538" x2="21.7444" y2="8.5536" gradientUnits="userSpaceOnUse">
<stop stop-color="#FF4E41"/>
<stop offset="0.14" stop-color="#E73F32"/>
<stop offset="0.39" stop-color="#C2281C"/>
<stop offset="0.63" stop-color="#A7180D"/>
<stop offset="0.84" stop-color="#960E03"/>
<stop offset="1" stop-color="#910B00"/>
</linearGradient>
<linearGradient id="paint4_linear_9173_45512" x1="9.76211" y1="23.1258" x2="18.2518" y2="20.1373" gradientUnits="userSpaceOnUse">
<stop stop-color="#FF4E41"/>
<stop offset="0.14" stop-color="#E73F32"/>
<stop offset="0.39" stop-color="#C2281C"/>
<stop offset="0.63" stop-color="#A7180D"/>
<stop offset="0.84" stop-color="#960E03"/>
<stop offset="1" stop-color="#910B00"/>
</linearGradient>
<linearGradient id="paint5_linear_9173_45512" x1="3.2782" y1="16.4736" x2="11.8272" y2="13.4539" gradientUnits="userSpaceOnUse">
<stop stop-color="#FF4E41"/>
<stop offset="0.14" stop-color="#E73F32"/>
<stop offset="0.39" stop-color="#C2281C"/>
<stop offset="0.63" stop-color="#A7180D"/>
<stop offset="0.84" stop-color="#960E03"/>
<stop offset="1" stop-color="#910B00"/>
</linearGradient>
<clipPath id="clip0_9173_45512">
<rect width="24.1379" height="24.0475" fill="white" transform="translate(1.93115 1.93103)"/>
</clipPath>
</defs>
</svg>
