<svg width="121" height="36" viewBox="0 0 121 36" fill="none" xmlns="http://www.w3.org/2000/svg">
<g clip-path="url(#clip0_4405_9568)">
<path d="M116.446 35.9321H4.88692C2.41043 35.9321 0.400391 33.9145 0.400391 31.4236V4.50849C0.400391 2.01761 2.40817 0 4.88692 0H116.514C118.99 0 121 2.01761 121 4.50849V31.4236C120.933 33.9122 118.925 35.9321 116.446 35.9321Z" fill="black"/>
<path d="M116.446 0.0683594H4.88692C2.40817 0.0683594 0.400391 2.08597 0.400391 4.57685V31.4919C0.400391 33.9806 2.40817 36.0004 4.88692 36.0004H116.514C118.99 36.0004 121 33.9828 121 31.4919V4.57685C120.933 2.08824 118.925 0.0683594 116.446 0.0683594ZM116.446 0.80883C118.522 0.80883 120.196 2.49131 120.196 4.57685V31.4919C120.196 33.5775 118.522 35.26 116.446 35.26H4.88692C2.81153 35.26 1.13725 33.5775 1.13725 31.4919V4.57685C1.13725 2.48904 2.81153 0.80883 4.88692 0.80883H116.446Z" fill="#A6A6A6"/>
<path d="M15.0654 7.20117C14.9325 7.20117 14.8649 7.20117 14.7297 7.2691C14.3939 7.47064 14.3286 7.80804 14.4615 8.14318L15.1308 9.42258C13.4565 10.4325 12.3861 12.1807 12.3861 14.2005V14.5379C12.0504 14.2005 11.5817 13.9333 11.113 13.9333C10.1756 13.9333 9.37109 14.7417 9.37109 15.6837V21.0663C9.37109 22.0083 10.1756 22.8167 11.113 22.8167C11.6493 22.8167 12.118 22.6152 12.3861 22.2121V22.9526C12.3861 23.9625 13.1906 24.7687 14.1934 24.7687H14.6621V27.1237C14.6621 28.0657 15.4666 28.8741 16.404 28.8741C17.3414 28.8741 18.1459 28.0657 18.1459 27.1237V24.7687H18.9503V27.1237C18.9503 28.0657 19.7548 28.8741 20.6922 28.8741C21.6296 28.8741 22.4341 28.0657 22.4341 27.1237V24.7687H22.9028C23.9078 24.7687 24.71 23.9603 24.71 22.9526V22.2121C25.0458 22.5495 25.5145 22.8167 25.9832 22.8167C26.9206 22.8167 27.7251 22.0083 27.7251 21.0663V15.6837C27.7251 14.7417 26.9206 13.9333 25.9832 13.9333C25.4469 13.9333 24.9782 14.1349 24.71 14.5379V14.2685V14.2005C24.71 12.1829 23.6397 10.4325 21.9654 9.42258L22.6346 8.14318C22.8352 7.80578 22.7022 7.47064 22.3665 7.2691C22.2989 7.20117 22.1659 7.20117 22.0307 7.20117C21.8302 7.20117 21.562 7.33477 21.4944 7.53857L20.7576 8.81798C20.0207 8.54851 19.2838 8.41491 18.4816 8.41491C17.6794 8.41491 16.9425 8.54851 16.2057 8.81798L15.4688 7.53857C15.5364 7.33704 15.3359 7.20117 15.0677 7.20117H15.0654Z" fill="white"/>
<path d="M11.1814 14.4004C10.4445 14.4004 9.9082 14.9393 9.9082 15.6798V21.0624C9.9082 21.8028 10.4445 22.3418 11.1814 22.3418C11.9182 22.3418 12.4546 21.8028 12.4546 21.0624V15.6798C12.4546 15.0073 11.9182 14.4004 11.1814 14.4004ZM26.1147 14.4004C25.3778 14.4004 24.8415 14.9393 24.8415 15.6798V21.0624C24.8415 21.8028 25.3778 22.3418 26.1147 22.3418C26.8516 22.3418 27.3879 21.8028 27.3879 21.0624V15.6798C27.3879 15.0073 26.8516 14.4004 26.1147 14.4004Z" fill="#A4C639"/>
<path d="M16.5388 20.5234C15.8019 20.5234 15.2656 21.0624 15.2656 21.8028V27.1854C15.2656 27.9259 15.8019 28.4648 16.5388 28.4648C17.2757 28.4648 17.812 27.9259 17.812 27.1854V21.8028C17.812 21.0624 17.2103 20.5234 16.5388 20.5234ZM20.7572 20.5234C20.0203 20.5234 19.484 21.0624 19.484 21.8028V27.1854C19.484 27.9259 20.0203 28.4648 20.7572 28.4648C21.494 28.4648 22.0303 27.9259 22.0303 27.1854V21.8028C22.0303 21.0624 21.494 20.5234 20.7572 20.5234Z" fill="#A4C639"/>
<path d="M15.1325 7.67188H15.0649C14.9973 7.73981 14.9319 7.80548 14.9973 7.94134L15.8671 9.55589C14.1252 10.43 12.9872 12.1804 12.9872 14.198H24.4368C24.4368 12.246 23.2312 10.4979 21.5569 9.55589L22.4267 7.94134C22.4943 7.87341 22.4267 7.73981 22.3591 7.67188H22.2915C22.2239 7.67188 22.1586 7.67187 22.1586 7.73981L21.2212 9.42228C20.4843 9.08488 19.6145 8.88335 18.7447 8.88335C17.8749 8.88335 17.0028 9.08488 16.2682 9.42228L15.3308 7.73981C15.1978 7.67187 15.1302 7.67188 15.1302 7.67188H15.1325ZM12.9219 14.6033V22.9478C12.9219 23.6882 13.5235 24.3608 14.328 24.3608H22.9653C23.7022 24.3608 24.3714 23.7562 24.3714 22.9478V14.6033H12.9219Z" fill="#A4C639"/>
<path d="M16.0019 11.1035C15.7338 11.1035 15.5332 11.3051 15.5332 11.5745C15.5332 11.844 15.7338 12.0455 16.0019 12.0455C16.2701 12.0455 16.4706 11.844 16.4706 11.5745C16.4706 11.3051 16.2701 11.1035 16.0019 11.1035ZM21.2929 11.1035C21.0248 11.1035 20.8242 11.3051 20.8242 11.5745C20.8242 11.844 21.0248 12.0455 21.2929 12.0455C21.5611 12.0455 21.7616 11.844 21.7616 11.5745C21.7616 11.3051 21.5611 11.1035 21.2929 11.1035Z" fill="white"/>
<path d="M36.291 6.3968H38.2109C40.1781 6.3968 41.6316 7.85736 41.6316 9.69155C41.6316 11.5257 40.1804 12.9863 38.2109 12.9863H36.291V6.39453V6.3968ZM38.2109 12.5176C39.9438 12.5176 41.1629 11.2925 41.1629 9.69381C41.1629 8.09512 39.9438 6.87006 38.2109 6.87006H36.7597V12.5198H38.2109V12.5176Z" fill="white"/>
<path d="M46.6458 12.1388C46.6458 12.1388 46.0374 13.0808 44.8656 13.0808C43.6939 13.0808 42.6641 12.046 42.6641 10.7258C42.6641 9.40563 43.6488 8.37305 44.8183 8.37305C45.9878 8.37305 46.8802 9.31505 46.8802 10.7258V10.9137H43.0854C43.1801 11.9033 43.9282 12.6551 44.8656 12.6551C45.8504 12.6551 46.3168 11.8557 46.3168 11.8557L46.6458 12.1388ZM46.4588 10.4903C46.3642 9.45545 45.7084 8.7965 44.8183 8.7965C43.9282 8.7965 43.1328 9.59584 43.0854 10.4903H46.4588Z" fill="white"/>
<path d="M48.0517 11.9987C48.0517 11.9987 48.5204 12.6577 49.3158 12.6577C50.0662 12.6577 50.4876 12.2342 50.4876 11.7157C50.4876 10.5857 47.9119 11.1043 47.9119 9.59615C47.9119 8.98476 48.5204 8.37109 49.3631 8.37109C50.2532 8.37109 50.7693 9.03004 50.7693 9.03004L50.4403 9.36065C50.4403 9.36065 50.0662 8.79681 49.3631 8.79681C48.7074 8.79681 48.3333 9.18176 48.3333 9.59615C48.3333 10.6786 50.909 10.1623 50.909 11.7157C50.909 12.4697 50.3006 13.0811 49.3158 13.0811C48.3311 13.0811 47.7227 12.3271 47.7227 12.3271L48.0517 11.9965V11.9987Z" fill="white"/>
<path d="M55.8294 12.1388C55.8294 12.1388 55.221 13.0808 54.0492 13.0808C52.8775 13.0808 51.8477 12.046 51.8477 10.7258C51.8477 9.40563 52.8775 8.37305 54.0492 8.37305C55.221 8.37305 55.8294 9.31505 55.8294 9.31505L55.5004 9.59811C55.5004 9.59811 55.0317 8.79876 54.0492 8.79876C53.0667 8.79876 52.269 9.64566 52.269 10.7281C52.269 11.8105 53.1118 12.6574 54.0492 12.6574C55.034 12.6574 55.5004 11.858 55.5004 11.858L55.8294 12.1411V12.1388Z" fill="white"/>
<path d="M59.764 12.1864C59.764 12.1864 59.2953 13.0808 58.1235 13.0808C57.2334 13.0808 56.625 12.4694 56.625 11.8105C56.625 11.104 57.141 10.5763 57.9838 10.445L59.764 10.162C59.764 9.31505 59.248 8.7965 58.4998 8.7965C57.6571 8.7965 57.1884 9.45545 57.1884 9.45545L56.9067 9.17239C56.9067 9.17239 57.47 8.37305 58.4998 8.37305C59.5296 8.37305 60.1854 9.07955 60.1854 10.162V12.9857H59.764V12.1864ZM59.764 10.5854L58.0784 10.8685C57.3754 10.9817 57.0486 11.3395 57.0486 11.8105C57.0486 12.2339 57.47 12.6574 58.1258 12.6574C59.0632 12.6574 59.7663 11.9509 59.7663 11.0089V10.5854H59.764Z" fill="white"/>
<path d="M61.7344 8.46589H62.1558V9.2675C62.1558 9.2675 62.6245 8.37305 63.7489 8.37305H63.936V8.7965H63.7489C62.8588 8.7965 62.1558 9.503 62.1558 10.445V12.988H61.7344V8.46815V8.46589Z" fill="white"/>
<path d="M65.0126 13.7398C65.0126 13.7398 65.4813 14.5391 66.4638 14.5391C67.4462 14.5391 68.1966 13.7398 68.1966 12.7026V11.9033C68.1966 11.9033 67.6806 12.8929 66.5111 12.8929C65.3416 12.8929 64.4492 11.9509 64.4492 10.633C64.4492 9.31505 65.3866 8.37305 66.5111 8.37305C67.6355 8.37305 68.1966 9.36261 68.1966 9.36261V8.46815H68.618V12.7049C68.618 13.9753 67.6333 14.9648 66.4638 14.9648C65.2942 14.9648 64.6836 14.0228 64.6836 14.0228L65.0126 13.7398ZM68.1989 10.633C68.1989 9.55055 67.4485 8.7965 66.5133 8.7965C65.5782 8.7965 64.8729 9.55055 64.8729 10.633C64.8729 11.7154 65.6232 12.4694 66.5133 12.4694C67.4508 12.4694 68.1989 11.7154 68.1989 10.633Z" fill="white"/>
<path d="M72.9788 12.1864C72.9788 12.1864 72.5101 13.0808 71.3384 13.0808C70.4483 13.0808 69.8398 12.4694 69.8398 11.8105C69.8398 11.104 70.3559 10.5763 71.1986 10.445L72.9788 10.162C72.9788 9.31505 72.4628 8.7965 71.7147 8.7965C70.8719 8.7965 70.4032 9.45545 70.4032 9.45545L70.1215 9.17239C70.1215 9.17239 70.6849 8.37305 71.7147 8.37305C72.7445 8.37305 73.4002 9.07955 73.4002 10.162V12.9857H72.9788V12.1864ZM72.9788 10.5854L71.2933 10.8685C70.5902 10.9817 70.2635 11.3395 70.2635 11.8105C70.2635 12.2339 70.6849 12.6574 71.3406 12.6574C72.278 12.6574 72.9811 11.9509 72.9811 11.0089V10.5854H72.9788Z" fill="white"/>
<path d="M74.9453 8.46589H75.3667V9.2675C75.3667 9.2675 75.8354 8.37305 76.9599 8.37305H77.1469V8.7965H76.9599C76.0698 8.7965 75.3667 9.503 75.3667 10.445V12.988H74.9453V8.46815V8.46589Z" fill="white"/>
<path d="M83.4271 12.1388C83.4271 12.1388 82.8187 13.0808 81.6469 13.0808C80.4751 13.0808 79.4453 12.046 79.4453 10.7258C79.4453 9.40563 80.4301 8.37305 81.5996 8.37305C82.7691 8.37305 83.6614 9.31505 83.6614 10.7258V10.9137H79.8667C79.9613 11.9033 80.7095 12.6551 81.6469 12.6551C82.6316 12.6551 83.0981 11.8557 83.0981 11.8557L83.4271 12.1388ZM83.2401 10.4903C83.1454 9.45545 82.4897 8.7965 81.5996 8.7965C80.7095 8.7965 79.914 9.59584 79.8667 10.4903H83.2401Z" fill="white"/>
<path d="M84.9258 8.46589H85.3472V9.2675C85.3472 9.2675 85.8159 8.37305 86.893 8.37305C87.9701 8.37305 88.7205 9.17239 88.7205 10.3023V12.9857H88.2991V10.3023C88.2991 9.40789 87.6907 8.7965 86.893 8.7965C86.0502 8.7965 85.3472 9.503 85.3472 10.445V12.988H84.9258V8.46815V8.46589Z" fill="white"/>
<path d="M39.148 17.459H41.2211L44.5246 27.1576H42.5822L41.8701 24.9452H38.5666L37.8545 27.1576H35.9121L39.1503 17.459H39.148ZM41.2865 23.0567L40.2499 19.8661H40.1846L39.148 23.0567H41.2865Z" fill="white"/>
<path d="M45.4336 20.3852H47.1169V21.3612H47.1822C47.1822 21.3612 47.829 20.2539 48.9962 20.2539C50.2266 20.2539 51.1978 21.3612 51.1978 23.1184V27.2193H49.5145V23.4445C49.5145 22.5976 49.0616 22.1424 48.4126 22.1424C47.7005 22.1424 47.1169 22.7923 47.1169 23.6392V27.2193H45.4336V20.3852Z" fill="white"/>
<path d="M57.092 26.1801C57.0266 26.1801 56.4453 27.2874 55.1495 27.2874C53.7254 27.2874 52.4297 25.8562 52.4297 23.773C52.4297 21.6897 53.7254 20.2586 55.1495 20.2586C56.4453 20.2586 57.0289 21.3659 57.0289 21.3659H57.0942V17.5254H58.7775V27.224H57.0942V26.1823L57.092 26.1801ZM57.1573 23.7707C57.1573 22.7291 56.5106 21.9478 55.6025 21.9478C54.7597 21.9478 54.0476 22.7291 54.0476 23.7707C54.0476 24.8123 54.6944 25.5936 55.6025 25.5936C56.4453 25.5279 57.1573 24.8123 57.1573 23.7707Z" fill="white"/>
<path d="M60.3945 20.3852H62.0778V21.3612H62.1432C62.1432 21.3612 62.7899 20.2539 63.9572 20.2539H64.0856V22.2715C64.0856 22.2715 63.8918 22.2059 63.502 22.2059C62.7246 22.2059 62.0778 22.9214 62.0778 24.0287V27.2193H60.3945V20.3852Z" fill="white"/>
<path d="M67.7825 20.1914C69.5965 20.1914 70.9575 21.7539 70.9575 23.7058C70.9575 25.6578 69.5334 27.2202 67.7825 27.2202C66.0316 27.2202 64.6074 25.6578 64.6074 23.7058C64.6074 21.7539 65.9685 20.1914 67.7825 20.1914ZM69.3373 23.7715C69.3373 22.7298 68.6906 21.9486 67.7825 21.9486C66.9397 21.9486 66.2276 22.7298 66.2276 23.7715C66.2276 24.8131 66.8743 25.5943 67.7825 25.5943C68.6252 25.5287 69.3373 24.8131 69.3373 23.7715Z" fill="white"/>
<path d="M73.0279 17.3926C73.5461 17.3926 73.9991 17.8477 73.9991 18.4342C73.9991 19.0207 73.5461 19.4759 73.0279 19.4759C72.5096 19.4759 72.0566 19.0207 72.0566 18.4342C72.0566 17.8477 72.5096 17.3926 73.0279 17.3926ZM72.1851 20.3862H73.8684V27.1568H72.1851V20.3862Z" fill="white"/>
<path d="M79.7658 26.1801C79.7005 26.1801 79.1191 27.2874 77.8234 27.2874C76.3992 27.2874 75.1035 25.8562 75.1035 23.773C75.1035 21.6897 76.3992 20.2586 77.8234 20.2586C79.1191 20.2586 79.7027 21.3659 79.7027 21.3659H79.7681V17.5254H81.4514V27.224H79.7681V26.1823L79.7658 26.1801ZM79.8312 23.7707C79.8312 22.7291 79.1844 21.9478 78.2763 21.9478C77.4335 21.9478 76.7215 22.7291 76.7215 23.7707C76.7215 24.8123 77.3682 25.5936 78.2763 25.5936C79.1191 25.5279 79.8312 24.8123 79.8312 23.7707Z" fill="white"/>
<path d="M87.8628 17.459H89.936L93.2395 27.1576H91.297L90.585 24.9452H87.2815L86.5694 27.1576H84.627L87.8651 17.459H87.8628ZM90.0013 23.0567L88.9648 19.8661H88.8994L87.8628 23.0567H90.0013Z" fill="white"/>
<path d="M94.4688 17.459H98.0967C99.9107 17.459 101.206 18.8267 101.206 20.713C101.206 22.5993 99.9761 23.967 98.0967 23.967H96.2827V27.1576H94.4688V17.459ZM98.0314 22.015C98.7435 22.015 99.2617 21.4942 99.2617 20.713C99.2617 19.9317 98.7435 19.4109 98.0314 19.4109H96.2827V22.015H98.0314Z" fill="white"/>
<path d="M102.826 17.459H104.64V21.6255L107.944 17.459H110.146L106.97 21.4942L110.405 27.1576H108.266L105.74 22.991L104.638 24.2931V27.1576H102.824V17.459H102.826Z" fill="white"/>
</g>
<defs>
<clipPath id="clip0_4405_9568">
<rect width="120.6" height="36" fill="white" transform="translate(0.400391)"/>
</clipPath>
</defs>
</svg>
