<svg width="58" height="58" viewBox="0 0 58 58" fill="none" xmlns="http://www.w3.org/2000/svg">
<g clip-path="url(#clip0_956_21427)">
<path d="M27.7229 2.2681L6.94725 9.98271C6.15173 10.2781 5.74616 11.1629 6.04138 11.9589L17.6365 43.2231C17.9317 44.0191 18.8159 44.4249 19.6114 44.1295L40.387 36.4149C41.1826 36.1195 41.5881 35.2348 41.2929 34.4388L29.6978 3.17454C29.4026 2.37853 28.5184 1.9727 27.7229 2.2681Z" fill="url(#paint0_linear_956_21427)"/>
<path d="M26.4107 1.87756L5.85118 9.51193C4.996 9.82948 4.56001 10.7806 4.87737 11.6363L16.3923 42.6843C16.7096 43.54 17.6602 43.9763 18.5154 43.6587L39.0749 36.0244C39.9301 35.7068 40.3661 34.7557 40.0487 33.9L28.5338 2.85197C28.2164 1.99626 27.2659 1.56 26.4107 1.87756Z" fill="url(#paint1_linear_956_21427)"/>
<g opacity="0.06">
<path d="M12.4904 33.9213C12.4904 33.9213 31.8056 28.1434 30.8581 5.23438L41.9996 34.7437L41.1853 36.9729L17.9703 46.9503C17.9703 46.9503 11.502 38.828 12.4904 33.9213Z" fill="url(#paint2_linear_956_21427)"/>
</g>
<path d="M18.24 42.1687C17.6664 42.1687 17.1236 41.8151 16.9136 41.2463L6.21256 12.3878C5.94112 11.6575 6.31498 10.8402 7.04477 10.5686L25.8478 3.58902C26.2012 3.45834 26.5853 3.47115 26.9284 3.63001C27.2715 3.78887 27.5327 4.06816 27.6633 4.42431L38.3643 33.2829C38.6358 34.0131 38.2619 34.8305 37.5321 35.1021L18.7291 42.0842C18.5678 42.1431 18.4014 42.1713 18.24 42.1713V42.1687ZM26.3394 3.88367C26.2191 3.88367 26.0962 3.90417 25.9809 3.94773L7.17793 10.9273C6.64531 11.1246 6.37388 11.719 6.57105 12.252L17.2721 41.1105C17.4693 41.6435 18.0633 41.9151 18.596 41.7178L37.399 34.7356C37.9316 34.5384 38.203 33.9439 38.0059 33.411L27.3048 4.55242C27.2101 4.29363 27.018 4.08865 26.7696 3.97591C26.6339 3.91186 26.488 3.88111 26.342 3.88111L26.3394 3.88367Z" fill="#CECECE"/>
<path d="M9.71261 12.011L10.9571 11.5498L14.0683 15.1216L12.852 15.5725L12.2246 14.7936L10.8598 15.3009L10.8931 16.3002L9.67676 16.7512L9.70748 12.0136L9.71261 12.011ZM11.5896 13.9814L10.7753 12.9334L10.7522 12.9411L10.8188 14.2658L11.5896 13.9788V13.9814Z" fill="url(#paint3_linear_956_21427)"/>
<path d="M32.0163 30.218L33.2608 29.7568L36.372 33.3286L35.1557 33.7796L34.5283 33.0006L33.1635 33.508L33.1968 34.5072L31.9805 34.9582L32.0112 30.2206L32.0163 30.218ZM33.8933 32.1884L33.079 31.1404L33.0559 31.1481L33.1225 32.4728L33.8933 32.1858V32.1884Z" fill="url(#paint4_linear_956_21427)"/>
<path d="M19.3926 41.6868C19.8392 41.1474 19.6036 40.2146 18.8663 39.6035C18.129 38.9923 17.1693 38.9341 16.7227 39.4735C16.2761 40.0129 16.5117 40.9457 17.249 41.5568C17.9863 42.168 18.946 42.2262 19.3926 41.6868Z" fill="white"/>
<path d="M21.0226 18.8957C21.0764 18.6728 21.1123 18.4652 21.1788 18.2679C21.6551 16.8536 22.6615 16.0644 24.1108 15.8338C25.6754 15.5852 27.1298 16.3027 27.8827 17.6812C28.318 18.4755 28.4358 19.3441 28.3948 20.2408C28.3308 21.6398 27.9006 22.9414 27.3116 24.1969C26.6279 25.6523 25.765 27 24.7919 28.2786C24.6741 28.4323 24.5717 28.5348 24.3387 28.4861C22.7818 28.1479 21.2608 27.7047 19.8012 27.0615C18.5029 26.4876 17.2917 25.7753 16.3084 24.7299C15.6094 23.9868 15.0844 23.1387 14.9718 22.1036C14.813 20.6687 15.3738 19.5311 16.5235 18.7061C17.5632 17.9604 18.7155 17.7657 19.9292 18.2449C20.2621 18.3755 20.5566 18.6061 20.8664 18.7932C20.9151 18.8214 20.9586 18.8598 21.0175 18.9034L21.0226 18.8957Z" fill="url(#paint5_linear_956_21427)"/>
<path d="M52.4802 12.7096L29.4383 10.3595C27.6079 10.1728 25.9728 11.5062 25.7862 13.3378L22.0993 49.5315C21.9127 51.3631 23.2453 52.9992 25.0757 53.1859L48.1176 55.536C49.948 55.7226 51.5831 54.3892 51.7697 52.5577L55.4566 16.3639C55.6432 14.5324 54.3106 12.8963 52.4802 12.7096Z" fill="url(#paint6_linear_956_21427)"/>
<path d="M51.4304 11.6246L28.3885 9.27455C26.5581 9.08786 24.923 10.4213 24.7364 12.2528L21.0495 48.4466C20.8629 50.2781 22.1955 51.9142 24.0259 52.1009L47.0678 54.451C48.8982 54.6377 50.5333 53.3043 50.7199 51.4727L54.4068 15.279C54.5934 13.4474 53.2608 11.8113 51.4304 11.6246Z" fill="url(#paint7_linear_956_21427)"/>
<g opacity="0.06">
<path d="M21.3385 38.4874C21.3385 38.4874 44.8352 42.4358 55.7718 17.6436L52.2099 54.7576L50.1844 56.6973L20.3603 55.1676C20.3603 55.1676 17.7305 43.1763 21.3359 38.4874H21.3385Z" fill="url(#paint8_linear_956_21427)"/>
</g>
<path d="M46.8937 52.7822C46.8143 52.7822 46.7323 52.777 46.653 52.7694L24.3239 50.4915C23.0461 50.3609 22.114 49.2155 22.2446 47.937L25.8065 12.9957C25.9371 11.7171 27.0792 10.787 28.3595 10.9151L50.6886 13.1929C51.3083 13.257 51.8639 13.5568 52.2583 14.0385C52.6526 14.5202 52.8319 15.1274 52.7704 15.7475L49.2085 50.6888C49.1445 51.3089 48.8449 51.8649 48.3635 52.2595C47.9435 52.6003 47.4314 52.7847 46.8962 52.7847L46.8937 52.7822ZM28.1214 11.4148C27.2021 11.4148 26.4108 12.1142 26.3161 13.0495L22.7542 47.9908C22.6518 48.9875 23.3816 49.8817 24.3777 49.9842L46.7067 52.262C47.1881 52.3133 47.6619 52.1698 48.0383 51.8623C48.4147 51.5549 48.6477 51.1218 48.6989 50.6376L52.2608 15.6963C52.3095 15.2146 52.1686 14.7405 51.8614 14.3639C51.5541 13.9872 51.1213 13.7541 50.6374 13.7028L28.3083 11.425C28.2468 11.4173 28.1828 11.4148 28.1239 11.4148H28.1214Z" fill="#CBCBCB"/>
<path d="M24.6102 50.3232C25.3649 49.9841 25.6011 48.872 25.1376 47.8393C24.6742 46.8065 23.6867 46.2442 22.932 46.5833C22.1773 46.9224 21.9411 48.0345 22.4045 49.0672C22.8679 50.1 23.8554 50.6623 24.6102 50.3232Z" fill="white"/>
<path d="M40.2626 36.3867L38.3421 24.7695L33.8276 35.4951C33.8276 35.4951 33.7431 35.7385 33.5869 35.8333L33.8686 35.8666L34.3065 35.9179L34.7776 35.9742C34.7776 35.9742 34.6906 35.8717 34.7725 35.6283L35.1745 34.6752C35.446 35.5284 36.2014 36.192 37.1565 36.3048C37.7864 36.3791 38.3882 36.1997 38.8568 35.8487L38.4189 35.0159C38.1193 35.2952 37.7045 35.4464 37.264 35.3952C36.4754 35.3029 35.9094 34.5906 36.0016 33.8091C36.0938 33.0276 36.8108 32.4665 37.5995 32.5587C37.9145 32.5946 38.1936 32.733 38.4087 32.9328L38.7006 32.6023L39.2767 36.0793H39.2742C39.3331 36.4021 39.1999 36.4969 39.1999 36.4969L39.6711 36.5533L40.1089 36.6045L40.3906 36.6378C40.324 36.5712 40.2856 36.4687 40.2626 36.3867ZM37.7045 31.6466C37.2205 31.5902 36.7519 31.6825 36.3473 31.89L37.9503 28.0825L38.5879 31.9361C38.3242 31.7875 38.0246 31.6876 37.7045 31.6492V31.6466Z" fill="#D5B530"/>
<path d="M40.0984 40.0046L45.6602 32.569L41.9754 24.0444L39.2022 17.626L35.0129 23.2245L29.4512 30.6601L33.136 39.1847V39.1898L35.9092 45.6031L40.0959 40.0072L40.0984 40.0046ZM40.1727 22.0689C39.7348 21.8357 39.2483 21.6794 38.7336 21.6205C38.2189 21.559 37.7093 21.5975 37.2305 21.723L38.9999 19.3581L40.1727 22.0689ZM30.455 30.778L35.7095 23.7549C36.4008 22.8325 37.4917 22.3584 38.6312 22.4942C39.7681 22.6275 40.7207 23.3398 41.179 24.4005L44.659 32.4537L39.4045 39.4768C38.7131 40.3992 37.6223 40.8706 36.4828 40.7374C35.3458 40.6042 34.3933 39.8919 33.9349 38.8311L30.455 30.778ZM34.9413 41.1627C35.3791 41.3959 35.8631 41.5496 36.3803 41.6111C36.8976 41.6726 37.4046 41.6342 37.8835 41.5086L36.114 43.8736L34.9413 41.1627Z" fill="#D5B530"/>
<path d="M29.725 17.9308C29.2974 17.2775 28.8877 16.66 28.4933 16.0373C28.4549 15.9784 28.4728 15.8631 28.5241 15.8119C29.0311 15.2917 29.5483 14.7767 30.104 14.2207C30.5367 14.8792 30.949 15.4941 31.3434 16.1168C31.3843 16.1808 31.3485 16.3038 31.2896 16.3653C30.7902 16.8777 30.2781 17.3799 29.725 17.9308Z" fill="#D5B530"/>
<path d="M45.3402 49.4748C44.9126 48.8214 44.5029 48.2039 44.1086 47.5813C44.0701 47.5223 44.0881 47.407 44.1393 47.3558C44.6463 46.8357 45.1636 46.3207 45.7192 45.7646C46.152 46.4231 46.5642 47.0381 46.9586 47.6607C46.9996 47.7248 46.9637 47.8477 46.9048 47.9092C46.4055 48.4217 45.8933 48.9239 45.3402 49.4748Z" fill="#D5B530"/>
</g>
<defs>
<linearGradient id="paint0_linear_956_21427" x1="15.5653" y1="22.0627" x2="40.9715" y2="25.6199" gradientUnits="userSpaceOnUse">
<stop stop-color="#EFEFEF"/>
<stop offset="1" stop-color="#616268"/>
</linearGradient>
<linearGradient id="paint1_linear_956_21427" x1="3.27917" y1="13.9625" x2="41.6566" y2="31.5527" gradientUnits="userSpaceOnUse">
<stop stop-color="#E7E7E7"/>
<stop offset="0.08" stop-color="#EDEDED"/>
<stop offset="0.29" stop-color="#FAFAFA"/>
<stop offset="0.49" stop-color="white"/>
<stop offset="0.57" stop-color="#F8F8F8"/>
<stop offset="0.67" stop-color="#E5E5E5"/>
<stop offset="0.79" stop-color="#C6C6C7"/>
<stop offset="0.92" stop-color="#9C9C9D"/>
<stop offset="1" stop-color="#808082"/>
</linearGradient>
<linearGradient id="paint2_linear_956_21427" x1="17.5353" y1="22.9368" x2="42.4054" y2="34.3372" gradientUnits="userSpaceOnUse">
<stop stop-color="#616268"/>
<stop offset="0.23" stop-color="#58595F"/>
<stop offset="0.6" stop-color="#414146"/>
<stop offset="1" stop-color="#222226"/>
</linearGradient>
<linearGradient id="paint3_linear_956_21427" x1="8.91727" y1="14.6772" x2="13.3064" y2="13.0494" gradientUnits="userSpaceOnUse">
<stop stop-color="#FF4E41"/>
<stop offset="0.14" stop-color="#E73F32"/>
<stop offset="0.39" stop-color="#C2281C"/>
<stop offset="0.63" stop-color="#A7180D"/>
<stop offset="0.84" stop-color="#960E03"/>
<stop offset="1" stop-color="#910B00"/>
</linearGradient>
<linearGradient id="paint4_linear_956_21427" x1="31.2217" y1="32.8828" x2="35.6108" y2="31.255" gradientUnits="userSpaceOnUse">
<stop stop-color="#FF4E41"/>
<stop offset="0.14" stop-color="#E73F32"/>
<stop offset="0.39" stop-color="#C2281C"/>
<stop offset="0.63" stop-color="#A7180D"/>
<stop offset="0.84" stop-color="#960E03"/>
<stop offset="1" stop-color="#910B00"/>
</linearGradient>
<linearGradient id="paint5_linear_956_21427" x1="16.0096" y1="25.2" x2="28.9417" y2="20.4038" gradientUnits="userSpaceOnUse">
<stop stop-color="#FF4E41"/>
<stop offset="0.14" stop-color="#E73F32"/>
<stop offset="0.39" stop-color="#C2281C"/>
<stop offset="0.63" stop-color="#A7180D"/>
<stop offset="0.84" stop-color="#960E03"/>
<stop offset="1" stop-color="#910B00"/>
</linearGradient>
<linearGradient id="paint6_linear_956_21427" x1="30.9695" y1="27.6455" x2="55.4747" y2="44.2617" gradientUnits="userSpaceOnUse">
<stop stop-color="#ECECEC"/>
<stop offset="1" stop-color="#616268"/>
</linearGradient>
<linearGradient id="paint7_linear_956_21427" x1="22.3303" y1="12.9552" x2="53.1515" y2="50.7495" gradientUnits="userSpaceOnUse">
<stop stop-color="#E4E4E4"/>
<stop offset="0.1" stop-color="#EDEDED"/>
<stop offset="0.31" stop-color="#FAFAFA"/>
<stop offset="0.49" stop-color="white"/>
<stop offset="0.57" stop-color="#F8F8F8"/>
<stop offset="0.67" stop-color="#E5E5E5"/>
<stop offset="0.79" stop-color="#C6C6C6"/>
<stop offset="0.92" stop-color="#9C9C9C"/>
<stop offset="1" stop-color="#808080"/>
</linearGradient>
<linearGradient id="paint8_linear_956_21427" x1="32.412" y1="29.4583" x2="52.8527" y2="54.5235" gradientUnits="userSpaceOnUse">
<stop stop-color="#616268"/>
<stop offset="0.23" stop-color="#58595F"/>
<stop offset="0.6" stop-color="#414146"/>
<stop offset="1" stop-color="#222226"/>
</linearGradient>
<clipPath id="clip0_956_21427">
<rect width="52.795" height="58" fill="white" transform="translate(3)"/>
</clipPath>
</defs>
</svg>
