<svg width="58" height="58" viewBox="0 0 58 58" fill="none" xmlns="http://www.w3.org/2000/svg">
<mask id="mask0_956_22115" style="mask-type:alpha" maskUnits="userSpaceOnUse" x="10" y="14" width="42" height="45">
<rect x="10" y="14" width="41.8038" height="44.0634" fill="#D9D9D9"/>
</mask>
<g mask="url(#mask0_956_22115)">
</g>
<path d="M26.4201 4.96537L5.64452 12.68C4.849 12.9754 4.44342 13.8601 4.73864 14.6561L16.3337 45.9204C16.629 46.7164 17.5132 47.1222 18.3087 46.8268L39.0843 39.1122C39.8798 38.8168 40.2854 37.932 39.9902 37.136L28.3951 5.8718C28.0999 5.07579 27.2156 4.66997 26.4201 4.96537Z" fill="url(#paint0_linear_956_22115)"/>
<path d="M25.108 4.57482L4.54845 12.2092C3.69326 12.5267 3.25727 13.4779 3.57463 14.3336L15.0896 45.3816C15.4069 46.2373 16.3574 46.6736 17.2126 46.356L37.7722 38.7216C38.6274 38.4041 39.0633 37.453 38.746 36.5973L27.2311 5.54923C26.9137 4.69352 25.9632 4.25727 25.108 4.57482Z" fill="url(#paint1_linear_956_22115)"/>
<g opacity="0.06">
<path d="M11.1877 36.6185C11.1877 36.6185 30.5029 30.8407 29.5554 7.93164L40.6969 37.441L39.8826 39.6702L16.6675 49.6475C16.6675 49.6475 10.1993 41.5252 11.1877 36.6185Z" fill="url(#paint2_linear_956_22115)"/>
</g>
<path d="M16.9373 44.866C16.3637 44.866 15.8208 44.5124 15.6109 43.9436L4.90982 15.085C4.63839 14.3548 5.01225 13.5374 5.74204 13.2658L24.545 6.28628C24.8984 6.15561 25.2825 6.16842 25.6257 6.32728C25.9688 6.48613 26.23 6.76542 26.3606 7.12157L37.0616 35.9801C37.333 36.7104 36.9592 37.5277 36.2294 37.7993L17.4264 44.7814C17.2651 44.8404 17.0986 44.8685 16.9373 44.8685V44.866ZM25.0367 6.58094C24.9163 6.58094 24.7934 6.60144 24.6782 6.645L5.87519 13.6245C5.34257 13.8218 5.07114 14.4163 5.26831 14.9492L15.9694 43.8078C16.1665 44.3407 16.7606 44.6123 17.2932 44.415L36.0962 37.4329C36.6289 37.2356 36.9003 36.6412 36.7031 36.1082L26.0021 7.24969C25.9073 6.9909 25.7153 6.78592 25.4669 6.67318C25.3312 6.60912 25.1852 6.57838 25.0393 6.57838L25.0367 6.58094Z" fill="#CECECE"/>
<path d="M8.40987 14.7083L9.65436 14.2471L12.7656 17.8188L11.5493 18.2698L10.9219 17.4909L9.55705 17.9982L9.59034 18.9975L8.37402 19.4484L8.40475 14.7108L8.40987 14.7083ZM10.2868 16.6786L9.47255 15.6307L9.4495 15.6384L9.51608 16.963L10.2868 16.6761V16.6786Z" fill="url(#paint3_linear_956_22115)"/>
<path d="M30.7136 32.9153L31.9581 32.4541L35.0693 36.0259L33.853 36.4768L33.2256 35.6979L31.8608 36.2052L31.8941 37.2045L30.6777 37.6555L30.7085 32.9179L30.7136 32.9153ZM32.5906 34.8857L31.7763 33.8377L31.7532 33.8454L31.8198 35.1701L32.5906 34.8831V34.8857Z" fill="url(#paint4_linear_956_22115)"/>
<path d="M18.0899 44.384C18.5365 43.8446 18.3009 42.9119 17.5636 42.3007C16.8263 41.6895 15.8666 41.6314 15.42 42.1708C14.9734 42.7102 15.209 43.6429 15.9463 44.2541C16.6836 44.8653 17.6433 44.9234 18.0899 44.384Z" fill="white"/>
<path d="M19.7199 21.5929C19.7737 21.37 19.8095 21.1625 19.8761 20.9652C20.3524 19.5508 21.3587 18.7617 22.8081 18.5311C24.3726 18.2825 25.8271 18.9999 26.5799 20.3784C27.0152 21.1727 27.133 22.0413 27.0921 22.9381C27.0281 24.3371 26.5979 25.6387 26.0089 26.8942C25.3252 28.3496 24.4623 29.6973 23.4892 30.9759C23.3714 31.1296 23.269 31.2321 23.036 31.1834C21.4791 30.8452 19.958 30.4019 18.4985 29.7588C17.2002 29.1849 15.989 28.4726 15.0057 27.4272C14.3066 26.6841 13.7817 25.836 13.669 24.8009C13.5103 23.366 14.0711 22.2284 15.2208 21.4033C16.2604 20.6577 17.4127 20.463 18.6265 20.9421C18.9594 21.0728 19.2539 21.3034 19.5637 21.4904C19.6123 21.5186 19.6559 21.5571 19.7148 21.6006L19.7199 21.5929Z" fill="url(#paint5_linear_956_22115)"/>
<path d="M49.0313 17.3001L28.3941 15.1953C26.7548 15.0281 25.2903 16.2224 25.1232 17.8628L21.8211 50.2792C21.654 51.9196 22.8475 53.3849 24.4869 53.5521L45.124 55.6569C46.7634 55.8241 48.2278 54.6299 48.3949 52.9895L51.6971 20.5731C51.8642 18.9327 50.6706 17.4673 49.0313 17.3001Z" fill="url(#paint6_linear_956_22115)"/>
<path d="M48.0908 16.3285L27.4537 14.2236C25.8143 14.0564 24.3499 15.2507 24.1828 16.8911L20.8806 49.3075C20.7135 50.9479 21.9071 52.4132 23.5464 52.5804L44.1836 54.6852C45.8229 54.8524 47.2874 53.6582 47.4545 52.0178L50.7566 19.6014C50.9237 17.961 49.7302 16.4957 48.0908 16.3285Z" fill="url(#paint7_linear_956_22115)"/>
<g opacity="0.06">
<path d="M21.1398 40.3872C21.1398 40.3872 42.1842 43.9236 51.9795 21.7188L48.7893 54.9594L46.9752 56.6966L20.2637 55.3266C20.2637 55.3266 17.9083 44.5868 21.1375 40.3872H21.1398Z" fill="url(#paint8_linear_956_22115)"/>
</g>
<path d="M44.0279 53.1908C43.9568 53.1908 43.8834 53.1862 43.8123 53.1793L23.8136 51.1392C22.6692 51.0222 21.8344 49.9964 21.9514 48.8512L25.1415 17.5566C25.2585 16.4115 26.2814 15.5784 27.4281 15.6932L47.4267 17.7333C47.9818 17.7907 48.4794 18.0592 48.8326 18.4906C49.1858 18.922 49.3463 19.4659 49.2913 20.0212L46.1011 51.3159C46.0438 51.8712 45.7755 52.3692 45.3443 52.7226C44.9682 53.0278 44.5095 53.1931 44.0302 53.1931L44.0279 53.1908ZM27.2148 16.1407C26.3914 16.1407 25.6828 16.7672 25.5979 17.6048L22.4078 48.8994C22.316 49.7921 22.9696 50.593 23.8618 50.6848L43.8605 52.7249C44.2916 52.7708 44.7159 52.6423 45.053 52.3669C45.3902 52.0915 45.5989 51.7037 45.6448 51.27L48.8349 19.9753C48.8785 19.5439 48.7523 19.1194 48.4771 18.782C48.2019 18.4447 47.8143 18.2359 47.3809 18.19L27.3822 16.1499C27.3272 16.143 27.2698 16.1407 27.2171 16.1407H27.2148Z" fill="#CBCBCB"/>
<path d="M24.0698 50.9882C24.7457 50.6845 24.9572 49.6885 24.5422 48.7635C24.1271 47.8385 23.2427 47.3349 22.5667 47.6386C21.8907 47.9423 21.6792 48.9383 22.0943 49.8633C22.5093 50.7882 23.3938 51.2919 24.0698 50.9882Z" fill="white"/>
<path d="M38.0883 38.5063L36.3683 28.1016L32.325 37.7077C32.325 37.7077 32.2493 37.9257 32.1094 38.0107L32.3617 38.0405L32.7538 38.0864L33.1758 38.1369C33.1758 38.1369 33.0978 38.0451 33.1712 37.8271L33.5313 36.9734C33.7744 37.7376 34.451 38.3319 35.3064 38.4329C35.8706 38.4995 36.4096 38.3388 36.8292 38.0244L36.4371 37.2786C36.1687 37.5287 35.7972 37.6641 35.4027 37.6182C34.6964 37.5356 34.1895 36.8977 34.2721 36.1977C34.3546 35.4978 34.9968 34.9952 35.7032 35.0779C35.9853 35.11 36.2353 35.2339 36.4279 35.4129L36.6893 35.1169L37.2054 38.231H37.2031C37.2558 38.5201 37.1366 38.605 37.1366 38.605L37.5586 38.6555L37.9507 38.7014L38.203 38.7312C38.1434 38.6716 38.109 38.5798 38.0883 38.5063ZM35.7972 34.2609C35.3637 34.2104 34.9441 34.293 34.5817 34.4789L36.0174 31.0688L36.5884 34.5202C36.3522 34.3871 36.0839 34.2976 35.7972 34.2632V34.2609Z" fill="#D5B530"/>
<path d="M37.9413 41.7462L42.9227 35.0866L39.6224 27.4517L37.1386 21.7031L33.3866 26.7173L28.4053 33.3769L31.7055 41.0119V41.0164L34.1893 46.7604L37.939 41.7485L37.9413 41.7462ZM38.0078 25.6824C37.6157 25.4735 37.1799 25.3336 36.7189 25.2808C36.258 25.2257 35.8016 25.2601 35.3727 25.3726L36.9575 23.2544L38.0078 25.6824ZM29.3043 33.4825L34.0104 27.1924C34.6296 26.3662 35.6066 25.9417 36.6272 26.0633C37.6455 26.1826 38.4986 26.8206 38.9092 27.7707L42.0259 34.9833L37.3198 41.2735C36.7006 42.0996 35.7236 42.5219 34.703 42.4025C33.6847 42.2832 32.8316 41.6452 32.4211 40.6952L29.3043 33.4825ZM33.3224 42.7835C33.7146 42.9923 34.148 43.13 34.6113 43.1851C35.0746 43.2401 35.5287 43.2057 35.9575 43.0933L34.3728 45.2114L33.3224 42.7835Z" fill="#D5B530"/>
<path d="M28.6509 21.9762C28.2679 21.3911 27.901 20.838 27.5478 20.2804C27.5134 20.2276 27.5295 20.1243 27.5753 20.0784C28.0294 19.6126 28.4927 19.1513 28.9904 18.6533C29.378 19.2431 29.7472 19.7939 30.1004 20.3515C30.1371 20.4089 30.105 20.519 30.0522 20.5741C29.605 21.0331 29.1463 21.4829 28.6509 21.9762Z" fill="#D5B530"/>
<path d="M42.6363 50.2282C42.2533 49.643 41.8863 49.09 41.5332 48.5323C41.4988 48.4795 41.5148 48.3763 41.5607 48.3304C42.0148 47.8645 42.478 47.4033 42.9757 46.9053C43.3633 47.495 43.7326 48.0458 44.0857 48.6035C44.1224 48.6608 44.0903 48.771 44.0376 48.826C43.5904 49.285 43.1317 49.7348 42.6363 50.2282Z" fill="#D5B530"/>
<path d="M41.5 23C47.299 23 52 18.299 52 12.5C52 6.70101 47.299 2 41.5 2C35.701 2 31 6.70101 31 12.5C31 18.299 35.701 23 41.5 23Z" fill="#FF4E41"/>
<path d="M41.3861 20.2897C45.626 20.2897 49.0631 16.8525 49.0631 12.6126C49.0631 8.37269 45.626 4.93555 41.3861 4.93555C37.1461 4.93555 33.709 8.37269 33.709 12.6126C33.709 16.8525 37.1461 20.2897 41.3861 20.2897Z" fill="white"/>
<path d="M39.0156 9.72335V15.4887C39.0156 16.062 39.6517 16.4059 40.132 16.0933L44.5456 13.2101C44.9813 12.9252 44.9813 12.2868 44.5456 12.002L40.132 9.11869C39.6517 8.8049 39.0156 9.15007 39.0156 9.72335Z" fill="url(#paint9_linear_956_22115)"/>
<defs>
<linearGradient id="paint0_linear_956_22115" x1="14.2626" y1="24.7599" x2="39.6688" y2="28.3172" gradientUnits="userSpaceOnUse">
<stop stop-color="#EFEFEF"/>
<stop offset="1" stop-color="#616268"/>
</linearGradient>
<linearGradient id="paint1_linear_956_22115" x1="1.97644" y1="16.6597" x2="40.3539" y2="34.2499" gradientUnits="userSpaceOnUse">
<stop stop-color="#E7E7E7"/>
<stop offset="0.08" stop-color="#EDEDED"/>
<stop offset="0.29" stop-color="#FAFAFA"/>
<stop offset="0.49" stop-color="white"/>
<stop offset="0.57" stop-color="#F8F8F8"/>
<stop offset="0.67" stop-color="#E5E5E5"/>
<stop offset="0.79" stop-color="#C6C6C7"/>
<stop offset="0.92" stop-color="#9C9C9D"/>
<stop offset="1" stop-color="#808082"/>
</linearGradient>
<linearGradient id="paint2_linear_956_22115" x1="16.2326" y1="25.6341" x2="41.1026" y2="37.0345" gradientUnits="userSpaceOnUse">
<stop stop-color="#616268"/>
<stop offset="0.23" stop-color="#58595F"/>
<stop offset="0.6" stop-color="#414146"/>
<stop offset="1" stop-color="#222226"/>
</linearGradient>
<linearGradient id="paint3_linear_956_22115" x1="7.61454" y1="17.3745" x2="12.0037" y2="15.7467" gradientUnits="userSpaceOnUse">
<stop stop-color="#FF4E41"/>
<stop offset="0.14" stop-color="#E73F32"/>
<stop offset="0.39" stop-color="#C2281C"/>
<stop offset="0.63" stop-color="#A7180D"/>
<stop offset="0.84" stop-color="#960E03"/>
<stop offset="1" stop-color="#910B00"/>
</linearGradient>
<linearGradient id="paint4_linear_956_22115" x1="29.919" y1="35.5801" x2="34.3081" y2="33.9523" gradientUnits="userSpaceOnUse">
<stop stop-color="#FF4E41"/>
<stop offset="0.14" stop-color="#E73F32"/>
<stop offset="0.39" stop-color="#C2281C"/>
<stop offset="0.63" stop-color="#A7180D"/>
<stop offset="0.84" stop-color="#960E03"/>
<stop offset="1" stop-color="#910B00"/>
</linearGradient>
<linearGradient id="paint5_linear_956_22115" x1="14.7069" y1="27.8972" x2="27.6389" y2="23.101" gradientUnits="userSpaceOnUse">
<stop stop-color="#FF4E41"/>
<stop offset="0.14" stop-color="#E73F32"/>
<stop offset="0.39" stop-color="#C2281C"/>
<stop offset="0.63" stop-color="#A7180D"/>
<stop offset="0.84" stop-color="#960E03"/>
<stop offset="1" stop-color="#910B00"/>
</linearGradient>
<linearGradient id="paint6_linear_956_22115" x1="29.7656" y1="30.6772" x2="51.7133" y2="45.5593" gradientUnits="userSpaceOnUse">
<stop stop-color="#ECECEC"/>
<stop offset="1" stop-color="#616268"/>
</linearGradient>
<linearGradient id="paint7_linear_956_22115" x1="22.0278" y1="17.5202" x2="49.6324" y2="51.3701" gradientUnits="userSpaceOnUse">
<stop stop-color="#E4E4E4"/>
<stop offset="0.1" stop-color="#EDEDED"/>
<stop offset="0.31" stop-color="#FAFAFA"/>
<stop offset="0.49" stop-color="white"/>
<stop offset="0.57" stop-color="#F8F8F8"/>
<stop offset="0.67" stop-color="#E5E5E5"/>
<stop offset="0.79" stop-color="#C6C6C6"/>
<stop offset="0.92" stop-color="#9C9C9C"/>
<stop offset="1" stop-color="#808080"/>
</linearGradient>
<linearGradient id="paint8_linear_956_22115" x1="31.0576" y1="32.3004" x2="49.365" y2="54.7497" gradientUnits="userSpaceOnUse">
<stop stop-color="#616268"/>
<stop offset="0.23" stop-color="#58595F"/>
<stop offset="0.6" stop-color="#414146"/>
<stop offset="1" stop-color="#222226"/>
</linearGradient>
<linearGradient id="paint9_linear_956_22115" x1="39.0156" y1="12.6054" x2="44.8727" y2="12.6054" gradientUnits="userSpaceOnUse">
<stop stop-color="#FF4E41"/>
<stop offset="0.26" stop-color="#D6291C"/>
<stop offset="0.38" stop-color="#BF1F12"/>
<stop offset="0.59" stop-color="#9E1005"/>
<stop offset="0.71" stop-color="#920B00"/>
<stop offset="0.97" stop-color="#4D0024"/>
</linearGradient>
</defs>
</svg>
