<svg xmlns="http://www.w3.org/2000/svg" width="129" height="24" viewBox="0 0 129 24" fill="none"><path d="M63.15 6.98c-3.669 0-6.25 2.73-6.27 7.134 0 4.03 3.113 6.517 6.291 6.517 1.899 0 3.072-.308 3.755-.88v-2.224a7.243 7.243 0 0 1-3.136.66c-1.962 0-3.54-1.1-3.797-2.862l-.02-.154h2.281c2.155 0 3.67-.198 4.629-.683.96-.484 1.365-1.233 1.365-2.422 0-3.148-2.453-5.086-5.098-5.086Zm1.493 5.79c-.597.22-1.535.309-3.093.309h-1.6v-.154l.022-.44c.064-1.586 1.216-2.995 2.88-2.995a3.078 3.078 0 0 1 1.877.528c.237.188.427.433.553.712.126.28.185.587.172.896.021.528-.213.925-.81 1.145Zm5.183-.704v8.345h3.008v-7.728c0-1.035.192-1.784.618-2.29.427-.507 1.024-.705 1.77-.705.272-.002.544.02.811.066V7.288a3.242 3.242 0 0 0-1.514-.33c-3.37.022-4.693 2.488-4.693 5.108Zm-36.495 8.345v-16.8h-2.986v16.8h2.986ZM41.415 6.98c-4.01 0-5.738 2.818-5.759 5.593v7.838h2.986v-7.618a3.745 3.745 0 0 1 .683-2.312c.222-.27.5-.486.814-.63a2.24 2.24 0 0 1 .999-.207c.853 0 1.557.264 2.047.815.491.55.726 1.431.726 2.576v7.376h2.986V12.75c0-3.721-2.474-5.77-5.482-5.77Zm10.75-3.369H49.2v12.132c.022 3.083 1.515 4.888 4.757 4.91 1.386 0 2.197-.462 2.538-1.21v-1.916c-.533.242-1.258.352-2.154.352-.683 0-1.237-.176-1.621-.595-.384-.418-.576-1.056-.576-1.96v-5.68h2.602c1.28 0 1.813-.837 1.813-1.453V6.958h-4.394V3.61Zm56.631 3.369c-4.01 0-5.738 2.818-5.759 5.593l.021 7.838h2.965v-7.618c0-.991.256-1.762.683-2.312a2.31 2.31 0 0 1 .814-.63 2.24 2.24 0 0 1 .999-.207c.853 0 1.557.264 2.047.837.491.572.726 1.409.726 2.554v7.376h2.964V12.75c.022-3.721-2.431-5.77-5.46-5.77Zm-24.85 0c-1.684 0-2.73 1.035-3.348 1.982l-.235.352V3.61h-2.965v10.415c0 4.425 2.581 6.627 5.93 6.627 3.818 0 6.228-3.104 6.228-7.068 0-3.897-2.431-6.605-5.61-6.605Zm-.276 11.053c-.982 0-1.856-.286-2.432-1.035-.576-.748-.853-1.893-.853-3.457 0-2.135 1.258-3.875 2.965-3.897 1.002 0 1.813.286 2.367 1.013.555.727.832 1.828.832 3.479-.021 2.224-1.195 3.897-2.88 3.897ZM95.677 6.98c-1.813 0-3.007.506-3.84 1.167v2.158a7.305 7.305 0 0 1 3.35-.749c.98 0 1.834.154 2.325.55.49.397.725 1.08.725 2.048v.309h-1.28c-4.778.022-6.356 1.761-6.356 4.073 0 2.378 2.047 4.117 5.097 4.117h.662c2.837 0 4.799-1.893 4.799-4.668v-3.082c.021-4.69-2.602-5.901-5.482-5.923Zm2.602 9.027c0 .705-.17 1.255-.554 1.652-.384.396-.939.55-1.664.55a2.962 2.962 0 0 1-1.749-.462 1.542 1.542 0 0 1-.487-.587 1.597 1.597 0 0 1-.153-.756c-.019-.279.04-.557.168-.802.128-.246.322-.449.557-.585.512-.309 1.344-.44 2.581-.44h1.301v1.43Zm24.508-2.554-.064-.088.064-.088c1.301-1.695 4.138-4.998 5.183-5.989h-1.642c-1.045 0-1.749.11-2.496.837-1.493 1.453-2.73 3.17-3.988 4.844l-.235.33.022-9.688h-3.008V20.39h3.008v-6.804l.234.33c1.429 1.96 2.88 3.942 4.543 5.704a3.1 3.1 0 0 0 2.048.88c.832 0 1.301-.22 1.621-.616-.853-1.035-4.266-5.153-5.29-6.43ZM3.17 0A3.067 3.067 0 0 0 .984.95a3.268 3.268 0 0 0-.905 2.265V24h20.157a3.07 3.07 0 0 0 2.2-.943c.584-.602.913-1.42.914-2.272V0H3.17Zm14.74 17.328L5.517 19.64V6.738L17.91 4.426v12.902Z" fill="#fff"/></svg>