<svg xmlns="http://www.w3.org/2000/svg" width="129" height="20" viewBox="0 0 129 20" fill="none"><path d="M87.29 11.165c-.974 0-1.948.016-2.921-.008-.385-.01-.532.068-.54.508-.04 2.09-.13 4.18-.182 6.272-.008.324-.1.415-.418.412a234.34 234.34 0 0 0-4.743 0c-.338.003-.406-.117-.382-.43.16-2.153.318-4.307.452-6.462.083-1.35.113-2.704.187-4.055.11-2.02.13-4.041.114-6.062-.002-.289.058-.397.367-.394 1.633.015 3.267.014 4.9 0 .301-.002.314.097.295.37-.135 1.874-.238 3.75-.365 5.626-.022.326.047.46.412.457 2.016-.018 4.032-.017 6.049 0 .338.002.439-.1.454-.437.08-1.808.197-3.616.15-5.428-.011-.441.063-.607.552-.595 1.493.037 2.989.028 4.483.004.407-.006.537.09.501.52-.234 2.87-.403 5.746-.526 8.624-.112 2.6-.159 5.2-.17 7.802 0 .38-.118.465-.473.461a220.74 220.74 0 0 0-4.745-.001c-.342.003-.405-.066-.372-.433a93.44 93.44 0 0 0 .373-6.259c.008-.385-.08-.515-.481-.502-.99.03-1.981.01-2.972.01Zm-23.94 2.507c1.141.503 2.23.902 3.39 1.044.847.103 1.698.145 2.524-.146.922-.325 1.154-1.06.58-1.86-.277-.385-.653-.678-1.002-.995-1.174-1.069-2.443-2.034-3.526-3.204-1.805-1.952-1.608-4.86.439-6.513.935-.757 2.04-1.107 3.208-1.251 1.965-.243 3.913-.024 5.857.27.28.043.36.143.374.426.055 1.157.114 2.315.274 3.463.046.33-.03.4-.356.278-1.16-.44-2.355-.713-3.608-.672a3.292 3.292 0 0 0-1.166.24c-.972.403-1.147 1.132-.478 1.953.49.601 1.1 1.069 1.698 1.552 1.042.845 2.094 1.667 2.98 2.702 1.913 2.232.826 5.34-1.162 6.558-1.603.983-3.358 1.175-5.161 1.116-1.335-.044-2.656-.267-3.971-.5-.362-.064-.562-.168-.585-.61-.066-1.256-.195-2.512-.307-3.851h-.002ZM8.913 16.863c.056 1.283-.514 1.89-1.786 1.892-1.72.003-3.44.003-5.16 0-1.218-.002-1.778-.576-1.778-1.813V1.806C.19.585.767.002 1.972.001c1.772 0 3.545-.002 5.317 0 1.006.002 1.623.62 1.639 1.632.01.615.016 1.229.024 1.844.031.275-.19.4-.341.554-.98.997-2.038 1.91-2.998 2.927-.823.87-.826 1.44-.013 2.302.392.415.894.734 1.129 1.29.019.268-.143.462-.27.669-.321.521-.65 1.037-.961 1.564-.509.864-.373 1.48.452 2.007.835.534 1.676 1.061 2.511 1.594.19.121.401.221.451.477l.001.002Zm16.851 1.478c-.782 0-1.563-.006-2.345.004-.265.003-.384-.006-.347-.363.225-2.218.381-4.442.489-6.669.16-3.333.357-6.666.383-10.004.002-.272.08-.364.355-.362 1.615.01 3.23.015 4.846-.002.345-.004.35.166.334.42-.112 1.769-.209 3.54-.328 5.308-.121 1.805-.255 3.607-.304 5.416-.052 1.95-.146 3.898-.207 5.847-.01.315-.108.422-.428.414-.815-.021-1.633-.008-2.448-.008Z" fill="#fff"/><path d="M102.783 1.034c.782 0 1.565.004 2.348-.002.233-.002.341.002.326.328-.089 2.099-.297 4.19-.356 6.291-.044 1.574-.189 3.148-.178 4.724.011 1.827-.181 3.648-.103 5.475.015.333-.117.416-.425.414-1.529-.012-3.06-.015-4.59.001-.344.003-.464-.108-.438-.452.108-1.482.209-2.964.304-4.447.042-.664.049-1.327.099-1.992.096-1.276.046-2.562.142-3.837.152-2.02.063-4.038.085-6.057.005-.337.09-.464.439-.453.782.023 1.564.007 2.347.007Z" fill="#ABABAF"/><path d="M8.913 16.863c-.99-.641-1.974-1.291-2.972-1.92-.991-.624-1.135-1.26-.528-2.279.419-.702.922-1.355 1.247-2.113.358-.821.844-1.569 1.385-2.27.359-.465 1.135-.578 1.673-.263 1.23.72 2.413 1.518 3.617 2.28a.44.44 0 0 1 .186.246c.318.538.909.71 1.38 1.034.899.615 1.861 1.133 2.761 1.746.55.374.953.886.427 1.743-.9 1.467-1.763 2.957-2.711 4.39-.4.602-.936.724-1.674.263-.968-.604-1.927-1.223-2.888-1.837-.51-.326-1.015-.66-1.53-.976-.103-.064-.23-.191-.372-.044Z" fill="#EDEDED"/><path d="M13.522 10.544c-1.22-.766-2.44-1.536-3.663-2.299-.791-.494-1.481-.316-2 .474-.4.61-.708 1.283-1.199 1.832-.434-.455-.87-.907-1.304-1.363-.668-.703-.667-1.487.022-2.174C6.564 5.831 7.76 4.657 8.952 3.478c.95-.742 1.748-1.645 2.606-2.484 1.086-1.061 1.654-1.059 2.695.03 1.073 1.123 2.155 2.238 3.232 3.358.784.814.761 1.516-.048 2.306-1.31 1.28-2.61 2.57-3.915 3.855v.001Z" fill="#ABABAF"/><path d="M61.808 16.653C59.94 11.58 58.055 6.516 56.32 1.396c-.086-.253-.134-.46-.502-.455a296.31 296.31 0 0 1-5.735.004c-.29-.002-.431.103-.55.358-1.593 3.408-3.42 6.694-5.146 10.032-1.067 2.067-2.176 4.113-3.273 6.163-.098.183-.18.552-.47.113-1.817-2.761-3.735-5.452-5.487-8.257-.173-.277-.124-.45.054-.695 1.2-1.637 2.496-3.197 3.742-4.797.737-.944 1.48-1.883 2.285-2.908-2.048 0-3.987 0-5.925-.003-.17 0-.234.113-.313.233-1.694 2.572-3.533 5.04-5.35 7.521-.239.326-.235.535-.03.869 1.691 2.757 3.366 5.525 4.878 8.39.153.288.327.385.646.384a1664.1 1664.1 0 0 1 10.946 0c.33 0 .483-.11.615-.411.613-1.393 1.26-2.77 1.879-4.161.131-.297.3-.408.63-.405 1.841.016 3.684.022 5.526-.003.379-.005.513.155.618.472.451 1.362.938 2.712 1.307 4.101.057.214.088.412.417.408 1.772-.02 3.544-.01 5.377-.01-.237-.614-.45-1.149-.65-1.688l-.001.002Zm-7.848-6.93c-.572-.01-1.145-.004-1.718-.003-.52 0-1.04-.01-1.562.005-.284.007-.382-.05-.24-.35.678-1.437 1.343-2.881 2.015-4.32.041-.086.061-.22.202-.198.104.017.11.125.136.203.468 1.449.933 2.897 1.4 4.346.075.228.008.322-.234.317h.001Z" fill="#fff"/><path d="M128.188 8.642c-.046-.204-.094-.403-.118-.615-.171-1.472-.691-2.812-1.637-3.946-1.939-2.326-4.539-3.207-7.438-3.355-2.226-.113-4.371.252-6.393 1.25-1.131.559-2.167 1.26-2.953 2.256-1.653 2.094-2.175 4.494-1.842 7.138.292 2.321 1.421 4.076 3.287 5.392 1.684 1.188 3.611 1.642 5.607 1.79 1.999.15 3.973-.084 5.858-.82 2.666-1.038 4.431-2.922 5.231-5.722.198-.693.23-1.407.399-2.1V8.641l-.001.001Zm-5.374 1.368c-.136 1.553-.724 2.931-2.046 3.868-.86.61-1.807.97-2.834.903-3.51.047-5.59-2.827-4.719-6.367.512-2.08 1.794-3.463 3.909-3.822 3.694-.628 5.992 1.956 5.69 5.418Z" fill="#ABABAF"/></svg>