<svg width="41" height="27" viewBox="0 0 41 27" fill="none" xmlns="http://www.w3.org/2000/svg">
<path d="M19.6426 23.1308V6.10064C19.6426 4.56371 18.9538 3.05157 17.6746 2.18395C16.3955 1.31633 14.4029 0.498285 11.1313 0.275182L5.67024 0.00250141C4.83386 -0.047077 4.12049 0.64702 4.12049 1.48985L4.07129 19.9826C4.07129 20.5279 4.53867 20.9494 5.07986 20.8998C7.71197 20.6271 14.8703 20.2553 18.8554 23.5522C19.1752 23.8249 19.6672 23.5522 19.6672 23.1308H19.6426Z" fill="white"/>
<path d="M18.8567 25.8329C16.3476 23.8498 13.2973 23.0813 10.2224 22.6599C7.56566 22.3377 4.88435 22.4616 2.25223 22.883V4.48945C2.27683 3.2252 0.333496 3.24999 0.333496 4.48945V24.0481C0.333496 24.6431 0.874678 25.1141 1.44046 25.0149C7.02448 23.9737 12.9775 24.3704 18.0941 26.8989C18.3647 27.0724 18.7337 27.0228 18.9551 26.7501C19.1765 26.4775 19.1273 26.056 18.8567 25.8329Z" fill="white"/>
<path d="M21.2194 23.1308V6.10064C21.2194 4.56371 21.9082 3.05157 23.1874 2.18395C24.4665 1.31633 26.459 0.498285 29.7061 0.275182L35.1918 0.00250141C36.0281 -0.047077 36.7415 0.64702 36.7415 1.48985L36.7907 19.9826C36.7907 20.5279 36.3233 20.9494 35.7821 20.8998C33.15 20.6271 25.9917 20.2553 22.0066 23.5522C21.6868 23.8249 21.1948 23.5522 21.1948 23.1308H21.2194Z" fill="white"/>
<path d="M21.8101 25.8329C24.3192 23.8498 27.3695 23.0813 30.4444 22.6599C33.1011 22.3377 35.7824 22.4616 38.4145 22.883V4.48945C38.4145 3.2252 40.3579 3.24999 40.3333 4.48945V24.0481C40.3333 24.6431 39.7921 25.1141 39.2263 25.0149C33.6423 23.9737 27.6893 24.3704 22.5727 26.8989C22.3021 27.0724 21.9331 27.0228 21.7117 26.7501C21.4903 26.4775 21.5395 26.056 21.8101 25.8329Z" fill="white"/>
</svg>
