<svg width="300" height="48" viewBox="0 0 300 48" fill="none" xmlns="http://www.w3.org/2000/svg">
<path d="M123.348 5.42653C123.621 5.79528 123.769 6.24356 123.769 6.70197V13.7531L114.356 3.52348H110.209L119.935 14.0958H119.211L109.484 3.52348H106.42L107.828 5.42653C108.102 5.79528 108.249 6.24356 108.249 6.70197V21.4882C108.249 21.9466 108.102 22.3948 107.828 22.7636L106.42 24.6652H112.135L110.726 22.7636C110.453 22.3934 110.306 21.9466 110.306 21.4882V8.93183L124.775 24.6594H125.825V6.70197C125.825 6.24356 125.972 5.79528 126.247 5.42653L127.654 3.52348H121.939L123.348 5.42653ZM87.4343 20.9574L89.6006 24.6609L91.7668 20.9574L89.6006 17.254L87.4343 20.9574ZM93.103 24.6609H104.209L101.886 22.0304L94.8686 3.52348H91.6482L95.6524 14.0929H95.0812L91.077 3.52348H87.8667L88.5536 5.33687L82.2863 21.841C82.026 22.5264 81.7614 22.8966 81.6023 23.0774L79.9899 24.6609H85.955L84.2703 23.008C84.1026 22.8431 84.1546 22.6537 84.172 22.6031L89.6541 8.2406L94.6893 21.5171C94.7906 21.8584 94.8788 22.4874 94.4189 23.0499C93.7465 23.8727 93.1015 24.6623 93.1015 24.6623L93.103 24.6609ZM20.1944 20.9589L22.3607 24.6623L24.5269 20.9589L22.3607 17.2569L20.1944 20.9589ZM27.6287 3.52348H24.4083L28.4125 14.0914H27.8413L23.8371 3.52348H20.6268L21.3151 5.33831L15.0464 21.841C14.7861 22.5264 14.5215 22.8981 14.3624 23.0774L12.75 24.6609H18.7151L17.0304 23.008C16.8627 22.8417 16.9147 22.6523 16.9335 22.6031L22.4156 8.2406L27.4509 21.5171C27.5521 21.8584 27.6403 22.4874 27.1804 23.0499C26.508 23.8713 25.8631 24.6623 25.8631 24.6623H36.969L34.6466 22.0319L27.6287 3.52348ZM74.3777 22.619H68.8045V6.71354C68.8045 6.25368 68.952 5.80395 69.2253 5.43376L70.6338 3.52637H65.5783V14.0958H65.0432V3.52782H59.9863L61.4222 5.36434C61.6854 5.70273 61.83 6.1192 61.83 6.54868V21.6443C61.83 22.0738 61.6854 22.4903 61.4222 22.8287L59.9863 24.6652H77.5909L77.896 19.9915C77.896 19.9915 77.225 20.6596 75.737 21.9422C75.2178 22.3298 75.1745 22.6204 74.3777 22.6204V22.619ZM163.701 5.43086L165.109 3.52348H160.052V14.1001H159.517V3.52348H154.462L155.87 5.43086C156.143 5.80106 156.291 6.24935 156.291 6.7092V21.4766C156.291 21.9364 156.143 22.3862 155.87 22.7549L154.462 24.6623H165.109L163.701 22.7549C163.427 22.3847 163.28 21.9364 163.28 21.4766V6.7092C163.28 6.24935 163.427 5.79961 163.701 5.43086ZM141.317 3.52348V14.1001H140.783V3.52348H130.639L130.334 8.19722C130.334 8.19722 131.005 7.53057 132.491 6.2479C133.01 5.86035 133.055 5.56969 133.851 5.56969H137.556V21.4766C137.556 21.9364 137.408 22.3862 137.135 22.7549L135.725 24.6623H146.372L144.964 22.7549C144.69 22.3847 144.543 21.9364 144.543 21.4766V5.56824H148.246C149.043 5.56824 149.087 5.8589 149.606 6.24645C151.092 7.52913 151.763 8.19577 151.763 8.19577L151.458 3.52204H141.314L141.317 3.52348ZM185.121 22.7289C184.905 22.9285 184.647 23.0572 184.381 23.1005C183.894 23.1801 183.385 23.2191 182.868 23.2191C181.078 23.2191 179.754 22.3992 178.435 20.4745C177.183 18.6452 176.548 16.5006 176.548 14.1001C176.548 11.6996 177.151 9.47122 178.342 7.65205C179.593 5.73888 180.921 4.92329 182.782 4.92329C183.269 4.92329 183.743 4.98981 184.192 5.12285C184.394 5.19371 187.247 7.52479 189.116 9.07354L189.227 9.16609L189.137 4.40993L189.104 4.39113C188.488 4.04986 187.532 3.72883 186.262 3.43816C185.084 3.16919 183.914 3.03037 182.766 3.01012C174.525 3.34561 173.577 12.8059 173.488 14.0972H172.951C173.019 13.0893 173.669 6.09172 178.796 3.45985C178.443 3.54951 178.095 3.65218 177.752 3.76932C176.257 4.27834 174.911 5.01295 173.749 5.95579C172.588 6.89864 171.644 8.1307 170.943 9.61872C170.244 11.1053 169.888 12.7755 169.888 14.5817C169.888 16.0306 170.124 17.3697 170.585 18.5656C171.047 19.7615 171.664 20.7738 172.418 21.5735C173.171 22.3703 174.053 23.0572 175.039 23.6153C176.026 24.175 177.051 24.5828 178.085 24.8301C179.119 25.0773 180.166 25.2031 181.195 25.2031C182.705 25.2031 184.187 25.0499 185.599 24.7505C187.01 24.4497 188.168 24.0752 189.043 23.6385L189.077 23.6211L189.35 18.8433L185.12 22.7289H185.121ZM46.8645 3.52348V14.0958H46.3309V3.52348H36.1866L35.8815 8.19722C35.8815 8.19722 36.554 7.53057 38.0405 6.2479C38.5597 5.86035 38.603 5.56969 39.3998 5.56969H43.1033V21.4766C43.1033 21.9364 42.9558 22.3862 42.6824 22.7549L41.274 24.6623H51.9215L50.513 22.7549C50.2397 22.3847 50.0922 21.9364 50.0922 21.4766V5.56824H53.7956C54.5938 5.56824 54.6358 5.8589 55.1563 6.24645C56.6429 7.52913 57.3139 8.19577 57.3139 8.19577L57.0088 3.52204H46.8645V3.52348ZM237.737 6.72077V21.4867C237.737 21.9466 237.885 22.3963 238.158 22.7665L239.566 24.6739H228.919L230.327 22.7665C230.601 22.3963 230.75 21.948 230.75 21.4867V6.72077C230.75 6.26091 230.602 5.81263 230.327 5.44243L228.919 3.53505H233.977V14.1045H234.512V3.53505H239.568L238.159 5.44243C237.886 5.81263 237.739 6.26091 237.739 6.72077H237.737ZM253.229 3.53505V14.1045H252.694V3.53505H242.55L242.245 8.20879C242.245 8.20879 242.916 7.5407 244.402 6.25947C244.923 5.87047 244.966 5.58126 245.763 5.58126H249.466V21.4867C249.466 21.9466 249.319 22.3963 249.046 22.7665L247.637 24.6739H258.285L256.876 22.7665C256.604 22.3963 256.455 21.948 256.455 21.4867V5.57981H260.159C260.955 5.57981 260.999 5.87047 261.519 6.25802C263.006 7.5407 263.677 8.20734 263.677 8.20734L263.372 3.5336H253.228L253.229 3.53505ZM280.145 21.4867V13.9353L286.982 3.53505H280.965L282.707 5.31662C282.965 5.59861 282.998 6.02086 282.788 6.339L278.41 13.0025L273.798 6.52844C273.542 6.16113 273.531 5.67525 273.771 5.29638L274.881 3.53505H268.858L276.394 14.1045H275.737L268.199 3.53505H265.38L273.156 14.4414V21.4882C273.156 21.948 273.009 22.3977 272.735 22.7679L271.327 24.6753H281.974L280.567 22.7679C280.292 22.3977 280.145 21.9495 280.145 21.4882V21.4867ZM219.616 22.7173C219.399 22.9169 219.143 23.0456 218.877 23.089C218.39 23.1685 217.88 23.209 217.365 23.209C215.576 23.209 214.248 22.3891 212.931 20.4643C211.677 18.635 211.043 16.4891 211.043 14.09C211.043 11.691 211.647 9.46109 212.837 7.64192C214.089 5.72876 215.417 4.91317 217.278 4.91317C217.765 4.91317 218.24 4.97969 218.686 5.11273C218.89 5.18358 221.744 7.51467 223.612 9.06342L223.723 9.15597L223.634 4.39981L223.6 4.38101C222.986 4.03973 222.028 3.7187 220.757 3.42804C219.579 3.15907 218.409 3.02025 217.261 3C209.021 3.33549 208.072 12.7958 207.983 14.0871H207.446C207.513 13.0792 208.163 6.0816 213.291 3.44973C212.938 3.53939 212.59 3.64206 212.247 3.75919C210.753 4.26821 209.407 5.00282 208.244 5.94567C207.083 6.88851 206.139 8.12058 205.439 9.60859C204.739 11.0952 204.385 12.7654 204.385 14.573C204.385 16.0205 204.619 17.361 205.08 18.5569C205.542 19.7529 206.158 20.7637 206.914 21.5648C207.667 22.3601 208.549 23.0485 209.536 23.6067C210.522 24.1649 211.547 24.5741 212.581 24.8214C213.615 25.0687 214.661 25.1945 215.69 25.1945C217.2 25.1945 218.682 25.0426 220.094 24.7418C221.505 24.4425 222.663 24.068 223.538 23.6298L223.573 23.6125L223.846 18.8346L219.616 22.7217V22.7173Z" fill="#D4A437"/>
<path d="M101.449 43.2601C100.467 44.417 99.1352 44.9954 97.4549 44.9954C96.8085 44.9954 96.1939 44.8898 95.6111 44.6802C95.0283 44.4705 94.5164 44.1668 94.071 43.7706C93.6271 43.3743 93.28 42.8971 93.0313 42.3404C92.7826 41.7822 92.6582 41.1705 92.6582 40.5053C92.6582 39.6608 92.8592 38.9002 93.2612 38.2205C93.6632 37.5423 94.2098 37.0116 94.904 36.6313C95.5981 36.2509 96.3645 36.0601 97.2047 36.0601C97.9711 36.0601 98.7057 36.2133 99.4114 36.5199C100.116 36.8265 100.75 37.2574 101.316 37.8113L100.39 38.5979C99.9074 38.1887 99.4114 37.872 98.9038 37.6464C98.3963 37.4223 97.8525 37.3095 97.2726 37.3095C96.6479 37.3095 96.0767 37.444 95.5605 37.7115C95.0428 37.979 94.635 38.3593 94.3328 38.8524C94.032 39.3456 93.8816 39.9037 93.8816 40.5285C93.8816 41.1936 94.0493 41.7692 94.3834 42.2551C94.7174 42.741 95.1657 43.1097 95.7282 43.3628C96.2893 43.6158 96.8923 43.7416 97.5358 43.7416C97.867 43.7416 98.1678 43.7142 98.4367 43.6607C98.7057 43.6072 98.9703 43.5189 99.2292 43.3989C99.488 43.2789 99.7295 43.1328 99.9537 42.9637C100.179 42.7945 100.405 42.5963 100.632 42.3693L101.452 43.2615L101.449 43.2601Z" fill="#D4A437"/>
<path d="M111.411 44.7885H110.017L108.795 42.0106H104.969L103.697 44.7885H102.353L106.224 36.2769H107.596L111.411 44.7885ZM108.237 40.7554L106.887 37.788L105.538 40.7554H108.238H108.237Z" fill="#D4A437"/>
<path d="M120.492 42.301C120.492 42.9373 120.284 43.4579 119.867 43.8628C119.451 44.2677 118.936 44.5569 118.321 44.7276C117.707 44.8982 117.086 44.9835 116.459 44.9835C115.588 44.9835 114.812 44.8447 114.128 44.5685C113.444 44.2909 112.8 43.8455 112.197 43.2323L113.068 42.4008C113.437 42.7392 113.797 43.0038 114.149 43.1962C114.502 43.3885 114.877 43.5244 115.27 43.6054C115.664 43.6878 116.118 43.7283 116.631 43.7283C117.01 43.7283 117.4 43.6835 117.802 43.591C118.204 43.4998 118.548 43.3379 118.838 43.1051C119.125 42.8722 119.27 42.5686 119.27 42.1926C119.27 41.9916 119.219 41.8079 119.117 41.6402C119.014 41.4724 118.875 41.3336 118.702 41.2223C118.496 41.0878 118.262 41.0025 117.996 40.9663C117.73 40.9302 117.257 40.9056 116.576 40.894L115.293 40.8723C114.936 40.8607 114.609 40.8101 114.314 40.719C114.019 40.6279 113.753 40.4906 113.519 40.3098C113.285 40.1276 113.1 39.8977 112.964 39.6215C112.828 39.3438 112.76 39.0329 112.76 38.6873C112.76 38.2968 112.858 37.9397 113.053 37.6128C113.249 37.2875 113.507 37.0098 113.831 36.7814C114.155 36.5529 114.504 36.3765 114.88 36.2535C115.367 36.1089 115.86 36.0366 116.358 36.0366C116.689 36.0366 117.008 36.0598 117.316 36.106C117.624 36.1523 117.927 36.2246 118.22 36.3215C118.514 36.4184 118.8 36.5384 119.079 36.6816C119.358 36.8247 119.632 36.9983 119.899 37.2036L119.202 38.1971C118.681 37.8775 118.235 37.649 117.86 37.5131C117.487 37.3771 117.037 37.3092 116.512 37.3092C116.174 37.3092 115.812 37.3497 115.428 37.4321C115.043 37.5145 114.711 37.6577 114.431 37.8616C114.152 38.0669 114.014 38.3373 114.014 38.6757C114.014 39.3308 114.494 39.6576 115.452 39.6576H116.719C117.124 39.6576 117.452 39.6663 117.701 39.6851C117.95 39.7039 118.21 39.7487 118.479 39.821C118.748 39.8933 119.018 40.0119 119.29 40.1753C119.669 40.398 119.964 40.6945 120.174 41.0646C120.384 41.4348 120.489 41.847 120.489 42.2996L120.492 42.301Z" fill="#D4A437"/>
<path d="M124.045 44.7883H122.823V36.2651H124.045V44.7883Z" fill="#D4A437"/>
<path d="M134.956 44.7883H133.724L128.58 38.3012V44.7883H127.358V36.2651H128.569L133.701 42.7797V36.2651H134.956V44.7883Z" fill="#D4A437"/>
<path d="M146.928 40.5385C146.928 41.1487 146.807 41.7286 146.563 42.2795C146.32 42.8305 145.983 43.3077 145.556 43.7126C145.129 44.1175 144.636 44.4328 144.078 44.6583C143.52 44.8839 142.94 44.9953 142.337 44.9953C141.493 44.9953 140.719 44.7914 140.016 44.385C139.313 43.9772 138.761 43.4248 138.359 42.7249C137.957 42.0265 137.756 41.2528 137.756 40.404C137.756 39.5551 137.967 38.8465 138.389 38.1756C138.812 37.5046 139.374 36.9768 140.08 36.5907C140.784 36.206 141.54 36.0137 142.347 36.0137C143.154 36.0137 143.936 36.2132 144.639 36.6109C145.342 37.0086 145.899 37.5566 146.309 38.2537C146.72 38.9507 146.925 39.7127 146.925 40.5385H146.928ZM145.695 40.4719C145.695 39.8617 145.543 39.3136 145.241 38.8263C144.937 38.339 144.529 37.9587 144.016 37.6824C143.503 37.4077 142.943 37.2703 142.337 37.2703C141.731 37.2703 141.148 37.4091 140.636 37.6882C140.125 37.9673 139.718 38.3578 139.423 38.8596C139.128 39.3614 138.979 39.9253 138.979 40.55C138.979 41.1747 139.134 41.6867 139.445 42.1754C139.756 42.6642 140.171 43.0474 140.691 43.3251C141.212 43.6027 141.764 43.7401 142.349 43.7401C142.803 43.7401 143.231 43.6577 143.634 43.4943C144.038 43.3308 144.396 43.098 144.71 42.7944C145.024 42.4907 145.267 42.1422 145.437 41.7488C145.608 41.3541 145.693 40.9289 145.693 40.4719H145.695Z" fill="#D4A437"/>
<path d="M162.581 40.5385C162.581 41.1487 162.459 41.7286 162.215 42.2795C161.972 42.8305 161.635 43.3077 161.208 43.7126C160.782 44.1175 160.289 44.4328 159.73 44.6583C159.172 44.8839 158.592 44.9953 157.989 44.9953C157.145 44.9953 156.371 44.7914 155.668 44.385C154.966 43.9772 154.413 43.4248 154.011 42.7249C153.609 42.0265 153.408 41.2528 153.408 40.404C153.408 39.5551 153.619 38.8465 154.042 38.1756C154.464 37.5046 155.026 36.9768 155.732 36.5907C156.436 36.206 157.193 36.0137 158 36.0137C158.806 36.0137 159.589 36.2132 160.292 36.6109C160.994 37.0086 161.551 37.5566 161.962 38.2537C162.372 38.9507 162.578 39.7127 162.578 40.5385H162.581ZM161.347 40.4719C161.347 39.8617 161.195 39.3136 160.893 38.8263C160.589 38.339 160.182 37.9587 159.668 37.6824C159.155 37.4077 158.595 37.2703 157.989 37.2703C157.383 37.2703 156.801 37.4091 156.289 37.6882C155.777 37.9673 155.371 38.3578 155.076 38.8596C154.781 39.3614 154.632 39.9253 154.632 40.55C154.632 41.1747 154.786 41.6867 155.097 42.1754C155.408 42.6642 155.823 43.0474 156.344 43.3251C156.864 43.6027 157.417 43.7401 158.001 43.7401C158.455 43.7401 158.883 43.6577 159.287 43.4943C159.69 43.3308 160.049 43.098 160.362 42.7944C160.676 42.4907 160.919 42.1422 161.09 41.7488C161.26 41.3541 161.346 40.9289 161.346 40.4719H161.347Z" fill="#D4A437"/>
<path d="M173.033 44.7883H171.801L166.657 38.3012V44.7883H165.436V36.2651H166.646L171.778 42.7797V36.2651H173.033V44.7883Z" fill="#D4A437"/>
<path d="M182.928 44.7883H176.49V36.2651H177.74V43.5447H182.928V44.7883Z" fill="#D4A437"/>
<path d="M186.036 44.7883H184.814V36.2651H186.036V44.7883Z" fill="#D4A437"/>
<path d="M196.946 44.7883H195.714L190.571 38.3012V44.7883H189.349V36.2651H190.559L195.691 42.7797V36.2651H196.946V44.7883Z" fill="#D4A437"/>
<path d="M207.584 44.7883H200.35V36.2651H207.367V37.5203H201.595V39.7516H204.501V40.9837H201.595V43.5447H207.586V44.7883H207.584Z" fill="#D4A437"/>
<path d="M76.414 36.3721L69.7129 40.236L76.414 44.0999L83.1166 40.236L76.414 36.3721Z" fill="#D0A54D"/>
<path d="M74.9014 40.9966C74.9014 41.4825 75.6504 41.6474 76.025 41.6474C76.453 41.6474 76.6627 41.5808 77.0445 41.3914L75.9657 40.2476C75.5911 40.3531 74.9014 40.4847 74.9014 40.9966Z" fill="#D0A54D"/>
<path d="M223.621 36.3721L216.92 40.236L223.621 44.0999L230.324 40.236L223.621 36.3721Z" fill="#D0A54D"/>
<path d="M222.107 40.9966C222.107 41.4825 222.856 41.6474 223.231 41.6474C223.659 41.6474 223.869 41.5808 224.251 41.3914L223.172 40.2476C222.797 40.3531 222.107 40.4847 222.107 40.9966Z" fill="#D0A54D"/>
</svg>
