<svg width="136" height="22" viewBox="0 0 136 22" fill="none" xmlns="http://www.w3.org/2000/svg">
<g clip-path="url(#clip0_925_15395)">
<path fill-rule="evenodd" clip-rule="evenodd" d="M54.849 1.21041C54.9843 1.39469 55.0574 1.61762 55.0576 1.84662V5.35977L50.3901 0.262749H48.3333L53.1565 5.531H52.7966L47.9734 0.262749H46.4528L47.1521 1.21041C47.2875 1.39469 47.3606 1.61762 47.3608 1.84662V9.2139C47.3606 9.4429 47.2875 9.66584 47.1521 9.85011L46.4528 10.7978H49.2883L48.586 9.85011C48.4507 9.66584 48.3776 9.4429 48.3774 9.2139V2.95813L55.5542 10.7948H56.0787V1.84662C56.0789 1.61762 56.152 1.39469 56.2873 1.21041L56.9851 0.262749H54.1497L54.849 1.21041ZM37.0386 8.95411L38.1125 10.7992L39.1835 8.95411L38.1096 7.10896L37.0386 8.95411ZM39.849 10.7992H45.3539L44.2021 9.48994L40.7246 0.262749H39.1277L41.1125 5.52952H40.8304L38.8441 0.262749H37.2516L37.5924 1.16613L34.4823 9.39694C34.4066 9.62126 34.2916 9.8302 34.1429 10.014L33.3437 10.8022H36.304L35.4681 9.97853C35.4415 9.95307 35.4228 9.92045 35.4142 9.88459C35.4056 9.84872 35.4075 9.81113 35.4196 9.7763L38.139 2.60682L40.6365 9.22276C40.6797 9.35109 40.6903 9.4882 40.6675 9.62171C40.6447 9.75522 40.5891 9.8809 40.5057 9.98739L39.852 10.7904L39.849 10.7992ZM3.69197 8.95411L4.76592 10.7992L5.83398 8.95411L4.76004 7.11044L3.69197 8.95411ZM7.37805 0.262749H5.78109L7.76737 5.52805H7.48383L5.49755 0.262749H3.905L4.24731 1.16761L1.13273 9.39694C1.05703 9.62126 0.942101 9.8302 0.793354 10.014L-0.00585938 10.8022H2.9574L2.12146 9.98001C2.09466 9.9547 2.0759 9.92201 2.06754 9.88603C2.05917 9.85005 2.06158 9.81239 2.07445 9.77778L4.79236 2.60682L7.2899 9.22276C7.33242 9.35136 7.34246 9.48856 7.31912 9.62203C7.29578 9.7555 7.2398 9.88104 7.15621 9.98739L6.50244 10.7904H12.0044L10.8526 9.4796L7.37805 0.262749ZM30.5626 9.77778H27.7991V1.85252C27.7985 1.62293 27.8717 1.39928 28.0077 1.21484L28.7056 0.264224H26.1992V5.531H25.9333V0.264224H23.4255L24.138 1.17942C24.2687 1.34819 24.3396 1.55601 24.3393 1.76986V9.29804C24.3394 9.51186 24.2685 9.7196 24.138 9.88849L23.4255 10.8037H32.1566L32.3035 8.47437C32.3035 8.47437 31.97 8.8065 31.2325 9.44565C31.1669 9.49503 31.1165 9.54123 31.0714 9.58266C30.9398 9.70347 30.8525 9.78368 30.5582 9.78368L30.5626 9.77778ZM74.8558 1.22222L75.5551 0.271606H73.0517V5.54281H72.7857V0.262749H70.2794L70.9772 1.21337C71.1125 1.39764 71.1857 1.62057 71.1859 1.84957V9.208C71.1859 9.43749 71.1128 9.66095 70.9772 9.84568L70.2794 10.7948H75.5595L74.8602 9.83978C74.7247 9.65505 74.6516 9.43158 74.6516 9.20209V1.84957C74.6518 1.62057 74.7249 1.39764 74.8602 1.21337L74.8558 1.22222ZM63.7593 0.262749V5.53395H63.4949V0.262749H58.4645L58.3176 2.59206C58.3176 2.59206 58.6497 2.25845 59.3872 1.6193C59.4538 1.56947 59.5046 1.52288 59.5501 1.48117L59.5502 1.48113C59.6812 1.36097 59.7682 1.28127 60.0615 1.28127H61.8994V9.208C61.8994 9.43749 61.8263 9.66095 61.6908 9.84568L60.9915 10.7948H66.2716L65.5693 9.83978C65.4332 9.65534 65.3601 9.43168 65.3607 9.20209V1.27832H67.1971C67.4894 1.27832 67.5776 1.35903 67.7076 1.47808L67.7077 1.47813C67.7535 1.52006 67.8045 1.56675 67.8715 1.61635C68.606 2.2555 68.941 2.5891 68.941 2.5891L68.7941 0.259796L63.7593 0.262749ZM85.4836 9.83978C85.382 9.9367 85.2542 10.0014 85.1163 10.0258C84.8684 10.0651 84.6179 10.0848 84.367 10.0848C83.4855 10.0848 82.8215 9.67593 82.1633 8.71645C81.5343 7.77972 81.2075 6.67114 81.2274 5.54133C81.2274 4.31468 81.5213 3.23417 82.1177 2.32783C82.7377 1.37426 83.3959 0.966855 84.3215 0.966855C84.5582 0.966141 84.7937 0.999952 85.0208 1.06723C85.1221 1.10266 86.5369 2.26436 87.464 3.03489L87.5183 3.08213L87.4742 0.711488L87.4566 0.70263C87.0109 0.47965 86.5376 0.317326 86.0492 0.219942C85.4802 0.088687 84.8992 0.0169586 84.3156 0.00590459C80.2284 0.174182 79.7612 4.88741 79.7142 5.531H79.4483C79.4821 5.02912 79.8038 1.54549 82.3469 0.230275C82.1721 0.274558 81.9987 0.326222 81.8298 0.377886C81.1089 0.619954 80.4367 0.989362 79.845 1.46873C79.2496 1.96349 78.7735 2.58723 78.4522 3.29321C78.0979 4.06886 77.9193 4.91381 77.9292 5.76718C77.922 6.44417 78.039 7.11671 78.2745 7.75107C78.4778 8.30557 78.7867 8.81496 79.1839 9.2508C79.5652 9.65218 80.0033 9.99488 80.4841 10.2678C80.9566 10.5402 81.465 10.7439 81.9943 10.8731C82.4995 10.9958 83.0173 11.0582 83.5369 11.059C84.2705 11.061 85.0023 10.9853 85.7201 10.8332C86.31 10.721 86.8839 10.5361 87.4287 10.2826L87.4449 10.2738L87.5815 7.89426L85.4836 9.83978ZM16.9187 0.262749V5.531H16.6527V0.262749H11.6224L11.4755 2.59206C11.4755 2.59206 11.809 2.25845 12.5465 1.6193C12.6121 1.56992 12.6625 1.52371 12.7076 1.48228C12.8392 1.36148 12.9266 1.28127 13.2208 1.28127H15.0573V9.208C15.0573 9.43749 14.9842 9.66095 14.8486 9.84568L14.1493 10.7948H19.4382L18.7272 9.83978C18.5917 9.65505 18.5185 9.43158 18.5186 9.20209V1.27832H20.355C20.648 1.27832 20.7358 1.35887 20.8653 1.47774C20.9111 1.51977 20.9622 1.5666 21.0293 1.61635C21.7639 2.2555 22.1003 2.5891 22.1003 2.5891L21.9534 0.259796L16.9187 0.262749ZM111.578 1.85548V9.2139C111.578 9.44346 111.651 9.66705 111.787 9.85158L112.486 10.8007H107.205L107.903 9.85158C108.039 9.66719 108.113 9.44361 108.113 9.2139V1.85548C108.113 1.62622 108.039 1.40312 107.903 1.21927L107.205 0.268654H109.714V5.53543H109.979V0.268654H112.494L111.794 1.21927C111.659 1.40325 111.585 1.62637 111.586 1.85548H111.578ZM119.268 0.268654V5.53543H119.004V0.268654H113.963L113.816 2.59796C113.816 2.59796 114.149 2.26436 114.887 1.6252C114.954 1.57536 115.004 1.52876 115.05 1.48704C115.181 1.36687 115.268 1.28717 115.561 1.28717H117.398V9.2139C117.398 9.44336 117.324 9.66676 117.189 9.85158L116.491 10.8007H121.771L121.072 9.85158C120.937 9.66676 120.864 9.44336 120.863 9.2139V1.28717H122.701C122.993 1.28717 123.08 1.36738 123.21 1.48582C123.256 1.52806 123.308 1.57515 123.376 1.6252C124.11 2.26436 124.445 2.59796 124.445 2.59796L124.298 0.268654H119.268ZM132.617 9.2139V5.45129L136 0.268654H133.016L133.88 1.15432C133.942 1.22319 133.979 1.31058 133.986 1.40292C133.993 1.49527 133.97 1.58741 133.92 1.66506L131.747 4.98484L129.461 1.761C129.399 1.67139 129.364 1.56539 129.362 1.45619C129.359 1.347 129.388 1.23945 129.446 1.14694L129.997 0.261273H127.01L130.748 5.52805H130.417L126.686 0.268654H125.287L129.144 5.70666V9.21833C129.143 9.44779 129.07 9.67119 128.935 9.85601L128.236 10.8052H133.516L132.818 9.85601C132.683 9.67119 132.609 9.44779 132.609 9.21833L132.617 9.2139ZM102.59 9.83092C102.489 9.92683 102.362 9.99095 102.224 10.0154C101.976 10.0554 101.725 10.0751 101.474 10.0745C100.592 10.0745 99.9282 9.66707 99.27 8.7076C98.6412 7.7702 98.3145 6.66123 98.3341 5.531C98.3089 4.39257 98.6203 3.27221 99.2289 2.31159C99.8488 1.35803 100.507 0.952094 101.433 0.952094C101.669 0.951002 101.904 0.984314 102.13 1.05099C102.232 1.08642 103.647 2.24812 104.574 3.02013L104.629 3.06589L104.584 0.695251L104.56 0.68787C104.113 0.468914 103.639 0.309148 103.15 0.212561C102.581 0.0816041 102 0.0103682 101.416 0C97.3307 0.166801 96.8621 4.88003 96.815 5.52362H96.5491C96.5829 5.02174 96.9047 1.53811 99.4478 0.222893C99.2729 0.268653 99.0996 0.318841 98.9306 0.377886C98.2099 0.619766 97.5378 0.988646 96.9458 1.46726C96.3505 1.96167 95.8747 2.58553 95.5545 3.29173C95.1995 4.06715 95.0209 4.91226 95.0315 5.7657C95.0237 6.44323 95.1407 7.11635 95.3768 7.75107C95.5813 8.30588 95.8923 8.81494 96.292 9.24933C96.6717 9.6519 97.1095 9.99475 97.5908 10.2664C98.0636 10.5389 98.5726 10.7427 99.1025 10.8716C99.6071 10.9943 100.124 11.0567 100.644 11.0576C101.377 11.0593 102.109 10.9841 102.827 10.8332C103.417 10.721 103.991 10.5361 104.535 10.2826L104.553 10.2738L104.688 7.89426L102.59 9.83092ZM37.1267 16.5413H36.4215L34.4191 20.9623H35.1169L35.7722 19.5201H37.7496L38.3814 20.9623H39.1012L37.1267 16.5413ZM36.0645 18.8677L36.7609 17.3252L37.4573 18.8677H36.0645ZM39.9284 20.1667C40.5608 20.8125 41.2329 21.0739 42.1289 21.0745C42.9912 21.0738 44.2109 20.753 44.2109 19.681C44.2141 19.4583 44.1585 19.2387 44.0495 19.0447C43.9406 18.8507 43.7823 18.6893 43.5909 18.5769C43.159 18.3097 42.7579 18.3097 42.2687 18.3097H41.612C41.2638 18.3097 40.8686 18.233 40.8686 17.8005C40.8686 17.2248 41.731 17.0875 42.1615 17.0875C42.7344 17.0875 43.0709 17.2558 43.5498 17.551L43.9097 17.0344C43.3818 16.6369 42.7388 16.4243 42.0792 16.4292C41.8208 16.4281 41.5637 16.4664 41.3167 16.5428C40.7555 16.7259 40.2193 17.1598 40.2193 17.8064C40.2193 18.5651 40.8451 18.9267 41.5297 18.94L42.1908 18.9504C42.8402 18.9622 43.0591 18.9754 43.2898 19.1231C43.3782 19.1743 43.4517 19.2478 43.5033 19.3364C43.5548 19.4249 43.5825 19.5254 43.5836 19.6279C43.5836 20.2744 42.7095 20.422 42.2188 20.422C41.4519 20.422 40.9435 20.2626 40.3765 19.7342L39.9284 20.1667ZM46.4734 16.5399H45.8417V20.9652H46.4734V16.5399ZM49.2369 17.5953L51.8945 20.9652H52.5321V16.5399H51.8828V19.9216L49.231 16.5399H48.6051V20.9652H49.2369V17.5953ZM56.7721 16.4203C55.5086 16.4203 54.3979 17.399 54.3979 18.6979C54.3936 19.0118 54.4518 19.3233 54.5691 19.6142C54.6865 19.9051 54.8605 20.1695 55.0811 20.3917C55.3016 20.614 55.5642 20.7897 55.8533 20.9085C56.1425 21.0273 56.4524 21.0867 56.7647 21.0833C58.0414 21.0833 59.1389 20.0751 59.1389 18.7703C59.1391 18.4592 59.0778 18.1513 58.9586 17.8642C58.8394 17.5772 58.6646 17.3168 58.4444 17.0981C58.2242 16.8795 57.963 16.707 57.6759 16.5907C57.3889 16.4743 57.0816 16.4164 56.7721 16.4203ZM56.7721 20.4309C55.8509 20.4309 55.0297 19.7297 55.0297 18.7762C55.0297 17.7783 55.7848 17.0727 56.7647 17.0727C57.705 17.0727 58.5013 17.7606 58.5013 18.7334C58.4999 18.9593 58.454 19.1827 58.3662 19.3906C58.2783 19.5986 58.1502 19.787 57.9894 19.9449C57.8286 20.1027 57.6382 20.227 57.4292 20.3104C57.2203 20.3939 56.9969 20.4348 56.7721 20.4309ZM74.9336 20.1667C75.5652 20.8115 76.2362 21.0731 77.1303 21.0745L77.1241 21.0745H77.1373L77.1303 21.0745C77.9923 21.073 79.2088 20.7516 79.2088 19.681C79.2121 19.4583 79.1564 19.2387 79.0474 19.0447C78.9385 18.8507 78.7802 18.6893 78.5888 18.5769C78.1569 18.3097 77.7558 18.3097 77.2666 18.3097H76.6099C76.2617 18.3097 75.8665 18.233 75.8665 17.8005C75.8665 17.2248 76.7289 17.0875 77.1594 17.0875C77.7323 17.0875 78.0688 17.2558 78.5477 17.551L78.9076 17.0344C78.3798 16.6369 77.7367 16.4243 77.0771 16.4292C76.8192 16.428 76.5626 16.4663 76.3161 16.5428C75.7549 16.7259 75.2172 17.1598 75.2172 17.8064C75.2172 18.5651 75.843 18.9267 76.5276 18.94L77.1888 18.9504C77.8381 18.9622 78.057 18.9754 78.2877 19.1231C78.3767 19.1736 78.4507 19.247 78.5023 19.3357C78.5539 19.4243 78.5813 19.5252 78.5815 19.6279C78.5815 20.2744 77.7074 20.422 77.2167 20.422C76.4498 20.422 75.9415 20.2626 75.3744 19.7342L74.9336 20.1667ZM83.462 16.5384H80.9072V20.9667H81.5507V19.0832H83.4605C84.2348 19.0832 84.7475 18.5857 84.7475 17.8034C84.7475 17.0211 84.2421 16.5384 83.462 16.5384ZM83.462 18.4322H81.5521V17.1849H83.462C83.8881 17.1849 84.1114 17.3635 84.1114 17.8034C84.1114 18.2433 83.8748 18.4322 83.462 18.4322ZM86.1373 18.6979C86.1373 17.399 87.2465 16.4203 88.5115 16.4203C88.821 16.4164 89.1282 16.4743 89.4153 16.5907C89.7024 16.707 89.9636 16.8795 90.1838 17.0981C90.404 17.3168 90.5788 17.5772 90.698 17.8642C90.8172 18.1513 90.8785 18.4592 90.8783 18.7703C90.8783 20.0751 89.7808 21.0833 88.5041 21.0833C88.1921 21.0855 87.8827 21.0252 87.5941 20.906C87.3055 20.7868 87.0434 20.6111 86.8231 20.3891C86.6028 20.167 86.4287 19.9031 86.311 19.6128C86.1932 19.3224 86.1342 19.0114 86.1373 18.6979ZM86.7691 18.7762C86.7691 19.7297 87.5903 20.4309 88.5115 20.4309C88.7363 20.4348 88.9596 20.3939 89.1686 20.3104C89.3775 20.227 89.568 20.1027 89.7288 19.9449C89.8896 19.787 90.0177 19.5986 90.1055 19.3906C90.1934 19.1827 90.2393 18.9593 90.2406 18.7334C90.2406 17.7606 89.4444 17.0727 88.5041 17.0727C87.5257 17.0727 86.7691 17.7783 86.7691 18.7762ZM96.7489 17.8433C96.7489 17.0019 96.1613 16.5384 95.3621 16.5384H92.7514V20.9667H93.3949V19.1393H95.0374L95.9189 20.9726H96.6461L95.7308 19.1157C96.3714 18.9533 96.7489 18.5149 96.7489 17.8433ZM93.3949 18.4854V17.179H95.3621C95.7808 17.179 96.1113 17.3458 96.1113 17.8078C96.1113 18.2699 95.7984 18.4854 95.3621 18.4854H93.3949ZM100.104 20.9652V17.1849H101.657V16.5399H97.9081V17.1849H99.4786V20.9652H100.104ZM104.925 21.0745C104.028 21.0739 103.358 20.8125 102.724 20.1667L103.174 19.7342C103.741 20.2626 104.247 20.422 105.016 20.422C105.505 20.422 106.379 20.2744 106.379 19.6279C106.379 19.5252 106.352 19.4243 106.3 19.3357C106.248 19.247 106.174 19.1736 106.085 19.1231C105.855 18.9754 105.645 18.9622 104.988 18.9504L104.327 18.94C103.641 18.9267 103.015 18.5651 103.015 17.8064C103.015 17.1598 103.553 16.7258 104.114 16.5428C104.36 16.4664 104.617 16.4281 104.875 16.4291C105.534 16.4241 106.178 16.6367 106.705 17.0344L106.345 17.551C105.868 17.2558 105.531 17.0875 104.959 17.0875C104.527 17.0875 103.666 17.2248 103.666 17.8005C103.666 18.233 104.061 18.3097 104.409 18.3097H105.064C105.555 18.3097 105.956 18.3097 106.387 18.5769C106.578 18.6893 106.736 18.8507 106.845 19.0447C106.954 19.2387 107.01 19.4583 107.007 19.681C107.007 20.753 105.787 21.0738 104.925 21.0745ZM61.6012 18.7526L67.2059 15.5051L72.8137 18.7526L67.2059 22L61.6012 18.7526ZM66.9077 20.5578C67.4469 20.5578 67.6996 20.4575 68.1565 20.1918L68.4195 20.4752H69.2304L68.631 19.8124C68.8474 19.5818 69.0376 19.3279 69.1981 19.0552L68.703 18.7304C68.5596 18.9525 68.3995 19.1632 68.2241 19.3607L66.9929 18.0115C66.8624 17.899 66.7799 17.7405 66.7623 17.5687C66.7623 17.4063 66.9209 17.2735 67.2456 17.2735C67.5581 17.3025 67.8598 17.4036 68.1271 17.5687L68.3915 17.0432C68.0364 16.8399 67.6352 16.7317 67.2265 16.7288C66.5052 16.7288 66.11 17.0713 66.11 17.5731C66.1152 17.8457 66.2228 18.1061 66.4111 18.3023C65.9337 18.3643 65.3343 18.723 65.3343 19.3696C65.3343 20.1726 66.2157 20.5578 66.9077 20.5578ZM65.941 19.3917C65.941 19.8006 66.5669 19.9379 66.8798 19.9379C67.1788 19.9479 67.4746 19.8732 67.7334 19.7224L66.8313 18.7614C66.8195 18.7645 66.8074 18.7677 66.795 18.7709C66.7848 18.7735 66.7743 18.7762 66.7637 18.7789C66.4421 18.8615 65.941 18.9901 65.941 19.3917ZM28.9862 18.7393C28.9862 20.1571 30.1075 21.0706 31.4655 21.0715C31.4647 21.0715 31.4639 21.0715 31.4632 21.0715H31.4676C31.4669 21.0715 31.4662 21.0715 31.4655 21.0715C32.2726 21.071 32.9975 20.7978 33.5288 20.1696L33.1042 19.7076C32.6253 20.1873 32.1948 20.4191 31.5043 20.4191C30.5112 20.4191 29.615 19.8257 29.615 18.7525C29.615 17.7488 30.3995 17.0786 31.3677 17.0786C32.0038 17.0786 32.5121 17.3517 32.9837 17.7488L33.4627 17.3399C32.9009 16.7675 32.1369 16.4412 31.3368 16.4321C30.0146 16.4321 28.9862 17.3989 28.9862 18.7393Z" fill="#CDAB5B"/>
</g>
<defs>
<clipPath id="clip0_925_15395">
<rect width="136" height="22" fill="white"/>
</clipPath>
</defs>
</svg>
