<svg xmlns="http://www.w3.org/2000/svg" width="63" height="48" viewBox="0 0 63 48" fill="none"><path d="M11.364 47.735v-3.179c0-1.197-.766-2.002-2-2.013-.65-.01-1.32.19-1.789.9-.35-.56-.904-.9-1.681-.9-.543 0-1.075.159-1.49.752v-.625H3.297v5.065h1.118v-2.808c0-.88.49-1.346 1.245-1.346.755 0 1.107.477 1.107 1.336v2.818h1.117v-2.808c0-.88.51-1.346 1.245-1.346.734 0 1.117.477 1.117 1.336v2.818h1.118ZM27.9 42.67h-1.809v-1.536h-1.117v1.536h-1.032v1.007h1.032v2.31c0 1.176.458 1.875 1.766 1.875.48 0 1.033-.148 1.384-.392l-.32-.943a2.05 2.05 0 0 1-.978.286c-.554 0-.735-.339-.735-.847v-2.29h1.81V42.67Zm9.44-.127c-.639 0-1.054.297-1.341.742v-.615h-1.096v5.065h1.107v-2.84c0-.837.361-1.303 1.085-1.303.224 0 .458.032.692.127l.34-1.038a2.373 2.373 0 0 0-.787-.138Zm-14.27.53c-.533-.35-1.267-.53-2.076-.53-1.288 0-2.118.615-2.118 1.621 0 .827.617 1.335 1.756 1.494l.521.075c.607.084.894.243.894.53 0 .391-.404.614-1.16.614-.755 0-1.32-.244-1.692-.53l-.521.858c.607.445 1.373.657 2.203.657 1.468 0 2.32-.689 2.32-1.653 0-.89-.67-1.356-1.777-1.515l-.522-.074c-.479-.064-.862-.16-.862-.498 0-.371.362-.593.969-.593.649 0 1.277.243 1.585.434l.48-.89Zm29.642-.53c-.638 0-1.053.297-1.34.742v-.615h-1.097v5.065h1.107v-2.84c0-.837.362-1.303 1.085-1.303.224 0 .458.032.692.127l.34-1.038a2.373 2.373 0 0 0-.787-.138Zm-14.26 2.66c0 1.536 1.075 2.66 2.714 2.66.766 0 1.277-.17 1.83-.605l-.532-.89c-.415.297-.851.456-1.33.456-.883-.01-1.533-.646-1.533-1.621s.65-1.611 1.533-1.622c.479 0 .915.16 1.33.456l.532-.89c-.553-.434-1.064-.604-1.83-.604-1.64 0-2.714 1.123-2.714 2.66Zm10.365-2.533h-1.106v.615c-.352-.456-.884-.742-1.607-.742-1.426 0-2.544 1.113-2.544 2.66 0 1.547 1.117 2.66 2.544 2.66.723 0 1.255-.287 1.607-.742v.614h1.106V42.67ZM44.7 45.203c0-.89.585-1.622 1.543-1.622s1.532.7 1.532 1.622c0 .921-.617 1.62-1.532 1.62s-1.543-.73-1.543-1.62Zm-13.356-2.66c-1.49 0-2.533 1.08-2.533 2.66 0 1.578 1.086 2.66 2.608 2.66.766 0 1.468-.191 2.085-.71l-.542-.817a2.43 2.43 0 0 1-1.48.53c-.712 0-1.362-.328-1.521-1.24h3.778c.01-.137.02-.275.02-.423-.01-1.58-.989-2.66-2.415-2.66Zm-.021.986c.713 0 1.17.444 1.288 1.229h-2.64c.117-.732.564-1.23 1.352-1.23Zm27.76-2.893h-1.107v2.649c-.352-.456-.884-.742-1.607-.742-1.426 0-2.544 1.113-2.544 2.66 0 1.547 1.118 2.66 2.544 2.66.723 0 1.255-.287 1.607-.742v.614h1.106v-7.1Zm-4.119 4.567c0-.89.585-1.622 1.543-1.622s1.532.7 1.532 1.622c0 .921-.617 1.62-1.532 1.62s-1.543-.73-1.543-1.62Zm-37.37-2.533h-1.106v.615c-.351-.456-.883-.742-1.607-.742-1.426 0-2.543 1.113-2.543 2.66 0 1.547 1.117 2.66 2.543 2.66.724 0 1.256-.287 1.607-.742v.614h1.107V42.67Zm-4.118 2.533c0-.89.586-1.622 1.543-1.622.958 0 1.533.7 1.533 1.622 0 .921-.617 1.62-1.533 1.62-.915 0-1.543-.73-1.543-1.62Zm47.447 1.796a.526.526 0 0 1 .368.143.54.54 0 0 1 .111.159.48.48 0 0 1-.111.55.49.49 0 0 1-.165.107.511.511 0 0 1-.405 0 .588.588 0 0 1-.165-.106.54.54 0 0 1-.111-.16.48.48 0 0 1 .111-.55.526.526 0 0 1 .367-.143Zm0 .895a.383.383 0 0 0 .277-.116.412.412 0 0 0 .117-.281.413.413 0 0 0-.24-.366.365.365 0 0 0-.154-.032.412.412 0 0 0-.282.117.411.411 0 0 0-.117.28.41.41 0 0 0 .117.28.41.41 0 0 0 .282.118Zm.032-.63c.059 0 .107.015.139.042a.136.136 0 0 1 .048.111c0 .037-.011.07-.038.096a.181.181 0 0 1-.111.047l.154.175h-.122l-.144-.175h-.048v.175h-.101v-.466h.218l.005-.005Zm-.117.09v.127h.117s.048 0 .064-.016c.016-.01.022-.027.022-.048s-.006-.037-.022-.047a.114.114 0 0 0-.064-.016h-.117Zm-.6-16.467v-.614h.25v-.127h-.634v.127h.25v.614h.138-.005Zm1.228 0v-.741h-.191l-.224.508-.223-.508h-.192v.741h.139v-.556l.207.482h.144l.207-.482v.562h.139l-.006-.006Zm-32.09 3.682c.148.128.308.255.462.382a19.134 19.134 0 0 1-10.604 3.19C8.656 38.14.078 29.6.078 19.067.078 8.535 8.661 0 19.24 0c3.921 0 7.566 1.176 10.605 3.19-.155.127-.314.248-.463.38a20.519 20.519 0 0 0-7.104 15.503 20.5 20.5 0 0 0 7.104 15.502l-.006-.006ZM42.916 0a19.134 19.134 0 0 0-10.604 3.19c.154.127.313.248.462.38a20.51 20.51 0 0 1 7.104 15.503 20.505 20.505 0 0 1-7.098 15.502c-.15.127-.309.254-.463.381a19.135 19.135 0 0 0 10.605 3.19c10.578 0 19.155-8.54 19.155-19.073C62.078 8.54 53.495 0 42.918 0ZM31.078 4.085c-.245.19-.49.392-.723.598-4.04 3.497-6.593 8.647-6.593 14.39s2.554 10.893 6.593 14.39c.234.206.478.402.723.598.245-.196.49-.392.724-.599 4.038-3.496 6.593-8.646 6.593-14.39 0-5.742-2.555-10.892-6.593-14.389-.234-.206-.48-.402-.724-.598Z" fill="#fff"/></svg>