<svg xmlns="http://www.w3.org/2000/svg" width="129" height="32" viewBox="0 0 129 32" fill="none"><path fill-rule="evenodd" clip-rule="evenodd" d="M29.808 15.497c-.206-1.174-.975-2.078-1.808-2.876-1.275-1.223-2.798-2.361-4.186-3.458C18.909 5.295 13.694 2.568 7.862.386a5.727 5.727 0 0 0-.814-.251c-.876-.185-1.844-.202-2.7.089C2.57.83 1.77 3.105 1.433 4.793.07 11.59-.454 19.54.757 26.356c.15.843.265 1.793.531 2.6.358 1.091 1.035 2.027 2.063 2.565 1.564.82 3.421.464 4.99-.147 4.737-1.853 9.507-4.191 13.783-6.956 2.057-1.33 4.053-2.799 5.876-4.445 1.065-.78 1.754-2.213 1.851-3.508.025-.325.013-.65-.043-.97v.002Zm-1.153.878c-.135 1.768-1.407 2.659-1.407 2.659-5.692 5.161-13.87 9.079-19.343 11.217-3.787 1.482-5.058-.383-5.482-1.672-.203-.613-.37-1.772-.488-2.434C.26 16.74 2.29 6.587 2.603 5.029 2.93 3.392 3.619 1.74 4.73 1.362c.767-.26 1.616-.146 2.068-.051.246.053.411.113.644.2C14 3.968 18.795 6.733 23.07 10.109c4.348 3.43 5.717 4.493 5.582 6.262l.002.004Z" fill="#fff"/><path d="M36.787 7.539c2.547-.123 5.51-.76 7.761.753.722.558.752 1.558.711 2.394.115 4.834-4.21 6.096-8.237 5.511-.454 1-.49 3.903-1.38 4.273-.71.02-1.468.09-2.162-.042-.241-.143-.09-.457-.084-.68.458-2.077.771-4.198 1.328-6.25 1.439.087 3.009-.25 4.385.157a6.512 6.512 0 0 0-.146 1.11c1.356-.855 2.562-1.957 3.695-3.09-.857-1.08-1.737-2.142-2.607-3.208-.25.357-.11.951-.535 1.172-1.331.1-2.725.108-4.053-.034.004-.915.16-2.125 1.322-2.068l.002.002Zm10.303 3.793c4.162-1 5.96.67 4.73 4.88-.748 4.41.006 4.89-4.963 4.771-.868-.085-1.857-.274-2.399-1.038-.851-1.423-.27-3.867 1.35-4.48 1.24-.525 2.688-.136 3.917-.553 1.054-2.806-2.541-1.84-3.984-1.316-.424-1.156.133-2.096 1.349-2.264Zm-.617 6.192c-.932 2.002 2.384 2.255 2.657 1.204.047-.683.33-1.355.21-2.044-.949.028-2.503-.347-2.867.838v.002Zm9.342-6.105c1.821-.587 4.006-.43 5.76.258-.083 3.23-1.101 6.573-1.58 9.82-.266 2.383-2.66 2.959-4.684 2.785-1.31.055-3.722-.559-2.56-2.267 1.588.114 4.958 1.452 5.047-1.132-1.934.408-4.678-.11-4.853-2.504-.028-2.454.26-5.932 2.868-6.96h.002Zm1.677 1.492c-1.259.206-1.906 1.403-2.048 2.577-.115 1.11-.903 3.202.624 3.578.672.058 2.077.302 2.236-.568.216-1.776.808-3.588.799-5.354-.478-.28-1.073-.33-1.611-.23v-.003Zm8.614-1.811c4.19-.682 5.023 2.93 3.9 6.243-.48 2.783-3.474 4.387-6.072 3.421-3.683-1.534-1.628-9.366 2.17-9.664h.002Zm.021 2.078c-1.703.603-1.707 2.887-1.84 4.414-.11 1.164 1.043 1.625 2.016 1.341 1.688-.524 1.724-2.868 1.868-4.351.165-1.174-1.054-1.786-2.046-1.405h.002Zm24.426 4.668c.971-.032 1.954.09 2.915-.107.208-.664.148-1.368.181-2.053.023-1.212-.414-2.561-1.485-3.226-.822-.528-1.844-.424-2.763-.319-1.172.146-2.333.772-2.905 1.846a9.47 9.47 0 0 0-1.045 5.422c.103.955.758 1.77 1.587 2.206.943.542 2.091.638 3.134.372.7-.187 1.422-.36 2.06-.715.594-.383.43-1.195.435-1.797-.953.18-1.885.513-2.865.523-.525 0-1.085.038-1.57-.2-.633-.398-.75-1.276-.481-1.933.932-.058 1.866 0 2.8-.018h.002Zm-1.705-3.383c.658-.608 1.857-.604 2.406.149.34.432.4 1.015.223 1.528-1.138.09-2.282.042-3.422.029.088-.629.292-1.284.791-1.706h.002ZM83.457 9.03c1.019-.52 2.23-.512 3.31-.208.027.474.078 1.036-.243 1.423-.542.266-1.215.062-1.74.38-.411.363-.325.988-.402 1.482.57.07 1.152.008 1.718.135.092.496.122 1.102-.23 1.502-.501.315-1.137.162-1.696.224-.14.213-.26.446-.293.706-.425 2.393-.829 4.79-1.256 7.183-.18.817-.374 1.732-1.066 2.274-.709.557-1.665.59-2.526.56-.35-.043-.803-.005-1.026-.34-.088-.45.066-.9.218-1.32.485-.097.996 0 1.47-.147.503-.174.604-.765.694-1.222.33-2.058.698-4.11 1.063-6.163.074-.476.209-.951.186-1.434-.467-.176-1.067-.023-1.43-.436-.294-.353-.159-.891.042-1.257.405-.425 1.047-.063 1.54-.223.35-.202.358-.662.437-1.015.128-.814.467-1.695 1.227-2.105h.003Zm25.846.862c.098-.395.103-.944.527-1.136.613-.066 1.234-.03 1.853-.036.255.71-.032 1.444-.212 2.134-.613.159-1.268.142-1.89.051-.447-.113-.325-.673-.28-1.011l.002-.002Zm-34.505-.736c1.532-.274 3.1-.189 4.638-.008.193.025.38.081.568.136.089.478.085.993-.13 1.438-.153.312-.53.346-.832.357-1.024.02-2.05-.02-3.074.015-.463.025-1.018.155-1.208.64-.343.819-.384 1.725-.521 2.597 1.395 0 2.789-.006 4.184 0 .227-.012.61.043.58.353 0 .398-.079.794-.199 1.173-.103.312-.452.436-.752.421-1.215.008-2.43-.013-3.646.002a.57.57 0 0 0-.634.532c-.098.836-.353 1.672-.268 2.518.04.447.523.583.898.596 1.178.027 2.36-.019 3.537.029.265.009.222.334.269.52.065.506-.072 1.233-.677 1.314-1.724.183-3.56.481-5.218-.198-.796-.315-1.148-1.197-1.246-1.991-.114-.676.07-1.344.179-2.005.3-1.73.602-3.46.922-5.186.152-.788.388-1.592.91-2.219.444-.511 1.045-.904 1.714-1.032l.006-.002Zm29.505 1.472c.658-.389 1.461-.432 2.209-.4.021.63-.206 1.234-.176 1.864.487.07 1.001.023 1.47.202.295.136.242.52.19.782-.09.354-.222.864-.679.85-.471.108-1.276-.175-1.426.473-.283 1.389-.493 2.795-.739 4.191-.084.489-.17.978-.174 1.476.497.172 1.024.123 1.536.085.441.672.024 1.75-.818 1.781-.823-.005-1.748.157-2.457-.37-.531-.39-.639-1.117-.549-1.732.244-1.929.684-3.827.913-5.76-.531-.143-1.189-.017-1.598-.457-.21-.383-.18-.945.122-1.273.514-.342 1.178-.055 1.727-.267.364-.394.132-1.024.445-1.441l.004-.004Zm-8.626 3.019c.776-1.122 2.189-1.634 3.513-1.581.746.032 1.512.175 2.166.555.501.319.141.97.075 1.423-.035.436-.568.294-.861.294-.69.034-1.309-.523-1.997-.29a1.86 1.86 0 0 0-1.285 1.105c-.493 1.197-.705 2.505-.666 3.798-.01.403.205.826.614.943 1.024.332 2.066-.089 3.074-.283.033.555.103 1.163-.205 1.657-.272.359-.743.462-1.165.513-.542.05-1.084.129-1.626.181-1.275.02-2.552-.875-2.856-2.147-.19-1.012-.088-2.055.065-3.063.214-1.085.526-2.184 1.156-3.105h-.002Zm32.38 1.273c-.032-1.084-.75-2.092-1.707-2.558-.851-.345-1.804-.345-2.699-.224-.752.115-1.476.422-2.052.926-1.007.876-1.493 2.203-1.716 3.492-.204 1.172-.504 2.447.023 3.58.375.755.996 1.468 1.838 1.674 1.444.41 3.102.188 4.295-.763.709-.553 1.174-1.37 1.422-2.229.365-1.264.71-2.572.594-3.902l.002.003Zm-2.795 3.455c-.125.54-.422 1.068-.926 1.33-.657.334-1.531.36-2.118-.13-.32-.277-.38-.73-.356-1.13.067-1.025.231-2.054.585-3.02.235-.636.767-1.177 1.439-1.317.47-.096.994-.043 1.403.226.311.22.455.602.47.974.096 1.051-.272 2.057-.497 3.067Zm-16.257-6.083c.613-.2 1.286-.207 1.92-.092.355.053.214.487.212.732-.422 2.606-.922 5.2-1.358 7.802-.067.408-.08 1.027-.6 1.104-.538.055-1.116.107-1.633-.085-.149-.245-.089-.542-.055-.808.385-2.264.765-4.529 1.139-6.796.107-.622.189-1.25.377-1.855l-.002-.002Zm3.115.028c.148-.152.377-.14.576-.164.454-.01.921-.047 1.365.072.24.042.192.363.242.546.092 1.559.147 3.121.222 4.684.047.902.05 1.815.266 2.697.621-.604.823-1.473 1.155-2.244.758-1.88 1.469-3.78 2.285-5.636.662-.171 1.369-.168 2.042-.07.34.085.162.49.072.712-1.182 2.597-2.315 5.218-3.51 7.81-.512 1.166-2.018 1.502-3.134 1.12-.574-.19-.817-.82-.874-1.377a417.759 417.759 0 0 1-.737-7.302c-.017-.281-.049-.572.032-.847h-.002ZM7.447 11.217c.291-.906.595-1.806.891-2.708 3.24.317 7.713-.9 10.414 1.087 2.224 1.947 1.682 5.79-.214 7.786-2.358 2.591-6.092 2.355-9.28 2.167-.434 1.764-.787 3.552-1.194 5.324-1.136-.051-2.275-.12-3.411-.138.553-2.79 1.196-5.562 1.752-8.351 1.879-.023 3.76-.004 5.64-.01.005.582.003 1.165.003 1.748 1.58-1.347 3.117-2.744 4.685-4.107-1.164-1.474-2.35-2.932-3.501-4.418-.158.53-.304 1.067-.434 1.605-1.783.024-3.567-.002-5.352.015h.001Z" fill="#fff"/></svg>