<svg xmlns="http://www.w3.org/2000/svg" width="49" height="48" viewBox="0 0 49 48" fill="none"><path d="M24.811 0c-13.255 0-24 10.746-24 24 0 2.752.463 5.396 1.316 7.855a12.3 12.3 0 0 1 .526 5.984c-.447 2.732-2.12 5.357.225 7.752.624.637 1.287 1.078 1.98 1.33a4.246 4.246 0 0 0 2.23.186c.885-.157 1.705-.537 2.697-.77 1.994-.469 4.351-.698 6.97.233 2.582.917 5.155 1.43 8.055 1.43 13.255 0 24-10.746 24-24.003C48.81 10.741 38.067 0 24.811 0ZM16.36 29.49c-1.614.606-3.722-.03-3.722-.03-.95-.086-1.269.78-1.269.78l-.086 3.495c-2.02 1.994-2.914-.693-2.914-.693V19.695c.086-.578.893-1.415 2.076-.954 1.183.463 1.933.175 1.933.175 2.697-1.068 4.931-.357 6.035 1.336 1.9 2.91 1.474 7.912-2.055 9.237h.002Zm8.013-.008c0 .162-.081.245-.245.245H21.61c-.164 0-.245-.081-.245-.245V14.91c0-.164.08-.245.245-.245h2.518c.164 0 .245.082.245.245v14.573Zm2.2-13.642a1.524 1.524 0 0 1 1.404-.91c.405 0 .79.154 1.075.431.286.278.446.652.446 1.045a1.48 1.48 0 0 1-.938 1.365 1.553 1.553 0 0 1-1.658-.32 1.443 1.443 0 0 1-.329-1.609v-.002Zm2.938 13.642c0 .135-.11.245-.245.245h-2.52a.245.245 0 0 1-.245-.245v-10.43c0-.134.11-.244.245-.244h2.52c.135 0 .245.11.245.245v10.43Zm11.738-7.492v6.698a1.08 1.08 0 0 1-1.075 1.077h-.786a1.08 1.08 0 0 1-1.075-1.077V21.99c0-1.032-.856-1.792-1.922-1.752-.976.037-1.69.976-1.69 1.752v6.698a1.08 1.08 0 0 1-1.075 1.077h-.785a1.082 1.082 0 0 1-1.077-1.077v-5.99c-.1-1.789-.549-4.517 2.358-3.766 1.735.385 1.724-.045 3.071-.324.84-.173 2.418-.295 3.394.898.766.939.662 1.416.662 2.484Z" fill="#fff"/><path d="M13.848 20.36c-1.465 0-2.653 1.72-2.653 3.843s1.188 3.842 2.653 3.842c1.466 0 2.654-1.72 2.654-3.842 0-2.123-1.188-3.843-2.654-3.843Z" fill="#fff"/></svg>