<svg xmlns="http://www.w3.org/2000/svg" width="89" height="28" viewBox="0 0 89 28" fill="none"><path d="M45.643 8.952c-.052 3.902 3.522 6.076 6.213 7.37 2.767 1.328 3.694 2.178 3.684 3.366-.02 1.82-2.207 2.619-4.25 2.652-3.567.055-5.644-.951-7.292-1.71l-1.284 5.934c1.655.752 4.717 1.409 7.896 1.436 7.457 0 12.339-3.63 12.363-9.263C63 11.59 52.952 11.194 53.02 8c.024-.969.961-2.002 3.014-2.266 1.017-.132 3.821-.234 7 1.21l1.25-5.742C62.574.59 60.377 0 57.638 0c-7.02 0-11.957 3.682-11.999 8.952h.004ZM76.279.494c-1.363 0-2.51.783-3.021 1.989L62.605 27.58h7.453l1.483-4.044h9.108l.862 4.044h6.567L82.342.494h-6.066.003Zm1.04 7.316 2.153 10.171H73.58l3.738-10.17ZM36.607.494l-5.874 27.083h7.103L43.703.494h-7.1.004Zm-10.508 0L18.707 18.93l-2.99-15.675c-.35-1.751-1.737-2.76-3.275-2.76H.358l-.169.785c2.483.532 5.301 1.389 7.007 2.303 1.044.56 1.343 1.05 1.686 2.381l5.664 21.613h7.505L33.559.494h-7.457" fill="#fff"/></svg>