<svg xmlns="http://www.w3.org/2000/svg" width="38" height="48" viewBox="0 0 38 48" fill="none"><path d="M33.941 32.334c-2.168.163-4.336.338-6.5.545-1.328.127-2.65.318-4.04.489l.427-2.842.377.27c1.336.943 2.614.818 3.7-.391.839-.933 1.288-2.079 1.64-3.257.557-1.872.936-3.767.415-5.718-.453-1.698-2.104-2.13-3.381-.894-.256.247-.517.487-.74.697-.057-.2-.053-.485-.193-.624-.618-.61-1.631-.305-1.795.525-.473 2.383-.922 4.77-1.417 7.148-.06.294-.303.58-.528.8-.148.144-.42.164-.635.24-.078-.233-.243-.478-.217-.698a32.39 32.39 0 0 1 .398-2.515c.287-1.452.615-2.896.906-4.347.106-.527-.11-.86-.667-.996-.787-.191-.927-.135-1.434.775-1.373-.807-2.364-.67-3.49.493-.957.988-1.541 2.195-1.996 3.47-.626 1.757-.96 3.547-.522 5.408.193.823.632 1.431 1.491 1.683.92.269 1.684.01 2.317-.66.28-.297.496-.654.766-1.016.18.657.57 1.174 1.25 1.133.594-.038 1.172-.32 1.767-.497-.1.494-.245 1.01-.295 1.535-.045.472-.272.608-.707.675-2.424.365-4.844.758-7.263 1.147-.769.124-1.533.264-2.39.412.352-1.25.676-2.388.993-3.528.862-3.102 1.733-6.2 2.574-9.308.22-.81-.12-1.129-.937-.933-.961.23-1.558.838-1.89 1.78-.665 1.88-1.348 3.754-2.104 5.598-.214.522-.663.978-1.09 1.37-.2.182-.69.28-.894.159-.209-.124-.332-.573-.307-.865.047-.565.204-1.125.351-1.676.309-1.143.682-2.27.948-3.423.174-.752-.446-1.35-1.316-1.392-.569-.028-.727.247-.771 1.13a5.193 5.193 0 0 1-.244 1.266c-.19.622-.48 1.216-.647 1.844-.314 1.182-.633 2.367-.827 3.571-.142.883.05 1.77.89 2.297.846.532 1.677.31 2.43-.247.421-.313.805-.676 1.274-1.076-.442 1.35-.843 2.625-1.287 3.886-.064.183-.308.332-.501.437-1.072.588-2.211 1.072-3.219 1.751C2.333 39.501.74 41.563.172 44.313c-.25 1.211-.027 2.307.98 3.102 1.042.822 2.18.689 3.3.146 1.082-.525 1.85-1.405 2.568-2.337 1.46-1.894 2.305-4.086 3.035-6.328.14-.434.351-.645.79-.732 2.5-.499 4.995-1.026 7.495-1.526.824-.165 1.66-.278 2.535-.422.014.295-.03.515.045.677.14.302.298.722.549.81.248.087.696-.096.917-.306.253-.241.42-.629.5-.981.086-.382.273-.518.627-.564 2.275-.29 4.55-.586 6.823-.887 1.351-.18 2.708-.338 4.047-.58.69-.126.912-.73.638-1.377-.204-.486-.592-.71-1.081-.673l.001-.001Zm-9.44-3.729c.418-1.557.803-3.126 1.303-4.658.174-.532.59-1.022.994-1.433.478-.486.96-.315 1.127.342.088.34.104.698.132.894-.075 1.602-.496 2.956-1.124 4.238-.368.752-.924 1.348-1.887 1.265-.388-.034-.666-.202-.546-.648Zm-4.603-4.78c-.515 1.733-1.081 3.452-1.645 5.17-.071.217-.23.417-.388.588-.411.444-1.019.39-1.269-.155-.2-.437-.272-.932-.364-1.265.23-1.732.575-3.242 1.791-4.374.308-.286.71-.503 1.105-.651.49-.185.92.184.77.688v-.001ZM4.46 44.529a4.014 4.014 0 0 1-.984.841c-.223.132-.653.21-.808.086-.193-.155-.325-.576-.262-.826.148-.585.368-1.17.667-1.694.977-1.71 2.393-2.95 4.338-3.836-.77 2.063-1.626 3.878-2.951 5.43v-.001Zm28.22-18.034c.073-.362.254-.525.656-.607 2.272-.466 4.032-2.313 4.43-4.573.252-1.426-.578-2.455-2.025-2.515-.79-.032-1.488.214-2.065.746-2.286 2.109-3.184 4.822-3.422 7.809.053.498.08.974.159 1.44.278 1.621 1.54 2.44 3.128 2.036 1.352-.343 2.404-1.156 3.348-2.146.63-.663.705-.97.338-1.79-.306-.686-.588-.697-1.129-.16-.514.511-1.074.989-1.67 1.398-.44.302-.998.509-1.494.127-.51-.393-.388-.989-.324-1.539.008-.076.054-.148.07-.226Zm1.933-5.15c.204-.318.607-.622.936-.346.196.164.242.706.135.996-.392 1.055-1.258 1.6-2.286 1.906l-.214-.155c.473-.803.924-1.62 1.429-2.4ZM21.098 0c-4.625 0-8.375 3.746-8.375 8.367 0 2.205.856 4.21 2.251 5.705l-.197 3.547a.389.389 0 0 0 .609.341l2.636-1.81a8.36 8.36 0 0 0 3.077.585c4.625 0 8.374-3.746 8.374-8.367 0-4.62-3.75-8.368-8.375-8.368Zm.61 11.694a2.146 2.146 0 0 1-.874.833c-.363.187-.804.282-1.308.282-.791 0-1.432-.236-1.906-.703-.475-.466-.724-1.1-.742-1.888 0-.004-.014-.163.103-.296.09-.104.228-.158.407-.164.21-.003.374.043.476.145a.336.336 0 0 1 .104.237c.036.344.12.63.247.826.125.193.31.353.546.472.24.121.516.182.82.182.434 0 .77-.1 1-.298a.936.936 0 0 0 .337-.753.87.87 0 0 0-.12-.466.912.912 0 0 0-.366-.327c-.182-.095-.594-.234-1.219-.415-.593-.17-1.008-.34-1.266-.52a1.908 1.908 0 0 1-.617-.692 2.013 2.013 0 0 1-.221-.944c0-.625.213-1.144.63-1.543.416-.397.98-.598 1.677-.598.474 0 .896.093 1.256.277.364.188.652.459.854.809.198.345.307.754.32 1.216 0 .012.009.183-.116.32a.513.513 0 0 1-.382.158c-.212.008-.374-.042-.483-.145a.377.377 0 0 1-.123-.255c-.036-.411-.163-.722-.376-.917-.213-.194-.525-.293-.925-.293s-.724.086-.93.257a.778.778 0 0 0-.297.636c0 .243.068.424.207.55.105.097.384.253 1.108.447.611.164 1.032.304 1.286.43.395.195.7.459.902.78.205.324.309.713.309 1.156 0 .443-.107.843-.32 1.205l.002-.001Zm4.985-5.388-3.239 5.886a.587.587 0 0 1-1.028-.563l3.238-5.886a.586.586 0 1 1 1.027.564h.002Z" fill="#fff"/></svg>