<?xml version="1.0" encoding="UTF-8"?>
<svg id="Layer_1" data-name="Layer 1" xmlns="http://www.w3.org/2000/svg" width="21.2mm" height="15.9mm" version="1.1" viewBox="0 0 60 45">
  <defs>
    <style>
      .cls-1 {
        fill: #abb3c6;
      }

      .cls-1, .cls-2, .cls-3 {
        stroke-width: 0px;
      }

      .cls-2 {
        fill: #878ea8;
      }

      .cls-3 {
        fill: #9da7c1;
      }
    </style>
  </defs>
  <path class="cls-2" d="M18.3,36.7v-1.9c0-.7-.5-1.2-1.2-1.2-.4,0-.8.1-1.1.5-.2-.3-.5-.5-1-.5s-.6,0-.9.5v-.4h-.7v3h.7v-1.7c0-.5.3-.8.7-.8s.7.3.7.8v1.7h.7v-1.7c0-.5.3-.8.7-.8s.7.3.7.8v1.7h.7ZM28.1,33.7h-1.1v-.9h-.7v.9h-.6v.6h.6v1.4c0,.7.3,1.1,1.1,1.1s.6,0,.8-.2l-.2-.6c-.2.1-.4.2-.6.2-.3,0-.4-.2-.4-.5v-1.4h1.1v-.6ZM33.7,33.6c-.4,0-.6.2-.8.4v-.4h-.7v3h.7v-1.7c0-.5.2-.8.6-.8s.3,0,.4,0l.2-.6c-.1,0-.3,0-.5,0ZM25.2,34c-.3-.2-.8-.3-1.2-.3-.8,0-1.3.4-1.3,1s.4.8,1,.9h.3c.4,0,.5.2.5.4s-.2.4-.7.4-.8-.1-1-.3l-.3.5c.4.3.8.4,1.3.4.9,0,1.4-.4,1.4-1s-.4-.8-1.1-.9h-.3c-.3,0-.5-.1-.5-.3s.2-.4.6-.4.8.1.9.3l.3-.5ZM42.9,33.6c-.4,0-.6.2-.8.4v-.4h-.7v3h.7v-1.7c0-.5.2-.8.6-.8s.3,0,.4,0l.2-.6c-.1,0-.3,0-.5,0ZM34.4,35.2c0,.9.6,1.6,1.6,1.6s.8-.1,1.1-.4l-.3-.5c-.2.2-.5.3-.8.3-.5,0-.9-.4-.9-1s.4-1,.9-1c.3,0,.5,0,.8.3l.3-.5c-.3-.3-.6-.4-1.1-.4-1,0-1.6.7-1.6,1.6ZM40.6,35.2v-1.5h-.7v.4c-.2-.3-.5-.4-1-.4-.8,0-1.5.7-1.5,1.6s.7,1.6,1.5,1.6.7-.2,1-.4v.4h.7v-1.5ZM38.1,35.2c0-.5.3-1,.9-1s.9.4.9,1-.4,1-.9,1-.9-.4-.9-1ZM30.2,33.6c-.9,0-1.5.6-1.5,1.6s.6,1.6,1.6,1.6.9-.1,1.2-.4l-.3-.5c-.3.2-.6.3-.9.3s-.8-.2-.9-.7h2.3c0,0,0-.2,0-.3,0-.9-.6-1.6-1.4-1.6ZM30.1,34.2c.4,0,.7.3.8.7h-1.6c0-.4.3-.7.8-.7ZM46.7,35.2v-2.7h-.7v1.6c-.2-.3-.5-.4-1-.4-.8,0-1.5.7-1.5,1.6s.7,1.6,1.5,1.6.7-.2,1-.4v.4h.7v-1.5ZM44.2,35.2c0-.5.3-1,.9-1s.9.4.9,1-.4,1-.9,1-.9-.4-.9-1ZM22,35.2v-1.5h-.7v.4c-.2-.3-.5-.4-1-.4-.9,0-1.5.7-1.5,1.6s.7,1.6,1.5,1.6.7-.2,1-.4v.4h.7v-1.5ZM19.5,35.2c0-.5.3-1,.9-1s.9.4.9,1-.4,1-.9,1-.9-.4-.9-1Z"/>
  <rect class="cls-1" x="25" y="10.6" width="10" height="17.9"/>
  <path class="cls-2" d="M25.6,19.6c0-3.6,1.7-6.9,4.4-9-1.9-1.5-4.4-2.4-7.1-2.4-6.3,0-11.4,5.1-11.4,11.4s5.1,11.4,11.4,11.4,5.1-.9,7.1-2.4c-2.7-2.1-4.4-5.3-4.4-9"/>
  <path class="cls-2" d="M47.4,26.7v-.4h.1c0,0-.4,0-.4,0h0c0,0,.1,0,.1,0v.4h0ZM48.1,26.7v-.4h-.1v.3c-.1,0-.3-.3-.3-.3h-.1v.4h0v-.3.3h.2v-.3c.1,0,.1.3.1.3h0Z"/>
  <path class="cls-3" d="M48.5,19.6c0,6.3-5.1,11.4-11.4,11.4s-5.1-.9-7.1-2.4c2.7-2.1,4.4-5.3,4.4-9s-1.7-6.9-4.4-9c1.9-1.5,4.4-2.4,7.1-2.4,6.3,0,11.4,5.1,11.4,11.4"/>
</svg>