<?xml version="1.0" encoding="utf-8"?>
<!-- Generator: Adobe Illustrator 27.1.1, SVG Export Plug-In . SVG Version: 6.00 Build 0)  -->
<svg version="1.1" id="Layer_1" xmlns="http://www.w3.org/2000/svg" xmlns:xlink="http://www.w3.org/1999/xlink" x="0px" y="0px"
	 width="60px" height="45px" viewBox="0 0 60 45" style="enable-background:new 0 0 60 45;" xml:space="preserve">
<style type="text/css">
	.st0{fill-rule:evenodd;clip-rule:evenodd;fill:#878EA8;}
	.st1{fill:#878EA8;}
	.st2{fill-rule:evenodd;clip-rule:evenodd;fill:url(#path277_00000073694778415465631150000007828330337176966067_);}
	.st3{fill-rule:evenodd;clip-rule:evenodd;fill:url(#path279_00000165215908027867805480000006342201042166739640_);}
	.st4{fill:url(#SVGID_1_);}
	.st5{fill:url(#SVGID_00000132080718924445289160000002815258197128889740_);}
	.st6{fill:url(#SVGID_00000088824586689322658120000009228622686246931114_);}
	.st7{fill:url(#SVGID_00000171690929783820781820000015618183645470986666_);}
	.st8{fill:url(#SVGID_00000043430330126781639560000007527032083832579973_);}
	.st9{fill:url(#SVGID_00000146463522506272514040000013585848767494345095_);}
	.st10{fill:url(#SVGID_00000033337861103589726260000011658663269970387076_);}
	.st11{fill:url(#SVGID_00000027579072360851965640000015875410918025247367_);}
	.st12{fill:url(#SVGID_00000176728056694593734960000004499196863767840139_);}
	.st13{fill:url(#SVGID_00000031907119359404386120000017677009183904756630_);}
</style>
<path id="path129" class="st1" d="M21.8,18.6L19.8,20c-0.8-0.6-1.8-1-2.8-1c-0.6,0-1.4,0.2-1.4,0.7s0.3,0.8,1.1,1
	c0.7,0.2,1.6,0.4,2.8,0.8c1.7,0.5,2.9,1.3,2.9,3c0,2.4-2.2,3.7-5,3.7c-2,0-4-0.7-5.4-2.2l2.1-1.5c1.4,1.3,2.4,1.5,3.3,1.5
	c1,0,1.9-0.2,2-0.7c0.1-0.5-0.3-0.8-1.1-1c-0.8-0.2-1.7-0.4-2.6-0.6c-2.4-0.6-3-2-3-3.3c0-1.7,1.6-3.5,4.5-3.5
	C18.8,16.9,20.5,17.5,21.8,18.6L21.8,18.6z M34.1,17h-8.7V28h8.8v-2.5h-5.8v-1.8h4v-2.4h-4v-1.7h5.6L34.1,17z M23.2,30.5h0.7v-16
	h-0.7V30.5z M35.4,30.5h0.7v-16h-0.7V30.5z M37.7,28h7c1.9,0,3.4-1.1,3.4-3c0-1.3-0.9-2.4-2.2-2.8h-0.1c0,0,0.1,0,0.1,0
	c1-0.4,1.6-1.4,1.6-2.4c0-1.7-1.4-2.8-3.3-2.8h-6.4L37.7,28z M40.7,19.3h2.4c0.5,0,1,0.4,1,1c0,0.5-0.4,1-1,1c0,0,0,0,0,0h-2.4V19.3
	z M43.7,25.5h-3v-2h3c0.3,0,0.5,0.1,0.7,0.3c0.2,0.2,0.3,0.5,0.3,0.7c0,0.3-0.1,0.5-0.3,0.7C44.2,25.5,44,25.6,43.7,25.5L43.7,25.5z
	"/>
</svg>
