<?xml version="1.0" encoding="utf-8"?>
<!-- Generator: Adobe Illustrator 28.2.0, SVG Export Plug-In . SVG Version: 6.00 Build 0)  -->
<svg version="1.1" id="Layer_1" xmlns="http://www.w3.org/2000/svg" xmlns:xlink="http://www.w3.org/1999/xlink" x="0px" y="0px"
	 width="60px" height="45px" viewBox="0 0 60 45" style="enable-background:new 0 0 60 45;" xml:space="preserve">
<style type="text/css">
	.st0{fill:#878EA8;}
</style>
<g>
	<path class="st0" d="M50,15.2c-4,0-7.3,3.3-7.3,7.3c0,4,3.3,7.3,7.3,7.3c4,0,7.3-3.3,7.3-7.3C57.4,18.5,54.1,15.2,50,15.2z
		 M50,27.1c-2.5,0-4.6-2-4.6-4.6c0-2.5,2-4.6,4.6-4.6c2.5,0,4.6,2,4.6,4.6C54.6,25.1,52.5,27.1,50,27.1z"/>
	<path class="st0" d="M14.2,15.4v8.9c0,1.5-1.3,2.8-2.8,2.8s-2.8-1.3-2.8-2.8v-5.4l-2.8,1.6v3.8c0,3.1,2.5,5.6,5.6,5.6
		c3.1,0,5.6-2.4,5.6-5.6v-8.9H14.2z"/>
	<path class="st0" d="M2.6,15.4l3.2,1.8v0l2.8,1.6v-3.4H2.6z"/>
	<path class="st0" d="M26.7,23.4c1.4-0.7,2.3-2.2,2.3-3.8c0-2.4-1.9-4.3-4.3-4.3H19v14.2h2.8v-5.7h2.1l3.2,5.7h3.2L26.7,23.4z
		 M26.2,19.7c0,0.8-0.7,1.5-1.5,1.5h-3v-3h3C25.5,18.2,26.2,18.9,26.2,19.7L26.2,19.7z"/>
	<path class="st0" d="M40.3,22.2c0.6-0.7,0.9-1.6,0.9-2.6c0-2.3-1.9-4.2-4.3-4.2h-5.7v14.2h6.2c2.3,0,4.2-1.9,4.2-4.2
		C41.7,24.1,41.2,23,40.3,22.2z M34,18.2h3c0.8,0,1.5,0.7,1.5,1.5c0,0.8-0.7,1.5-1.5,1.5h-3V18.2L34,18.2z M38.9,25.3
		c0,0.8-0.7,1.5-1.5,1.5H34v-3h3.4C38.3,23.9,38.9,24.5,38.9,25.3"/>
</g>
</svg>
