<?xml version="1.0" encoding="utf-8"?>
<!-- Generator: Adobe Illustrator 27.1.1, SVG Export Plug-In . SVG Version: 6.00 Build 0)  -->
<svg version="1.1" id="Layer_1" xmlns="http://www.w3.org/2000/svg" xmlns:xlink="http://www.w3.org/1999/xlink" x="0px" y="0px"
	 width="60px" height="45px" viewBox="0 0 60 45" style="enable-background:new 0 0 60 45;" xml:space="preserve">
<style type="text/css">
	.st0{fill-rule:evenodd;clip-rule:evenodd;fill:#878EA8;}
	.st1{fill:#878EA8;}
	.st2{fill-rule:evenodd;clip-rule:evenodd;fill:url(#path277_00000008843654314046500330000011032778486835813810_);}
	.st3{fill-rule:evenodd;clip-rule:evenodd;fill:url(#path279_00000098215691676549286570000001610704890594284466_);}
	.st4{fill:url(#SVGID_1_);}
	.st5{fill:url(#SVGID_00000053506053323662949260000013116445712101870724_);}
	.st6{fill:url(#SVGID_00000134964216891331204240000017300728917580053892_);}
	.st7{fill:url(#SVGID_00000167356194794147321720000008028963639511386510_);}
	.st8{fill:url(#SVGID_00000124157231728345062650000009900772328098298026_);}
	.st9{fill:url(#SVGID_00000010995518587375618990000013543102889874050459_);}
	.st10{fill:url(#SVGID_00000013874575431991529640000003670719446486178477_);}
	.st11{fill:url(#SVGID_00000116947533022548954290000002305694481202771640_);}
	.st12{fill:url(#SVGID_00000090282262174869836480000005581616133846669993_);}
	.st13{fill:url(#SVGID_00000168099189968202609690000015807178834267905461_);}
</style>
<path id="path201" class="st1" d="M52.7,28.6c0.1,0.1,0.2,0.2,0.3,0.3c0.1,0.1,0.3,0.2,0.5,0.3c0.2,0.1,0.4,0.2,0.6,0.3
	c0.2,0.1,0.5,0.1,0.7,0.1c0.3,0,0.5,0,0.8-0.1c0.2-0.1,0.4-0.2,0.6-0.4c0.2-0.2,0.3-0.3,0.4-0.5c0.1-0.2,0.1-0.4,0.1-0.7
	c0-0.2,0-0.5-0.1-0.7c-0.1-0.2-0.2-0.4-0.4-0.5c-0.2-0.1-0.3-0.3-0.5-0.3c-0.2-0.1-0.4-0.2-0.6-0.2c-0.2,0-0.4-0.1-0.6-0.1
	c-0.1,0-0.2-0.1-0.3-0.2c-0.1-0.1-0.1-0.1-0.2-0.2c0-0.1-0.1-0.2-0.1-0.3c0-0.1,0-0.1,0.1-0.2c0-0.1,0.1-0.1,0.1-0.2
	c0.1-0.1,0.2-0.1,0.3-0.1c0.1,0,0.2-0.1,0.4-0.1c0.1,0,0.3,0,0.4,0.1c0.1,0,0.2,0.1,0.3,0.1c0.1,0,0.2,0.1,0.2,0.2l0.1,0.1l0.7-0.6
	l-0.2-0.2c-0.1-0.1-0.2-0.2-0.3-0.3c-0.2-0.1-0.3-0.2-0.5-0.2c-0.2-0.1-0.5-0.1-0.8-0.1c-0.3,0-0.6,0.1-0.8,0.2
	c-0.2,0.1-0.4,0.2-0.6,0.3c-0.2,0.1-0.3,0.3-0.3,0.5c-0.1,0.4-0.1,0.8,0,1.1c0.1,0.2,0.2,0.3,0.3,0.5c0.1,0.1,0.3,0.3,0.5,0.4
	c0.2,0.1,0.4,0.2,0.6,0.2c0.2,0,0.4,0.1,0.6,0.2c0.1,0,0.3,0.1,0.4,0.2c0.1,0.1,0.2,0.1,0.2,0.2c0,0.1,0.1,0.2,0.1,0.3
	c0,0.2-0.1,0.4-0.2,0.5c-0.2,0.2-0.5,0.2-0.7,0.2c-0.2,0-0.3,0-0.5-0.1c-0.1,0-0.3-0.1-0.4-0.2c-0.1-0.1-0.2-0.1-0.3-0.2
	c-0.1-0.1-0.2-0.2-0.2-0.2L52.7,28.6z M48.1,27.2l0.7-2.2l0.7,2.2H48.1z M46.2,29.5h1.1l0.5-1.4h2l0.5,1.4h1.2L49.4,24h-1.1
	L46.2,29.5z M40.7,29.5h1v-1.9l0.5-0.6l1.6,2.5h1.2l-2.2-3.3l2-2.2h-1.2l-2,2.3V24h-1L40.7,29.5z M33.8,29.5h1v-4l2.7,4h1V24h-1v3.9
	L34.9,24h-1L33.8,29.5z M28.9,27.2l0.7-2.2l0.7,2.2H28.9z M27,29.5h1.1l0.5-1.4h2l0.4,1.4h1.2L30.2,24h-1.1L27,29.5z M22.9,28.6
	v-1.5h0.9h0.3c0.1,0,0.2,0.1,0.3,0.1c0.1,0.1,0.2,0.1,0.3,0.2c0.1,0.1,0.1,0.3,0.1,0.4c0,0.1,0,0.3-0.1,0.4
	c-0.1,0.1-0.2,0.2-0.3,0.2c-0.1,0.1-0.2,0.1-0.3,0.1c-0.1,0-0.2,0-0.3,0L22.9,28.6L22.9,28.6z M22.9,26.2v-1.2h0.8
	c0.1,0,0.2,0,0.3,0c0.1,0,0.2,0.1,0.3,0.1c0.1,0,0.1,0.1,0.2,0.2c0.1,0.1,0.1,0.2,0.1,0.3c0,0.2-0.1,0.4-0.3,0.5
	c-0.1,0.1-0.2,0.1-0.3,0.1c-0.1,0-0.2,0-0.3,0L22.9,26.2z M21.8,29.5h1.9c0.3,0,0.5,0,0.8-0.1c0.2,0,0.5-0.1,0.6-0.3
	c0.2-0.1,0.3-0.3,0.4-0.5c0.1-0.2,0.2-0.5,0.2-0.7c0-0.2,0-0.4-0.1-0.6c-0.1-0.2-0.2-0.3-0.3-0.4c-0.1-0.1-0.2-0.2-0.4-0.2
	c-0.1,0-0.2-0.1-0.3-0.1c0.1,0,0.2,0,0.2-0.1c0.1-0.1,0.2-0.1,0.3-0.2c0.1-0.1,0.2-0.2,0.2-0.4c0.1-0.2,0.1-0.3,0.1-0.5
	c0-0.2,0-0.4-0.1-0.6c-0.1-0.2-0.2-0.3-0.3-0.5c-0.2-0.1-0.3-0.2-0.5-0.3C24.2,24,24,24,23.7,24h-1.9L21.8,29.5L21.8,29.5z
	 M52.5,17.8c0,0.3,0,0.6,0.1,0.8c0.1,0.3,0.2,0.5,0.4,0.7c0.2,0.2,0.4,0.4,0.7,0.5C54,20,54.3,20,54.7,20h0.1
	c-0.1,0.1-0.2,0.3-0.3,0.4c-0.1,0.1-0.1,0.3-0.1,0.4c0,0.2,0.1,0.4,0.2,0.5c0.2,0.1,0.4,0.2,0.6,0.2c0.2,0,0.3,0,0.5-0.1
	c0.2-0.1,0.3-0.1,0.5-0.2l-0.2-0.6c-0.1,0-0.1,0.1-0.2,0.1c-0.1,0-0.1,0-0.2,0c-0.1,0-0.2-0.1-0.2-0.2c0-0.1,0.1-0.3,0.1-0.4
	c0.1-0.2,0.3-0.3,0.5-0.4c0.1-0.1,0.2-0.2,0.3-0.2c0.1-0.1,0.2-0.2,0.3-0.4c0.1-0.2,0.2-0.3,0.2-0.5c0.1-0.2,0.1-0.5,0.1-0.7v-3.4
	h-1v3.3c0,0.4-0.1,0.7-0.3,1c-0.2,0.3-0.6,0.4-0.9,0.4c-0.2,0-0.4,0-0.6-0.1c-0.1-0.1-0.3-0.2-0.4-0.3c-0.1-0.1-0.2-0.3-0.2-0.4
	c0-0.2-0.1-0.4-0.1-0.6v-3.3h-1V17.8z M49.4,19.9h1v-5.5h-1V19.9z M43.9,19.9h3.7v-0.9h-2.7v-4.6h-1.1L43.9,19.9z M37.3,17.8
	c0,0.3,0,0.6,0.1,0.9c0.1,0.3,0.2,0.5,0.4,0.7c0.2,0.2,0.4,0.4,0.7,0.5c0.3,0.1,0.6,0.2,0.9,0.2c0.3,0,0.6-0.1,0.9-0.2
	c0.3-0.1,0.5-0.3,0.7-0.5c0.2-0.2,0.3-0.4,0.4-0.7c0.1-0.3,0.1-0.6,0.1-0.9v-3.5h-1v3.3c0,0.2,0,0.4-0.1,0.6c0,0.2-0.1,0.3-0.2,0.4
	c-0.1,0.1-0.2,0.2-0.4,0.3C39.9,19,39.7,19,39.5,19c-0.2,0-0.4,0-0.6-0.1c-0.1-0.1-0.3-0.2-0.4-0.3c-0.1-0.1-0.2-0.3-0.2-0.4
	c0-0.2-0.1-0.4-0.1-0.6v-3.3h-1L37.3,17.8L37.3,17.8z M32.5,17.6l0.7-2.2l0.7,2.2H32.5z M30.7,19.9h1l0.5-1.4h2l0.5,1.4h1.1
	l-2.1-5.5h-1.1L30.7,19.9z M28.1,19.9h1v-5.5H28L28.1,19.9z M23.6,13.9h0.9l0.9-1.3h-0.9L24,13.3l-0.5-0.7h-0.9L23.6,13.9z M21.8,19
	c0.1,0.1,0.2,0.2,0.3,0.3c0.1,0.1,0.3,0.2,0.5,0.3c0.2,0.1,0.4,0.2,0.6,0.3C23.5,20,23.7,20,24,20c0.3,0,0.5,0,0.8-0.1
	c0.2-0.1,0.4-0.2,0.6-0.4c0.2-0.2,0.3-0.3,0.4-0.5c0.1-0.2,0.2-0.4,0.1-0.7c0-0.2,0-0.5-0.1-0.7c-0.1-0.2-0.2-0.4-0.4-0.5
	c-0.2-0.1-0.3-0.3-0.5-0.3c-0.2-0.1-0.4-0.2-0.6-0.2c-0.2,0-0.4-0.1-0.6-0.1c-0.1,0-0.3-0.1-0.4-0.2c-0.1-0.1-0.1-0.1-0.2-0.2
	c0-0.1-0.1-0.2-0.1-0.3c0-0.1,0-0.2,0.1-0.2c0-0.1,0.1-0.1,0.1-0.2c0.1-0.1,0.2-0.1,0.3-0.1c0.1,0,0.2-0.1,0.4-0.1
	c0.1,0,0.3,0,0.4,0.1c0.1,0,0.2,0.1,0.3,0.1c0.1,0,0.2,0.1,0.2,0.2l0.1,0.1l0.7-0.6l-0.2-0.2c-0.1-0.1-0.2-0.2-0.3-0.3
	c-0.2-0.1-0.3-0.2-0.5-0.2c-0.2-0.1-0.5-0.1-0.8-0.1c-0.3,0-0.6,0-0.8,0.1c-0.2,0.1-0.4,0.2-0.6,0.3c-0.2,0.1-0.3,0.3-0.4,0.5
	c-0.1,0.2-0.1,0.4-0.1,0.6c0,0.2,0,0.4,0.1,0.5c0.1,0.2,0.1,0.3,0.3,0.5c0.1,0.2,0.3,0.3,0.5,0.4c0.2,0.1,0.4,0.2,0.7,0.2
	c0.2,0,0.4,0.1,0.6,0.2c0.1,0,0.3,0.1,0.4,0.2c0.1,0.1,0.2,0.1,0.2,0.2c0,0.1,0.1,0.2,0.1,0.3c0,0.1,0,0.2-0.1,0.3
	c0,0.1-0.1,0.2-0.2,0.2c-0.2,0.2-0.5,0.2-0.7,0.2c-0.2,0-0.3,0-0.5-0.1c-0.1,0-0.3-0.1-0.4-0.2c-0.1-0.1-0.2-0.1-0.3-0.2l-0.2-0.2
	L21.8,19z M8.4,23.5v-7.1c0-0.3,0-0.6-0.1-0.9C8,15.2,7.5,15,7,15.1c-1.3,0.4-2.4,1.2-3.2,2.3c-0.8,1.4-0.5,3.2,0.9,4.1
	C5.9,22.3,7.1,23,8.4,23.5L8.4,23.5z M8.4,28.4c0-1-0.4-1.9-1.2-2.5c-0.9-0.6-2.1-1-3.1-1.6c-0.4-0.2-0.7-0.4-1-0.7v6.9
	c0,0.3,0,0.5,0.1,0.8c0.3,0.9,1.2,1.3,2.1,1c0.1,0,0.1,0,0.2-0.1C5.6,32.1,5.8,32.1,6,32C7.5,31.5,8.5,30,8.4,28.4L8.4,28.4z
	 M10.6,29.6v-7.9c0,0,1.9-1,2.3-1.1c1.5-0.6,3.5,0,3.6,2.6c0,0.7-0.1,1.4-0.3,2c-0.4,0.9-1,1.7-1.9,2.2
	C13.2,28.4,10.6,29.6,10.6,29.6L10.6,29.6z M12.1,12.7c-0.9,0.1-1.5,0.8-1.5,1.7c0,0.1,0,0.1,0,0.2v4.8c0,0,2.7-1.2,3.2-1.5
	C16.7,16,15.1,12,12.1,12.7L12.1,12.7z"/>
</svg>
