<?xml version="1.0" encoding="utf-8"?>
<!-- Generator: Adobe Illustrator 27.1.1, SVG Export Plug-In . SVG Version: 6.00 Build 0)  -->
<svg version="1.1" id="Layer_1" xmlns="http://www.w3.org/2000/svg" xmlns:xlink="http://www.w3.org/1999/xlink" x="0px" y="0px"
	 width="60px" height="45px" viewBox="0 0 60 45" style="enable-background:new 0 0 60 45;" xml:space="preserve">
<style type="text/css">
	.st0{fill-rule:evenodd;clip-rule:evenodd;fill:#878EA8;}
	.st1{fill:#878EA8;}
	.st2{fill-rule:evenodd;clip-rule:evenodd;fill:url(#path277_00000144314650330983063110000013503102075361935019_);}
	.st3{fill-rule:evenodd;clip-rule:evenodd;fill:url(#path279_00000164476802082968770920000014458737344130806421_);}
	.st4{fill:url(#SVGID_1_);}
	.st5{fill:url(#SVGID_00000096773787293708757140000007320257130861490841_);}
	.st6{fill:url(#SVGID_00000127726284971034870680000000302005510344850314_);}
	.st7{fill:url(#SVGID_00000090998666571030057800000018432074489143706501_);}
	.st8{fill:url(#SVGID_00000183950577584669356770000013369923872555060913_);}
	.st9{fill:url(#SVGID_00000123441524559440726410000013251708875643478160_);}
	.st10{fill:url(#SVGID_00000047026594491918291670000014269663513877468808_);}
	.st11{fill:url(#SVGID_00000018237239184332196580000010248306221619502266_);}
	.st12{fill:url(#SVGID_00000005975415932539630550000013074886786752675248_);}
	.st13{fill:url(#SVGID_00000147222215694722956220000018260947593310171557_);}
</style>
<path id="path157" class="st1" d="M53.9,27.1v-2.7c-0.1-0.7,0.2-1.5,0.7-2c0.5-0.4,1.1-0.6,1.7-0.6v-2c-2.1,0-2.5,1.2-2.5,1.2
	l-0.6-1H52v7.1L53.9,27.1z M14.8,27.3c1.9,0,2.4-1.2,2.4-1.2l0.6,1H19V20h-1.9v3.5c0.1,0.7-0.2,1.4-0.8,1.8
	c-0.3,0.2-0.6,0.2-0.9,0.2c-1.1,0-1.4-0.6-1.4-1.7V20H12v4.4C12,26.4,13,27.3,14.8,27.3z M40,19.8L40,19.8c-1.9,0-2.4,1.2-2.4,1.2
	L37,20h-1.2v7.1h1.9v-3.5c-0.1-0.7,0.2-1.4,0.7-1.8c0.3-0.2,0.6-0.2,0.9-0.2c1.1,0,1.4,0.6,1.4,1.7v3.9h1.9v-4.5
	C42.8,20.7,41.8,19.8,40,19.8L40,19.8z M29.1,19.8c-1.8,0-2.3,1.1-2.3,1.1l0,0.1l-0.1-0.1c-0.5-0.8-1.4-1.2-2.3-1.1
	c-1.8,0-2.3,1.1-2.3,1.1l0,0.1l-0.6-1h-1.3v7.1h1.9v-3.5c0-1.4,0.5-2,1.5-2c0.9,0,1.3,0.5,1.3,1.7v3.9h1.9v-3.6c0-1.3,0.5-2,1.5-2
	c0.6,0,1.3,0.2,1.3,1.7v3.9h1.9v-4.5C31.7,20.7,30.9,19.8,29.1,19.8L29.1,19.8z M6.4,25.1v-8h-2v10h7v-2L6.4,25.1L6.4,25.1z
	 M32.2,17.1l1.4,1.5l1.5-1.5l-1.5-1.4L32.2,17.1z M32.7,20h2v7.1h-2V20z M47.3,19.8c-1.1,0-2.1,0.4-2.9,1.1c-1.4,1.5-1.4,3.8,0,5.3
	c0.8,0.7,1.8,1.2,2.9,1.1c2.1,0.1,3.8-1.5,3.9-3.6c0.1-2.1-1.5-3.8-3.6-3.9C47.5,19.8,47.4,19.8,47.3,19.8z M47.3,25.6
	c-1.1,0-1.9-0.9-1.9-1.9c0-0.1,0-0.1,0-0.2c0-1.1,0.9-1.9,1.9-1.9c1.1,0,1.9,0.9,1.9,1.9c0.1,1.1-0.7,2-1.7,2.1
	C47.4,25.7,47.4,25.7,47.3,25.6L47.3,25.6z"/>
</svg>
