<?xml version="1.0" encoding="utf-8"?>
<!-- Generator: Adobe Illustrator 27.1.1, SVG Export Plug-In . SVG Version: 6.00 Build 0)  -->
<svg version="1.1" id="Layer_1" xmlns="http://www.w3.org/2000/svg" xmlns:xlink="http://www.w3.org/1999/xlink" x="0px" y="0px"
	 width="60px" height="45px" viewBox="0 0 60 45" style="enable-background:new 0 0 60 45;" xml:space="preserve">
<style type="text/css">
	.st0{fill-rule:evenodd;clip-rule:evenodd;fill:#878EA8;}
	.st1{fill:#878EA8;}
	.st2{fill-rule:evenodd;clip-rule:evenodd;fill:url(#path277_00000181063833873792288090000012285869803364788652_);}
	.st3{fill-rule:evenodd;clip-rule:evenodd;fill:url(#path279_00000183216280342040806200000006560042383282152097_);}
	.st4{fill:url(#SVGID_1_);}
	.st5{fill:url(#SVGID_00000038383757694183966830000011033629625879712175_);}
	.st6{fill:url(#SVGID_00000164477118494620497760000009042114226045634456_);}
	.st7{fill:url(#SVGID_00000064318420161800086150000005011385203954692528_);}
	.st8{fill:url(#SVGID_00000083076008407368816620000007045933527700744118_);}
	.st9{fill:url(#SVGID_00000021104328819037494970000000332847730809799303_);}
	.st10{fill:url(#SVGID_00000151544100274059675790000009548691893442019497_);}
	.st11{fill:url(#SVGID_00000146465279054786940630000013558798892014104196_);}
	.st12{fill:url(#SVGID_00000170246762047085045090000010182002469329714562_);}
	.st13{fill:url(#SVGID_00000100371967038246805510000009787747953976877443_);}
</style>
<path class="st1" d="M23.7,23.8v3.5h-1.9v-9.5h3.9c2.3,0,3.5,1.2,3.5,3s-1.2,3-3.5,3L23.7,23.8z M23.7,19.5v2.6h1.9
	c1,0,1.6-0.4,1.6-1.3s-0.5-1.3-1.6-1.3H23.7z M36.2,24c0,0.2,0,0.4,0,0.6h-4.7c0.1,0.4,0.3,0.8,0.6,1c0.3,0.3,0.7,0.4,1.1,0.3
	c0.6,0,1.2-0.2,1.7-0.6l1,1.1c-0.8,0.7-1.8,1-2.8,1c-0.9,0-1.8-0.3-2.5-0.9c-0.6-0.7-1-1.6-0.9-2.5c0-2.1,1.4-3.5,3.3-3.5
	S36.2,21.9,36.2,24L36.2,24z M31.5,23.4h2.9c0-0.4-0.2-0.7-0.5-0.9c-0.6-0.5-1.5-0.5-2.1,0.1C31.7,22.8,31.5,23.1,31.5,23.4
	L31.5,23.4z M41.9,20.7l-0.3,1.8c-0.3-0.1-0.7-0.2-1.1-0.2c-0.2,0-0.4,0-0.6,0.1c-0.2,0.1-0.4,0.2-0.5,0.3c-0.1,0.1-0.2,0.3-0.3,0.5
	c-0.1,0.2-0.1,0.4,0,0.6v3.6h-1.7v-6.6h1.7v0.7c0.2-0.3,0.5-0.5,0.8-0.7c0.3-0.2,0.7-0.2,1-0.2C41.3,20.5,41.7,20.6,41.9,20.7
	L41.9,20.7z M42.8,17.5h1.7v9.8h-1.7V17.5z M52.7,27.3H51v-0.8c-0.2,0.3-0.5,0.5-0.9,0.7c-0.3,0.2-0.7,0.2-1.1,0.2
	c-0.4,0-0.9-0.1-1.3-0.3c-0.8-0.4-1.4-1-1.7-1.9c-0.1-0.4-0.2-0.8-0.2-1.3c0-0.4,0-0.9,0.2-1.3c0.1-0.4,0.4-0.8,0.7-1.1
	c0.3-0.3,0.7-0.6,1.1-0.8c0.4-0.2,0.8-0.3,1.3-0.3c0.4,0,0.7,0.1,1.1,0.2c0.3,0.2,0.6,0.4,0.9,0.7v-0.7h1.7L52.7,27.3z M47.7,24
	c0,0.2,0,0.5,0.1,0.7c0.1,0.2,0.2,0.4,0.4,0.6c0.2,0.2,0.4,0.3,0.6,0.4c0.7,0.3,1.4,0.1,1.9-0.4c0.2-0.2,0.3-0.4,0.4-0.6
	c0.1-0.2,0.1-0.5,0.1-0.7c0-0.2,0-0.5-0.1-0.7c-0.1-0.2-0.2-0.4-0.4-0.6c-0.2-0.2-0.4-0.3-0.6-0.4c-0.4-0.2-0.9-0.2-1.4,0
	c-0.4,0.2-0.8,0.6-0.9,1C47.7,23.5,47.6,23.8,47.7,24L47.7,24z M59.1,22.6c-0.7-0.3-1.4-0.5-2.1-0.5c-0.6,0-1,0.2-1,0.6
	c0,0.4,0.5,0.5,1.1,0.6l0.6,0.1c1.4,0.2,2.2,0.9,2.2,2c0,1.4-1.1,2.2-3,2.2c-1,0-2-0.2-2.9-0.8l0.7-1.3c0.7,0.4,1.4,0.7,2.2,0.6
	c0.8,0,1.2-0.2,1.2-0.6c0-0.4-0.3-0.5-1.1-0.6l-0.5-0.1c-1.5-0.2-2.3-0.9-2.3-2c0-1.3,1.1-2.2,2.8-2.2c1,0,1.9,0.2,2.8,0.6
	L59.1,22.6z M15.5,17.3c-0.2-0.3-0.5-0.6-0.9-0.7c-0.4-0.2-0.9-0.2-1.3-0.4s-0.6-0.6-1.1-0.9c-0.2-0.1-0.4-0.2-0.6-0.2
	c-0.6-0.1-1.1,0.1-1.6,0c-0.4-0.2-0.9-0.3-1.4-0.5c-0.3,0-0.5,0-0.8,0c-0.5,0.1-0.9,0.3-1.4,0.5c-0.6,0.1-1.1-0.1-1.6,0
	c-0.2,0-0.4,0.1-0.6,0.2c-0.4,0.2-0.6,0.7-1.1,0.9s-0.9,0.3-1.3,0.4C1.3,16.7,1,17,0.8,17.3c-0.2,0.2-0.3,0.5-0.4,0.7
	c-0.1,0.3-0.1,0.5,0,0.8C0.8,21,2.8,22.1,4.6,23h0.1c0,0,0.1,0,0.1,0C4.9,23,5,23,5,23c0,0,0.1-0.1,0.1-0.2c0,0,0-0.1,0-0.1
	c0,0,0-0.1-0.1-0.1c-1.1-0.5-2.1-1.3-2.9-2.2c-0.4-0.5-0.7-1.1-0.6-1.7c0.1-0.5,0.4-0.9,0.8-1.1c0.5-0.2,1-0.3,1.5-0.5
	c0.5-0.2,0.6-0.7,1.1-0.9c0.6-0.3,1.2,0,1.7-0.1c0.3-0.1,0.6-0.2,0.9-0.3c0.2-0.1,0.5-0.2,0.7-0.2h0.1c0.2,0,0.5,0.1,0.7,0.2
	c0.3,0.2,0.6,0.3,0.9,0.3c0.6,0.1,1.2-0.2,1.7,0.1c0.5,0.2,0.7,0.7,1.1,0.9s1,0.3,1.5,0.5c0.2,0.1,0.4,0.3,0.5,0.5
	c0.1,0.2,0.2,0.4,0.2,0.6c0,0.6-0.2,1.3-0.6,1.7c-0.8,0.9-1.8,1.7-2.9,2.2c0,0-0.1,0-0.1,0.1c0,0,0,0.1,0,0.1c0,0.1,0,0.1,0.1,0.2
	c0,0,0.1,0.1,0.2,0.1c0,0,0.1,0,0.1,0h0.1c1.8-0.9,3.8-2,4.3-4.2c0-0.3,0-0.5-0.1-0.8C15.8,17.7,15.7,17.5,15.5,17.3L15.5,17.3z
	 M8.1,20.5c-1.4,0-2.5,1.2-2.5,2.5c0,0.7,0.3,1.3,0.8,1.8c0.4,0.4,0.8,0.6,1.3,0.7c1.4,0.3,2.7-0.6,3-2c0-0.2,0.1-0.3,0.1-0.5
	C10.7,21.6,9.6,20.5,8.1,20.5L8.1,20.5z M8.2,24.8c-0.8,0-1.5-0.5-1.8-1.2c-0.1-0.4-0.2-0.7-0.1-1.1c0.1-0.4,0.2-0.7,0.5-1
	c0.8-0.7,2-0.7,2.7,0c0.1,0.1,0.2,0.2,0.2,0.3c0.6,0.9,0.3,2.1-0.5,2.7C8.9,24.6,8.6,24.8,8.2,24.8L8.2,24.8z M11,21.2
	c-0.1,0-0.1,0-0.1-0.1c0,0-0.1-0.1-0.1-0.2c0,0,0-0.1,0-0.1c0,0,0-0.1,0.1-0.1l0.1-0.1l1.3-0.9c0.1,0,0.1-0.1,0.2-0.1
	c0.1,0,0.1,0,0.2,0.1c0,0,0.1,0.1,0.1,0.2c0,0.1,0,0.1,0,0.2c0,0.1-0.1,0.1-0.1,0.1l-0.2,0.1c-0.4,0.2-0.7,0.4-1.1,0.6l-0.2,0.1
	C11.1,21.2,11.1,21.3,11,21.2L11,21.2z M9.8,20.2c-0.1,0-0.1,0-0.2-0.1c0,0-0.1-0.1-0.1-0.2c0,0,0-0.1,0-0.1l0-0.1
	c0.2-0.3,0.3-0.6,0.5-1l0.3-0.6c0,0,0.1-0.1,0.1-0.1c0,0,0.1,0,0.1,0c0,0,0.1,0,0.1,0c0,0,0.1,0,0.1,0.1c0.1,0.1,0.1,0.3,0,0.4
	c-0.2,0.4-0.5,0.7-0.7,1.1l-0.2,0.4C9.9,20.1,9.8,20.1,9.8,20.2C9.8,20.2,9.7,20.2,9.8,20.2L9.8,20.2z M8,19.5c0-0.4,0-0.9-0.1-1.3
	c0-0.4,0-0.7,0-0.8c0-0.1,0,0,0-0.1c0-0.1,0-0.2,0.1-0.3C8.1,17,8.1,17,8.2,17c0.1,0,0.2,0,0.2,0.1c0.1,0.1,0.1,0.2,0.1,0.2v0.1
	c0,0.8-0.1,1.2-0.1,1.5c0,0.2,0,0.3,0,0.5c0,0,0,0.1,0,0.1c0,0,0,0.1-0.1,0.1c0,0,0,0-0.1,0.1c0,0-0.1,0-0.1,0
	C8.1,19.7,8,19.6,8,19.5L8,19.5z M5.8,21.1L5.6,21l-1.1-0.7l-0.2-0.1c0,0-0.1-0.1-0.1-0.1c0,0,0-0.1,0-0.1c0,0,0-0.1,0-0.1
	c0,0,0-0.1,0.1-0.1c0,0,0.1-0.1,0.1-0.1c0,0,0.1,0,0.1,0c0.1,0,0.1,0,0.2,0.1L6,20.6l0.1,0.1c0,0,0.1,0,0.1,0.1c0,0,0,0.1,0,0.1
	c0,0,0,0.1,0,0.1c0,0,0,0.1,0,0.1c0,0-0.1,0.1-0.1,0.1C5.9,21.1,5.9,21.1,5.8,21.1L5.8,21.1z M6.6,20.1c0,0-0.1,0-0.1,0
	c0,0-0.1,0-0.1-0.1l-0.2-0.4c-0.2-0.4-0.5-0.7-0.7-1.1c0-0.1-0.1-0.2,0-0.3c0-0.1,0.1-0.1,0.2-0.2c0.1,0,0.2,0,0.3,0
	c0,0,0.1,0.1,0.1,0.1c0.1,0.2,0.2,0.4,0.3,0.6c0.2,0.3,0.3,0.6,0.5,0.9l0,0.1c0,0,0,0,0,0.1c0,0.1,0,0.1-0.1,0.2
	C6.7,20,6.7,20,6.6,20.1L6.6,20.1z M14.4,27.8c0-0.1,0-0.2,0-0.2c0-0.1-0.1-0.1-0.1-0.1c-0.1,0-0.1,0-0.2,0h0
	c-1.9,1.3-3.1,2.2-5.9,2.2c-2.4,0-3.7-0.6-6-2.2H2.1c-0.1,0-0.1,0-0.2,0c0,0-0.1,0.1-0.1,0.1c0,0.1,0,0.2,0,0.2
	c1.6,1.8,3.9,2.8,6.2,2.7C11.5,30.5,12.9,29.1,14.4,27.8L14.4,27.8z M15.3,24.6c-1-0.5-2.1-0.9-3.3-1.1h0c-0.1,0-0.1,0-0.1,0.1
	c0,0-0.1,0.1-0.1,0.1c0,0.1,0,0.1,0.1,0.1c0,0,0.1,0.1,0.1,0.1c0.7,0.1,1.5,0.3,2.2,0.6c0.4,0.1,0.8,0.4,1.1,0.7
	c0.1,0.1,0.1,0.2,0.2,0.3c0,0.1,0,0.2,0,0.3c-0.1,0.1-0.1,0.2-0.2,0.2c-0.1,0.1-0.2,0.1-0.3,0.1c-0.4,0-0.8-0.1-1.1-0.2
	c-0.2-0.1-0.3-0.1-0.5-0.2c-0.5-0.1-0.9,0.3-1.3,0.5c-0.4,0.2-0.8,0.4-1.2,0.5c-0.3,0-0.6,0-0.8-0.1c-0.5-0.2-1-0.4-1.6-0.5H8.1
	c-0.5,0.1-1.1,0.2-1.6,0.5c-0.3,0.1-0.6,0.2-0.8,0.1c-0.4-0.1-0.8-0.3-1.2-0.5c-0.4-0.3-0.8-0.6-1.3-0.5c-0.2,0-0.3,0.1-0.5,0.2
	c-0.4,0.2-0.7,0.2-1.1,0.2c-0.1,0-0.2,0-0.3-0.1c-0.1-0.1-0.2-0.1-0.2-0.2c0-0.1-0.1-0.2,0-0.3c0-0.1,0.1-0.2,0.2-0.3
	c0.3-0.3,0.7-0.6,1.1-0.7C3,24.2,3.7,24,4.4,23.9c0,0,0.1,0,0.1-0.1c0,0,0-0.1,0-0.1c0,0,0-0.1,0-0.1c0,0-0.1-0.1-0.1-0.1H4.3
	C3.2,23.7,2,24,1,24.6c-0.2,0.1-0.4,0.3-0.6,0.5c-0.1,0.2-0.2,0.5-0.2,0.8c0,0.2,0.1,0.4,0.2,0.6c0.1,0.2,0.3,0.3,0.5,0.4
	C1.2,27,1.6,27,1.9,27c0.3,0,0.7-0.2,1-0.3c0.1,0,0.2,0,0.3,0c0.1,0,0.2,0.1,0.3,0.1c0.6,0.5,1.4,0.8,2.3,0.9
	c0.6-0.1,1.2-0.3,1.7-0.5C7.7,27.1,7.9,27,8.1,27h0.2c0.2,0,0.3,0,0.5,0.1c0.6,0.2,1.1,0.4,1.7,0.5c0.9,0,1.7-0.3,2.3-0.9
	c0.1-0.1,0.2-0.1,0.3-0.1c0.1,0,0.2,0,0.3,0c0.6,0.4,1.3,0.4,2,0.3c0.2-0.1,0.4-0.2,0.5-0.4c0.1-0.2,0.2-0.4,0.2-0.6
	C16.2,25.3,15.9,24.9,15.3,24.6"/>
</svg>
