<svg width="54" height="51" viewBox="0 0 54 51" fill="none" xmlns="http://www.w3.org/2000/svg">
<path d="M17.4844 24.5469H20.1484V26.8047H17.4844V29.8594H15.0234V26.8047H12.3516V24.5469H15.0234V21.5781H17.4844V24.5469ZM27.0781 31H24.4375V22.5938L21.8438 23.3516V21.3516L26.8359 19.625H27.0781V31ZM38.1797 22.6641C38.1797 23.2161 38.0417 23.7031 37.7656 24.125C37.4948 24.5469 37.1198 24.8854 36.6406 25.1406C37.1823 25.4062 37.612 25.7708 37.9297 26.2344C38.2474 26.6927 38.4062 27.237 38.4062 27.8672C38.4062 28.8828 38.0547 29.6849 37.3516 30.2734C36.6536 30.862 35.6901 31.1562 34.4609 31.1562C33.2266 31.1562 32.2526 30.862 31.5391 30.2734C30.8255 29.6797 30.4688 28.8776 30.4688 27.8672C30.4688 27.2578 30.625 26.7188 30.9375 26.25C31.25 25.7812 31.6927 25.4115 32.2656 25.1406C31.7812 24.8854 31.401 24.5469 31.125 24.125C30.849 23.7031 30.7109 23.2161 30.7109 22.6641C30.7109 21.6745 31.0469 20.8932 31.7188 20.3203C32.3906 19.7474 33.2969 19.4609 34.4375 19.4609C35.5885 19.4609 36.5 19.7474 37.1719 20.3203C37.8438 20.8932 38.1797 21.6745 38.1797 22.6641ZM35.7656 27.6562C35.7656 27.1875 35.6432 26.8281 35.3984 26.5781C35.1589 26.3229 34.8411 26.1953 34.4453 26.1953C34.0495 26.1953 33.7292 26.3229 33.4844 26.5781C33.2396 26.8281 33.1172 27.1875 33.1172 27.6562C33.1172 28.1094 33.2396 28.4688 33.4844 28.7344C33.7344 28.9948 34.0599 29.125 34.4609 29.125C34.8516 29.125 35.1667 28.9948 35.4062 28.7344C35.6458 28.474 35.7656 28.1146 35.7656 27.6562ZM34.4375 21.4922C34.0833 21.4922 33.8125 21.6094 33.625 21.8438C33.4427 22.0729 33.3516 22.3932 33.3516 22.8047C33.3516 23.2109 33.4453 23.5391 33.6328 23.7891C33.8203 24.0391 34.0964 24.1641 34.4609 24.1641C34.8203 24.1641 35.0885 24.0391 35.2656 23.7891C35.4479 23.5391 35.5391 23.2109 35.5391 22.8047C35.5391 22.3984 35.4453 22.0781 35.2578 21.8438C35.0755 21.6094 34.8021 21.4922 34.4375 21.4922Z" fill="#838894"/>
<circle cx="26" cy="26" r="19" stroke="#838894" stroke-width="4"/>
</svg>
