<?xml version="1.0" encoding="utf-8"?>
<!-- Generator: Adobe Illustrator 25.2.0, SVG Export Plug-In . SVG Version: 6.00 Build 0)  -->
<svg version="1.1" id="Layer_1" xmlns="http://www.w3.org/2000/svg" xmlns:xlink="http://www.w3.org/1999/xlink" x="0px" y="0px"
	 width="58px" height="62px" viewBox="0 0 58 62" style="enable-background:new 0 0 58 62;" xml:space="preserve">
<style type="text/css">
	.st0{clip-path:url(#SVGID_2_);}
	.st1{fill:#FFFFFF;}
	.st2{fill:#0B0204;}
	.st3{fill:#EC1C29;}
	.st4{fill:#D6CFCC;}
	.st5{fill-rule:evenodd;clip-rule:evenodd;fill:#FFFFFF;}
	.st6{opacity:0.5425;fill-rule:evenodd;clip-rule:evenodd;fill:#FFFFFF;enable-background:new    ;}
	.st7{opacity:0.152;fill-rule:evenodd;clip-rule:evenodd;fill:#FFFFFF;enable-background:new    ;}
	.st8{fill:#18AE62;}
	.st9{fill-rule:evenodd;clip-rule:evenodd;fill:#F9A417;}
	.st10{fill-rule:evenodd;clip-rule:evenodd;fill:#231F20;}
	.st11{fill-rule:evenodd;clip-rule:evenodd;fill:#FCFDFF;}
	.st12{fill:#231F20;}
	.st13{fill:#00AB76;}
</style>
<g>
	<defs>
		<rect id="SVGID_1_" x="3.5" y="3.5" width="51" height="54.9"/>
	</defs>
	<clipPath id="SVGID_2_">
		<use xlink:href="#SVGID_1_"  style="overflow:visible;"/>
	</clipPath>
	<g class="st0">
		<path class="st1" d="M51.4,23.8c-1.1-2.7-2.6-5.1-4.6-7.2l-0.1-0.1l-1-7.7l-4.8-2l-1.1,4.4L39.2,11c-0.2-0.1-0.4-0.2-0.5-0.2
			c-1.6-0.7-3.3-1.2-5-1.5l-0.4-0.1l-0.1-4.3h-8.2l-0.1,4.3l-0.4,0.1c-1.9,0.4-3.8,0.9-5.5,1.7l-0.6,0.3l-1.1-4.4l-4.8,1.9l-1,7.7
			l-0.1,0.1C8,20,5.9,24.3,5.2,29C4.4,33.6,5,38.3,6.9,42.7c1.9,4.3,5,8,8.9,10.5c3.9,2.6,8.5,3.9,13.2,3.9h0.1c4,0,7.9-1,11.4-2.9
			c3.5-1.9,6.5-4.6,8.7-7.9c2.2-3.3,3.6-7.1,4-11C53.4,31.4,52.9,27.5,51.4,23.8z"/>
		<path class="st2" d="M52.3,23.4c-1.1-2.7-2.7-5.2-4.7-7.4l-1-7.9l-6.4-2.6l-1.1,4.4h0c-1.6-0.7-3.2-1.2-4.9-1.5l-0.1-4.5H23.9
			l-0.1,4.4c-1.7,0.3-3.3,0.9-4.9,1.5l-1.1-4.3l-6.4,2.6l-0.7,5.3L10.4,16c-3.3,3.6-5.5,8.1-6.2,12.9C3.4,33.7,4,38.6,6,43.1
			c2,4.5,5.2,8.3,9.3,10.9c4.1,2.7,8.9,4.1,13.7,4.1h0.1c4.1,0,8.2-1,11.8-3c3.6-1.9,6.7-4.8,9-8.2c2.3-3.4,3.7-7.4,4.1-11.5
			C54.5,31.4,53.9,27.2,52.3,23.4z M51.1,42.2c-1.8,4.3-4.9,8.1-8.8,10.7c-3.9,2.6-8.5,4-13.2,4H29c-4.7,0-9.2-1.4-13.1-3.9
			c-3.9-2.5-7-6.2-8.8-10.4c-1.9-4.3-2.5-9-1.7-13.6c0.8-4.6,2.9-8.9,6-12.3l0.2-0.2l1-7.6L17,7.1l1.1,4.4l0.8-0.4
			c1.8-0.8,3.6-1.4,5.5-1.7L25,9.3l0.1-4.2h7.8L33,9.3l0.6,0.1c1.7,0.3,3.4,0.8,5,1.5l0.5,0.2l0.8,0.4L41,7.1l4.5,1.8l1,7.6l0.2,0.2
			c3.1,3.4,5.2,7.6,6,12.1C53.4,33.3,52.9,38,51.1,42.2L51.1,42.2z"/>
		<path class="st2" d="M17.7,46c0,0-2.1-2-2.2-2.2l-0.7,0.7l0.5,0.6l-2.5,2.7l-0.5-0.5l-0.7,0.6c0.6,0.7,1.2,1.3,1.9,1.9l0.6-0.7
			l-0.3-0.3l1-1.1l0.5,0.4l-0.7,2.7c0.4,0.4,1.4,1,1.4,1l0.5-0.8L16,50.7l0.4-1.7c0.3,0.1,0.6,0.1,0.9,0.1c0.3-0.1,0.6-0.2,0.8-0.5
			c0.2-0.2,0.3-0.3,0.3-0.6c0.1-0.2,0.1-0.4,0-0.6C18.4,46.8,18.1,46.4,17.7,46z M16.9,47.5c-0.3,0.3-0.7,0.3-1.1-0.1l-0.4-0.4
			l0.9-1l0.5,0.4c0.2,0.1,0.3,0.3,0.3,0.5c0,0.1,0,0.2,0,0.3C17.1,47.4,17,47.5,16.9,47.5z"/>
		<path class="st2" d="M23.4,50.3l0.4,0.1l-1.2,1l-0.3-1.6l0.4,0.1l0.3-0.9c-0.8-0.3-1.6-0.7-2.4-1.1l-0.4,0.9l0.7,0.4l0.7,2.7
			l-0.5,1.4l-0.7-0.3L19.9,54c0.9,0.4,1.9,0.7,2.9,1l0.3-0.9l-0.7-0.2l0.5-1.4l2.2-1.6l0.7,0.1L26,50c-1-0.2-2.3-0.5-2.3-0.5
			L23.4,50.3z"/>
		<path class="st2" d="M32.3,52.2l0.9-0.1l-0.3-2.2c-1.7,0.3-3.4,0.5-5,0.4l0.1,2.2h0.9v-1.2h0.9l0.3,3.6l-0.8,0.1v0.9
			c1,0,2.1-0.1,3.1-0.2l-0.1-0.9l-0.8,0.1l-0.3-3.6l0.9-0.1L32.3,52.2z"/>
		<path class="st2" d="M40.9,51.4l-2.7-2.7l0.7-0.5l-0.5-0.8c-1,0.6-2.1,1.2-3.3,1.6l0.4,0.9l0.8-0.3l0.7,3.8l-0.5,0.2l0.3,0.8
			c0.6-0.2,1.9-0.8,1.9-0.8L38.3,53l-0.3,0.1l-0.2-1l1.3-0.7l0.6,0.7l-0.4,0.3l0.5,0.8c0,0,1.4-0.8,2.2-1.3l-0.5-0.8L40.9,51.4z
			 M37.6,51.2l-0.3-1.7l1.2,1.3L37.6,51.2z"/>
		<path class="st2" d="M45.6,46.3c-0.3-0.3-0.7-0.4-1.1-0.4c-0.5,0-0.9,0.1-1.3,0.4L43,46.3c-0.2,0.1-0.4,0.2-0.5,0.2
			c-0.1,0-0.2,0.1-0.3,0.1c-0.1,0-0.2,0-0.3-0.1c0,0-0.1-0.1-0.1-0.2c0-0.1,0-0.1,0-0.2c0-0.1,0.1-0.3,0.2-0.4
			c0.1-0.2,0.3-0.3,0.5-0.3c0.2,0,0.5,0.1,0.6,0.2l0.6-0.7l-1.3-1.1l-0.6,0.7l0.3,0.3c-0.2,0-0.4,0-0.6,0.1
			c-0.2,0.1-0.4,0.2-0.5,0.4c-0.2,0.2-0.3,0.4-0.3,0.7c0,0.3,0,0.5,0.1,0.8c0.1,0.3,0.3,0.5,0.5,0.7c0.3,0.2,0.6,0.4,1,0.4
			c0.5,0,1-0.2,1.4-0.4c0.2-0.1,0.5-0.2,0.8-0.2c0.1,0,0.2,0,0.3,0c0.1,0,0.2,0.1,0.2,0.1c0.1,0,0.1,0.1,0.1,0.2
			c0,0.1,0.1,0.1,0.1,0.2c0,0.1,0,0.2,0,0.2c0,0.1-0.1,0.1-0.1,0.2c-0.1,0.1-0.2,0.2-0.3,0.2c-0.1,0.1-0.2,0.1-0.3,0.1
			c-0.3,0-0.5-0.1-0.7-0.3l-0.6,0.7l1.3,1.2l0.7-0.7l-0.3-0.3c0.2,0,0.4,0,0.7-0.1c0.2-0.1,0.4-0.2,0.5-0.4c0.2-0.2,0.3-0.3,0.3-0.6
			c0.1-0.2,0.1-0.4,0.1-0.6c0-0.2-0.1-0.4-0.2-0.6C45.9,46.6,45.8,46.4,45.6,46.3z"/>
		<path class="st2" d="M43.8,39.7c1.6-3.4,1.9-7.3,0.9-10.9c-1-3.6-3.2-6.8-6.2-9c-3.1-2.2-6.8-3.3-10.5-3
			c-3.8,0.2-7.3,1.8-10.1,4.3c-2.8,2.6-4.5,6-5,9.8c-0.5,3.7,0.3,7.5,2.3,10.7c2,3.2,5,5.6,8.6,6.8c3.6,1.2,7.4,1.2,11-0.2
			c2-0.7,3.8-1.9,5.4-3.3C41.6,43.4,42.9,41.6,43.8,39.7z M42.7,39.2c-0.5,1-1,2-1.7,2.8l-0.5-0.2c-1.4-0.6-2.6-1.6-3.6-2.8l1.7-1.6
			l-1.5-2.2l1.2-1.6H44C43.9,35.5,43.5,37.4,42.7,39.2L42.7,39.2z M32.1,42l-1.5,2.4h-3.3L25.8,42l1.2-3.3l-2,2.3l-4.1-3.8l1.4-2
			L21,33.3l1-1.7l0.1-2.7l0.2-4.5l2.7,2.4h8l2.7-2.4l0.4,7.2l1,1.7l-1.4,1.8l0.7,1.1l0.7,1L32.9,41l-2-2.3L32.1,42z M28.4,25.6v-2.4
			h1.2v2.4H28.4z M44,32.4h-6.1l-0.6-1.1L37,26.7c1.1-1.3,2.4-2.2,3.9-2.8C42.8,26.4,43.9,29.3,44,32.4L44,32.4z M23.7,18.9
			c1.7-0.6,3.5-1,5.3-1c2.1,0,4.2,0.5,6.1,1.3c1.9,0.9,3.7,2.1,5.1,3.7c-1.2,0.5-2.3,1.2-3.3,2.1l-0.2-3.2L33.2,25v-4.4H32v5h-1.2
			v-3.6h-1.2v-2.4h-1.2v2.4h-1.2v3.6H26v-5h-1.2V25l-3.6-3.1L21,25c-0.9-0.8-1.9-1.5-3-2l-0.2-0.1C19.4,21.1,21.4,19.7,23.7,18.9z
			 M15.3,26.7c0.5-1,1-2,1.7-2.8c0.2,0.1,0.3,0.1,0.5,0.2c1.3,0.6,2.5,1.5,3.4,2.6l-0.2,4.5l-0.6,1.1H14
			C14.1,30.4,14.5,28.5,15.3,26.7z M14,33.5h5.6l1.2,1.6l-1.5,2.2l1.7,1.6c-1.1,1.4-2.5,2.4-4.1,3C15.2,39.5,14.1,36.6,14,33.5
			L14,33.5z M34.3,47c-1.8,0.7-3.8,1-5.8,1s-3.9-0.5-5.7-1.3c-1.9-0.9-3.6-2.1-5-3.7c1.6-0.7,3.1-1.8,4.2-3.2l2.5,2.4l2.1,3.4h4.6
			l2.2-3.4l2.5-2.4c1.1,1.3,2.4,2.4,4,3.1l0.2,0.1C38.6,44.8,36.6,46.2,34.3,47z"/>
		<path class="st2" d="M8.9,34.2c0.7,0,1.3-0.6,1.3-1.3c0-0.7-0.6-1.3-1.3-1.3c-0.7,0-1.3,0.6-1.3,1.3C7.6,33.6,8.2,34.2,8.9,34.2z"
			/>
		<path class="st2" d="M49.1,34.2c0.7,0,1.3-0.6,1.3-1.3c0-0.7-0.6-1.3-1.3-1.3c-0.7,0-1.3,0.6-1.3,1.3
			C47.8,33.6,48.4,34.2,49.1,34.2z"/>
		<path class="st2" d="M27.6,34.2c0,0-2.2-0.9-3.6-1.6l0.9,1.6l2.1,1l0.5,1.7L27.6,34.2z"/>
		<path class="st2" d="M23,26.2l-0.1,4.1l1.2-1.6L23,26.2z"/>
		<path class="st2" d="M35,26.2l-1.1,2.5l1.2,1.6L35,26.2z"/>
		<path class="st2" d="M33.9,32.6c-1.4,0.7-3.6,1.6-3.6,1.6l0.1,2.8l0.5-1.7l2.1-1L33.9,32.6z"/>
		<path class="st2" d="M30.8,41.7L30.6,41h-3.2l-0.2,0.7l1.8,1.7L30.8,41.7z"/>
		<path class="st2" d="M14.1,18.7l3.1,1.7l0.6-0.6l-1.4-3.3l0.4-0.3l-0.4-0.5c-0.5,0.4-1.2,0.9-1.3,1.1l0.5,0.5l0.3-0.2l0.9,2
			l-1.9-1.1l0.3-0.3l-0.5-0.5c-0.5,0.4-0.9,0.9-1.4,1.4l0.5,0.5L14.1,18.7z"/>
		<path class="st2" d="M18.4,15.1l1.3,2.4l-0.5,0.3l0.4,0.6c0.6-0.4,1.3-0.8,1.9-1.1l-0.3-0.6L20.6,17l-1.3-2.4l0.5-0.3l-0.3-0.6
			c0,0-1.6,0.8-2.1,1.2l0.4,0.5L18.4,15.1z"/>
		<path class="st2" d="M22.1,13.4l0.7,2.6l-0.6,0.3l0.2,0.7c1.1-0.5,2.3-0.8,3.5-1l-0.5-2l-0.8,0.2l0.2,1.2l-1.2,0.3l-0.7-2.6
			l0.6-0.2l-0.2-0.7c-0.7,0.2-1.5,0.4-2.2,0.7l0.2,0.7L22.1,13.4z"/>
		<path class="st2" d="M27,15l0,0.7c0.6-0.1,1.2-0.1,1.8-0.1V15h-0.5v-2.3l1.8,3.1l0.9,0.1l0.2-3.5l0.5,0.1l0.1-0.7
			c-0.9-0.1-1.7-0.2-1.7-0.2v0.6l0.3,0l-0.2,1.9l-1.5-2.7c0,0-1.3,0-1.8,0l0,0.6h0.5V15L27,15z"/>
		<path class="st2" d="M34.8,15.9l-0.6-0.2l0.7-2.6l0.6,0.2l0.2-0.7c0,0-1.3-0.4-2.3-0.6l-0.1,0.7l0.6,0.2l-0.8,2.6l-0.7-0.1
			L32.3,16c0.8,0.2,1.5,0.4,2.3,0.6L34.8,15.9z"/>
		<path class="st2" d="M37.1,17.7c0.3,0.2,0.7,0.3,1.1,0.3c0.4-0.1,0.6-0.4,0.8-0.8l1-1.8l0.4,0.3l0.3-0.6c-0.4-0.3-1.3-0.8-1.3-0.8
			l-0.3,0.6l0.2,0.1l-0.9,1.6c-0.1,0.2-0.3,0.4-0.5,0.5c-0.1,0-0.2,0-0.2,0c-0.1,0-0.2,0-0.2-0.1c-0.1,0-0.2-0.1-0.2-0.2
			c0-0.1-0.1-0.2,0-0.3c0-0.2,0.1-0.3,0.2-0.5l0.9-1.6l0.3,0.1L39,14c-0.6-0.3-1.1-0.6-1.7-0.8L37,13.8l0.4,0.2l-0.9,1.6
			c-0.2,0.3-0.3,0.6-0.3,0.9c0,0.2,0,0.5,0.2,0.7C36.6,17.4,36.8,17.5,37.1,17.7z"/>
		<path class="st2" d="M40.8,18.4L40.2,18l-0.8,1.1l0.5,0.4l0.2-0.3c0,0.2,0,0.3,0.1,0.5c0.1,0.1,0.2,0.3,0.3,0.4
			c0.1,0.1,0.3,0.2,0.4,0.2s0.3,0.1,0.5,0c0.2,0,0.3-0.1,0.5-0.2c0.1-0.1,0.3-0.2,0.3-0.3c0.2-0.2,0.3-0.5,0.3-0.8
			c0-0.3-0.1-0.7-0.3-0.9l-0.1-0.2c-0.1-0.2-0.1-0.3-0.2-0.4c0-0.1-0.1-0.2-0.1-0.2c0-0.1,0-0.2,0.1-0.2c0,0,0.1-0.1,0.1-0.1
			c0,0,0.1,0,0.1,0c0.1,0,0.2,0,0.3,0.1c0.1,0,0.1,0.1,0.1,0.2c0,0.1,0.1,0.1,0.1,0.2c0,0.2,0,0.3-0.1,0.5l0.5,0.4l0.7-0.9
			c-0.2-0.2-0.4-0.3-0.5-0.5l-0.2,0.2c0-0.1,0-0.3-0.1-0.4c-0.1-0.1-0.2-0.3-0.3-0.3c-0.2-0.1-0.3-0.2-0.5-0.2c-0.2,0-0.4,0-0.5,0.1
			c-0.2,0.1-0.3,0.2-0.5,0.4c-0.2,0.2-0.2,0.5-0.2,0.7c0,0.4,0.2,0.7,0.4,1c0.1,0.2,0.2,0.4,0.2,0.5c0,0.1,0,0.3-0.1,0.4
			c0,0-0.1,0.1-0.1,0.1c-0.1,0-0.1,0-0.2,0.1c-0.1,0-0.1,0-0.2,0c-0.1,0-0.1,0-0.2-0.1c-0.1,0-0.1-0.1-0.2-0.2
			c0-0.1-0.1-0.2-0.1-0.2C40.6,18.8,40.6,18.6,40.8,18.4z"/>
		<path class="st3" d="M21,25l0.2-3.2l3.6,3.1v-4.4H26v5h1.2v-3.6h1.2v-2.4h1.2v2.4h1.2v3.6H32v-5h1.2V25l3.6-3.1L37,25
			c0.9-0.9,2.1-1.6,3.3-2.1c-1.4-1.6-3.1-2.8-5.1-3.7c-1.9-0.9-4-1.3-6.1-1.3c-2.1,0-4.2,0.4-6.1,1.3c-1.9,0.9-3.7,2.1-5.1,3.7
			L18,23C19.1,23.5,20.2,24.2,21,25z"/>
		<path class="st3" d="M20.7,31.3l0.2-4.5c-0.9-1.1-2.1-2-3.4-2.6C17.3,24,17.2,24,17,23.9c-0.7,0.9-1.2,1.8-1.7,2.8
			c-0.8,1.8-1.3,3.7-1.3,5.6h6.1L20.7,31.3z"/>
		<path class="st3" d="M36,39.8l-2.5,2.4l-2.2,3.4h-4.6l-2.2-3.4L22,39.8c-1.1,1.4-2.6,2.5-4.2,3.2c1.4,1.6,3.1,2.8,5.1,3.7
			c1.9,0.9,4,1.3,6.1,1.3c2.1,0,4.2-0.5,6.1-1.3c1.9-0.9,3.7-2.1,5.1-3.7L40,42.9C38.4,42.2,37.1,41.1,36,39.8z"/>
		<path class="st3" d="M37.1,26.7l0.2,4.5l0.6,1.1H44c-0.1-3.1-1.2-6-3-8.4C39.5,24.5,38.1,25.5,37.1,26.7z"/>
		<path class="st3" d="M21.1,39l-1.7-1.6l1.5-2.2l-1.2-1.6H14c0.1,3.1,1.2,6,3,8.5C18.6,41.4,20,40.3,21.1,39z"/>
		<path class="st3" d="M29.6,23.1h-1.2l0,2.4h1.2L29.6,23.1z"/>
		<path class="st3" d="M37.1,35.2l1.5,2.2L36.9,39c1,1.2,2.2,2.2,3.6,2.8L41,42c0.7-0.9,1.2-1.9,1.7-2.9c0.8-1.8,1.3-3.7,1.3-5.6
			h-5.6L37.1,35.2z"/>
		<path class="st4" d="M33.9,32.6L33,34.3l2.7,0.9l1.4-1.8L33.9,32.6z"/>
		<path class="st4" d="M24.1,32.6l0.9,1.6l-2.7,0.9L21,33.3L24.1,32.6z"/>
		<path class="st4" d="M30.8,41.7l1.4,0.3l-1.5,2.4h-3.3L25.9,42l1.4-0.3l1.8,1.7L30.8,41.7z"/>
		<path class="st4" d="M30.4,37l-0.1-2.8L29,34.7l-1.4-0.5L27.6,37l-0.5,1.7l2-1.4l1.9,1.4L30.4,37z"/>
		<path class="st4" d="M25,26.8l4,3.5l4-3.5H25z"/>
	</g>
</g>
</svg>
