<?xml version="1.0" encoding="utf-8"?>
<!-- Generator: Adobe Illustrator 25.2.0, SVG Export Plug-In . SVG Version: 6.00 Build 0)  -->
<svg version="1.1" id="Layer_1" xmlns="http://www.w3.org/2000/svg" xmlns:xlink="http://www.w3.org/1999/xlink" x="0px" y="0px"
	 width="58px" height="62px" viewBox="0 0 58 62" style="enable-background:new 0 0 58 62;" xml:space="preserve">
<style type="text/css">
	.st0{clip-path:url(#SVGID_2_);}
	.st1{fill:#FFFFFF;}
	.st2{fill:#0B0204;}
	.st3{fill:#EC1C29;}
	.st4{fill:#D6CFCC;}
	.st5{fill-rule:evenodd;clip-rule:evenodd;fill:#FFFFFF;}
	.st6{opacity:0.5425;fill-rule:evenodd;clip-rule:evenodd;fill:#FFFFFF;enable-background:new    ;}
	.st7{opacity:0.152;fill-rule:evenodd;clip-rule:evenodd;fill:#FFFFFF;enable-background:new    ;}
	.st8{fill:#18AE62;}
	.st9{fill-rule:evenodd;clip-rule:evenodd;fill:#F9A417;}
	.st10{fill-rule:evenodd;clip-rule:evenodd;fill:#231F20;}
	.st11{fill-rule:evenodd;clip-rule:evenodd;fill:#FCFDFF;}
	.st12{fill:#231F20;}
	.st13{fill:#00AB76;}
</style>
<g>
	<g>
		<path class="st5" d="M21.3,15.9c-0.1,0.6,0.1,0.9,0.1,1.4l0.1,0c0,0,0-0.1,0.1,0.1l-1.8,0.3c0,0.1-0.1,0.3-0.1,0.4
			c-0.1,0.5-0.1,0.5,0.1,0.9c0.6-0.1,1-0.1,1.3,0.3c0.2,0.2,0.4,0.4,0.4,0.8c0,0.4-0.2,0.7,0,1.1c0.1,0.4,0.4,0.4,0.5,0.7
			c0.1,0.8,0,1.2-0.6,1.7C20.9,23,19.6,20.9,19,20c-0.6-0.8-0.5-0.5-0.9-1c0.6,0,1.1,0,1.5-0.1c-0.1-0.2,0.1-1.2,0.2-1.4l-1.6,0.2
			c-0.4,0-1.6,0.1-1.7,0.2c-0.6,0.4-0.3,0.6-0.1,1.2l-1,1.2c-0.8,1-1.4,1.8-2.1,2.8c-0.8,1.2-1.2,1.2-1.7,1.8
			c-0.1,0.1-0.2,0.3-0.3,0.4c-0.8,0.1-1.6,0.1-2.3,0.1c-0.8,0-1.3-0.2-2.1-0.3c-0.4,0-0.6-0.1-1-0.2c-0.3-0.1-0.7-0.1-1-0.2
			c-0.2-0.1-0.5-0.4-0.6-0.6c-0.2-0.2-0.1-0.3-0.3-0.3c-0.1,0-0.4,0.5-0.4,0.7V25c0.2,0.2,0.1,0.5,0.4,0.7c0.7,0.4-0.2,0.1,1,0.7
			c0.4,0.2,0.6,0.3,0.9,0.5c0.3,0.2,0.3,0.5,0.9,0.5c0.5-0.1,0.5-0.3,1-0.4c0.8-0.1,2.5,0.5,3.5,0.6c0.8,0.1,1.8,0.1,2.5-0.2
			c0.9-0.3,1.4-0.3,2.3-0.2l5.1,0.5c0.8,0,2.1,0.1,2.7-0.6c0.2-0.2,0.2-0.4,0.3-0.7c0,0,0,0,0-0.1c-0.2-0.3-0.4-0.6-0.5-0.7
			c-0.2-0.2-1.2-0.9-1.4-1c0.1,0,0.3,0,0.4,0.1c1.4,0.7,1.4,0.9,1.7,1.4c0.3-0.4,0.5-0.3,0.8-1.9c0.1-0.5,0.4-1.1,0.6-1.5
			c0,0,0,0,0,0c0,0.1,0.1,0.1,0.1,0l0.1,0.1l0.1-0.4l0,0.5c0,0,0,0,0,0c0,0.1,0.2-0.6,0.2-0.9c0-0.4-0.1-0.7-0.1-1.1
			c0.1,0.3,0.1,0.8,0.1,1.2c0,0.4,0.1,0.6,0.3,1c0.3,0.6,0.8,1.9,1,2.6c0.4,1.2,0.3,2.2,1.8,1.9c0.3-0.1,0.6-0.1,0.9,0
			c0.1,0,0.2,0,0.3,0c0.3-0.1-0.2-0.2-0.5-0.4c0.2,0.1,0.5,0.1,0.8,0.2c0.2,0.1,0.2-0.1,0.1-0.1c-0.8-0.5-1.5-0.3-2.2-0.4
			c-0.4-1-0.7-3.8-1.1-4.6c-0.2-0.5-0.3-0.9-0.3-1.4c-0.1,0.1-0.3,0.1-0.4,0.2c-0.1,0.1-0.7,0.2-0.7,0.2c0.1,0,0.3-0.1,0.4-0.2
			c0.4-0.2,0.5-0.2,0.6-0.4c0-0.9,0.2-1.6-0.1-2.5c-0.6-2.1-1.3-0.7-1.3-1.7c0-0.3-0.2-1-0.4-1.2l0,0l0,0c-0.1-0.3-0.2-0.5-0.3-0.8
			c-0.1-0.6-0.2-1.1-0.7-1.5c-0.6-0.4-1.5-0.6-2,0c-0.1,0.1-0.3,0.3-0.4,0.5c-0.3,0.5-0.3,0.7-0.5,1.3l-0.2,0.4
			C21.3,15.5,21.3,15.6,21.3,15.9L21.3,15.9z M13.4,25.4c0.2,0,0.7-0.3,1.1-0.3c0.5,0,0.9,0,1.5,0c0.4-0.1,2.3-0.3,2.6-0.5
			c-0.1-0.2-0.3-0.5-0.4-0.8c-0.3-0.7-0.6-1.9-0.9-2.3c-0.1-0.1-0.1-0.1-0.2-0.2c-0.3,0.5-0.3,0.8-0.7,1.2c-0.3,0.3-0.7,0.5-1.1,0.8
			c-0.4,0.3-0.8,0.5-1.1,0.8c-0.2,0.2-0.4,0.3-0.6,0.4C13.4,24.8,13.3,24.9,13.4,25.4L13.4,25.4z"/>
		<polygon class="st1" points="52.2,32.3 48.7,32.3 48.7,27.6 45.3,27.6 45.3,43.6 48.7,43.6 48.7,35.8 52.2,35.8 52.2,32.3 		"/>
		<path class="st8" d="M52.2,39c-1.3,0-2.3,1-2.3,2.3c0,1.3,1,2.3,2.3,2.3h0c1.3,0,2.3-1,2.3-2.3C54.5,40,53.5,39,52.2,39L52.2,39z"
			/>
		<path class="st1" d="M25.8,40.2c-1.3,0-2.3-1-2.3-2.3c0-1.3,1-2.3,2.3-2.3c1.3,0,2.3,1,2.3,2.3C28.1,39.1,27.1,40.2,25.8,40.2
			L25.8,40.2z M25.8,32.1c-0.8,0-1.6,0.2-2.4,0.5v-5H20v16h3.5v-0.5c0.7,0.3,1.5,0.5,2.4,0.5c3.2,0,5.8-2.6,5.8-5.8v0l0,0
			C31.6,34.7,29,32.1,25.8,32.1L25.8,32.1z"/>
		<polygon class="st8" points="18.9,27.6 7.3,27.6 7.3,31.1 14.3,31.1 6.1,43.6 10.7,43.6 18.9,31.1 18.9,31.1 18.9,27.6 		"/>
		<path class="st1" d="M36.2,37.2c0.3-0.9,1.2-1.6,2.2-1.6c1,0,1.9,0.7,2.2,1.6H36.2L36.2,37.2z M38.4,32.1c-3.2,0-5.8,2.6-5.8,5.8
			v0c0,0.4,0,0.7,0.1,1c0,0,0,0,0,0h0c0.2,1.3,0.9,2.5,2.1,3.4c2.4,1.9,5.8,1.6,7.8-0.5l-2.5-2.5c-0.8,0.9-2.2,1-3.2,0.3
			c-0.3-0.2-0.4-0.4-0.6-0.7h7.7c0.1-0.3,0.1-0.7,0.1-1.1v0C44.2,34.7,41.6,32.1,38.4,32.1L38.4,32.1z"/>
		<g>
			<path class="st5" d="M29.9,28.1C29.9,28.1,29.9,28.1,29.9,28.1L29.9,28.1l-0.3-0.2c-0.2-0.1-0.4-0.2-0.6-0.2l-0.2,0l0.2,0
				c0.1,0,0.1,0,0.2,0l0,0l0.3,0c0.2,0,0.4,0.1,0.6,0.1l0,0c0,0,0.1,0,0.1,0l0,0l0,0c0,0,0,0-0.1,0.1C30.1,28,30,28.1,29.9,28.1
				L29.9,28.1L29.9,28.1z"/>
			<path class="st5" d="M31.5,31c0-0.1,0-0.3,0-0.4c0-0.3-0.1-0.6-0.2-0.9l0-0.1l0.1,0c0.1,0.1,0.3,0.1,0.4,0.2c0,0,0.1,0.1,0.1,0.2
				c0,0,0,0.1,0,0.2c0,0.4-0.1,0.7-0.2,1l-0.1,0.2L31.5,31z"/>
			<path class="st5" d="M30.6,28.7c-0.1-0.1-0.1-0.1-0.2-0.2c-0.1-0.1-0.2-0.1-0.3-0.2l0,0l0,0c0.1-0.1,0.2-0.2,0.3-0.3l0,0l0,0
				c0,0,0.1,0,0.1,0c0,0,0.1,0,0.1,0.1c0.1,0,0.2,0.1,0.2,0.2c0.1,0.1,0.2,0.2,0.4,0.4l0,0l-0.1,0c0,0,0,0,0,0c0,0,0,0-0.1,0
				c0,0-0.1,0-0.1,0C30.9,28.7,30.8,28.7,30.6,28.7L30.6,28.7L30.6,28.7z"/>
			<path class="st5" d="M31.7,29.7c-0.1-0.1-0.1-0.1-0.2-0.1c0,0-0.2-0.1-0.3-0.1h0l0,0L31,29.2c-0.1-0.1-0.1-0.2-0.2-0.3l0,0l0,0
				c0.1,0,0.3,0,0.3,0l0,0c0.1,0,0.1,0,0.2,0c0,0,0,0,0,0l0,0l0,0c0,0,0,0,0,0c0.1,0.2,0.2,0.3,0.2,0.5
				C31.7,29.5,31.7,29.6,31.7,29.7L31.7,29.7L31.7,29.7z"/>
			<path class="st5" d="M26.9,29.3c0-0.1,0.1-0.2,0.1-0.2c0.3-0.5,0.8-1.1,1.3-1.2c0.1,0,0.1,0,0.2,0l0,0c0,0,0,0,0.1,0l0.1,0
				c0.3,0,0.5,0.1,0.8,0.2c0.1,0,0.2,0.1,0.4,0.2l0,0l0,0c-0.4,0.3-1,0.5-1.4,0.6l-0.1,0c-0.1,0-0.2,0-0.3,0.1
				C27.6,29.1,27.3,29.1,26.9,29.3L26.9,29.3L26.9,29.3z"/>
			<path class="st5" d="M29.3,32.7C29.3,32.7,29.3,32.7,29.3,32.7C29.3,32.7,29.3,32.7,29.3,32.7l-0.1,0L29.3,32.7
				c0.1-0.3,0.3-0.6,0.4-0.8c0.1-0.2,0.2-0.4,0.2-0.7c0-0.1,0-0.1,0.1-0.2c0.2-0.6,0.4-1.2,1.1-1.4l0,0l0,0c0,0.1,0.1,0.1,0.1,0.2
				c0.1,0.2,0.1,0.4,0.1,0.5l0,0.4c0,0,0,0,0,0.1c0,0,0,0,0,0.1c0,0,0,0,0,0l0,0l0,0.2c-0.1,0.6-0.5,1-1.1,1.3
				c-0.2,0.1-0.5,0.2-0.7,0.2L29.3,32.7L29.3,32.7z"/>
			<path class="st5" d="M27.4,31.8c-0.3-0.4-0.5-0.8-0.5-1.3l0-0.2c0,0,0-0.1,0-0.1c0,0,0-0.1,0-0.1l0-0.2c0,0,0,0,0,0
				c0,0,0-0.1,0.1-0.1c0.1-0.1,0.1-0.1,0.2-0.2c0.3-0.2,0.6-0.3,1-0.4c0.1,0,0.2,0,0.2-0.1c0.5-0.1,0.9-0.3,1.4-0.5l0.3-0.2l0,0
				c0.1,0.1,0.3,0.3,0.4,0.4l0,0l0,0c0,0-0.1,0-0.1,0c0,0-0.1,0-0.1,0c-1,0.4-2.3,1.5-2.8,2.5C27.5,31.5,27.4,31.6,27.4,31.8
				L27.4,31.8L27.4,31.8z"/>
			<path class="st5" d="M29,32.7C29,32.7,28.9,32.7,29,32.7L29,32.7c-0.4-0.1-0.8-0.2-1.1-0.5c0,0-0.2-0.2-0.3-0.2
				c0-0.1,0-0.2,0-0.2c0-0.1,0.1-0.2,0.1-0.3c0.2-0.4,0.6-0.9,0.8-1.1c0.6-0.6,1.4-1.2,2-1.4c0,0,0,0,0,0c0,0,0,0,0,0l0,0l0,0
				c0.1,0.1,0.1,0.2,0.2,0.3c0,0.1,0.1,0.2,0.2,0.3l0,0l0,0c-0.2,0.1-0.3,0.1-0.5,0.3c-0.2,0.2-0.4,0.4-0.5,0.8l0,0
				c0,0.1-0.1,0.2-0.1,0.3c0,0.1-0.1,0.2-0.1,0.3c0,0.1-0.1,0.1-0.1,0.2c-0.1,0.4-0.3,0.8-0.6,1.1C29.1,32.5,29,32.6,29,32.7
				L29,32.7L29,32.7z"/>
		</g>
	</g>
	<g>
		<polygon class="st8" points="21.8,49.2 20,45.2 21.2,45.2 22.4,48 23.6,45.2 24.8,45.2 23.1,49.2 		"/>
		<rect x="25.9" y="45.2" class="st8" width="1.2" height="4.1"/>
		<polygon class="st8" points="28.4,49.2 28.4,45.2 29.6,45.2 29.6,48.3 31.1,48.3 31.1,49.2 		"/>
		<polygon class="st8" points="35.6,49.2 33.5,46.8 33.5,49.2 32.3,49.2 32.3,45.2 33.3,45.2 35.4,47.6 35.4,45.2 36.6,45.2 
			36.6,49.2 		"/>
		<rect x="38" y="45.2" class="st8" width="1.2" height="4.1"/>
		<path class="st8" d="M42.5,49.3c-1.2,0-2-0.7-2-1.7v-2.4h1.2v2.4c0,0.5,0.3,0.8,0.9,0.8c0.5,0,0.9-0.3,0.9-0.8l0-2.4h1.1v2.4
			C44.5,48.6,43.7,49.3,42.5,49.3z"/>
		<path class="st8" d="M47.1,49.3c-0.6,0-1.2-0.1-1.6-0.4l0.5-0.7c0.3,0.2,0.7,0.3,1.1,0.3c0.5,0,0.6-0.3,0.6-0.4
			c0-0.3-0.3-0.4-0.7-0.6c-0.6-0.2-1.3-0.5-1.3-1.3c0-0.7,0.6-1.1,1.4-1.1c0.6,0,1.1,0.1,1.5,0.4l-0.4,0.7c-0.2-0.1-0.5-0.3-0.9-0.3
			c-0.4,0-0.5,0.2-0.5,0.3c0,0.2,0.3,0.3,0.6,0.5c0.6,0.2,1.3,0.5,1.3,1.3C48.8,48.8,48.1,49.3,47.1,49.3z"/>
	</g>
</g>
</svg>
