<svg width="12" height="16" viewBox="0 0 12 16" fill="none" xmlns="http://www.w3.org/2000/svg">
<path d="M10.1532 5.87957C10.1532 5.28086 10.1532 4.68215 10.1532 4.06633C10.1208 2.38994 9.08451 0.901717 7.53011 0.559596C6.72053 0.371429 5.84618 0.354323 5.0204 0.439854C3.14217 0.62802 1.86303 2.20178 1.84684 4.20318C1.84684 4.76768 1.84684 5.33218 1.84684 5.87957C0.875339 6.32433 0.729614 6.54671 0.729614 7.69282C0.729614 9.72843 0.729614 11.7812 0.729614 13.8168C0.729614 14.8945 1.19917 15.3905 2.23544 15.3905C4.74515 15.3905 7.25485 15.3905 9.76456 15.3905C10.8008 15.3905 11.2704 14.8945 11.2704 13.8168C11.2704 11.7812 11.2704 9.72843 11.2704 7.69282C11.2704 6.56382 11.1247 6.32433 10.1532 5.87957ZM7.19009 11.2167C6.94721 11.5075 6.83387 11.6956 6.85006 12.072C6.85006 12.4654 6.73672 12.7562 6.3805 12.8759C6.02429 12.9957 5.52235 12.8759 5.32805 12.5851C5.13375 12.2943 5.2309 12.1575 5.2309 12.0377C5.2309 11.6443 4.97183 11.3877 4.69657 11.0285C4.2594 10.464 4.29178 9.67712 4.69657 9.0784C5.10136 8.47969 5.84618 8.24021 6.49384 8.46259C7.14151 8.68497 7.67584 9.19815 7.64345 10.0192C7.61107 10.8403 7.41677 10.943 7.19009 11.2167ZM8.43684 5.87957H3.62792C3.62792 5.16112 3.57935 4.47688 3.62792 3.80974C3.70888 2.90312 4.4537 2.25309 5.31185 2.23599C5.78141 2.23599 6.23478 2.23599 6.70434 2.23599C7.57869 2.25309 8.27493 2.92023 8.40446 3.84396C8.42065 3.99791 8.43684 4.16897 8.43684 4.34003C8.43684 4.83611 8.43684 5.34929 8.43684 5.87957Z" fill="#FCFCFC"/>
</svg>
