<svg width="85" height="28" viewBox="0 0 85 28" fill="none" xmlns="http://www.w3.org/2000/svg">
<path d="M80.7695 8.25991H74.6611V0H68.5679V27.9797H74.6611V14.3564H80.7695V8.25991Z" fill="white"/>
<path d="M80.6919 19.918C78.4577 19.918 76.6411 21.731 76.6411 23.9587C76.6411 26.1871 78.4577 27.9995 80.6898 27.9995H80.6912C82.924 27.9995 84.7398 26.1864 84.7398 23.9587C84.7406 21.731 82.9247 19.918 80.6919 19.918Z" fill="#18AE62"/>
<path d="M34.5815 7.79356C33.1079 7.79356 31.7089 8.11211 30.4445 8.67915V0.0205078H24.3513V28.0002H30.4445V27.1146C31.7089 27.6816 33.1079 28.0002 34.5815 28.0002C40.163 28.0002 44.7038 23.4683 44.7038 17.8976V17.8962C44.7038 12.3255 40.163 7.79356 34.5815 7.79356ZM34.5815 21.9391C32.3487 21.9391 30.5328 20.126 30.5328 17.8962C30.5328 15.6677 32.3494 13.8554 34.5815 13.8554C36.8142 13.8554 38.6301 15.6685 38.6301 17.8983C38.6308 20.126 36.8142 21.9391 34.5815 21.9391Z" fill="white"/>
<path d="M22.3891 0.0205078H2.18282V6.10185H14.4605L0 28.0002H8.0553L22.3891 6.10185V0.0205078Z" fill="#18AE62"/>
<path d="M56.5996 7.81543C51.0181 7.81543 46.4773 12.3474 46.4773 17.918V17.9195C46.4773 18.5306 46.5345 19.1279 46.6387 19.7094C46.6387 19.7094 46.6495 19.7759 46.6524 19.7918H46.6546C47.091 22.0707 48.3055 24.2117 50.2581 25.7727C54.3878 29.0745 60.3377 28.6129 63.9188 24.8524L59.6212 20.5632C58.202 22.1682 55.747 22.3943 54.0556 21.0421C53.6142 20.6889 53.2689 20.2613 53.0185 19.7918H66.5475C66.6618 19.185 66.7226 18.5595 66.7226 17.9195V17.918C66.7219 12.3474 62.1811 7.81543 56.5996 7.81543ZM52.7399 16.698C53.2595 15.0641 54.7931 13.8773 56.5996 13.8773C58.4061 13.8773 59.9397 15.0641 60.4593 16.698H52.7399Z" fill="white"/>
</svg>
