<svg width="14" height="14" viewBox="0 0 14 14" fill="none" xmlns="http://www.w3.org/2000/svg">
    <path d="M0 7C0 5.14348 0.738027 3.36291 2.05078 2.05016C3.36354 0.737405 5.14348 0 7 0C8.85651 0 10.6365 0.737405 11.9492 2.05016C13.262 3.36291 14 5.14348 14 7C14 8.85651 13.262 10.6371 11.9492 11.9498C10.6365 13.2626 8.85651 14 7 14C5.14348 14 3.36354 13.2626 2.05078 11.9498C0.738027 10.6371 0 8.85651 0 7ZM7 13.0455C7.38115 13.0455 7.76156 13.0097 8.13601 12.9386L9.09055 10.8881L8.68288 10.1812H5.31712L4.90945 10.8881L5.86399 12.9379C6.23861 13.0095 6.61861 13.0455 7 13.0455ZM2.13406 10.582L4.08416 10.4096L4.74911 9.25648L3.99964 6.83066L2.81143 6.51247L1.03906 8.00115C1.19491 8.93637 1.56959 9.8212 2.13281 10.5839L2.13406 10.582ZM9.91957 10.4096L11.8684 10.582C12.4318 9.82056 12.8072 8.93705 12.9647 8.00302L11.1886 6.51185L10.0041 6.83003L9.25213 9.25648L9.91957 10.4096ZM9.74183 5.91184L10.9425 5.58993L11.7789 3.29896C11.1801 2.52846 10.4035 1.91347 9.51687 1.50577L7.481 2.93168V4.1867L9.74183 5.91184ZM3.06001 5.58993L4.25941 5.91184L6.52521 4.1808V2.93044L4.48313 1.50235C3.59801 1.91048 2.82273 2.52552 2.22479 3.29523L3.06001 5.58993Z" fill="#C4C4D4"/>
</svg>
