<svg xmlns="http://www.w3.org/2000/svg" width="18.136" height="20" viewBox="0 0 18.136 20">
  <path id="casino-red-icon" d="M19,1,18,.182C18,0,17.818,0,17.727,0a.689.689,0,0,0-.364.182,5.5,5.5,0,0,1-3.455,1.545A4.887,4.887,0,0,1,11.364,1,6.745,6.745,0,0,0,8.182.091,7.128,7.128,0,0,0,3.909,1.545V.455A.576.576,0,0,0,3.364,0H1.455A.487.487,0,0,0,1,.455V8.818a.487.487,0,0,0,.455.455H3.364a.429.429,0,0,0,.455-.455V7.091c0-.909.455-1.273,1.455-1.273a2.8,2.8,0,0,1,1.182.273,12.149,12.149,0,0,0,3.636.545,9.98,9.98,0,0,0,2.364-.182C11.727,7.545,10.364,9.364,8.909,10c-2.455,1.182-5,4.909-5,9.545A.487.487,0,0,0,4.364,20h9.545a.429.429,0,0,0,.455-.455.334.334,0,0,0-.091-.273,11.675,11.675,0,0,1-.909-3.909c0-2.091,4.273-12.636,5.636-13.909.182-.091.182-.273,0-.455Z" transform="translate(-1)" fill="#c51324"/>
</svg>
