<?xml version="1.0" encoding="utf-8"?>
<!-- Generator: Adobe Illustrator 26.0.1, SVG Export Plug-In . SVG Version: 6.00 Build 0)  -->
<svg version="1.1" id="Layer_1" xmlns="http://www.w3.org/2000/svg" xmlns:xlink="http://www.w3.org/1999/xlink" x="0px" y="0px"
	 viewBox="0 0 120 50" style="enable-background:new 0 0 120 50;" xml:space="preserve">
<style type="text/css">
	.st0{fill-rule:evenodd;clip-rule:evenodd;fill:#FFFFFF;}
	.st1{display:none;}
	.st2{display:inline;fill-rule:evenodd;clip-rule:evenodd;fill:#FFFFFF;}
	.st3{display:inline;fill-rule:evenodd;clip-rule:evenodd;fill:#4A5863;}
	.st4{display:inline;}
	.st5{fill:#FFFFFF;}
	.st6{clip-path:url(#SVGID_00000147178272283474336980000012911136407906186631_);}
	.st7{fill:#0099FA;}
	.st8{fill:#090A0B;}
</style>
<path class="st0" d="M115,50H5c-2.8,0-5-2.2-5-5V5c0-2.8,2.2-5,5-5h110c2.8,0,5,2.2,5,5v40C120,47.8,117.8,50,115,50z"/>
<g class="st1">
	<path class="st2" d="M110,10.3h-4.2V29h-2.2V10.3h-4.2V8.4H110V10.3z M97,10.3h-7.2v7h5.3v1.9h-5.3v7.9h7.6V29h-9.8V8.4H97V10.3z
		 M80.6,11c-0.6-0.5-1.5-0.7-2.8-0.7h-2.2v7h1.3c1.6,0,2.8-0.3,3.5-0.9c0.8-0.6,1.1-1.5,1.1-2.9C81.4,12.3,81.1,11.5,80.6,11z
		 M78.8,8.4c1.5,0,2.7,0.5,3.6,1.4c0.8,0.9,1.3,2.2,1.3,3.7c0,1.1-0.2,2-0.7,2.8c-0.5,0.8-1.3,1.4-2.4,1.8v0.1
		c1.2,0.3,2.2,1,2.7,1.9c0.6,0.9,0.9,2,0.9,3.3c0,1.9-0.5,3.4-1.6,4.3c-1.1,1-2.8,1.4-5,1.4h-4.2V8.4H78.8z M77.8,19.2h-2.2v8h2.2
		c1.3,0,2.4-0.3,3.1-0.9s1-1.6,1-2.9c0-1.4-0.3-2.4-1-3.1C80.2,19.5,79.2,19.2,77.8,19.2z M12.3,10.3c-0.4,0.3-0.5,0.8-0.5,1.3
		c0,0.6,0.2,1,0.5,1.3c0.4,0.3,0.8,0.5,1.3,0.5s0.9-0.2,1.3-0.5c0.4-0.3,0.5-0.8,0.5-1.3c0-0.6-0.2-1-0.5-1.3
		C14.4,10,14,9.9,13.5,9.9S12.6,10,12.3,10.3z M13.5,8.1c0.9,0,1.7,0.3,2.4,0.9c0.3,0.2,0.5,0.5,0.7,1c0.2,0.4,0.3,1,0.4,1.6
		c0,0.7-0.1,1.2-0.4,1.6s-0.5,0.7-0.8,1c-0.7,0.6-1.5,0.9-2.4,0.9c-0.9,0-1.7-0.3-2.4-0.9c-0.3-0.2-0.5-0.5-0.7-1
		c-0.2-0.4-0.4-1-0.4-1.6c0-0.7,0.1-1.2,0.4-1.6c0.2-0.4,0.5-0.7,0.8-1C11.8,8.4,12.6,8.1,13.5,8.1z M14.6,16.8v12.3h-2.2V16.8l0,0
		c0.3,0.1,0.7,0.2,1.1,0.2C13.9,16.9,14.2,16.9,14.6,16.8z"/>
	<path class="st3" d="M70.9,10.3h-4.2V29h-2.2V10.3h-4.2V8.4H71v1.9H70.9z M57.5,10.3h-6.6v7h5v1.9h-5V29h-2.2V8.4h8.9L57.5,10.3
		L57.5,10.3z M63,36.2C63,36.2,63.1,36.2,63,36.2c0.1,0.1,0.1,0.2,0.2,0.2c0,0,0,0,0,0.1l-2,3.1v2.1c0,0.2-0.1,0.3-0.3,0.3h-0.1
		c-0.2,0-0.2-0.1-0.2-0.3v-2.1l-2-3.1c0,0,0,0,0-0.1c0,0,0-0.1,0.1-0.1l0.1-0.1c0,0,0.1,0,0.2,0c0.1,0,0.2,0.1,0.3,0.2l1.6,2.6
		l1.6-2.6c0.1-0.1,0.2-0.2,0.3-0.2C62.9,36.2,62.9,36.2,63,36.2z M71.1,37.9c0,0.6-0.2,1-0.5,1.3c-0.4,0.3-0.9,0.4-1.6,0.4h-1.1v1.9
		c0,0.1,0,0.1-0.1,0.2c0,0-0.1,0.1-0.2,0.1h-0.1c-0.2,0-0.3-0.1-0.3-0.3v-5c0-0.1,0-0.2,0.1-0.2c0.1-0.1,0.1-0.1,0.2-0.1H69
		c0.7,0,1.2,0.1,1.5,0.4C70.9,36.9,71.1,37.3,71.1,37.9z M67.8,36.7v2.4H69c0.5,0,0.9-0.1,1.1-0.3s0.4-0.5,0.4-0.9
		c0-0.8-0.5-1.2-1.5-1.2H67.8z M54,36.2c0.2,0,0.3,0.1,0.3,0.3v4.8H57c0.2,0,0.3,0.1,0.3,0.2v0.1c0,0.2-0.1,0.2-0.3,0.2h-3
		c-0.1,0-0.2,0-0.2-0.1c-0.1-0.1-0.1-0.1-0.1-0.2v-5C53.7,36.2,53.8,36.2,54,36.2L54,36.2z M51.8,37.9c0,0.6-0.2,1-0.5,1.3
		c-0.4,0.3-0.9,0.4-1.6,0.4h-1.1v1.9c0,0.1,0,0.1-0.1,0.2c0,0-0.1,0.1-0.2,0.1h-0.1c-0.2,0-0.3-0.1-0.3-0.3v-5c0-0.1,0-0.2,0.1-0.2
		c0.1-0.1,0.1-0.1,0.2-0.1h1.4c0.7,0,1.2,0.1,1.5,0.4C51.7,36.9,51.8,37.3,51.8,37.9z M51.2,37.9c0-0.8-0.5-1.2-1.5-1.2h-1.2v2.4
		h1.2c0.5,0,0.9-0.1,1.1-0.3C51.1,38.6,51.2,38.3,51.2,37.9z M84.1,36.3L84.1,36.3c0.1-0.1,0.2-0.1,0.3-0.1s0.2,0.1,0.3,0.2l1.6,2.6
		l1.6-2.6c0.1-0.1,0.2-0.2,0.3-0.2c0.1,0,0.1,0,0.2,0c0,0,0.1,0,0.1,0.1c0,0,0,0.1,0.1,0.1c0,0,0,0,0,0.1l-2,3.1v2.1
		c0,0.2-0.1,0.3-0.3,0.3h-0.1C86,42,86,41.9,86,41.7v-2.1l-2-3.1C84,36.4,84,36.4,84.1,36.3C84,36.3,84,36.3,84.1,36.3z M73.2,36.2
		c0.2,0,0.3,0.1,0.3,0.3v4.8h2.7c0.2,0,0.3,0.1,0.3,0.2v0.1c0,0.2-0.1,0.2-0.3,0.2h-3c-0.1,0-0.2,0-0.2-0.1
		c-0.1-0.1-0.1-0.1-0.1-0.2v-5C72.9,36.2,73,36.2,73.2,36.2L73.2,36.2z M80.7,36.4l2,5.3c0,0,0,0.1-0.1,0.1s-0.2,0.1-0.2,0.1
		c-0.1,0-0.1,0-0.2,0s-0.1-0.1-0.2-0.2L81.5,40h-2.4l-0.6,1.6c0,0.1-0.1,0.2-0.2,0.2s-0.1,0-0.2,0s-0.2,0-0.2-0.1
		c-0.1,0-0.1-0.1-0.1-0.1l2-5.3c0-0.1,0.1-0.1,0.1-0.2c0.1,0,0.2-0.1,0.3-0.1c0.1,0,0.2,0,0.3,0.1C80.7,36.2,80.7,36.3,80.7,36.4z
		 M80.3,36.8l-1,2.6h2L80.3,36.8z M41.1,10.7C40.6,10.2,40,10,39.3,10s-1.3,0.2-1.8,0.7s-1,1.4-1.3,2.6c-0.3,1.3-0.5,3.1-0.5,5.4
		s0.2,4.1,0.5,5.4s0.7,2.2,1.3,2.7c0.5,0.5,1.1,0.7,1.8,0.7s1.3-0.2,1.8-0.7s1-1.4,1.3-2.7c0.3-1.3,0.5-3.1,0.5-5.4
		s-0.2-4.1-0.5-5.4C42.1,12.1,41.6,11.2,41.1,10.7z M44.4,12.6c0.5,1.6,0.7,3.6,0.7,6.2c0,2.5-0.3,4.6-0.7,6.2
		c-0.5,1.6-1.2,2.7-2,3.4c-0.9,0.7-1.9,1-3.1,1c-1.2,0-2.2-0.3-3.1-1c-0.9-0.7-1.6-1.9-2-3.4c-0.5-1.6-0.7-3.6-0.7-6.2
		s0.3-4.6,0.7-6.2c0.5-1.6,1.2-2.7,2-3.4c0.9-0.7,1.9-1.1,3.1-1c1.2,0,2.2,0.3,3.1,1C43.2,9.9,43.9,11,44.4,12.6z M30.3,24.1
		c0,1.7-0.5,2.9-1.4,3.9c-0.9,0.9-2.2,1.4-3.9,1.4c-1.1,0-2-0.2-2.8-0.7s-1.4-1.2-1.8-2c-0.4-0.9-0.7-1.9-0.7-3.1h2.1
		c0,1.2,0.3,2.2,0.9,2.9c0.6,0.7,1.4,1,2.5,1.1c0.9,0,1.7-0.3,2.2-0.9s0.8-1.4,0.8-2.5c0-0.9-0.3-1.7-0.9-2.4
		c-0.6-0.7-1.2-1.3-2.1-1.9c-0.8-0.6-1.6-1.1-2.5-1.8c-0.8-0.6-1.5-1.3-2.1-2.1c-0.5-0.8-0.8-1.8-0.9-3c0-1.5,0.5-2.6,1.4-3.5
		s2.1-1.3,3.6-1.3s2.7,0.5,3.6,1.4c0.9,1,1.4,2.4,1.5,4.2H28c-0.1-1.1-0.4-2-0.9-2.7s-1.3-1-2.3-1.1c-0.9,0-1.6,0.3-2.1,0.8
		s-0.8,1.1-0.8,1.9c0,0.9,0.3,1.7,0.9,2.3s1.2,1.2,2.1,1.8c0.8,0.5,1.6,1.1,2.5,1.7c0.8,0.6,1.5,1.4,2.1,2.2
		C30,21.7,30.3,22.8,30.3,24.1z M45.2,36.2L45.2,36.2c0.2,0,0.3,0,0.4,0.1s0.1,0.2,0.1,0.3v5c0,0.2-0.1,0.3-0.2,0.3h-0.1
		c-0.2,0-0.2-0.1-0.2-0.3v-4.7L43.7,40c-0.1,0.1-0.1,0.2-0.2,0.3c-0.1,0.1-0.2,0.1-0.3,0.1s-0.3,0-0.3-0.1c-0.1-0.1-0.1-0.2-0.2-0.3
		l-1.5-3.2v4.7c0,0.2-0.1,0.3-0.2,0.3h-0.1c-0.2,0-0.2-0.1-0.2-0.3v-5c0-0.1,0-0.2,0.1-0.3s0.2-0.1,0.3-0.1h0.1c0.2,0,0.3,0,0.3,0.1
		c0.1,0.1,0.1,0.2,0.2,0.3l1.5,3.3l1.5-3.3c0.1-0.2,0.1-0.3,0.2-0.3S45.1,36.2,45.2,36.2z M34.5,36.2c0.2,0.1,0.4,0.1,0.6,0.2
		c0.2,0.1,0.3,0.2,0.4,0.3c0.1,0.1,0.1,0.2,0.1,0.3s0,0.1-0.1,0.2l-0.1,0.1l-0.1,0.1h-0.1c-0.1-0.2-0.3-0.4-0.6-0.6
		c-0.3-0.2-0.6-0.2-0.9-0.2c-0.4,0-0.7,0.1-1,0.3c-0.2,0.2-0.4,0.4-0.4,0.7c0,0.2,0,0.3,0.1,0.4c0.1,0.1,0.2,0.2,0.3,0.3
		s0.3,0.1,0.5,0.2c0.2,0,0.4,0.1,0.6,0.1c0.2,0,0.5,0.1,0.7,0.2c0.2,0.1,0.4,0.2,0.6,0.3c0.2,0.1,0.3,0.3,0.4,0.5
		c0.1,0.2,0.2,0.4,0.2,0.7c0,0.2,0,0.5-0.1,0.7s-0.2,0.4-0.4,0.5s-0.4,0.2-0.6,0.3c-0.2,0.1-0.5,0.1-0.8,0.1s-0.6,0-0.8-0.1
		c-0.3-0.1-0.5-0.2-0.7-0.3s-0.3-0.2-0.4-0.4c-0.1-0.1-0.2-0.2-0.2-0.3s0-0.1,0.1-0.2l0.1-0.1l0.1-0.1h0.1c0.2,0.2,0.4,0.5,0.7,0.7
		s0.6,0.3,1,0.3s0.8-0.1,1-0.3s0.4-0.4,0.4-0.8c0-0.2,0-0.3-0.1-0.5c-0.1-0.1-0.2-0.2-0.3-0.3s-0.3-0.2-0.5-0.2s-0.4-0.1-0.6-0.1
		c-0.2-0.1-0.4-0.1-0.6-0.2c-0.2-0.1-0.4-0.2-0.5-0.3c-0.2-0.1-0.3-0.3-0.4-0.4c-0.1-0.2-0.2-0.4-0.2-0.7c0-0.2,0-0.4,0.1-0.6
		c0.1-0.2,0.2-0.3,0.4-0.5c0.2-0.1,0.4-0.2,0.6-0.3c0.2-0.1,0.5-0.1,0.7-0.1C34.1,36.1,34.3,36.1,34.5,36.2z M38.3,36.4v5.1
		c0,0.2-0.1,0.3-0.3,0.3l0,0c-0.2,0-0.2-0.1-0.2-0.3v-5.1c0-0.2,0.1-0.3,0.2-0.3h0.1C38.3,36.2,38.3,36.2,38.3,36.4z"/>
</g>
<g class="st1">
	<g class="st4">
		<polygon class="st5" points="61.3,7.3 61.3,42.7 62.3,42.7 62.3,35.9 75.2,35.9 75.2,31.8 65.3,31.8 65.3,27 73.7,27 73.7,22.9 
			65.3,22.9 65.3,18.3 75.2,18.3 75.2,14.1 62.3,14.1 62.3,7.3 		"/>
	</g>
	<g class="st4">
		<polygon class="st5" points="22.3,14.1 22.3,27.5 18.6,21.5 13.9,14.2 13.9,14.1 10,14.1 10,35.9 14.3,35.9 14.3,22.5 17.5,27.7 
			22.7,35.9 26.6,35.9 26.6,14.1 		"/>
	</g>
	<g class="st4">
		<polygon class="st5" points="29,35.9 43.3,35.9 43.3,31.8 33.4,31.8 33.4,27 41.8,27 41.8,22.9 33.4,22.9 33.4,18.3 43.3,18.3 
			43.3,14.1 29,14.1 		"/>
	</g>
	<g class="st4">
		<polygon class="st5" points="45,18.3 50,18.3 50,35.9 54.3,35.9 54.3,18.3 59.3,18.3 59.3,14.1 45,14.1 		"/>
	</g>
	<g class="st4">
		<polygon class="st5" points="89.6,27.5 86,21.6 81.3,14.2 81.2,14.1 77.4,14.1 77.4,35.9 81.7,35.9 81.7,22.5 84.9,27.8 90,35.9 
			94,35.9 94,14.1 89.6,14.1 		"/>
	</g>
	<g class="st4">
		<polygon class="st5" points="95.7,14.1 95.7,18.3 100.7,18.3 100.7,35.9 105.1,35.9 105.1,18.3 110,18.3 110,14.1 		"/>
	</g>
</g>
<g>
	<defs>
		<rect id="SVGID_1_" x="11.1" y="17" width="100.7" height="16.6"/>
	</defs>
	<clipPath id="SVGID_00000046319443315033986770000004607824264269350333_">
		<use xlink:href="#SVGID_1_"  style="overflow:visible;"/>
	</clipPath>
	<g style="clip-path:url(#SVGID_00000046319443315033986770000004607824264269350333_);">
		<path class="st7" d="M9.6,29.8v3.5h9.9l1.5-3.5H9.6z"/>
		<path class="st7" d="M9.6,25.5v3.6L22,27.4l1.6-3.8L9.6,25.5z"/>
		<path class="st7" d="M9.6,21.2v3.7l15.1-3.9l1.8-4.2L9.6,21.2z"/>
		<path class="st7" d="M18.8,27.6c0.1,0,0.2-0.1,0.3-0.2c0.1-0.1,0.1-0.2,0.1-0.3c0-0.1,0-0.2-0.1-0.3c-0.1-0.1-0.2-0.1-0.3-0.2
			c-0.1,0-0.2,0.1-0.3,0.2c-0.1,0.1-0.1,0.2-0.1,0.3c0,0.1,0,0.2,0.1,0.3C18.6,27.5,18.7,27.6,18.8,27.6z"/>
		<path class="st8" d="M34,27h3.3l1.1-2.6H34v-1.8h5.2l1.2-2.8l0,0h-9.6v11.9h9.6v-2.8H34V27z"/>
		<path class="st8" d="M71.7,19.7h-5.1v11.9H70v-3.4h1.6c1.3,0.1,2.6-0.3,3.7-1.1c0.5-0.4,0.8-0.9,1.1-1.4c0.2-0.6,0.4-1.2,0.3-1.8
			c0-0.6-0.1-1.2-0.3-1.7c-0.2-0.5-0.6-1-1-1.4C74.3,20,73,19.6,71.7,19.7z M72.8,25.2c-0.4,0.3-0.9,0.4-1.3,0.4h-1.6v-3.1h1.5
			c0.5,0,1,0.1,1.4,0.4c0.2,0.1,0.3,0.3,0.4,0.5c0.1,0.2,0.1,0.4,0.1,0.6c0,0.2,0,0.5-0.1,0.7C73.2,24.9,73,25.1,72.8,25.2
			L72.8,25.2z"/>
		<path class="st8" d="M81.1,19.7h-3.3v11.9H85l1.2-2.9h-5.2V19.7z"/>
		<path class="st8" d="M91.9,19.6l-4.2,10.1l-0.8,1.9h3.5l0.8-2.1h4.6l0.9,2.1h3.5l-5-12H91.9z M92.1,27l1.3-3.3l1.3,3.3H92.1z"/>
		<path class="st8" d="M106.7,19.7l-2.5,4.3l-2.4-4.3h-3.7l4.5,7.5v4.5h3.3v-4.5l4.5-7.4H106.7z"/>
		<path class="st8" d="M50,19.7l-2.7,7.5l-2.7-7.5H41l4.8,12h3l4.8-12H50z"/>
		<path class="st8" d="M59.2,19.5c-1.2,0-2.4,0.4-3.4,1c-1,0.7-1.8,1.6-2.3,2.8c-0.5,1.1-0.6,2.4-0.4,3.6c0.2,1.2,0.8,2.3,1.7,3.2
			c0.9,0.9,2,1.5,3.2,1.7c1.2,0.2,2.4,0.1,3.6-0.4c1.1-0.5,2.1-1.3,2.8-2.3c0.7-1,1-2.2,1-3.4c0-1.6-0.6-3.2-1.8-4.4
			C62.4,20.2,60.8,19.5,59.2,19.5z M59.2,29c-0.6,0-1.3-0.2-1.8-0.5c-0.5-0.4-0.9-0.9-1.2-1.5c-0.2-0.6-0.3-1.2-0.2-1.9
			c0.1-0.6,0.4-1.2,0.9-1.7c0.5-0.5,1-0.8,1.7-0.9c0.6-0.1,1.3-0.1,1.9,0.2c0.6,0.2,1.1,0.7,1.5,1.2c0.4,0.5,0.5,1.2,0.5,1.8
			c0,0.9-0.3,1.7-1,2.3S60,29,59.2,29L59.2,29z"/>
	</g>
</g>
</svg>
