<svg width="120" height="41" viewBox="0 0 120 41" fill="none" xmlns="http://www.w3.org/2000/svg">
<rect x="0.5" y="0.839844" width="119" height="39" rx="5.5" fill="black"/>
<rect x="0.5" y="0.839844" width="119" height="39" rx="5.5" stroke="#A6A6A6"/>
<path d="M17.8051 19.8015L8.08984 30.3458C8.09076 30.3476 8.09076 30.3504 8.09167 30.3523C8.39005 31.4972 9.41203 32.3398 10.6256 32.3398C11.1111 32.3398 11.5664 32.2055 11.957 31.9703L11.988 31.9517L22.9232 25.4991L17.8051 19.8015Z" fill="#EA4335"/>
<path d="M27.6332 18.006L27.624 17.9995L22.9029 15.2011L17.584 20.0412L22.922 25.498L27.6177 22.7276C28.4407 22.2723 29.0001 21.3849 29.0001 20.3622C29.0001 19.3451 28.4489 18.4623 27.6332 18.006Z" fill="#FBBC04"/>
<path d="M8.08942 10.3331C8.03102 10.5533 8 10.7847 8 11.0236V29.6561C8 29.895 8.03102 30.1264 8.09034 30.3457L18.1386 20.0711L8.08942 10.3331Z" fill="#4285F4"/>
<path d="M17.8767 20.3398L22.9044 15.1993L11.982 8.72344C11.5851 8.4799 11.1215 8.33993 10.6261 8.33993C9.41246 8.33993 8.38865 9.1844 8.09027 10.3303C8.09027 10.3312 8.08936 10.3321 8.08936 10.3331L17.8767 20.3398Z" fill="#34A853"/>
<path d="M43.61 12.0498C43.61 13.0498 43.3133 13.8465 42.72 14.4398C42.0533 15.1465 41.1767 15.4998 40.09 15.4998C39.05 15.4998 38.17 15.1398 37.45 14.4198C36.73 13.6998 36.37 12.8132 36.37 11.7598C36.37 10.7065 36.73 9.81984 37.45 9.09984C38.17 8.37984 39.05 8.01984 40.09 8.01984C40.6167 8.01984 41.1133 8.11318 41.58 8.29984C42.0467 8.48651 42.43 8.74984 42.73 9.08984L42.07 9.74984C41.85 9.48318 41.5633 9.27651 41.21 9.12984C40.8633 8.97651 40.49 8.89984 40.09 8.89984C39.31 8.89984 38.65 9.16984 38.11 9.70984C37.5767 10.2565 37.31 10.9398 37.31 11.7598C37.31 12.5798 37.5767 13.2632 38.11 13.8098C38.65 14.3498 39.31 14.6198 40.09 14.6198C40.8033 14.6198 41.3967 14.4198 41.87 14.0198C42.3433 13.6198 42.6167 13.0698 42.69 12.3698H40.09V11.5098H43.56C43.5933 11.6965 43.61 11.8765 43.61 12.0498ZM48.9078 8.17984V9.05984H45.6478V11.3298H48.5878V12.1898H45.6478V14.4598H48.9078V15.3398H44.7278V8.17984H48.9078ZM52.5877 9.05984V15.3398H51.6677V9.05984H49.6677V8.17984H54.5877V9.05984H52.5877ZM58.6654 15.3398H57.7454V8.17984H58.6654V15.3398ZM62.5487 9.05984V15.3398H61.6287V9.05984H59.6287V8.17984H64.5487V9.05984H62.5487ZM74.521 11.7598C74.521 12.8198 74.1677 13.7065 73.461 14.4198C72.7477 15.1398 71.8743 15.4998 70.841 15.4998C69.801 15.4998 68.9277 15.1398 68.221 14.4198C67.5143 13.7065 67.161 12.8198 67.161 11.7598C67.161 10.6998 67.5143 9.81318 68.221 9.09984C68.9277 8.37984 69.801 8.01984 70.841 8.01984C71.881 8.01984 72.7543 8.38318 73.461 9.10984C74.1677 9.82318 74.521 10.7065 74.521 11.7598ZM68.101 11.7598C68.101 12.5865 68.361 13.2698 68.881 13.8098C69.4077 14.3498 70.061 14.6198 70.841 14.6198C71.621 14.6198 72.271 14.3498 72.791 13.8098C73.3177 13.2765 73.581 12.5932 73.581 11.7598C73.581 10.9265 73.3177 10.2432 72.791 9.70984C72.271 9.16984 71.621 8.89984 70.841 8.89984C70.061 8.89984 69.4077 9.16984 68.881 9.70984C68.361 10.2498 68.101 10.9332 68.101 11.7598ZM76.5267 15.3398H75.6067V8.17984H76.7267L80.2067 13.7498H80.2467L80.2067 12.3698V8.17984H81.1267V15.3398H80.1667L76.5267 9.49984H76.4867L76.5267 10.8798V15.3398Z" fill="white"/>
<path d="M93.5181 31.7495H95.1469V20.738H93.5181V31.7495ZM108.189 24.7045L106.322 29.4787H106.266L104.328 24.7045H102.573L105.479 31.3769L103.823 35.0888H105.521L110 24.7045H108.189ZM98.9519 30.4987C98.4176 30.4987 97.6739 30.23 97.6739 29.5632C97.6739 28.7141 98.6001 28.3882 99.4005 28.3882C100.116 28.3882 100.454 28.5441 100.889 28.7564C100.762 29.7764 99.892 30.4987 98.9519 30.4987ZM99.1483 24.464C97.969 24.464 96.7469 24.9881 96.2424 26.1499L97.6879 26.7586C97.9969 26.1499 98.5721 25.9509 99.1762 25.9509C100.019 25.9509 100.875 26.4609 100.889 27.3681V27.4809C100.594 27.3109 99.9627 27.0563 99.1902 27.0563C97.632 27.0563 96.0451 27.9204 96.0451 29.535C96.0451 31.0087 97.323 31.9583 98.7546 31.9583C99.8501 31.9583 100.454 31.4623 100.833 30.881H100.889V31.731H102.461V27.5091C102.461 25.5545 101.015 24.464 99.1483 24.464ZM89.0821 26.0451H86.7655V22.2707H89.0821C90.2998 22.2707 90.9911 23.288 90.9911 24.1574C90.9911 25.011 90.2998 26.0451 89.0821 26.0451ZM89.0402 20.738H85.1375V31.7495H86.7655V27.5778H89.0402C90.8453 27.5778 92.6199 26.2583 92.6199 24.1574C92.6199 22.0566 90.8453 20.738 89.0402 20.738ZM67.7583 30.5005C66.6332 30.5005 65.6913 29.55 65.6913 28.2446C65.6913 26.9251 66.6332 25.9597 67.7583 25.9597C68.8695 25.9597 69.7406 26.9251 69.7406 28.2446C69.7406 29.55 68.8695 30.5005 67.7583 30.5005ZM69.6289 25.3211H69.5722C69.2064 24.8815 68.5038 24.4842 67.6178 24.4842C65.7611 24.4842 64.0599 26.1297 64.0599 28.2446C64.0599 30.3445 65.7611 31.9768 67.6178 31.9768C68.5038 31.9768 69.2064 31.5795 69.5722 31.125H69.6289V31.6649C69.6289 33.0981 68.8695 33.8644 67.6457 33.8644C66.6471 33.8644 66.0282 33.1404 65.7751 32.5299L64.3549 33.1263C64.7626 34.1199 65.8458 35.3398 67.6457 35.3398C69.5582 35.3398 71.1757 34.2044 71.1757 31.4377V24.7106H69.6289V25.3211ZM72.3008 31.7495H73.9323V20.7371H72.3008V31.7495ZM76.3362 28.1169C76.2943 26.6696 77.4474 25.9315 78.2766 25.9315C78.9243 25.9315 79.4725 26.2574 79.6549 26.726L76.3362 28.1169ZM81.3989 26.8678C81.0899 26.031 80.1472 24.4842 78.2208 24.4842C76.3083 24.4842 74.7196 26.0019 74.7196 28.2305C74.7196 30.3304 76.2943 31.9768 78.4032 31.9768C80.1053 31.9768 81.0899 30.9268 81.4976 30.3164L80.2319 29.4646C79.8103 30.0891 79.2333 30.5005 78.4032 30.5005C77.5739 30.5005 76.983 30.1173 76.6033 29.3659L81.5674 27.2933L81.3989 26.8678ZM41.8501 25.6338V27.2228H45.6184C45.5058 28.1169 45.2107 28.7696 44.7612 29.2232C44.2121 29.7773 43.3541 30.3877 41.8501 30.3877C39.5291 30.3877 37.7152 28.5 37.7152 26.1587C37.7152 23.8166 39.5291 21.9298 41.8501 21.9298C43.1018 21.9298 44.0157 22.4266 44.6905 23.0652L45.8017 21.9439C44.8589 21.0357 43.6081 20.3398 41.8501 20.3398C38.6719 20.3398 36 22.9516 36 26.1587C36 29.3659 38.6719 31.9768 41.8501 31.9768C43.5653 31.9768 44.8589 31.4086 45.8715 30.3445C46.9129 29.2946 47.2358 27.8191 47.2358 26.6265C47.2358 26.2574 47.2079 25.9174 47.1512 25.6338H41.8501ZM51.5208 30.5005C50.3957 30.5005 49.425 29.5641 49.425 28.2305C49.425 26.8819 50.3957 25.9597 51.5208 25.9597C52.6451 25.9597 53.6158 26.8819 53.6158 28.2305C53.6158 29.5641 52.6451 30.5005 51.5208 30.5005ZM51.5208 24.4842C49.4669 24.4842 47.7936 26.0592 47.7936 28.2305C47.7936 30.3877 49.4669 31.9768 51.5208 31.9768C53.5739 31.9768 55.2472 30.3877 55.2472 28.2305C55.2472 26.0592 53.5739 24.4842 51.5208 24.4842ZM59.65 30.5005C58.5249 30.5005 57.5542 29.5641 57.5542 28.2305C57.5542 26.8819 58.5249 25.9597 59.65 25.9597C60.7752 25.9597 61.745 26.8819 61.745 28.2305C61.745 29.5641 60.7752 30.5005 59.65 30.5005ZM59.65 24.4842C57.597 24.4842 55.9237 26.0592 55.9237 28.2305C55.9237 30.3877 57.597 31.9768 59.65 31.9768C61.7031 31.9768 63.3764 30.3877 63.3764 28.2305C63.3764 26.0592 61.7031 24.4842 59.65 24.4842Z" fill="white"/>
</svg>
