<svg xmlns="http://www.w3.org/2000/svg" xmlns:xlink="http://www.w3.org/1999/xlink" width="23.527" height="24" viewBox="0 0 23.527 24">
  <defs>
    <clipPath id="clip-path">
      <rect id="Rectangle_3727" data-name="Rectangle 3727" width="23.527" height="24" fill="none"/>
    </clipPath>
  </defs>
  <g id="Group_12330" data-name="Group 12330" clip-path="url(#clip-path)">
    <path id="Path_8008" data-name="Path 8008" d="M34.2.659a12.093,12.093,0,0,1,8.084.074,11.643,11.643,0,0,1,3.864,2.392c-.376.4-.779.786-1.169,1.183-.739.732-1.472,1.472-2.211,2.2a6.437,6.437,0,0,0-2.587-1.519,7.055,7.055,0,0,0-7.1,1.848,7.4,7.4,0,0,0-1.74,2.829c-1.31-1.015-2.621-2.036-3.931-3.051A12.037,12.037,0,0,1,34.2.659" transform="translate(-26.123 0)" fill="#e94435"/>
    <path id="Path_8009" data-name="Path 8009" d="M.237,144.086a11.979,11.979,0,0,1,1.042-3.017c1.31,1.015,2.621,2.036,3.931,3.051a7.264,7.264,0,0,0,0,4.67c-1.31,1.015-2.621,2.036-3.931,3.051a11.986,11.986,0,0,1-1.042-7.754" transform="translate(0 -134.456)" fill="#f8bb15"/>
    <path id="Path_8010" data-name="Path 8010" d="M256.034,208.014h11.3a14.08,14.08,0,0,1-.3,6.37,10.9,10.9,0,0,1-3.037,4.979c-1.27-.988-2.547-1.976-3.81-2.963a5.637,5.637,0,0,0,2.406-3.709h-6.538c-.02-1.552-.013-3.111-.013-4.677" transform="translate(-244.032 -198.263)" fill="#547dbe"/>
    <path id="Path_8011" data-name="Path 8011" d="M27.264,308.976c1.31-1.015,2.621-2.036,3.931-3.051a7.406,7.406,0,0,0,2.748,3.682,7.092,7.092,0,0,0,2.674,1.156,7.882,7.882,0,0,0,2.863.007,6.823,6.823,0,0,0,2.641-1.042c1.27.988,2.547,1.976,3.81,2.963a10.769,10.769,0,0,1-4.912,2.553,12.831,12.831,0,0,1-6.142-.067,11.987,11.987,0,0,1-4.361-2.2,12.2,12.2,0,0,1-3.252-4" transform="translate(-25.986 -291.585)" fill="#34a751"/>
  </g>
</svg>
