<svg width="123" height="40" viewBox="0 0 123 40" fill="none" xmlns="http://www.w3.org/2000/svg">
<g clip-path="url(#clip0_9186_15974)">
<path d="M18.4573 0.342093C17.0017 0.552754 15.5742 0.925071 14.2012 1.45211C12.434 2.12896 10.7827 3.07624 9.30626 4.26009C7.92704 5.36726 6.73302 6.68715 5.76921 8.1701C4.39628 10.2849 3.5576 12.7015 3.32524 15.2121C3.15524 17.0441 3.29421 18.8921 3.73521 20.6791C4.40021 23.3931 5.75021 25.9731 7.67821 28.2221C9.24813 30.0418 11.1174 31.5799 13.2052 32.7701C14.4791 33.4966 15.8211 34.0961 17.2122 34.5601L17.3973 34.6211L17.4492 34.6011C17.4792 34.5911 17.6252 34.5291 17.7762 34.4661C18.5832 34.1311 19.3472 33.8831 19.9362 33.7691C20.7092 33.6191 21.7163 33.6531 22.9053 33.8691C23.1183 33.9091 23.3542 33.9731 24.5082 34.3031C25.3272 34.5441 26.8882 35.2451 28.5632 35.2431C28.7592 35.2301 28.9562 35.2301 29.1522 35.2431C29.4622 35.2531 29.7042 35.2931 30.0232 35.3401L30.2042 35.3821C30.3172 35.4081 30.4292 35.4371 30.5402 35.4721C30.6142 35.4961 30.6903 35.5161 30.7673 35.5321C30.8813 35.5521 30.9652 35.6021 31.1352 35.7521C31.2462 35.8461 31.3353 35.9621 31.3973 36.0931C31.4793 36.2641 31.4862 36.3731 31.4212 36.5021C31.3652 36.6101 31.1872 36.7251 30.9952 36.7791C30.9082 36.8011 30.7952 36.8061 29.6542 36.8391C28.5322 36.8711 28.3822 36.8741 28.1622 36.8591C27.2972 36.8021 26.3202 36.7721 25.8942 36.7911C25.5882 36.8041 25.4452 36.8211 25.2992 36.8671C25.1522 36.9121 25.0933 36.9501 25.1293 36.9731C25.1373 36.9771 25.1423 36.9891 25.1423 36.9961C25.1423 37.0061 25.1312 36.9971 25.1172 36.9791L25.0922 36.9491L25.0483 36.9941C24.9963 37.0501 24.9932 37.0791 25.0342 37.1261C25.0582 37.1561 25.0712 37.1591 25.1302 37.1581C25.2031 37.1498 25.2747 37.1324 25.3432 37.1061C25.5302 37.0401 25.6622 37.0211 25.9982 37.0041C26.3582 36.9851 26.8042 37.0021 27.7112 37.0691L28.4072 37.1221L29.6672 37.0881C31.0822 37.0481 31.0322 37.0531 31.2512 36.9481C31.6832 36.7411 31.8232 36.3981 31.6352 36.0031C31.5521 35.8236 31.4282 35.6661 31.2732 35.5431C31.0893 35.3958 30.8736 35.2935 30.6432 35.2441C30.5092 35.2091 30.4682 35.1941 30.4872 35.1871L31.2803 34.8541L32.0483 34.5281L33.2853 33.8031C33.9653 33.4051 34.5622 33.0531 34.6102 33.0191C35.1222 32.6711 35.8193 32.4141 36.3403 32.3831C36.4893 32.3713 36.639 32.3934 36.7783 32.4478C36.9176 32.5022 37.0426 32.5874 37.1442 32.6971C37.2222 32.7811 37.3362 32.9571 37.3362 32.9941C37.3362 33.0041 37.0492 33.1791 36.5612 33.4601L35.7892 33.9091L34.6352 34.6911L33.4822 35.4731L32.9242 35.6321C32.6172 35.7191 32.3612 35.7921 32.3542 35.7991C32.3951 35.8779 32.448 35.9498 32.5112 36.0121C32.5162 36.0121 32.7372 35.9521 33.0012 35.8811C33.4312 35.7621 33.5702 35.7321 34.3212 35.5851C34.7812 35.4951 35.1622 35.4151 35.1662 35.4091C35.1792 35.3911 35.4172 35.3111 35.5462 35.2851C36.0252 35.1801 36.7022 35.1921 37.0732 35.3101C37.4432 35.4271 37.7162 35.6551 37.8682 35.9761C37.8857 36.0095 37.9004 36.0443 37.9122 36.0801C37.9122 36.1151 36.3802 36.4101 35.9642 36.4581C35.8672 36.4681 35.7272 36.4941 35.6502 36.5151C35.2572 36.6191 34.4532 36.9321 33.4072 37.3881L33.0682 37.5351L30.6213 38.2501L28.1733 38.9651L27.5253 38.8901C24.4913 38.5401 22.2143 38.2641 21.5773 38.1731C20.9359 38.0808 20.3012 37.9468 19.6772 37.7721C19.5107 37.7255 19.3414 37.6897 19.1702 37.6651C17.0038 37.3198 14.8938 36.6841 12.8973 35.7751C12.4097 35.5458 11.9272 35.3057 11.4502 35.0551C8.39824 33.4001 5.83424 31.1631 3.92424 28.4851C3.07241 27.2948 2.35599 26.0132 1.78825 24.6641C1.2398 23.3586 0.844822 21.9938 0.61125 20.5971C0.11325 17.5771 0.441206 14.5431 1.56621 11.7271C2.40527 9.64341 3.6493 7.74683 5.22624 6.14712C6.133 5.21961 7.13791 4.3934 8.22325 3.6831C11.0962 1.7821 14.6212 0.603111 18.2682 0.323111L18.5682 0.300101C18.6082 0.296101 18.6462 0.294113 18.6842 0.293113C18.7502 0.291113 18.6702 0.310093 18.4562 0.342093H18.4573ZM22.7422 3.74212C23.7102 3.85712 24.5702 4.2721 25.2482 4.9501C25.9652 5.6651 26.3872 6.56712 26.4982 7.62112C26.5112 7.74212 26.5152 8.1311 26.5152 9.3131V10.8471L26.4393 10.8481C26.3133 10.8511 23.0793 10.8661 22.5043 10.8681C22.1783 10.8681 21.9103 10.8631 21.8273 10.8531C21.3737 10.8114 20.9318 10.6856 20.5242 10.4821C19.9909 10.223 19.5316 9.83367 19.1886 9.35003C18.8457 8.86638 18.6303 8.30408 18.5622 7.71511C18.5402 7.44511 18.5422 7.17411 18.5672 6.90411C18.6524 6.22688 18.9301 5.5883 19.3672 5.06411C19.4932 4.91211 19.7942 4.61909 19.9512 4.50109C20.5472 4.04409 21.2093 3.79111 22.0093 3.71911C22.0413 3.71611 22.0732 3.71511 22.1052 3.71511C22.3182 3.71511 22.5302 3.72412 22.7422 3.74212ZM24.6473 12.2791C27.6513 12.2881 28.0762 12.2981 28.9082 12.3751C30.9862 12.5651 32.6973 13.1031 33.9783 13.9651C34.3493 14.2111 34.6932 14.4951 35.0052 14.8121C35.5422 15.3521 35.8992 15.8521 36.2702 16.5911C36.7822 17.6061 37.0622 18.5591 37.1362 19.5301C37.1562 19.7801 37.1442 20.4661 37.1182 20.7341C37.029 21.6257 36.7932 22.4964 36.4202 23.3111C36.0552 24.1161 35.6092 24.7811 35.0612 25.3301C34.5692 25.8241 34.0882 26.1541 33.2512 26.5731C32.9828 26.713 32.7052 26.8343 32.4202 26.9361C32.1632 27.0261 32.0352 27.0571 31.2452 27.2211C30.8502 27.3041 30.5152 27.3761 30.5032 27.3811C30.4382 27.4051 30.4313 27.5171 30.4833 27.6561C30.5433 27.8171 30.9062 28.0731 31.6282 28.4611C32.2512 28.7851 32.8822 29.0941 33.5202 29.3881C33.7702 29.4981 34.4883 29.6581 35.3063 29.7881C35.6703 29.8441 36.0762 29.9421 36.1662 29.9951C36.2432 30.0431 36.3032 30.1151 36.3382 30.1981C36.3782 30.3131 36.3563 30.4981 36.2882 30.6331C36.234 30.7272 36.1561 30.8055 36.0622 30.8601C35.8662 30.9641 35.5222 30.9831 35.1782 30.9051C35.0182 30.8701 33.8482 30.5151 33.5972 30.4281C32.6372 30.0861 31.6632 29.5881 30.6872 28.9381C30.0339 28.483 29.3826 28.025 28.7333 27.5641L26.9913 26.3341L26.9872 28.4621L26.9842 30.5931L22.1683 30.5891C19.5203 30.5871 17.3282 30.5811 17.2962 30.5771C17.2318 30.5692 17.1671 30.5638 17.1022 30.5611C16.7371 30.5338 16.3734 30.4898 16.0123 30.4291C14.0383 30.0851 12.7092 29.2731 11.8492 27.8861C11.6086 27.5109 11.435 27.0968 11.3362 26.6621C11.3089 26.5364 11.2974 26.4077 11.3022 26.2791C11.3002 26.0761 11.3022 26.0531 11.3312 25.9721C11.3517 25.9086 11.3886 25.8517 11.4382 25.8071C11.4793 25.7572 11.5344 25.7207 11.5962 25.7021C11.7166 25.6629 11.8452 25.6556 11.9692 25.6811C12.2492 25.7521 12.3962 25.9791 12.4792 26.4671C12.4952 26.5561 12.5112 26.6441 12.5292 26.7321C12.7322 27.6311 13.3332 28.3651 14.3092 28.9111C15.3262 29.4771 16.5662 29.7841 17.7792 29.7691C18.0412 29.7651 18.5252 29.7391 18.5372 29.7291C18.5412 29.7241 18.5413 25.7991 18.5383 21.0051C18.5363 16.2111 18.5383 12.2821 18.5433 12.2731C18.5483 12.2651 18.6973 12.2621 19.1633 12.2621L24.6473 12.2791ZM28.5572 13.2561C28.0692 13.2581 27.8832 13.2701 27.0572 13.3511L26.9852 13.3591V25.0631L27.1603 25.2481C27.7723 25.8951 28.4752 26.3591 29.1332 26.5491C29.4132 26.6291 29.5722 26.6491 29.9042 26.6501C30.3612 26.6501 30.7272 26.5931 31.2182 26.4451C32.0541 26.1765 32.8397 25.7714 33.5433 25.2461C34.5533 24.4801 35.2102 23.5601 35.6132 22.3501C35.8252 21.7161 35.9412 21.1101 36.0102 20.2951C36.0362 19.9861 36.0332 19.0431 36.0052 18.8121C35.8985 17.8404 35.5246 16.9173 34.9252 16.1451C34.4082 15.4751 33.6342 14.8051 32.8562 14.3541C32.0853 13.9146 31.2437 13.6124 30.3692 13.4611C30.0997 13.4182 29.8297 13.3782 29.5592 13.3411L28.9352 13.2541L28.5572 13.2561ZM48.1672 14.0091V18.7071C48.1672 19.3221 48.1132 19.7941 48.0052 20.1251C47.8652 20.5511 47.5892 20.9181 47.2192 21.1681C46.8392 21.4281 46.3373 21.5581 45.7153 21.5581C44.9853 21.5581 44.4232 21.3541 44.0292 20.9451C43.6352 20.5341 43.4372 19.9311 43.4332 19.1381L44.8412 18.9761C44.8592 19.4011 44.9212 19.7011 45.0282 19.8761C45.1902 20.1431 45.4362 20.2761 45.7652 20.2761C46.0982 20.2761 46.3332 20.1831 46.4712 19.9931C46.6092 19.8011 46.6782 19.4041 46.6782 18.8031V14.0081L48.1672 14.0091ZM67.0032 14.0091C67.7932 14.0091 68.3672 14.0761 68.7242 14.2111C69.0842 14.3431 69.3712 14.5801 69.5872 14.9211C69.8022 15.2611 69.9103 15.6511 69.9103 16.0901C69.9103 16.6471 69.7472 17.1071 69.4202 17.4721C69.0942 17.8331 68.6063 18.0611 67.9573 18.1561C68.2803 18.3441 68.5453 18.5531 68.7543 18.7791C68.9663 19.0051 69.2502 19.4061 69.6072 19.9831L70.5102 21.4311H68.7242L67.6442 19.8171C67.2602 19.2391 66.9972 18.8771 66.8562 18.7291C66.7347 18.59 66.5804 18.4834 66.4072 18.4191C66.2492 18.3621 65.9993 18.3331 65.6553 18.3331H65.3533V21.4311H63.8583V14.0081L67.0032 14.0091ZM112.946 14.0091V16.6821C113.383 16.1821 113.901 15.9321 114.5 15.9321C115.153 15.9321 115.693 16.1701 116.12 16.6461C116.548 17.1191 116.761 17.7991 116.761 18.6871C116.761 19.6051 116.543 20.3131 116.106 20.8091C115.671 21.3051 115.143 21.5531 114.521 21.5531C114.204 21.5505 113.893 21.4724 113.612 21.3251C113.306 21.161 113.044 20.927 112.845 20.6421V21.4311H111.527V14.0081L112.946 14.0091ZM119.113 14.0091V15.3251H117.695V14.0081L119.113 14.0091ZM121.768 14.0091V21.4311H120.349V14.0081L121.768 14.0091ZM65.3533 17.1481H66.4582C67.1752 17.1481 67.6222 17.1171 67.8002 17.0561C67.9709 17.0015 68.1184 16.8913 68.2192 16.7431C68.3255 16.5769 68.3786 16.3822 68.3713 16.1851C68.3713 15.9351 68.3033 15.7351 68.1683 15.5831C68.0383 15.4281 67.8503 15.3301 67.6083 15.2891C67.4883 15.2731 67.1242 15.2641 66.5182 15.2641H65.3522L65.3533 17.1481ZM53.9662 16.7281C54.4842 17.2541 54.7442 17.9211 54.7442 18.7281C54.7442 19.5411 54.4812 20.2161 53.9562 20.7531C53.4352 21.2861 52.7773 21.5531 51.9833 21.5531C51.4933 21.5531 51.0112 21.4391 50.5742 21.2191C50.142 21.0075 49.7873 20.6654 49.5602 20.2411C49.3282 19.8091 49.2122 19.2841 49.2122 18.6671C49.2122 18.1941 49.3282 17.7371 49.5602 17.2951C49.7932 16.8531 50.1202 16.5151 50.5442 16.2821C50.9722 16.0491 51.4482 15.9321 51.9732 15.9321C52.7832 15.9321 53.4482 16.1981 53.9662 16.7281ZM57.9332 15.9321C58.5862 15.9321 59.1042 16.0741 59.4882 16.3581C59.8752 16.6381 60.1522 17.0671 60.3212 17.6441L58.9222 17.8971C58.8752 17.6171 58.7672 17.4061 58.5992 17.2641C58.4342 17.1221 58.2192 17.0521 57.9542 17.0521C57.6002 17.0521 57.3182 17.1751 57.1062 17.4211C56.8972 17.6641 56.7922 18.0721 56.7922 18.6461C56.7922 19.2841 56.8992 19.7361 57.1122 19.9981C57.3262 20.2621 57.6142 20.3931 57.9742 20.3931C58.2432 20.3931 58.4643 20.3181 58.6343 20.1661C58.8063 20.0111 58.9282 19.7461 58.9982 19.3701L60.3912 19.6081C60.2472 20.2501 59.9692 20.7341 59.5582 21.0621C59.1482 21.3891 58.5982 21.5521 57.9082 21.5521C57.1242 21.5521 56.4982 21.3051 56.0312 20.8091C55.5662 20.3131 55.3342 19.6261 55.3342 18.7491C55.3342 17.8601 55.5682 17.1701 56.0362 16.6771C56.5042 16.1811 57.1362 15.9321 57.9332 15.9321ZM75.0332 16.7281C75.4932 17.2541 75.7143 18.0631 75.6943 19.1531H72.1412C72.1512 19.5751 72.2652 19.9041 72.4842 20.1401C72.7032 20.3731 72.9752 20.4901 73.3022 20.4901C73.5045 20.4963 73.7026 20.4315 73.8622 20.3071C74.0122 20.1861 74.1282 19.9901 74.2052 19.7201L75.6182 19.9581C75.4362 20.4781 75.1482 20.8741 74.7552 21.1481C74.3652 21.4181 73.8752 21.5531 73.2872 21.5531C72.3552 21.5531 71.6642 21.2481 71.2172 20.6371C70.8642 20.1471 70.6872 19.5291 70.6872 18.7831C70.6872 17.8921 70.9193 17.1951 71.3843 16.6921C71.8483 16.1861 72.4352 15.9321 73.1442 15.9321C73.9422 15.9321 74.5712 16.1981 75.0322 16.7281H75.0332ZM78.5962 15.9321C79.3292 15.9321 79.8742 16.0521 80.2312 16.2921C80.5872 16.5321 80.8332 16.8861 80.9682 17.3561L79.6302 17.6031C79.5832 17.4087 79.4669 17.238 79.3032 17.1231C79.1452 17.0111 78.9173 16.9551 78.6213 16.9551C78.2483 16.9551 77.9813 17.0081 77.8193 17.1121C77.7697 17.1423 77.7288 17.1848 77.7004 17.2354C77.6721 17.286 77.6571 17.3431 77.6572 17.4011C77.6572 17.5011 77.7043 17.5881 77.7983 17.6591C77.9263 17.7541 78.3672 17.8871 79.1202 18.0591C79.8772 18.2321 80.4062 18.4421 80.7052 18.6921C81.0012 18.9451 81.1492 19.2981 81.1492 19.7511C81.1492 20.2431 80.9442 20.6661 80.5342 21.0211C80.1232 21.3751 79.5162 21.5531 78.7122 21.5531C77.9822 21.5531 77.4022 21.4041 76.9762 21.1071C76.559 20.8201 76.2624 20.3893 76.1432 19.8971L77.5672 19.6791C77.6272 19.9561 77.7502 20.1671 77.9352 20.3131C78.1202 20.4541 78.3792 20.5251 78.7122 20.5251C79.0782 20.5251 79.3552 20.4581 79.5402 20.3221C79.6 20.279 79.6483 20.2219 79.6809 20.1559C79.7135 20.0898 79.7294 20.0167 79.7272 19.9431C79.7305 19.8436 79.6942 19.7469 79.6262 19.6741C79.5562 19.6071 79.3962 19.5441 79.1512 19.4871C78.0072 19.2341 77.2812 19.0031 76.9762 18.7941C76.7747 18.6646 76.6102 18.485 76.4987 18.273C76.3872 18.0609 76.3326 17.8236 76.3403 17.5841C76.3403 17.1181 76.5232 16.7251 76.8902 16.4081C77.2572 16.0911 77.8253 15.9331 78.5953 15.9331L78.5962 15.9321ZM86.7222 16.6661C87.1552 17.1561 87.3722 17.8391 87.3722 18.7131C87.3722 19.6111 87.1542 20.3091 86.7162 20.8091C86.2792 21.3051 85.7492 21.5531 85.1262 21.5531C84.8472 21.5567 84.5711 21.4962 84.3193 21.3761C84.0803 21.2581 83.8282 21.0551 83.5622 20.7681V23.4781H82.1442V16.0541H83.4662V16.8441C83.6412 16.5711 83.8802 16.3441 84.1622 16.1851C84.4552 16.0161 84.7803 15.9321 85.1373 15.9321C85.7593 15.9321 86.2872 16.1771 86.7222 16.6661ZM90.7242 15.9321C91.5342 15.9321 92.1992 16.1981 92.7172 16.7281C93.2362 17.2541 93.4942 17.9211 93.4942 18.7281C93.4942 19.5411 93.2323 20.2161 92.7073 20.7531C92.1853 21.2861 91.5272 21.5531 90.7342 21.5531C90.2449 21.5538 89.7622 21.4394 89.3252 21.2191C88.8934 21.0073 88.5391 20.6652 88.3122 20.2411C88.0802 19.8091 87.9632 19.2841 87.9632 18.6671C87.9632 18.1941 88.0802 17.7371 88.3122 17.2951C88.5312 16.8664 88.8741 16.5134 89.2962 16.2821C89.7233 16.0491 90.1992 15.9321 90.7242 15.9321ZM97.4722 15.9321C97.7852 15.9321 98.0702 15.9901 98.3292 16.1051C98.5892 16.2161 98.7842 16.3591 98.9152 16.5351C99.0502 16.7111 99.1452 16.9151 99.1932 17.1331C99.2472 17.3551 99.2732 17.6741 99.2732 18.0901V21.4311H97.8552V18.6871C97.8552 18.1071 97.8252 17.7321 97.7652 17.5631C97.7115 17.3989 97.6052 17.257 97.4628 17.1593C97.3203 17.0615 97.1497 17.0133 96.9772 17.0221C96.7416 17.0192 96.5109 17.0898 96.3172 17.2241C96.1262 17.3521 95.9832 17.5411 95.9122 17.7601C95.8422 17.9831 95.8072 18.3951 95.8072 18.9961V21.4311H94.3882V16.0541H95.7052V16.8441C96.1732 16.2361 96.7622 15.9321 97.4722 15.9321ZM104.093 16.2921C104.45 16.5321 104.696 16.8861 104.83 17.3561L103.493 17.6031C103.446 17.4083 103.329 17.2376 103.164 17.1231C103.006 17.0111 102.779 16.9551 102.483 16.9551C102.109 16.9551 101.843 17.0081 101.681 17.1121C101.632 17.1423 101.591 17.1847 101.562 17.2353C101.534 17.2859 101.519 17.3431 101.519 17.4011C101.519 17.5011 101.566 17.5881 101.661 17.6591C101.789 17.7541 102.229 17.8871 102.983 18.0591C103.74 18.2321 104.268 18.4421 104.568 18.6921C104.864 18.9451 105.012 19.2981 105.012 19.7511C105.012 20.2431 104.806 20.6661 104.396 21.0211C103.986 21.3751 103.378 21.5531 102.574 21.5531C101.844 21.5531 101.265 21.4041 100.838 21.1071C100.421 20.8201 100.124 20.3893 100.005 19.8971L101.428 19.6791C101.488 19.9561 101.612 20.1671 101.797 20.3131C101.982 20.4541 102.241 20.5251 102.574 20.5251C102.941 20.5251 103.217 20.4581 103.402 20.3221C103.462 20.279 103.51 20.2219 103.543 20.1559C103.575 20.0898 103.591 20.0167 103.589 19.9431C103.592 19.8435 103.556 19.7467 103.487 19.6741C103.417 19.6071 103.259 19.5441 103.013 19.4871C101.869 19.2341 101.143 19.0031 100.838 18.7941C100.637 18.6646 100.472 18.485 100.361 18.273C100.249 18.0609 100.195 17.8236 100.202 17.5841C100.202 17.1181 100.385 16.7251 100.752 16.4081C101.119 16.0911 101.687 15.9331 102.458 15.9331C103.192 15.9331 103.737 16.0531 104.093 16.2931V16.2921ZM108.141 15.9321C108.773 15.9321 109.244 16.0091 109.554 16.1601C109.864 16.3091 110.081 16.5001 110.205 16.7321C110.333 16.9621 110.397 17.3861 110.397 18.0031L110.382 19.6641C110.382 20.1371 110.404 20.4871 110.448 20.7131C110.495 20.9361 110.581 21.1751 110.705 21.4311H109.302C109.251 21.2931 109.205 21.153 109.165 21.0111C109.151 20.9548 109.134 20.8991 109.115 20.8441C108.891 21.068 108.628 21.2483 108.338 21.3761C108.062 21.4941 107.768 21.5531 107.455 21.5531C106.903 21.5531 106.467 21.4031 106.147 21.1031C105.831 20.8021 105.673 20.4221 105.673 19.9631C105.673 19.6591 105.745 19.3891 105.89 19.1531C106.033 18.9151 106.244 18.7241 106.496 18.6061C106.758 18.4781 107.135 18.3661 107.626 18.2711C108.289 18.1471 108.748 18.0311 109.004 17.9231V17.7811C109.004 17.5071 108.937 17.3131 108.802 17.1981C108.667 17.0801 108.413 17.0221 108.04 17.0221C107.788 17.0221 107.591 17.0721 107.45 17.1731C107.308 17.2711 107.194 17.4451 107.106 17.6941L105.82 17.4621C105.964 16.9421 106.213 16.5571 106.566 16.3071C106.92 16.0571 107.444 15.9321 108.141 15.9321ZM119.113 16.0541V21.4311H117.695V16.0541H119.113ZM73.2312 17.0221C73.0863 17.0186 72.9424 17.0471 72.8098 17.1057C72.6772 17.1643 72.5592 17.2515 72.4642 17.3611C72.2622 17.5871 72.1632 17.8941 72.1662 18.2821H74.2862C74.2762 17.8701 74.1702 17.5581 73.9682 17.3461C73.8757 17.2426 73.762 17.1601 73.6349 17.1042C73.5077 17.0483 73.3701 17.0203 73.2312 17.0221ZM114.121 17.0221C113.781 17.0221 113.499 17.1541 113.274 17.4211C113.048 17.6841 112.936 18.0871 112.936 18.6261C112.936 19.1841 113.023 19.5951 113.198 19.8621C113.444 20.2391 113.77 20.4291 114.178 20.4291C114.49 20.4291 114.756 20.2961 114.975 20.0291C115.197 19.7591 115.307 19.3351 115.307 18.7581C115.307 18.1441 115.197 17.7021 114.975 17.4311C114.875 17.3008 114.746 17.1957 114.598 17.1245C114.449 17.0533 114.287 17.0179 114.122 17.0211L114.121 17.0221ZM84.7532 17.0561C84.4072 17.0561 84.1192 17.1921 83.8902 17.4621C83.6612 17.7281 83.5462 18.1251 83.5462 18.6521C83.5462 19.2561 83.6663 19.7031 83.9053 19.9931C84.1443 20.2801 84.4352 20.4231 84.7782 20.4231C85.1082 20.4231 85.3822 20.2931 85.6012 20.0291C85.8202 19.7631 85.9292 19.3271 85.9292 18.7221C85.9292 18.1581 85.8163 17.7401 85.5903 17.4661C85.3653 17.1931 85.0873 17.0561 84.7543 17.0561H84.7532ZM51.0442 17.5181C50.7922 17.8011 50.6662 18.2101 50.6662 18.7431C50.6662 19.2761 50.7922 19.6851 51.0442 19.9681C51.2972 20.2511 51.6083 20.3931 51.9783 20.3931C52.3483 20.3931 52.6582 20.2511 52.9072 19.9681C53.1592 19.6851 53.2842 19.2721 53.2842 18.7321C53.2842 18.2061 53.1592 17.8021 52.9072 17.5181C52.7938 17.3822 52.6514 17.2735 52.4905 17.1998C52.3295 17.1261 52.1542 17.0893 51.9772 17.0921C51.6072 17.0921 51.2972 17.2341 51.0442 17.5181ZM90.7292 17.0921C90.3592 17.0921 90.0472 17.2341 89.7952 17.5181C89.5422 17.8011 89.4172 18.2101 89.4172 18.7431C89.4172 19.2761 89.5422 19.6851 89.7952 19.9681C90.0472 20.2511 90.3592 20.3931 90.7292 20.3931C91.0992 20.3931 91.4092 20.2511 91.6572 19.9681C91.9102 19.6851 92.0362 19.2721 92.0362 18.7321C92.0362 18.2061 91.9102 17.8021 91.6572 17.5181C91.544 17.3824 91.402 17.2738 91.2414 17.2001C91.0809 17.1264 90.9059 17.0895 90.7292 17.0921ZM109.004 18.8501C108.823 18.9101 108.534 18.9831 108.141 19.0671C107.747 19.1511 107.491 19.2341 107.369 19.3151C107.184 19.4461 107.091 19.6141 107.091 19.8161C107.091 20.0161 107.165 20.1881 107.313 20.3331C107.388 20.4055 107.477 20.4621 107.574 20.4994C107.671 20.5367 107.775 20.5539 107.879 20.5501C108.134 20.5501 108.379 20.4661 108.611 20.2971C108.773 20.1821 108.892 20.0163 108.949 19.8261C108.986 19.7051 109.004 19.4741 109.004 19.1331V18.8501ZM44.9732 24.9731L46.0303 28.1431C46.1273 28.4391 46.1982 28.6601 46.2432 28.8071C46.3192 28.5671 46.3982 28.3271 46.4802 28.0881L47.5502 24.9731H48.3432V29.4521H47.7752V25.7021L46.4772 29.4511H45.9443L44.6542 25.6391V29.4521H44.0842V24.9731H44.9732ZM49.7842 24.9731V25.6061H49.2362V24.9731H49.7842ZM84.8063 24.9731V26.5811C85.0623 26.2831 85.3852 26.1341 85.7742 26.1341C86.0142 26.1341 86.2222 26.1821 86.3982 26.2781C86.5652 26.361 86.6986 26.4987 86.7762 26.6681C86.8532 26.8361 86.8912 27.0781 86.8912 27.3951V29.4521H86.3442V27.3951C86.3442 27.1201 86.2842 26.9201 86.1642 26.7961C86.0462 26.6701 85.8782 26.6061 85.6612 26.6061C85.4992 26.6066 85.3405 26.6516 85.2023 26.7361C85.0658 26.8131 84.9586 26.933 84.8973 27.0771C84.8373 27.2221 84.8072 27.4221 84.8072 27.6771V29.4521H84.2582V24.9731H84.8063ZM88.2803 24.9731V25.6061H87.7322V24.9731H88.2803ZM89.6532 24.9731V29.4521H89.1052V24.9731H89.6532ZM91.0572 24.9731V25.6061H90.5082V24.9731H91.0572ZM92.4393 24.9741V26.5711C92.6703 26.2811 92.9662 26.1341 93.3252 26.1341C93.5192 26.1331 93.7122 26.1741 93.8882 26.2571C94.0602 26.3311 94.2112 26.4471 94.3262 26.5951C94.4482 26.7521 94.5402 26.9311 94.5972 27.1211C94.6642 27.3351 94.6972 27.5571 94.6952 27.7811C94.6952 28.3371 94.5583 28.7671 94.2853 29.0701C94.0103 29.3741 93.6823 29.5251 93.2983 29.5251C92.9163 29.5251 92.6172 29.3651 92.3992 29.0451V29.4521H91.8912V24.9731L92.4393 24.9741ZM101.722 24.9741V25.9661L101.564 28.3391H101.211L101.043 25.9661V24.9731L101.722 24.9741ZM64.6482 24.9801C64.6667 25.0995 64.7257 25.209 64.8152 25.2901C64.9002 25.3581 65.0152 25.3921 65.1562 25.3921C65.3202 25.3921 65.4442 25.3591 65.5272 25.2941C65.6202 25.2135 65.681 25.102 65.6982 24.9801H66.0732C66.0432 25.2341 65.9493 25.4301 65.7933 25.5651C65.6383 25.7021 65.4322 25.7701 65.1742 25.7701C64.9142 25.7701 64.7062 25.7031 64.5502 25.5691C64.3962 25.4321 64.3042 25.2361 64.2732 24.9791L64.6482 24.9801ZM55.0662 26.1341C55.4992 26.1341 55.8522 26.2821 56.1262 26.5771C56.3992 26.8721 56.5362 27.2871 56.5362 27.8241C56.5362 27.8561 56.5362 27.9041 56.5342 27.9701H54.1222C54.1422 28.3261 54.2432 28.6001 54.4242 28.7891C54.6042 28.9781 54.8302 29.0731 55.1002 29.0731C55.3002 29.0731 55.4722 29.0191 55.6142 28.9131C55.7562 28.8071 55.8693 28.6381 55.9523 28.4061L56.5182 28.4761C56.4292 28.8091 56.2643 29.0661 56.0223 29.2501C55.7813 29.4331 55.4722 29.5241 55.0972 29.5241C54.6242 29.5241 54.2483 29.3791 53.9703 29.0881C53.6943 28.7951 53.5563 28.3841 53.5563 27.8571C53.5563 27.3111 53.6962 26.8871 53.9762 26.5861C54.2562 26.2851 54.6192 26.1341 55.0662 26.1341ZM58.5762 26.1341C58.8532 26.1341 59.0772 26.1671 59.2502 26.2321C59.4222 26.2971 59.5492 26.3791 59.6302 26.4791C59.7162 26.5879 59.7745 26.7159 59.8002 26.8521C59.8202 26.9461 59.8282 27.1151 59.8282 27.3591V28.0921C59.8282 28.6041 59.8392 28.9261 59.8622 29.0631C59.8872 29.1991 59.9342 29.3301 60.0022 29.4511H59.4292C59.3692 29.3253 59.332 29.1899 59.3193 29.0511C59.1173 29.2241 58.9212 29.3461 58.7322 29.4181C58.5394 29.4901 58.3351 29.526 58.1293 29.5241C57.7743 29.5241 57.5012 29.4381 57.3102 29.2641C57.2172 29.18 57.1434 29.0767 57.094 28.9614C57.0447 28.8461 57.0208 28.7215 57.0242 28.5961C57.0242 28.4371 57.0592 28.2931 57.1302 28.1631C57.1985 28.0359 57.2958 27.9266 57.4142 27.8441C57.5312 27.7651 57.6642 27.7041 57.8102 27.6641C57.9172 27.6361 58.0802 27.6081 58.2972 27.5811C58.7392 27.5291 59.0652 27.4651 59.2742 27.3911L59.2772 27.2481C59.2772 27.0251 59.2252 26.8681 59.1222 26.7761C58.9822 26.6511 58.7742 26.5891 58.4982 26.5891C58.2402 26.5891 58.0493 26.6351 57.9263 26.7271C57.8042 26.8171 57.7132 26.9771 57.6542 27.2071L57.1182 27.1331C57.1672 26.9031 57.2473 26.7171 57.3583 26.5771C57.4703 26.4341 57.6312 26.3251 57.8432 26.2501C58.0792 26.1684 58.3276 26.1288 58.5773 26.1331L58.5762 26.1341ZM65.1662 26.1341C65.4412 26.1341 65.6662 26.1671 65.8382 26.2321C66.0112 26.2971 66.1382 26.3791 66.2182 26.4791C66.3047 26.5877 66.3633 26.7157 66.3892 26.8521C66.4072 26.9461 66.4162 27.1151 66.4162 27.3591V28.0921C66.4162 28.6041 66.4282 28.9261 66.4502 29.0631C66.4752 29.1991 66.5233 29.3301 66.5903 29.4511H66.0173C65.9574 29.3253 65.9205 29.1899 65.9082 29.0511C65.7062 29.2241 65.5092 29.3461 65.3202 29.4181C65.1278 29.4901 64.9237 29.526 64.7182 29.5241C64.3632 29.5241 64.0902 29.4381 63.8982 29.2641C63.8053 29.1799 63.7317 29.0767 63.6825 28.9614C63.6333 28.846 63.6096 28.7214 63.6132 28.5961C63.6128 28.4488 63.648 28.3037 63.7157 28.173C63.7835 28.0422 63.8818 27.9298 64.0022 27.8451C64.1202 27.7651 64.2522 27.7051 64.3982 27.6641C64.5062 27.6361 64.6682 27.6081 64.8852 27.5811C65.3272 27.5291 65.6532 27.4651 65.8622 27.3911C65.8642 27.3435 65.8656 27.2958 65.8663 27.2481C65.8663 27.0251 65.8142 26.8681 65.7112 26.7761C65.5712 26.6511 65.3622 26.5891 65.0862 26.5891C64.8282 26.5891 64.6372 26.6351 64.5142 26.7271C64.3922 26.8171 64.3022 26.9771 64.2432 27.2071L63.7073 27.1331C63.7553 26.9031 63.8362 26.7171 63.9472 26.5771C64.0743 26.424 64.2426 26.3105 64.4322 26.2501C64.6422 26.1731 64.8872 26.1331 65.1652 26.1331L65.1662 26.1341ZM70.4362 26.1341C70.7122 26.1341 70.9562 26.2051 71.1662 26.3481C71.3772 26.4901 71.5362 26.6921 71.6452 26.9531C71.7523 27.2111 71.8052 27.4961 71.8052 27.8051C71.8052 28.1371 71.7452 28.4361 71.6252 28.7031C71.5233 28.9454 71.3525 29.1523 71.134 29.2985C70.9156 29.4446 70.659 29.5234 70.3962 29.5251C70.2248 29.5273 70.0554 29.4872 69.9032 29.4081C69.7653 29.3362 69.6437 29.2364 69.5462 29.1151V30.6951H68.9982V26.2071H69.4982V26.6291C69.6011 26.4772 69.7372 26.3507 69.8962 26.2591C70.0623 26.1712 70.2484 26.1281 70.4362 26.1341ZM73.7972 26.1341C74.2292 26.1341 74.5832 26.2821 74.8572 26.5771C75.1302 26.8721 75.2673 27.2871 75.2673 27.8241C75.2673 27.8561 75.2672 27.9041 75.2642 27.9701H72.8533C72.8733 28.3261 72.9732 28.6001 73.1542 28.7891C73.3342 28.9781 73.5602 29.0731 73.8302 29.0731C74.0312 29.0731 74.2033 29.0191 74.3453 28.9131C74.4873 28.8071 74.6002 28.6381 74.6832 28.4061L75.2493 28.4761C75.1603 28.8091 74.9952 29.0661 74.7532 29.2501C74.5122 29.4331 74.2033 29.5241 73.8273 29.5241C73.3543 29.5241 72.9792 29.3791 72.7012 29.0881C72.4252 28.7951 72.2872 28.3841 72.2872 27.8571C72.2872 27.3111 72.4273 26.8871 72.7073 26.5861C72.9873 26.2851 73.3502 26.1341 73.7972 26.1341ZM78.9972 26.1341C79.4302 26.1341 79.7832 26.2821 80.0572 26.5771C80.3302 26.8721 80.4672 27.2871 80.4672 27.8241C80.4672 27.8561 80.4673 27.9041 80.4653 27.9701H78.0532C78.0732 28.3261 78.1742 28.6001 78.3552 28.7891C78.5352 28.9781 78.7603 29.0731 79.0303 29.0731C79.2313 29.0731 79.4032 29.0191 79.5452 28.9131C79.6872 28.8071 79.8002 28.6381 79.8832 28.4061L80.4492 28.4761C80.3602 28.8091 80.1952 29.0661 79.9532 29.2501C79.7122 29.4331 79.4032 29.5241 79.0272 29.5241C78.5542 29.5241 78.1792 29.3791 77.9012 29.0881C77.6252 28.7951 77.4872 28.3841 77.4872 27.8571C77.4872 27.3111 77.6272 26.8871 77.9072 26.5861C78.1872 26.2851 78.5502 26.1341 78.9972 26.1341ZM82.4473 26.1341C82.7972 26.1341 83.0852 26.2241 83.3082 26.4021C83.5312 26.5801 83.6742 26.8321 83.7372 27.1601L83.2052 27.2431C83.1542 27.0251 83.0642 26.8611 82.9342 26.7511C82.8046 26.6405 82.6386 26.5818 82.4682 26.5861C82.1922 26.5861 81.9682 26.6861 81.7952 26.8861C81.6222 27.0831 81.5372 27.3971 81.5372 27.8261C81.5372 28.2621 81.6192 28.5781 81.7862 28.7761C81.865 28.8721 81.9647 28.9488 82.0777 29.0003C82.1908 29.0518 82.3141 29.0767 82.4382 29.0731C82.6367 29.0787 82.8296 29.007 82.9762 28.8731C83.1202 28.7421 83.2112 28.5381 83.2502 28.2631L83.7902 28.3331C83.7302 28.7061 83.5802 28.9981 83.3362 29.2101C83.0942 29.4201 82.7973 29.5241 82.4443 29.5241C82.0013 29.5241 81.6442 29.3801 81.3743 29.0901C81.1073 28.8001 80.9733 28.3831 80.9733 27.8411C80.9733 27.4911 81.0312 27.1851 81.1462 26.9221C81.2622 26.6591 81.4383 26.4621 81.6733 26.3321C81.9113 26.2001 82.1693 26.1341 82.4473 26.1341ZM96.5532 26.1341C96.7372 26.1341 96.9253 26.1941 97.1163 26.3111L96.9263 26.8211C96.806 26.7454 96.6673 26.7039 96.5253 26.7011C96.4082 26.7 96.2943 26.7388 96.2023 26.8111C96.1038 26.8866 96.0323 26.9918 95.9982 27.1111C95.9382 27.3061 95.9072 27.5211 95.9072 27.7531V29.4511H95.3583V26.2071H95.8522V26.6991C95.9772 26.4691 96.0932 26.3181 96.1992 26.2441C96.3031 26.172 96.4267 26.1336 96.5532 26.1341ZM49.7842 26.2071V29.4511H49.2362V26.2071H49.7842ZM53.0972 26.2071V26.5711L51.3462 28.6291L51.0082 29.0051C51.2542 28.9871 51.4842 28.9781 51.6992 28.9781H53.1943V29.4511H50.3323V29.0061L52.3902 26.6361C52.1572 26.6471 51.9503 26.6531 51.7723 26.6531H50.4542V26.2071H53.0972ZM63.1562 26.2071V26.5711L61.4062 28.6291L61.0672 29.0051C61.3132 28.9871 61.5432 28.9781 61.7582 28.9781H63.2532V29.4511H60.3912V29.0061L62.4492 26.6361C62.2162 26.6471 62.0103 26.6531 61.8323 26.6531H60.5132V26.2071H63.1562ZM88.2803 26.2071V29.4511H87.7322V26.2071H88.2803ZM91.0572 26.2071V29.4511H90.5082V26.2071H91.0572ZM97.9833 26.2071V28.0071C97.9833 28.2931 97.9953 28.4871 98.0173 28.5871C98.0464 28.7241 98.1242 28.846 98.2363 28.9301C98.3483 29.0111 98.4863 29.0511 98.6503 29.0511C98.813 29.0517 98.9729 29.0085 99.1132 28.9261C99.2501 28.8486 99.3572 28.7275 99.4172 28.5821C99.4772 28.4351 99.5082 28.2221 99.5082 27.9451V26.2071H100.056V29.4521H99.5662V28.9741C99.3142 29.3411 98.9722 29.5241 98.5402 29.5241C98.3561 29.5254 98.1739 29.488 98.0052 29.4141C97.8603 29.3563 97.7328 29.2619 97.6352 29.1401C97.5518 29.0165 97.4953 28.8769 97.4692 28.7301C97.4422 28.5605 97.4308 28.3888 97.4352 28.2171V26.2071H97.9833ZM70.3832 26.5651C70.1502 26.5651 69.9432 26.6751 69.7632 26.8951C69.5832 27.1121 69.4952 27.4301 69.4952 27.8471C69.4952 28.2651 69.5792 28.5731 69.7472 28.7731C69.9162 28.9731 70.1202 29.0731 70.3592 29.0731C70.6032 29.0731 70.8113 28.9691 70.9833 28.7631C71.1583 28.5561 71.2463 28.2351 71.2463 27.8011C71.2463 27.3881 71.1602 27.0791 70.9892 26.8731C70.8212 26.6681 70.6192 26.5651 70.3832 26.5651ZM55.0722 26.5861C54.9547 26.5833 54.8377 26.6043 54.7284 26.6478C54.6192 26.6912 54.5197 26.7563 54.4362 26.8391C54.2662 27.0091 54.1712 27.2351 54.1532 27.5181H55.9582C55.9342 27.2451 55.8652 27.0401 55.7512 26.9031C55.6703 26.8013 55.5668 26.7197 55.449 26.6647C55.3312 26.6097 55.2022 26.5828 55.0722 26.5861ZM73.8022 26.5861C73.6848 26.5835 73.5681 26.6045 73.459 26.6479C73.3499 26.6914 73.2506 26.7564 73.1672 26.8391C72.9972 27.0091 72.9023 27.2351 72.8843 27.5181H74.6893C74.6653 27.2451 74.5962 27.0401 74.4822 26.9031C74.4013 26.8011 74.2976 26.7194 74.1796 26.6644C74.0616 26.6093 73.9324 26.5826 73.8022 26.5861ZM79.0022 26.5861C78.8848 26.5835 78.7681 26.6045 78.659 26.6479C78.5499 26.6914 78.4507 26.7564 78.3672 26.8391C78.1972 27.0091 78.1022 27.2351 78.0842 27.5181H79.8892C79.8652 27.2451 79.7962 27.0401 79.6822 26.9031C79.6013 26.8011 79.4977 26.7194 79.3796 26.6644C79.2616 26.6093 79.1324 26.5826 79.0022 26.5861ZM93.2762 26.5861C93.0362 26.5861 92.8292 26.6911 92.6562 26.9001C92.4802 27.1081 92.3932 27.4101 92.3932 27.8051C92.3932 28.1931 92.4462 28.4751 92.5522 28.6481C92.7242 28.9311 92.9582 29.0731 93.2522 29.0731C93.4922 29.0731 93.6992 28.9691 93.8722 28.7611C94.0482 28.5511 94.1352 28.2401 94.1352 27.8261C94.1352 27.4031 94.0502 27.0901 93.8822 26.8881C93.8114 26.7944 93.7199 26.7183 93.6147 26.6659C93.5096 26.6135 93.3937 26.5862 93.2762 26.5861ZM59.2742 27.8241C59.0742 27.9041 58.7763 27.9741 58.3793 28.0311C58.2161 28.0487 58.0556 28.0856 57.9012 28.1411C57.8145 28.1773 57.7404 28.2385 57.6885 28.3168C57.6365 28.3951 57.6089 28.4871 57.6092 28.5811C57.6079 28.6504 57.6219 28.7192 57.6502 28.7825C57.6786 28.8457 57.7206 28.902 57.7732 28.9471C57.8842 29.0451 58.0472 29.0941 58.2602 29.0941C58.4562 29.0971 58.6502 29.0501 58.8232 28.9561C58.981 28.8696 59.1078 28.736 59.1862 28.5741C59.2452 28.4501 59.2742 28.2671 59.2742 28.0251V27.8241ZM65.8622 27.8241C65.6642 27.9041 65.3652 27.9741 64.9672 28.0311C64.8041 28.0487 64.6437 28.0857 64.4892 28.1411C64.4025 28.1773 64.3284 28.2385 64.2765 28.3168C64.2245 28.3951 64.1969 28.4871 64.1972 28.5811C64.1959 28.6504 64.2098 28.7192 64.2382 28.7825C64.2666 28.8457 64.3086 28.902 64.3612 28.9471C64.4733 29.0451 64.6362 29.0941 64.8492 29.0941C65.0452 29.0971 65.2392 29.0501 65.4122 28.9561C65.5698 28.8696 65.6963 28.736 65.7742 28.5741C65.8342 28.4501 65.8622 28.2671 65.8622 28.0251V27.8241ZM101.698 28.8241V29.4511H101.068V28.8251L101.698 28.8241ZM34.6763 32.1471C34.8013 32.1741 34.9202 32.2221 35.0282 32.2901C35.1062 32.3411 35.2052 32.4241 35.2052 32.4401C35.2052 32.4461 35.0682 32.5281 34.9012 32.6241C34.7332 32.7191 33.9992 33.1441 33.2682 33.5701L31.9402 34.3421L31.2723 34.6241C30.9683 34.7511 30.6662 34.8811 30.3642 35.0131L30.1252 35.1191L29.8822 35.0751C29.4382 34.9951 29.3882 34.9901 28.8292 34.9951C28.5532 34.9961 28.3332 34.9951 28.3412 34.9911L29.9352 34.1251C31.4982 33.2741 32.7762 32.6081 33.0852 32.4851C33.4423 32.3509 33.8073 32.239 34.1782 32.1501C34.2613 32.1345 34.3457 32.1268 34.4302 32.1271C34.5122 32.1251 34.5952 32.1321 34.6763 32.1471ZM31.4892 32.8641C31.5892 32.8691 31.7642 32.8911 31.7562 32.8991L30.8562 33.3821C30.1962 33.7321 29.5362 34.0851 28.8762 34.4381L27.8923 34.9631C27.4752 34.9212 27.0628 34.8412 26.6603 34.7241C26.9873 34.5411 27.3182 34.3631 27.6522 34.1921L28.7322 33.6361L29.3332 33.4241C29.9942 33.1901 30.1982 33.1201 30.4612 33.0441C30.8172 32.9441 31.0742 32.8871 31.2692 32.8691C31.3424 32.8629 31.4159 32.8612 31.4892 32.8641Z" fill="#98A2B3"/>
</g>
<defs>
<clipPath id="clip0_9186_15974">
<rect width="122" height="39" fill="white" transform="translate(0.367188 0.339844)"/>
</clipPath>
</defs>
</svg>
