<svg width="32" height="32" viewBox="0 0 32 32" fill="none" xmlns="http://www.w3.org/2000/svg">
<rect width="32" height="32" rx="10" fill="url(#paint0_linear_31089_110973)"/>
<path d="M23.3994 8.79997L22.5995 8.14545C22.5995 8 22.454 8 22.3813 8C22.2719 8.01812 22.1705 8.06881 22.0904 8.14545C21.3445 8.87148 20.3653 9.30954 19.3269 9.38176C18.6075 9.37886 17.9029 9.17754 17.2906 8.79997C16.5157 8.34997 15.6409 8.10004 14.7452 8.07272C13.5099 8.08011 12.3104 8.48845 11.3272 9.23631V8.36362C11.3055 8.263 11.2507 8.17254 11.1716 8.10664C11.0926 8.04075 10.9937 8.00321 10.8908 8H9.36362C9.2692 8.00615 9.18025 8.04644 9.11335 8.11334C9.04644 8.18025 9.00615 8.2692 9 8.36362V15.0543C9.00615 15.1487 9.04644 15.2376 9.11335 15.3045C9.18025 15.3714 9.2692 15.4117 9.36362 15.4179H10.8908C10.9394 15.4209 10.988 15.4135 11.0334 15.3963C11.0789 15.379 11.1202 15.3524 11.1546 15.318C11.1889 15.2836 11.2156 15.2423 11.2328 15.1969C11.2501 15.1514 11.2574 15.1028 11.2545 15.0543V13.6725C11.2545 12.9453 11.6181 12.6544 12.418 12.6544C12.7453 12.6571 13.0681 12.7316 13.3635 12.8725C14.3054 13.1647 15.2863 13.3119 16.2724 13.3089C16.9063 13.3357 17.541 13.2869 18.1633 13.1634C17.5815 14.0361 16.4906 15.4906 15.327 15.9997C13.3635 16.9451 11.3272 19.9268 11.3272 23.6357C11.3333 23.7302 11.3736 23.8191 11.4405 23.886C11.5074 23.9529 11.5964 23.9932 11.6908 23.9994H19.3269C19.3754 24.0023 19.424 23.995 19.4695 23.9777C19.5149 23.9605 19.5562 23.9338 19.5906 23.8995C19.625 23.8651 19.6516 23.8238 19.6689 23.7783C19.6861 23.7329 19.6935 23.6843 19.6905 23.6357C19.6954 23.5962 19.6914 23.5562 19.6788 23.5184C19.6662 23.4807 19.6454 23.4462 19.6178 23.4176C19.1967 22.425 18.9506 21.367 18.8905 20.2904C18.8905 18.6178 22.3086 10.1817 23.3994 9.16359C23.5449 9.09087 23.5449 8.94542 23.3994 8.79997Z" fill="white"/>
<defs>
<linearGradient id="paint0_linear_31089_110973" x1="0" y1="0" x2="32" y2="-9.1269e-08" gradientUnits="userSpaceOnUse">
<stop stop-color="#700036"/>
<stop offset="1" stop-color="#DB0010"/>
</linearGradient>
</defs>
</svg>
