<svg width="32" height="32" viewBox="0 0 32 32" fill="none" xmlns="http://www.w3.org/2000/svg">
<rect width="32" height="32" rx="10" fill="url(#paint0_linear_19470_3877)"/>
<path fill-rule="evenodd" clip-rule="evenodd" d="M17.6532 8.71771C16.7588 7.76076 15.2412 7.76076 14.3468 8.71771L14.1043 8.97727C13.6582 9.45455 13.0276 9.71575 12.3747 9.69369L12.0196 9.68169C10.7105 9.63745 9.63745 10.7105 9.68169 12.0196L9.69369 12.3747C9.71575 13.0276 9.45455 13.6582 8.97727 14.1043L8.71771 14.3468C7.76076 15.2412 7.76076 16.7588 8.71771 17.6532L8.97727 17.8957C9.45455 18.3418 9.71575 18.9724 9.69369 19.6253L9.68169 19.9804C9.63745 21.2895 10.7105 22.3626 12.0196 22.3183L12.3747 22.3063C13.0276 22.2842 13.6582 22.5454 14.1043 23.0227L14.3468 23.2823C15.2412 24.2392 16.7588 24.2392 17.6532 23.2823L17.8957 23.0227C18.3418 22.5454 18.9724 22.2842 19.6253 22.3063L19.9804 22.3183C21.2895 22.3626 22.3626 21.2895 22.3183 19.9804L22.3063 19.6253C22.2842 18.9724 22.5454 18.3418 23.0227 17.8957L23.2823 17.6532C24.2392 16.7588 24.2392 15.2412 23.2823 14.3468L23.0227 14.1043C22.5454 13.6582 22.2842 13.0276 22.3063 12.3747L22.3183 12.0196C22.3626 10.7105 21.2895 9.63745 19.9804 9.68169L19.6253 9.69369C18.9724 9.71575 18.3418 9.45455 17.8957 8.97727L17.6532 8.71771ZM18.9779 17.8147C19.0002 17.8618 19.0362 17.8788 19.0857 17.8655L19.9512 17.6336C20.0008 17.6203 20.0212 17.5883 20.0124 17.5375L19.6903 15.1453C19.6867 15.1318 19.6894 15.1238 19.6984 15.1214C19.7119 15.1178 19.7227 15.1221 19.7309 15.1344L20.6886 17.3563C20.7064 17.4047 20.7423 17.4216 20.7964 17.4071L21.6619 17.1752C21.716 17.1607 21.7386 17.1281 21.7298 17.0773L21.3773 12.2728C21.3706 12.2118 21.338 12.1891 21.2794 12.2048L20.3057 12.4657C20.2562 12.479 20.2358 12.511 20.2445 12.5618L20.5634 14.8606C20.567 14.8742 20.5643 14.8821 20.5553 14.8846C20.5463 14.887 20.5377 14.882 20.5296 14.8697L19.5954 12.7358C19.5776 12.6874 19.5417 12.6704 19.4876 12.6849L18.6965 12.8969C18.6424 12.9114 18.6198 12.9441 18.6285 12.9948L18.9203 15.3009C18.9195 15.3156 18.9145 15.3242 18.9055 15.3266C18.8965 15.329 18.8879 15.3241 18.8798 15.3118L17.9794 13.1688C17.9617 13.1204 17.9257 13.1035 17.8716 13.1179L16.8777 13.3843C16.8281 13.3976 16.8087 13.4245 16.8196 13.4651L16.8336 13.4903L18.9779 17.8147ZM16.4343 14.4452C16.4403 14.4677 16.4368 14.4904 16.4236 14.5133C16.4137 14.5304 16.3975 14.542 16.3749 14.5481L15.0159 14.9122C14.9933 14.9182 14.9851 14.9325 14.9911 14.9551L15.2194 15.807C15.2254 15.8296 15.2397 15.8378 15.2622 15.8318L16.006 15.6325C16.0286 15.6264 16.049 15.6306 16.0674 15.645C16.089 15.6537 16.1029 15.6693 16.1089 15.6919L16.3245 16.4965C16.3305 16.519 16.3269 16.5417 16.3137 16.5646C16.3038 16.5817 16.2876 16.5933 16.2651 16.5994L15.5213 16.7987C15.4988 16.8047 15.4905 16.819 15.4966 16.8415L15.7267 17.7002C15.7327 17.7228 15.747 17.731 15.7695 17.725L17.1286 17.3608C17.1511 17.3548 17.1716 17.359 17.1899 17.3734C17.2116 17.3821 17.2254 17.3977 17.2315 17.4202L17.4453 18.2181C17.4513 18.2406 17.4477 18.2633 17.4345 18.2862C17.4246 18.3033 17.4084 18.3149 17.3859 18.321L14.9517 18.9732C14.9292 18.9792 14.9071 18.9779 14.8854 18.9692C14.8671 18.9548 14.8549 18.9363 14.8488 18.9138L13.6241 14.343C13.6181 14.3205 13.62 14.3006 13.6299 14.2835C13.6431 14.2606 13.661 14.2462 13.6835 14.2401L16.1176 13.5879C16.1402 13.5819 16.1606 13.5861 16.179 13.6005C16.2006 13.6092 16.2145 13.6248 16.2205 13.6473L16.4343 14.4452ZM11.7007 14.8584C11.6947 14.8359 11.6966 14.816 11.7065 14.7989C11.7197 14.776 11.7376 14.7616 11.7601 14.7555L12.7067 14.5019C12.7293 14.4958 12.7497 14.5 12.7681 14.5144C12.7897 14.5231 12.8036 14.5387 12.8096 14.5613L14.0344 19.132C14.0404 19.1546 14.0368 19.1773 14.0236 19.2001C14.0137 19.2173 13.9975 19.2289 13.975 19.2349L12.8999 19.523C12.8503 19.5363 12.8127 19.5222 12.7871 19.4807L11.4872 17.3071C11.4791 17.2948 11.4683 17.2904 11.4548 17.2941C11.4445 17.292 11.4418 17.2999 11.4467 17.318L12.087 19.6538C12.0931 19.6763 12.0895 19.699 12.0763 19.7219C12.0664 19.7391 12.0502 19.7506 12.0276 19.7567L11.081 20.0103C11.0585 20.0164 11.0364 20.015 11.0148 20.0063C10.9964 19.9919 10.9842 19.9735 10.9782 19.9509L9.75343 15.3802C9.74739 15.3576 9.74932 15.3378 9.75922 15.3206C9.77242 15.2978 9.79029 15.2833 9.81283 15.2773L10.8744 14.9928C10.924 14.9796 10.9616 14.9936 10.9872 15.0351L12.2974 17.2204C12.3055 17.2328 12.3141 17.2377 12.3231 17.2353C12.3367 17.2317 12.341 17.2208 12.3362 17.2028L11.7007 14.8584Z" fill="white"/>
<defs>
<linearGradient id="paint0_linear_19470_3877" x1="0" y1="32" x2="32" y2="0" gradientUnits="userSpaceOnUse">
<stop stop-color="#6E0000"/>
<stop offset="1" stop-color="#DB0010"/>
</linearGradient>
</defs>
</svg>
