<svg width="44" height="18" viewBox="0 0 44 18" fill="none" xmlns="http://www.w3.org/2000/svg">
<g clip-path="url(#clip0_9186_15966)">
<path d="M19.3242 7.9064V0.775403H22.9112V16.9254C21.7212 16.9254 20.5352 16.9394 19.3502 16.9054C19.2232 16.9014 19.0462 16.6374 18.9902 16.4634C18.3072 14.3084 17.6432 12.1484 16.9712 9.9904C16.9533 9.92921 16.923 9.87235 16.8823 9.82333C16.8415 9.7743 16.7911 9.73417 16.7342 9.7054V16.8884H13.1172V0.731403C14.2572 0.731403 15.3602 0.713403 16.4622 0.752403C16.6072 0.757403 16.8062 1.0294 16.8702 1.2154C17.6152 3.3474 18.3382 5.4854 19.0682 7.6224C19.1022 7.7224 19.1502 7.8164 19.1912 7.9124L19.3242 7.9064ZM33.6002 0.719403C34.7252 0.719403 35.8102 0.698403 36.8912 0.741403C37.0542 0.748403 37.2792 1.0344 37.3492 1.2334C38.0632 3.2684 38.7492 5.3114 39.4452 7.3524C39.5102 7.5424 39.5892 7.7264 39.7852 7.8904V0.771403H43.3632V16.9314C42.1762 16.9314 41.0082 16.9484 39.8422 16.9094C39.7022 16.9044 39.5072 16.6184 39.4462 16.4294C38.7842 14.3754 38.1432 12.3154 37.4962 10.2574C37.4362 10.0634 37.3692 9.8714 37.1762 9.6924V16.9064H33.6002V0.719403ZM0.450206 8.8434C0.450206 7.2644 0.342206 5.6764 0.478206 4.1094C0.650206 2.1484 1.78921 1.0094 3.76021 0.559403C5.44321 0.177403 7.09321 0.262403 8.61221 1.1434C9.70821 1.7784 10.3992 2.7704 10.4222 4.0144C10.4822 7.2354 10.5002 10.4594 10.4142 13.6784C10.3752 15.1314 9.48021 16.1984 8.12421 16.7734C6.34421 17.5274 4.51221 17.5184 2.73821 16.7614C1.04021 16.0364 0.423206 14.5994 0.385206 12.8814C0.355206 11.5344 0.379206 10.1894 0.379206 8.8434H0.451206H0.450206ZM4.70621 8.9024H4.71421V13.5094C4.71521 13.6794 4.66821 13.8944 4.75421 14.0114C4.92421 14.2444 5.16021 14.5694 5.38821 14.5844C5.61121 14.5994 5.94121 14.3204 6.06821 14.0874C6.20221 13.8474 6.17221 13.5074 6.17421 13.2114C6.18721 10.4164 6.19421 7.6224 6.19621 4.8284C6.19621 4.4234 6.22021 4.0004 6.10921 3.6214C6.04221 3.3954 5.74721 3.1054 5.53021 3.0834C5.31021 3.0624 4.99221 3.2874 4.84221 3.4934C4.70821 3.6764 4.71321 3.9794 4.71221 4.2304C4.70221 5.7874 4.70621 7.3444 4.70621 8.9024ZM30.9042 0.749403C30.9042 5.4234 30.9422 10.0384 30.8802 14.6524C30.8622 16.0274 30.0912 16.7284 28.5762 16.8784C27.3962 16.9954 26.1942 16.9014 24.9512 16.9014V14.3094C24.9972 14.2794 25.0312 14.2374 25.0662 14.2354C26.3862 14.1544 26.6122 13.9244 26.6142 12.5914C26.6182 8.9134 26.6162 5.2354 26.6162 1.5564V0.749403H30.9042Z" fill="#98A2B3"/>
</g>
<defs>
<clipPath id="clip0_9186_15966">
<rect width="43" height="17" fill="white" transform="translate(0.367188 0.339844)"/>
</clipPath>
</defs>
</svg>
