<svg width="57" height="37" viewBox="0 0 57 37" fill="none" xmlns="http://www.w3.org/2000/svg">
<rect x="0.94043" y="0.339844" width="55.8806" height="36" rx="8" fill="white"/>
<path fill-rule="evenodd" clip-rule="evenodd" d="M20.1688 13.8594C20.1626 13.6653 20.0698 13.5651 19.8893 13.5586H18.9267C18.6985 13.5722 18.5812 13.6955 18.5753 13.9272V15.6345C18.5812 15.8738 18.7111 15.9957 18.9645 16.0027H19.8465C19.9383 16.0027 20.0145 15.9691 20.0753 15.9006C20.1387 15.8493 20.1688 15.7832 20.1688 15.7013V13.8594ZM17.3394 13.617C17.3456 13.1899 17.4421 12.8652 17.6294 12.6432C17.7273 12.5504 17.8503 12.4725 17.9995 12.4082C18.1544 12.3397 18.3046 12.3066 18.4505 12.3066H20.2178C20.9973 12.3132 21.3936 12.7334 21.4063 13.5684V16.138C21.4003 16.4344 21.2828 16.6916 21.0548 16.9068C20.8297 17.1327 20.5603 17.2479 20.2469 17.2548H18.5755V19.1074H17.3394V13.617Z" fill="#3115F9"/>
<path fill-rule="evenodd" clip-rule="evenodd" d="M23.638 15.7548C23.638 15.8263 23.6713 15.8829 23.737 15.9252C23.795 15.9762 23.8684 16.0027 23.9611 16.0027H24.9108C25.1257 16.0027 25.2369 15.9207 25.2431 15.7548V15.4053C25.2431 15.2146 25.1297 15.1183 24.9017 15.1183H23.9611C23.8375 15.1183 23.752 15.1384 23.7043 15.1768C23.6603 15.222 23.638 15.3114 23.638 15.4439V15.7548ZM25.2429 13.8293C25.2491 13.642 25.1387 13.5524 24.9103 13.5586H22.4202V12.3066H25.224C26.0405 12.3196 26.455 12.7088 26.4689 13.4764V16.0954C26.462 16.4267 26.3592 16.6997 26.1596 16.9169C25.9507 17.1418 25.6816 17.2548 25.3518 17.2548H23.657C22.8322 17.2479 22.4141 16.8769 22.4014 16.1389V15.1284C22.4077 14.3571 22.8074 13.9654 23.5984 13.9518H25.2429V13.8293Z" fill="#3115F9"/>
<path fill-rule="evenodd" clip-rule="evenodd" d="M29.9406 17.8553C30.0387 17.8494 30.1232 17.8146 30.1923 17.7524C30.2586 17.6944 30.2918 17.6276 30.2918 17.5521V17.2548H28.709C28.5023 17.2548 28.3373 17.2289 28.2142 17.1773C28.0843 17.1302 27.9544 17.0425 27.8242 16.9181C27.7005 16.7862 27.6116 16.6481 27.5578 16.504C27.5012 16.3722 27.4727 16.2044 27.4727 16.0027V12.3066H28.709V15.606C28.709 15.8706 28.8186 16.0027 29.0404 16.0027H29.913C30.0168 16.0027 30.107 15.9691 30.1824 15.9006C30.2556 15.8428 30.2918 15.774 30.2918 15.693V12.3066H31.5178V17.7593C31.511 18.1627 31.4058 18.4858 31.2036 18.7308C30.9978 18.9759 30.7169 19.1011 30.3586 19.1074H27.4727V17.8553H29.9406Z" fill="#3115F9"/>
<path fill-rule="evenodd" clip-rule="evenodd" d="M32.4893 16.0027H34.6923C34.894 15.9957 34.9985 15.9162 35.0048 15.7637V15.6511C35.0048 15.6186 34.9949 15.5825 34.9757 15.5435C34.9264 15.449 34.8659 15.402 34.7941 15.402H33.7019C33.3777 15.3959 33.1011 15.2857 32.8686 15.0732C32.6337 14.8771 32.513 14.6357 32.5062 14.3522V13.4187C32.519 12.6903 32.9204 12.3196 33.711 12.3066H36.266V13.5586H34.1015C33.8473 13.5586 33.7195 13.6354 33.7195 13.7884V13.9097C33.7195 14.0686 33.8503 14.1481 34.1109 14.1481H35.1997C35.49 14.1547 35.7371 14.2642 35.9433 14.4777C36.1515 14.6927 36.2595 14.9486 36.266 15.2456V16.159C36.2595 16.4155 36.1391 16.6715 35.9074 16.9269C35.7945 17.0522 35.679 17.1385 35.5635 17.1872C35.4438 17.232 35.2816 17.2548 35.0739 17.2548H32.4893V16.0027Z" fill="#3115F9"/>
<path fill-rule="evenodd" clip-rule="evenodd" d="M38.3813 15.7548C38.3813 15.8263 38.4145 15.8829 38.4814 15.9251C38.5389 15.9762 38.6126 16.0027 38.7042 16.0027H39.6555C39.8704 16.0027 39.9812 15.9207 39.9876 15.7548V15.4052C39.9876 15.2146 39.8728 15.1183 39.6454 15.1183H38.7042C38.5808 15.1183 38.4957 15.1384 38.4483 15.1768C38.4044 15.222 38.3813 15.3114 38.3813 15.4438V15.7548ZM39.9879 13.8293C39.9931 13.642 39.8827 13.5524 39.6542 13.5586H37.1646V12.3066H39.9687C40.7847 12.3196 41.1993 12.7088 41.2122 13.4764V16.0954C41.2056 16.4267 41.1019 16.6997 40.9034 16.9169C40.6958 17.1418 40.4265 17.2548 40.0962 17.2548H38.4004C37.5762 17.2479 37.1575 16.8769 37.146 16.1389V15.1284C37.1514 14.3571 37.5507 13.9654 38.3427 13.9518H39.9879V13.8293Z" fill="#3115F9"/>
<path fill-rule="evenodd" clip-rule="evenodd" d="M42.2173 11.5965C42.2249 11.2585 42.3513 10.9872 42.599 10.7836C42.8394 10.577 43.1548 10.4707 43.545 10.4648H44.33V11.6743H43.8548C43.5935 11.6802 43.46 11.8036 43.4546 12.0415V12.3067H44.33V13.5598H43.4546V17.2551H42.2173V11.5965Z" fill="#3115F9"/>
<path fill-rule="evenodd" clip-rule="evenodd" d="M47.8464 13.8059V13.7767C47.8464 13.7123 47.82 13.6577 47.7666 13.617C47.709 13.5776 47.6385 13.5586 47.5539 13.5586H46.6935C46.583 13.5586 46.494 13.589 46.425 13.6514C46.3395 13.7091 46.2959 13.7852 46.2959 13.8788V14.3815L47.8464 13.8059ZM46.3155 15.5756V15.6535C46.3155 15.7538 46.3419 15.8335 46.3956 15.8912C46.4345 15.9651 46.4868 16.0027 46.5564 16.0027H49.0962V17.2548H46.3956C46.1492 17.2548 45.9575 17.232 45.8216 17.1865C45.6733 17.1385 45.5401 17.0597 45.4239 16.9505C45.2879 16.8178 45.1954 16.683 45.1488 16.5441C45.0978 16.3995 45.0725 16.2073 45.0725 15.968L45.062 13.4622C45.0758 12.7049 45.477 12.3196 46.2654 12.3066H47.9321C48.702 12.3196 49.0921 12.7186 49.1046 13.5047V14.4947L46.3155 15.5756Z" fill="#3115F9"/>
<path fill-rule="evenodd" clip-rule="evenodd" d="M18.7957 26.1445C18.6085 26.1445 18.4376 26.1277 18.2827 26.0965C18.1202 26.0705 17.9583 25.9961 17.7928 25.871C17.6231 25.7252 17.5059 25.562 17.4416 25.3814C17.3736 25.2041 17.3407 25.0032 17.3407 24.777V22.4405C17.3339 22.25 17.3533 22.0826 17.3984 21.9378C17.4401 21.7926 17.5274 21.6511 17.6594 21.5122C17.8099 21.3664 17.9633 21.2695 18.1257 21.222C18.2815 21.1834 18.4573 21.1641 18.6543 21.1641H20.549V21.4567H18.6982C18.3715 21.4567 18.1146 21.5229 17.9267 21.6554C17.7345 21.8001 17.6368 22.0492 17.6368 22.4004V24.7384C17.6368 24.9029 17.6621 25.0628 17.7129 25.2172C17.7648 25.3691 17.851 25.5022 17.9754 25.6184C18.1099 25.7193 18.2443 25.7821 18.375 25.8078C18.5115 25.8374 18.6575 25.8514 18.8127 25.8514H20.5789V26.1445H18.7957Z" fill="#3115F9"/>
<path fill-rule="evenodd" clip-rule="evenodd" d="M25.4223 23.1131H22.938C22.6403 23.1199 22.4077 23.2106 22.2396 23.3852C22.066 23.5623 21.9801 23.8058 21.9801 24.1146V24.8604C21.9801 25.005 21.9954 25.1372 22.0269 25.2563C22.0581 25.3814 22.1361 25.4933 22.2593 25.5895C22.474 25.7648 22.7117 25.8514 22.9713 25.8514H24.4765C25.1054 25.845 25.4223 25.5182 25.4223 24.8697V23.1131ZM25.7171 24.7968C25.7171 24.9848 25.7025 25.1501 25.678 25.2952C25.6379 25.4534 25.5556 25.6056 25.4309 25.7503C25.1715 26.0199 24.8496 26.1514 24.466 26.1445H22.9887C22.6052 26.1445 22.2939 26.0316 22.0529 25.8066C21.8068 25.5843 21.6821 25.2753 21.6821 24.8789V24.1259C21.6946 23.2758 22.1241 22.8408 22.9702 22.8209H25.4309V22.4911C25.4309 22.2198 25.3512 21.9818 25.1924 21.7772C25.0917 21.6443 24.9725 21.5557 24.8372 21.5097C24.7003 21.4746 24.5468 21.4567 24.3754 21.4567H21.6911V21.1641H24.236C24.4686 21.1641 24.6791 21.1801 24.8693 21.2119C24.9675 21.2311 25.0565 21.2687 25.139 21.323C25.2258 21.3749 25.3071 21.4505 25.3825 21.5498C25.6107 21.84 25.722 22.1746 25.7171 22.5518V24.7968Z" fill="#3115F9"/>
<path fill-rule="evenodd" clip-rule="evenodd" d="M28.4957 21.4567C27.8065 21.4695 27.4671 21.84 27.48 22.5695V26.1445H27.1839V22.5707C27.1701 21.6324 27.6231 21.1641 28.5432 21.1641H28.8722V21.4567H28.4957Z" fill="#3115F9"/>
<path fill-rule="evenodd" clip-rule="evenodd" d="M33.4988 21.4586H31.1573C30.9887 21.4586 30.8374 21.4773 30.7012 21.5125C30.5585 21.5442 30.4209 21.6295 30.2919 21.7683C30.1684 21.8948 30.0908 22.0201 30.0579 22.1455C30.0146 22.272 29.9951 22.4236 30.0021 22.6005V24.88C30.0021 25.259 30.1135 25.5168 30.3392 25.6554C30.4506 25.7196 30.5728 25.7676 30.7101 25.8C30.8468 25.8358 30.9989 25.8536 31.167 25.8536H32.1905C32.5728 25.8536 32.8857 25.7669 33.126 25.5917C33.3678 25.4276 33.4907 25.1442 33.4988 24.7406V21.4586ZM33.7948 24.7607C33.7684 25.7041 33.2619 26.1665 32.2753 26.1469H31.1776C30.9458 26.1469 30.7383 26.127 30.5552 26.0889C30.3666 26.0409 30.1859 25.9274 30.0121 25.7506C29.8814 25.5918 29.7973 25.4313 29.7636 25.2666C29.7184 25.1026 29.6985 24.9198 29.7055 24.7202V22.5931C29.7184 21.6349 30.2079 21.1586 31.1753 21.1659H33.4989V19.5508H33.7948V24.7607Z" fill="#3115F9"/>
<path fill-rule="evenodd" clip-rule="evenodd" d="M10.4712 13.005C10.5682 12.9628 10.6653 12.9299 10.7623 12.9092C10.9408 12.0695 11.6954 11.4393 12.6002 11.4393C13.5053 11.4393 14.2604 12.0703 14.4385 12.9101C14.7164 12.9618 14.9462 13.0728 15.1252 13.2375C15.1324 13.0763 15.1259 12.9209 15.1066 12.7747C14.9918 11.5057 13.9124 10.5098 12.5964 10.5098C11.2413 10.5098 10.1382 11.5685 10.0809 12.8919C10.073 13.0062 10.0706 13.1251 10.0748 13.2497C10.1885 13.1551 10.3183 13.0702 10.4712 13.005Z" fill="#3115F9"/>
<path fill-rule="evenodd" clip-rule="evenodd" d="M11.0518 13.1934C10.9063 13.1934 10.7559 13.2264 10.6008 13.2949C10.4514 13.3592 10.3285 13.4371 10.2304 13.5299C10.0429 13.7519 9.94703 14.0766 9.94043 14.5037V16.8304C9.94703 17.2586 10.0429 17.5827 10.2304 17.8036C10.3285 17.8981 10.4514 17.9758 10.6008 18.0406C10.7559 18.1078 10.9063 18.1415 11.0518 18.1415H14.0712C14.851 18.1346 15.2478 17.713 15.2603 16.8793V14.4551C15.2478 13.6201 14.851 13.1999 14.0712 13.1934H11.0518Z" fill="#3115F9"/>
</svg>
