<?xml version="1.0" encoding="utf-8"?>
<!-- Generator: Adobe Illustrator 26.1.0, SVG Export Plug-In . SVG Version: 6.00 Build 0)  -->
<svg version="1.1" id="Layer_1" xmlns="http://www.w3.org/2000/svg" xmlns:xlink="http://www.w3.org/1999/xlink" x="0px" y="0px"
	 viewBox="0 0 120 50" style="enable-background:new 0 0 120 50;" xml:space="preserve">
<style type="text/css">
	.st0{display:none;}
	.st1{display:inline;fill-rule:evenodd;clip-rule:evenodd;fill:#FFFFFF;}
	.st2{display:inline;fill-rule:evenodd;clip-rule:evenodd;fill:#4A5863;}
	.st3{display:inline;}
	.st4{fill:#FFFFFF;}
	.st5{display:inline;fill:#9FCD67;}
	.st6{display:inline;fill:#FFFFFF;}
	.st7{fill-rule:evenodd;clip-rule:evenodd;fill:#252525;}
	.st8{fill:#FF002A;}
</style>
<g class="st0">
	<path class="st1" d="M110,10.3h-4.2V29h-2.2V10.3h-4.2V8.4H110V10.3z M97,10.3h-7.2v7h5.3v1.9h-5.3v7.9h7.6V29h-9.8V8.4H97V10.3z
		 M80.6,11c-0.6-0.5-1.5-0.7-2.8-0.7h-2.2v7h1.3c1.6,0,2.8-0.3,3.5-0.9c0.8-0.6,1.1-1.5,1.1-2.9C81.4,12.3,81.1,11.5,80.6,11z
		 M78.8,8.4c1.5,0,2.7,0.5,3.6,1.4c0.8,0.9,1.3,2.2,1.3,3.7c0,1.1-0.2,2-0.7,2.8c-0.5,0.8-1.3,1.4-2.4,1.8v0.1
		c1.2,0.3,2.2,1,2.7,1.9c0.6,0.9,0.9,2,0.9,3.3c0,1.9-0.5,3.4-1.6,4.3c-1.1,1-2.8,1.4-5,1.4h-4.2V8.4H78.8z M77.8,19.2h-2.2v8h2.2
		c1.3,0,2.4-0.3,3.1-0.9s1-1.6,1-2.9c0-1.4-0.3-2.4-1-3.1C80.2,19.5,79.2,19.2,77.8,19.2z M12.3,10.3c-0.4,0.3-0.5,0.8-0.5,1.3
		c0,0.6,0.2,1,0.5,1.3c0.4,0.3,0.8,0.5,1.3,0.5s0.9-0.2,1.3-0.5c0.4-0.3,0.5-0.8,0.5-1.3c0-0.6-0.2-1-0.5-1.3
		C14.4,10,14,9.9,13.5,9.9S12.6,10,12.3,10.3z M13.5,8.1c0.9,0,1.7,0.3,2.4,0.9c0.3,0.2,0.5,0.5,0.7,1c0.2,0.4,0.3,1,0.4,1.6
		c0,0.7-0.1,1.2-0.4,1.6s-0.5,0.7-0.8,1c-0.7,0.6-1.5,0.9-2.4,0.9c-0.9,0-1.7-0.3-2.4-0.9c-0.3-0.2-0.5-0.5-0.7-1
		c-0.2-0.4-0.4-1-0.4-1.6c0-0.7,0.1-1.2,0.4-1.6c0.2-0.4,0.5-0.7,0.8-1C11.8,8.4,12.6,8.1,13.5,8.1z M14.6,16.8v12.3h-2.2V16.8l0,0
		c0.3,0.1,0.7,0.2,1.1,0.2C13.9,16.9,14.2,16.9,14.6,16.8z"/>
	<path class="st2" d="M70.9,10.3h-4.2V29h-2.2V10.3h-4.2V8.4H71v1.9H70.9z M57.5,10.3h-6.6v7h5v1.9h-5V29h-2.2V8.4h8.9L57.5,10.3
		L57.5,10.3z M63,36.2C63,36.2,63.1,36.2,63,36.2c0.1,0.1,0.1,0.2,0.2,0.2c0,0,0,0,0,0.1l-2,3.1v2.1c0,0.2-0.1,0.3-0.3,0.3h-0.1
		c-0.2,0-0.2-0.1-0.2-0.3v-2.1l-2-3.1c0,0,0,0,0-0.1c0,0,0-0.1,0.1-0.1l0.1-0.1c0,0,0.1,0,0.2,0c0.1,0,0.2,0.1,0.3,0.2l1.6,2.6
		l1.6-2.6c0.1-0.1,0.2-0.2,0.3-0.2C62.9,36.2,62.9,36.2,63,36.2z M71.1,37.9c0,0.6-0.2,1-0.5,1.3c-0.4,0.3-0.9,0.4-1.6,0.4h-1.1v1.9
		c0,0.1,0,0.1-0.1,0.2c0,0-0.1,0.1-0.2,0.1h-0.1c-0.2,0-0.3-0.1-0.3-0.3v-5c0-0.1,0-0.2,0.1-0.2c0.1-0.1,0.1-0.1,0.2-0.1H69
		c0.7,0,1.2,0.1,1.5,0.4C70.9,36.9,71.1,37.3,71.1,37.9z M67.8,36.7v2.4H69c0.5,0,0.9-0.1,1.1-0.3s0.4-0.5,0.4-0.9
		c0-0.8-0.5-1.2-1.5-1.2H67.8z M54,36.2c0.2,0,0.3,0.1,0.3,0.3v4.8H57c0.2,0,0.3,0.1,0.3,0.2v0.1c0,0.2-0.1,0.2-0.3,0.2h-3
		c-0.1,0-0.2,0-0.2-0.1c-0.1-0.1-0.1-0.1-0.1-0.2v-5C53.7,36.2,53.8,36.2,54,36.2L54,36.2z M51.8,37.9c0,0.6-0.2,1-0.5,1.3
		c-0.4,0.3-0.9,0.4-1.6,0.4h-1.1v1.9c0,0.1,0,0.1-0.1,0.2c0,0-0.1,0.1-0.2,0.1h-0.1c-0.2,0-0.3-0.1-0.3-0.3v-5c0-0.1,0-0.2,0.1-0.2
		c0.1-0.1,0.1-0.1,0.2-0.1h1.4c0.7,0,1.2,0.1,1.5,0.4C51.7,36.9,51.8,37.3,51.8,37.9z M51.2,37.9c0-0.8-0.5-1.2-1.5-1.2h-1.2v2.4
		h1.2c0.5,0,0.9-0.1,1.1-0.3C51.1,38.6,51.2,38.3,51.2,37.9z M84.1,36.3L84.1,36.3c0.1-0.1,0.2-0.1,0.3-0.1s0.2,0.1,0.3,0.2l1.6,2.6
		l1.6-2.6c0.1-0.1,0.2-0.2,0.3-0.2c0.1,0,0.1,0,0.2,0c0,0,0.1,0,0.1,0.1c0,0,0,0.1,0.1,0.1c0,0,0,0,0,0.1l-2,3.1v2.1
		c0,0.2-0.1,0.3-0.3,0.3h-0.1C86,42,86,41.9,86,41.7v-2.1l-2-3.1C84,36.4,84,36.4,84.1,36.3C84,36.3,84,36.3,84.1,36.3z M73.2,36.2
		c0.2,0,0.3,0.1,0.3,0.3v4.8h2.7c0.2,0,0.3,0.1,0.3,0.2v0.1c0,0.2-0.1,0.2-0.3,0.2h-3c-0.1,0-0.2,0-0.2-0.1
		c-0.1-0.1-0.1-0.1-0.1-0.2v-5C72.9,36.2,73,36.2,73.2,36.2L73.2,36.2z M80.7,36.4l2,5.3c0,0,0,0.1-0.1,0.1s-0.2,0.1-0.2,0.1
		c-0.1,0-0.1,0-0.2,0s-0.1-0.1-0.2-0.2L81.5,40h-2.4l-0.6,1.6c0,0.1-0.1,0.2-0.2,0.2s-0.1,0-0.2,0s-0.2,0-0.2-0.1
		c-0.1,0-0.1-0.1-0.1-0.1l2-5.3c0-0.1,0.1-0.1,0.1-0.2c0.1,0,0.2-0.1,0.3-0.1c0.1,0,0.2,0,0.3,0.1C80.7,36.2,80.7,36.3,80.7,36.4z
		 M80.3,36.8l-1,2.6h2L80.3,36.8z M41.1,10.7C40.6,10.2,40,10,39.3,10s-1.3,0.2-1.8,0.7s-1,1.4-1.3,2.6c-0.3,1.3-0.5,3.1-0.5,5.4
		s0.2,4.1,0.5,5.4s0.7,2.2,1.3,2.7c0.5,0.5,1.1,0.7,1.8,0.7s1.3-0.2,1.8-0.7s1-1.4,1.3-2.7c0.3-1.3,0.5-3.1,0.5-5.4
		s-0.2-4.1-0.5-5.4C42.1,12.1,41.6,11.2,41.1,10.7z M44.4,12.6c0.5,1.6,0.7,3.6,0.7,6.2c0,2.5-0.3,4.6-0.7,6.2
		c-0.5,1.6-1.2,2.7-2,3.4c-0.9,0.7-1.9,1-3.1,1c-1.2,0-2.2-0.3-3.1-1c-0.9-0.7-1.6-1.9-2-3.4c-0.5-1.6-0.7-3.6-0.7-6.2
		s0.3-4.6,0.7-6.2c0.5-1.6,1.2-2.7,2-3.4c0.9-0.7,1.9-1.1,3.1-1c1.2,0,2.2,0.3,3.1,1C43.2,9.9,43.9,11,44.4,12.6z M30.3,24.1
		c0,1.7-0.5,2.9-1.4,3.9c-0.9,0.9-2.2,1.4-3.9,1.4c-1.1,0-2-0.2-2.8-0.7s-1.4-1.2-1.8-2c-0.4-0.9-0.7-1.9-0.7-3.1h2.1
		c0,1.2,0.3,2.2,0.9,2.9c0.6,0.7,1.4,1,2.5,1.1c0.9,0,1.7-0.3,2.2-0.9s0.8-1.4,0.8-2.5c0-0.9-0.3-1.7-0.9-2.4
		c-0.6-0.7-1.2-1.3-2.1-1.9c-0.8-0.6-1.6-1.1-2.5-1.8c-0.8-0.6-1.5-1.3-2.1-2.1c-0.5-0.8-0.8-1.8-0.9-3c0-1.5,0.5-2.6,1.4-3.5
		s2.1-1.3,3.6-1.3s2.7,0.5,3.6,1.4c0.9,1,1.4,2.4,1.5,4.2H28c-0.1-1.1-0.4-2-0.9-2.7s-1.3-1-2.3-1.1c-0.9,0-1.6,0.3-2.1,0.8
		s-0.8,1.1-0.8,1.9c0,0.9,0.3,1.7,0.9,2.3s1.2,1.2,2.1,1.8c0.8,0.5,1.6,1.1,2.5,1.7c0.8,0.6,1.5,1.4,2.1,2.2
		C30,21.7,30.3,22.8,30.3,24.1z M45.2,36.2L45.2,36.2c0.2,0,0.3,0,0.4,0.1s0.1,0.2,0.1,0.3v5c0,0.2-0.1,0.3-0.2,0.3h-0.1
		c-0.2,0-0.2-0.1-0.2-0.3v-4.7L43.7,40c-0.1,0.1-0.1,0.2-0.2,0.3c-0.1,0.1-0.2,0.1-0.3,0.1s-0.3,0-0.3-0.1c-0.1-0.1-0.1-0.2-0.2-0.3
		l-1.5-3.2v4.7c0,0.2-0.1,0.3-0.2,0.3h-0.1c-0.2,0-0.2-0.1-0.2-0.3v-5c0-0.1,0-0.2,0.1-0.3s0.2-0.1,0.3-0.1h0.1c0.2,0,0.3,0,0.3,0.1
		c0.1,0.1,0.1,0.2,0.2,0.3l1.5,3.3l1.5-3.3c0.1-0.2,0.1-0.3,0.2-0.3S45.1,36.2,45.2,36.2z M34.5,36.2c0.2,0.1,0.4,0.1,0.6,0.2
		c0.2,0.1,0.3,0.2,0.4,0.3c0.1,0.1,0.1,0.2,0.1,0.3s0,0.1-0.1,0.2l-0.1,0.1l-0.1,0.1h-0.1c-0.1-0.2-0.3-0.4-0.6-0.6
		c-0.3-0.2-0.6-0.2-0.9-0.2c-0.4,0-0.7,0.1-1,0.3c-0.2,0.2-0.4,0.4-0.4,0.7c0,0.2,0,0.3,0.1,0.4c0.1,0.1,0.2,0.2,0.3,0.3
		s0.3,0.1,0.5,0.2c0.2,0,0.4,0.1,0.6,0.1c0.2,0,0.5,0.1,0.7,0.2c0.2,0.1,0.4,0.2,0.6,0.3c0.2,0.1,0.3,0.3,0.4,0.5
		c0.1,0.2,0.2,0.4,0.2,0.7c0,0.2,0,0.5-0.1,0.7s-0.2,0.4-0.4,0.5s-0.4,0.2-0.6,0.3c-0.2,0.1-0.5,0.1-0.8,0.1s-0.6,0-0.8-0.1
		c-0.3-0.1-0.5-0.2-0.7-0.3s-0.3-0.2-0.4-0.4c-0.1-0.1-0.2-0.2-0.2-0.3s0-0.1,0.1-0.2l0.1-0.1l0.1-0.1h0.1c0.2,0.2,0.4,0.5,0.7,0.7
		s0.6,0.3,1,0.3s0.8-0.1,1-0.3s0.4-0.4,0.4-0.8c0-0.2,0-0.3-0.1-0.5c-0.1-0.1-0.2-0.2-0.3-0.3s-0.3-0.2-0.5-0.2s-0.4-0.1-0.6-0.1
		c-0.2-0.1-0.4-0.1-0.6-0.2c-0.2-0.1-0.4-0.2-0.5-0.3c-0.2-0.1-0.3-0.3-0.4-0.4c-0.1-0.2-0.2-0.4-0.2-0.7c0-0.2,0-0.4,0.1-0.6
		c0.1-0.2,0.2-0.3,0.4-0.5c0.2-0.1,0.4-0.2,0.6-0.3c0.2-0.1,0.5-0.1,0.7-0.1C34.1,36.1,34.3,36.1,34.5,36.2z M38.3,36.4v5.1
		c0,0.2-0.1,0.3-0.3,0.3l0,0c-0.2,0-0.2-0.1-0.2-0.3v-5.1c0-0.2,0.1-0.3,0.2-0.3h0.1C38.3,36.2,38.3,36.2,38.3,36.4z"/>
</g>
<g class="st0">
	<g class="st3">
		<polygon class="st4" points="61.3,7.3 61.3,42.7 62.3,42.7 62.3,35.9 75.2,35.9 75.2,31.8 65.3,31.8 65.3,27 73.7,27 73.7,22.9 
			65.3,22.9 65.3,18.3 75.2,18.3 75.2,14.1 62.3,14.1 62.3,7.3 		"/>
	</g>
	<g class="st3">
		<polygon class="st4" points="22.3,14.1 22.3,27.5 18.6,21.5 13.9,14.2 13.9,14.1 10,14.1 10,35.9 14.3,35.9 14.3,22.5 17.5,27.7 
			22.7,35.9 26.6,35.9 26.6,14.1 		"/>
	</g>
	<g class="st3">
		<polygon class="st4" points="29,35.9 43.3,35.9 43.3,31.8 33.4,31.8 33.4,27 41.8,27 41.8,22.9 33.4,22.9 33.4,18.3 43.3,18.3 
			43.3,14.1 29,14.1 		"/>
	</g>
	<g class="st3">
		<polygon class="st4" points="45,18.3 50,18.3 50,35.9 54.3,35.9 54.3,18.3 59.3,18.3 59.3,14.1 45,14.1 		"/>
	</g>
	<g class="st3">
		<polygon class="st4" points="89.6,27.5 86,21.6 81.3,14.2 81.2,14.1 77.4,14.1 77.4,35.9 81.7,35.9 81.7,22.5 84.9,27.8 90,35.9 
			94,35.9 94,14.1 89.6,14.1 		"/>
	</g>
	<g class="st3">
		<polygon class="st4" points="95.7,14.1 95.7,18.3 100.7,18.3 100.7,35.9 105.1,35.9 105.1,18.3 110,18.3 110,14.1 		"/>
	</g>
</g>
<g class="st0">
	<g class="st3">
		<path class="st4" d="M20.2,39c-1.6,0-2.8-1.3-2.8-2.8s1.3-2.8,2.8-2.8c1.6,0,2.8,1.3,2.8,2.8S21.7,39,20.2,39z"/>
	</g>
	<g class="st3">
		<path class="st4" d="M47.4,36.2c0-1.5,1.3-2.8,2.8-2.8c1.6,0,2.8,1.2,2.8,2.8c0,1.5-1.3,2.8-2.8,2.8C48.6,39,47.4,37.8,47.4,36.2z
			"/>
	</g>
	<g class="st3">
		<path class="st4" d="M42.7,39c-1.5,0-2.8-1.3-2.8-2.8s1.3-2.8,2.8-2.8c1.6,0,2.8,1.3,2.8,2.8C45.5,37.8,44.2,39,42.7,39z"/>
	</g>
	<path class="st5" d="M32.4,36.2c0-1.5,1.3-2.8,2.8-2.8c1.6,0,2.8,1.2,2.8,2.8c0,1.5-1.3,2.8-2.8,2.8C33.6,39,32.4,37.7,32.4,36.2z"
		/>
	<g class="st3">
		<path class="st4" d="M27.7,39c-1.6,0-2.8-1.3-2.8-2.8s1.3-2.8,2.8-2.8s2.7,1.2,2.7,2.8C30.4,37.8,29.2,39,27.7,39z"/>
	</g>
	<g class="st3">
		<path class="st4" d="M15.5,36.2c0,1.6-1.2,2.8-2.7,2.8S10,37.7,10,36.2s1.3-2.8,2.8-2.8C14.4,33.4,15.5,34.6,15.5,36.2z"/>
	</g>
	<g class="st3">
		<g>
			<g>
				<path class="st4" d="M78.2,32.5c0,1.2,0,2.4,0,3.5c0,3.3-2.5,5.8-5.8,5.9c-1.5,0-2.9-0.2-4.2-1.2c-1.4-1-2-2.4-2.1-4.1
					c-0.2-2.7,0-5.5-0.1-8.2c0-0.3,0.1-0.4,0.4-0.4c0.9,0,1.8,0,2.6,0c0.4,0,0.4,0.1,0.4,0.5c0,2.4,0,4.8,0,7.2c0,0.3,0,0.5,0.1,0.8
					c0.2,1.3,1.1,2.1,2.4,2.1s2.4-0.9,2.6-2.1c0-0.3,0.1-0.6,0.1-0.9c0-2.3,0-4.7,0-7c0-0.4,0.1-0.5,0.5-0.5c0.8,0,1.7,0,2.5,0
					c0.4,0,0.5,0.1,0.5,0.5C78.1,29.8,78.2,31.1,78.2,32.5z"/>
			</g>
			<g>
				<path class="st4" d="M61.1,33.9c0,0.8,0,1.5,0,2.3c0,1.4,0.8,2.1,2.1,2.1c0.4,0,0.5,0.1,0.5,0.5c0,0.7,0,1.5,0,2.2
					c0,0.5-0.2,0.5-0.6,0.5c-2.9,0.1-5-1.4-5.5-4.5c-0.1-0.4-0.1-0.8-0.1-1.2c0-3.6,0-7.3,0-10.9c0-0.4,0.1-0.6,0.5-0.5
					c0.8,0,1.7,0,2.5,0c0.3,0,0.5,0.1,0.5,0.5c0,0.9,0,1.7,0,2.6c0,0.3,0.1,0.5,0.4,0.4c0.5,0,1.1,0,1.6,0c0.3,0,0.4,0.1,0.4,0.4
					c0,0.8,0,1.5,0,2.3c0,0.3-0.1,0.4-0.4,0.4c-0.5,0-1.1,0-1.6,0c-0.3,0-0.4,0.1-0.4,0.4C61.1,32.3,61.1,33.1,61.1,33.9L61.1,33.9z
					"/>
			</g>
			<g>
				<path class="st4" d="M94.8,34.5c-0.1-2.4-1.1-4.3-3-5.7c-2.2-1.6-5.4-1.4-7.1,0.2c-0.1,0.1-0.1,0.2-0.2,0.1s-0.1-0.2-0.1-0.3
					c0-1.1,0-2.2,0-3.2c0-1.1,0-2.1,0-3.2c0-0.4-0.1-0.5-0.5-0.5c-0.9,0-1.7,0-2.6,0c-0.4,0-0.5,0.1-0.5,0.5c0,4.1,0,8.3,0,12.4
					c0,2.2,0.8,4,2.5,5.5c2.5,2.2,6.9,2.1,9.3-0.2C94.2,38.6,94.9,36.7,94.8,34.5z M90.1,37.7c-0.6,0.6-1.4,0.9-2.3,0.9
					c-1.3,0-2.2-0.6-2.8-1.7c-0.9-1.5-0.8-3.6,0.4-4.9c1.4-1.5,3.7-1.5,5,0.1C91.8,33.8,91.6,36.3,90.1,37.7z"/>
			</g>
			<g>
				<path class="st4" d="M101.1,37.1c2.8-1.2,5.7-2.4,8.5-3.6c0.3-0.1,0.4-0.2,0.3-0.6c-0.7-3.2-3.3-5.3-6.6-5.3c-0.3,0-0.6,0-0.8,0
					c-5.1,0.7-7.7,6.2-5.3,10.5c1.5,2.8,4.4,4.1,7.5,3.5c2.4-0.4,4.1-1.8,5-4.1c0.1-0.3,0.1-0.4-0.3-0.4c-1,0-2,0-3,0
					c-0.2,0-0.4,0-0.5,0.2c-1,1.6-3.7,1.7-5,0.5C100.4,37.4,100.4,37.4,101.1,37.1z M100,34.4c-0.3,0.1-0.4,0.1-0.4-0.2
					c0.1-1.9,1.8-3.5,3.5-3.5c1.1,0,1.9,0.3,2.6,0.9c0.2,0.2,0.2,0.3-0.1,0.4C103.8,32.8,101.9,33.6,100,34.4z"/>
			</g>
		</g>
		<g>
			<g>
				<path class="st4" d="M78.2,17.6c0,1.3,0,2.7,0,4c0,0.4-0.1,0.5-0.5,0.5c-0.8,0-1.7,0-2.5,0c-0.4,0-0.5-0.1-0.5-0.5
					c0-2.4,0-4.7,0-7.1c0-0.5,0-0.9-0.2-1.3c-0.2-0.8-0.8-1.3-1.6-1.5c-1.9-0.5-3.4,0.7-3.4,2.7c0,2.4,0,4.8,0,7.2
					c0,0.4-0.1,0.6-0.6,0.5c-0.8,0-1.7,0-2.5,0c-0.4,0-0.5-0.1-0.5-0.5c0-2.4,0-4.9,0-7.3c0-1.5,0.4-2.9,1.4-4.1
					c1.1-1.3,2.5-1.9,4.1-2c1.1-0.1,2.2,0,3.3,0.5c2.2,0.9,3.2,2.7,3.4,5C78.3,14.9,78.2,16.2,78.2,17.6L78.2,17.6z"/>
			</g>
			<g>
				<path class="st4" d="M26.7,17.6c0-1.2,0-2.4,0-3.6c0-2,0.7-3.7,2.3-4.8c1.4-1,2.9-1.2,4.5-1c0.3,0,0.3,0.2,0.3,0.4
					c0,0.9,0,1.7,0,2.6c0,0.3-0.1,0.3-0.4,0.3c-0.9-0.1-1.8,0-2.5,0.7c-0.6,0.5-0.8,1.2-0.8,2c0,2.5,0,4.9,0,7.4
					c0,0.6,0,0.6-0.6,0.6c-0.8,0-1.6,0-2.4,0c-0.5,0-0.5,0-0.5-0.6C26.7,20.2,26.7,18.9,26.7,17.6z"/>
			</g>
			<g>
				<path class="st4" d="M24,15.2c0-1.8-0.6-3.4-1.8-4.7c-1.6-1.8-3.6-2.5-6-2.3c-1.9,0.2-3.4,1-4.6,2.5S9.9,14,10,15.9
					c0.2,2.6,1.4,4.6,3.7,5.8c2.2,1.1,4.4,1,6.4-0.5c0.1,0,0.1-0.1,0.2-0.1s0.1,0.1,0.1,0.2c0.1,1.9-0.5,4.1-3.3,4.2
					c-1.1,0.1-2.2-0.2-2.9-1.3C14.1,24,13.9,24,13.7,24c-1,0-2.1,0-3.1,0c-0.3,0-0.4,0.1-0.3,0.4c0.3,1.1,0.8,2,1.7,2.7
					c1.6,1.4,3.5,1.8,5.5,1.7c3.6-0.3,6-2.6,6.3-6.2c0.1-1.3,0-2.7,0.1-3.8C24,17.3,24.1,16.3,24,15.2z M19.5,18
					c-1.6,1.8-4.5,1.2-5.5-1c-0.3-0.6-0.4-1.2-0.4-1.6c0-1.3,0.4-2.4,1.2-3.1c1.6-1.4,3.8-1.1,5,0.7C20.9,14.6,20.7,16.7,19.5,18z"
					/>
			</g>
			<g>
				<path class="st4" d="M39.5,17.7c2.9-1.2,5.8-2.4,8.7-3.7c0.2-0.1,0.4-0.2,0.3-0.5c-0.4-1.8-1.3-3.4-3-4.4c-3.3-2-7.5-1-9.5,2.4
					c-1.5,2.4-1.5,4.9-0.1,7.4c1.3,2.3,3.4,3.5,6.1,3.5c1,0,1.9-0.2,2.8-0.5c1.7-0.7,2.9-2,3.6-3.7c0.1-0.2,0.2-0.4-0.2-0.4
					c-1.1,0-2.1,0-3.2,0c-0.2,0-0.3,0.1-0.4,0.2c-1.1,1.7-3.8,1.8-5.2,0.3C39.1,17.9,39.1,17.9,39.5,17.7z M38.6,14.9
					c-0.2,0.1-0.4,0.1-0.3-0.2c0.3-2.2,1.9-3.6,3.7-3.5c0.9,0,1.7,0.3,2.4,0.9c0.2,0.2,0.3,0.3,0,0.4C42.4,13.3,40.5,14.1,38.6,14.9
					z"/>
			</g>
			<g>
				<path class="st4" d="M54.8,17.7c2.9-1.2,5.8-2.4,8.7-3.7c0.2-0.1,0.4-0.2,0.3-0.5C63,9.9,60,7.7,56.3,8.2
					c-3.7,0.4-6.4,3.8-6.1,7.6c0.3,3.7,3.4,6.7,7,6.6c3.1,0,5.4-1.6,6.4-4.2c0.1-0.3,0.1-0.5-0.3-0.5c-1,0-2,0-2.9,0
					c-0.2,0-0.4,0.1-0.5,0.3c-1.3,1.6-3.7,1.8-5.2,0.3C54.3,17.9,54.3,17.9,54.8,17.7z M53.9,14.9c-0.4,0.2-0.4-0.1-0.3-0.3
					c0.2-1.8,1.7-3.5,3.7-3.4c0.9,0,1.6,0.3,2.3,0.9c0.2,0.2,0.3,0.3-0.1,0.5C57.6,13.3,55.8,14.1,53.9,14.9z"/>
			</g>
		</g>
	</g>
</g>
<g class="st0">
	<path class="st6" d="M35.5,9.5h10.9l0.3,3.5H46c-0.3-1.5-0.3-1.8-0.8-2.3c-0.6-0.6-1.6-0.5-2.5-0.5h-2.8c-0.2,0-0.4,0.1-0.5,0.2
		c-0.1,0.1-0.2,0.3-0.2,0.5v4.5h1.2c0.7,0,1.2-0.2,1.6-0.7c0.4-0.4,0.6-1.1,0.7-2.1h0.7V19h-0.7c0-1-0.3-1.8-0.7-2.2
		c-0.4-0.5-1-0.7-1.7-0.7h-1.1v5.1c0,0.2,0.1,0.3,0.2,0.5c0.1,0.1,0.4,0.2,0.7,0.2h2.2c2.4,0,3.8-0.7,4.1-3.7H47l-0.2,4.4H35.5v-0.7
		h0.6c0.4,0,0.6-0.1,0.8-0.2s0.2-0.3,0.2-0.5V10.9c0-0.2-0.1-0.4-0.2-0.5c-0.1-0.1-0.3-0.2-0.6-0.2h-0.8V9.5z"/>
	<path class="st6" d="M46.1,13.8H51v0.6c-0.6,0-1,0.1-1.1,0.2c-0.2,0.1-0.2,0.2-0.2,0.4c0,0.1,0,0.3,0.1,0.4l2.4,5.1l2.2-4.9
		c0-0.1,0-0.2,0-0.3c0-0.4-0.5-0.7-1.4-0.8v-0.6h3.7v0.6c-0.4,0-0.7,0.1-0.9,0.3s-0.4,0.4-0.5,0.6L52,22.7h-0.5L48,15.2
		c-0.1-0.3-0.3-0.5-0.5-0.6s-1-0.2-1.3-0.2v-0.6H46.1z"/>
	<path class="st6" d="M60.2,13.5c1.2,0,2.2,0.4,3.1,1.3c0.8,0.8,1.2,1.9,1.2,3.3c0,0.9-0.2,1.8-0.6,2.4c-0.4,0.7-0.9,1.2-1.6,1.6
		c-0.7,0.4-1.4,0.6-2.2,0.6c-1.2,0-2.2-0.4-3-1.3c-0.8-0.8-1.2-2-1.2-3.3c0-1.4,0.4-2.5,1.2-3.3C58,14,59,13.5,60.2,13.5 M60.2,14.2
		c-0.7,0-1.3,0.3-1.8,0.9c-0.5,0.6-0.7,1.6-0.7,3s0.2,2.4,0.7,3s1,1,1.8,1c0.7,0,1.4-0.3,1.8-1c0.5-0.6,0.7-1.7,0.7-3.1
		c0-1.3-0.2-2.3-0.7-2.9C61.6,14.5,61,14.2,60.2,14.2"/>
	<path class="st6" d="M67.5,9.4v11.8c0,0.2,0.1,0.3,0.2,0.4c0.2,0.1,0.4,0.2,0.6,0.2h0.6v0.7h-4.4v-0.7H65c0.3,0,0.5-0.1,0.7-0.2
		c0.1-0.1,0.2-0.3,0.2-0.6v-9.8c0-0.3-0.1-0.5-0.3-0.7c-0.2-0.2-0.5-0.3-0.9-0.3h-0.8V9.5L67.5,9.4z"/>
	<path class="st6" d="M72,13.6v5.7c0,0.7,0.2,1.2,0.6,1.6s0.8,0.6,1.4,0.6c0.7,0,1.3-0.3,1.8-0.8c0.5-0.6,0.8-1.3,0.8-2.1v-3.2
		c0-0.3-0.1-0.5-0.3-0.7c-0.2-0.2-0.6-0.3-1.3-0.3v-0.6l3.2-0.2v7.1c0,0.3,0.1,0.6,0.3,0.8c0.2,0.2,0.5,0.3,0.8,0.3h0.6v0.6l-3,0.1
		l-0.2-1.7c-0.5,0.6-1.1,1.1-1.6,1.4s-1.1,0.5-1.7,0.5c-0.8,0-1.5-0.3-2-0.8c-0.6-0.5-0.8-1.4-0.8-2.6v-3.8c0-0.3-0.1-0.6-0.4-0.8
		c-0.2-0.1-0.6-0.2-1.2-0.2v-0.6L72,13.6z"/>
	<path class="st6" d="M81.6,10.3h0.6v3.5h5.5v0.8h-5.5v5.5c0,0.5,0.1,0.8,0.4,1.1c0.2,0.3,0.5,0.4,0.9,0.4s0.8-0.2,1.1-0.6
		c0.3-0.4,0.5-1,0.5-1.9h0.6c0,1.2-0.3,2-0.8,2.6s-1.2,0.8-2,0.8c-0.7,0-1.3-0.2-1.7-0.6c-0.4-0.4-0.6-0.9-0.6-1.5v-5.8H79V14
		c0.7-0.1,1.3-0.4,1.6-0.9C81.3,12.5,81.6,11.5,81.6,10.3"/>
	<path class="st6" d="M85.8,13.8l3.6-0.1v7.4c0,0.2,0.1,0.3,0.2,0.4s0.3,0.2,0.6,0.2h0.6v0.7h-4.4v-0.7H87c0.3,0,0.5-0.1,0.6-0.2
		s0.2-0.3,0.2-0.6v-5.3c0-0.3-0.1-0.6-0.3-0.8c-0.2-0.2-0.5-0.3-0.9-0.3h-0.7L85.8,13.8L85.8,13.8z M88.3,9.7c0.3,0,0.5,0.1,0.8,0.3
		c0.2,0.2,0.3,0.5,0.3,0.7c0,0.3-0.1,0.5-0.3,0.7s-0.5,0.3-0.8,0.3s-0.5-0.1-0.8-0.3c-0.2-0.2-0.3-0.4-0.3-0.7s0.1-0.5,0.3-0.7
		C87.8,9.8,88,9.7,88.3,9.7"/>
	<path class="st6" d="M95.3,13.5c1.2,0,2.2,0.4,3.1,1.3c0.8,0.8,1.2,1.9,1.2,3.3c0,0.9-0.2,1.8-0.6,2.4c-0.4,0.7-0.9,1.2-1.6,1.6
		s-1.4,0.6-2.2,0.6c-1.2,0-2.2-0.4-3-1.3c-0.8-0.8-1.2-2-1.2-3.3c0-1.4,0.4-2.5,1.2-3.3C93.1,14,94.1,13.5,95.3,13.5 M95.3,14.2
		c-0.7,0-1.3,0.3-1.8,0.9c-0.5,0.6-0.7,1.6-0.7,3s0.2,2.4,0.7,3s1,1,1.8,1c0.7,0,1.4-0.3,1.8-1c0.5-0.6,0.7-1.7,0.7-3.1
		c0-1.3-0.2-2.3-0.7-2.9C96.7,14.5,96.1,14.2,95.3,14.2"/>
	<path class="st6" d="M99.4,13.8l3-0.2c0.1,0.5,0.2,1.2,0.3,1.9c0.4-0.6,0.9-1.1,1.4-1.4c0.5-0.3,1.2-0.5,1.9-0.5
		c0.6,0,1.1,0.1,1.5,0.3s0.7,0.6,1,1.1c0.2,0.5,0.4,1,0.4,1.6v4.2c0,0.3,0.1,0.5,0.2,0.7c0.1,0.1,0.4,0.2,0.7,0.2h0.3v0.7h-4v-0.7
		h0.1c0.4,0,0.7-0.1,0.9-0.2c0.2-0.1,0.2-0.3,0.2-0.6v-3.7c0-0.8-0.1-1.4-0.4-1.8c-0.4-0.6-0.9-0.8-1.6-0.8s-1.3,0.3-1.8,0.8
		c-0.5,0.6-0.7,1.3-0.7,2.2v3.2c0,0.3,0.1,0.5,0.2,0.7c0.2,0.1,0.4,0.2,0.7,0.2h0.3v0.7h-4v-0.7h0.3c0.3,0,0.6-0.1,0.7-0.2
		c0.2-0.1,0.2-0.3,0.2-0.5v-5.6c0-0.4-0.1-0.6-0.3-0.8c-0.2-0.2-0.5-0.3-0.9-0.3h-0.5L99.4,13.8L99.4,13.8z"/>
	<path class="st6" d="M50.9,25.3l0.8-1.4h0.6l0.4,5.4H52c-0.5-1.6-1-2.7-1.7-3.4c-0.8-0.9-1.8-1.3-2.9-1.3c-0.8,0-1.6,0.2-2.2,0.7
		c-0.7,0.4-1.2,1.1-1.5,2s-0.5,1.8-0.5,3.4c0,1.6,0.2,2.5,0.5,3.3c0.3,0.9,0.8,1.5,1.4,2c0.6,0.4,1.3,0.6,2.2,0.6
		c1.1,0,2-0.3,2.6-0.9c0.6-0.6,0.9-1.4,0.9-2.3v-1.3c0-0.2-0.1-0.4-0.2-0.5c-0.2-0.1-0.4-0.2-0.8-0.2h-1.2v-0.6h5.6v0.6h-0.4
		c-0.4,0-0.6,0.1-0.8,0.2s-0.2,0.3-0.2,0.5v5.2h-0.6c-0.2-0.8-0.5-1.6-0.7-2.3c-0.5,0.8-1.1,1.3-1.7,1.7c-0.7,0.4-1.4,0.6-2.3,0.6
		c-1.2,0-2.3-0.3-3.3-0.9c-1-0.6-1.8-1.4-2.4-2.5c-0.6-1.1-0.9-1.9-0.9-3.3s0.3-2.2,0.9-3.3c0.6-1.1,1.4-1.9,2.4-2.6
		c1-0.6,2.1-0.9,3.1-0.9c0.6,0,1.2,0.1,1.7,0.3C49.6,24.4,50.2,24.8,50.9,25.3"/>
	<path class="st6" d="M63.8,36.5l0.2,0.3c0,0.5-0.6,0.4-1.2,0.4c-0.4,0-1.3,0-1.6-0.2s-0.4-0.5-0.6-1c-0.6,0.6-1.1,1-1.6,1.2
		s-1,0.3-1.7,0.3c-0.9,0-1.6-0.2-2.1-0.6c-0.5-0.4-0.7-0.9-0.7-1.5c0-0.9,0.6-1.6,1.6-2.2c1.1-0.6,2.6-1,4.4-1.2v-1.3
		c0-0.5-0.2-0.9-0.6-1.2C59.5,29.2,59,29,58.4,29s-1,0.1-1.4,0.3c-0.3,0.2-0.4,0.3-0.4,0.5c0,0.1,0.1,0.2,0.2,0.4
		c0.2,0.2,0.3,0.5,0.3,0.7c0,0.3-0.1,0.5-0.3,0.7s-0.4,0.3-0.7,0.3s-0.6-0.1-0.8-0.3c-0.2-0.2-0.3-0.5-0.3-0.8
		c0-0.6,0.4-1.2,1.1-1.7c0.7-0.5,1.7-0.8,2.8-0.8s1.9,0.2,2.5,0.7c0.6,0.4,0.8,1,0.8,1.6v4.7c0,0.4,0.1,0.6,0.2,0.8
		c0.1,0.1,0.3,0.3,0.5,0.3C63,36.4,63.2,36.5,63.8,36.5 M60.4,32.6c-1.6,0.2-2.8,0.6-3.5,1.1c-0.5,0.4-0.8,0.9-0.8,1.6
		c0,0.5,0.1,0.8,0.4,1.1c0.3,0.3,0.6,0.4,1,0.4c0.8,0,1.4-0.3,2-0.8c0.6-0.6,0.8-1.2,0.8-2.1L60.4,32.6L60.4,32.6z"/>
	<path class="st6" d="M63.4,28.5l2.6-0.2c0.1,0.6,0.2,1.3,0.3,1.8c0.5-0.7,1-1.1,1.5-1.4s1-0.4,1.6-0.4s1.1,0.2,1.5,0.5
		s0.7,0.8,0.9,1.5c0.4-0.7,0.9-1.2,1.4-1.5s1.1-0.5,1.7-0.5c0.8,0,1.4,0.2,1.8,0.7c0.5,0.6,0.8,1.4,0.8,2.4v4.3
		c0,0.3,0.1,0.4,0.2,0.5c0.2,0.1,0.4,0.2,0.8,0.2H79v0.7h-4.5v-0.7H75c0.4,0,0.7-0.1,0.8-0.2C76,36.1,76,36,76,35.7v-4.3
		c0-0.6-0.2-1.1-0.5-1.5s-0.8-0.5-1.3-0.5c-0.4,0-0.8,0.1-1.1,0.3c-0.3,0.2-0.6,0.5-0.8,0.9c-0.3,0.5-0.4,1-0.4,1.4v3.7
		c0,0.3,0.1,0.4,0.2,0.6c0.1,0.1,0.4,0.2,0.7,0.2h0.6v0.7h-4.6v-0.7h0.5c0.3,0,0.6-0.1,0.7-0.2c0.2-0.1,0.2-0.3,0.2-0.5v-4
		c0-0.8-0.2-1.5-0.5-1.8c-0.3-0.4-0.7-0.6-1.3-0.6c-0.7,0-1.2,0.2-1.6,0.7c-0.5,0.6-0.8,1.4-0.8,2.2v3.5c0,0.3,0.1,0.4,0.2,0.5
		c0.2,0.1,0.4,0.2,0.8,0.2h0.5v0.7H63v-0.7h0.7c0.3,0,0.5-0.1,0.6-0.2c0.1-0.1,0.2-0.3,0.2-0.5v-5.7c0-0.3-0.1-0.5-0.2-0.7
		c-0.2-0.2-0.5-0.3-1-0.3v-0.6H63.4z"/>
	<path class="st6" d="M79.3,28.5l3.2-0.1v7.4c0,0.2,0.1,0.3,0.2,0.4c0.1,0.1,0.3,0.2,0.6,0.2h1v0.7h-5.5v-0.7H80
		c0.3,0,0.5-0.1,0.6-0.2c0.1-0.1,0.2-0.3,0.2-0.6v-5.4c0-0.3-0.1-0.6-0.3-0.8c-0.2-0.2-0.5-0.3-0.9-0.3h-0.4v-0.6H79.3z M81.4,24.4
		c0.3,0,0.5,0.1,0.8,0.3c0.2,0.2,0.3,0.5,0.3,0.7c0,0.3-0.1,0.5-0.3,0.7c-0.2,0.2-0.5,0.3-0.8,0.3s-0.5-0.1-0.8-0.3
		c-0.2-0.2-0.3-0.4-0.3-0.7c0-0.3,0.1-0.5,0.3-0.7C80.9,24.5,81.1,24.4,81.4,24.4"/>
	<path class="st6" d="M84,28.5l3-0.2c0.1,0.5,0.2,1.2,0.3,1.9c0.4-0.6,0.9-1.1,1.4-1.4s1.2-0.5,1.9-0.5c0.6,0,1.1,0.1,1.5,0.3
		c0.4,0.2,0.7,0.6,1,1.1c0.2,0.5,0.4,1,0.4,1.6v4.2c0,0.3,0.1,0.5,0.2,0.7c0.1,0.1,0.4,0.2,0.7,0.2h0.3v0.7h-4v-0.7h0.1
		c0.4,0,0.7-0.1,0.9-0.2c0.2-0.1,0.2-0.3,0.2-0.6V32c0-0.8-0.1-1.4-0.4-1.8c-0.4-0.6-0.9-0.8-1.6-0.8s-1.3,0.3-1.8,0.8
		c-0.5,0.6-0.7,1.3-0.7,2.2v3.2c0,0.3,0.1,0.5,0.2,0.7c0.2,0.1,0.4,0.2,0.7,0.2h0.3v0.7H84v-0.7h0.6c0.3,0,0.6-0.1,0.7-0.2
		c0.2-0.1,0.2-0.3,0.2-0.5v-5.6c0-0.4-0.1-0.6-0.3-0.8c-0.2-0.2-0.5-0.3-0.9-0.3H84V28.5z"/>
	<path class="st6" d="M101.4,29c0.6-0.6,2.4-1.5,3-1.6c0.4,0,0.7,0,0.9,0.2c0.2,0.2-0.2,0.6-0.2,0.9c0,0.2-0.1,0.4-0.2,0.6
		s-0.3,0.2-0.5,0.2c-0.4,0-0.6-0.2-0.7-0.6c-0.1-0.2-0.1-0.3-0.3-0.3c-0.2,0-1.3,0.6-1.6,0.9c0.3,0.4,0.5,0.7,0.6,0.9
		c0.1,0.3,0.2,0.6,0.2,0.9c0,0.5-0.1,1-0.4,1.4s-0.7,0.8-1.3,1.1c-0.6,0.3-1.2,0.5-1.8,0.5h-1c-0.7,0-1.2,0.1-1.5,0.2
		c-0.2,0.2-0.4,0.4-0.4,0.7c0,0.2,0.1,0.4,0.3,0.6c0.2,0.1,0.6,0.2,1.1,0.2h2.4c1.2,0,2.1,0.2,2.6,0.6c0.5,0.4,0.8,0.9,0.8,1.6
		c0,0.7-0.3,1.4-0.9,1.9c-0.8,0.7-2.1,1.1-3.8,1.1c-1.4,0-2.4-0.2-3.1-0.7c-0.5-0.4-0.8-0.8-0.8-1.3c0-0.4,0.2-0.7,0.5-1
		s0.9-0.5,1.7-0.7c-0.6-0.1-1.1-0.4-1.4-0.7s-0.5-0.6-0.5-1.1c0-0.4,0.1-0.7,0.4-1s0.7-0.5,1.4-0.8c-0.5-0.3-1-0.6-1.2-1
		c-0.3-0.4-0.4-0.9-0.4-1.4c0-0.8,0.3-1.5,1-2.1s1.6-0.8,2.7-0.8c0.4,0,0.9,0.1,1.3,0.2C100.6,28.5,101,28.7,101.4,29 M99.4,37.2
		c-1.2,0-2,0.2-2.5,0.5s-0.8,0.7-0.8,1.1c0,0.4,0.2,0.7,0.6,1c0.5,0.3,1.2,0.5,2.1,0.5c1.1,0,1.9-0.2,2.5-0.5
		c0.6-0.4,0.8-0.7,0.8-1.2c0-0.3-0.1-0.5-0.3-0.7c-0.2-0.2-0.4-0.4-0.8-0.5C100.7,37.2,100.2,37.2,99.4,37.2 M98.9,28.8
		c-0.6,0-1,0.2-1.4,0.6s-0.6,1-0.6,1.7c0,0.8,0.2,1.4,0.6,1.8s0.8,0.6,1.4,0.6s1-0.2,1.4-0.6c0.4-0.4,0.6-1,0.6-1.8
		c0-0.7-0.2-1.3-0.6-1.7S99.4,28.8,98.9,28.8"/>
	<path class="st6" d="M104.7,27.5c0.3,0,0.5,0.1,0.8,0.3c0.2,0.2,0.3,0.5,0.3,0.7c0,0.3-0.1,0.5-0.3,0.7c-0.2,0.2-0.5,0.3-0.8,0.3
		s-0.5-0.1-0.8-0.3c-0.2-0.2-0.3-0.4-0.3-0.7c0-0.3,0.1-0.5,0.3-0.7C104.2,27.6,104.4,27.5,104.7,27.5"/>
	<path class="st6" d="M29.6,35.8c-0.1,0-0.1,0-0.2,0h-0.1v-0.6h0.2c0.2,0,0.3,0,0.4,0c0.1,0.1,0.2,0.2,0.2,0.2
		C30,35.7,29.7,35.8,29.6,35.8 M30.3,35.5c0-0.2-0.1-0.4-0.2-0.5c-0.2-0.1-0.3-0.1-0.6-0.1h-0.6v1.8h0.4V36h0.3l0.4,0.7h0.4L30,36
		C30.1,35.9,30.3,35.8,30.3,35.5 M29.6,37.3c-0.8,0-1.5-0.6-1.5-1.4c0-0.8,0.7-1.4,1.5-1.4s1.5,0.6,1.5,1.4
		C31,36.6,30.4,37.3,29.6,37.3 M29.6,34.1c-1,0-1.8,0.8-1.8,1.8s0.8,1.8,1.8,1.8s1.8-0.8,1.8-1.8C31.4,34.9,30.6,34.1,29.6,34.1"/>
	<path class="st6" d="M10,10.9c8.9-4.5,20.3,0.2,21.2,11.8C14.8,23.9,12.8,16.8,10,10.9"/>
	<path class="st6" d="M10,35.7c8.9,4.5,20.3-0.2,21.2-11.8C14.8,22.6,12.8,29.7,10,35.7"/>
	<path class="st6" d="M28.1,14.5C24,9.2,16.3,7.6,10,10.9c2.5,5.3,4.3,11.6,16.5,11.9c1.1-2,1.8-4.2,1.8-6.6
		C28.2,15.6,28.2,15.1,28.1,14.5 M13,29.8c0.4,0,0.7,0,1.1,0c4.9,0,9.3-2.4,11.8-6.1C18.6,24.1,15.1,26.7,13,29.8"/>
</g>
<path class="st7" d="M115,50H5c-2.8,0-5-2.2-5-5V5c0-2.8,2.2-5,5-5h110c2.8,0,5,2.2,5,5v40C120,47.8,117.8,50,115,50z"/>
<g>
	<path class="st8" d="M11.9,33.6V18.7L24.4,25l-7.1,3.5V25c0-0.8-0.6-1.4-1.4-1.4c-0.8,0-1.4,0.6-1.4,1.4v5.9c0,0.8,0.6,1.4,1.4,1.4
		c0.2,0,0.4-0.1,0.6-0.2l11.7-5.9c0.7-0.4,1-1.2,0.6-1.9c-0.1-0.3-0.4-0.5-0.6-0.6l-17.2-8.6c-0.7-0.4-1.6-0.1-1.9,0.6
		C9.1,16,9,16.2,9,16.4v17.2c0,0.8,0.6,1.4,1.4,1.4C11.2,35,11.9,34.4,11.9,33.6z"/>
	<path class="st4" d="M44.2,21.9c-0.3-0.8-1.1-1.3-2-1.3h-5.8c-0.5,0-0.9,0.4-0.9,0.9l0,0v7.1c0,0.5,0.4,0.9,0.9,0.9
		s0.9-0.4,0.9-0.9v-2.1h4.9c1.2,0,2.1-0.9,2.1-2.1c0,0,0,0,0,0v-1.6C44.3,22.4,44.3,22.1,44.2,21.9z M42.6,24.4c0,0,0,0.1,0,0.1
		c0,0.1-0.1,0.1-0.1,0.2c-0.1,0-0.1,0.1-0.2,0.1h-4.9v-2.4h4.9c0,0,0.1,0,0.1,0c0.1,0,0.2,0.1,0.2,0.2c0,0,0,0.1,0,0.1V24.4z"/>
	<path class="st4" d="M86.4,24.5c-0.3-0.2-0.8-0.4-1.2-0.4h-5.2c0,0-0.1,0-0.1,0c-0.1,0-0.1-0.1-0.2-0.1c0-0.1-0.1-0.1-0.1-0.2v-1.1
		c0,0,0-0.1,0-0.1c0-0.1,0.1-0.1,0.1-0.2c0,0,0.1,0,0.1,0c0,0,0.1,0,0.1,0h6.1c0.5,0,0.9-0.4,0.9-0.9c0-0.5-0.4-0.9-0.9-0.9h-6.1
		c-1.2,0-2.1,0.9-2.1,2.1c0,0,0,0,0,0v1.1c0,1.2,0.9,2.1,2.1,2.1c0,0,0,0,0,0h5.2c0,0,0.1,0,0.1,0c0.1,0,0.2,0.1,0.2,0.2
		c0,0,0,0.1,0,0.1v1.1c0,0,0,0.1,0,0.1c0,0.1-0.1,0.1-0.1,0.2c-0.1,0-0.1,0.1-0.2,0.1h-6.1c-0.5,0-0.9,0.4-0.9,0.9s0.4,0.9,0.9,0.9
		h6.1c1.2,0,2.1-0.9,2.1-2.1c0,0,0,0,0,0v-1.1C87.4,25.5,87,24.9,86.4,24.5L86.4,24.5z"/>
	<path class="st4" d="M75.8,20.8c-0.4-0.3-0.9-0.3-1.2,0.1l0,0l-3.5,4l-3.5-4c-0.3-0.4-0.9-0.4-1.2-0.1c-0.4,0.3-0.4,0.9-0.1,1.2
		c0,0,0,0,0,0l3.9,4.5v2c0,0.5,0.4,0.9,0.9,0.9S72,29,72,28.5v-2l3.9-4.5C76.2,21.7,76.2,21.1,75.8,20.8
		C75.8,20.8,75.8,20.8,75.8,20.8z"/>
	<path class="st4" d="M99,21.9c-0.3-0.8-1.1-1.3-2-1.3h-5.2c-1.2,0-2.1,0.9-2.1,2.1c0,0,0,0,0,0v4.6c0,1.2,0.9,2.1,2.1,2.1
		c0,0,0,0,0,0H97c1.2,0,2.1-0.9,2.1-2.1c0,0,0,0,0,0v-4.6C99.1,22.4,99.1,22.1,99,21.9z M97.4,27.3c0,0,0,0.1,0,0.1
		c0,0.1-0.1,0.2-0.2,0.2c0,0-0.1,0-0.1,0h-5.2c0,0-0.1,0-0.1,0c-0.1,0-0.2-0.1-0.2-0.2c0,0,0-0.1,0-0.1v-4.6c0,0,0-0.1,0-0.1
		c0-0.1,0.1-0.1,0.1-0.2c0.1,0,0.1-0.1,0.2-0.1H97c0,0,0.1,0,0.1,0c0.1,0,0.1,0.1,0.2,0.1c0,0,0,0.1,0,0.1c0,0,0,0.1,0,0.1V27.3z"/>
	<path class="st4" d="M110.1,20.6c-0.5,0-0.9,0.4-0.9,0.9l0,0v5l-6.2-5.7c-0.4-0.3-0.9-0.3-1.2,0c-0.2,0.2-0.2,0.4-0.2,0.6v7.1
		c0,0.5,0.4,0.9,0.9,0.9c0.5,0,0.9-0.4,0.9-0.9v-5l6.2,5.7c0.4,0.3,0.9,0.3,1.2,0c0.2-0.2,0.2-0.4,0.2-0.6v-7.1
		C111,21,110.6,20.6,110.1,20.6L110.1,20.6z"/>
	<path class="st4" d="M53.7,27.6h-5.3v-6.2c0-0.5-0.4-0.9-0.9-0.9s-0.9,0.4-0.9,0.9l0,0v7.1c0,0.5,0.4,0.9,0.9,0.9h6.2
		c0.5,0,0.9-0.4,0.9-0.9C54.6,28,54.2,27.6,53.7,27.6z"/>
	<path class="st4" d="M65.7,29.4c-0.3,0-0.6-0.2-0.8-0.4l-3.4-5.8L58.2,29c-0.2,0.4-0.8,0.6-1.2,0.3s-0.6-0.8-0.3-1.2l0,0l4.1-7.1
		c0.2-0.4,0.8-0.6,1.2-0.3c0.1,0.1,0.2,0.2,0.3,0.3l4.1,7.1c0.2,0.4,0.1,1-0.3,1.2C66,29.4,65.9,29.4,65.7,29.4z"/>
</g>
</svg>
