<svg width="93" height="43" viewBox="0 0 93 43" fill="none" xmlns="http://www.w3.org/2000/svg">
<path d="M79.5298 16.8641C74.9359 17.1454 77.0197 23.062 82.0387 22.7471C87.0599 22.4321 84.4155 16.5575 79.5298 16.8641Z" fill="#F19021"/>
<path d="M77.5887 13.2024C74.6658 13.2012 71.8072 14.0599 69.3689 15.6715C66.9414 17.2749 65.0451 19.5633 63.9205 22.2463C62.8014 24.921 62.5089 27.8694 63.0806 30.7118C63.6547 33.5592 65.0648 36.1707 67.1307 38.2125C69.207 40.2644 71.8424 41.6582 74.707 42.2196C77.577 42.7838 80.5496 42.4925 83.2554 41.3818C85.952 40.2771 88.2613 38.3988 89.8922 35.9838C91.5151 33.579 92.3819 30.7439 92.3812 27.8427C92.3776 25.9164 91.9925 24.0099 91.248 22.2333C90.5034 20.4567 89.4143 18.8452 88.0435 17.4918C85.2583 14.7419 81.5016 13.2004 77.5876 13.2014L77.5887 13.2024ZM77.5887 40.9588C74.9705 40.9588 72.4122 40.1903 70.2349 38.75C68.0632 37.3159 66.3664 35.2691 65.3597 32.8691C64.3578 30.477 64.095 27.8398 64.6049 25.297C65.1177 22.7494 66.3783 20.4124 68.2256 18.5847C70.082 16.748 72.4387 15.4995 75.001 14.9955C77.5676 14.489 80.2265 14.7474 82.6476 15.7387C85.061 16.7252 87.1287 18.4035 88.5905 20.5625C90.0441 22.7124 90.8224 25.2475 90.8255 27.8427C90.826 29.5655 90.4841 31.2712 89.8198 32.8607C89.1535 34.4547 88.1784 35.9011 86.9507 37.1166C85.7191 38.3365 84.2599 39.3027 82.656 39.9604C81.0498 40.6197 79.3271 40.9577 77.5876 40.9577L77.5887 40.9588ZM77.1446 2.9859C76.1355 3.75387 75.3385 4.76618 74.8288 5.9274C74.3213 7.08526 74.1193 8.35393 74.242 9.61215C74.242 9.61215 72.0406 3.9643 69.1704 0.5C68.7862 4.96579 70.1992 10.874 70.1992 10.874C69.5827 9.75869 68.6916 8.81921 67.6105 8.14455C66.5253 7.46668 65.2862 7.07449 64.0087 7.00448C66.558 8.56267 68.4662 10.981 69.3888 13.8228C71.5677 12.4957 74.0512 11.751 76.6008 11.6603C75.7377 8.79697 75.9307 5.719 77.1446 2.9859Z" fill="#F19021"/>
<path d="M1.28809 29.2852V32.3505H0V24.454H2.71055C3.45924 24.3979 4.20125 24.6287 4.78598 25.0997C5.02094 25.3308 5.20434 25.609 5.32412 25.916C5.44389 26.2231 5.49734 26.552 5.48094 26.8811C5.50456 27.2138 5.45282 27.5475 5.32959 27.8574C5.20636 28.1673 5.0148 28.4454 4.76918 28.671C4.19154 29.137 3.4594 29.3679 2.71895 29.3177L1.28809 29.2852ZM4.1834 26.8811C4.19616 26.6931 4.16931 26.5044 4.10457 26.3274C4.03983 26.1503 3.93865 25.9889 3.80758 25.8534C3.45988 25.5916 3.02758 25.4679 2.59402 25.5059H1.28809V28.2406H2.57723C3.63961 28.2406 4.1666 27.7924 4.1666 26.8811H4.1834ZM10.8107 32.3505L8.82661 29.1928H7.8986V32.3495H6.61051V24.454H9.42079C10.1707 24.3994 10.9131 24.6333 11.4962 25.1081C11.7299 25.3337 11.9133 25.6061 12.0345 25.9075C12.1557 26.2089 12.2119 26.5324 12.1996 26.857C12.2324 27.4078 12.0592 27.9512 11.7135 28.3813C11.3146 28.8012 10.7792 29.0689 10.1997 29.135L12.2993 32.3495L10.8107 32.3505ZM7.91539 28.29H9.32945C10.375 28.29 10.8936 27.8343 10.8936 26.9231C10.9056 26.737 10.8775 26.5504 10.8112 26.376C10.7449 26.2016 10.642 26.0434 10.5094 25.9122C10.1765 25.6454 9.75484 25.5149 9.32945 25.5469H7.8986L7.91539 28.29ZM18.1319 30.6352H14.7852L14.1742 32.3495H12.7602L15.6964 24.5779H17.1777L20.0814 32.3495H18.7261L18.1319 30.6352ZM17.7718 29.6568L16.4491 25.9615L15.1274 29.6568H17.7718ZM26.6068 25.0755C27.2488 25.5457 27.6956 26.2354 27.8624 27.0134H26.5071C26.3431 26.5939 26.0502 26.2373 25.6704 25.9951C25.2555 25.7142 24.7648 25.5666 24.2637 25.5721C23.7942 25.5619 23.3311 25.6825 22.9263 25.9206C22.5313 26.1504 22.2115 26.49 22.0056 26.8979C21.7758 27.3667 21.661 27.8835 21.6708 28.4054C21.6624 28.944 21.7799 29.4773 22.014 29.9633C22.2261 30.378 22.5589 30.7213 22.9683 30.9501C23.4071 31.1853 23.8994 31.3049 24.3981 31.2976C25.0129 31.3011 25.608 31.0801 26.0715 30.6761C26.5481 30.2457 26.8472 29.6547 26.9081 29.0196H24.0139V28.0664H28.022V29.2841C27.9375 29.8531 27.7227 30.3949 27.3942 30.8672C27.0604 31.3396 26.6152 31.7228 26.0967 31.9852C25.5253 32.2781 24.8898 32.4235 24.248 32.4083C23.5282 32.4261 22.8171 32.2484 22.1904 31.8939C21.6044 31.562 21.1274 31.0671 20.8173 30.4693C20.4995 29.8249 20.3342 29.1161 20.3342 28.3976C20.3342 27.6791 20.4995 26.9702 20.8173 26.3258C21.1271 25.7282 21.6038 25.2333 22.1893 24.9012C22.8221 24.5456 23.5392 24.3679 24.2648 24.3868C25.1073 24.3569 25.9371 24.5983 26.632 25.0755H26.6068ZM37.1163 24.5779V32.3495H35.8114V26.5505L33.5438 32.3495H32.4143L30.1289 26.5505V32.3495H28.8481V24.5779H30.405L32.9979 30.7843L35.551 24.5779H37.1163ZM43.4171 30.6352H40.0704L39.4594 32.3495H38.0621L40.9984 24.5779H42.4796L45.4085 32.3495H44.0281L43.4171 30.6352ZM43.057 29.6568L41.7343 25.9615L40.4126 29.6568H43.057ZM50.9136 24.454V25.4807H48.6881V32.3495H47.3916V25.4807H45.1828V24.454H50.9136ZM52.8883 24.454V32.3495H51.6075V24.454H52.8883ZM60.1759 25.1081C60.8262 25.6103 61.2891 26.3164 61.4902 27.1131H60.1181C59.9411 26.6531 59.6289 26.2575 59.2227 25.9783C58.7755 25.6867 58.2498 25.5391 57.7162 25.5553C57.2685 25.5529 56.8288 25.6734 56.4449 25.9038C56.0775 26.1515 55.7878 26.4959 55.6083 26.8979C55.3931 27.3673 55.2818 27.8776 55.2818 28.3939C55.2818 28.9102 55.3931 29.4205 55.6083 29.8898C55.793 30.2929 56.0912 30.6352 56.4691 30.8724C56.847 31.1107 57.2858 31.2357 57.733 31.2315C58.2666 31.2476 58.7923 31.0999 59.2395 30.8084C59.6468 30.5365 59.9596 30.146 60.1339 29.6904H61.507C61.3085 30.4836 60.8447 31.1852 60.1927 31.6787C59.4856 32.1888 58.6285 32.4485 57.7572 32.4167C57.0564 32.4314 56.365 32.2535 55.7584 31.9023C55.173 31.5733 54.6962 31.0808 54.3863 30.4851C54.0781 29.8381 53.9182 29.1305 53.9182 28.4138C53.9182 27.6972 54.0781 26.9896 54.3863 26.3426C54.6912 25.7497 55.1583 25.2557 55.7332 24.918C56.422 24.5459 57.1997 24.3699 57.9816 24.4093C58.7635 24.4488 59.5196 24.7021 60.1675 25.1416L60.1759 25.1081ZM67.5643 32.3169H66.2762V24.454H68.9867C69.7354 24.3979 70.4774 24.6287 71.0622 25.0997C71.2969 25.3309 71.4801 25.6091 71.5997 25.9162C71.7193 26.2232 71.7726 26.5521 71.7561 26.8811C71.7798 27.2137 71.7283 27.5474 71.6052 27.8573C71.4822 28.1672 71.2908 28.4453 71.0454 28.671C70.4654 29.138 69.7306 29.369 68.9878 29.3177L67.5643 29.2505V32.3169ZM70.4428 26.8475C70.4553 26.6596 70.4283 26.4711 70.3633 26.2942C70.2984 26.1173 70.1971 25.9561 70.0659 25.8209C69.719 25.5582 69.2868 25.434 68.8534 25.4723H67.5643V28.207H68.8534C69.9158 28.207 70.4428 27.7598 70.4428 26.8486V26.8475ZM73.9648 31.3228H76.7258V32.3169H72.6767V24.454H73.9648V31.3228ZM82.6172 30.6016H79.2694L78.65 32.3495H77.2612L80.1974 24.5779H81.6787L84.6076 32.3495H83.2271L82.6172 30.6016ZM82.2571 29.6242L80.9344 25.929L79.6127 29.6242H82.2571ZM89.7872 24.4204L87.1187 29.4993V32.3757H85.8295V29.4993L83.161 24.4782H84.6496L86.4825 28.1325L88.3144 24.4792L89.7872 24.4204Z" fill="white"/>
</svg>
