<svg width="18" height="18" viewBox="0 0 18 18" fill="none" xmlns="http://www.w3.org/2000/svg">
<path d="M18 16.2325L16.234 18L13.0633 14.8453V13.909L12.7439 13.5757C11.2293 14.8759 9.27006 15.5386 7.27734 15.4248C5.28462 15.3109 3.41336 14.4293 2.0567 12.965C0.700046 11.5008 -0.0365693 9.56776 0.00139806 7.57184C0.0393655 5.57591 0.849081 3.67231 2.26044 2.26072C3.67181 0.849132 5.57511 0.0393717 7.57071 0.00139821C9.56632 -0.0365753 11.499 0.700199 12.963 2.05707C14.427 3.41395 15.3086 5.28538 15.4224 7.27841C15.5363 9.27145 14.8736 11.2311 13.5736 12.7459L13.9054 13.0668H14.8429L18 16.2325ZM13.0633 7.72965C13.061 6.49692 12.6315 5.30313 11.8479 4.35159C11.0643 3.40006 9.97523 2.74966 8.76598 2.51122C7.55673 2.27277 6.30217 2.461 5.21613 3.04386C4.13008 3.62673 3.27978 4.56816 2.80989 5.70778C2.33999 6.8474 2.27969 8.11471 2.63923 9.29382C2.99877 10.4729 3.75585 11.4909 4.78164 12.1743C5.80742 12.8577 7.03839 13.1643 8.26482 13.0418C9.49125 12.9193 10.6372 12.3753 11.5076 11.5025C12.0032 11.0075 12.396 10.4193 12.6632 9.77177C12.9305 9.12423 13.0655 8.43018 13.0633 7.72965Z" fill="white"/>
</svg>
