<svg width="57" height="37" viewBox="0 0 57 37" fill="none" xmlns="http://www.w3.org/2000/svg">
<rect x="0.820801" y="0.339844" width="55.8806" height="36" rx="8" fill="white"/>
<path d="M40.0385 13.6134L43.2024 13.0504V25.1897H40.0385V13.6134ZM44.6569 13.6134V25.183H47.8208V13.0504L44.6569 13.6134ZM35.5407 25.183H38.7046V16.3081H35.5407V25.183ZM14.6336 17.5616C14.2315 17.5348 13.3064 17.4744 13.3064 16.6432C13.3064 15.6378 14.6403 15.6378 15.1364 15.6378C16.0145 15.6378 17.154 15.8992 17.9651 16.1405C17.9651 16.1405 18.4209 16.3014 18.803 16.4623L18.8365 16.469V16.4355V13.7207L18.7896 13.7073C17.831 13.3721 16.7183 13.0504 14.647 13.0504C11.081 13.0504 9.8208 15.1283 9.8208 16.9047C9.8208 17.9302 10.2632 20.3434 14.3454 20.6249C14.694 20.645 15.6123 20.6986 15.6123 21.5633C15.6123 22.2739 14.8615 22.6962 13.5947 22.6962C12.2071 22.6962 10.8665 22.3409 10.0487 22.0057V24.8412C11.2687 25.1629 12.6495 25.3238 14.265 25.3238C17.7506 25.3238 19.3124 23.3598 19.3124 21.4092C19.3124 19.1971 17.5696 17.7627 14.6336 17.5616ZM33.7577 16.1807C30.8351 16.2746 29.3537 17.5884 29.3537 20.1959V25.1897H32.5444V21.1142C32.5444 19.5524 32.7455 18.8821 34.6022 18.8218V16.221C34.2805 16.1606 33.7577 16.1807 33.7577 16.1807ZM25.1777 16.3014C25.1106 16.4757 24.6012 17.9101 23.3745 19.3915V13.0504L20.1101 13.6939V25.183H23.3745V21.6304C24.3197 23.0514 24.7889 25.183 24.7889 25.183H28.6968C28.308 23.5743 26.6188 20.6115 26.6188 20.6115C28.1337 18.6877 28.804 16.6365 28.9113 16.2947H25.1777V16.3014ZM37.1159 15.4568C37.9739 15.4568 38.6777 14.7597 38.6777 13.9017C38.6777 13.0437 37.9806 12.3398 37.1159 12.3398C36.2579 12.3398 35.5608 13.037 35.5608 13.9017C35.5608 14.7597 36.2579 15.4568 37.1159 15.4568Z" fill="#872166"/>
</svg>
