<svg width="124" height="32" viewBox="0 0 124 32" fill="none" xmlns="http://www.w3.org/2000/svg">
<g clip-path="url(#clip0_9186_16332)">
<path fill-rule="evenodd" clip-rule="evenodd" d="M8.88624 0.839844H114.748C117.01 0.855696 119.174 1.76619 120.767 3.37238C122.359 4.97857 123.251 7.14987 123.248 9.41184V22.2678C123.252 24.5299 122.36 26.7013 120.767 28.3076C119.174 29.9138 117.01 30.8243 114.748 30.8398H8.88624C6.62432 30.824 4.46062 29.9135 2.86792 28.3073C1.27523 26.7011 0.383014 24.5298 0.386241 22.2678V9.41184C0.382751 7.14979 1.27488 4.97834 2.86763 3.37209C4.46039 1.76585 6.62424 0.855434 8.88624 0.839844Z" stroke="#98A2B3" stroke-width="0.78"/>
<path fill-rule="evenodd" clip-rule="evenodd" d="M55.3992 21.6603H75.3162C76.0225 21.6325 76.7112 21.8848 77.2326 22.3621C77.7539 22.8394 78.0657 23.5033 78.1002 24.2093V25.4943C78.0657 26.2003 77.7539 26.8641 77.2326 27.3414C76.7112 27.8188 76.0225 28.071 75.3162 28.0433H55.3992C54.6929 28.071 54.0042 27.8188 53.4829 27.3414C52.9616 26.8641 52.6497 26.2003 52.6152 25.4943V24.2103C52.6495 23.5041 52.9612 22.84 53.4826 22.3625C54.0039 21.8849 54.6928 21.6326 55.3992 21.6603Z" fill="#98A2B3" stroke="#98A2B3" stroke-width="0.184"/>
<path d="M55.7969 23.1751H57.3099C57.5567 23.1659 57.8027 23.2075 58.0329 23.2971C58.2113 23.3745 58.3677 23.4951 58.4879 23.6481C58.6105 23.806 58.6993 23.9874 58.7489 24.1811C58.8037 24.391 58.8309 24.6071 58.8299 24.8241C58.8416 25.1045 58.8009 25.3846 58.7099 25.6501C58.6366 25.8364 58.5229 26.0041 58.3769 26.1411C58.2479 26.265 58.0907 26.3556 57.9189 26.4051C57.7214 26.4615 57.5173 26.4918 57.3119 26.4951H55.7979V23.1741L55.7969 23.1751ZM56.8149 23.9271V25.7411H57.0639C57.2186 25.7515 57.3737 25.7273 57.5179 25.6701C57.6152 25.6141 57.6902 25.5261 57.7299 25.4211C57.7905 25.2364 57.8166 25.0422 57.8069 24.8481C57.8331 24.5951 57.7732 24.3407 57.6369 24.1261C57.5619 24.0547 57.4725 24.0004 57.3746 23.9667C57.2768 23.9331 57.1728 23.9209 57.0699 23.9311H56.8159L56.8149 23.9271ZM59.3619 23.1751H62.0899V23.8841H60.3829V24.4121H61.9679V25.0891H60.3829V25.7481H62.1419V26.5001H59.3619V23.1751ZM62.4569 23.1751H65.5569V23.9961H64.5129V26.4961H63.4949V23.9961H62.4569V23.1751ZM67.7279 25.9481H66.5679L66.4079 26.4961H65.3679L66.6059 23.1751H67.7159L68.9549 26.4961H67.8899L67.7279 25.9481ZM67.5149 25.2301L67.1499 24.0361L66.7879 25.2301H67.5149ZM69.2809 23.1751H70.2999V25.6751H71.8889V26.4931H69.2809V23.1751ZM72.3919 23.1751H73.4119V26.4961H72.3919V23.1751ZM74.1829 23.1751H75.2039V26.4961H74.1839V23.1741L74.1829 23.1751Z" fill="#0F0F1A"/>
<path d="M16.9741 8.88186L18.4061 8.78786C18.421 8.98434 18.4861 9.17371 18.5951 9.33786C18.6729 9.43887 18.7741 9.51943 18.8899 9.57257C19.0058 9.62571 19.1328 9.64983 19.2601 9.64286C19.4404 9.65538 19.6189 9.5997 19.7601 9.48686C19.8135 9.44442 19.8567 9.39061 19.8867 9.32936C19.9167 9.26811 19.9326 9.20095 19.9334 9.13276C19.9342 9.06457 19.9197 8.99707 19.8911 8.93516C19.8626 8.87325 19.8205 8.81849 19.7681 8.77486C19.536 8.62147 19.2726 8.52172 18.9971 8.48286C18.4841 8.39658 17.9996 8.18727 17.5851 7.87286C17.4473 7.75221 17.3377 7.60264 17.2642 7.43481C17.1908 7.26697 17.1552 7.085 17.1601 6.90186C17.1606 6.64162 17.2363 6.38708 17.3781 6.16886C17.5375 5.92725 17.7651 5.73856 18.0321 5.62686C18.414 5.47788 18.8226 5.40978 19.2321 5.42686C19.7329 5.39444 20.2312 5.52076 20.6561 5.78786C20.8283 5.92619 20.9692 6.09936 21.0697 6.29601C21.1701 6.49265 21.2279 6.70832 21.2391 6.92886L19.8201 7.01486C19.8017 6.82694 19.7174 6.6516 19.5821 6.51986C19.4396 6.40977 19.2619 6.35506 19.0821 6.36586C18.9392 6.35358 18.7967 6.39453 18.6821 6.48086C18.6405 6.51468 18.607 6.55737 18.5839 6.60581C18.5609 6.65426 18.549 6.70723 18.5491 6.76086C18.5503 6.80267 18.5606 6.84371 18.5795 6.88105C18.5983 6.91839 18.6252 6.9511 18.6581 6.97686C18.8114 7.07434 18.9841 7.13746 19.1641 7.16186C19.6513 7.25265 20.1258 7.40207 20.5771 7.60686C20.833 7.72993 21.0485 7.92352 21.1981 8.16486C21.3287 8.39123 21.3961 8.64854 21.3931 8.90986C21.394 9.23029 21.3013 9.544 21.1265 9.81256C20.9518 10.0811 20.7024 10.2929 20.4091 10.4219C20.0374 10.5741 19.6376 10.646 19.2361 10.6329C18.62 10.7005 18.002 10.5227 17.5161 10.1379C17.1936 9.79819 17.0017 9.35542 16.9741 8.88786V8.88186ZM21.9561 8.03386C21.9351 7.68612 21.9831 7.33765 22.0972 7.0085C22.2113 6.67934 22.3894 6.37599 22.6211 6.11586C22.8655 5.87984 23.1562 5.69704 23.4748 5.57897C23.7933 5.4609 24.1329 5.41013 24.4721 5.42986C24.8156 5.40641 25.1603 5.45417 25.4845 5.57015C25.8087 5.68613 26.1054 5.86783 26.3561 6.10386C26.5856 6.35935 26.762 6.65794 26.8749 6.98225C26.9879 7.30655 27.0352 7.65009 27.0141 7.99286C27.0327 8.49109 26.9341 8.98673 26.7261 9.43986C26.5419 9.80812 26.2532 10.1139 25.8961 10.3189C25.4805 10.5414 25.0133 10.6498 24.5421 10.6329C24.0723 10.6493 23.605 10.5565 23.1771 10.3619C22.8057 10.17 22.5008 9.87065 22.3021 9.50286C22.0637 9.05098 21.9478 8.54448 21.9661 8.03386H21.9561ZM23.4621 8.04086C23.4273 8.42776 23.5234 8.81516 23.7351 9.14086C23.8297 9.24561 23.9452 9.32948 24.0741 9.38709C24.2029 9.44471 24.3424 9.4748 24.4836 9.47546C24.6247 9.47612 24.7645 9.44733 24.8939 9.39092C25.0233 9.33451 25.1395 9.25173 25.2351 9.14786C25.4472 8.79622 25.5405 8.38563 25.5011 7.97686C25.5311 7.60882 25.4329 7.24174 25.2231 6.93786C25.131 6.82937 25.0152 6.74347 24.8847 6.68678C24.7541 6.63009 24.6123 6.60411 24.4701 6.61086C24.331 6.60612 24.1926 6.63373 24.066 6.69151C23.9393 6.74929 23.8278 6.83567 23.7401 6.94386C23.528 7.26944 23.4312 7.65676 23.4651 8.04386L23.4621 8.04086ZM27.8131 5.51486H29.3191V9.30786H31.6681V10.5479H27.8181L27.8131 5.51486ZM35.3451 5.51486H36.8451V8.51486C36.8466 8.80103 36.801 9.0855 36.7101 9.35686C36.6231 9.61681 36.4789 9.85395 36.2881 10.0509C36.1213 10.2324 35.9164 10.3748 35.6881 10.4679C35.3502 10.587 34.9934 10.6439 34.6351 10.6359C34.3756 10.6349 34.1165 10.6179 33.8591 10.5849C33.6155 10.5616 33.3783 10.4938 33.1591 10.3849C32.9605 10.2743 32.785 10.1266 32.6421 9.94986C32.4958 9.78106 32.3865 9.58348 32.3211 9.36986C32.2348 9.09415 32.1877 8.80768 32.1811 8.51886V5.51886H33.6811V8.58786C33.667 8.8228 33.746 9.05384 33.9011 9.23086C34.0704 9.37938 34.2879 9.46127 34.5131 9.46127C34.7383 9.46127 34.9558 9.37938 35.1251 9.23086C35.2026 9.14283 35.2619 9.04035 35.2997 8.92932C35.3375 8.81828 35.3529 8.70088 35.3451 8.58386V5.51486ZM37.5021 5.51486H42.0771V6.75686H40.5471V10.5459H39.0471V6.75786H37.5071L37.5021 5.51486ZM39.0571 11.1149L39.1571 10.7149C39.3477 10.6641 39.5439 10.6372 39.7411 10.6349C40.0182 10.606 40.2966 10.6769 40.5261 10.8349C40.594 10.8931 40.6485 10.9654 40.6858 11.0467C40.7231 11.128 40.7423 11.2164 40.7421 11.3059C40.7383 11.4256 40.7039 11.5423 40.6421 11.6449C40.5599 11.7752 40.4363 11.8741 40.2911 11.9259C40.0766 12.0052 39.8486 12.0415 39.6201 12.0329C39.3215 12.0279 39.0238 11.9981 38.7301 11.9439V11.5209C38.9716 11.5677 39.2171 11.5908 39.4631 11.5899C39.5976 11.6029 39.7328 11.575 39.8511 11.5099C39.8831 11.4863 39.9089 11.4554 39.9263 11.4197C39.9437 11.384 39.9522 11.3446 39.9511 11.3049C39.9508 11.2718 39.9432 11.2393 39.9289 11.2096C39.9145 11.1798 39.8938 11.1536 39.8681 11.1329C39.7927 11.0788 39.7006 11.0533 39.6081 11.0609C39.4221 11.0633 39.2367 11.0824 39.0541 11.1179L39.0571 11.1149ZM42.8171 5.51486H44.3261V10.5479H42.8221L42.8171 5.51486ZM45.2171 8.03386C45.1961 7.68612 45.2441 7.33765 45.3582 7.0085C45.4723 6.67934 45.6504 6.37599 45.8821 6.11586C46.1265 5.87984 46.4172 5.69704 46.7358 5.57897C47.0543 5.4609 47.3939 5.41013 47.7331 5.42986C48.0752 5.4078 48.4182 5.45634 48.7408 5.57246C49.0633 5.68858 49.3586 5.8698 49.6081 6.10486C49.8376 6.36035 50.014 6.65894 50.1269 6.98325C50.2399 7.30755 50.2872 7.65109 50.2661 7.99386C50.2847 8.49209 50.1861 8.98773 49.9781 9.44086C49.7939 9.80912 49.5052 10.1149 49.1481 10.3199C48.7325 10.5424 48.2653 10.6508 47.7941 10.6339C47.3243 10.6503 46.857 10.5575 46.4291 10.3629C46.0577 10.171 45.7528 9.87165 45.5541 9.50386C45.3157 9.05198 45.1998 8.54548 45.2181 8.03486L45.2171 8.03386ZM46.7231 8.04086C46.6883 8.42776 46.7844 8.81516 46.9961 9.14086C47.0907 9.24561 47.2062 9.32948 47.3351 9.38709C47.4639 9.44471 47.6034 9.4748 47.7446 9.47546C47.8857 9.47612 48.0255 9.44733 48.1549 9.39092C48.2843 9.33451 48.4005 9.25173 48.4961 9.14786C48.7082 8.79622 48.8015 8.38563 48.7621 7.97686C48.7921 7.60882 48.6939 7.24174 48.4841 6.93786C48.392 6.82937 48.2762 6.74347 48.1457 6.68678C48.0151 6.63009 47.8733 6.60411 47.7311 6.61086C47.592 6.60612 47.4536 6.63373 47.327 6.69151C47.2003 6.74929 47.0888 6.83567 47.0011 6.94386C46.789 7.26944 46.6922 7.65676 46.7261 8.04386L46.7231 8.04086ZM51.0851 5.51486H52.4911L54.3291 8.29786V5.51386H55.7481V10.5469H54.3291L52.5041 7.78786V10.5509H51.0891V5.51386L51.0851 5.51486ZM59.6731 9.71486H57.9621L57.7261 10.5449H56.1891L58.0191 5.51186H59.6561L61.4881 10.5449H59.9161L59.6731 9.71486ZM59.3561 8.62686L58.8221 6.81786L58.2871 8.62686H59.3561ZM61.9871 10.5469V5.51386H64.4951C64.8547 5.50039 65.2142 5.54221 65.5611 5.63786C65.8073 5.71804 66.0189 5.87954 66.1611 6.09586C66.3173 6.33834 66.3961 6.62257 66.3871 6.91086C66.3936 7.16271 66.3343 7.4119 66.2151 7.63386C66.101 7.83567 65.9375 8.00527 65.7401 8.12686C65.5759 8.22129 65.3977 8.28881 65.2121 8.32686C65.3513 8.3695 65.4834 8.43251 65.6041 8.51386C65.6937 8.59233 65.7742 8.68054 65.8441 8.77686C65.9247 8.87393 65.9953 8.97878 66.0551 9.08986L66.7831 10.5489H65.0831L64.2831 9.01086C64.2195 8.86427 64.1266 8.73223 64.0101 8.62286C63.9027 8.54577 63.7734 8.50512 63.6411 8.50686H63.5081V10.5489H61.9931L61.9871 10.5469ZM63.4991 7.55286H64.1341C64.2693 7.54256 64.4032 7.5198 64.5341 7.48486C64.6328 7.46489 64.7202 7.40847 64.7791 7.32686C64.8417 7.24253 64.8748 7.13989 64.8731 7.03486C64.8776 6.96528 64.8664 6.8956 64.8404 6.83089C64.8145 6.76618 64.7744 6.70809 64.7231 6.66086C64.556 6.55585 64.3585 6.50974 64.1621 6.52986H63.5011V7.55286H63.4991ZM67.2571 5.51386H71.2891V6.58786H68.7701V7.38786H71.1121V8.41486H68.7701V9.40686H71.3701V10.5469H67.2561L67.2571 5.51386ZM75.1711 9.71386H73.4561L73.2201 10.5439H71.6871L73.5171 5.51086H75.1561L76.9881 10.5439H75.4151L75.1711 9.71386ZM74.8561 8.62686L74.3211 6.81786L73.7861 8.62686H74.8561ZM79.5461 8.03286C79.5251 7.68512 79.5731 7.33665 79.6872 7.0075C79.8013 6.67834 79.9794 6.37499 80.2111 6.11486C80.4555 5.87884 80.7462 5.69604 81.0648 5.57797C81.3833 5.4599 81.7229 5.40913 82.0621 5.42886C82.4042 5.4068 82.7472 5.45534 83.0698 5.57146C83.3923 5.68758 83.6876 5.8688 83.9371 6.10386C84.1666 6.35935 84.3429 6.65794 84.4559 6.98225C84.5689 7.30655 84.6162 7.65009 84.5951 7.99286C84.6137 8.49109 84.515 8.98672 84.3071 9.43986C84.1229 9.80812 83.8342 10.1139 83.4771 10.3189C83.0615 10.5414 82.5943 10.6498 82.1231 10.6329C81.6533 10.6493 81.186 10.5565 80.7581 10.3619C80.3867 10.17 80.0818 9.87065 79.8831 9.50286C79.6447 9.05098 79.5288 8.54448 79.5471 8.03386L79.5461 8.03286ZM81.0521 8.03986C81.0173 8.42676 81.1134 8.81416 81.3251 9.13986C81.4197 9.24461 81.5352 9.32848 81.6641 9.38609C81.7929 9.44371 81.9324 9.4738 82.0736 9.47446C82.2147 9.47512 82.3545 9.44633 82.4839 9.38992C82.6133 9.33351 82.7295 9.25073 82.8251 9.14686C83.0372 8.79522 83.1305 8.38463 83.0911 7.97586C83.1211 7.60782 83.0229 7.24074 82.8131 6.93686C82.721 6.82837 82.6052 6.74247 82.4747 6.68578C82.3441 6.62909 82.2023 6.60311 82.0601 6.60986C81.921 6.60512 81.7826 6.63273 81.656 6.69051C81.5293 6.74829 81.4178 6.83467 81.3301 6.94286C81.118 7.26844 81.0212 7.65576 81.0551 8.04286L81.0521 8.03986ZM85.4141 5.51386H86.8201L88.6561 8.29786V5.51386H90.0751V10.5469H88.6561L86.8331 7.78786V10.5509H85.4181V5.51386H85.4141ZM91.0721 5.51386H92.5781V9.30686H94.9271V10.5469H91.0761V5.51386H91.0721ZM95.6721 5.51386H97.1811V10.5469H95.6721V5.51386ZM98.2721 5.51386H99.6781L101.512 8.29786V5.51386H102.931V10.5469H101.512L99.6881 7.78786V10.5509H98.2731L98.2721 5.51386ZM103.928 5.51386H107.96V6.58786H105.436V7.38786H107.778V8.41486H105.436V9.40686H108.036V10.5469H103.93V5.51386H103.928ZM45.1871 17.8399H43.4711L43.2351 18.6589H41.6961L43.5281 13.6969H45.1701L47.0031 18.6589H45.4271L45.1871 17.8399ZM44.8711 16.7659L44.3321 14.9819L43.7961 16.7659H44.8711ZM49.7551 13.6959H51.2621V17.4359H53.6121V18.6579H49.7561V13.6959H49.7551ZM54.3551 13.6959H55.8661V18.6579H54.3561L54.3551 13.6959ZM56.6031 13.6959H61.1821V14.9219H59.6471V18.6579H58.1401V14.9219H56.6051V13.6959H56.6031ZM61.9221 13.6959H63.4311V18.6579H61.9241L61.9221 13.6959ZM66.9631 16.8609V15.8289H69.2891V17.9439C68.9271 18.2093 68.5291 18.4217 68.1071 18.5749C67.712 18.6939 67.3007 18.7506 66.8881 18.7429C66.3991 18.7632 65.9128 18.6601 65.4741 18.4429C65.105 18.238 64.8087 17.9235 64.6261 17.5429C64.4201 17.1171 64.3174 16.6488 64.3261 16.1759C64.3142 15.6839 64.4274 15.1971 64.6551 14.7609C64.8728 14.3629 65.2105 14.0438 65.6201 13.8489C66.0412 13.6712 66.4965 13.5892 66.9531 13.6089C67.3616 13.5912 67.7702 13.6416 68.1621 13.7579C68.4204 13.8515 68.6497 14.0111 68.8271 14.2209C69.0167 14.4532 69.1532 14.7242 69.2271 15.0149L67.7741 15.2779C67.7235 15.1044 67.6161 14.953 67.4691 14.8479C67.3069 14.743 67.1161 14.6909 66.9231 14.6989C66.7734 14.6929 66.6244 14.7213 66.4874 14.782C66.3505 14.8427 66.2292 14.934 66.1331 15.0489C65.9081 15.3728 65.8021 15.7646 65.8331 16.1579C65.7967 16.5644 65.9027 16.9709 66.1331 17.3079C66.2367 17.424 66.3651 17.5152 66.5088 17.575C66.6525 17.6347 66.8078 17.6613 66.9631 17.6529C67.1264 17.6536 67.2888 17.6283 67.4441 17.5779C67.6279 17.5132 67.804 17.4283 67.9691 17.3249V16.8569H66.9641L66.9631 16.8609ZM70.2441 13.6959H71.7561V18.6579H70.2471L70.2441 13.6959ZM72.8941 13.6959H74.4061V18.6579H72.8971L72.8941 13.6959ZM75.4841 13.6959H76.9911V17.4359H79.3411V18.6579H75.4861V13.6959H75.4841ZM79.7191 16.1799C79.6986 15.836 79.7471 15.4914 79.8616 15.1665C79.9761 14.8416 80.1545 14.5429 80.3861 14.2879C80.6321 14.0544 80.9234 13.8738 81.2419 13.7574C81.5605 13.6409 81.8995 13.5911 82.2381 13.6109C82.5794 13.574 82.9245 13.6141 83.2483 13.728C83.5721 13.842 83.8662 14.0269 84.1092 14.2693C84.3522 14.5117 84.5379 14.8055 84.6526 15.129C84.7673 15.4525 84.8081 15.7975 84.7721 16.1389C84.7906 16.6306 84.6918 17.1197 84.4841 17.5659C84.2987 17.9305 84.0096 18.2321 83.6531 18.4329C83.2363 18.6527 82.7691 18.7596 82.2981 18.7429C81.8287 18.7592 81.3618 18.6679 80.9331 18.4759C80.5628 18.2877 80.2576 17.9926 80.0571 17.6289C79.8185 17.1843 79.7025 16.6841 79.7211 16.1799H79.7191ZM81.2261 16.1869C81.1926 16.5675 81.2892 16.9482 81.5001 17.2669C81.5956 17.3701 81.7114 17.4527 81.8401 17.5093C81.9689 17.566 82.1079 17.5956 82.2486 17.5962C82.3893 17.5969 82.5286 17.5686 82.6579 17.5132C82.7871 17.4577 82.9036 17.3762 83.0001 17.2739C83.2117 16.9283 83.3051 16.5232 83.2661 16.1199C83.2965 15.7562 83.1981 15.3934 82.9881 15.0949C82.895 14.9876 82.7788 14.9029 82.6482 14.8471C82.5175 14.7913 82.376 14.7659 82.2341 14.7729C82.0953 14.7679 81.9572 14.7949 81.8304 14.8518C81.7037 14.9086 81.5917 14.9939 81.5031 15.1009C81.2903 15.4209 81.1929 15.804 81.2271 16.1869H81.2261ZM85.6011 18.6579V13.6959H88.1121C88.4719 13.6822 88.8317 13.7233 89.1791 13.8179C89.4247 13.896 89.6363 14.0554 89.7791 14.2699C89.9346 14.5071 90.0135 14.7863 90.0051 15.0699C90.0115 15.3185 89.9522 15.5645 89.8331 15.7829C89.7178 15.9819 89.5545 16.149 89.3581 16.2689C89.1934 16.363 89.0149 16.4305 88.8291 16.4689C88.968 16.511 89.1 16.573 89.2211 16.6529C89.3109 16.7302 89.3918 16.8175 89.4621 16.9129C89.5426 17.0082 89.6133 17.1114 89.6731 17.2209L90.4021 18.6589H88.7021L87.9021 17.1419C87.8379 16.9971 87.7447 16.8671 87.6281 16.7599C87.5203 16.6838 87.3911 16.6439 87.2591 16.6459H87.1261V18.6599H85.6051L85.6011 18.6579ZM87.1141 15.7059H87.7561C87.8912 15.6959 88.0252 15.6735 88.1561 15.6389C88.2545 15.6194 88.3419 15.5637 88.4011 15.4829C88.4637 15.4 88.4968 15.2987 88.4951 15.1949C88.4995 15.126 88.4883 15.0571 88.4623 14.9932C88.4364 14.9293 88.3963 14.8721 88.3451 14.8259C88.1772 14.7219 87.9796 14.6765 87.7831 14.6969H87.1161V15.7059H87.1141Z" fill="#98A2B3"/>
</g>
<defs>
<clipPath id="clip0_9186_16332">
<rect width="123.633" height="30.78" fill="white" transform="translate(0 0.449219)"/>
</clipPath>
</defs>
</svg>
