<svg width="120" height="50" viewBox="0 0 120 50" fill="none" xmlns="http://www.w3.org/2000/svg">
<g clip-path="url(#clip0_1409_57611)">
<path fill-rule="evenodd" clip-rule="evenodd" d="M115 50H5C2.2 50 0 47.8 0 45V5C0 2.2 2.2 0 5 0H115C117.8 0 120 2.2 120 5V45C120 47.8 117.8 50 115 50Z" fill="white"/>
<path fill-rule="evenodd" clip-rule="evenodd" d="M100.57 15.1494L104.558 17.3359L106.803 19.7207L108.545 19.124L111.092 24.3916L110.488 28.5986L111.795 28.168L110.02 32.54L103.787 34.793L100.168 34.6602L95.7451 33.1699L93.8691 29.9893L93.0312 25.0537L94.2373 25.6172L94.3047 22.5361L96.0137 19.5879L99.0957 16.6396L99.6992 18.3291L100.57 15.1494ZM102.212 22.8018L96.7842 22.835L96.918 26.6113L100.604 26.4453L100.872 30.3545V32.5732L103.954 32.6064L104.155 30.2881L104.289 26.3457L107.808 26.2461L107.941 23.1328L107.842 22.6357L102.212 22.8018Z" fill="black"/>
<path d="M19.2021 21.8154C19.3979 21.8502 19.5517 22.0022 19.5518 22.2051L19.7861 27.207L20.6582 27.0088L20.6914 22.5693C20.6915 22.3376 20.8925 22.1719 21.127 22.1719L23.1709 22.2715C23.2714 22.2715 23.3715 22.3049 23.4385 22.3711C23.539 22.4373 23.5732 22.5696 23.5732 22.6689V33.1367C23.5732 33.3354 23.4054 33.5341 23.1709 33.5342H23.1377L21.0596 33.4014C20.9591 33.4013 20.8248 33.3688 20.7578 33.2695C20.6574 33.2033 20.624 33.07 20.624 32.9707L20.4902 29.625L19.7197 29.5586L19.9541 33.3018C19.9541 33.4011 19.8873 33.5344 19.8203 33.6006C19.7533 33.6999 19.6191 33.7324 19.5186 33.7324L17.5078 33.7988C17.2734 33.7987 17.0723 33.5999 17.0723 33.3682L16.6699 22.2715C16.6699 22.1721 16.7377 22.0399 16.8047 21.9736C16.8717 21.8742 17.0059 21.8408 17.1064 21.8408L19.1162 21.8076L19.2021 21.8154Z" fill="black"/>
<path d="M68.3379 21.6748C68.4387 21.6748 68.5398 21.7082 68.6406 21.7744C68.7072 21.8406 68.7742 21.973 68.7744 22.0723C68.9419 25.3845 67.3672 27.2732 66.7305 28.0684C68.2377 29.2605 68.8739 32.5709 68.9746 32.9375C68.9746 33.0368 68.908 33.1701 68.8408 33.2363C68.7741 33.3024 68.6734 33.3681 68.5732 33.3682H66.6299L66.5449 33.3613C66.3552 33.3269 66.2237 33.1778 66.1943 33.0039C66.0373 31.6069 65.0855 30.1809 64.6631 29.8164L64.5859 29.7578L64.5518 32.9043C64.5518 33.1362 64.3843 33.3018 64.1836 33.335L62.374 33.5674C62.2398 33.5673 62.1393 33.534 62.0391 33.4678C61.9719 33.4016 61.9053 33.3022 61.9053 33.1699L61.6709 22.4375C61.6709 22.3381 61.738 22.2049 61.8047 22.1387C61.872 22.0395 62.0062 22.0068 62.1064 22.0068L64.418 21.9736L64.498 21.9844C64.5814 22.006 64.6696 22.0557 64.7197 22.1055C64.8206 22.1717 64.8545 22.3049 64.8545 22.4043L64.7197 26.4453C65.591 25.1866 66.2278 23.199 66.1611 22.2715C66.1611 22.0396 66.3283 21.8077 66.5625 21.8076L68.3379 21.6748Z" fill="black"/>
<path d="M53.0254 21.9072C53.26 21.9072 53.4274 22.0728 53.4609 22.3047L53.5957 23.8281V23.9277C53.5957 24.1594 53.3945 24.3582 53.1602 24.3584H50.5459V26.876L52.3223 26.7764L52.417 26.7832C52.5065 26.7972 52.5819 26.8347 52.6572 26.9092C52.7242 26.9755 52.7578 27.1078 52.7578 27.2402L52.5898 28.665C52.5562 28.8634 52.3892 29.0291 52.1885 29.0293L50.5459 29.1279L50.6465 31.4473L53.1602 31.248L53.2559 31.2549C53.3502 31.2688 53.4448 31.3063 53.5957 31.3809C53.696 31.4801 53.7294 31.5796 53.7295 31.7119L53.6963 33.1035C53.6963 33.3021 53.4951 33.5007 53.2607 33.501H48.4355L48.3496 33.4922C48.1538 33.4512 48 33.2733 48 33.0703L47.832 22.4697C47.7988 22.2381 48 22.0391 48.2344 22.0391L53.0254 21.9072Z" fill="black"/>
<path d="M76.4473 21.7744C77.9552 21.6751 79.1283 22.0068 79.8652 22.835C80.7362 23.7293 80.7031 24.922 80.7031 24.9551C80.7028 25.1866 80.5015 25.3524 80.2676 25.3525L78.3574 25.3193C78.2235 25.3193 78.0887 25.2527 78.0215 25.1533C77.9213 25.054 77.8883 24.9215 77.9219 24.7891C77.9219 24.6566 77.9556 24.3248 77.7881 24.126C77.6876 24.0266 77.5298 23.9652 77.3018 23.9404L77.0498 23.9277C76.5475 23.961 76.4134 24.193 76.3467 24.7891V24.8223C76.2459 25.5841 76.1791 26.8094 76.1455 27.9023C76.1119 28.333 76.1117 28.7312 76.0781 29.0625C76.0115 30.5197 76.2799 31.1158 76.5146 31.3477C76.6485 31.4801 76.8158 31.5468 77.0498 31.5469H77.084C77.3854 31.5468 77.5197 31.447 77.5869 31.3477C77.8545 31.0163 77.8217 30.3208 77.7881 30.1221C77.7881 30.0228 77.8211 29.8904 77.8877 29.791C77.9549 29.6916 78.0555 29.625 78.1895 29.625L79.7979 29.5586L79.8828 29.5664C80.0723 29.6013 80.204 29.7542 80.2334 29.957V30.0557C80.3006 30.6187 80.4009 31.6455 79.6973 32.4736C79.2283 33.0367 78.4244 33.3684 77.3857 33.4678C77.2518 33.5009 77.0836 33.501 76.916 33.501C74.4031 33.5008 73.7662 31.7452 73.5986 30.9834C73.3644 29.7247 73.431 28.2667 73.5654 26.2461C73.5985 25.8818 73.5992 25.5175 73.6328 25.1533C73.8004 22.1721 75.8107 21.8076 76.4473 21.7744Z" fill="black"/>
<path d="M30.6768 21.3105C30.8106 21.3106 30.911 21.3441 31.0449 21.4434C31.1454 21.5096 31.1787 21.6088 31.1787 21.7412C31.1787 22.503 31.0446 29.2926 30.9775 30.0557C30.81 31.8776 30.3411 33.4015 27.7275 33.4678C25.3822 33.5339 24.5784 31.6127 24.5449 30.5527C24.5114 30.2543 24.4443 22.0723 24.4443 22.0723C24.4444 21.9399 24.4777 21.8074 24.5781 21.7412C24.6786 21.6751 24.7791 21.6416 24.9131 21.6416L27.0244 21.874C27.2253 21.9073 27.3926 22.0729 27.3926 22.3047C27.3925 22.3793 27.3252 28.8642 27.3252 29.8242C27.3252 30.6523 27.4935 31.2812 27.8955 31.248C28.4984 31.2147 28.4316 30.2878 28.4316 29.7578C28.4651 28.8653 28.4318 21.9047 28.4316 21.874C28.4316 21.6421 28.5995 21.4434 28.834 21.4434L30.6768 21.3105Z" fill="black"/>
<path d="M15.4385 21.7158C15.6121 21.7506 15.7694 21.9027 15.7988 22.1055L15.8662 24.0273C15.8996 24.1597 15.8326 24.2591 15.7656 24.3584C15.6986 24.4246 15.5644 24.4912 15.4639 24.4912L13.6543 24.5244L13.8896 32.8721C13.8894 33.1037 13.7217 33.3017 13.4873 33.3018L11.4434 33.4346C11.3428 33.4346 11.2421 33.4012 11.1416 33.335C11.0747 33.2686 11.0078 33.1364 11.0078 33.0371L10.6055 24.5244L8.7959 24.5566C8.56147 24.5565 8.36035 24.3909 8.36035 24.1592L8.22656 22.3711C8.22656 22.2717 8.25983 22.1385 8.36035 22.0391C8.42739 21.9729 8.56165 21.9072 8.66211 21.9072L15.3633 21.708L15.4385 21.7158Z" fill="black"/>
<path d="M38.8789 21.7812C38.9653 21.7952 39.0276 21.8327 39.0527 21.9072C39.1197 21.9735 39.1875 22.0726 39.1875 22.2051L39.3213 32.9707C39.3213 33.0701 39.288 33.2033 39.1875 33.2695C39.1205 33.3688 39.0194 33.4014 38.9189 33.4014H36.875L36.8145 33.3975C36.6755 33.3763 36.5656 33.2817 36.5068 33.1367L34.8311 28.4326L35.1328 32.9375C35.1328 33.07 35.0996 33.1701 34.999 33.2695C34.8986 33.3688 34.7979 33.4013 34.6641 33.4014L32.7539 33.2695C32.5195 33.2364 32.3517 33.0706 32.3516 32.8389L32.084 22.5029C32.0507 22.2712 32.2177 22.1054 32.4521 22.0723L34.3623 21.874C34.5298 21.841 34.7308 21.9732 34.7979 22.1387L36.7744 27.5381L36.4727 22.3047C36.4727 22.2055 36.5064 22.1061 36.5732 22.0068C36.6402 21.9407 36.7745 21.8741 36.875 21.874L38.7852 21.7744L38.8789 21.7812Z" fill="black"/>
<path d="M88.2275 21.5488C88.4234 21.5774 88.581 21.7044 88.6104 21.9072C89.1801 25.3853 87.5047 26.909 86.667 27.6709C88.3417 29.194 89.18 32.4047 89.2139 32.54C89.2475 32.6394 89.2132 32.7725 89.1465 32.8057C89.0793 32.9048 88.9785 32.9707 88.8447 32.9707L86.6338 33.2031C86.3991 33.2362 86.1978 33.0706 86.1641 32.8389C85.9965 31.5471 85.0253 29.9899 84.4219 29.3936L84.2539 32.7393C84.2538 32.938 84.0868 33.1036 83.8857 33.1367L82.0098 33.335H81.9756L81.8955 33.3291C81.8127 33.3167 81.7252 33.2857 81.6748 33.2363C81.6081 33.1701 81.54 33.07 81.54 32.9375L81.2725 22.2715C81.2389 22.0396 81.4064 21.874 81.6406 21.8408L83.8525 21.6094C83.9864 21.5763 84.0872 21.6418 84.1875 21.708C84.2541 21.8073 84.3211 21.9068 84.3213 22.0391L84.2881 26.3125C86.0296 24.8225 85.562 22.3069 85.5615 22.2715C85.5279 22.1391 85.5613 22.0397 85.6279 21.9404C85.6951 21.841 85.8294 21.7744 85.9297 21.7744L88.1416 21.543L88.2275 21.5488Z" fill="black"/>
<path fill-rule="evenodd" clip-rule="evenodd" d="M57.0469 21.543C60.33 21.5431 60.8664 23.5299 60.9668 25.0205C61.1343 27.0743 60.4307 28.1019 59.6602 28.665L60.7324 32.6396C60.7655 32.739 60.7322 32.8713 60.665 32.9707C60.5979 33.07 60.498 33.1366 60.3643 33.1367L58.8564 33.2695H58.8223L58.7373 33.2627C58.5481 33.2345 58.4161 33.1112 58.3867 32.9375L57.5488 29.3604L56.7783 29.3936V32.7393C56.7783 32.8386 56.745 32.9709 56.6445 33.0371C56.544 33.1034 56.4435 33.1367 56.3096 33.1367L54.8018 33.0371C54.5672 33.004 54.3994 32.8383 54.3994 32.6064L54.2656 22.2383C54.2656 22.0395 54.3996 21.8407 54.6006 21.8076C55.5053 21.642 56.3432 21.543 57.0469 21.543ZM57.1807 23.9609C57.0467 23.9609 56.9124 23.961 56.7783 23.9941V27.041C57.2139 27.0079 57.8506 26.8759 58.2529 26.4785C58.5208 26.2135 58.6214 25.8817 58.5547 25.418C58.4537 24.2258 57.7503 23.961 57.1807 23.9609Z" fill="black"/>
<path fill-rule="evenodd" clip-rule="evenodd" d="M41.9873 21.5566C45.0033 21.6926 46.6136 22.849 46.9277 25.0537C47.0953 26.2463 47.1617 28.7973 46.5586 30.6523C45.8213 32.9047 42.6049 33.1367 41.2646 33.1367C40.8961 33.1367 40.6279 33.1035 40.6279 33.1035C40.3934 33.1034 40.2256 32.9046 40.2256 32.6729L40.5615 21.9404C40.5615 21.7417 40.7284 21.5431 40.9629 21.543H41.3652L41.9873 21.5566ZM42.7725 30.7852C43.409 30.5533 43.9783 30.4534 44.2129 28.6318C44.4475 26.8431 44.4482 25.2192 43.9121 24.5898C43.5771 24.1263 43.3087 24.1267 43.0742 24.0605L42.7725 30.7852Z" fill="black"/>
<path d="M72.0918 21.4434C72.2256 21.4434 72.3256 21.4768 72.4258 21.543C72.493 21.6423 72.5605 21.7415 72.5605 21.874L72.7285 32.4736C72.7285 32.7054 72.5608 32.9041 72.3262 32.9043L70.0811 33.0703C69.9802 33.1034 69.8796 33.0369 69.7793 32.9707C69.6787 32.9044 69.6455 32.8052 69.6455 32.6729L69.6787 22.1387C69.6788 21.9069 69.8468 21.7411 70.0479 21.708L72.0918 21.4434Z" fill="black"/>
</g>
<defs>
<clipPath id="clip0_1409_57611">
<rect width="120" height="50" fill="white"/>
</clipPath>
</defs>
</svg>
