<svg width="32" height="32" viewBox="0 0 32 32" fill="none" xmlns="http://www.w3.org/2000/svg">
<rect width="32" height="32" rx="10" fill="url(#paint0_linear_8970_60112)"/>
<path d="M13.6667 9.6C13.6667 9.03995 13.6667 8.75992 13.7757 8.54601C13.8715 8.35785 14.0245 8.20487 14.2127 8.10899C14.4266 8 14.7066 8 15.2667 8H16.7333C17.2934 8 17.5734 8 17.7873 8.10899C17.9755 8.20487 18.1285 8.35785 18.2243 8.54601C18.3333 8.75992 18.3333 9.03995 18.3333 9.6V22.4C18.3333 22.9601 18.3333 23.2401 18.2243 23.454C18.1285 23.6422 17.9755 23.7951 17.7873 23.891C17.5734 24 17.2934 24 16.7333 24H15.2667C14.7066 24 14.4266 24 14.2127 23.891C14.0245 23.7951 13.8715 23.6422 13.7757 23.454C13.6667 23.2401 13.6667 22.9601 13.6667 22.4V9.6Z" fill="white"/>
<path d="M8 13.6C8 13.0399 8 12.7599 8.10899 12.546C8.20487 12.3578 8.35785 12.2049 8.54601 12.109C8.75992 12 9.03995 12 9.6 12H11.0667C11.6267 12 11.9067 12 12.1207 12.109C12.3088 12.2049 12.4618 12.3578 12.5577 12.546C12.6667 12.7599 12.6667 13.0399 12.6667 13.6V22.4C12.6667 22.9601 12.6667 23.2401 12.5577 23.454C12.4618 23.6422 12.3088 23.7951 12.1207 23.891C11.9067 24 11.6267 24 11.0667 24H9.6C9.03995 24 8.75992 24 8.54601 23.891C8.35785 23.7951 8.20487 23.6422 8.10899 23.454C8 23.2401 8 22.9601 8 22.4V13.6Z" fill="white"/>
<path d="M19.4423 16.546C19.3333 16.7599 19.3333 17.0399 19.3333 17.6V22.4C19.3333 22.9601 19.3333 23.2401 19.4423 23.454C19.5382 23.6422 19.6912 23.7951 19.8793 23.891C20.0932 24 20.3733 24 20.9333 24H22.4C22.96 24 23.2401 24 23.454 23.891C23.6421 23.7951 23.7951 23.6422 23.891 23.454C24 23.2401 24 22.9601 24 22.4V17.6C24 17.0399 24 16.7599 23.891 16.546C23.7951 16.3578 23.6421 16.2049 23.454 16.109C23.2401 16 22.96 16 22.4 16H20.9333C20.3733 16 20.0932 16 19.8793 16.109C19.6912 16.2049 19.5382 16.3578 19.4423 16.546Z" fill="white"/>
<defs>
<linearGradient id="paint0_linear_8970_60112" x1="0" y1="32" x2="32" y2="0" gradientUnits="userSpaceOnUse">
<stop stop-color="#700036"/>
<stop offset="1" stop-color="#FF017C"/>
</linearGradient>
</defs>
</svg>
