<svg width="21" height="22" viewBox="0 0 21 22" fill="none" xmlns="http://www.w3.org/2000/svg">
    <path d="M20.5 4.23636C20.5 3.17273 19.6182 2.30909 18.5364 2.30909H17.7545L17.8273 1.68182C17.8455 1.50909 17.7909 1.34545 17.6727 1.20909C17.5545 1.07273 17.3818 1 17.2 1H3.80909C3.62727 1 3.45455 1.07273 3.33636 1.20909C3.21818 1.33636 3.16364 1.50909 3.18182 1.68182L3.25455 2.30909H2.47273C1.38182 2.30909 0.5 3.17273 0.5 4.23636C0.5 7.00909 2.16364 9.56364 4.72727 10.7273H4.73636V10.7455C5.56364 12.1727 6.9 13.2273 8.49091 13.7182H8.51818V16.0182C8.51818 16.4818 8.1 17.1455 7.80909 17.1455C6.72727 17.1455 5.84545 18.0091 5.84545 19.0727V20.3818C5.84545 20.7182 6.12727 21 6.47273 21H14.5091C14.8545 21 15.1364 20.7273 15.1364 20.3818V19.0727C15.1364 18.0091 14.2545 17.1455 13.1727 17.1455C12.8818 17.1455 12.4636 16.4818 12.4636 16.0182V13.7182H12.4909C14.0818 13.2182 15.4182 12.1636 16.2455 10.7364L16.2545 10.7182C18.8273 9.54545 20.4818 7 20.4818 4.22727L20.5 4.23636ZM3.93636 8.79091C2.55455 7.66364 1.75455 6 1.75455 4.22727C1.75455 3.84545 2.07273 3.53636 2.46364 3.53636H3.39091V3.57273L3.92727 8.26364C3.94545 8.42727 3.97273 8.59091 4 8.75455L4.01818 8.86364L3.93636 8.79091ZM13.1818 18.3818C13.5727 18.3818 13.8909 18.6909 13.8909 19.0727V19.7636H7.11818V19.0727C7.11818 18.6909 7.43636 18.3818 7.82727 18.3818H13.1818ZM11.4727 17.0909L11.5 17.1455H9.50909L9.53636 17.0909C9.7 16.7364 9.8 16.3545 9.8 16.0182V13.9727H9.84545C10.3 14.0182 10.7273 14.0182 11.1727 13.9727H11.2182V16.0091C11.2182 16.3455 11.3091 16.7273 11.4818 17.0818L11.4727 17.0909ZM15.8182 8.12727C15.7455 8.77273 15.5545 9.39091 15.2545 9.96364C15.2545 9.97273 15.2455 9.98182 15.2364 9.99091C14.5091 11.3364 13.2273 12.3091 11.7091 12.6545H11.7C11.3091 12.7455 10.9091 12.7909 10.5 12.7909C10.0909 12.7909 9.68182 12.7455 9.29091 12.6545C7.77273 12.3091 6.49091 11.3364 5.76364 9.99091L5.74545 9.96364C5.44545 9.39091 5.25455 8.77273 5.17273 8.12727L4.5 2.22727H16.4818L15.8091 8.12727H15.8182ZM17.0636 8.79091L16.9818 8.86364L17 8.75455C17.0273 8.59091 17.0545 8.42727 17.0727 8.26364L17.6091 3.53636H18.5364C18.9273 3.53636 19.2455 3.84545 19.2455 4.22727C19.2455 5.99091 18.4545 7.65455 17.0636 8.79091Z" fill="#B5B5BA" stroke="#B5B5BA" stroke-width="0.25"/>
</svg>
