<svg width="19" height="19" viewBox="0 0 19 19" fill="none" xmlns="http://www.w3.org/2000/svg">
<g clip-path="url(#clip0_9186_15874)">
<path d="M18.1537 5.73945C18.1537 5.73945 17.9779 4.49844 17.4365 3.95352C16.751 3.23633 15.9846 3.23281 15.633 3.19062C13.1158 3.00781 9.33652 3.00781 9.33652 3.00781H9.32949C9.32949 3.00781 5.5502 3.00781 3.03301 3.19062C2.68145 3.23281 1.91504 3.23633 1.22949 3.95352C0.688086 4.49844 0.51582 5.73945 0.51582 5.73945C0.51582 5.73945 0.333008 7.19844 0.333008 8.65391V10.018C0.333008 11.4734 0.512305 12.9324 0.512305 12.9324C0.512305 12.9324 0.688086 14.1734 1.22598 14.7184C1.91152 15.4355 2.81152 15.4109 3.2123 15.4883C4.65371 15.6254 9.33301 15.6676 9.33301 15.6676C9.33301 15.6676 13.1158 15.6605 15.633 15.4813C15.9846 15.4391 16.751 15.4355 17.4365 14.7184C17.9779 14.1734 18.1537 12.9324 18.1537 12.9324C18.1537 12.9324 18.333 11.477 18.333 10.018V8.65391C18.333 7.19844 18.1537 5.73945 18.1537 5.73945ZM7.47324 11.6738V6.61484L12.3354 9.15312L7.47324 11.6738Z" fill="#D0D5DD"/>
</g>
<defs>
<clipPath id="clip0_9186_15874">
<rect width="18" height="18" fill="white" transform="translate(0.333008 0.339844)"/>
</clipPath>
</defs>
</svg>
