<?xml version="1.0" encoding="UTF-8"?>
<svg id="Layer_1" data-name="Layer 1" xmlns="http://www.w3.org/2000/svg" width="21.2mm" height="15.9mm" version="1.1" viewBox="0 0 60 45">
  <defs>
    <style>
      .cls-1 {
        fill: #878ea8;
        stroke-width: 0px;
      }
    </style>
  </defs>
  <path class="cls-1" d="M23,14.8l-6.5,15.5h-4.2l-3.2-12.4c-.2-.8-.4-1-1-1.4-1-.5-2.6-1-4-1.3v-.5h6.9c.9,0,1.7.6,1.9,1.6l1.7,9,4.2-10.6h4.2ZM39.7,25.2c0-4.1-5.7-4.3-5.6-6.2,0-.6.5-1.1,1.7-1.3.6,0,2.2-.1,4,.7l.7-3.3c-1-.4-2.2-.7-3.8-.7-4,0-6.8,2.1-6.8,5.1,0,2.2,2,3.5,3.5,4.2,1.6.8,2.1,1.2,2.1,1.9,0,1-1.2,1.5-2.4,1.5-2,0-3.2-.5-4.1-1l-.7,3.4c.9.4,2.7.8,4.5.8,4.2,0,7-2.1,7-5.3M50.1,30.3h3.7l-3.2-15.5h-3.4c-.8,0-1.4.4-1.7,1.1l-6,14.4h4.2l.8-2.3h5.2l.5,2.3ZM45.7,24.8l2.1-5.8,1.2,5.8h-3.3ZM28.8,14.8l-3.3,15.5h-4l3.3-15.5h4Z"/>
</svg>