<svg width="188" height="90" viewBox="0 0 188 90" fill="none" xmlns="http://www.w3.org/2000/svg">
<path d="M28.6519 42.3929L23.0039 42.3929V61.2982H28.6519V42.3929Z" fill="#898FA9"/>
<path d="M43 42.5C43 42.5 42.8549 43.2784 42.4972 44.1441C42.1396 45.0097 41.6129 45.7965 40.9476 46.4592C39.5951 47.8065 37.7635 48.5723 35.8475 48.5916C32.4313 48.614 29.1629 49.9629 26.7562 52.3438C24.35 54.7247 23.001 57.9436 23.0039 61.2982H28.6519C28.6486 60.3624 28.8316 59.4352 29.1902 58.5698C29.5489 57.7044 30.0763 56.9179 30.7421 56.2553C32.0955 54.9085 33.9271 54.1424 35.8434 54.1218C39.2596 54.1006 42.5277 52.7516 44.9335 50.3703C47.3389 47.989 48.6541 45.8538 48.6479 42.5H43Z" fill="#898FA9"/>
<path d="M35.8436 28.7018C32.4278 28.7242 29.1598 30.0731 26.7548 32.454C24.3499 34.8357 23.0025 38.055 23.0078 41.4084H28.6517C28.6474 40.4727 28.8295 39.5453 29.1876 38.6797C29.5457 37.8141 30.0726 37.0274 30.7382 36.3647C32.0913 35.0175 33.9233 34.2518 35.8395 34.2323C37.7602 34.2527 39.5952 35.0186 40.9421 36.3635C41.6078 37.0263 42.1347 37.8132 42.4926 38.6791C42.8505 39.5449 43.0322 40.4725 43.0274 41.4084H48.6754C48.6819 38.0554 47.3354 34.8361 44.9308 32.4548C42.5259 30.0739 39.259 28.7242 35.8436 28.7018Z" fill="#898FA9"/>
<path d="M121.439 39.8689L119.375 42.3402C118.479 41.4562 117.272 40.9537 116.009 40.9396C114.95 40.9396 114.403 41.2965 114.403 41.9834C114.403 42.5476 114.794 42.8471 115.966 43.292L117.424 43.8868C120.332 45.0381 121.638 46.2086 121.638 48.3845C121.667 49.0507 121.531 49.7138 121.24 50.3148C120.948 50.9183 120.512 51.4414 119.969 51.8385C118.756 52.71 117.283 53.1506 115.786 53.0893C113.117 53.0893 111.057 52.1376 109.572 50.2301L111.632 47.7897C112.937 49.1289 114.368 49.7852 115.845 49.7852C116.936 49.7852 117.756 49.3668 117.756 48.5646C117.756 47.9392 117.33 47.7013 116.193 47.2255L114.586 46.5695C111.827 45.4679 110.494 44.2473 110.494 42.0754C110.494 39.3087 112.738 37.6392 116.013 37.6392C118.276 37.6351 120.07 38.3798 121.439 39.8689ZM91.8266 38.1114H88.0665V39.7039C85.9911 37.1633 80.82 36.9213 78.0059 39.9304C75.3206 42.797 75.1917 47.989 78.0059 50.994C80.82 53.999 85.9874 53.757 88.0628 51.2164V52.8094H91.8229L91.8266 38.1114ZM84.0097 49.5049C78.8386 49.5049 78.8308 41.4154 84.0097 41.4154C89.0515 41.4154 89.0712 49.5049 84.0097 49.5049ZM58.2363 57.4029H61.9923V51.2274C64.0718 53.768 69.2429 54.01 72.0529 51.005C74.8634 48.0004 74.7382 42.808 72.0529 39.9374C69.2388 36.9327 64.0677 37.1743 61.9923 39.7149V38.122H58.2399L58.2363 57.4029ZM66.0532 41.4268C71.2284 41.4268 71.2206 49.5163 66.0532 49.5163C60.9917 49.5163 61.0151 41.4268 66.061 41.4268H66.0532ZM164.996 38.0348H161.236V39.6269C159.156 37.0867 153.989 36.8447 151.175 39.8534C148.49 42.724 148.361 47.9124 151.175 50.9174C153.989 53.922 159.156 53.6841 161.232 51.1398V52.7324H164.992L164.996 38.0348ZM157.179 49.4283C152.012 49.4283 152.004 41.3384 157.179 41.3384C162.221 41.3384 162.241 49.4242 157.175 49.4242L157.179 49.4283ZM105.554 38.0075L101.645 47.6822L97.9749 38.0075H93.6521L99.3978 51.8805C99.218 52.8705 98.4087 53.9717 95.7431 54.0104V57.4832C99.2061 57.7174 101.797 55.9713 103.017 53.2274L109.861 37.9961L105.554 38.0075ZM147.923 41.6497V37.8119C147.504 37.75 147.081 37.7179 146.657 37.7158C145.752 37.6886 144.852 37.8408 144.008 38.1635C143.165 38.4851 142.397 38.9711 141.747 39.5927C141.092 40.2464 140.579 41.0276 140.242 41.8872C139.906 42.7447 139.753 43.6622 139.793 44.5814V52.8281H143.889V44.3863C143.871 44.015 143.93 43.6439 144.063 43.2964C144.196 42.9489 144.4 42.6327 144.663 42.3675C144.926 42.1005 145.242 41.8897 145.59 41.7483C145.94 41.6062 146.314 41.5362 146.692 41.5425C147.104 41.5466 147.516 41.5821 147.923 41.6497ZM130.756 37.6583C129.2 37.6607 127.679 38.1176 126.382 38.9722C125.092 39.822 124.086 41.0337 123.491 42.4531C122.9 43.8672 122.751 45.4248 123.061 46.9244C123.374 48.4271 124.132 49.8028 125.238 50.875C128.513 53.9644 134.134 53.6112 137.006 51.2588L135.443 48.3996C133.293 50.0231 128.079 50.5911 127.008 46.6999H137.73C137.831 45.2186 138.089 43.0809 136.948 41.0663C135.056 37.6815 131.538 37.6583 130.756 37.6583ZM130.604 40.905C132.328 40.905 133.704 41.9911 133.829 43.6949H127.063C127.591 41.9911 128.939 40.905 130.604 40.905Z" fill="#898FA9"/>
</svg>
