<?xml version="1.0" encoding="utf-8"?>
<!-- Generator: Adobe Illustrator 27.1.1, SVG Export Plug-In . SVG Version: 6.00 Build 0)  -->
<svg version="1.1" id="Layer_1" xmlns="http://www.w3.org/2000/svg" xmlns:xlink="http://www.w3.org/1999/xlink" x="0px" y="0px"
	 width="60px" height="45px" viewBox="0 0 60 45" style="enable-background:new 0 0 60 45;" xml:space="preserve">
<style type="text/css">
	.st0{fill-rule:evenodd;clip-rule:evenodd;fill:#878EA8;}
	.st1{fill:#878EA8;}
	.st2{fill-rule:evenodd;clip-rule:evenodd;fill:url(#path277_00000052821082046397683710000017509417291351789705_);}
	.st3{fill-rule:evenodd;clip-rule:evenodd;fill:url(#path279_00000005244571251523337250000001809902598269017530_);}
	.st4{fill:url(#SVGID_1_);}
	.st5{fill:url(#SVGID_00000147204909613270816180000016180094690251731858_);}
	.st6{fill:url(#SVGID_00000029730980223819199960000013965050365057154744_);}
	.st7{fill:url(#SVGID_00000012436634112462722270000004016725339055583126_);}
	.st8{fill:url(#SVGID_00000058588989912461851250000010738042557807265156_);}
	.st9{fill:url(#SVGID_00000100342378521417989340000009524168809232680329_);}
	.st10{fill:url(#SVGID_00000103243310305518908260000015815060924111112097_);}
	.st11{fill:url(#SVGID_00000063623808032044958480000015799274067093616020_);}
	.st12{fill:url(#SVGID_00000093879768421968224620000007485500999502372775_);}
	.st13{fill:url(#SVGID_00000019675733639836550500000003312739049256892033_);}
</style>
<g id="g281" transform="translate(-8.9493592)">
	
		<linearGradient id="path277_00000135679230541603169050000016253044908128124073_" gradientUnits="userSpaceOnUse" x1="5738.1865" y1="-290.8042" x2="5839.647" y2="-190.7557" gradientTransform="matrix(0.1885 0 0 -0.1967 -1054.7719 -25.2643)">
		<stop  offset="0.113" style="stop-color:#878EA8"/>
		<stop  offset="0.742" style="stop-color:#878EA8"/>
		<stop  offset="1" style="stop-color:#878EA8"/>
	</linearGradient>
	
		<path id="path277" style="fill-rule:evenodd;clip-rule:evenodd;fill:url(#path277_00000135679230541603169050000016253044908128124073_);" d="
		M38.4,16.4c-0.3,1.8-0.5,3.4-0.8,5.8c1,0,3.3,0.4,3.8-2.9C41.9,16.5,40,16.3,38.4,16.4z"/>
	
		<linearGradient id="path279_00000070824555408174504820000000528421462306234518_" gradientUnits="userSpaceOnUse" x1="5747.8779" y1="-300.6321" x2="5849.3384" y2="-200.5836" gradientTransform="matrix(0.1885 0 0 -0.1967 -1054.7719 -25.2643)">
		<stop  offset="0.113" style="stop-color:#878EA8"/>
		<stop  offset="0.742" style="stop-color:#878EA8"/>
		<stop  offset="1" style="stop-color:#878EA8"/>
	</linearGradient>
	
		<path id="path279" style="fill-rule:evenodd;clip-rule:evenodd;fill:url(#path279_00000070824555408174504820000000528421462306234518_);" d="
		M47.3,29.7c0.4,0.9,0,2-0.8,2.4c-0.5,0.3-1,0.5-1.6,0.6c-0.9,0.2-1.8,0.3-2.7,0.4c-1.5,0-2.9-0.8-3.6-1.9c-0.2,0.4-0.8,1.1-1.8,1.4
		c-0.7,0.2-1.4,0.5-3.1,0.5c-1.5,0-2.3-0.7-2.8-1.2c-0.7-0.9-0.8-2-0.7-2.8l0,0c0.6-2.8,1.3-7.9,1.7-10.4l0,0
		c0.1-0.7,0.2-1.4,0.3-2.1c0-0.4,0-0.7,0.1-1.1c0-0.3,0-0.7,0-1c0-0.3,0.1-0.6,0.2-0.9c0.2-0.5,0.7-0.8,1.2-1
		c0.5-0.2,1.1-0.2,1.6-0.3c0.6-0.1,1.1-0.1,1.7-0.2c0.7,0,1.4-0.1,2-0.1c1.2,0,2.3,0,3.5,0.3c1.2,0.2,2.3,0.7,3.3,1.5
		c0.6,0.6,1.1,1.2,1.5,2c0.3,0.7,0.5,1.4,0.5,1.9c0.1,1,0.1,1.9-0.1,2.9c-0.2,0.7-0.5,1.4-0.8,2c-0.4,0.7-1,1.3-1.7,1.9
		C45.4,25.6,46.5,28,47.3,29.7z M34.3,14.5c0,0.5,0,0.9,0,1.4c0,0.5-0.1,1-0.1,1.4c-0.1,0.5-0.1,0.9-0.2,1.4l0,0.2
		c-0.2,1.5-0.4,3-0.6,4.4c-0.2,1.6-0.5,3.1-0.8,4.6c-0.1,0.7-0.4,1.6,0,2.3c0.3,0.6,1.2,0.7,1.8,0.6c2.2-0.2,2.5-0.7,2.5-0.7
		c-0.4-0.5-0.1-2.7,0.4-5.6h1.6l1.6,4.9c0,0,0.5,1.5,1.8,1.4c1.7-0.1,3-0.5,3.1-0.7c-0.5-0.3-2-4-2.8-6.8c0.4-0.2,0.8-0.5,1.1-0.8
		c0.5-0.4,1-0.9,1.3-1.4c0.3-0.4,0.4-0.8,0.6-1.3c0.1-0.2,0.1-0.5,0.1-0.7c0-0.4,0-0.9,0-1.3c-0.1-0.4-0.2-0.9-0.3-1.3
		c-0.3-0.7-0.8-1.3-1.5-1.7c-1.1-0.7-2.4-0.8-3.7-0.9c-1.4-0.1-2.7,0-4.1,0.1C35.8,14.2,34.3,14.4,34.3,14.5z"/>
</g>
</svg>
