<?xml version="1.0" encoding="utf-8"?>
<!-- Generator: Adobe Illustrator 27.1.1, SVG Export Plug-In . SVG Version: 6.00 Build 0)  -->
<svg version="1.1" id="Layer_1" xmlns="http://www.w3.org/2000/svg" xmlns:xlink="http://www.w3.org/1999/xlink" x="0px" y="0px"
	 width="60px" height="45px" viewBox="0 0 60 45" style="enable-background:new 0 0 60 45;" xml:space="preserve">
<style type="text/css">
	.st0{fill-rule:evenodd;clip-rule:evenodd;fill:#878EA8;}
	.st1{fill:#878EA8;}
	.st2{fill-rule:evenodd;clip-rule:evenodd;fill:url(#path277_00000021806673499463534250000013990119161492612263_);}
	.st3{fill-rule:evenodd;clip-rule:evenodd;fill:url(#path279_00000106860808935572513740000010565020813490830227_);}
	.st4{fill:url(#SVGID_1_);}
	.st5{fill:url(#SVGID_00000103241372758184610720000013079730854169616809_);}
	.st6{fill:url(#SVGID_00000169526530125819887360000005322853679476333725_);}
	.st7{fill:url(#SVGID_00000142865445034733801850000012229009678706503591_);}
	.st8{fill:url(#SVGID_00000153690208962377492480000000439776424159176360_);}
	.st9{fill:url(#SVGID_00000011731896511208941200000008954696994280113829_);}
	.st10{fill:url(#SVGID_00000082363806993008841230000001418951183799476104_);}
	.st11{fill:url(#SVGID_00000102538522792656712640000003990634603158732208_);}
	.st12{fill:url(#SVGID_00000155833361336072206030000009126927977584616093_);}
	.st13{fill:url(#SVGID_00000121992251902394987110000012810149777188122792_);}
</style>
<path id="path177" class="st1" d="M9.6,25c0-1.9,0.8-2.9,2.1-2.9c0.5,0,0.9,0.2,1.3,0.4c0.2,0.1,0.3,0,0.5-0.5l0.2-0.4
	c0.2-0.5,0.2-0.7,0-0.8c-0.7-0.4-1.5-0.6-2.3-0.6c-2.2,0-3.9,1.9-3.9,4.8s1.7,4.8,3.9,4.8c0.8,0,1.6-0.2,2.3-0.6
	c0.2-0.1,0.2-0.3,0-0.8L13.5,28c-0.2-0.6-0.4-0.6-0.5-0.5c-0.4,0.3-0.9,0.4-1.3,0.4C10.4,27.9,9.5,26.9,9.6,25 M34.9,19.9L34.9,19.9
	c-1,0-1,0.1-1,0.3v3c-0.3-0.3-0.7-0.4-1.2-0.4c-1.6,0-2.7,1.4-2.7,3.7c0,2.1,1,3.5,2.6,3.5c0.6,0,1.2-0.3,1.5-0.7
	c0,0.1,0,0.3,0.1,0.4s0.2,0.2,0.8,0.2h0.1c0.7,0,0.7-0.1,0.7-0.3v-9.2C35.9,20,35.8,19.9,34.9,19.9L34.9,19.9z M34,27.1
	c0,0.3,0,0.6-0.2,0.8c-0.2,0.2-0.5,0.3-0.7,0.3c-0.3,0-0.5-0.1-0.7-0.3c-0.3-0.4-0.4-0.9-0.3-1.4c0-1.3,0.3-2,1.1-2
	c0.3,0,0.7,0.2,0.9,0.4L34,27.1z M45.7,29.5c0,0.2-0.1,0.3-0.9,0.3h-0.1c-0.9,0-0.9-0.1-0.9-0.3v-9.2c0-0.2,0-0.3,0.9-0.3h0.1
	c0.8,0,0.9,0.1,0.9,0.3V29.5z M42.8,26.3c0-2-1-3.5-2.8-3.5c-1.9,0-3,1.5-3,3.6s1.2,3.5,3.1,3.5c0.9,0,1.7-0.2,2.4-0.7
	c0.2-0.1,0.2-0.2,0-0.7l-0.1-0.3c-0.1-0.5-0.2-0.5-0.4-0.5c-0.5,0.3-1.1,0.4-1.7,0.5c-0.7,0-1.3-0.5-1.3-1.2c0,0,0,0,0-0.1h3.6
	C42.7,27,42.8,26.9,42.8,26.3z M38.9,25.7c0.1-0.9,0.5-1.3,1-1.3c0.6,0,0.9,0.6,0.9,1.3H38.9z M52.5,26.3c0-2-1-3.5-2.8-3.5
	s-3,1.4-3,3.6s1.2,3.5,3.1,3.5c0.8,0,1.7-0.2,2.4-0.7c0.1-0.1,0.1-0.2,0-0.7l-0.1-0.3c-0.1-0.5-0.2-0.5-0.4-0.5
	c-0.5,0.3-1.1,0.4-1.7,0.5c-0.7,0-1.3-0.5-1.3-1.2c0,0,0-0.1,0-0.1h3.6C52.4,27,52.5,26.9,52.5,26.3L52.5,26.3z M48.6,25.7
	c0.1-0.9,0.5-1.3,1-1.3s0.9,0.6,0.9,1.3H48.6z M28.1,22.9L28.1,22.9c-0.8,0-0.8,0.1-0.8,0.2v0.3c-0.3-0.4-0.8-0.7-1.4-0.7
	c-1.5,0-2.7,1.3-2.7,3.7c0,2.1,1,3.4,2.6,3.4c0.6,0,1.1-0.3,1.5-0.7c0,0.1,0.1,0.3,0.1,0.4s0.2,0.2,0.8,0.2h0.1
	c0.7,0,0.7-0.1,0.7-0.3l0,0v-6.2C28.9,22.9,28.8,22.9,28.1,22.9z M26.8,28c-0.2,0.2-0.4,0.3-0.7,0.2c-0.8,0-1-0.8-1-1.8
	c0-1.2,0.4-1.9,1.1-1.9c0.3,0,0.6,0.2,0.8,0.5c0,0,0,2.2,0,2.2C27,27.4,27,27.7,26.8,28z M19.9,20.9c0.7,0,0.8,0,0.8,0.3v1.7h1.2
	c0.2,0,0.2,0,0.2,0.7v0.1c0,0.6,0,0.7-0.2,0.7h-1.2v3.1c0,0.5,0.1,0.8,0.5,0.8c0.2,0,0.4,0,0.6-0.1c0.2-0.1,0.3,0,0.4,0.6l0,0.1
	c0.2,0.6,0.1,0.6-0.1,0.7c-0.4,0.2-0.9,0.3-1.4,0.3c-1.5,0-2-0.8-2-2.3v-3.2h-0.7c-0.2,0-0.2,0-0.2-0.7v-0.1c0-0.7,0-0.7,0.2-0.7
	h0.8c0.1-0.5,0.2-1.3,0.3-1.7C19.3,21,19.4,20.9,19.9,20.9 M15.9,22.9c0.8,0,0.9,0.1,0.9,0.3v6.3c0,0.2-0.1,0.3-0.9,0.3h0
	c-0.9,0-1-0.1-1-0.3v-6.3C14.9,23,14.9,22.9,15.9,22.9L15.9,22.9z M15.9,19.9c0.6,0,1.1,0.6,1,1.2c0,0.5-0.5,1-1,1
	c-0.6,0-1.1-0.5-1.1-1.1C14.8,20.4,15.3,19.9,15.9,19.9L15.9,19.9z M7.9,16.9c-0.4,0-0.4-0.2-0.4-1.3v-0.2c0-1.1,0-1.3,0.4-1.3h9.3
	c0.4,0,0.4,0.2,0.4,1.3v0.2c0,1.1,0,1.3-0.4,1.3H7.9z M17.2,9.1c0.4,0,0.4,0.2,0.4,1.3v0.2c0,1.2,0,1.3-0.4,1.3H7.9
	c-0.4,0-0.4-0.2-0.4-1.3v-0.2c0-1.1,0-1.3,0.4-1.3H17.2"/>
</svg>
