<?xml version="1.0" encoding="utf-8"?>
<!-- Generator: Adobe Illustrator 27.1.1, SVG Export Plug-In . SVG Version: 6.00 Build 0)  -->
<svg version="1.1" id="Layer_1" xmlns="http://www.w3.org/2000/svg" xmlns:xlink="http://www.w3.org/1999/xlink" x="0px" y="0px"
	 width="60px" height="45px" viewBox="0 0 60 45" style="enable-background:new 0 0 60 45;" xml:space="preserve">
<style type="text/css">
	.st0{fill-rule:evenodd;clip-rule:evenodd;fill:#878EA8;}
	.st1{fill:#878EA8;}
	.st2{fill-rule:evenodd;clip-rule:evenodd;fill:url(#path277_00000073712886941503946680000016493656246378277048_);}
	.st3{fill-rule:evenodd;clip-rule:evenodd;fill:url(#path279_00000069377002240620574480000015914592704118469517_);}
	.st4{fill:url(#SVGID_1_);}
	.st5{fill:url(#SVGID_00000157273576259502284830000001741217303267117492_);}
	.st6{fill:url(#SVGID_00000101084417144210521710000013000231774640661169_);}
	.st7{fill:url(#SVGID_00000078746761482099487460000012639262222151614890_);}
	.st8{fill:url(#SVGID_00000048481608574746752360000004405593001390969004_);}
	.st9{fill:url(#SVGID_00000151505189109378660180000014894572036292583560_);}
	.st10{fill:url(#SVGID_00000106847559799510965190000006909282281505289352_);}
	.st11{fill:url(#SVGID_00000068637853008233838540000002729309421235817397_);}
	.st12{fill:url(#SVGID_00000011011982736756189000000002550727191019286153_);}
	.st13{fill:url(#SVGID_00000142142848221157540150000017996872425112534924_);}
</style>
<path id="path17" class="st1" d="M0.6,20.7c0,1.6,1.1,2.2,2.7,2.7c1.6,0.4,1.9,0.9,1.9,1.5c0,0.6-0.6,1.1-1.5,1.1
	c-0.9,0-1.9-0.4-2.6-1.1c0,0.1-0.8,1-0.8,1c0.9,0.9,2.1,1.3,3.4,1.3c1.8,0,2.9-1,2.9-2.6c0-1.3-0.8-2.1-2.7-2.6
	c-1.6-0.4-2-0.8-2-1.5s0.4-1.1,1.4-1.1c0.8,0,1.6,0.3,2.2,0.9l0.8-1.1c-0.8-0.7-1.9-1.1-3-1.1C1.8,18.1,0.6,19.2,0.6,20.7z
	 M11.1,20.4l-1.4,4.5l-1.3-4.5H7.1c0,0.1,2,6.4,2,6.4h1.3l1.4-4.4l1.4,4.4h1.3c0-0.1,2-6.3,2-6.4H15l-1.3,4.5l-1.5-4.5L11.1,20.4z
	 M17.1,23.8C17,25.6,18.3,27,20,27.2h0.3c0.8,0,1.6-0.2,2.3-0.7l-0.4-1.1c-0.6,0.4-1.2,0.6-1.9,0.6c-0.9,0.1-1.8-0.7-1.8-1.6H23
	v-0.4c0-1.8-0.9-3.5-3-3.5C18.4,20.4,17,21.9,17.1,23.8z M18.4,23.3c0.1-1.1,0.8-1.8,1.6-1.8c0.9,0,1.5,0.7,1.6,1.8H18.4z
	 M28.8,18.1v3.1h-0.1c-0.5-0.4-1.1-0.6-1.8-0.6c-1.4,0-2.8,1.1-2.8,3.3c0,2.1,1.5,3.3,2.9,3.3c1-0.1,2-0.1,3-0.3v-8.8H28.8z
	 M25.6,23.9c0-1.2,0.8-2.1,1.8-2.1c0.7-0.1,1.3,0.3,1.6,0.9v3.2c-0.5,0.1-1,0.1-1.6,0.1C26.2,26,25.6,25.1,25.6,23.9z M32.4,18.1
	v8.8c1,0.2,2,0.3,3,0.3c1.5,0,2.9-1.1,2.9-3.3s-1.4-3.3-2.8-3.3c-0.7,0-1.3,0.2-1.9,0.6h-0.1v-3.1L32.4,18.1z M33.8,25.9v-3.2
	c0.3-0.6,0.9-0.9,1.6-0.9c1,0,1.8,0.9,1.8,2.1S36.3,26,35.3,26C34.8,26,34.3,25.9,33.8,25.9z M40.1,20.9c0,0.1,0.4,1.1,0.4,1.2
	c0.6-0.3,1.1-0.4,1.8-0.4c0.8-0.1,1.5,0.4,1.5,1.2v0.4C43.2,23.1,42.6,23,42,23c-1.6,0-2.5,0.8-2.5,2.1c0,1.1,0.9,2,2,2h0.2
	c1.1,0,2.3-0.1,3.4-0.3v-3.8c0-1.8-0.9-2.8-2.7-2.8C41.6,20.4,40.8,20.6,40.1,20.9z M40.9,25.2c0-0.6,0.5-1.1,1.5-1.1
	c0.5,0,0.9,0.1,1.5,0.3V26c-0.6,0.1-1.1,0.1-1.6,0.1C41.3,26.1,40.8,25.7,40.9,25.2z M46.6,20.7v6.1H48v-5.1
	c0.4-0.1,0.9-0.1,1.4-0.1c0.8,0,1.4,0.6,1.4,1.6v3.6h1.4v-4c0-1.5-0.8-2.4-2.2-2.4C48.8,20.4,47.7,20.5,46.6,20.7L46.6,20.7z
	 M53.7,17.8v9.1h1.5V25l0.9-1l2,2.8h1.6L57,23l2.5-2.7h-1.7l-2.7,2.9v-5.5L53.7,17.8z"/>
</svg>
