<svg width="54" height="51" viewBox="0 0 54 51" fill="none" xmlns="http://www.w3.org/2000/svg">
<path d="M17.4844 24.5469H20.1484V26.8047H17.4844V29.8594H15.0234V26.8047H12.3516V24.5469H15.0234V21.5781H17.4844V24.5469ZM29.1797 31H21.2422V29.2812L24.8984 25.4375C25.7995 24.4115 26.25 23.5964 26.25 22.9922C26.25 22.5026 26.1432 22.1302 25.9297 21.875C25.7161 21.6198 25.4062 21.4922 25 21.4922C24.599 21.4922 24.2734 21.6641 24.0234 22.0078C23.7734 22.3464 23.6484 22.7708 23.6484 23.2812H21.0078C21.0078 22.5833 21.1823 21.9401 21.5312 21.3516C21.8802 20.7578 22.3646 20.2943 22.9844 19.9609C23.6042 19.6276 24.2969 19.4609 25.0625 19.4609C26.2917 19.4609 27.237 19.7448 27.8984 20.3125C28.5651 20.8802 28.8984 21.6953 28.8984 22.7578C28.8984 23.2057 28.8151 23.6432 28.6484 24.0703C28.4818 24.4922 28.2214 24.9375 27.8672 25.4062C27.5182 25.8698 26.9531 26.4922 26.1719 27.2734L24.7031 28.9688H29.1797V31ZM36.3438 31H33.7031V22.5938L31.1094 23.3516V21.3516L36.1016 19.625H36.3438V31Z" fill="#838894"/>
<circle cx="26" cy="26" r="19" stroke="#838894" stroke-width="4"/>
</svg>
