<?xml version="1.0" encoding="utf-8"?>
<!-- Generator: Adobe Illustrator 27.1.1, SVG Export Plug-In . SVG Version: 6.00 Build 0)  -->
<svg version="1.1" id="Layer_1" xmlns="http://www.w3.org/2000/svg" xmlns:xlink="http://www.w3.org/1999/xlink" x="0px" y="0px"
	 width="60px" height="45px" viewBox="0 0 60 45" style="enable-background:new 0 0 60 45;" xml:space="preserve">
<style type="text/css">
	.st0{fill-rule:evenodd;clip-rule:evenodd;fill:#878EA8;}
	.st1{fill:#878EA8;}
	.st2{fill-rule:evenodd;clip-rule:evenodd;fill:url(#path277_00000091700550044364431400000014807827552748721807_);}
	.st3{fill-rule:evenodd;clip-rule:evenodd;fill:url(#path279_00000067939922531084196680000002894477030606390708_);}
	.st4{fill:url(#SVGID_1_);}
	.st5{fill:url(#SVGID_00000179648120908168984710000017999381211591681433_);}
	.st6{fill:url(#SVGID_00000121272469812475505730000012917840143374600835_);}
	.st7{fill:url(#SVGID_00000026131400088512896970000004013740623867533242_);}
	.st8{fill:url(#SVGID_00000012464459032546397080000009622364865863722911_);}
	.st9{fill:url(#SVGID_00000101086088942849504970000017278134788226334365_);}
	.st10{fill:url(#SVGID_00000106128999920761500070000013688289243961434514_);}
	.st11{fill:url(#SVGID_00000065778659430102188970000013590816764109079731_);}
	.st12{fill:url(#SVGID_00000139992132495283322080000014848560977547340457_);}
	.st13{fill:url(#SVGID_00000017484142385591054810000005109021935476273332_);}
</style>
<g>
	<path class="st1" d="M49.9,12.9c0-0.1,0-0.2,0-0.3c0-0.2,0-0.5-0.1-0.7c0-0.2-0.1-0.5-0.2-0.7c-0.1-0.2-0.2-0.4-0.4-0.6
		s-0.4-0.3-0.6-0.4c-0.2-0.1-0.5-0.2-0.7-0.2c-0.2-0.1-0.5-0.1-0.7-0.1c-0.1,0-0.2,0-0.3,0c-0.2,0-0.2,0-0.4,0H13.6
		c-0.2,0-0.2,0-0.4,0c-0.1,0-0.2,0-0.3,0c-0.2,0-0.5,0-0.7,0.1c-0.2,0-0.5,0.1-0.7,0.2c-0.2,0.2-0.4,0.2-0.6,0.5
		c-0.2,0.2-0.3,0.3-0.5,0.6c-0.1,0.2-0.2,0.5-0.2,0.7c-0.1,0.2-0.1,0.5-0.1,0.7c0,0.1,0,0.2,0,0.3c0,0.2,0,0.2,0,0.4v18.4
		c0,0.2,0,0.2,0,0.4c0,0.1,0,0.2,0,0.3c0,0.2,0,0.5,0.1,0.7c0,0.2,0.1,0.5,0.2,0.7s0.2,0.4,0.4,0.6s0.4,0.3,0.6,0.4
		c0.2,0.1,0.5,0.2,0.7,0.2c0.2,0.1,0.5,0.1,0.7,0.1c0.1,0,0.2,0,0.3,0c0.2,0,0.2,0,0.4,0h32.7c0.2,0,0.2,0,0.4,0c0.1,0,0.2,0,0.3,0
		c0.2,0,0.5,0,0.7-0.1s0.5-0.1,0.7-0.2c0.2-0.1,0.4-0.2,0.6-0.4c0.2-0.2,0.3-0.4,0.4-0.6c0.1-0.2,0.2-0.5,0.2-0.7
		c0.1-0.2,0.1-0.5,0.1-0.7c0-0.1,0-0.2,0-0.3c0-0.2,0-0.2,0-0.4V13.3C49.9,13.2,49.9,13,49.9,12.9z M49.1,31.7c0,0.2,0,0.2,0,0.4
		c0,0.1,0,0.2,0,0.3c0,0.2,0,0.4-0.1,0.7c0,0.2-0.1,0.3-0.2,0.5c-0.1,0.2-0.2,0.2-0.2,0.4c-0.1,0.1-0.2,0.2-0.4,0.2
		c-0.2,0.1-0.3,0.1-0.5,0.2c-0.2,0-0.4,0.1-0.7,0.1c-0.1,0-0.2,0-0.3,0c-0.2,0-0.2,0-0.4,0H13.6l0,0c-0.2,0-0.2,0-0.4,0
		c-0.1,0-0.2,0-0.3,0c-0.2,0-0.4,0-0.7-0.1c-0.2,0-0.3-0.1-0.5-0.2c-0.2-0.1-0.2-0.2-0.4-0.2c-0.1-0.1-0.2-0.2-0.2-0.4
		c0-0.2-0.1-0.3-0.1-0.5c0-0.2-0.1-0.4-0.1-0.7c0-0.1,0-0.2,0-0.3v-0.3v-0.1V13.3v-0.1v-0.3c0-0.1,0-0.2,0-0.3c0-0.2,0-0.4,0.1-0.7
		c0-0.2,0.1-0.3,0.2-0.5c0.1-0.1,0.2-0.2,0.2-0.3s0.2-0.2,0.4-0.3c0.2-0.1,0.3-0.1,0.5-0.2c0.2,0,0.4-0.1,0.7-0.1c0.1,0,0.2,0,0.3,0
		h0.4h32.7h0.4c0.1,0,0.2,0,0.3,0c0.2,0,0.4,0,0.7,0.1c0.2,0,0.3,0.1,0.5,0.2s0.2,0.2,0.4,0.2c0.1,0.1,0.2,0.2,0.2,0.4
		c-0.1,0.2,0,0.3,0,0.5s0.1,0.4,0.1,0.7c0,0.1,0,0.2,0,0.3c0,0.2,0,0.2,0,0.4V31.7z"/>
	<path class="st1" d="M20.9,18.3c0.3-0.4,0.6-1,0.5-1.6c-0.5,0-1.1,0.3-1.5,0.7c-0.3,0.3-0.6,1-0.5,1.5C20,19,20.6,18.7,20.9,18.3z"
		/>
	<path class="st1" d="M22.2,22c0-1.2,1-1.8,1.1-1.9c-0.6-0.8-1.5-1-1.8-1c-0.8-0.1-1.5,0.5-1.9,0.5s-1-0.4-1.7-0.4
		c-0.8,0-1.7,0.5-2.1,1.2c-0.9,1.5-0.2,3.7,0.7,5c0.4,0.6,0.9,1.2,1.6,1.2c0.7,0,0.8-0.4,1.7-0.4c0.7,0,1,0.4,1.7,0.4
		c0.7,0,1.1-0.6,1.5-1.2c0.5-0.7,0.7-1.3,0.7-1.4C23.5,24,22.2,23.5,22.2,22z"/>
	<path class="st1" d="M28.5,17.5h-3.4v9.1h1.4v-3.1h2c1.8,0,3.1-1.2,3.1-3C31.6,18.6,30.3,17.5,28.5,17.5z M28.2,22.3h-1.7v-3.6h1.7
		c1.2,0,1.9,0.7,1.9,1.8C30.1,21.6,29.4,22.3,28.2,22.3z"/>
	<path class="st1" d="M35,19.8c-1.7,0-2.6,0.9-2.7,2.1h1.3c0.1-0.6,0.6-1,1.4-1c0.8,0,1.3,0.4,1.3,1.2v0.5l-1.8,0.1
		c-1.6,0.1-2.5,0.8-2.5,2s0.9,2,2.2,2c0.9,0,1.7-0.5,2.1-1.2l0,0v1.1h1.3v-4.5C37.6,20.6,36.5,19.8,35,19.8z M36.2,24.1
		c0,0.8-0.7,1.5-1.7,1.5c-0.7,0-1.2-0.4-1.2-1s0.5-0.9,1.2-1l1.7-0.1L36.2,24.1L36.2,24.1z"/>
	<path class="st1" d="M41.3,25.3L41.3,25.3l-1.7-5.5h-1.5l2.4,6.7L40.4,27c-0.2,0.7-0.6,0.9-1.2,0.9c-0.1,0-0.3,0-0.4,0V29
		c0.1,0,0.4,0,0.6,0c1.4,0,2.1-0.5,2.6-2.2l2.5-7h-1.4L41.3,25.3z"/>
</g>
</svg>
