<?xml version="1.0" encoding="utf-8"?>
<!-- Generator: Adobe Illustrator 25.2.0, SVG Export Plug-In . SVG Version: 6.00 Build 0)  -->
<svg version="1.1" id="Layer_1" xmlns="http://www.w3.org/2000/svg" xmlns:xlink="http://www.w3.org/1999/xlink" x="0px" y="0px"
	 width="58px" height="62px" viewBox="0 0 58 62" style="enable-background:new 0 0 58 62;" xml:space="preserve">
<style type="text/css">
	.st0{clip-path:url(#SVGID_2_);}
	.st1{fill:#FFFFFF;}
	.st2{fill:#0B0204;}
	.st3{fill:#EC1C29;}
	.st4{fill:#D6CFCC;}
	.st5{fill-rule:evenodd;clip-rule:evenodd;fill:#FFFFFF;}
	.st6{opacity:0.5425;fill-rule:evenodd;clip-rule:evenodd;fill:#FFFFFF;enable-background:new    ;}
	.st7{opacity:0.152;fill-rule:evenodd;clip-rule:evenodd;fill:#FFFFFF;enable-background:new    ;}
	.st8{fill:#18AE62;}
	.st9{fill-rule:evenodd;clip-rule:evenodd;fill:#F9A417;}
	.st10{fill-rule:evenodd;clip-rule:evenodd;fill:#231F20;}
	.st11{fill-rule:evenodd;clip-rule:evenodd;fill:#FCFDFF;}
	.st12{fill:#231F20;}
	.st13{fill:#00AB76;}
</style>
<g>
	<path id="Stroke_5_" class="st5" d="M38.6,19.5l-0.5,0l-0.5,0l-0.5,0l-0.4,0.1l-0.4,0.1l-0.4,0.1l-0.4,0.1L35,20l-0.4,0.1l-0.4,0.1
		l-0.4,0.2l-0.4,0.2L33,20.7l-0.4,0.2l-0.4,0.2l-0.4,0.2l-0.4,0.2l-0.4,0.2L30.8,22l-0.3,0.3l-0.3,0.3l-0.3,0.3l-0.3,0.3l-0.3,0.3
		l-0.3,0.3L28.6,24l-0.3,0.3L28,24.7L27.8,25l-0.2,0.4l-0.1,0.1H8.3l-0.1,0l-0.2,0l-0.2,0l-0.2,0l-0.2,0l-0.1,0l-0.1,0.1l-0.1,0.1
		L7,25.8l-0.1,0.1L6.7,26l-0.1,0.1l-0.1,0.1l-0.1,0.1l-0.1,0.1l-0.1,0.1l-0.1,0.1L6,26.7l-0.1,0.1l-0.1,0.1L5.8,27l-0.1,0.1
		l-0.1,0.1l-0.1,0.1l-0.1,0.1l0,0.1l0,0.1l0,0.1l0,0.1l0,0.1l0,0.1l0,0.1l-1.7,8.2l0,0.2l0,0.2l0,0.2l0,0.2l0,0.2l0,0.2l0,0.2
		l0.1,0.2l0.1,0.2l0.1,0.1l0.1,0.1L4,38.5l0.1,0.1l0.1,0.1l0.1,0.1L4.4,39l0.1,0.1l0.1,0.1l0.1,0.1l0.1,0.1L5,39.4l0.1,0.1l0.1,0.1
		l0.1,0.1l0.1,0.1l0.1,0l0.1,0l0.2,0l0.2,0l0.2,0l0.2,0l0.1,0h20.9l0.1,0.1l0.2,0.4l0.3,0.3l0.3,0.3l0.3,0.3l0.3,0.3l0.3,0.3
		l0.3,0.3l0.3,0.3l0.3,0.3l0.3,0.3l0.3,0.3l0.4,0.2l0.4,0.2l0.4,0.2l0.4,0.2l0.4,0.2l0.4,0.2l0.4,0.2l0.4,0.2l0.4,0.2l0.4,0.1
		l0.4,0.1l0.4,0.1l0.4,0.1l0.4,0.1l0.4,0.1l0.4,0.1l0.5,0l0.5,0l0.5,0l0.5,0l0.5,0l0.5,0l0.4-0.1l0.4-0.1l0.4-0.1l0.4-0.1l0.4-0.1
		l0.4-0.1l0.4-0.1l0.4-0.2l0.4-0.2l0.4-0.2l0.4-0.2l0.4-0.2l0.4-0.2l0.4-0.2l0.4-0.2l0.4-0.2l0.3-0.3l0.3-0.3l0.3-0.3l0.3-0.3
		l0.3-0.3l0.3-0.3l0.3-0.3l0.3-0.3l0.3-0.3l0.3-0.3l0.2-0.4l0.1-0.1h0l0.1,0l0.2,0l0.2,0l0.2,0l0.2,0l0.1,0l0.1-0.1l0.1-0.1l0.1-0.1
		l0.1-0.1l0.1-0.1l0.1-0.1l0.1-0.1l0.1-0.1l0.1-0.1l0.1-0.1l0.1-0.1l0.1-0.1l0.1-0.1l0.1-0.1l0.1-0.1l0.1-0.1l0.1-0.1l0.1-0.1
		l0.1-0.1l0.1-0.1l0-0.1l0-0.1l0-0.1l0-0.1l0-0.1l0-0.1l1.7-8.2l0-0.2l0-0.2l0-0.2l0-0.2l0-0.2l0-0.2l0-0.2l-0.1-0.2l-0.1-0.2
		l-0.1-0.1L54.1,27L54,26.8l-0.1-0.1l-0.1-0.1l-0.1-0.1l-0.1-0.1l-0.1-0.1l-0.1-0.1l-0.1-0.1L53.1,26L53,25.9l-0.1-0.1l-0.1-0.1
		l-0.1-0.1l-0.1-0.1l-0.1,0l-0.1,0l-0.2,0l-0.2,0l-0.2,0l-0.2,0l-0.1,0h-1.7l-0.1-0.1L49.4,25l-0.3-0.3l-0.3-0.3L48.6,24l-0.3-0.3
		L48,23.4l-0.3-0.3l-0.3-0.3L47,22.6l-0.3-0.3L46.4,22L46,21.8l-0.4-0.2l-0.4-0.2l-0.4-0.2l-0.4-0.2l-0.4-0.2l-0.4-0.2l-0.4-0.2
		l-0.4-0.2l-0.4-0.1L42.1,20l-0.4-0.1l-0.4-0.1l-0.4-0.1l-0.4-0.1l-0.4-0.1l-0.5,0l-0.5,0L38.6,19.5z M6.5,38.8l-0.1,0l-0.1,0
		l-0.1,0l-0.1,0l-0.1,0l-0.1,0l-0.1,0l-0.1,0l-0.1,0l-0.1,0l-0.1-0.1l-0.1-0.1l-0.1-0.1l-0.1-0.1l-0.1-0.1L5,38.2l-0.1-0.1L4.9,38
		l-0.1-0.1l-0.1-0.1l-0.1-0.1l0-0.1l0-0.1l0-0.1l0-0.1l0-0.1l0-0.1l0-0.1l0-0.1l0-0.1l0-0.1l1.7-8.2l0-0.1l0-0.1l0-0.1l0-0.1l0-0.1
		l0-0.1l0-0.1l0-0.1l0-0.1l0-0.1l0-0.1l0.1-0.1l0.1-0.1l0.1-0.1l0.1-0.1L7,27.1L7,27.1L7.1,27l0.1-0.1l0.1-0.1l0.1-0.1l0.1-0.1
		l0.1,0l0.1,0l0.1,0l0.1,0l0.1,0l0.1,0l0.1,0l0.1,0l0.1,0l0.1,0H28l0.1-0.2l0.2-0.3l0.2-0.3l0.2-0.3l0.2-0.3l0.3-0.3l0.3-0.3
		l0.3-0.3l0.3-0.3l0.3-0.3l0.3-0.3l0.3-0.2l0.3-0.2l0.3-0.2l0.3-0.2l0.3-0.2l0.3-0.2l0.4-0.2l0.4-0.2l0.4-0.2l0.4-0.2l0.4-0.1
		l0.4-0.1l0.4-0.1l0.4-0.1l0.4-0.1l0.4-0.1l0.4-0.1l0.4,0l0.4,0l0.4,0l0.4,0l0.4,0l0.4,0l0.4,0l0.4,0l0.4,0.1l0.4,0.1l0.4,0.1
		l0.4,0.1l0.4,0.1l0.4,0.1l0.4,0.1l0.4,0.2l0.4,0.2l0.4,0.2l0.4,0.2l0.3,0.2l0.3,0.2l0.3,0.2l0.3,0.2l0.3,0.2l0.3,0.2l0.3,0.3
		l0.3,0.3l0.3,0.3l0.3,0.3l0.3,0.3L48,25l0.2,0.3l0.2,0.3l0.2,0.3l0.2,0.3l0.1,0.2h2.3l0.1,0l0.1,0l0.1,0l0.1,0l0.1,0l0.1,0l0.1,0
		l0.1,0l0.1,0l0.1,0l0.1,0l0.1,0.1l0.1,0.1l0.1,0.1l0.1,0.1l0.1,0.1l0.1,0.1l0.1,0.1l0.1,0.1l0.1,0.1l0.1,0.1l0.1,0.1l0,0.1l0,0.1
		l0,0.1l0,0.1l0,0.1l0,0.1l0,0.1l0,0.1l0,0.1l0,0.1l-1.7,8.2l0,0.1l0,0.1l0,0.1l0,0.1l0,0.1l0,0.1l0,0.1l0,0.1l0,0.1l0,0.1l0,0.1
		l-0.1,0.1L51.2,38l-0.1,0.1l-0.1,0.1L51,38.2L51,38.3l-0.1,0.1l-0.1,0.1l-0.1,0.1l-0.1,0.1l-0.1,0.1l-0.1,0l-0.1,0l-0.1,0l-0.1,0
		l-0.1,0l-0.1,0l-0.1,0l-0.1,0l-0.1,0l-0.1,0h-0.6L49,39.1l-0.2,0.3l-0.2,0.3L48.3,40L48,40.3l-0.3,0.3l-0.3,0.3l-0.3,0.3L47,41.5
		l-0.3,0.3L46.4,42l-0.3,0.2l-0.3,0.2l-0.3,0.2l-0.3,0.2l-0.3,0.2l-0.3,0.2l-0.4,0.2l-0.4,0.2l-0.4,0.2L43,44l-0.4,0.1l-0.4,0.1
		l-0.4,0.1l-0.4,0.1L41,44.6l-0.4,0.1l-0.4,0.1l-0.4,0l-0.4,0l-0.4,0l-0.4,0l-0.4,0l-0.4,0l-0.4,0l-0.4,0l-0.4-0.1l-0.4-0.1
		l-0.4-0.1l-0.4-0.1l-0.4-0.1l-0.4-0.1L34.2,44l-0.4-0.2l-0.4-0.2l-0.4-0.2l-0.4-0.2l-0.3-0.2L32,42.9l-0.3-0.2l-0.3-0.2l-0.3-0.2
		L30.7,42l-0.3-0.3l-0.3-0.3l-0.3-0.3l-0.3-0.3l-0.3-0.3l-0.3-0.3L28.8,40l-0.2-0.3l-0.2-0.3l-0.2-0.3L28,38.8H6.6L6.5,38.8z"/>
	<g id="Details_5_" transform="translate(20.528255, 8.362158)">
		<path id="Fill-2_5_" class="st5" d="M25.5,20.3c6.6,8.6-1.4,15.3-8.6,15.8l0-2.9c4.1-0.3,7-1.7,8.6-3.3
			C28.8,26.5,26.9,22.2,25.5,20.3"/>
		<path id="Fill-4_5_" class="st6" d="M25.5,20.3c5.1,6,1,11.9-7.4,12.9l0.5-3C23.3,29.3,29.3,25.8,25.5,20.3"/>
		<path id="Fill-6_5_" class="st7" d="M25.5,20.3c4.3,5,0.2,9.2-7,10.1l0.8-3C25.3,26.6,28.4,24.5,25.5,20.3"/>
		<path id="Fill-8_5_" class="st5" d="M16,19.9c0,0.1,0.2,0.2,0.1,0.3c-0.1,0.1-0.3,0.5-0.3,0.6c-0.1-0.1-0.1-0.2-0.2-0.3
			c-0.1-0.1,0-0.3,0-0.5C15.7,20,15.9,19.9,16,19.9 M23.2,19.9c-0.3-0.3-0.5-0.4-0.8-0.6c-0.2-0.1-0.7-0.8-0.7-1
			c0.2-0.3,0.1-0.3,0.3-0.5c0.2-0.2,0.4-0.5,0.4-0.7c0.2-0.7-0.4-1-0.9-1.2c-0.2-0.1-0.6-0.1-0.7-0.3c0.1-0.1,0.1-0.4,0.2-0.5
			c0.1-0.2,0.2-0.6,0.1-0.9c0-0.1-0.1-0.2-0.1-0.3c0-0.1,0-0.2,0-0.3c0-0.1-0.1-0.1-0.1-0.2c0-0.1,0-0.1-0.1-0.2
			c-0.1-0.2-0.3-0.4-0.5-0.5c-0.8-0.3-1.6,0-1.8,0.7c-0.1,0.3,0,0.6,0,0.9c-0.2,0-0.2,0.1-0.2,0.3c0.1,0.2,0.2,0.4,0.3,0.4
			c0,0.1,0,0.3-0.1,0.4c-0.3,0-0.5,0.2-0.7,0.2c-0.5,0.2-0.5,0.3-0.7,0.4c-0.2,0.2-0.4,0.3-0.6,0.4c-0.2,0.1-0.4,0.2-0.5,0.4
			c-0.2,0.3-0.3,0.8-0.5,1.1c-0.1,0.2-0.3,0.3-0.5,0.5c-0.3,0.3-0.4,0.7-0.6,1c-0.2,0.3-0.3,0.6-0.4,0.9c-0.1,0.3,0.3,0.7,0.4,0.9
			c0.2,0.3,0.6,0.6,0.9,0.7c-0.1,0.2-0.3,0.5-0.4,0.8c-0.1,0.3-0.3,0.6-0.3,0.8c-0.1,0.5-0.5,0.8-0.6,1.3c-0.1,0.5,0.1,1-0.1,1.4
			c-0.2,0.3,0.2,1.1,0,1.4c-0.1,0.1-0.1,0.2-0.2,0.3c0.4,0,0.6,0.3,0.8,0.4c0.2,0.2,0.6,0.1,0.8,0.3c-0.1,0.2,0,0.6,0,0.7
			c-0.1,0.2-0.2,0.3-0.3,0.6c-0.1,0.5,0.1,1.5,0.3,2c0.1,0.2,0.1,0.5,0.2,0.7c0,0.1-0.1,0.4,0,0.7c-0.1,0-0.2,0-0.2,0
			c0,0.1-0.1,0.1-0.1,0.2c0,0.1,0.1,0.2,0,0.2c-0.2,0.2,0,0.2-0.1,0.5c0,0.2,0,0.4-0.1,0.7c0,0.2-0.2,0.4-0.1,0.6
			c0,0.1,0.1,0.3,0.2,0.4c0.1,0.2,0.5,0.2,0.8,0.1c0.2,0,0.6,0,0.7-0.2c0.1-0.2-0.1-0.7-0.1-0.8c0-0.2,0.1-0.5,0.1-0.7
			c0-0.3-0.1-0.4-0.2-0.6c0-0.1,0.1-0.2,0-0.3c0-0.1-0.1-0.1-0.2-0.1c0,0,0-0.5,0-0.6c-0.1-0.3,0-0.5,0.1-0.8
			c0.1-0.3,0.1-0.4,0.2-0.7c0.2-0.5,0.1-0.9,0-1.2c0,0,0-0.1,0-0.2c0-0.2,0.1-0.3,0.2-0.5c0.1-0.2-0.1-0.7,0.1-0.9
			c0.2-0.3,0.1-0.3,0.2-0.6c0.1-0.2,0.1-0.3,0.2-0.5c0.1-0.4,0.3-0.9,0.5-1.3c0,0,0.2,0.3,0.2,0.6c0.1,0.4,0.1,0.9,0.2,1.3
			c0,0.3-0.1,0.5,0,0.9c0,0.2,0,0.5,0,0.7c0,0.1-0.1,0.1-0.2,0.2c-0.1,0-0.2,0-0.2,0c-0.2,0-0.3,0.1-0.4,0.2
			c-0.1,0.2-0.2,0.4-0.2,0.8c0,0.1,0,0.1,0,0.2c0,0.1,0.1,0.4,0.1,0.5c0,0.1-0.1,0.2-0.1,0.3c-0.1,0.1-0.1,0.3-0.2,0.5
			c0,0.1,0,0.3-0.1,0.4c-0.1,0.6,0.1,1.1,0.5,1.3c0.4,0.2,0.7-0.1,0.8-0.3c0.2-0.4,0.4-0.9,0.5-1.4c0.1-0.3,0-0.7,0.1-1
			c0.1-0.2,0.3-0.4,0.3-0.7c0-0.1-0.2-0.1-0.1-0.2c0-0.1,0.2-0.2,0.2-0.2c0,0,0-0.1,0-0.1c0,0,0.1-0.1,0.1-0.1
			c0.1-0.2,0.3-0.3,0.4-0.4c0.3-0.4,0.5-0.8,0.6-1.3c0.1-0.6-0.2-0.6,0.2-1.2c0.1-0.2,0.1-0.5,0.2-0.7c0.3-0.5,0.2-0.5,0.2-0.8
			c0.1-0.4,0.3-0.9,0.2-1.3c0,0,0-0.1,0-0.2c0.1-0.2,0.2-0.7,0-1c-0.1-0.2-0.4-0.6-0.4-0.8c0.2-0.1,0.2-0.3,0.2-0.5
			c0.2-0.6-0.1-0.9,0-1.5c0-0.2,0-0.3,0-0.4c0,0,0.1-0.1,0.1-0.1c0.5,0.1,1,0.6,1.4,0.8"/>
		<path id="Fill-10_5_" class="st5" d="M6.2,20.3l-3.9,3.1l2.1,4.9L6.2,20.3z M-3.1,20.1h3l-0.6,2.5l2.9-2.5h4h0.1h2.9L8,26h4
			l-0.5,2.4h-7H4.4H0.8l-1-3.1l-1.3,1l-0.5,2h-3L-3.1,20.1z M-11.9,20.1h2.7l1.9,3.9l0.9-3.9h2.9l-1.9,8.3h-2.8l-1.9-3.8l-0.9,3.8
			h-2.9L-11.9,20.1z"/>
		<path id="Fill-12_5_" class="st5" d="M6.4,20.4H9l-1.3,5.9h4l-0.4,1.9H4.7L6.4,20.4z M-3,20.4h2.6l-0.7,3l3.4-3h3.4l-3.7,3
			l2.1,4.9H0.9l-1-3.2l-1.6,1.3l-0.4,1.9h-2.6L-3,20.4z M-11.7,20.4h2.4l2.2,4.3l1-4.3h2.4l-1.8,7.8H-8l-2.2-4.3l-1,4.3h-2.4
			L-11.7,20.4z"/>
		<polygon id="Fill-14_5_" class="st5" points="30.4,19.6 30.8,20.3 31.6,20.5 31,21.1 31.1,21.9 30.4,21.5 29.6,21.9 29.7,21.1 
			29.1,20.5 30,20.3 		"/>
		<path id="Fill-16_5_" class="st5" d="M25.6,21.9C25.6,21.9,25.6,21.9,25.6,21.9c-0.2-0.1-0.4-0.1-0.6-0.2c0-0.1,0-0.2,0-0.3
			c0.2,0,0.4-0.1,0.5-0.3C25.7,21.3,25.7,21.6,25.6,21.9 M25.2,22.7c0-0.3-0.2-0.4-0.3-0.5c0-0.1,0.1-0.2,0.1-0.3
			c0.2,0.1,0.4,0.2,0.6,0.3C25.5,22.3,25.4,22.5,25.2,22.7 M25,22.8c-0.3,0.3-0.8,0.4-1.2,0.3c0.5-0.2,0.8-0.5,1.1-1
			C25,22.3,25.1,22.5,25,22.8 M23.4,23.1c-0.4-0.1-0.6-0.4-0.8-0.7c0.6,0.1,1.2-0.1,1.7-0.2c0.2-0.1,0.4-0.1,0.5,0
			C24.5,22.6,24,23,23.4,23.1 M22.3,21.2c0.9,0,1.8,0.2,2.6,0.5c0,0.1-0.1,0.2-0.1,0.3c-0.2-0.1-0.3-0.1-0.5,0
			c-0.5,0.2-1.2,0.4-1.8,0.2C22.3,21.9,22.3,21.6,22.3,21.2 M23,20.2c0.7,0.1,1.2,0.6,1.5,1c0.1,0.1,0.3,0.2,0.4,0.2
			c0,0.1,0,0.2,0,0.3c-0.8-0.3-1.7-0.5-2.6-0.6C22.5,20.7,22.7,20.4,23,20.2 M24.2,19.8c0.4,0.4,0.7,0.9,0.7,1.4
			c-0.1,0-0.3-0.1-0.4-0.3c-0.3-0.4-0.8-0.8-1.4-1C23.5,19.8,23.9,19.8,24.2,19.8 M25.5,20.8c-0.1,0.3-0.2,0.5-0.4,0.5
			c0-0.5-0.2-1-0.5-1.3C25,20.1,25.3,20.4,25.5,20.8 M24.5,19.6c-1.1-0.3-2.1,0.4-2.4,1.4c-0.3,1.1,0.4,2.1,1.4,2.4
			c1.1,0.3,2.1-0.4,2.4-1.4C26.2,20.9,25.5,19.8,24.5,19.6"/>
	</g>
	<polygon id="Path_17_" class="st1" points="26.4,18.1 24.9,18.1 24.9,16.1 23.5,16.1 23.5,22.9 24.9,22.9 24.9,19.6 26.4,19.6 	"/>
	<path id="Path_16_" class="st8" d="M26.4,20.9c-0.5,0-1,0.4-1,1c0,0.5,0.4,1,1,1l0,0c0.5,0,1-0.4,1-1
		C27.3,21.4,26.9,20.9,26.4,20.9"/>
	<path id="Shape_11_" class="st1" d="M15.3,18c-0.4,0-0.7,0.1-1,0.2v-2.1h-1.5v6.7h1.5v-0.2c0.3,0.1,0.6,0.2,1,0.2
		c1.3,0,2.4-1.1,2.4-2.4l0,0C17.8,19.1,16.7,18,15.3,18 M15.3,21.4c-0.6,0-1-0.5-1-1c0-0.5,0.4-0.9,0.9-0.9c0.6,0,1,0.4,1,1
		C16.3,21,15.9,21.4,15.3,21.4"/>
	<polygon id="Path_15_" class="st8" points="12.4,16.1 7.6,16.1 7.6,17.6 10.5,17.6 7.1,22.9 9,22.9 12.4,17.6 	"/>
	<path id="Shape_10_" class="st1" d="M20.6,18c-1.3,0-2.4,1.1-2.4,2.4l0,0c0,0.1,0,0.3,0,0.4c0,0,0,0,0,0l0,0
		c0.1,0.5,0.4,1.1,0.9,1.4c1,0.8,2.4,0.7,3.3-0.2l-1-1c-0.3,0.4-0.9,0.4-1.3,0.1c-0.1-0.1-0.2-0.2-0.2-0.3H23c0-0.1,0-0.3,0-0.4l0,0
		C23,19.1,21.9,18,20.6,18 M19.7,20.1c0.1-0.4,0.5-0.7,0.9-0.7c0.4,0,0.8,0.3,0.9,0.7H19.7z"/>
</g>
</svg>
