<?xml version="1.0" encoding="utf-8"?>
<!-- Generator: Adobe Illustrator 25.2.0, SVG Export Plug-In . SVG Version: 6.00 Build 0)  -->
<svg version="1.1" id="Layer_1" xmlns="http://www.w3.org/2000/svg" xmlns:xlink="http://www.w3.org/1999/xlink" x="0px" y="0px"
	 width="58px" height="62px" viewBox="0 0 58 62" style="enable-background:new 0 0 58 62;" xml:space="preserve">
<style type="text/css">
	.st0{fill-rule:evenodd;clip-rule:evenodd;fill:#ED312E;}
	.st1{fill-rule:evenodd;clip-rule:evenodd;fill:#FFFFFF;}
	.st2{fill-rule:evenodd;clip-rule:evenodd;fill:#CE2026;}
	.st3{fill:#FFFFFF;}
</style>
<g>
	<path class="st0" d="M30.7,49.3l16.4,0.3c0.7,0,1.6,0.3,1.7,0.9l0.5,3.3c0.1,0.6,0,1.3-0.7,1.3L33,54.7c-0.5,0-1-0.1-1.4-0.4
		c-0.1-0.1-0.3-0.3-0.4-0.5l-1.5-3.2c0,0,0-0.1-0.1-0.1L8.1,6l1.3-0.6L30.7,49.3z"/>
	<path class="st0" d="M29.3,49.5C43.1,40.4,47.1,22,49.8,10.6C39.7,7,19.4,7,9.3,10.6C11.3,20.9,14.8,40.7,29.3,49.5"/>
	<path class="st1" d="M29.3,46.9c12.4-8.2,15.9-24.7,18.4-34.9c-9.1-3.3-27.3-3.2-36.3,0C13.1,21.3,16.2,39,29.3,46.9"/>
	<path class="st0" d="M12.4,37.8c12.2-2.7,35.5-6.9,36.7-8.8c1.3,6,0.9,11.7,0,16c-12.2,2.7-35.8,6.9-36.6,9
		C11.5,50,10.3,45.2,12.4,37.8"/>
	<path class="st0" d="M29.1,21.4c0.5-0.8,2.8-1.4,3.1-1.2l0.2-0.1l0.5,0.2l-0.4-0.1c1.9-0.1,4.2,0.7,4.6,2.8c0,0.3,0.4,0.6,0.4,0.8
		c0,0.6,1.3,3.2,0.7,2.7c0,0-0.4-0.7-0.7,0.5c0,0.1,0.3,0.2,0.2,0.3c-0.1,0.4-0.6,0.5-0.7,0.7l0,0l0,0.2c-1.8,2.1-1.5,0.1-1.2-0.2
		l-0.3-0.2l-0.3-0.4c-0.1,0,0.6-0.6,1.1-1.5c2-3.7-1.9-3.9-2-3.5c-0.7,0.1-0.9,0.5-1.3,1c0,0,0,0.1,0,0.1c-1.2,0.9-1.7,0.7-1.9,0.7
		c-1,0-1.9,0.5-3.4,0.9c0-0.1-0.3-0.4-0.3-0.6l0,0l0,0c0,0,0.1,0,0.1,0l0,0l0,0c-0.4,0,0.7-0.6,0.8-0.9C28.6,22.8,28.6,22,29.1,21.4
		"/>
	<path class="st0" d="M19.2,21.9c1.8-1.5,3.3-1.8,4.5-1.5c0,0,0.1,0.1,0,0.1c-0.8,0.1-1.8,0.5-2.5,0.9c-0.9,0.7-1.1,0.8-1.4,1.2
		C19.5,22.4,19.4,22.3,19.2,21.9"/>
	<path class="st0" d="M20.2,18.1c0-0.5-0.1-1,0-1.5c-0.2-0.6-0.5-2.1-0.7-2.7c0.4-1,1.1-0.5,1.8-0.5c0.9-0.5,1.1-1.5,3.2-2
		c0.3,0.1,0.9-0.3,1.1-0.3c0.7,0,1-0.2,1.1-0.5c1.3,0.7,1.9,0.5,2.5,0.1c0.1,0.2,0.3,0.3,0.4,0.5c0.7,0.1,1.6,0.1,1.6-0.2
		c2,0.8,2.6,0.6,3.1,0.6c2.3,0.7,3.3,1.8,4.6,2.7c0.2,0.2-0.1,0.9,0.2,1.1c0.2,0.5,0.9,0.6,1.3,1c0.8,1.1,1.8,2.2,1.6,3.5
		c1.1,1.1-0.3,2.1,0.2,3.4c0.1,0.1,0.5,0.9,0.4,1.5c-0.2,0.9-0.8,1.4-0.7,1.9c0,0.6-0.1-0.1,0,0.9c0,0.2-1.8,3.8-2.8,3.6
		c-0.8-0.4,0.5-2.9-0.1-2.8c1-2,1.5-3.2,0.8-7.4c-1.6-2.9-3-4.1-4.5-4.9c-1.5-1.2-3.4-1.9-7.4-1.6C25.4,14.6,22.3,16.3,20.2,18.1"/>
	<path class="st0" d="M18.9,22.1c-0.2,1.2-0.1,1.1-0.3,1.3c-0.1,0-0.4,0.5-0.5,0.4c0-0.1,0.1-0.7,0.1-0.7l0.1-0.2l0,0
		c0.1-0.4,0.2-0.6,0.4-0.7L18.9,22.1z"/>
	<path class="st0" d="M33.3,27.4c1.8-0.6,2-1.3,2.5-2.5c0-0.2-0.1-0.4,0-0.6c0.1,0.2,0.3,0.3,0.2,0.7C35.7,26.5,34.5,27.2,33.3,27.4
		"/>
	<path class="st0" d="M19,27.4c-0.3-0.1-0.7-0.3-1.1,0.1c-0.3,0.2-0.3,0.4-0.3,0.5c0.2,0.1,0.4,0.1,0.7,0c0,0-0.2-0.2-0.1-0.2
		C18.3,27.5,18.8,27.5,19,27.4"/>
	<path class="st0" d="M21.3,30.9c-0.8,0.3-1.7,0.7-2.7,0.9c-0.1,0-0.3-0.4-0.2-0.4c0-0.2-0.1-0.2-0.1-0.4
		C18.4,30.6,20.7,30.7,21.3,30.9"/>
	<path class="st0" d="M21.1,22.9c0.2-0.1,0.4-0.2,0.5-0.3c0-0.1,1.6-0.2,2.3-0.2c-0.7-0.1-2.2-0.2-2.4-0.1
		C21.1,22.6,21.2,22.7,21.1,22.9"/>
	<path class="st0" d="M23.9,23c-1.2-0.1-1.8-0.2-2.5,0.2c-0.1,0.1-0.2,0.3-0.2,0.6c0.1,0.2,0.3,0.1,0.4,0.2c0.4,0,0.7-0.2,1.5-0.5
		C23.4,23.2,23.6,23.1,23.9,23"/>
	<polygon class="st0" points="25,41.1 25,41.2 25,41.1 	"/>
	<path class="st1" d="M14.3,44.4v-5.7l2-0.4v1.9l1.2-0.3V38l2-0.4v5.7l-2,0.4v-2L16.4,42v2L14.3,44.4z M23.6,40.7
		c0.3-0.1,0.5-0.2,0.7-0.4c0.2-0.2,0.3-0.5,0.3-0.8c0-0.3-0.1-0.6-0.3-0.7c-0.2-0.2-0.4-0.2-0.7-0.1c-0.3,0.1-0.5,0.2-0.7,0.4
		c-0.2,0.2-0.3,0.5-0.3,0.8c0,0.3,0.1,0.6,0.3,0.7C23.1,40.7,23.3,40.8,23.6,40.7 M26.6,39c0,0.4-0.1,0.8-0.2,1.2
		c-0.1,0.4-0.4,0.8-0.6,1.1c-0.3,0.3-0.6,0.6-1,0.8c-0.4,0.2-0.8,0.4-1.2,0.5c-0.4,0.1-0.8,0.1-1.2,0c-0.4-0.1-0.7-0.2-1-0.4
		c-0.3-0.2-0.5-0.5-0.6-0.8c-0.1-0.3-0.2-0.7-0.2-1.1c0-0.4,0.1-0.8,0.2-1.2c0.1-0.4,0.4-0.8,0.6-1.1c0.3-0.3,0.6-0.6,1-0.8
		c0.4-0.2,0.8-0.4,1.2-0.5c0.4-0.1,0.8-0.1,1.2,0c0.4,0.1,0.7,0.2,1,0.4c0.3,0.2,0.5,0.5,0.6,0.8C26.5,38.2,26.6,38.5,26.6,39
		 M31.7,37.3c-0.2-0.1-0.4-0.2-0.6-0.3c-0.2,0-0.4,0-0.6,0c-0.3,0.1-0.6,0.2-0.8,0.5c-0.2,0.2-0.3,0.5-0.3,0.9
		c0,0.3,0.1,0.6,0.3,0.7c0.2,0.2,0.5,0.2,0.8,0.1c0.2,0,0.4-0.1,0.6-0.3c0.2-0.1,0.4-0.3,0.7-0.5l-0.1,2.2c-0.2,0.1-0.4,0.3-0.7,0.3
		c-0.2,0.1-0.4,0.2-0.7,0.2c-0.3,0.1-0.5,0.1-0.8,0.1c-0.3,0-0.5,0-0.7-0.1c-0.5-0.2-0.9-0.5-1.1-0.9c-0.3-0.4-0.4-0.9-0.4-1.4
		c0-0.4,0.1-0.8,0.2-1.2c0.1-0.4,0.4-0.8,0.6-1.1c0.3-0.3,0.6-0.6,1-0.8c0.4-0.2,0.8-0.4,1.2-0.5c0.2,0,0.5-0.1,0.7-0.1
		c0.2,0,0.4,0,0.7,0.1V37.3z M32.6,40.5v-5.7l2-0.4v2.4l1.3-2.7l2.3-0.5l-1.7,3.2l2,2.5l-2.5,0.5l-1.4-2.1v2.4L32.6,40.5z
		 M38.6,39.2v-5.7l3.8-0.8v1.5l-1.8,0.4v0.5l1.6-0.3v1.5l-1.6,0.3v0.6l1.8-0.4v1.5L38.6,39.2z M44.2,38l2.1-0.4v-2.5l2-3.6L45.9,32
		l-0.5,1.2c0,0,0,0,0,0.1c-0.1,0.2-0.1,0.3-0.1,0.4c0,0,0,0,0,0c-0.1-0.2-0.1-0.3-0.2-0.4l-0.5-1l-2.3,0.5l1.9,2.8V38z"/>
	<path class="st1" d="M16.4,50.6V45l2.4-0.5c0.9-0.2,1.5-0.2,1.9,0.1c0.4,0.2,0.6,0.7,0.6,1.4c0,0.7-0.2,1.2-0.5,1.6
		c-0.4,0.4-0.9,0.7-1.7,0.8l-0.6,0.1v1.7L16.4,50.6z M18.5,46.1v0.9l0.3-0.1c0.2,0,0.3-0.1,0.4-0.2c0.1-0.1,0.2-0.2,0.2-0.4
		c0-0.1-0.1-0.3-0.2-0.3C19.1,46,19,46,18.8,46L18.5,46.1z M22,46.9v-3.1l2-0.4v3.1c0,0.4,0,0.6,0.1,0.7c0.1,0.1,0.2,0.2,0.4,0.1
		c0.2,0,0.3-0.1,0.4-0.3c0.1-0.2,0.1-0.4,0.1-0.8v-3.1l2-0.4v3.1c0,0.4,0,0.7-0.1,1C27,47,27,47.3,26.8,47.5c-0.2,0.4-0.5,0.7-0.9,1
		c-0.4,0.3-0.8,0.5-1.3,0.6c-0.5,0.1-1,0.1-1.4,0c-0.4-0.1-0.7-0.3-0.9-0.6c-0.1-0.1-0.2-0.3-0.2-0.6C22,47.6,22,47.3,22,46.9
		 M28.2,48.1v-5.7l2-0.4l1.8,2.6c0-0.1,0-0.3,0-0.4c0-0.2,0-0.4,0-0.6v-1.9l2-0.4v5.7l-2,0.4l-1.7-2.6c0,0.1,0,0.3,0,0.4
		c0,0.1,0,0.3,0,0.5v2L28.2,48.1z M35,46.7V41l2-0.4V43l1.3-2.7l2.3-0.5l-1.7,3.2l2,2.5l-2.5,0.5L37,43.9v2.4L35,46.7z M40.5,45
		c0.4,0.1,0.7,0.2,1.1,0.2c0.4,0,0.7,0,1.1-0.1c0.7-0.2,1.3-0.5,1.8-1c0.5-0.5,0.7-1.1,0.7-1.7c0-0.4-0.1-0.7-0.3-0.9
		c-0.2-0.2-0.5-0.3-0.9-0.3c0,0-0.1,0-0.2,0c-0.6,0-0.8-0.1-0.8-0.2c0-0.1,0-0.2,0.1-0.2c0.1-0.1,0.2-0.1,0.3-0.1c0.2,0,0.4,0,0.6,0
		c0.2,0,0.4,0.1,0.6,0.2l0.6-1.6c-0.3-0.1-0.6-0.2-1-0.2c-0.3,0-0.6,0-1,0.1c-0.7,0.2-1.3,0.5-1.7,0.9c-0.4,0.5-0.7,1-0.7,1.6
		c0,0.4,0.1,0.7,0.3,0.9c0.2,0.2,0.5,0.3,1,0.3c0.1,0,0.2,0,0.3,0c0.4,0,0.6,0.1,0.6,0.2c0,0.1,0,0.2-0.1,0.2
		c-0.1,0.1-0.2,0.1-0.3,0.2c-0.2,0-0.4,0-0.6,0c-0.2,0-0.5-0.1-0.8-0.3L40.5,45z"/>
	<path class="st0" d="M29.6,55.7c0,0.4-1.9,0.7-4.3,0.7c-2.3,0-4.3-0.3-4.3-0.7h0v-2.2c0-0.4,1.9-0.7,4.3-0.7c2.3,0,4.3,0.3,4.3,0.7
		h0V55.7z"/>
	<path class="st2" d="M21.1,53.6c0.2,0.7,8.1,1,8.5,0c0,0.7,0,1.4,0,2.2c-0.1,1.2-8.4,1.1-8.5,0V53.6z"/>
	<polygon class="st3" points="45.7,51.6 44.8,51.6 44.9,50.3 44,50.3 43.9,54.4 44.8,54.4 44.8,52.4 45.7,52.5 	"/>
	<path class="st3" d="M45.7,53.3c-0.3,0-0.6,0.2-0.6,0.6c0,0.3,0.2,0.6,0.6,0.6h0c0.3,0,0.6-0.2,0.6-0.6
		C46.3,53.6,46,53.3,45.7,53.3"/>
	<path class="st3" d="M39,51.3c-0.2,0-0.4,0-0.6,0.1l0-1.3l-0.9,0l-0.1,4.1l0.9,0l0-0.1c0.2,0.1,0.4,0.1,0.6,0.1
		c0.8,0,1.5-0.6,1.5-1.4v0C40.4,52,39.8,51.3,39,51.3 M38.9,53.4c-0.3,0-0.6-0.3-0.6-0.6c0-0.3,0.3-0.6,0.6-0.6
		c0.3,0,0.6,0.3,0.6,0.6C39.5,53.1,39.2,53.4,38.9,53.4"/>
	<polygon class="st3" points="37.2,50.1 34.3,50 34.2,50.9 36,51 33.8,54.1 35,54.2 37.2,51 	"/>
	<path class="st3" d="M42.2,51.4c-0.8,0-1.5,0.6-1.5,1.4l0,0c0,0.1,0,0.2,0,0.3c0,0,0,0,0,0h0c0.1,0.3,0.2,0.7,0.5,0.9
		c0.6,0.5,1.5,0.5,2-0.1l-0.6-0.6c-0.2,0.2-0.6,0.3-0.8,0c-0.1-0.1-0.1-0.1-0.1-0.2l2,0.1c0-0.1,0-0.2,0-0.3v0
		C43.7,52.1,43,51.4,42.2,51.4 M41.6,52.7c0.1-0.2,0.3-0.4,0.6-0.4c0.3,0,0.5,0.2,0.6,0.4L41.6,52.7z"/>
</g>
</svg>
