<svg width="48" height="36" viewBox="0 0 48 36" fill="none" xmlns="http://www.w3.org/2000/svg">
<path d="M46 0H2C0.896 0 0 0.896 0 2V34C0 35.104 0.896 36 2 36H46C47.104 36 48 35.104 48 34V2C48 0.896 47.104 0 46 0Z" fill="#898FA9"/>
<path d="M27.1059 7.997H24.9189L23.9999 6L23.0789 7.997H20.8939L22.4899 9.644L21.8999 12.047L23.9999 10.856L26.0999 12.047L25.5079 9.644L27.1059 7.997Z" fill="#303341"/>
<path d="M33.4542 10.3134H31.2672L30.3472 8.31738L29.4262 10.3134H27.2412L28.8382 11.9614L28.2472 14.3634L30.3472 13.1724L32.4472 14.3634L31.8552 11.9614L33.4542 10.3134Z" fill="#303341"/>
<path d="M27.1059 25.9501H24.9189L23.9999 23.9531L23.0789 25.9501H20.8939L22.4899 27.5981L21.8999 30.0001L23.9999 28.8091L26.0999 30.0001L25.5079 27.5981L27.1059 25.9501Z" fill="#303341"/>
<path d="M20.7587 10.3134H18.5717L17.6527 8.31738L16.7307 10.3134H14.5457L16.1427 11.9614L15.5517 14.3634L17.6527 13.1724L19.7527 14.3634L19.1597 11.9614L20.7587 10.3134Z" fill="#303341"/>
<path d="M17.2133 16.9501H15.0263L14.1063 14.9531L13.1853 16.9501H11.0003L12.5973 18.5981L12.0063 21.0001L14.1063 19.8091L16.2063 21.0001L15.6143 18.5981L17.2133 16.9501Z" fill="#303341"/>
<path d="M37.0001 16.9501H34.8131L33.8941 14.9531L32.9721 16.9501H30.7871L32.3841 18.5981L31.7931 21.0001L33.8941 19.8091L35.9931 21.0001L35.4011 18.5981L37.0001 16.9501Z" fill="#303341"/>
<path d="M33.4542 23.5116H31.2672L30.3472 21.5156L29.4262 23.5116H27.2412L28.8382 25.1596L28.2472 27.5616L30.3472 26.3706L32.4472 27.5616L31.8552 25.1596L33.4542 23.5116Z" fill="#303341"/>
<path d="M20.7587 23.5116H18.5717L17.6527 21.5156L16.7307 23.5116H14.5457L16.1427 25.1596L15.5517 27.5616L17.6527 26.3706L19.7527 27.5616L19.1597 25.1596L20.7587 23.5116Z" fill="#303341"/>
</svg>
