<?xml version="1.0" encoding="UTF-8" standalone="no"?>
<!-- Created with Inkscape (http://www.inkscape.org/) -->

<svg
   xmlns:dc="http://purl.org/dc/elements/1.1/"
   xmlns:cc="http://creativecommons.org/ns#"
   xmlns:rdf="http://www.w3.org/1999/02/22-rdf-syntax-ns#"
   xmlns:svg="http://www.w3.org/2000/svg"
   xmlns="http://www.w3.org/2000/svg"
   xmlns:sodipodi="http://sodipodi.sourceforge.net/DTD/sodipodi-0.dtd"
   xmlns:inkscape="http://www.inkscape.org/namespaces/inkscape"
   width="210mm"
   height="297mm"
   viewBox="0 0 210 297"
   version="1.1"
   id="svg8"
   inkscape:version="0.92.5 (2060ec1f9f, 2020-04-08)"
   sodipodi:docname="drawing.svg">
  <defs
     id="defs2" />
  <sodipodi:namedview
     id="base"
     pagecolor="#ffffff"
     bordercolor="#666666"
     borderopacity="1.0"
     inkscape:pageopacity="0.0"
     inkscape:pageshadow="2"
     inkscape:zoom="0.57952943"
     inkscape:cx="587.24556"
     inkscape:cy="545.9082"
     inkscape:document-units="mm"
     inkscape:current-layer="layer1"
     showgrid="false"
     showguides="true"
     inkscape:guide-bbox="true"
     inkscape:window-width="1848"
     inkscape:window-height="1016"
     inkscape:window-x="72"
     inkscape:window-y="27"
     inkscape:window-maximized="1" />
  <metadata
     id="metadata5">
    <rdf:RDF>
      <cc:Work
         rdf:about="">
        <dc:format>image/svg+xml</dc:format>
        <dc:type
           rdf:resource="http://purl.org/dc/dcmitype/StillImage" />
        <dc:title></dc:title>
      </cc:Work>
    </rdf:RDF>
  </metadata>
  <g
     inkscape:label="Layer 1"
     inkscape:groupmode="layer"
     id="layer1">
    <g
       id="g4823"
       transform="matrix(1.1587401,0,0,1.1587401,-20.143722,-11.06429)">
      <path
         id="path152"
         d="M 101.0085,9.4421004 C 99.220253,9.79975 96.955139,11.50852 96.140493,13.098074 c -0.218564,0.417258 -3.298324,8.742544 -6.835081,18.47856 -3.556626,9.736016 -6.596647,18.081172 -6.775472,18.538169 l -0.298041,0.834516 -10.570531,0.05961 -10.550662,0.05961 -1.132557,0.536475 c -1.549815,0.715299 -2.940675,2.066419 -3.596365,3.477148 -0.814647,1.768379 -23.962521,65.489608 -24.101607,66.383728 -0.198694,1.2319 0.476866,2.52342 1.549815,3.02015 0.834515,0.37752 1.529945,0.39739 21.617929,0.43713 16.908876,0.0397 18.816341,0.0795 10.27249,0.15895 l -10.510923,0.0994 -1.768379,4.86801 c -1.867725,5.12631 -2.086289,6.17939 -1.470337,7.35169 0.158956,0.29804 0.615952,0.7749 1.03321,1.03321 l 0.755038,0.45699 h 35.98352 35.98352 l 1.54981,-0.79478 c 2.82146,-1.45046 2.16577,-0.0199 10.27249,-22.29348 6.27874,-17.226787 7.13313,-19.730334 7.05365,-20.505242 -0.0994,-0.933863 -0.53648,-1.649162 -1.41073,-2.284983 -0.53647,-0.417258 -0.63582,-0.417258 -25.88985,-0.476866 -20.04825,-0.03974 -25.313646,-0.09935 -25.254038,-0.298041 0.05961,-0.119217 0.794777,-2.185637 1.669032,-4.569967 l 1.549814,-4.311664 h 10.590402 c 10.17314,0 10.61027,-0.01987 11.66335,-0.417258 1.19216,-0.437127 2.82146,-1.788248 3.49702,-2.861196 0.21856,-0.35765 5.82174,-15.518018 12.41838,-33.678667 9.49759,-26.068679 12.021,-33.201801 12.021,-33.93697 0,-1.231904 -0.53647,-2.205505 -1.51007,-2.7022409 -0.77491,-0.4172578 -1.01334,-0.4172578 -21.43911,-0.4569966 -11.3653,0 -21.04171,0.059608 -21.49871,0.1390859 z M 75.396818,69.76566 c -2.960543,8.106723 -3.457279,9.616799 -3.457279,10.570531 0,1.212035 0.35765,1.986942 1.212035,2.583025 0.417258,0.298041 1.251773,0.357649 6.358214,0.437127 l 5.901218,0.09935 -0.834515,2.284983 c -0.476867,1.251774 -1.212035,3.318193 -1.669032,4.569967 l -0.834515,2.284983 -5.424352,-0.05961 c -4.569967,-0.05961 -5.583307,-0.01987 -6.51717,0.258302 -1.390859,0.417258 -3.020152,1.549815 -3.795059,2.602894 -0.377519,0.536475 -1.788248,4.13284 -4.053362,10.332098 -1.907464,5.22566 -3.457279,9.6168 -3.457279,9.75588 0,0.1987 -1.529945,0.25831 -7.351685,0.25831 -4.033492,0 -7.351686,-0.0397 -7.351686,-0.0994 0,-0.0596 4.430881,-12.2793 9.855233,-27.161496 C 59.401935,73.580588 63.932163,61.162201 64.03151,60.84429 l 0.198694,-0.536474 h 7.311947 7.292077 z"
         inkscape:connector-curvature="0"
         style="opacity:1;fill:#898fa9;fill-opacity:1;stroke:none;stroke-width:0.01986942" />
      <path
         id="path154"
         d="m 74.142312,160.54208 -0.7153,0.73517 2.02668,2.32472 2.04655,2.32473 h 1.29151 1.29152 l 2.42407,-2.08629 c 1.33125,-1.13256 2.4638,-2.1459 2.52341,-2.24525 0.15896,-0.2583 -0.87425,-1.66903 -1.15242,-1.56968 -0.13909,0.0596 -1.31139,0.77491 -2.6029,1.60942 l -2.34459,1.49021 -0.53647,-0.43713 c -0.31792,-0.23843 -1.23191,-0.99347 -2.04655,-1.66903 l -1.47034,-1.2319 z"
         inkscape:connector-curvature="0"
         style="fill:#898fa9;fill-opacity:1;stroke:none;stroke-width:0.01986942" />
      <path
         id="path156"
         d="m 90.236542,161.59516 c -0.15896,0.25831 -0.35765,1.09282 -0.41726,1.8876 -0.13908,1.29151 -0.11921,1.4306 0.2583,1.62929 0.51661,0.27817 2.72211,0.27817 3.218847,0.0199 0.695427,-0.35765 1.112684,-3.17911 0.556337,-3.73545 -0.13908,-0.13909 -0.854374,-0.23843 -1.788234,-0.23843 -1.37099,0 -1.56969,0.0397 -1.82799,0.43712 z"
         inkscape:connector-curvature="0"
         style="fill:#898fa9;fill-opacity:1;stroke:none;stroke-width:0.01986942" />
      <path
         id="path158"
         d="m 36.668582,161.73425 c 0,0.0993 -0.53647,4.0931 -1.19216,8.88163 -0.65569,4.8084 -1.19217,9.27902 -1.19217,9.97445 0,1.98694 0.89413,3.29832 2.64264,3.85467 0.67556,0.19869 9.27901,0.23843 10.43144,0.0397 l 0.63582,-0.11922 v -1.56968 -1.56969 h -4.05336 c -4.43088,0 -5.20579,-0.13908 -5.42435,-0.95373 -0.0596,-0.27817 0.43713,-4.49049 1.11269,-9.3585 0.67556,-4.86801 1.21203,-8.98098 1.21203,-9.12006 0,-0.27817 -4.17258,-0.35765 -4.17258,-0.0596 z"
         inkscape:connector-curvature="0"
         style="fill:#898fa9;fill-opacity:1;stroke:none;stroke-width:0.01986942" />
      <path
         id="path160"
         d="m 57.730172,167.91364 c -4.3514,0.69543 -6.239,3.1195 -6.97417,9.00085 -0.39739,3.04002 0.21857,5.42435 1.74851,6.67612 1.29151,1.05308 2.36446,1.31138 5.62305,1.31138 2.54328,-0.0199 3.02015,-0.0596 4.05336,-0.47686 2.8612,-1.13256 4.33153,-3.75532 4.88788,-8.62333 0.47686,-4.15271 -0.81465,-6.73573 -3.77519,-7.57025 -1.45047,-0.41726 -4.07323,-0.55634 -5.56344,-0.31791 z m 3.95401,3.39767 c 0.93387,0.33778 1.25178,1.13256 1.23191,3.05989 0,0.89412 -0.13909,2.28498 -0.29804,3.07976 -0.65569,3.1195 -1.66904,4.17258 -4.15271,4.33153 -1.64916,0.0994 -2.70224,-0.23843 -3.21885,-1.03321 -0.43713,-0.65569 -0.43713,-3.04002 0,-5.16604 0.53648,-2.62277 1.05308,-3.51689 2.36446,-4.11297 0.93386,-0.41726 3.07976,-0.49674 4.07323,-0.15896 z"
         inkscape:connector-curvature="0"
         style="fill:#898fa9;fill-opacity:1;stroke:none;stroke-width:0.01986942" />
      <path
         id="path162"
         d="m 74.937092,167.91364 c -1.52995,0.23843 -3.13937,0.99347 -3.63611,1.70877 -0.9736,1.39086 -1.15242,3.43741 -0.39739,4.82827 0.59609,1.17229 1.52995,1.78825 5.10644,3.3778 1.68891,0.75504 3.27846,1.54981 3.51689,1.76838 0.49674,0.43713 0.43713,1.01334 -0.13908,1.52994 -0.55635,0.51661 -3.1195,0.75504 -6.59665,0.61596 l -3.13937,-0.0994 -0.11922,0.45699 c -0.0596,0.2583 -0.11921,0.89413 -0.13908,1.4306 l -0.0397,0.9736 1.88759,0.23843 c 4.17258,0.49674 8.86177,0.21857 10.51093,-0.61595 0.87425,-0.45699 1.62929,-1.56968 1.92733,-2.86119 0.39739,-1.60943 0.17883,-2.70224 -0.67556,-3.65598 -0.79478,-0.87425 -1.15243,-1.07295 -5.08657,-2.86119 -3.09963,-1.41073 -3.49702,-1.6889 -3.49702,-2.46381 0,-1.03321 0.27817,-1.09282 5.34488,-1.19217 l 4.68918,-0.0993 0.17882,-1.25177 c 0.0993,-0.67556 0.13909,-1.27164 0.0993,-1.33125 -0.37752,-0.37752 -8.04711,-0.75504 -9.79562,-0.49674 z"
         inkscape:connector-curvature="0"
         style="fill:#898fa9;fill-opacity:1;stroke:none;stroke-width:0.01986942" />
      <path
         id="path164"
         d="m 106.33073,167.93351 c -1.15243,0.27817 -2.9208,1.29151 -4.15271,2.38433 -0.59608,0.53647 -1.15243,0.9736 -1.21203,0.9736 -0.0596,0 -0.11922,-0.67556 -0.11922,-1.49021 v -1.4902 h -1.490204 c -1.370984,0 -1.490191,0.0397 -1.589541,0.43712 -0.0397,0.25831 -0.536467,3.71559 -1.092814,7.70934 -0.536467,3.99375 -1.033204,7.45103 -1.092814,7.68947 -0.0993,0.45699 -0.0795,0.45699 1.947198,0.45699 h 2.046538 l 0.675557,-5.12631 c 0.79477,-5.80187 0.55634,-5.26539 3.15924,-7.15299 1.03321,-0.73517 1.45046,-0.91399 2.34459,-0.99347 1.25177,-0.0993 1.84785,0.27817 1.84785,1.17229 0,0.29805 -0.35765,3.13937 -0.79477,6.27874 -0.43713,3.13937 -0.79478,5.74226 -0.79478,5.76213 0,0.0397 0.87425,0.0596 1.9472,0.0596 h 1.94721 l 0.65569,-4.92761 c 0.37752,-2.70224 0.75503,-5.0667 0.85438,-5.24553 0.21857,-0.43713 2.62276,-2.38433 3.47715,-2.82146 0.87425,-0.43712 2.28498,-0.41725 2.70224,0.0397 0.457,0.49674 0.457,0.61596 -0.457,7.13313 -0.43712,3.13936 -0.79477,5.74226 -0.79477,5.76213 0,0.0397 0.89412,0.0596 1.98694,0.0596 1.88759,0 1.98694,-0.0199 2.08629,-0.457 0.21856,-1.07295 1.6889,-12.14021 1.6889,-12.83564 0,-2.24525 -1.41073,-3.47715 -3.99375,-3.47715 -1.25178,0 -1.70877,0.0993 -2.78172,0.61595 -0.69543,0.33778 -1.80812,1.07295 -2.46381,1.60942 l -1.19217,1.01334 -0.15895,-0.79477 c -0.39739,-1.90747 -2.6625,-2.94068 -5.18592,-2.3446 z"
         inkscape:connector-curvature="0"
         style="fill:#898fa9;fill-opacity:1;stroke:none;stroke-width:0.01986942" />
      <path
         id="path166"
         d="m 88.150252,175.8018 c -0.57621,4.13284 -1.11269,7.80868 -1.15243,8.14646 l -0.11921,0.65569 h 2.02668 c 1.09282,0 2.00681,-0.0199 2.02668,-0.0596 0,-0.0199 0.5166,-3.67584 1.15243,-8.14646 l 1.132547,-8.08685 h -2.006807 -2.02668 z"
         inkscape:connector-curvature="0"
         style="fill:#898fa9;fill-opacity:1;stroke:none;stroke-width:0.01986942" />
      <path
         id="path168"
         d="m 126.00146,174.94741 c -1.07295,7.62986 -1.05308,7.9279 0.29804,9.13994 0.87425,0.81464 1.6889,0.99347 3.55662,0.87425 1.64917,-0.11922 3.3182,-0.85438 5.20579,-2.30485 0.73517,-0.57621 1.37099,-1.03321 1.41073,-1.03321 0.0397,0 0.0397,0.67556 -0.0199,1.49021 l -0.0994,1.4902 h 0.55635 c 0.49673,0 0.41726,0.0994 -0.95373,1.39086 -0.83452,0.77491 -1.68891,1.78825 -1.90747,2.24525 -1.29151,2.6625 0.7153,4.21231 4.13284,3.19897 1.03321,-0.29804 1.05308,-0.31791 0.93386,-0.91399 -0.0596,-0.33778 -0.11921,-0.69543 -0.11921,-0.79478 0,-0.11921 -0.37752,-0.13908 -0.95374,-0.0596 -0.7749,0.0994 -1.01334,0.0596 -1.2319,-0.19869 -0.23843,-0.29804 -0.19869,-0.47687 0.29804,-1.4306 0.33778,-0.59608 1.01334,-1.60942 1.51008,-2.24524 l 0.93386,-1.15243 1.11269,-8.00738 c 0.61595,-4.41101 1.11269,-8.08685 1.11269,-8.1862 0,-0.0795 -0.87426,-0.13908 -1.96708,-0.13908 h -1.96707 l -0.0994,0.63582 c -0.0795,0.35765 -0.39739,2.6625 -0.73517,5.10644 -0.67556,4.96735 -0.45699,4.43088 -2.70224,6.08004 -1.47033,1.07295 -2.4042,1.49021 -3.35793,1.49021 -0.91399,0 -1.41073,-0.27817 -1.54981,-0.83452 -0.0596,-0.2583 0.2583,-3.15924 0.73517,-6.47743 l 0.83451,-6.00056 h -2.00681 -2.02668 z"
         inkscape:connector-curvature="0"
         style="fill:#898fa9;fill-opacity:1;stroke:none;stroke-width:0.01986942" />
      <path
         id="path170"
         d="m 97.925982,197.51907 c -0.357647,0.31792 -0.655694,0.63583 -0.655694,0.7153 0,0.0596 0.894124,1.13256 2.006808,2.38433 l 2.006804,2.26512 h 1.29151 1.29151 l 2.56316,-2.20551 2.54328,-2.18563 -0.5166,-0.79478 c -0.27817,-0.41726 -0.57622,-0.77491 -0.65569,-0.77491 -0.0795,0 -1.15243,0.65569 -2.4042,1.45047 -1.25178,0.79478 -2.36446,1.51008 -2.48368,1.56968 -0.11922,0.0795 -1.07295,-0.57621 -2.12603,-1.43059 -1.053077,-0.87426 -1.986931,-1.58956 -2.066411,-1.58956 -0.0994,0 -0.456987,0.27817 -0.794767,0.59608 z"
         inkscape:connector-curvature="0"
         style="fill:#898fa9;fill-opacity:1;stroke:none;stroke-width:0.01986942" />
      <path
         id="path172"
         d="m 70.069082,198.39333 c -0.21857,0.2583 -0.61595,2.16577 -0.61595,2.94067 0,0.67556 0.55634,0.95374 1.98694,0.95374 1.78825,0 2.12603,-0.27818 2.36446,-1.98695 0.27817,-1.9472 0.0596,-2.18563 -1.9472,-2.18563 -1.09282,0 -1.6293,0.0795 -1.78825,0.27817 z"
         inkscape:connector-curvature="0"
         style="fill:#898fa9;fill-opacity:1;stroke:none;stroke-width:0.01986942" />
      <path
         id="path174"
         d="m 114.37785,198.39333 c -0.21857,0.2583 -0.61596,2.16577 -0.61596,2.94067 0,0.67556 0.55635,0.95374 1.98695,0.95374 1.78824,0 2.12602,-0.27818 2.36446,-1.98695 0.27817,-1.9472 0.0596,-2.18563 -1.94721,-2.18563 -1.09282,0 -1.62929,0.0795 -1.78824,0.27817 z"
         inkscape:connector-curvature="0"
         style="fill:#898fa9;fill-opacity:1;stroke:none;stroke-width:0.01986942" />
      <path
         id="path176"
         d="m 125.40537,198.85033 c -0.0397,0.19869 -0.15895,0.83451 -0.21856,1.39086 l -0.13909,1.05307 h 4.86801 4.86801 l 0.17882,-1.25177 c 0.0993,-0.67556 0.15896,-1.29151 0.11922,-1.39086 -0.0596,-0.0795 -2.22537,-0.13908 -4.82827,-0.13908 -4.3514,0 -4.74879,0.0199 -4.84814,0.33778 z"
         inkscape:connector-curvature="0"
         style="fill:#898fa9;fill-opacity:1;stroke:none;stroke-width:0.01986942" />
      <path
         id="path178"
         d="m 64.386422,204.81115 c -1.60942,0.33778 -4.17257,1.78825 -5.34487,3.02015 -0.33778,0.33778 -0.65569,0.61596 -0.75504,0.61596 -0.0795,0 -0.15895,-0.7153 -0.15895,-1.58956 v -1.58955 h -1.49021 c -1.37099,0 -1.49021,0.0397 -1.58955,0.43713 -0.0397,0.2583 -0.53648,3.71558 -1.09282,7.70933 -0.55634,3.99375 -1.03321,7.45103 -1.09282,7.68947 -0.0994,0.45699 -0.0795,0.45699 1.98694,0.45699 1.64916,0 2.08629,-0.0596 2.08629,-0.27817 0,-0.37752 1.1723,-9.04059 1.29151,-9.59693 0.0596,-0.2583 0.63583,-0.77491 1.54982,-1.33125 1.80812,-1.13256 2.68237,-1.49021 4.29179,-1.78825 l 1.29152,-0.23843 0.35765,-1.37099 c 0.17882,-0.77491 0.39738,-1.58955 0.45699,-1.84786 0.0993,-0.39739 0.0397,-0.43712 -0.63582,-0.41725 -0.41726,0.0199 -0.93386,0.0596 -1.15243,0.11921 z"
         inkscape:connector-curvature="0"
         style="fill:#898fa9;fill-opacity:1;stroke:none;stroke-width:0.01986942" />
      <path
         id="path180"
         d="m 82.586812,204.87076 c -4.74879,0.67556 -6.79534,3.67584 -6.85495,10.03406 -0.0199,2.32472 0.0199,2.68237 0.457,3.61623 0.59608,1.33125 1.84786,2.48368 3.21885,2.96055 2.08628,0.73516 8.82202,0.39738 10.27249,-0.49674 0.17882,-0.0993 0.19869,-0.49674 0.11921,-1.35112 l -0.13908,-1.21204 -3.79506,0.0994 c -3.41754,0.0993 -3.89441,0.0795 -4.56997,-0.23843 -0.79478,-0.37752 -1.49021,-1.51007 -1.51008,-2.42407 0,-0.49673 0.0993,-0.5166 4.37128,-0.87425 3.49702,-0.27817 5.00709,-0.75504 6.08004,-1.84786 0.95373,-1.01334 1.37099,-2.26511 1.35112,-4.0931 -0.0397,-2.88106 -1.66903,-4.07323 -5.84161,-4.25205 -1.03321,-0.0596 -2.46381,-0.0199 -3.15924,0.0795 z m 3.69572,3.17911 c 0.87425,0 1.25177,0.45699 1.25177,1.51007 0,1.8876 -0.89413,2.54329 -3.87454,2.76185 -0.87425,0.0596 -2.04655,0.15896 -2.62276,0.21857 l -1.03321,0.11921 0.29804,-1.25177 c 0.33778,-1.4306 0.85438,-2.38433 1.58955,-2.8612 0.63582,-0.41726 2.12603,-0.69543 3.05989,-0.57621 0.37752,0.0397 0.97361,0.0795 1.33126,0.0795 z"
         inkscape:connector-curvature="0"
         style="fill:#898fa9;fill-opacity:1;stroke:none;stroke-width:0.01986942" />
      <path
         id="path182"
         d="m 150.06332,204.89063 c -1.19216,0.27817 -2.72211,1.13256 -4.25205,2.38433 -0.79478,0.63582 -1.49021,1.1723 -1.52995,1.1723 -0.0397,0 -0.0397,-0.7153 0.0199,-1.58956 l 0.11922,-1.58955 h -1.62929 c -0.87426,0 -1.60943,0.0596 -1.60943,0.13908 0,0.0795 -0.49673,3.59637 -1.09282,7.84843 -0.59608,4.23218 -1.09281,7.84842 -1.09281,8.00737 0,0.23843 0.35765,0.29804 1.98694,0.29804 1.09282,0 1.98694,-0.0199 1.98694,-0.0596 0,-0.0199 0.31791,-2.30485 0.69543,-5.0667 0.37752,-2.76185 0.69543,-5.0667 0.69543,-5.10644 0,-0.15896 3.1195,-1.9472 4.01362,-2.30485 0.53648,-0.1987 1.45047,-0.43713 2.04655,-0.49674 l 1.07295,-0.13908 0.39739,-1.76838 c 0.23843,-0.9736 0.41726,-1.80812 0.41726,-1.86773 0,-0.13908 -1.45047,-0.0596 -2.24525,0.13909 z"
         inkscape:connector-curvature="0"
         style="fill:#898fa9;fill-opacity:1;stroke:none;stroke-width:0.01986942" />
      <path
         id="path184"
         d="m 159.85895,204.89063 c -1.60943,0.21856 -3.19898,0.87425 -4.13284,1.6889 -1.72864,1.47034 -2.92081,5.10644 -2.92081,8.92137 0,1.86773 0.0795,2.34459 0.47687,3.23872 0.57621,1.27164 1.70877,2.28498 3.07976,2.76184 0.79478,0.27818 1.62929,0.35765 3.89441,0.35765 2.50354,-0.0199 3.02015,-0.0795 3.99375,-0.45699 3.09963,-1.23191 4.64944,-4.21232 4.88788,-9.39824 0.13908,-2.9208 -0.13909,-4.11297 -1.25178,-5.34487 -1.4306,-1.58956 -4.58983,-2.28499 -8.02724,-1.76838 z m 4.07323,3.45728 c 0.87425,0.41726 1.09282,1.01334 1.09282,2.90093 0,2.02668 -0.47687,4.37128 -1.15243,5.62305 -0.63582,1.1723 -1.51008,1.6889 -3.07976,1.84786 -2.26511,0.23843 -3.5765,-0.457 -3.79506,-2.00682 -0.27817,-1.84785 0.61595,-6.23899 1.51008,-7.37155 0.23843,-0.29804 0.79477,-0.7153 1.2319,-0.91399 1.03321,-0.47687 3.27846,-0.49674 4.19245,-0.0795 z"
         inkscape:connector-curvature="0"
         style="fill:#898fa9;fill-opacity:1;stroke:none;stroke-width:0.01986942" />
      <path
         id="path186"
         d="m 177.06587,204.89063 c -3.17911,0.457 -4.49049,1.80812 -4.49049,4.64944 0,1.39086 0.65569,2.62277 1.78824,3.37781 0.49674,0.33778 2.18564,1.17229 3.77519,1.88759 1.58956,0.69543 3.07976,1.39086 3.33807,1.54981 0.55634,0.35765 0.57621,1.23191 0.0596,1.70877 -0.57621,0.51661 -3.19897,0.77491 -6.73573,0.63583 -2.4042,-0.0795 -3.05989,-0.0596 -3.13937,0.13908 -0.0596,0.15896 -0.11921,0.79478 -0.13908,1.45047 l -0.0397,1.1723 2.08629,0.2583 c 1.29151,0.15895 3.25858,0.21856 5.16605,0.17882 4.51035,-0.13908 5.76213,-0.63582 6.67612,-2.60289 0.33778,-0.73517 0.47687,-1.37099 0.47687,-2.26511 0,-2.3446 -0.57622,-2.88107 -5.36475,-5.10645 -2.00681,-0.93386 -3.73545,-1.80811 -3.81492,-1.9472 -0.29805,-0.47687 -0.15896,-1.31138 0.27817,-1.60942 0.37752,-0.2583 1.19216,-0.31791 4.94748,-0.31791 3.59637,0 4.53023,-0.0596 4.60971,-0.25831 0.0596,-0.15895 0.15895,-0.7749 0.23843,-1.37099 l 0.13909,-1.09281 -0.87426,-0.13909 c -1.33125,-0.19869 -5.70252,-0.5166 -6.81521,-0.49673 -0.53647,0.0199 -1.52994,0.0994 -2.16576,0.19869 z"
         inkscape:connector-curvature="0"
         style="fill:#898fa9;fill-opacity:1;stroke:none;stroke-width:0.01986942" />
      <path
         id="path188"
         d="m 43.424192,205.24828 c -1.13256,0.43713 -2.92081,1.56968 -3.99376,2.54328 l -0.83451,0.75504 0.13908,-1.64916 0.11922,-1.62929 h -1.64916 -1.64916 l -1.54982,11.06727 c -0.83451,6.09991 -1.58955,11.24609 -1.62929,11.42491 -0.0993,0.31791 0.0795,0.35765 1.96707,0.35765 h 2.08629 l 0.29804,-2.1459 c 0.17883,-1.17229 0.37752,-2.64263 0.43713,-3.27845 0.11922,-0.9736 0.17882,-1.13256 0.457,-1.03321 0.17882,0.0795 1.72864,0.17882 3.43741,0.23843 3.71558,0.13909 4.80839,-0.11921 6.27873,-1.41073 1.76838,-1.56968 2.88107,-5.30513 2.92081,-9.85523 0.0199,-2.38433 0,-2.52341 -0.57622,-3.67584 -0.47686,-0.9736 -0.75503,-1.27164 -1.4902,-1.64916 -1.11269,-0.55635 -3.41754,-0.59609 -4.76866,-0.0596 z m 2.38433,3.53676 c 0.41725,0.5166 0.43712,0.69543 0.31791,2.58302 -0.13909,2.54329 -0.61595,4.88788 -1.1723,5.92109 -0.67556,1.2319 -1.47034,1.51007 -4.53023,1.64916 l -2.56315,0.0993 v -0.47687 c 0,-0.49673 0.73517,-6.11978 0.89412,-6.87482 0.13909,-0.55634 2.10616,-2.08628 3.71558,-2.84132 1.64917,-0.79478 2.74198,-0.79478 3.33807,-0.0596 z"
         inkscape:connector-curvature="0"
         style="fill:#898fa9;fill-opacity:1;stroke:none;stroke-width:0.01986942" />
      <path
         id="path190"
         d="m 67.883442,212.85827 c -0.57621,4.19244 -1.09282,7.86829 -1.15242,8.16633 l -0.11922,0.55634 2.06642,-0.0596 2.04655,-0.0596 1.03321,-7.55038 c 0.57621,-4.15271 1.09282,-7.78881 1.13256,-8.10672 l 0.0795,-0.53647 h -2.02668 -2.00681 z"
         inkscape:connector-curvature="0"
         style="fill:#898fa9;fill-opacity:1;stroke:none;stroke-width:0.01986942" />
      <path
         id="path192"
         d="m 95.20388,205.80462 c -0.0596,0.31791 -0.15895,0.9736 -0.23843,1.49021 l -0.11921,0.95373 h 4.609676 c 2.523414,0 4.569964,0.0795 4.530224,0.17883 -0.0199,0.0795 -2.44394,2.36446 -5.344871,5.0667 -2.940652,2.70224 -5.34484,5.10644 -5.40445,5.34487 -0.0596,0.23844 -0.178817,0.95373 -0.238427,1.56969 l -0.13909,1.15242 h 7.152948 7.153 l 0.11921,-0.95373 c 0.0795,-0.5166 0.1987,-1.2319 0.2583,-1.58955 l 0.0993,-0.63582 h -4.78853 -4.788518 l 5.424338,-5.04684 5.44422,-5.0667 0.11922,-1.05308 c 0.0795,-0.57621 0.13909,-1.25177 0.13909,-1.51007 v -0.43713 h -6.93443 -6.934403 z"
         inkscape:connector-curvature="0"
         style="fill:#898fa9;fill-opacity:1;stroke:none;stroke-width:0.01986942" />
      <path
         id="path194"
         d="m 113.26516,205.50658 c -0.0397,0.13909 -0.53648,3.55663 -1.09282,7.60999 -0.55634,4.03349 -1.05308,7.60999 -1.11269,7.90803 l -0.11921,0.55634 2.06642,-0.0596 2.04655,-0.0596 1.03321,-7.45103 c 0.55634,-4.0931 1.07294,-7.74907 1.13255,-8.10672 l 0.0994,-0.63582 h -1.98694 c -1.41073,0 -2.00681,0.0795 -2.06642,0.23843 z"
         inkscape:connector-curvature="0"
         style="fill:#898fa9;fill-opacity:1;stroke:none;stroke-width:0.01986942" />
      <path
         id="path196"
         d="m 120.95462,211.36806 c -0.45699,3.3778 -0.83451,6.61652 -0.83451,7.23247 0,1.39086 0.53647,2.28498 1.78825,2.9208 0.75503,0.39739 1.13255,0.457 2.48367,0.39739 1.33125,-0.0596 1.82799,-0.17882 3.07976,-0.7749 0.81465,-0.39739 2.06642,-1.19217 2.76185,-1.76838 l 1.27165,-1.05308 -0.13909,1.60942 -0.13909,1.62929 h 1.58956 1.58955 l 0.11922,-0.65569 c 0.21856,-1.25177 2.08629,-14.9418 2.08629,-15.29945 0,-0.29804 -0.21857,-0.33778 -1.98695,-0.33778 -1.45046,0 -1.98694,0.0596 -1.98694,0.23843 -0.0199,0.89413 -1.39086,9.97445 -1.52994,10.09367 -2.12603,1.88759 -4.05337,2.98041 -5.34488,2.98041 -1.03321,0 -1.47033,-0.457 -1.47033,-1.52995 0,-0.65569 1.11268,-8.94123 1.4902,-11.14674 l 0.11922,-0.63582 h -2.04655 -2.04655 z"
         inkscape:connector-curvature="0"
         style="fill:#898fa9;fill-opacity:1;stroke:none;stroke-width:0.01986942" />
      <path
         id="path198"
         d="m 121.31227,235.13188 c 0,0.0199 -0.7153,5.08657 -1.58955,11.26596 -0.85439,6.15952 -1.52995,11.2461 -1.49021,11.28583 0.0397,0.0596 0.75504,0.25831 1.58956,0.457 3.97388,0.93386 8.88163,1.03321 10.78909,0.1987 2.74198,-1.21204 4.11297,-4.39115 4.3514,-10.17315 0.13909,-3.27845 -0.11921,-4.33153 -1.35112,-5.42435 -0.41725,-0.39739 -0.79477,-0.7153 -0.83451,-0.7153 -0.0199,0 -0.55635,-0.0795 -1.19217,-0.19869 -2.12603,-0.33778 -4.17258,0.33778 -6.59664,2.2055 l -1.25178,0.95374 0.27817,-1.03321 c 0.23844,-0.87426 1.27165,-7.94777 1.27165,-8.66307 0,-0.13909 -0.61596,-0.21856 -1.98695,-0.21856 -1.09281,0 -1.98694,0.0199 -1.98694,0.0596 z m 9.15981,10.45132 c 0.43712,0.35765 0.47686,0.5166 0.43712,2.04655 -0.0397,2.06642 -0.53647,5.10644 -1.03321,6.21913 -0.19869,0.45699 -0.67556,1.05308 -1.03321,1.31138 -0.61595,0.43713 -0.89412,0.47686 -3.49702,0.53647 -1.76837,0.0397 -2.84132,0 -2.84132,-0.11921 0,-0.11922 0.21856,-1.72864 0.49673,-3.61624 0.27818,-1.88759 0.49674,-3.49702 0.49674,-3.59636 0,-0.29804 2.38433,-1.96708 3.67584,-2.58303 1.41073,-0.67556 2.62276,-0.75504 3.29833,-0.19869 z"
         inkscape:connector-curvature="0"
         style="fill:#898fa9;fill-opacity:1;stroke:none;stroke-width:0.01986942" />
      <path
         id="path200"
         d="m 37.582582,238.09243 c -0.0596,0.35765 -0.21857,1.4306 -0.33778,2.38433 l -0.23844,1.74851 h -1.45046 c -0.79478,0 -1.49021,0.0596 -1.52995,0.13908 -0.0596,0.0994 -0.15895,0.7153 -0.23843,1.39086 l -0.13909,1.25178 h 1.41073 c 1.35112,0 1.41073,0.0199 1.41073,0.47686 0,0.2583 -0.2583,2.32472 -0.59608,4.58984 -0.65569,4.58983 -0.7153,5.782 -0.31791,6.71586 0.33778,0.83452 1.31138,1.64916 2.26511,1.92733 0.93386,0.25831 3.00028,0.21857 4.41101,-0.0596 l 1.09282,-0.23844 v -1.4902 -1.49021 l -1.6889,-0.0994 c -0.93386,-0.0596 -1.80812,-0.17882 -1.92734,-0.2583 -0.15895,-0.0994 -0.2583,-0.57621 -0.2583,-1.11269 0,-0.85438 0.83452,-7.31194 1.09282,-8.52398 0.0993,-0.41726 0.17883,-0.43712 2.48368,-0.43712 h 2.36446 l 0.11922,-0.69543 c 0.0596,-0.37752 0.13908,-1.01335 0.19869,-1.39086 l 0.11922,-0.69543 h -2.4042 c -1.31139,0 -2.38433,-0.0596 -2.38433,-0.15896 0,-0.0795 0.13908,-0.99347 0.29804,-2.02668 0.43712,-2.84133 0.59608,-2.58302 -1.66903,-2.58302 h -1.96708 z"
         inkscape:connector-curvature="0"
         style="fill:#898fa9;fill-opacity:1;stroke:none;stroke-width:0.01986942" />
      <path
         id="path202"
         d="m 53.021122,241.80801 c -2.52342,0.41726 -4.23219,1.9472 -5.10644,4.58983 -1.15243,3.49702 -1.4306,8.22594 -0.57622,10.13341 0.73517,1.66903 2.04655,2.38433 4.3514,2.38433 2.10616,0 4.21232,-0.83452 5.86148,-2.32472 l 0.77491,-0.69543 v 1.31138 1.31138 h 1.56969 c 1.33125,0 1.58955,-0.0596 1.6889,-0.35765 0.0397,-0.17882 0.55634,-3.71558 1.13255,-7.84842 0.83452,-6.0403 0.99347,-7.55038 0.77491,-7.68947 -0.89412,-0.55634 -8.40476,-1.13255 -10.47118,-0.81464 z m 6.2986,3.3778 c 0,0.0994 -0.21856,1.72864 -0.49673,3.6361 l -0.49674,3.43741 -1.07295,1.01334 c -1.6889,1.54982 -2.94067,2.1459 -4.45075,2.16577 -1.64916,0 -1.82798,-0.21856 -1.82798,-2.36446 0,-1.86773 0.47686,-4.98722 0.91399,-6.0403 0.7153,-1.72864 1.39086,-2.00682 4.8084,-2.02668 1.4306,0 2.62276,0.0795 2.62276,0.17882 z"
         inkscape:connector-curvature="0"
         style="fill:#898fa9;fill-opacity:1;stroke:none;stroke-width:0.01986942" />
      <path
         id="path204"
         d="m 77.142592,241.84775 c -1.4306,0.33778 -4.37127,2.14589 -5.28526,3.23871 -0.49674,0.57622 -0.57622,0.33778 -0.47687,-1.27164 l 0.11922,-1.58955 h -1.6293 c -0.87425,0 -1.60942,0.0795 -1.60942,0.15895 0,0.0994 -0.49673,3.59637 -1.09282,7.78881 -0.59608,4.19245 -1.09282,7.78882 -1.09282,7.98751 0,0.31791 0.1987,0.35765 1.98695,0.35765 1.09282,0 1.98694,-0.0199 1.98694,-0.0596 0,-0.0199 0.31791,-2.32472 0.69543,-5.10644 0.37752,-2.78172 0.69543,-5.08657 0.69543,-5.10644 0,-0.0199 0.69543,-0.43713 1.52994,-0.95373 1.8876,-1.15243 3.13937,-1.64916 4.51036,-1.80812 l 1.09282,-0.13908 0.29804,-1.41073 c 0.17883,-0.77491 0.37752,-1.60943 0.43713,-1.86773 0.11922,-0.39739 0.0596,-0.43713 -0.63582,-0.41726 -0.43713,0.0199 -1.11269,0.0994 -1.52995,0.1987 z"
         inkscape:connector-curvature="0"
         style="fill:#898fa9;fill-opacity:1;stroke:none;stroke-width:0.01986942" />
      <path
         id="path206"
         d="m 90.912102,241.92722 c -1.35112,0.37752 -2.90094,1.25178 -4.51036,2.50355 l -1.25177,0.9736 v -1.58955 -1.58955 h -1.58956 c -0.87425,0 -1.58955,0.0596 -1.58955,0.13908 0,0.0795 -0.49673,3.59637 -1.09282,7.84842 -0.59608,4.23219 -1.09282,7.84842 -1.09282,8.00738 0,0.23843 0.35765,0.29804 1.98695,0.29804 1.09281,0 1.98694,-0.0199 1.98694,-0.0596 0,-0.0199 0.31791,-2.30485 0.69543,-5.0667 0.37752,-2.76185 0.69543,-5.04683 0.69543,-5.08657 0,-0.13909 2.70224,-1.98694 3.67584,-2.50355 0.83452,-0.43713 1.41073,-0.59608 2.16577,-0.59608 1.21203,0 1.51007,0.23843 1.51007,1.19216 0,0.59609 -1.15242,9.41811 -1.51007,11.48453 l -0.0993,0.65569 2.04655,-0.0596 2.026668,-0.0596 0.854384,-5.86148 c 1.112674,-7.70933 1.112674,-8.46437 -0.0199,-9.69627 -0.973594,-1.09282 -2.960532,-1.47034 -4.887862,-0.93387 z"
         inkscape:connector-curvature="0"
         style="fill:#898fa9;fill-opacity:1;stroke:none;stroke-width:0.01986942" />
      <path
         id="path208"
         d="m 144.46015,241.7484 c -3.00029,0.41726 -4.68919,1.86773 -5.64292,4.82827 -0.99347,3.05989 -1.27164,8.28555 -0.55634,9.97445 0.41726,0.91399 1.51007,1.88759 2.46381,2.1459 2.4638,0.69543 5.70252,-0.17883 7.82855,-2.10616 l 0.7749,-0.69543 v 1.31138 1.31138 h 1.56969 c 1.47034,0 1.56968,-0.0397 1.66903,-0.457 0.0596,-0.23843 0.57621,-3.77519 1.15243,-7.84842 0.83451,-5.96082 0.99347,-7.45103 0.7749,-7.59012 -0.7749,-0.47686 -8.22594,-1.13255 -10.03405,-0.87425 z m 5.86148,3.31819 c 0,0.0397 -0.21857,1.66903 -0.49674,3.63611 l -0.47687,3.55662 -1.15242,1.03321 c -1.52995,1.39086 -2.82146,2.06642 -4.19245,2.18564 -0.93386,0.0795 -1.21203,0.0397 -1.62929,-0.29804 -0.43713,-0.35765 -0.47687,-0.51661 -0.457,-1.98694 0.0397,-1.92734 0.55634,-5.16605 0.95373,-6.15952 0.73517,-1.72864 1.41073,-2.00682 4.82827,-2.02668 1.4306,0 2.62277,0.0397 2.62277,0.0596 z"
         inkscape:connector-curvature="0"
         style="fill:#898fa9;fill-opacity:1;stroke:none;stroke-width:0.01986942" />
      <path
         id="path210"
         d="m 99.853303,242.50344 c 0,0.15895 0.675557,3.59636 1.490207,7.60999 1.43059,7.05364 1.51007,7.33181 2.08628,7.84842 0.51661,0.47686 0.77491,0.55634 1.80812,0.55634 h 1.21204 l -0.61596,0.77491 c -0.89412,1.11269 -2.60289,2.2055 -4.45075,2.84133 -0.89412,0.29804 -1.609417,0.59608 -1.609417,0.65569 0.516607,2.42407 0.536477,2.48367 0.953727,2.48367 0.87426,0 2.84133,-0.61595 4.39115,-1.37099 1.78824,-0.89412 3.67584,-2.62276 5.18591,-4.8084 1.21204,-1.72864 3.49702,-6.37808 4.35141,-8.92137 0.7153,-2.06642 2.08629,-7.11325 2.08629,-7.64972 0,-0.23844 -0.39739,-0.29804 -2.06642,-0.29804 h -2.08629 l -0.21857,1.13255 c -0.67556,3.41754 -1.66903,6.63639 -3.07976,9.97445 l -0.93386,2.20551 h -0.9736 c -0.83452,0 -1.01334,-0.0596 -1.1723,-0.457 -0.0993,-0.23843 -0.59608,-3.04002 -1.09281,-6.19926 -0.51661,-3.17911 -0.97361,-5.96082 -1.03321,-6.21913 -0.0993,-0.41725 -0.1987,-0.43712 -2.16577,-0.43712 -1.66903,0 -2.066417,0.0596 -2.066417,0.27817 z"
         inkscape:connector-curvature="0"
         style="fill:#898fa9;fill-opacity:1;stroke:none;stroke-width:0.01986942" />
    </g>
  </g>
</svg>
