<?xml version="1.0" encoding="utf-8"?>
<!-- Generator: Adobe Illustrator 26.4.1, SVG Export Plug-In . SVG Version: 6.00 Build 0)  -->
<svg version="1.1" xmlns="http://www.w3.org/2000/svg" xmlns:xlink="http://www.w3.org/1999/xlink" x="0px" y="0px" width="58px"
	 height="62px" viewBox="0 0 58 62" style="enable-background:new 0 0 58 62;" xml:space="preserve">
<style type="text/css">
	.st0{fill:#021DE5;}
	.st1{fill:#FFFFFF;}
</style>
<g id="Layer_4">
</g>
<g id="Layer_3">
	<g>
		<path class="st0" d="M56,15.2c-1.7-0.5-3.4-1-5.1-1.5l-0.1,0l0-0.1c0-1.1,0.1-2.3,0.1-3.3c0-1.6,0.1-3.3,0.1-5l0,0l0-1.1
			c0-0.1,0-0.1-0.1-0.2C51,4,50.9,4,50.9,4l-1,0.3c-1.4,0.3-2.7,0.5-4,0.5c-0.8,0-1.6-0.1-2.4-0.2c-2-0.3-3.9-0.8-5.9-1.4l0,0
			c-1.5-0.4-3.1-0.9-4.8-1.3c-1.7-0.4-3.6-0.5-5.5-0.3c-0.4,0-0.7,0.1-1.1,0.1c-0.3,0-0.7,0.1-1,0.2l0,0c-1.8,0.4-3.4,0.9-4.9,1.3
			l0,0c-2,0.6-3.8,1.1-5.8,1.4c-2.2,0.3-4.2,0.2-6.3-0.3L7.1,4C7.1,4,7,4,6.9,4c-0.1,0-0.1,0.1-0.1,0.2l0,1.1C6.9,7,7,8.6,7,10.2
			l0,0.1c0,1.1,0.1,2.3,0.1,3.5l0,0.1l-0.1,0C5.7,14.2,4.3,14.6,3,15l-0.1,0l-0.6,0.2l-1.7,7.2L5,27.7l0.7-0.2
			c0.7-0.2,1.4-0.4,2.1-0.6l0.1,0l0,0.1c0.5,4.2,1.2,7.9,2.3,11.3c2.2,7.5,6.1,13.6,11.2,17.8c1.1,0.9,2.2,1.7,3.4,2.4
			c1.2,0.7,2.5,1.4,3.8,1.9l0,0l0.4,0.2l0.4-0.2C36,57.6,41.1,52.8,44.7,46c0.6-1.2,1.2-2.5,1.7-3.8c0.5-1.3,1-2.6,1.4-4l0,0
			c1-3.5,1.8-7.3,2.3-11.7l0-0.1l0.1,0c0.7,0.2,1.5,0.4,2.2,0.7l0.7,0.2l0.5-0.6l3.4-4l0.3-0.4l-0.7-7.1L56,15.2z"/>
		<path class="st1" d="M56.9,16.1l-0.1-0.8L56,15.1c-1.7-0.5-3.4-1-5.1-1.5c0-1.1,0.1-2.2,0.1-3.3c0-1.6,0.1-3.3,0.1-5l0,0l0-1.1
			c0-0.2-0.2-0.4-0.4-0.3l-1,0.3c-4.7,1.1-8.2,0.1-12.2-1.1c-1.5-0.4-3.1-0.9-4.9-1.3C31,1.4,29,1.3,27.2,1.4
			c-0.4,0-0.8,0.1-1.1,0.1c-0.3,0-0.7,0.1-1,0.2l0,0c-1.8,0.4-3.4,0.9-4.9,1.3c-3.9,1.2-7.4,2.2-12,1.1l-1-0.3
			C6.9,3.8,6.7,4,6.7,4.2l0,1.1c0.1,1.7,0.1,3.3,0.1,5C7,11.4,7,12.6,7,13.7c-1.4,0.4-2.7,0.8-4.1,1.2l-0.1,0l-0.7,0.2l-0.2,0.7
			l-1.4,6l-0.1,0.6l0.4,0.5l3.5,4.2L5,27.8l0.8-0.2c0.7-0.2,1.4-0.4,2.1-0.6c0.5,3.8,1.1,7.6,2.3,11.3c2.1,7,5.7,13.3,11.2,17.8
			c1.1,0.9,2.2,1.7,3.4,2.4c1.2,0.7,2.5,1.4,3.8,2l0,0l0,0l0.4,0.2l0.4-0.2c7-2.9,12-8.1,15.3-14.4c0.6-1.2,1.2-2.5,1.7-3.8
			c0.5-1.3,1-2.7,1.4-4l0,0c1.1-3.8,1.8-7.7,2.3-11.7c0.7,0.2,1.5,0.4,2.2,0.7l0.8,0.2l0.5-0.6l3.4-4l0.3-0.4l0-0.5L56.9,16.1z
			 M9,26.6c6.1-1.7,12-2.7,17.9-3l-0.3,0.8l0,0l0,0c0,0,0,0,0,0c0,0,0,0,0,0.1c0,0,0,0,0,0c0,0.1-0.1,0.3-0.1,0.4h0
			c0,0.1,0,0.2,0,0.3c0,0.1,0,0.1,0,0.1c0,0,0,0.1,0,0.1c0,0,0,0.1,0,0.1c0.1,0.1,0.2,0.2,0.3,0.3l0,0c0,0,0,0,0,0c0,0,0,0,0,0
			c0,0,0,0,0,0c0,0,0.1,0.1,0.1,0.1c0.2,0.1,0.4,0.2,0.6,0.2v1.2l-2-2.5c0,0,0,0,0,0c-0.1-0.1-0.2-0.2-0.3-0.3
			c-0.2-0.1-0.4-0.2-0.6-0.2c0,0,0,0-0.1,0l0,0l0,0l0,0l0,0c-0.1,0-0.2,0-0.3,0.1l0,0c-0.1,0-0.2,0.1-0.3,0.1
			c-0.3,0.2-0.5,0.5-0.5,0.9c0,0,0,0,0,0l-0.5,3.2c0,0,0,0,0,0.1l0,0c0,0,0,0.1,0,0.1v0h0c0,0.2,0,0.3,0.1,0.5c0,0.1,0,0.1,0,0.1
			c0,0,0,0.1,0.1,0.1c0.1,0.1,0.1,0.2,0.2,0.2h0c0.1,0.1,0.1,0.1,0.2,0.2l0,0c0.1,0.1,0.2,0.1,0.3,0.1c0,0,0.1,0,0.1,0l0,0
			c0.1,0,0.2,0,0.3,0v0h0c0,0,0.1,0,0.1,0c0,0,0.1,0,0.1,0l0,0l0,0l0,0c0,0,0.1,0,0.1,0l0,0l0,0c0,0.2,0.1,0.4,0.1,0.5
			c0.1,0.8,0.3,1.9,0.4,3.1l0,0l0,0.1c0,0.1,0,0,0,0.2c-0.2,0-0.4,0-0.5,0c-0.1,0-0.1,0-0.2,0.1l0,0c-1.1,0.4-2,1-2.9,1.7
			c-0.8,0.6-1.4,1.3-2,2.1h-8.4C10.2,34.2,9.5,30.4,9,26.6z M29,55.7L29,55.7L29,55.7L29,55.7c-1.6,0-3.1-0.3-4.4-0.9
			c-0.9-0.4-1.7-0.9-2.5-1.5c-0.8-0.6-1.4-1.3-2-2.1c-1.3-1.8-2.1-4-2.1-6.4c0-1.4,0.3-2.7,0.7-3.9c0.2-0.4,0.3-0.8,0.5-1.1
			c0.4-0.8,0.9-1.5,1.5-2.1c1.1-1.3,2.6-2.3,4.2-2.9l0,0c0,0,0,0,0.1,0c0.1,0,0.3,0,0.4,0.1c0.1,0.1,0.2,0.2,0.3,0.3v0
			c0,0,0,0.1,0,0.1c0.1,0.2,0,0.5-0.2,0.6l0,0c0,0-0.1,0.1-0.1,0.1c0,0-0.1,0-0.1,0c-0.9,0.4-1.7,0.8-2.4,1.4
			c-0.1,0.1-0.3,0.2-0.4,0.3c-0.1,0.1-0.3,0.2-0.4,0.4l0,0l0,0l0,0c-0.7,0.7-1.4,1.6-1.8,2.5c-0.1,0.2-0.2,0.4-0.3,0.6
			c-0.5,1.2-0.8,2.4-0.8,3.8h0v0c0,0.1,0,0.1,0,0.1c0,0,0,0,0.1,0.1c0,0,0.1,0.1,0.1,0.1l0,0c0,0,0.1,0.1,0.2,0.1v0
			c0.1,0,0.1,0.1,0.2,0.1l0,0c0.3,0.2,0.8,0.4,1.4,0.6c0.1,0,0.2,0.1,0.3,0.1c0.1,0,0.2,0.1,0.4,0.1h0l0,0c0.6,0.2,1.3,0.3,2.1,0.4
			c0.2,0,0.3,0,0.5,0.1c0.1,0,0.3,0,0.5,0.1c0.1,0,0.1,0,0.2,0c0.1,0,0.1-0.1,0.2-0.3h0c0.3-1.2,0.5-2.4,0.7-3.6
			c0-0.2,0.1-0.5,0.1-0.7c0.2-1.4,0.2-2.8,0.2-4.1h0v0l0,0l0,0h0c0-0.3,0-0.6,0-0.9c0-0.3,0-0.6,0-0.9v0l0,0h0v0h0v0
			c0-0.1,0-0.2,0-0.3c0-0.1,0-0.2,0-0.2l0,0v0l0-0.1l0-0.1l0,0v0h0l0,0h0l0,0l0,0v0h0c0-0.1,0-0.2,0-0.3h0l0-0.3l0-0.1l0-0.1l0,0
			l0-0.2c0-0.2,0-0.3,0-0.3l0-0.1h0c-0.1-1.2-0.3-2.3-0.4-3.2c0-0.1-0.1-0.3-0.1-0.5c0-0.2-0.1-0.3-0.1-0.4l0,0l0,0h0
			c0-0.1-0.1-0.1-0.1-0.2c0,0-0.1,0-0.2,0v0c-0.1,0-0.1,0-0.1,0v0l0,0v0l0,0l0,0l-0.2,0.1c0,0-0.1,0-0.1,0l0,0l0,0l0,0
			c0,0-0.1,0-0.1,0l0,0h0v0c-0.1,0-0.1,0-0.1,0l0,0c0,0,0,0,0,0c0,0-0.1,0-0.1,0c-0.1,0-0.1-0.1-0.2-0.1v0l0,0l0,0
			c0,0-0.1-0.1-0.1-0.2l0,0c0,0,0,0,0,0v0c0-0.1,0-0.2,0-0.2h0v0c0,0,0,0,0-0.1v0c0,0,0,0,0-0.1v0l0.5-3.3h0c0-0.2,0.1-0.3,0.2-0.4
			v0c0,0,0.1,0,0.1-0.1v0c0,0,0.1,0,0.1,0c0,0,0,0,0,0h0c0.1,0,0.2,0,0.3,0.1c0.1,0,0.1,0.1,0.2,0.2l0,0l2,2.5
			c0,0.1,0.1,0.1,0.1,0.2c0,0,0,0,0,0c0,0.1,0,0.2,0,0.2v0h0v0h0c0,0.2-0.1,0.4-0.2,0.5c0,0-0.1,0-0.1,0.1c0,0-0.1,0-0.1,0.1
			c0,0,0,0-0.1,0L26.6,29c0,0-0.1,0-0.1,0.1h0c0,0,0,0.1,0,0.1h0l0,0v0c0.1,0.3,0.1,0.4,0.1,0.6c0,0.1,0.1,0.4,0.1,0.7
			c0.1,0.5,0.2,1.1,0.3,1.8c0.1,0.6,0.1,1.2,0.2,1.9l0,0l0,0.2l0,0.1c0,0.1,0,0.2,0,0.3c0,0.1,0,0.2,0,0.3v0l0,0.1l0,0.2l0,0
			c0,0.4,0,0.7,0,1.1c0,0.4,0,0.9,0,1.4c0,1.2,0,2.4-0.2,3.7c-0.1,1.3-0.3,2.6-0.6,3.9c0,0.1-0.1,0.2-0.1,0.4
			c-0.1,0.3-0.2,0.6-0.2,0.8l0,0h0v0h0c0,0,0,0.1,0,0.1l0,0l0,0l0,0v0c0.5,0,0.9,0.1,1.4,0.1c0.1,0,0.2,0,0.3,0c0.1,0,0.2,0,0.3,0
			l0,0c0,0,0,0,0,0l0,0c0,0,0,0,0-0.1h0c0,0,0-0.1,0-0.2l0,0c0,0,0,0,0,0l0,0l0,0h0l0,0h0V36.3v-1.4v-0.6v-1.1h0V26h0v0h0
			c0-0.2-0.1-0.3-0.2-0.3c-0.1-0.1-0.2-0.1-0.3-0.1h-0.1h0c-0.1,0-0.3,0-0.4-0.1c0,0,0,0-0.1,0v0c0,0,0,0-0.1,0l0,0l0,0l0,0l0,0l0,0
			l0,0l0,0c-0.1,0-0.1-0.1-0.1-0.2l0,0c0,0,0,0,0-0.1l0,0c0,0,0,0,0-0.1l0,0c0-0.1,0-0.1,0-0.2h0c0-0.1,0-0.1,0-0.2c0,0,0,0,0,0
			c0,0,0,0,0,0l0,0l0,0h0l0,0l1.3-3.4l0,0c0-0.1,0.1-0.2,0.2-0.3c0.1-0.1,0.2-0.1,0.3-0.1l0,0h0l0,0c0.1,0,0.2,0.1,0.3,0.1
			c0.1,0.1,0.1,0.2,0.2,0.3l0,0l1.3,3.4c0,0,0,0.1,0,0.1l0,0l0,0l0,0c0,0,0,0.1,0,0.1l0,0v0h0c0,0.1,0,0.1,0,0.2c0,0,0,0,0,0l0,0
			c0,0,0,0.1,0,0.1c0,0.1-0.1,0.1-0.1,0.2l0,0l0,0c-0.1,0-0.1,0.1-0.2,0.1l0,0c0,0,0,0,0,0l0,0c-0.1,0-0.2,0-0.3,0v0h0h0h-0.1
			c-0.1,0-0.2,0-0.3,0.1c-0.1,0.1-0.2,0.1-0.2,0.3h0v0h0v7.2h0v1.1v0.6v1.4v10.3h0c0,0,0,0.1,0,0.1c0,0,0,0,0,0l0,0c0,0,0,0,0,0l0,0
			l0,0h0c0,0,0,0.1,0,0.1l0,0c0,0,0,0,0,0c0.5,0,0.9,0,1.4,0c0.1,0,0.2,0,0.3,0c0.1,0,0.2,0,0.3,0h0l0,0l0,0c0,0,0-0.1,0-0.1h0
			c0-0.2-0.1-0.5-0.2-0.8c0-0.1-0.1-0.3-0.1-0.4v0l0,0h0c-0.3-1.3-0.5-2.6-0.6-3.9c-0.1-1.3-0.2-2.5-0.2-3.7c0-0.5,0-0.9,0-1.4
			c0-0.4,0-0.8,0.1-1.1l0,0l0-0.2l0-0.1c0-0.2,0-0.3,0-0.4v0l0-0.1l0-0.1l0,0l0-0.1l0-0.2l0,0c0-0.6,0.1-1.2,0.2-1.7
			c0.1-0.6,0.1-1.1,0.2-1.6c0-0.3,0.1-0.5,0.1-0.8c0-0.3,0.1-0.5,0.2-0.8l0,0l0,0l0,0c0,0,0-0.1,0-0.1h0c0,0,0,0-0.1-0.1l-0.4-0.1v0
			c-0.2-0.1-0.3-0.2-0.4-0.3c0,0,0-0.1,0-0.1v0c0,0,0-0.1,0-0.1c0,0,0-0.1,0-0.1h0c0-0.1,0-0.2,0.1-0.3l0,0c0,0,0,0,0-0.1l0,0
			c0,0,0,0,0-0.1v0l0,0l2-2.5l0,0c0.1-0.1,0.1-0.1,0.2-0.2c0.1-0.1,0.2-0.1,0.3-0.1h0c0.2,0,0.3,0.1,0.4,0.3v0c0,0,0,0.1,0,0.1
			c0,0,0,0.1,0,0.1v0l0,0h0l0.5,3.3l0,0c0,0,0,0,0,0.1v0c0,0,0,0,0,0.1c0,0.1,0,0.2-0.1,0.3v0c0,0,0,0,0,0.1v0c0,0,0,0,0,0.1l0,0
			l0,0l0,0c0,0-0.1,0.1-0.1,0.1c0,0,0,0-0.1,0c0,0,0,0-0.1,0c-0.1,0-0.1,0-0.2,0v0c-0.1,0-0.1,0-0.2,0l0,0l0,0l0,0l0,0l0,0l0,0
			l-0.2-0.1c0,0,0,0-0.1,0v0l0,0v0c0,0-0.1,0-0.1,0h0l0,0v0h0v0c-0.1,0-0.1,0-0.2,0c0,0-0.1,0.1-0.1,0.2h0c-0.1,0.6-0.3,1.6-0.4,2.7
			c0,0.2-0.1,0.4-0.1,0.7c0,0.2-0.1,0.5-0.1,0.7l0,0l0,0.1l0,0c0,0.1,0,0.2,0,0.3l0,0.2l0,0l0,0.1l0,0.1v0c0,0.1,0,0.3,0,0.4l0,0.1
			l0,0.1l0,0l0,0v0l0,0l0,0l0,0.1l0,0l0,0l0,0l0,0l0,0l0,0l0,0l0,0l0,0l0,0l0,0c0,0.1,0,0.2,0,0.3c0,0.1,0,0.2,0,0.3v0v0h0l0,0l0,0
			c0,0.3,0,0.6,0,0.9c0,0.3,0,0.6,0,0.9l0,0h0c0,1.9,0.1,3.9,0.5,6c0.1,0.4,0.1,0.8,0.2,1.2c0.1,0.4,0.2,0.8,0.3,1.2l0,0l0,0l0,0
			c0,0.1,0.1,0.2,0.2,0.3c0.1,0,0.1,0,0.2,0c0.8-0.1,1.6-0.2,2.3-0.3c0.1,0,0.3-0.1,0.4-0.1c0.1,0,0.2-0.1,0.4-0.1h0l0,0v0
			c0.7-0.2,1.2-0.3,1.6-0.5c0.1,0,0.2-0.1,0.2-0.1c0.1,0,0.1-0.1,0.2-0.1l0,0l0,0c0.1,0,0.1-0.1,0.2-0.1h0c0.1,0,0.1-0.1,0.2-0.1
			l0,0c0,0,0.1-0.1,0.1-0.1c0,0,0,0,0.1-0.1c0,0,0-0.1,0-0.1c0-1.9-0.6-3.7-1.6-5.2c-0.2-0.3-0.4-0.6-0.6-0.8
			c-0.2-0.3-0.5-0.5-0.7-0.8l0,0l0,0l0,0c-0.6-0.6-1.4-1.2-2.2-1.6c-0.2-0.1-0.3-0.2-0.5-0.2C33.1,36,33,36,32.8,35.9
			c-0.2-0.1-0.4-0.2-0.4-0.4c0,0,0-0.1,0-0.1v0c0,0,0-0.1,0-0.1v0l0,0c0,0,0-0.1,0-0.1c0.1-0.1,0.1-0.2,0.3-0.3
			c0.1-0.1,0.3-0.1,0.4-0.1c0,0,0,0,0.1,0l0,0c2.1,0.8,3.9,2.3,5.1,4.1c0.3,0.5,0.6,0.9,0.8,1.4c0.2,0.5,0.4,1,0.6,1.6
			c0.3,0.9,0.4,1.9,0.4,2.9c0,2-0.5,3.9-1.5,5.5c-0.6,1.1-1.5,2-2.4,2.8c-1,0.8-2.1,1.4-3.3,1.9C31.6,55.5,30.4,55.7,29,55.7z
			 M46.7,37.9c-1.5,5-3.7,9.6-6.9,13.4c-2.8,3.4-6.3,6.1-10.7,8v-3c1,0,2-0.2,2.9-0.4c1-0.3,1.9-0.7,2.8-1.2
			c0.9-0.5,1.7-1.1,2.4-1.8c2.1-2.1,3.4-5,3.4-8.1c0-0.8-0.1-1.6-0.2-2.4c-0.1-0.6-0.3-1.2-0.5-1.8c-0.2-0.6-0.5-1.1-0.8-1.6
			c-0.2-0.4-0.5-0.8-0.8-1.2L46.7,37.9C46.7,37.9,46.7,37.9,46.7,37.9z M52.7,26.1c-7.6-2.5-14.9-3.7-22.1-3.7L30.1,21c0,0,0,0,0,0
			c-0.1-0.2-0.2-0.3-0.3-0.4c-0.2-0.2-0.4-0.3-0.7-0.3c0,0,0,0,0,0v0h0c-0.1,0-0.1,0-0.2,0c-0.3,0-0.5,0.2-0.6,0.3
			c-0.1,0.1-0.2,0.3-0.3,0.5l0,0l0,0l-0.6,1.4c-7.2,0.3-14.4,1.6-22,4l-3.5-4.2l1.4-6c6.7-2.1,13.5-3.4,20.3-3.9L23,11
			c-1.7,0.1-3.5,0.3-5.2,0.5c-2.5,0.3-5,0.8-7.4,1.3c-0.7,0.2-1.4,0.3-2.1,0.5c0,0,0,0,0,0l0,0c0-0.4,0-0.7,0-1.1c0,0,0,0,0,0
			c0-0.2,0-0.3,0-0.5c0,0,0-0.1,0-0.1c0-0.1,0-0.3,0-0.4c0,0,0-0.1,0-0.1c0-0.1,0-0.3,0-0.4c0,0,0-0.1,0-0.1c0-0.2,0-0.3,0-0.5
			C8.1,8.6,8,6.9,8,5.3c4.9,1.2,8.5,0.1,12.6-1.1c1.5-0.4,3.1-0.9,4.8-1.3c1.1-0.2,2.3-0.4,3.5-0.4c0.1,0,0.1,0,0.2,0
			c0.1,0,0.1,0,0.2,0c0,0,0,0,0,0c1.1,0,2.1,0.1,3.1,0.4c1.7,0.4,3.3,0.8,4.8,1.3c4.2,1.2,8.1,2.2,13,1c-0.1,1.6-0.1,3.8-0.2,5.4
			c0,0.9-0.1,1.8-0.1,2.7c-5-1.2-9.9-2-15-2.4l-0.7,1.2c7.1,0.5,14.2,1.8,21.2,4.1l0.5,5.9L52.7,26.1z"/>
		<path class="st1" d="M28.9,7.2h0.4c0,0,0.1,0,0.1-0.1V6.4c0,0,0-0.1,0.1-0.1h0c0.2,0,0.4-0.1,0.6-0.2c0,0,0,0,0,0
			c0.1-0.1,0.2-0.3,0.2-0.6c0-0.2-0.1-0.4-0.2-0.5l0,0c-0.2-0.2-0.4-0.2-0.7-0.2c-0.2,0-0.3,0-0.5,0c0,0-0.1,0-0.1,0.1L28.9,7.2
			C28.8,7.1,28.9,7.2,28.9,7.2z M29.4,5.3C29.4,5.2,29.4,5.2,29.4,5.3C29.5,5.2,29.5,5.2,29.4,5.3c0.3-0.1,0.4,0.1,0.4,0.3
			c0,0.2-0.1,0.3-0.3,0.3c0,0,0,0-0.1,0c0,0,0,0,0-0.1V5.3z"/>
		<path class="st1" d="M24.8,7.3l0.4,0c0,0,0.1,0,0.1-0.1l0-0.3c0,0,0-0.1,0.1-0.1l0.3,0c0,0,0.1,0,0.1,0.1l0.1,0.3
			c0,0,0,0.1,0.1,0.1l0.4,0c0,0,0,0,0.1,0c0,0,0,0,0-0.1l-0.6-2.2c0,0,0-0.1-0.1-0.1l-0.5,0c0,0-0.1,0-0.1,0.1L24.8,7.3
			C24.8,7.3,24.8,7.3,24.8,7.3C24.8,7.3,24.8,7.3,24.8,7.3z M25.4,5.9c0-0.1,0-0.4,0-0.5l0,0c0,0.1,0.1,0.4,0.1,0.5l0.1,0.4
			c0,0,0,0,0,0.1c0,0,0,0-0.1,0l-0.1,0c0,0,0,0-0.1,0c0,0,0,0,0-0.1L25.4,5.9z"/>
		<path class="st1" d="M27.3,7.2l0.4,0c0,0,0.1,0,0.1-0.1l0-2.2c0,0,0-0.1-0.1-0.1l-0.4,0c0,0-0.1,0-0.1,0.1L27.3,7.2
			C27.2,7.2,27.3,7.2,27.3,7.2z"/>
		<path class="st1" d="M32.8,14.2c0.1,0,0.2-0.1,0.2-0.2l0-0.4c0-0.1-0.1-0.2-0.2-0.2l-1.8,0c-0.1,0-0.2,0.1-0.2,0.2l0,0.4
			c0,0.1,0.1,0.2,0.2,0.2L32.8,14.2z"/>
		<path class="st1" d="M24,7.4L24,7c0,0,0,0,0-0.1c0,0,0,0-0.1,0l-0.4,0c0,0-0.1,0-0.1-0.1l-0.2-1.8c0,0,0,0,0-0.1c0,0,0,0-0.1,0
			l-0.4,0c0,0-0.1,0-0.1,0.1l0.2,2.2c0,0,0,0.1,0.1,0.1L24,7.4C24,7.4,24,7.4,24,7.4z"/>
		<path class="st1" d="M33.5,14.8l-1,0c-0.1,0-0.2,0.1-0.2,0.2l-0.1,3.8c0,0.9-0.2,1.1-0.5,1.1c-0.3,0-0.5-0.2-0.5-1.1l0.1-3.8
			c0-0.1-0.1-0.2-0.2-0.2l-1,0c-0.1,0-0.2,0.1-0.2,0.2l-0.1,3.5c0,1.6,0.4,2.6,1.9,2.6c1.3,0,1.9-0.9,2-2.5l0.1-3.5
			C33.8,14.9,33.7,14.8,33.5,14.8z"/>
		<path class="st1" d="M27.1,14.8l-3.2,0.1c-0.1,0-0.2,0.1-0.2,0.2l0,0.9c0,0.1,0.1,0.2,0.2,0.2l0.6,0c0.1,0,0.2,0.1,0.2,0.2
			l0.2,4.5c0,0.1,0.1,0.2,0.2,0.2l1,0c0.1,0,0.2-0.1,0.2-0.2l-0.2-4.5c0-0.1,0.1-0.2,0.2-0.2l0.6,0c0.1,0,0.2-0.1,0.2-0.2l0-0.9
			C27.3,14.9,27.2,14.8,27.1,14.8z"/>
		<path class="st1" d="M21.4,6.4C21.4,6.4,21.4,6.3,21.4,6.4l0.3-1c0,0,0-0.1,0-0.1c0,0,0,0-0.1,0l-0.4,0.1c0,0-0.1,0-0.1,0.1
			L21,6.1c0,0.1,0,0.2-0.1,0.3l0,0l-0.1-1c0,0,0-0.1-0.1-0.1l-0.4,0c0,0-0.1,0-0.1,0.1l0.3,2.2c0,0,0,0.1,0.1,0.1l0.4,0
			c0,0,0.1,0,0.1-0.1L21,7c0,0,0,0,0,0l0,0c0,0,0,0,0.1,0c0,0,0.1,0,0.1,0l0.3,0.7c0,0,0,0,0.1,0L22,7.6c0,0,0,0,0.1,0
			c0,0,0,0,0-0.1L21.4,6.4z"/>
		<path class="st1" d="M8.7,17.4c0-0.1-0.2-0.2-0.3-0.2l-0.8,0.2c-0.1,0-0.2,0.2-0.2,0.3l0.2,0.8c0.3,1.2,0.6,2.3,0.8,2.8l0,0
			c-0.3-0.4-0.7-1.1-1-1.5l-1.3-1.9c-0.1-0.1-0.1-0.1-0.2-0.1L5,18c-0.1,0-0.2,0.2-0.2,0.3l1.3,5.7c0,0.1,0.2,0.2,0.3,0.2l0.8-0.2
			c0.1,0,0.2-0.2,0.2-0.3l-0.2-0.8c-0.3-1.2-0.6-2.2-0.7-2.7l0,0c0.2,0.4,0.7,1.2,1,1.6l1.2,1.7c0.1,0.1,0.1,0.1,0.2,0.1l0.9-0.2
			c0.1,0,0.2-0.2,0.2-0.3L8.7,17.4z"/>
		<path class="st1" d="M35.6,7.5l0.4,0.1c0,0,0.1,0,0.1-0.1l0.1-0.3c0,0,0-0.1,0.1-0.1l0.3,0c0,0,0.1,0,0.1,0.1l0,0.3
			c0,0,0,0.1,0.1,0.1L37,7.7c0,0,0,0,0.1,0c0,0,0,0,0-0.1L37,5.4c0,0,0-0.1-0.1-0.1l-0.5-0.1c0,0-0.1,0-0.1,0l-0.8,2.2
			C35.5,7.4,35.5,7.5,35.6,7.5C35.5,7.5,35.5,7.5,35.6,7.5z M36.3,6.6l0.1-0.4c0-0.1,0.1-0.4,0.2-0.5l0,0c0,0.2,0,0.4,0,0.5l0,0.4
			c0,0,0,0,0,0.1c0,0,0,0-0.1,0L36.3,6.6C36.3,6.7,36.3,6.7,36.3,6.6C36.3,6.7,36.3,6.7,36.3,6.6z"/>
		<path class="st1" d="M15.5,21c0-0.1-0.1-0.2-0.3-0.2L14.1,21c-0.1,0-0.2-0.1-0.3-0.2l-0.2-0.9c0-0.1,0.1-0.2,0.2-0.3l0.9-0.2
			c0.1,0,0.2-0.1,0.2-0.3l-0.1-0.7c0-0.1-0.1-0.2-0.3-0.2l-0.9,0.2c-0.1,0-0.2-0.1-0.3-0.2l-0.1-0.7c0-0.1,0.1-0.2,0.2-0.3l1-0.2
			c0.1,0,0.2-0.1,0.2-0.3l-0.1-0.8c0-0.1-0.1-0.2-0.3-0.2l-2.4,0.4c-0.1,0-0.2,0.1-0.2,0.3l1,5.7c0,0.1,0.1,0.2,0.3,0.2l2.5-0.4
			c0.1,0,0.2-0.1,0.2-0.3L15.5,21z"/>
		<path class="st1" d="M31.2,7.2l1,0c0,0,0.1,0,0.1-0.1l0-0.3c0,0,0,0,0-0.1c0,0,0,0-0.1,0l-0.4,0c0,0-0.1,0-0.1-0.1l0-0.4
			c0,0,0-0.1,0.1-0.1l0.4,0c0,0,0.1,0,0.1-0.1l0-0.3c0,0,0-0.1-0.1-0.1l-0.4,0c0,0-0.1,0-0.1-0.1l0-0.3c0,0,0-0.1,0.1-0.1l0.4,0
			c0,0,0.1,0,0.1-0.1l0-0.3c0,0,0,0,0-0.1c0,0,0,0-0.1,0l-0.9,0c0,0-0.1,0-0.1,0.1L31.2,7.2C31.2,7.2,31.2,7.2,31.2,7.2z"/>
		<path class="st1" d="M31.8,4.7L31.8,4.7c0.1,0,0.3-0.1,0.3-0.2c0-0.1-0.1-0.3-0.2-0.3c-0.1,0-0.3,0.1-0.3,0.2
			C31.5,4.6,31.7,4.7,31.8,4.7z"/>
		<path class="st1" d="M33.3,7.3c0.1,0,0.2,0,0.3,0c0.4,0,0.6,0,0.8-0.2c0.2-0.2,0.4-0.5,0.4-1c0-0.4,0-0.8-0.2-1
			C34.5,5.1,34.3,5,33.9,5c-0.2,0-0.3,0-0.5,0c0,0-0.1,0-0.1,0.1L33.3,7.3C33.3,7.3,33.3,7.3,33.3,7.3z M33.9,5.5
			C33.9,5.4,34,5.4,33.9,5.5L33.9,5.5c0.3-0.1,0.4,0.2,0.4,0.7c0,0.6-0.2,0.8-0.4,0.8c0,0,0,0-0.1,0c0,0,0,0,0-0.1L33.9,5.5z"/>
		<path class="st1" d="M20.9,15.6C20.9,15.6,20.9,15.6,20.9,15.6c-0.5-0.4-1.1-0.4-1.9-0.3c-0.4,0-0.8,0.1-1.2,0.2
			c-0.1,0-0.2,0.1-0.2,0.2l0.5,5.7c0,0.1,0.1,0.2,0.2,0.2l1-0.1c0.1,0,0.2-0.1,0.2-0.2l-0.2-1.8c0-0.1,0.1-0.2,0.2-0.2
			c0.5,0,1.1-0.3,1.5-0.7c0,0,0,0,0,0c0.3-0.4,0.5-0.9,0.4-1.6C21.5,16.5,21.3,15.9,20.9,15.6z M19.5,18.2c-0.1,0-0.1,0-0.2,0
			c-0.1,0-0.1-0.1-0.1-0.2l-0.1-1.3c0-0.1,0.1-0.2,0.2-0.2c0,0,0,0,0,0c0.5,0,0.7,0.3,0.7,0.8C20.2,17.7,20,18.1,19.5,18.2z"/>
		<path class="st1" d="M46.4,16.4l-1.4-0.2c-0.1,0-0.2,0-0.3,0.1l-2.2,5.5c0,0.1,0,0.1,0,0.2c0,0.1,0.1,0.1,0.2,0.1l0.9,0.2
			c0.1,0,0.2,0,0.3-0.1l0.3-0.8c0-0.1,0.1-0.2,0.3-0.1l0.6,0.1c0.1,0,0.2,0.1,0.2,0.2l0,0.9c0,0.1,0.1,0.2,0.2,0.2l0.9,0.2
			c0.1,0,0.1,0,0.2-0.1c0.1,0,0.1-0.1,0.1-0.2l0-5.9C46.6,16.6,46.5,16.5,46.4,16.4z M45.4,19l0,0.9c0,0.1,0,0.1-0.1,0.2
			c-0.1,0-0.1,0.1-0.2,0l-0.2,0c-0.1,0-0.1,0-0.2-0.1c0-0.1,0-0.1,0-0.2L45,19c0.1-0.3,0.3-1,0.5-1.4l0,0C45.5,18,45.4,18.7,45.4,19
			z"/>
		<path class="st1" d="M33.6,53.6c0.2-0.1,0.3-0.2,0.5-0.3l0,0c0,0,0.1-0.1,0.1-0.1c0,0,0-0.1,0-0.1v0c0-0.3-0.2-0.7-0.4-1
			c-0.1-0.1-0.1-0.2-0.1-0.2c0,0,0,0,0-0.1l0,0c-0.3-0.7-0.6-1.3-0.9-2v0c-0.1-0.1-0.1-0.3-0.2-0.4c0-0.1-0.1-0.3-0.1-0.4l0,0l0,0v0
			c-0.1-0.2-0.1-0.3-0.1-0.4c-0.1-0.4-0.2-0.6-0.9-0.5c-0.3,0-0.7,0-1.1,0l-0.2,0h0l-0.1,0l-0.1,0l-0.1,0l0,0l0,0l0,0c0,0,0,0-0.1,0
			l0,0c0,0,0,0-0.1,0.1c0,0,0,0.1,0,0.2h0v5.7c0,0.1,0,0.3,0.1,0.4c0.1,0.1,0.2,0.2,0.4,0.2h0c0,0,0,0,0,0h0c0,0,0,0,0.1,0
			c1-0.1,2-0.4,2.9-0.8C33.2,53.8,33.4,53.7,33.6,53.6z"/>
		<path class="st1" d="M34.3,9.3C32.6,9,31,8.9,29.5,8.9c-1.8,0-3.6,0.2-5.8,0.5l-0.3,1.3l0.7,1.5c0.8,0,1.5-0.1,2.2-0.1
			c1.3-0.1,2.6-0.2,4-0.2c1.2,0,2.4,0.1,3.8,0.2l0.7-1.3L34.3,9.3z M26.7,11.3C26.7,11.4,26.7,11.4,26.7,11.3l-0.4,0.1
			c0,0-0.1,0-0.1-0.1V9.9h0L26,10c0,0,0,0-0.1,0c0,0,0,0,0-0.1l0-0.2c0,0,0-0.1,0-0.1l0.4-0.2c0,0,0,0,0,0h0.3c0,0,0.1,0,0.1,0.1
			V11.3z M28.3,11.2c-0.1,0.1-0.3,0.2-0.5,0.2c0,0-0.1,0-0.1,0c0,0-0.1,0-0.1-0.1v-0.2c0,0,0-0.1,0.1-0.1c0,0,0.1,0,0.1,0
			c0,0,0,0,0,0c0.1,0,0.1,0,0.2-0.1c0.1-0.1,0.1-0.2,0.2-0.3h0c-0.1,0.1-0.1,0.1-0.3,0.1c-0.3,0-0.5-0.2-0.5-0.6
			c0-0.3,0.2-0.7,0.6-0.7c0.4,0,0.6,0.3,0.6,0.8C28.7,10.7,28.5,11,28.3,11.2z M29.8,11.4c-0.4,0-0.6-0.3-0.6-0.8
			c0-0.4,0.2-0.7,0.3-0.9c0.1-0.1,0.3-0.2,0.5-0.2l0,0c0.1,0,0.1,0,0.1,0c0,0,0,0,0.1,0c0,0,0,0,0,0.1v0.2c0,0,0,0.1-0.1,0.1
			c0,0-0.1,0-0.1,0c-0.2,0-0.4,0.2-0.4,0.4h0c0.1-0.1,0.2-0.1,0.3-0.1c0.3,0,0.4,0.2,0.4,0.6C30.4,11.1,30.2,11.4,29.8,11.4z
			 M32.2,10.9C32.2,10.9,32.1,11,32.2,10.9L32.1,11c0,0-0.1,0-0.1,0.1v0.3c0,0,0,0.1-0.1,0.1h-0.3c0,0-0.1,0-0.1-0.1V11
			c0,0,0-0.1-0.1-0.1H31c0,0-0.1,0-0.1-0.1v-0.2c0,0,0,0,0,0l0.6-1.1c0,0,0,0,0.1,0h0.3c0,0,0.1,0,0.1,0.1v1c0,0,0,0.1,0.1,0.1h0
			c0,0,0.1,0,0.1,0.1V10.9z"/>
		<path class="st1" d="M40.7,15.5l-0.8-0.1c-0.1,0-0.2,0.1-0.2,0.2l-0.1,0.8c-0.1,1.2-0.1,2.4-0.2,2.9l0,0c-0.1-0.5-0.3-1.3-0.4-1.7
			l-0.6-2.2c0-0.1-0.1-0.2-0.2-0.2l-0.9-0.1c-0.1,0-0.2,0.1-0.2,0.2l-0.6,5.8c0,0.1,0.1,0.2,0.2,0.2l0.8,0.1c0.1,0,0.2-0.1,0.2-0.2
			l0.1-0.8c0.1-1.2,0.2-2.3,0.2-2.8l0,0c0.1,0.5,0.3,1.3,0.4,1.8l0.6,2c0,0.1,0.1,0.2,0.2,0.2l0.9,0.1c0.1,0,0.2-0.1,0.2-0.2
			l0.6-5.8C40.9,15.6,40.9,15.5,40.7,15.5z"/>
		<path class="st1" d="M53.1,18.1c-0.2-0.1-0.5-0.3-0.8-0.3c-1.4-0.4-2.3,0.4-2.5,1.4c-0.1,0.5-0.1,1.2,0.7,2
			c0.5,0.4,0.7,0.7,0.6,1.1c-0.1,0.3-0.4,0.5-0.9,0.4c-0.3-0.1-0.5-0.2-0.8-0.3c-0.1,0-0.1,0-0.2,0c-0.1,0-0.1,0.1-0.1,0.1L48.7,23
			c0,0.1,0,0.2,0.1,0.3c0.2,0.2,0.6,0.3,1,0.4c1.3,0.3,2.3-0.2,2.6-1.4c0.2-0.6,0-1.3-0.7-2c-0.6-0.6-0.7-0.8-0.6-1
			c0.1-0.3,0.4-0.5,0.8-0.3c0.2,0.1,0.4,0.1,0.5,0.2c0.1,0,0.1,0,0.2,0c0.1,0,0.1-0.1,0.1-0.1l0.3-0.7
			C53.2,18.3,53.2,18.2,53.1,18.1z"/>
		<path class="st1" d="M33.3,48.1L33.3,48.1C33.3,48.1,33.3,48.1,33.3,48.1C33.3,48.1,33.3,48.1,33.3,48.1c0.2,0.8,0.5,1.5,0.8,2.2
			c0.1,0.1,0.1,0.3,0.2,0.4c0.1,0.1,0.1,0.3,0.2,0.4l0,0c0,0.1,0.1,0.2,0.1,0.2c0.1,0.3,0.3,0.7,0.5,0.9h0l0,0l0,0c0,0,0.1,0,0.1,0
			c0,0,0.1,0,0.1,0c0.1,0,0.2-0.1,0.3-0.1l0,0c0,0,0,0,0.1,0v0c0,0,0,0,0,0l0,0l0,0l0.1,0c0,0,0.1-0.1,0.1-0.1l0,0
			c1-1,1.8-2.1,2.3-3.4c0.1-0.3,0.2-0.5,0.3-0.8c0.1-0.3,0.1-0.5,0.2-0.8c0,0,0,0,0-0.1v0l0,0c0,0,0-0.1,0-0.1v0h0v0h0
			c0-0.1,0.1-0.1,0.1-0.1c-0.1,0-0.3,0.1-0.5,0.2c-0.1,0-0.2,0.1-0.2,0.1l0,0c-0.7,0.3-1.5,0.5-2.2,0.6c-0.8,0.1-1.5,0.2-2.2,0.3
			C33.5,47.9,33.4,48,33.3,48.1L33.3,48.1C33.3,48,33.3,48,33.3,48.1L33.3,48.1C33.3,48.1,33.3,48.1,33.3,48.1L33.3,48.1z"/>
		<path class="st1" d="M28.4,48.3C28.4,48.2,28.3,48.2,28.4,48.3L28.4,48.3c-0.1-0.1-0.1-0.1-0.1-0.1l0,0l0,0l0,0l0,0l-0.1,0l-0.1,0
			c-0.3,0-0.6,0-0.9,0l-0.2,0h0l-0.2,0h0l0,0v0c-0.8,0-0.8,0-1,0.6c0,0.1,0,0.1-0.1,0.2c-0.3,0.7-0.5,1.5-0.9,2.2
			c-0.1,0.1-0.1,0.3-0.2,0.4c-0.1,0.1-0.1,0.3-0.2,0.4l0,0l0,0c-0.1,0.1-0.1,0.2-0.2,0.4c-0.1,0.3-0.3,0.5-0.4,0.8v0c0,0,0,0,0,0.1
			v0c0,0,0,0,0,0.1c0,0,0,0.1,0,0.1c0,0,0,0.1,0.1,0.1c0.8,0.5,1.7,0.9,2.7,1.1c0.2,0,0.4,0.1,0.6,0.1c0.2,0,0.4,0.1,0.6,0.1
			c0,0,0,0,0.1,0h0c0,0,0,0,0,0h0c0.2,0,0.3-0.1,0.4-0.2c0.1-0.1,0.1-0.3,0.1-0.4v-5.7h0C28.4,48.4,28.4,48.3,28.4,48.3L28.4,48.3z"
			/>
		<path class="st1" d="M29.8,10.5c0,0-0.1,0-0.1,0.1c0,0,0,0,0,0c0,0,0,0.1,0,0.2c0,0.2,0.1,0.4,0.1,0.4h0c0.1,0,0.1-0.2,0.1-0.4
			c0,0,0,0,0,0C30,10.6,29.9,10.5,29.8,10.5z"/>
		<path class="st1" d="M28.1,9.8L28.1,9.8c-0.1,0-0.1,0.1-0.1,0.3c0,0.1,0,0.3,0.1,0.3c0,0,0.1,0,0.1-0.1c0,0,0,0,0,0
			c0,0,0-0.1,0-0.2C28.2,9.9,28.2,9.8,28.1,9.8z"/>
		<path class="st1" d="M24.5,48.6c0.1-0.2,0.1-0.3,0.2-0.4l0,0h0l0,0l0,0c0-0.1-0.1-0.1-0.1-0.1l0,0c0,0,0,0,0,0l0,0l0,0
			c-1.3-0.1-2.4-0.3-3.3-0.6c-0.2,0-0.4-0.1-0.5-0.2c-0.2-0.1-0.3-0.1-0.5-0.2l0,0l0,0h0c-0.1,0-0.2-0.1-0.3-0.2
			c-0.2-0.1-0.4-0.2-0.5-0.2c0,0,0,0.1,0,0.2c0,0.2,0.1,0.4,0.1,0.5c0,0,0,0.1,0,0.1h0l0,0.1v0l0,0h0c0.3,1.2,0.9,2.3,1.6,3.2
			c0.1,0.2,0.3,0.4,0.4,0.5c0.2,0.2,0.3,0.3,0.5,0.5l0,0l0,0l0,0c0,0,0.1,0.1,0.1,0.1l0,0l0.1,0.1c0.1,0,0.2,0.1,0.3,0.2
			c0,0,0,0,0.1,0c0,0,0,0,0.1,0h0c0,0,0,0,0,0c0.3,0,0.5-0.4,0.6-0.7c0-0.1,0.1-0.1,0.1-0.1l0,0l0,0v0c0.4-0.8,0.7-1.5,1-2.3
			C24.4,48.9,24.5,48.7,24.5,48.6z"/>
		<path class="st1" d="M31.5,10.3C31.5,10.3,31.5,10.3,31.5,10.3l-0.2,0.3v0h0.2c0,0,0.1,0,0.1-0.1v-0.3c0-0.1,0-0.2,0-0.3h0
			C31.6,10.1,31.5,10.2,31.5,10.3z"/>
	</g>
</g>
</svg>
