<svg width="33" height="33" viewBox="0 0 33 33" fill="none" xmlns="http://www.w3.org/2000/svg">
<g clip-path="url(#clip0_9186_15978)">
<path d="M24.651 20.6209C24.651 22.4479 24.261 23.5899 23.06 23.5899C21.858 23.5899 21.468 22.4799 21.468 20.6199C21.468 18.7609 21.89 17.6519 23.06 17.6519C24.261 17.6519 24.651 18.7609 24.651 20.6209ZM32.089 16.9009C32.089 25.6589 25.022 32.7579 16.304 32.7579C7.58605 32.7579 0.519043 25.6579 0.519043 16.9009C0.519043 8.14394 7.58605 1.04492 16.304 1.04492C25.022 1.04492 32.089 8.14394 32.089 16.9009ZM12.244 16.0859H8.83401V12.6599H6.43002V16.0859H3.02005V18.4999H6.43002V21.9259H8.83401V18.4999H12.244V16.0859ZM17.018 7.60294H15.4601C14.4201 8.48294 13.1861 9.23391 11.8221 9.91891V11.5829H14.258V25.7099H17.018V7.60294ZM27.4441 20.7829C27.4441 18.6309 27.087 17.1949 25.593 16.2159C26.665 15.4329 27.1841 14.0299 27.1841 12.6599C27.1841 9.20094 25.593 7.63492 23.092 7.63492C20.592 7.63492 19 9.20094 19 12.6599C19 14.0299 19.52 15.4329 20.591 16.2159C19.065 17.1949 18.74 18.6309 18.74 20.7839C18.74 24.1439 20.234 25.9709 23.092 25.9709C25.95 25.9709 27.4441 24.1439 27.4441 20.7839V20.7829ZM21.7281 12.4969C21.7281 10.7669 22.118 10.0499 23.06 10.0499C24.001 10.0499 24.391 10.7679 24.391 12.4969C24.391 14.2589 24.001 14.9769 23.06 14.9439C22.118 14.9439 21.7281 14.2259 21.7281 12.4969Z" fill="#98A2B3"/>
</g>
<defs>
<clipPath id="clip0_9186_15978">
<rect width="32" height="32" fill="white" transform="translate(0.367188 0.839844)"/>
</clipPath>
</defs>
</svg>
