<svg width="20" height="20" viewBox="0 0 20 20" fill="none" xmlns="http://www.w3.org/2000/svg">
<path d="M0 10C0 7.34784 1.05432 4.80416 2.92969 2.9288C4.80505 1.05344 7.34784 0 10 0C12.6522 0 15.1949 1.05344 17.0703 2.9288C18.9457 4.80416 20 7.34784 20 10C20 12.6522 18.9457 15.1958 17.0703 17.0712C15.1949 18.9466 12.6522 20 10 20C7.34784 20 4.80505 18.9466 2.92969 17.0712C1.05432 15.1958 0 12.6522 0 10ZM10 18.6364C10.5445 18.6364 11.0879 18.5853 11.6229 18.4837L12.9865 15.5544L12.4041 14.5446H7.59588L7.01349 15.5544L8.37713 18.4828C8.9123 18.585 9.45516 18.6364 10 18.6364ZM13.3771 17.9492C14.2706 17.5682 15.0934 17.0395 15.8114 16.3854L14.1761 16.2429L13.3771 17.9492ZM6.62465 17.9492L5.82919 16.2438L4.19212 16.3863C4.9087 17.0405 5.73089 17.5699 6.62287 17.9519L6.62465 17.9492ZM3.04865 15.1172L5.83452 14.8708L6.78445 13.2235L5.712 9.75808L4.01634 9.30353L1.48438 11.4302C1.70729 12.7663 2.24195 14.0304 3.04688 15.1199L3.04865 15.1172ZM14.1708 14.8708L16.9549 15.1172C17.7597 14.0294 18.296 12.7672 18.521 11.4329L15.9837 9.30265L14.2898 9.75719L13.2173 13.2235L14.1708 14.8708ZM7.03658 9.43182L8.19602 13.1818H11.8022L12.9599 9.43182L9.99822 7.16797L7.03658 9.43182ZM1.36896 9.74831L3.05043 8.33718L2.2603 6.17276C1.7057 7.28643 1.39955 8.50738 1.36364 9.75098L1.36896 9.74831ZM16.9549 8.33718L18.6364 9.74831C18.602 8.50464 18.297 7.28333 17.7433 6.16921L16.9549 8.33718ZM13.9169 8.44549L15.6321 7.98562L16.8253 4.7128C15.9697 3.61209 14.8621 2.73353 13.5955 2.1511L10.6871 4.18812V5.981L13.9169 8.44549ZM4.37145 7.98562L6.08487 8.44549L9.31996 5.97257V4.18635L6.4027 2.14622C5.13824 2.72925 4.03247 3.60788 3.17827 4.70748L4.37145 7.98562ZM9.99645 2.99716L11.9975 1.59535C11.3422 1.43983 10.6699 1.36156 9.99645 1.36186C9.32296 1.36156 8.65245 1.43983 7.99716 1.59535L9.99645 2.99716Z" fill="#179248"/>
</svg>
