<?xml version="1.0" encoding="UTF-8"?>
<svg id="Layer_1" xmlns="http://www.w3.org/2000/svg" version="1.1" viewBox="0 0 120 50">
  <!-- Generator: Adobe Illustrator 29.3.1, SVG Export Plug-In . SVG Version: 2.1.0 Build 151)  -->
  <defs>
    <style>
      .st0 {
        fill: #fff;
        fill-rule: evenodd;
      }

      .st1 {
        fill: #ec1c24;
      }
    </style>
  </defs>
  <path class="st0" d="M115,50H5c-2.8,0-5-2.2-5-5V5C0,2.2,2.2,0,5,0h110C117.8,0,120,2.2,120,5v40c0,2.8-2.2,5-5,5Z"/>
  <g>
    <path d="M35.6,33h4.7v5.6c-.7.5-1.4.9-2.2,1.1-.8.2-1.6.3-2.4.3s-2.1-.2-3-.5c-.9-.3-1.7-.8-2.3-1.4s-1.1-1.3-1.5-2.2c-.3-.8-.5-1.7-.5-2.7s.2-1.9.5-2.7c.3-.8.8-1.6,1.4-2.2s1.4-1.1,2.2-1.4,1.8-.5,2.9-.5,1.1,0,1.6.1c.5,0,.9.2,1.4.4.4.2.8.3,1.1.6.3.2.6.5.9.7l-.9,1.4c-.1.2-.3.3-.5.4-.2,0-.5,0-.7-.2-.2-.1-.5-.3-.7-.4-.2-.1-.4-.2-.7-.3s-.5-.1-.7-.1c-.2,0-.5,0-.8,0-.6,0-1.1.1-1.6.3-.5.2-.9.5-1.2.9-.3.4-.6.8-.8,1.3-.2.5-.3,1.1-.3,1.7s.1,1.3.3,1.9c.2.6.5,1,.8,1.4.4.4.8.7,1.3.9.5.2,1,.3,1.7.3s.7,0,1-.1.6-.2.9-.3v-2h-1.3c-.2,0-.3,0-.5-.2s-.2-.2-.2-.4v-1.7h0Z"/>
    <path d="M54.2,40h-2.4c-.3,0-.5,0-.7-.2s-.3-.3-.4-.5l-.8-2.3h-5.1l-.8,2.3c0,.2-.2.3-.4.5-.2.1-.4.2-.6.2h-2.4l5.2-13.4h3.2l5.2,13.3ZM49.2,34.9l-1.2-3.7c0-.2-.2-.5-.3-.8-.1-.3-.2-.7-.3-1,0,.4-.2.7-.3,1-.1.3-.2.6-.3.8l-1.2,3.6h3.7Z"/>
    <path d="M70.2,26.6v13.4h-2.7v-7.7c0-.2,0-.4,0-.6,0-.2,0-.4,0-.6l-3.5,6.9c-.1.2-.3.4-.4.5-.2.1-.4.2-.6.2h-.4c-.2,0-.5,0-.6-.2-.2-.1-.3-.3-.4-.5l-3.5-6.9c0,.2,0,.4,0,.6s0,.4,0,.6v7.7h-2.7v-13.3h2.4c.1,0,.2,0,.3,0s.2,0,.3,0c0,0,.1,0,.2.1,0,0,.1.2.2.3l3.5,6.8c.1.2.2.5.3.7.1.2.2.5.3.8.1-.3.2-.5.3-.8.1-.3.2-.5.4-.7l3.4-6.7c0-.1.1-.2.2-.3,0,0,.1-.1.2-.1,0,0,.2,0,.3,0s.2,0,.3,0h2.4Z"/>
    <path d="M75.9,29v3.1h4.2v2.3h-4.2v3.2h5.5v2.4h-8.6v-13.4h8.6v2.4h-5.5Z"/>
    <path d="M90.7,29.3c0,.1-.2.3-.3.3s-.2.1-.4.1-.3,0-.5-.1c-.2,0-.3-.2-.6-.3-.2-.1-.4-.2-.7-.3-.3,0-.6-.1-.9-.1-.6,0-1,.1-1.3.4-.3.2-.4.6-.4,1s0,.5.3.7c.2.2.4.3.7.5.3.1.6.2,1,.3.4.1.7.2,1.1.4.4.1.7.3,1.1.5.4.2.7.4,1,.7.3.3.5.6.7,1,.2.4.3.9.3,1.4s-.1,1.2-.3,1.7c-.2.5-.5,1-.9,1.4-.4.4-.9.7-1.5.9-.6.2-1.3.3-2,.3s-.8,0-1.3-.1c-.4,0-.8-.2-1.3-.4s-.8-.3-1.1-.6c-.4-.2-.7-.5-.9-.7l.9-1.4c0-.1.2-.2.3-.3.1,0,.2-.1.4-.1s.4,0,.6.2c.2.1.4.2.6.4s.5.3.8.4c.3.1.7.2,1.1.2s1-.1,1.3-.4c.3-.2.5-.6.5-1.2s0-.6-.3-.8-.4-.4-.7-.5c-.3-.1-.6-.2-.9-.3-.4-.1-.7-.2-1.1-.3-.4-.1-.7-.3-1.1-.4-.4-.2-.7-.4-.9-.7-.3-.3-.5-.6-.7-1.1s-.3-.9-.3-1.6.1-1,.3-1.5c.2-.5.5-.9.9-1.3.4-.4.9-.7,1.4-.9.6-.2,1.2-.3,2-.3s.8,0,1.2,0c.4,0,.8.2,1.1.3.3.1.7.3,1,.5s.6.4.8.6l-.8,1.4Z"/>
    <path class="st1" d="M19.5,10c.9,0,1.7,0,2.4.3.6.2,1.2.4,1.6.7.4.3.7.7.9,1.1s.3.9.3,1.5,0,.6-.1.9c0,.3-.2.5-.4.8-.2.2-.4.5-.7.7s-.6.4-1,.5c.9.2,1.5.6,2,1,.4.5.6,1.1.6,1.8s-.1,1.1-.3,1.6c-.2.5-.5.9-1,1.3s-.9.6-1.6.9c-.6.2-1.3.3-2.1.3h-5.3v-13.4h4.9ZM17.6,12.4v3.3h1.6c.3,0,.7,0,.9,0,.3,0,.5-.1.7-.3.2-.1.3-.3.4-.5.1-.2.1-.5.1-.8s0-.6-.1-.8c0-.2-.2-.4-.4-.5-.2-.1-.4-.2-.6-.3-.3,0-.6,0-.9,0h-1.8ZM19.8,21.1c.4,0,.7,0,1-.2.3-.1.5-.2.6-.4s.2-.3.3-.6c0-.2,0-.4,0-.6s0-.5,0-.7c0-.2-.2-.4-.3-.5-.2-.1-.4-.2-.6-.3-.3,0-.6-.1-1-.1h-2.2v3.3h2.2Z"/>
    <path class="st1" d="M71.7,10v13.4h-2.7v-7.7c0-.2,0-.4,0-.6,0-.2,0-.4,0-.6l-3.5,6.9c-.1.2-.3.4-.4.5-.2.1-.4.2-.6.2h-.4c-.2,0-.5,0-.6-.2-.2-.1-.3-.3-.4-.5l-3.5-6.9c0,.2,0,.4,0,.6,0,.2,0,.4,0,.6v7.7h-2.7v-13.3h2.4c.1,0,.2,0,.3,0,.1,0,.2,0,.3,0,0,0,.1,0,.2.1,0,0,.1.2.2.3l3.4,6.8c.1.2.2.5.3.7.1.2.2.5.3.8.1-.3.2-.5.3-.8.1-.3.2-.5.4-.7l3.4-6.7c0-.1.1-.2.2-.3,0,0,.1-.1.2-.1,0,0,.2,0,.3,0,.1,0,.2,0,.3,0h2.4Z"/>
    <path class="st1" d="M77.4,23.4h-3.1v-13.4h3.1v13.4Z"/>
    <path class="st1" d="M91.6,10v13.4h-1.6c-.2,0-.4,0-.6-.1-.2,0-.3-.2-.5-.4l-6.3-8c0,.2,0,.5,0,.7,0,.2,0,.4,0,.6v7.2h-2.7v-13.4h1.6c.1,0,.2,0,.3,0,0,0,.2,0,.2,0,0,0,.1,0,.2.1s.1.1.2.2l6.4,8c0-.3,0-.5,0-.7,0-.2,0-.5,0-.7v-7.1h2.8Z"/>
    <path class="st1" d="M100.6,16.5h4.7v5.6c-.7.5-1.4.9-2.2,1.1-.8.2-1.6.3-2.4.3s-2.1-.2-3-.5c-.9-.3-1.7-.8-2.3-1.4s-1.1-1.3-1.5-2.2c-.3-.8-.5-1.7-.5-2.7s.2-1.9.5-2.7.8-1.6,1.4-2.2,1.4-1.1,2.2-1.4c.9-.3,1.8-.5,2.9-.5s1.1,0,1.6.1c.5,0,.9.2,1.4.4.4.2.8.3,1.1.6.3.2.6.5.9.7l-.9,1.4c-.1.2-.3.3-.5.4-.2,0-.5,0-.7-.2-.2-.1-.5-.3-.7-.4-.2-.1-.4-.2-.7-.3s-.5-.1-.7-.1-.5,0-.8,0c-.6,0-1.1.1-1.6.3-.5.2-.9.5-1.2.9-.3.4-.6.8-.8,1.3-.2.5-.3,1.1-.3,1.7s.1,1.3.3,1.9c.2.6.5,1,.8,1.4.4.4.8.7,1.3.9.5.2,1,.3,1.7.3s.7,0,1-.1c.3,0,.6-.2.9-.3v-2h-1.3c-.2,0-.3,0-.5-.2-.1-.1-.2-.2-.2-.4v-1.7h0Z"/>
    <path class="st1" d="M52.1,17.4c-.4,2-2.2,3.5-4.2,3.5h0c-.3,0-.6,0-1.4-.3-.8-.3-1-.5-1.6-1-.3-.3-.8-.8-1.3-1.2-.5.5-1.5,1.7-1.6,1.8.4.4,1.4,1.3,1.8,1.6h0c.9.7,2,1.2,3.2,1.4.4,0,.7,0,1,0s.6,0,.9,0c2.7-.3,4.9-2.2,5.6-4.8l-2.2-1Z"/>
    <path class="st1" d="M44.7,13.8c.8-.9,1.9-1.5,3.2-1.5s2,.3,2.7,1l-1,.7,4.7,2.2-.5-5.2-1.2.9c-1.2-1.2-2.9-1.9-4.7-1.9s-3.9.9-5.1,2.4h0c0,0-3.7,4.6-5.3,6.1,0,0-.2.2-.3.2,0,0,0,0,0,0-.1,0-.2.2-.3.3,0,0,0,0,0,0-.1,0-.2.2-.3.2,0,0,0,0,0,0,0,0-.1.1-.2.1,0,0,0,0,0,0,0,0,0,0,0,0,0,0-.2.1-.3.2,0,0,0,0,0,0,0,0-.2.1-.2.2,0,0,0,0,0,0,0,0-.1,0-.2.1,0,0,0,0,0,0,0,0-.1,0-.2.1-.4.2-.8.4-1.1.5-.3,0-.6.1-1,.1-2.4-.1-4.3-2.2-4.1-4.6.2-2.1,1.9-3.8,4-4,1.4,0,2.5.5,3.4,1.4.1.1,1.4,1.4,1.6,1.8.5-.5,1.6-1.8,1.6-1.8-.2-.3-1.1-1.2-1.2-1.3-1.3-1.4-3.2-2.4-5.2-2.4-3.5,0-6.4,2.8-6.6,6.3-.2,3.7,2.6,6.8,6.2,7,.1,0,.7,0,1,0,.3,0,.6-.1.8-.2.4,0,.8-.3.8-.3,0,0,0,0,0,0,0,0,.2,0,.2-.1,0,0,0,0,.1,0,0,0,.2,0,.3-.1,0,0,0,0,0,0,.2-.1.5-.3.7-.4,0,0,0,0,.1,0,0,0,.2-.1.3-.2,0,0,0,0,.1,0,0,0,.2-.1.3-.2,0,0,0,0,.1,0,.1,0,.2-.2.3-.2,0,0,0,0,0,0,0,0,0,0,0,0,.1-.1.3-.2.5-.4,0,0,0,0,.1,0,.1-.1.2-.2.4-.3,0,0,.1,0,.2-.1,0,0,0,0,0,0,0,0,.2-.2.3-.2,0,0,1.4-1.4,2.3-2.5.9-1.1,1.9-2.4,2.9-3.6Z"/>
  </g>
</svg>