<?xml version="1.0" encoding="utf-8"?>
<!-- Generator: Adobe Illustrator 24.0.1, SVG Export Plug-In . SVG Version: 6.00 Build 0)  -->
<svg version="1.1" id="Layer_1" xmlns="http://www.w3.org/2000/svg" xmlns:xlink="http://www.w3.org/1999/xlink" x="0px" y="0px"
	 viewBox="0 0 120 50" enable-background="new 0 0 120 50" xml:space="preserve">
<path fill-rule="evenodd" clip-rule="evenodd" fill="#0066B2" d="M115,50H5c-2.8,0-5-2.2-5-5V5c0-2.8,2.2-5,5-5h110c2.8,0,5,2.2,5,5
	v40C120,47.8,117.8,50,115,50z"/>
<g display="none">
	<path display="inline" fill-rule="evenodd" clip-rule="evenodd" fill="#FFFFFF" d="M110,10.3h-4.2V29h-2.2V10.3h-4.2V8.4H110V10.3z
		 M97,10.3h-7.2v7h5.3v1.9h-5.3v7.9h7.6V29h-9.8V8.4H97V10.3z M80.6,11c-0.6-0.5-1.5-0.7-2.8-0.7h-2.2v7h1.3c1.6,0,2.8-0.3,3.5-0.9
		c0.8-0.6,1.1-1.5,1.1-2.9C81.4,12.3,81.1,11.5,80.6,11z M78.8,8.4c1.5,0,2.7,0.5,3.6,1.4c0.8,0.9,1.3,2.2,1.3,3.7
		c0,1.1-0.2,2-0.7,2.8c-0.5,0.8-1.3,1.4-2.4,1.8v0.1c1.2,0.3,2.2,1,2.7,1.9c0.6,0.9,0.9,2,0.9,3.3c0,1.9-0.5,3.4-1.6,4.3
		c-1.1,1-2.8,1.4-5,1.4h-4.2V8.4H78.8z M77.8,19.2h-2.2v8h2.2c1.3,0,2.4-0.3,3.1-0.9c0.7-0.6,1-1.6,1-2.9c0-1.4-0.3-2.4-1-3.1
		C80.2,19.5,79.2,19.2,77.8,19.2z M12.3,10.3c-0.4,0.3-0.5,0.8-0.5,1.3c0,0.6,0.2,1,0.5,1.3c0.4,0.3,0.8,0.5,1.3,0.5
		c0.5,0,0.9-0.2,1.3-0.5c0.4-0.3,0.5-0.8,0.5-1.3c0-0.6-0.2-1-0.5-1.3C14.4,10,14,9.9,13.5,9.9C13,9.9,12.6,10,12.3,10.3z M13.5,8.1
		c0.9,0,1.7,0.3,2.4,0.9c0.3,0.2,0.5,0.5,0.7,1c0.2,0.4,0.3,1,0.4,1.6c0,0.7-0.1,1.2-0.4,1.6s-0.5,0.7-0.8,1
		c-0.7,0.6-1.5,0.9-2.4,0.9c-0.9,0-1.7-0.3-2.4-0.9c-0.3-0.2-0.5-0.5-0.7-1c-0.2-0.4-0.4-1-0.4-1.6c0-0.7,0.1-1.2,0.4-1.6
		c0.2-0.4,0.5-0.7,0.8-1C11.8,8.4,12.6,8.1,13.5,8.1z M14.6,16.8v12.3h-2.2V16.8h0c0.3,0.1,0.7,0.2,1.1,0.2
		C13.9,16.9,14.2,16.9,14.6,16.8z"/>
	<path display="inline" fill-rule="evenodd" clip-rule="evenodd" fill="#4A5863" d="M70.9,10.3h-4.2V29h-2.2V10.3h-4.2V8.4h10.7
		V10.3z M57.5,10.3h-6.6v7h5v1.9h-5V29h-2.2V8.4h8.9V10.3z M63,36.2c0,0,0.1,0,0.1,0.1c0,0,0,0.1,0.1,0.1c0,0,0,0,0,0.1l-2,3.1v2.1
		c0,0.2-0.1,0.3-0.3,0.3h-0.1c-0.2,0-0.2-0.1-0.2-0.3v-2.1l-2-3.1c0,0,0,0,0-0.1c0,0,0-0.1,0.1-0.1c0,0,0.1-0.1,0.1-0.1
		c0,0,0.1,0,0.2,0c0.1,0,0.2,0.1,0.3,0.2l1.6,2.6l1.6-2.6c0.1-0.1,0.2-0.2,0.3-0.2C62.9,36.2,62.9,36.2,63,36.2z M71.1,37.9
		c0,0.6-0.2,1-0.5,1.3c-0.4,0.3-0.9,0.4-1.6,0.4h-1.1v1.9c0,0.1,0,0.1-0.1,0.2c0,0-0.1,0.1-0.2,0.1h-0.1c-0.2,0-0.3-0.1-0.3-0.3v-5
		c0-0.1,0-0.2,0.1-0.2c0.1-0.1,0.1-0.1,0.2-0.1H69c0.7,0,1.2,0.1,1.5,0.4C70.9,36.9,71.1,37.3,71.1,37.9z M67.8,36.7v2.4H69
		c0.5,0,0.9-0.1,1.1-0.3c0.2-0.2,0.4-0.5,0.4-0.9c0-0.8-0.5-1.2-1.5-1.2H67.8z M54,36.2c0.2,0,0.3,0.1,0.3,0.3v4.8H57
		c0.2,0,0.3,0.1,0.3,0.2v0.1c0,0.2-0.1,0.2-0.3,0.2h-3c-0.1,0-0.2,0-0.2-0.1c-0.1-0.1-0.1-0.1-0.1-0.2v-5
		C53.7,36.2,53.8,36.2,54,36.2L54,36.2z M51.8,37.9c0,0.6-0.2,1-0.5,1.3c-0.4,0.3-0.9,0.4-1.6,0.4h-1.1v1.9c0,0.1,0,0.1-0.1,0.2
		c0,0-0.1,0.1-0.2,0.1h-0.1c-0.2,0-0.3-0.1-0.3-0.3v-5c0-0.1,0-0.2,0.1-0.2c0.1-0.1,0.1-0.1,0.2-0.1h1.4c0.7,0,1.2,0.1,1.5,0.4
		C51.7,36.9,51.8,37.3,51.8,37.9z M51.2,37.9c0-0.8-0.5-1.2-1.5-1.2h-1.2v2.4h1.2c0.5,0,0.9-0.1,1.1-0.3
		C51.1,38.6,51.2,38.3,51.2,37.9z M84.1,36.3c0,0,0.1-0.1,0.1-0.1c0,0,0.1,0,0.2,0c0.1,0,0.2,0.1,0.3,0.2l1.6,2.6l1.6-2.6
		c0.1-0.1,0.2-0.2,0.3-0.2c0.1,0,0.1,0,0.2,0c0,0,0.1,0,0.1,0.1c0,0,0,0.1,0.1,0.1c0,0,0,0,0,0.1l-2,3.1v2.1c0,0.2-0.1,0.3-0.3,0.3
		h-0.1c-0.2,0-0.2-0.1-0.2-0.3v-2.1l-2-3.1C84,36.4,84,36.4,84.1,36.3C84,36.3,84,36.3,84.1,36.3z M73.2,36.2c0.2,0,0.3,0.1,0.3,0.3
		v4.8h2.7c0.2,0,0.3,0.1,0.3,0.2v0.1c0,0.2-0.1,0.2-0.3,0.2h-3c-0.1,0-0.2,0-0.2-0.1c-0.1-0.1-0.1-0.1-0.1-0.2v-5
		C72.9,36.2,73,36.2,73.2,36.2L73.2,36.2z M80.7,36.4l2,5.3c0,0,0,0.1-0.1,0.1c-0.1,0-0.2,0.1-0.2,0.1c-0.1,0-0.1,0-0.2,0
		c-0.1,0-0.1-0.1-0.2-0.2L81.5,40h-2.4l-0.6,1.6c0,0.1-0.1,0.2-0.2,0.2c-0.1,0-0.1,0-0.2,0c-0.1,0-0.2,0-0.2-0.1
		c-0.1,0-0.1-0.1-0.1-0.1l2-5.3c0-0.1,0.1-0.1,0.1-0.2c0.1,0,0.2-0.1,0.3-0.1c0.1,0,0.2,0,0.3,0.1C80.7,36.2,80.7,36.3,80.7,36.4z
		 M80.3,36.8l-1,2.6h2L80.3,36.8z M41.1,10.7C40.6,10.2,40,10,39.3,10c-0.7,0-1.3,0.2-1.8,0.7c-0.5,0.5-1,1.4-1.3,2.6
		c-0.3,1.3-0.5,3.1-0.5,5.4c0,2.3,0.2,4.1,0.5,5.4c0.3,1.3,0.7,2.2,1.3,2.7c0.5,0.5,1.1,0.7,1.8,0.7c0.7,0,1.3-0.2,1.8-0.7
		c0.5-0.5,1-1.4,1.3-2.7c0.3-1.3,0.5-3.1,0.5-5.4c0-2.3-0.2-4.1-0.5-5.4C42.1,12.1,41.6,11.2,41.1,10.7z M44.4,12.6
		c0.5,1.6,0.7,3.6,0.7,6.2c0,2.5-0.3,4.6-0.7,6.2c-0.5,1.6-1.2,2.7-2,3.4c-0.9,0.7-1.9,1-3.1,1c-1.2,0-2.2-0.3-3.1-1
		c-0.9-0.7-1.6-1.9-2-3.4c-0.5-1.6-0.7-3.6-0.7-6.2c0-2.6,0.3-4.6,0.7-6.2c0.5-1.6,1.2-2.7,2-3.4c0.9-0.7,1.9-1.1,3.1-1
		c1.2,0,2.2,0.3,3.1,1C43.2,9.9,43.9,11,44.4,12.6z M30.3,24.1c0,1.7-0.5,2.9-1.4,3.9c-0.9,0.9-2.2,1.4-3.9,1.4
		c-1.1,0-2-0.2-2.8-0.7c-0.8-0.5-1.4-1.2-1.8-2c-0.4-0.9-0.7-1.9-0.7-3.1h2.1c0,1.2,0.3,2.2,0.9,2.9c0.6,0.7,1.4,1,2.5,1.1
		c0.9,0,1.7-0.3,2.2-0.9c0.5-0.6,0.8-1.4,0.8-2.5c0-0.9-0.3-1.7-0.9-2.4c-0.6-0.7-1.2-1.3-2.1-1.9c-0.8-0.6-1.6-1.1-2.5-1.8
		c-0.8-0.6-1.5-1.3-2.1-2.1c-0.5-0.8-0.8-1.8-0.9-3c0-1.5,0.5-2.6,1.4-3.5c0.9-0.9,2.1-1.3,3.6-1.3c1.5,0,2.7,0.5,3.6,1.4
		c0.9,1,1.4,2.4,1.5,4.2H28c-0.1-1.1-0.4-2-0.9-2.7c-0.5-0.7-1.3-1-2.3-1.1c-0.9,0-1.6,0.3-2.1,0.8c-0.5,0.5-0.8,1.1-0.8,1.9
		c0,0.9,0.3,1.7,0.9,2.3c0.6,0.6,1.2,1.2,2.1,1.8c0.8,0.5,1.6,1.1,2.5,1.7c0.8,0.6,1.5,1.4,2.1,2.2C30,21.7,30.3,22.8,30.3,24.1z
		 M45.2,36.2h0.1c0.1,0,0.2,0,0.3,0.1c0.1,0.1,0.1,0.2,0.1,0.3v5c0,0.2-0.1,0.3-0.2,0.3h-0.1c-0.2,0-0.2-0.1-0.2-0.3v-4.7L43.7,40
		c-0.1,0.1-0.1,0.2-0.2,0.3c-0.1,0.1-0.2,0.1-0.3,0.1c-0.1,0-0.3,0-0.3-0.1c-0.1-0.1-0.1-0.2-0.2-0.3l-1.5-3.2v4.7
		c0,0.2-0.1,0.3-0.2,0.3h-0.1c-0.2,0-0.2-0.1-0.2-0.3v-5c0-0.1,0-0.2,0.1-0.3c0.1-0.1,0.2-0.1,0.3-0.1h0.1c0.2,0,0.3,0,0.3,0.1
		c0.1,0.1,0.1,0.2,0.2,0.3l1.5,3.3l1.5-3.3c0.1-0.2,0.1-0.3,0.2-0.3C45,36.2,45.1,36.2,45.2,36.2z M34.5,36.2
		c0.2,0.1,0.4,0.1,0.6,0.2c0.2,0.1,0.3,0.2,0.4,0.3c0.1,0.1,0.1,0.2,0.1,0.3c0,0.1,0,0.1-0.1,0.2c0,0-0.1,0.1-0.1,0.1
		c0,0-0.1,0.1-0.1,0.1c0,0-0.1,0-0.1,0c-0.1-0.2-0.3-0.4-0.6-0.6c-0.3-0.2-0.6-0.2-0.9-0.2c-0.4,0-0.7,0.1-1,0.3
		c-0.2,0.2-0.4,0.4-0.4,0.7c0,0.2,0,0.3,0.1,0.4c0.1,0.1,0.2,0.2,0.3,0.3c0.1,0.1,0.3,0.1,0.5,0.2c0.2,0,0.4,0.1,0.6,0.1
		c0.2,0,0.5,0.1,0.7,0.2c0.2,0.1,0.4,0.2,0.6,0.3c0.2,0.1,0.3,0.3,0.4,0.5c0.1,0.2,0.2,0.4,0.2,0.7c0,0.2,0,0.5-0.1,0.7
		c-0.1,0.2-0.2,0.4-0.4,0.5c-0.2,0.1-0.4,0.2-0.6,0.3c-0.2,0.1-0.5,0.1-0.8,0.1c-0.3,0-0.6,0-0.8-0.1c-0.3-0.1-0.5-0.2-0.7-0.3
		c-0.2-0.1-0.3-0.2-0.4-0.4c-0.1-0.1-0.2-0.2-0.2-0.3c0-0.1,0-0.1,0.1-0.2c0,0,0.1-0.1,0.1-0.1c0,0,0.1-0.1,0.1-0.1c0,0,0.1,0,0.1,0
		c0.2,0.2,0.4,0.5,0.7,0.7c0.3,0.2,0.6,0.3,1,0.3c0.4,0,0.8-0.1,1-0.3c0.2-0.2,0.4-0.4,0.4-0.8c0-0.2,0-0.3-0.1-0.5
		c-0.1-0.1-0.2-0.2-0.3-0.3c-0.1-0.1-0.3-0.2-0.5-0.2c-0.2,0-0.4-0.1-0.6-0.1c-0.2-0.1-0.4-0.1-0.6-0.2c-0.2-0.1-0.4-0.2-0.5-0.3
		c-0.2-0.1-0.3-0.3-0.4-0.4c-0.1-0.2-0.2-0.4-0.2-0.7c0-0.2,0-0.4,0.1-0.6c0.1-0.2,0.2-0.3,0.4-0.5c0.2-0.1,0.4-0.2,0.6-0.3
		c0.2-0.1,0.5-0.1,0.7-0.1C34.1,36.1,34.3,36.1,34.5,36.2z M38.3,36.4v5.1c0,0.2-0.1,0.3-0.3,0.3H38c-0.2,0-0.2-0.1-0.2-0.3v-5.1
		c0-0.2,0.1-0.3,0.2-0.3h0.1C38.3,36.2,38.3,36.2,38.3,36.4z"/>
</g>
<g display="none">
	<g display="inline">
		<polygon fill="#FFFFFF" points="61.3,7.3 61.3,42.7 62.3,42.7 62.3,35.9 75.2,35.9 75.2,31.8 65.3,31.8 65.3,27 73.7,27 
			73.7,22.9 65.3,22.9 65.3,18.3 75.2,18.3 75.2,14.1 62.3,14.1 62.3,7.3 		"/>
	</g>
	<g display="inline">
		<polygon fill="#FFFFFF" points="22.3,14.1 22.3,27.5 18.6,21.5 13.9,14.2 13.9,14.1 10,14.1 10,35.9 14.3,35.9 14.3,22.5 
			17.5,27.7 22.7,35.9 26.6,35.9 26.6,14.1 		"/>
	</g>
	<g display="inline">
		<polygon fill="#FFFFFF" points="29,35.9 43.3,35.9 43.3,31.8 33.4,31.8 33.4,27 41.8,27 41.8,22.9 33.4,22.9 33.4,18.3 43.3,18.3 
			43.3,14.1 29,14.1 		"/>
	</g>
	<g display="inline">
		<polygon fill="#FFFFFF" points="45,18.3 50,18.3 50,35.9 54.3,35.9 54.3,18.3 59.3,18.3 59.3,14.1 45,14.1 		"/>
	</g>
	<g display="inline">
		<polygon fill="#FFFFFF" points="89.6,27.5 86,21.6 81.3,14.2 81.2,14.1 77.4,14.1 77.4,35.9 81.7,35.9 81.7,22.5 84.9,27.8 
			90,35.9 94,35.9 94,14.1 89.6,14.1 		"/>
	</g>
	<g display="inline">
		<polygon fill="#FFFFFF" points="95.7,14.1 95.7,18.3 100.7,18.3 100.7,35.9 105.1,35.9 105.1,18.3 110,18.3 110,14.1 		"/>
	</g>
</g>
<g display="none">
	<g display="inline">
		<path fill="#FFFFFF" d="M20.2,39c-1.6,0-2.8-1.3-2.8-2.8c0-1.5,1.3-2.8,2.8-2.8c1.6,0,2.8,1.3,2.8,2.8C23,37.7,21.7,39,20.2,39z"
			/>
	</g>
	<g display="inline">
		<path fill="#FFFFFF" d="M47.4,36.2c0-1.5,1.3-2.8,2.8-2.8c1.6,0,2.8,1.2,2.8,2.8c0,1.5-1.3,2.8-2.8,2.8
			C48.6,39,47.4,37.8,47.4,36.2z"/>
	</g>
	<g display="inline">
		<path fill="#FFFFFF" d="M42.7,39c-1.5,0-2.8-1.3-2.8-2.8c0-1.5,1.3-2.8,2.8-2.8c1.6,0,2.8,1.3,2.8,2.8C45.5,37.8,44.2,39,42.7,39z
			"/>
	</g>
	<path display="inline" fill="#9FCD67" d="M32.4,36.2c0-1.5,1.3-2.8,2.8-2.8c1.6,0,2.8,1.2,2.8,2.8c0,1.5-1.3,2.8-2.8,2.8
		C33.6,39,32.4,37.7,32.4,36.2z"/>
	<g display="inline">
		<path fill="#FFFFFF" d="M27.7,39c-1.6,0-2.8-1.3-2.8-2.8c0-1.5,1.3-2.8,2.8-2.8c1.5,0,2.7,1.2,2.7,2.8C30.4,37.8,29.2,39,27.7,39z
			"/>
	</g>
	<g display="inline">
		<path fill="#FFFFFF" d="M15.5,36.2c0,1.6-1.2,2.8-2.7,2.8c-1.5,0-2.8-1.3-2.8-2.8c0-1.5,1.3-2.8,2.8-2.8
			C14.4,33.4,15.5,34.6,15.5,36.2z"/>
	</g>
	<g display="inline">
		<g>
			<g>
				<path fill="#FFFFFF" d="M78.2,32.5c0,1.2,0,2.4,0,3.5c0,3.3-2.5,5.8-5.8,5.9c-1.5,0-2.9-0.2-4.2-1.2c-1.4-1-2-2.4-2.1-4.1
					c-0.2-2.7,0-5.5-0.1-8.2c0-0.3,0.1-0.4,0.4-0.4c0.9,0,1.8,0,2.6,0c0.4,0,0.4,0.1,0.4,0.5c0,2.4,0,4.8,0,7.2c0,0.3,0,0.5,0.1,0.8
					c0.2,1.3,1.1,2.1,2.4,2.1c1.3,0,2.4-0.9,2.6-2.1c0-0.3,0.1-0.6,0.1-0.9c0-2.3,0-4.7,0-7c0-0.4,0.1-0.5,0.5-0.5
					c0.8,0,1.7,0,2.5,0c0.4,0,0.5,0.1,0.5,0.5C78.1,29.8,78.2,31.1,78.2,32.5z"/>
			</g>
			<g>
				<path fill="#FFFFFF" d="M61.1,33.9c0,0.8,0,1.5,0,2.3c0,1.4,0.8,2.1,2.1,2.1c0.4,0,0.5,0.1,0.5,0.5c0,0.7,0,1.5,0,2.2
					c0,0.5-0.2,0.5-0.6,0.5c-2.9,0.1-5-1.4-5.5-4.5c-0.1-0.4-0.1-0.8-0.1-1.2c0-3.6,0-7.3,0-10.9c0-0.4,0.1-0.6,0.5-0.5
					c0.8,0,1.7,0,2.5,0c0.3,0,0.5,0.1,0.5,0.5c0,0.9,0,1.7,0,2.6c0,0.3,0.1,0.5,0.4,0.4c0.5,0,1.1,0,1.6,0c0.3,0,0.4,0.1,0.4,0.4
					c0,0.8,0,1.5,0,2.3c0,0.3-0.1,0.4-0.4,0.4c-0.5,0-1.1,0-1.6,0c-0.3,0-0.4,0.1-0.4,0.4C61.1,32.3,61.1,33.1,61.1,33.9
					C61.1,33.9,61.1,33.9,61.1,33.9z"/>
			</g>
			<g>
				<path fill="#FFFFFF" d="M94.8,34.5c-0.1-2.4-1.1-4.3-3-5.7c-2.2-1.6-5.4-1.4-7.1,0.2c-0.1,0.1-0.1,0.2-0.2,0.1
					c-0.1-0.1-0.1-0.2-0.1-0.3c0-1.1,0-2.2,0-3.2c0-1.1,0-2.1,0-3.2c0-0.4-0.1-0.5-0.5-0.5c-0.9,0-1.7,0-2.6,0
					c-0.4,0-0.5,0.1-0.5,0.5c0,4.1,0,8.3,0,12.4c0,2.2,0.8,4,2.5,5.5c2.5,2.2,6.9,2.1,9.3-0.2C94.2,38.6,94.9,36.7,94.8,34.5z
					 M90.1,37.7c-0.6,0.6-1.4,0.9-2.3,0.9c-1.3,0-2.2-0.6-2.8-1.7c-0.9-1.5-0.8-3.6,0.4-4.9c1.4-1.5,3.7-1.5,5,0.1
					C91.8,33.8,91.6,36.3,90.1,37.7z"/>
			</g>
			<g>
				<path fill="#FFFFFF" d="M101.1,37.1c2.8-1.2,5.7-2.4,8.5-3.6c0.3-0.1,0.4-0.2,0.3-0.6c-0.7-3.2-3.3-5.3-6.6-5.3
					c-0.3,0-0.6,0-0.8,0c-5.1,0.7-7.7,6.2-5.3,10.5c1.5,2.8,4.4,4.1,7.5,3.5c2.4-0.4,4.1-1.8,5-4.1c0.1-0.3,0.1-0.4-0.3-0.4
					c-1,0-2,0-3,0c-0.2,0-0.4,0-0.5,0.2c-1,1.6-3.7,1.7-5,0.5C100.4,37.4,100.4,37.4,101.1,37.1z M100,34.4
					c-0.3,0.1-0.4,0.1-0.4-0.2c0.1-1.9,1.8-3.5,3.5-3.5c1.1,0,1.9,0.3,2.6,0.9c0.2,0.2,0.2,0.3-0.1,0.4
					C103.8,32.8,101.9,33.6,100,34.4z"/>
			</g>
		</g>
		<g>
			<g>
				<path fill="#FFFFFF" d="M78.2,17.6c0,1.3,0,2.7,0,4c0,0.4-0.1,0.5-0.5,0.5c-0.8,0-1.7,0-2.5,0c-0.4,0-0.5-0.1-0.5-0.5
					c0-2.4,0-4.7,0-7.1c0-0.5,0-0.9-0.2-1.3c-0.2-0.8-0.8-1.3-1.6-1.5c-1.9-0.5-3.4,0.7-3.4,2.7c0,2.4,0,4.8,0,7.2
					c0,0.4-0.1,0.6-0.6,0.5c-0.8,0-1.7,0-2.5,0c-0.4,0-0.5-0.1-0.5-0.5c0-2.4,0-4.9,0-7.3c0-1.5,0.4-2.9,1.4-4.1
					c1.1-1.3,2.5-1.9,4.1-2c1.1-0.1,2.2,0,3.3,0.5c2.2,0.9,3.2,2.7,3.4,5C78.3,14.9,78.2,16.2,78.2,17.6
					C78.2,17.6,78.2,17.6,78.2,17.6z"/>
			</g>
			<g>
				<path fill="#FFFFFF" d="M26.7,17.6c0-1.2,0-2.4,0-3.6c0-2,0.7-3.7,2.3-4.8c1.4-1,2.9-1.2,4.5-1c0.3,0,0.3,0.2,0.3,0.4
					c0,0.9,0,1.7,0,2.6c0,0.3-0.1,0.3-0.4,0.3c-0.9-0.1-1.8,0-2.5,0.7c-0.6,0.5-0.8,1.2-0.8,2c0,2.5,0,4.9,0,7.4
					c0,0.6,0,0.6-0.6,0.6c-0.8,0-1.6,0-2.4,0c-0.5,0-0.5,0-0.5-0.6C26.7,20.2,26.7,18.9,26.7,17.6z"/>
			</g>
			<g>
				<path fill="#FFFFFF" d="M24,15.2c0-1.8-0.6-3.4-1.8-4.7c-1.6-1.8-3.6-2.5-6-2.3c-1.9,0.2-3.4,1-4.6,2.5
					c-1.2,1.5-1.7,3.3-1.6,5.2c0.2,2.6,1.4,4.6,3.7,5.8c2.2,1.1,4.4,1,6.4-0.5c0.1,0,0.1-0.1,0.2-0.1c0.1,0,0.1,0.1,0.1,0.2
					c0.1,1.9-0.5,4.1-3.3,4.2c-1.1,0.1-2.2-0.2-2.9-1.3c-0.1-0.2-0.3-0.2-0.5-0.2c-1,0-2.1,0-3.1,0c-0.3,0-0.4,0.1-0.3,0.4
					c0.3,1.1,0.8,2,1.7,2.7c1.6,1.4,3.5,1.8,5.5,1.7c3.6-0.3,6-2.6,6.3-6.2c0.1-1.3,0-2.7,0.1-3.8C24,17.3,24.1,16.3,24,15.2z
					 M19.5,18c-1.6,1.8-4.5,1.2-5.5-1c-0.3-0.6-0.4-1.2-0.4-1.6c0-1.3,0.4-2.4,1.2-3.1c1.6-1.4,3.8-1.1,5,0.7
					C20.9,14.6,20.7,16.7,19.5,18z"/>
			</g>
			<g>
				<path fill="#FFFFFF" d="M39.5,17.7c2.9-1.2,5.8-2.4,8.7-3.7c0.2-0.1,0.4-0.2,0.3-0.5c-0.4-1.8-1.3-3.4-3-4.4
					c-3.3-2-7.5-1-9.5,2.4c-1.5,2.4-1.5,4.9-0.1,7.4c1.3,2.3,3.4,3.5,6.1,3.5c1,0,1.9-0.2,2.8-0.5c1.7-0.7,2.9-2,3.6-3.7
					c0.1-0.2,0.2-0.4-0.2-0.4c-1.1,0-2.1,0-3.2,0c-0.2,0-0.3,0.1-0.4,0.2c-1.1,1.7-3.8,1.8-5.2,0.3C39.1,17.9,39.1,17.9,39.5,17.7z
					 M38.6,14.9c-0.2,0.1-0.4,0.1-0.3-0.2c0.3-2.2,1.9-3.6,3.7-3.5c0.9,0,1.7,0.3,2.4,0.9c0.2,0.2,0.3,0.3,0,0.4
					C42.4,13.3,40.5,14.1,38.6,14.9z"/>
			</g>
			<g>
				<path fill="#FFFFFF" d="M54.8,17.7c2.9-1.2,5.8-2.4,8.7-3.7c0.2-0.1,0.4-0.2,0.3-0.5c-0.8-3.6-3.8-5.8-7.5-5.3
					c-3.7,0.4-6.4,3.8-6.1,7.6c0.3,3.7,3.4,6.7,7,6.6c3.1,0,5.4-1.6,6.4-4.2c0.1-0.3,0.1-0.5-0.3-0.5c-1,0-2,0-2.9,0
					c-0.2,0-0.4,0.1-0.5,0.3c-1.3,1.6-3.7,1.8-5.2,0.3C54.3,17.9,54.3,17.9,54.8,17.7z M53.9,14.9c-0.4,0.2-0.4-0.1-0.3-0.3
					c0.2-1.8,1.7-3.5,3.7-3.4c0.9,0,1.6,0.3,2.3,0.9c0.2,0.2,0.3,0.3-0.1,0.5C57.6,13.3,55.8,14.1,53.9,14.9z"/>
			</g>
		</g>
	</g>
</g>
<g display="none">
	<path display="inline" fill="#FFFFFF" d="M35.5,9.5h10.9l0.3,3.5H46c-0.3-1.5-0.3-1.8-0.8-2.3c-0.6-0.6-1.6-0.5-2.5-0.5h-2.8
		c-0.2,0-0.4,0.1-0.5,0.2c-0.1,0.1-0.2,0.3-0.2,0.5v4.5h1.2c0.7,0,1.2-0.2,1.6-0.7c0.4-0.4,0.6-1.1,0.7-2.1h0.7V19h-0.7
		c0-1-0.3-1.8-0.7-2.2c-0.4-0.5-1-0.7-1.7-0.7h-1.1v5.1c0,0.2,0.1,0.3,0.2,0.5c0.1,0.1,0.4,0.2,0.7,0.2h2.2c2.4,0,3.8-0.7,4.1-3.7
		H47l-0.2,4.4H35.5v-0.7h0.6c0.4,0,0.6-0.1,0.8-0.2c0.2-0.1,0.2-0.3,0.2-0.5V10.9c0-0.2-0.1-0.4-0.2-0.5c-0.1-0.1-0.3-0.2-0.6-0.2
		h-0.8V9.5z"/>
	<path display="inline" fill="#FFFFFF" d="M46.1,13.8H51v0.6c-0.6,0-1,0.1-1.1,0.2c-0.2,0.1-0.2,0.2-0.2,0.4c0,0.1,0,0.3,0.1,0.4
		l2.4,5.1l2.2-4.9c0-0.1,0-0.2,0-0.3c0-0.4-0.5-0.7-1.4-0.8v-0.6h3.7v0.6c-0.4,0-0.7,0.1-0.9,0.3c-0.2,0.2-0.4,0.4-0.5,0.6L52,22.7
		h-0.5l-3.5-7.5c-0.1-0.3-0.3-0.5-0.5-0.6c-0.2-0.1-1-0.2-1.3-0.2V13.8z"/>
	<path display="inline" fill="#FFFFFF" d="M60.2,13.5c1.2,0,2.2,0.4,3.1,1.3c0.8,0.8,1.2,1.9,1.2,3.3c0,0.9-0.2,1.8-0.6,2.4
		c-0.4,0.7-0.9,1.2-1.6,1.6c-0.7,0.4-1.4,0.6-2.2,0.6c-1.2,0-2.2-0.4-3-1.3c-0.8-0.8-1.2-2-1.2-3.3c0-1.4,0.4-2.5,1.2-3.3
		C58,14,59,13.5,60.2,13.5 M60.2,14.2c-0.7,0-1.3,0.3-1.8,0.9c-0.5,0.6-0.7,1.6-0.7,3c0,1.4,0.2,2.4,0.7,3c0.5,0.6,1,1,1.8,1
		c0.7,0,1.4-0.3,1.8-1c0.5-0.6,0.7-1.7,0.7-3.1c0-1.3-0.2-2.3-0.7-2.9C61.6,14.5,61,14.2,60.2,14.2"/>
	<path display="inline" fill="#FFFFFF" d="M67.5,9.4v11.8c0,0.2,0.1,0.3,0.2,0.4c0.2,0.1,0.4,0.2,0.6,0.2h0.6v0.7h-4.4v-0.7H65
		c0.3,0,0.5-0.1,0.7-0.2c0.1-0.1,0.2-0.3,0.2-0.6v-9.8c0-0.3-0.1-0.5-0.3-0.7c-0.2-0.2-0.5-0.3-0.9-0.3h-0.8V9.5L67.5,9.4z"/>
	<path display="inline" fill="#FFFFFF" d="M72,13.6v5.7c0,0.7,0.2,1.2,0.6,1.6c0.4,0.4,0.8,0.6,1.4,0.6c0.7,0,1.3-0.3,1.8-0.8
		c0.5-0.6,0.8-1.3,0.8-2.1v-3.2c0-0.3-0.1-0.5-0.3-0.7c-0.2-0.2-0.6-0.3-1.3-0.3v-0.6l3.2-0.2v7.1c0,0.3,0.1,0.6,0.3,0.8
		c0.2,0.2,0.5,0.3,0.8,0.3h0.6v0.6l-3,0.1l-0.2-1.7c-0.5,0.6-1.1,1.1-1.6,1.4c-0.5,0.3-1.1,0.5-1.7,0.5c-0.8,0-1.5-0.3-2-0.8
		c-0.6-0.5-0.8-1.4-0.8-2.6v-3.8c0-0.3-0.1-0.6-0.4-0.8c-0.2-0.1-0.6-0.2-1.2-0.2v-0.6L72,13.6z"/>
	<path display="inline" fill="#FFFFFF" d="M81.6,10.3h0.6v3.5h5.5v0.8h-5.5v5.5c0,0.5,0.1,0.8,0.4,1.1c0.2,0.3,0.5,0.4,0.9,0.4
		c0.4,0,0.8-0.2,1.1-0.6c0.3-0.4,0.5-1,0.5-1.9h0.6c0,1.2-0.3,2-0.8,2.6c-0.5,0.6-1.2,0.8-2,0.8c-0.7,0-1.3-0.2-1.7-0.6
		c-0.4-0.4-0.6-0.9-0.6-1.5v-5.8h-1.6V14c0.7-0.1,1.3-0.4,1.6-0.9C81.3,12.5,81.6,11.5,81.6,10.3"/>
	<path display="inline" fill="#FFFFFF" d="M85.8,13.8l3.6-0.1v7.4c0,0.2,0.1,0.3,0.2,0.4c0.1,0.1,0.3,0.2,0.6,0.2h0.6v0.7h-4.4v-0.7
		H87c0.3,0,0.5-0.1,0.6-0.2c0.1-0.1,0.2-0.3,0.2-0.6v-5.3c0-0.3-0.1-0.6-0.3-0.8c-0.2-0.2-0.5-0.3-0.9-0.3h-0.7V13.8z M88.3,9.7
		c0.3,0,0.5,0.1,0.8,0.3c0.2,0.2,0.3,0.5,0.3,0.7c0,0.3-0.1,0.5-0.3,0.7s-0.5,0.3-0.8,0.3c-0.3,0-0.5-0.1-0.8-0.3
		c-0.2-0.2-0.3-0.4-0.3-0.7c0-0.3,0.1-0.5,0.3-0.7C87.8,9.8,88,9.7,88.3,9.7"/>
	<path display="inline" fill="#FFFFFF" d="M95.3,13.5c1.2,0,2.2,0.4,3.1,1.3c0.8,0.8,1.2,1.9,1.2,3.3c0,0.9-0.2,1.8-0.6,2.4
		c-0.4,0.7-0.9,1.2-1.6,1.6c-0.7,0.4-1.4,0.6-2.2,0.6c-1.2,0-2.2-0.4-3-1.3c-0.8-0.8-1.2-2-1.2-3.3c0-1.4,0.4-2.5,1.2-3.3
		C93.1,14,94.1,13.5,95.3,13.5 M95.3,14.2c-0.7,0-1.3,0.3-1.8,0.9c-0.5,0.6-0.7,1.6-0.7,3c0,1.4,0.2,2.4,0.7,3c0.5,0.6,1,1,1.8,1
		c0.7,0,1.4-0.3,1.8-1c0.5-0.6,0.7-1.7,0.7-3.1c0-1.3-0.2-2.3-0.7-2.9C96.7,14.5,96.1,14.2,95.3,14.2"/>
	<path display="inline" fill="#FFFFFF" d="M99.4,13.8l3-0.2c0.1,0.5,0.2,1.2,0.3,1.9c0.4-0.6,0.9-1.1,1.4-1.4
		c0.5-0.3,1.2-0.5,1.9-0.5c0.6,0,1.1,0.1,1.5,0.3c0.4,0.2,0.7,0.6,1,1.1c0.2,0.5,0.4,1,0.4,1.6v4.2c0,0.3,0.1,0.5,0.2,0.7
		c0.1,0.1,0.4,0.2,0.7,0.2h0.3v0.7h-4v-0.7h0.1c0.4,0,0.7-0.1,0.9-0.2c0.2-0.1,0.2-0.3,0.2-0.6v-3.7c0-0.8-0.1-1.4-0.4-1.8
		c-0.4-0.6-0.9-0.8-1.6-0.8c-0.7,0-1.3,0.3-1.8,0.8c-0.5,0.6-0.7,1.3-0.7,2.2v3.2c0,0.3,0.1,0.5,0.2,0.7c0.2,0.1,0.4,0.2,0.7,0.2
		h0.3v0.7h-4v-0.7h0.3c0.3,0,0.6-0.1,0.7-0.2c0.2-0.1,0.2-0.3,0.2-0.5v-5.6c0-0.4-0.1-0.6-0.3-0.8c-0.2-0.2-0.5-0.3-0.9-0.3h-0.5
		V13.8z"/>
	<path display="inline" fill="#FFFFFF" d="M50.9,25.3l0.8-1.4h0.6l0.4,5.4H52c-0.5-1.6-1-2.7-1.7-3.4c-0.8-0.9-1.8-1.3-2.9-1.3
		c-0.8,0-1.6,0.2-2.2,0.7c-0.7,0.4-1.2,1.1-1.5,2c-0.3,0.9-0.5,1.8-0.5,3.4c0,1.6,0.2,2.5,0.5,3.3c0.3,0.9,0.8,1.5,1.4,2
		c0.6,0.4,1.3,0.6,2.2,0.6c1.1,0,2-0.3,2.6-0.9c0.6-0.6,0.9-1.4,0.9-2.3v-1.3c0-0.2-0.1-0.4-0.2-0.5c-0.2-0.1-0.4-0.2-0.8-0.2h-1.2
		v-0.6h5.6v0.6h-0.4c-0.4,0-0.6,0.1-0.8,0.2c-0.2,0.1-0.2,0.3-0.2,0.5v5.2h-0.6c-0.2-0.8-0.5-1.6-0.7-2.3c-0.5,0.8-1.1,1.3-1.7,1.7
		c-0.7,0.4-1.4,0.6-2.3,0.6c-1.2,0-2.3-0.3-3.3-0.9c-1-0.6-1.8-1.4-2.4-2.5c-0.6-1.1-0.9-1.9-0.9-3.3c0-1.4,0.3-2.2,0.9-3.3
		c0.6-1.1,1.4-1.9,2.4-2.6c1-0.6,2.1-0.9,3.1-0.9c0.6,0,1.2,0.1,1.7,0.3C49.6,24.4,50.2,24.8,50.9,25.3"/>
	<path display="inline" fill="#FFFFFF" d="M63.8,36.5l0.2,0.3c0,0.5-0.6,0.4-1.2,0.4c-0.4,0-1.3,0-1.6-0.2c-0.3-0.2-0.4-0.5-0.6-1
		c-0.6,0.6-1.1,1-1.6,1.2c-0.5,0.2-1,0.3-1.7,0.3c-0.9,0-1.6-0.2-2.1-0.6c-0.5-0.4-0.7-0.9-0.7-1.5c0-0.9,0.6-1.6,1.6-2.2
		c1.1-0.6,2.6-1,4.4-1.2v-1.3c0-0.5-0.2-0.9-0.6-1.2c-0.4-0.3-0.9-0.5-1.5-0.5c-0.6,0-1,0.1-1.4,0.3c-0.3,0.2-0.4,0.3-0.4,0.5
		c0,0.1,0.1,0.2,0.2,0.4c0.2,0.2,0.3,0.5,0.3,0.7c0,0.3-0.1,0.5-0.3,0.7c-0.2,0.2-0.4,0.3-0.7,0.3c-0.3,0-0.6-0.1-0.8-0.3
		c-0.2-0.2-0.3-0.5-0.3-0.8c0-0.6,0.4-1.2,1.1-1.7c0.7-0.5,1.7-0.8,2.8-0.8c1.1,0,1.9,0.2,2.5,0.7c0.6,0.4,0.8,1,0.8,1.6v4.7
		c0,0.4,0.1,0.6,0.2,0.8c0.1,0.1,0.3,0.3,0.5,0.3C63,36.4,63.2,36.5,63.8,36.5 M60.4,32.6c-1.6,0.2-2.8,0.6-3.5,1.1
		c-0.5,0.4-0.8,0.9-0.8,1.6c0,0.5,0.1,0.8,0.4,1.1c0.3,0.3,0.6,0.4,1,0.4c0.8,0,1.4-0.3,2-0.8c0.6-0.6,0.8-1.2,0.8-2.1V32.6z"/>
	<path display="inline" fill="#FFFFFF" d="M63.4,28.5l2.6-0.2c0.1,0.6,0.2,1.3,0.3,1.8c0.5-0.7,1-1.1,1.5-1.4c0.5-0.3,1-0.4,1.6-0.4
		c0.6,0,1.1,0.2,1.5,0.5c0.4,0.3,0.7,0.8,0.9,1.5c0.4-0.7,0.9-1.2,1.4-1.5c0.5-0.3,1.1-0.5,1.7-0.5c0.8,0,1.4,0.2,1.8,0.7
		c0.5,0.6,0.8,1.4,0.8,2.4v4.3c0,0.3,0.1,0.4,0.2,0.5c0.2,0.1,0.4,0.2,0.8,0.2h0.5v0.7h-4.5v-0.7H75c0.4,0,0.7-0.1,0.8-0.2
		C76,36.1,76,36,76,35.7v-4.3c0-0.6-0.2-1.1-0.5-1.5c-0.3-0.4-0.8-0.5-1.3-0.5c-0.4,0-0.8,0.1-1.1,0.3c-0.3,0.2-0.6,0.5-0.8,0.9
		c-0.3,0.5-0.4,1-0.4,1.4v3.7c0,0.3,0.1,0.4,0.2,0.6c0.1,0.1,0.4,0.2,0.7,0.2h0.6v0.7h-4.6v-0.7h0.5c0.3,0,0.6-0.1,0.7-0.2
		c0.2-0.1,0.2-0.3,0.2-0.5v-4c0-0.8-0.2-1.5-0.5-1.8c-0.3-0.4-0.7-0.6-1.3-0.6c-0.7,0-1.2,0.2-1.6,0.7c-0.5,0.6-0.8,1.4-0.8,2.2v3.5
		c0,0.3,0.1,0.4,0.2,0.5c0.2,0.1,0.4,0.2,0.8,0.2h0.5v0.7h-4.5v-0.7h0.7c0.3,0,0.5-0.1,0.6-0.2c0.1-0.1,0.2-0.3,0.2-0.5v-5.7
		c0-0.3-0.1-0.5-0.2-0.7c-0.2-0.2-0.5-0.3-1-0.3V28.5z"/>
	<path display="inline" fill="#FFFFFF" d="M79.3,28.5l3.2-0.1v7.4c0,0.2,0.1,0.3,0.2,0.4c0.1,0.1,0.3,0.2,0.6,0.2h1v0.7h-5.5v-0.7
		H80c0.3,0,0.5-0.1,0.6-0.2c0.1-0.1,0.2-0.3,0.2-0.6v-5.4c0-0.3-0.1-0.6-0.3-0.8c-0.2-0.2-0.5-0.3-0.9-0.3h-0.4V28.5z M81.4,24.4
		c0.3,0,0.5,0.1,0.8,0.3c0.2,0.2,0.3,0.5,0.3,0.7c0,0.3-0.1,0.5-0.3,0.7c-0.2,0.2-0.5,0.3-0.8,0.3c-0.3,0-0.5-0.1-0.8-0.3
		c-0.2-0.2-0.3-0.4-0.3-0.7c0-0.3,0.1-0.5,0.3-0.7C80.9,24.5,81.1,24.4,81.4,24.4"/>
	<path display="inline" fill="#FFFFFF" d="M84,28.5l3-0.2c0.1,0.5,0.2,1.2,0.3,1.9c0.4-0.6,0.9-1.1,1.4-1.4c0.5-0.3,1.2-0.5,1.9-0.5
		c0.6,0,1.1,0.1,1.5,0.3c0.4,0.2,0.7,0.6,1,1.1c0.2,0.5,0.4,1,0.4,1.6v4.2c0,0.3,0.1,0.5,0.2,0.7c0.1,0.1,0.4,0.2,0.7,0.2h0.3v0.7
		h-4v-0.7h0.1c0.4,0,0.7-0.1,0.9-0.2c0.2-0.1,0.2-0.3,0.2-0.6V32c0-0.8-0.1-1.4-0.4-1.8c-0.4-0.6-0.9-0.8-1.6-0.8
		c-0.7,0-1.3,0.3-1.8,0.8c-0.5,0.6-0.7,1.3-0.7,2.2v3.2c0,0.3,0.1,0.5,0.2,0.7c0.2,0.1,0.4,0.2,0.7,0.2h0.3v0.7H84v-0.7h0.6
		c0.3,0,0.6-0.1,0.7-0.2c0.2-0.1,0.2-0.3,0.2-0.5v-5.6c0-0.4-0.1-0.6-0.3-0.8c-0.2-0.2-0.5-0.3-0.9-0.3H84V28.5z"/>
	<path display="inline" fill="#FFFFFF" d="M101.4,29c0.6-0.6,2.4-1.5,3-1.6c0.4,0,0.7,0,0.9,0.2c0.2,0.2-0.2,0.6-0.2,0.9
		c0,0.2-0.1,0.4-0.2,0.6c-0.1,0.2-0.3,0.2-0.5,0.2c-0.4,0-0.6-0.2-0.7-0.6c-0.1-0.2-0.1-0.3-0.3-0.3c-0.2,0-1.3,0.6-1.6,0.9
		c0.3,0.4,0.5,0.7,0.6,0.9c0.1,0.3,0.2,0.6,0.2,0.9c0,0.5-0.1,1-0.4,1.4c-0.3,0.4-0.7,0.8-1.3,1.1c-0.6,0.3-1.2,0.5-1.8,0.5h-1
		c-0.7,0-1.2,0.1-1.5,0.2c-0.2,0.2-0.4,0.4-0.4,0.7c0,0.2,0.1,0.4,0.3,0.6c0.2,0.1,0.6,0.2,1.1,0.2l2.4,0c1.2,0,2.1,0.2,2.6,0.6
		c0.5,0.4,0.8,0.9,0.8,1.6c0,0.7-0.3,1.4-0.9,1.9c-0.8,0.7-2.1,1.1-3.8,1.1c-1.4,0-2.4-0.2-3.1-0.7c-0.5-0.4-0.8-0.8-0.8-1.3
		c0-0.4,0.2-0.7,0.5-1c0.3-0.3,0.9-0.5,1.7-0.7c-0.6-0.1-1.1-0.4-1.4-0.7c-0.3-0.3-0.5-0.6-0.5-1.1c0-0.4,0.1-0.7,0.4-1
		c0.3-0.3,0.7-0.5,1.4-0.8c-0.5-0.3-1-0.6-1.2-1c-0.3-0.4-0.4-0.9-0.4-1.4c0-0.8,0.3-1.5,1-2.1c0.7-0.6,1.6-0.8,2.7-0.8
		c0.4,0,0.9,0.1,1.3,0.2C100.6,28.5,101,28.7,101.4,29 M99.4,37.2c-1.2,0-2,0.2-2.5,0.5c-0.5,0.3-0.8,0.7-0.8,1.1
		c0,0.4,0.2,0.7,0.6,1c0.5,0.3,1.2,0.5,2.1,0.5c1.1,0,1.9-0.2,2.5-0.5c0.6-0.4,0.8-0.7,0.8-1.2c0-0.3-0.1-0.5-0.3-0.7
		c-0.2-0.2-0.4-0.4-0.8-0.5C100.7,37.2,100.2,37.2,99.4,37.2 M98.9,28.8c-0.6,0-1,0.2-1.4,0.6c-0.4,0.4-0.6,1-0.6,1.7
		c0,0.8,0.2,1.4,0.6,1.8c0.4,0.4,0.8,0.6,1.4,0.6c0.6,0,1-0.2,1.4-0.6c0.4-0.4,0.6-1,0.6-1.8c0-0.7-0.2-1.3-0.6-1.7
		C99.9,29,99.4,28.8,98.9,28.8"/>
	<path display="inline" fill="#FFFFFF" d="M104.7,27.5c0.3,0,0.5,0.1,0.8,0.3c0.2,0.2,0.3,0.5,0.3,0.7c0,0.3-0.1,0.5-0.3,0.7
		c-0.2,0.2-0.5,0.3-0.8,0.3c-0.3,0-0.5-0.1-0.8-0.3c-0.2-0.2-0.3-0.4-0.3-0.7c0-0.3,0.1-0.5,0.3-0.7
		C104.2,27.6,104.4,27.5,104.7,27.5"/>
	<path display="inline" fill="#FFFFFF" d="M29.6,35.8c-0.1,0-0.1,0-0.2,0h-0.1v-0.6h0.2c0.2,0,0.3,0,0.4,0c0.1,0.1,0.2,0.2,0.2,0.2
		C30,35.7,29.7,35.8,29.6,35.8 M30.3,35.5c0-0.2-0.1-0.4-0.2-0.5c-0.2-0.1-0.3-0.1-0.6-0.1h-0.6v1.8h0.4V36h0.3l0.4,0.7h0.4L30,36
		C30.1,35.9,30.3,35.8,30.3,35.5 M29.6,37.3c-0.8,0-1.5-0.6-1.5-1.4c0-0.8,0.7-1.4,1.5-1.4c0.8,0,1.5,0.6,1.5,1.4
		C31,36.6,30.4,37.3,29.6,37.3 M29.6,34.1c-1,0-1.8,0.8-1.8,1.8c0,1,0.8,1.8,1.8,1.8c1,0,1.8-0.8,1.8-1.8
		C31.4,34.9,30.6,34.1,29.6,34.1"/>
	<path display="inline" fill="#FFFFFF" d="M10,10.9c8.9-4.5,20.3,0.2,21.2,11.8C14.8,23.9,12.8,16.8,10,10.9"/>
	<path display="inline" fill="#FFFFFF" d="M10,35.7c8.9,4.5,20.3-0.2,21.2-11.8C14.8,22.6,12.8,29.7,10,35.7"/>
	<path display="inline" fill="#FFFFFF" d="M28.1,14.5C24,9.2,16.3,7.6,10,10.9c2.5,5.3,4.3,11.6,16.5,11.9c1.1-2,1.8-4.2,1.8-6.6
		C28.2,15.6,28.2,15.1,28.1,14.5 M13,29.8c0.4,0,0.7,0,1.1,0c4.9,0,9.3-2.4,11.8-6.1C18.6,24.1,15.1,26.7,13,29.8"/>
</g>
<g>
	<path fill="#FFFFFF" d="M28.2,31.1c-0.1,0.2-0.2,0.2-0.3,0.3c-1.4,1.4-2.9,2.9-4.3,4.3c-0.8,0.8-1.6,0.8-2.5,0
		c-3.2-3.2-6.4-6.4-9.6-9.5c-0.4-0.4-0.7-0.9-0.5-1.5c0.1-0.3,0.2-0.5,0.4-0.8c0.8-0.8,1.7-1.6,2.5-2.5c0.1-0.1,0.3-0.2,0.5-0.2
		c1.1,0,2.1,0,3.2,0c0.7,0,1.3-0.1,1.9-0.4c0.7-0.3,1.1-0.8,1.4-1.5c0.1-0.3,0.1-0.4-0.2-0.4c-1.3,0-2.5,0-3.8,0c-0.1,0-0.2,0-0.4,0
		c0-0.2,0.1-0.2,0.2-0.3c1.5-1.5,2.9-2.9,4.4-4.4c0.8-0.8,1.6-0.8,2.3,0c1.5,1.5,3.1,3.1,4.6,4.6c-0.1,0.1-0.2,0.1-0.3,0.1
		c-1.1,0-2.1,0-3.2,0.1c-0.5,0-1.1,0.1-1.6,0.3c-1.2,0.4-1.8,1.4-1.9,2.6c-0.1,0.4-0.1,0.8-0.1,1.3c0,1.6-0.1,3.3,0.1,4.9
		c0.2,1.8,1.1,2.7,2.9,3c0.7,0.1,1.5,0.1,2.2,0.1C26.8,31.1,27.5,31.1,28.2,31.1z"/>
	<path fill="#FFFFFF" d="M27.8,21.2c0.8,0,1.7,0,2.5,0c0.2,0,0.3,0.1,0.5,0.2c0.8,0.8,1.6,1.6,2.5,2.5c0.7,0.7,0.7,1.5,0,2.2
		c-0.8,0.8-1.7,1.7-2.5,2.5c-0.1,0.1-0.3,0.2-0.5,0.2c-1.5,0-3.1,0-4.6,0c-0.2,0-0.5,0-0.7-0.1c-0.7-0.1-1-0.5-1.1-1.2
		c-0.1-0.9-0.1-1.9-0.1-2.8c0-0.7-0.1-1.4,0-2.1c0.1-0.9,0.5-1.3,1.4-1.3C26.1,21.2,26.9,21.3,27.8,21.2
		C27.8,21.3,27.8,21.3,27.8,21.2z"/>
	<path fill="#FFFFFF" d="M71.2,26.1c-1.3,0-2.5,0-3.8,0c-0.3,0-0.4-0.1-0.3-0.4c0-0.4,0-0.8,0-1.1c0-0.3,0.1-0.4,0.4-0.4
		c2.3,0,4.6,0,6.9,0c0.2,0,0.3,0,0.5,0c0.4-0.1,0.6-0.2,0.7-0.7c0.2-1.2-0.1-1.5-1.3-1.5c-1.7,0-3.4,0.1-5,0c-1.4-0.1-2-0.7-2.1-2.1
		c0-0.8-0.1-1.5,0.2-2.2c0.2-0.6,0.7-1,1.4-1.1c0.4-0.1,0.8-0.1,1.2-0.1c2.3,0,4.6,0,6.8,0c0.3,0,0.4,0,0.4,0.4c0,0.4,0,0.8,0,1.1
		c0,0.3-0.1,0.4-0.3,0.4c-2.2,0-4.3,0-6.5,0c-0.1,0-0.3,0-0.4,0c-0.5,0-0.7,0.3-0.7,0.7c-0.1,1.1,0.1,1.3,1.2,1.3c1.6,0,3.2,0,4.9,0
		c0.2,0,0.4,0,0.7,0.1c0.9,0.2,1.5,0.7,1.6,1.7c0.1,0.7,0.1,1.4,0,2.1c-0.2,1.1-0.8,1.6-1.9,1.8c-0.4,0-0.8,0.1-1.2,0.1
		C73.3,26.1,72.3,26.1,71.2,26.1z"/>
	<path fill="#FFFFFF" d="M93.8,23.4c0.1-0.2,0.1-0.3,0.1-0.4c0-2,0-4.1,0-6.1c0-0.3,0.1-0.4,0.3-0.4c0.5,0,0.9,0,1.4,0
		c0.2,0,0.3,0,0.3,0.2c0,2.9,0,5.8,0,8.7c0,0.4-0.2,0.7-0.7,0.8c-0.7,0.2-1.2,0-1.7-0.5c-0.9-0.8-1.7-1.6-2.6-2.5
		c-1.3-1.3-2.7-2.5-4-3.8c-0.1-0.1-0.1-0.1-0.2-0.2c-0.1,0.1-0.1,0.3-0.1,0.4c0,2,0,4,0,6.1c0,0.3-0.1,0.4-0.4,0.4
		c-0.5,0-0.9,0-1.4,0c-0.2,0-0.2-0.1-0.2-0.2c0-2.9,0-5.8,0-8.6c0-0.6,0.2-0.8,0.8-0.9c0.6-0.1,1.1,0,1.5,0.4
		c2.2,2.1,4.4,4.2,6.6,6.3C93.6,23.2,93.7,23.2,93.8,23.4z"/>
	<path fill="#FFFFFF" d="M46.3,26.1c-1.1,0-2.4,0.1-3.7-0.1c-1.8-0.2-2.5-0.9-2.6-2.7c-0.1-1.5-0.1-3,0-4.4c0.1-1.5,0.9-2.3,2.5-2.4
		c0.6-0.1,1.1-0.1,1.7-0.1c1.9,0,3.9,0,5.8,0c0.3,0,0.4,0.1,0.3,0.3c0,0.4,0,0.8,0,1.2c0,0.3-0.1,0.3-0.3,0.3c-2,0-4,0-6,0
		c-0.3,0-0.7,0-1,0.1c-0.5,0.1-0.8,0.4-0.9,0.9c-0.1,1.2-0.1,2.5,0,3.7c0,0.9,0.4,1.2,1.3,1.2c1.1,0,2.2,0,3.3,0c1.1,0,2.2,0,3.3,0
		c0.2,0,0.3,0.1,0.3,0.3c0,0.4,0,0.9,0,1.3c0,0.2-0.1,0.3-0.3,0.3C48.9,26.1,47.8,26.1,46.3,26.1z"/>
	<path fill="#FFFFFF" d="M82,21.3c0,1.5,0,3,0,4.5c0,0.3-0.1,0.4-0.4,0.3c-0.5,0-1,0-1.5,0c-0.2,0-0.3,0-0.3-0.3c0-3,0-6.1,0-9.1
		c0-0.2,0.1-0.3,0.3-0.3c0.5,0,1.1,0,1.6,0c0.2,0,0.3,0.1,0.3,0.3C82,18.3,82,19.8,82,21.3z"/>
	<path fill="#FFFFFF" d="M99.6,30.4c-0.4,0-0.8,0-1.1,0c-0.2,0-0.3,0-0.3,0.2c0,0.4,0,0.8,0,1.2c0,0.2,0.1,0.2,0.3,0.2
		c0.5,0,0.9,0,1.4,0c0.2,0,0.2-0.1,0.2-0.3c0-0.2,0-0.3-0.2-0.3c-0.3,0-0.5-0.1-0.7-0.3c-0.1-0.1-0.1-0.1-0.1-0.2
		c0-0.1,0.1-0.1,0.2-0.1c0.5,0,1,0,1.5,0c0.2,0,0.3,0.1,0.2,0.2c0,0.3,0,0.5,0,0.8c0,0.4-0.2,0.6-0.5,0.6c-0.9,0.1-1.8,0.1-2.6,0
		c-0.4,0-0.6-0.3-0.6-0.7c0-0.4,0-0.8,0-1.2c0-0.5,0.2-0.7,0.6-0.8c0.9-0.1,1.7-0.1,2.6,0c0.1,0,0.2,0.1,0.3,0.1
		c0.1,0.1,0.2,0.2,0.2,0.3c0,0.2-0.2,0.1-0.3,0.1C100.3,30.4,100,30.4,99.6,30.4z"/>
	<path fill="#FFFFFF" d="M70.5,31c0,0.5,0,0.9,0,1.3c0,0.2,0,0.3-0.3,0.3c-0.7,0-0.7,0-0.7-0.7c0-0.6,0-1.3,0-1.9
		c0-0.2,0-0.2,0.2-0.2c0.4,0,0.7,0.1,1,0.4c0.4,0.4,0.8,0.7,1.3,1.2c0-0.4,0-0.7,0-1c0-0.4,0.4-0.7,0.8-0.6c0.1,0,0.1,0.1,0.1,0.2
		c0,0.8,0,1.6,0,2.4c0,0.1-0.1,0.2-0.2,0.2c-0.4,0-0.7-0.1-1-0.4C71.4,31.8,71,31.4,70.5,31z"/>
	<path fill="#FFFFFF" d="M49.7,32.6c-0.3,0-0.8,0-1.2,0c-0.5-0.1-0.7-0.3-0.7-0.8c0-0.4,0-0.9,0-1.3c0-0.4,0.2-0.6,0.5-0.7
		c0.2-0.1,0.4-0.1,0.6-0.1c0.6,0,1.2,0,1.8,0c0.2,0,0.4,0,0.6,0.2c0.1,0.1,0.2,0.2,0.2,0.3c0,0.2-0.2,0.1-0.3,0.1
		c-0.7,0-1.5,0-2.2,0c-0.2,0-0.3,0-0.3,0.3c0,0.2,0.1,0.3,0.3,0.3c0.4,0,0.8,0,1.2,0c0.2,0,0.3,0.1,0.3,0.3c0,0.2,0,0.3-0.3,0.3
		c-0.4,0-0.9,0-1.3,0c-0.2,0-0.2,0.1-0.2,0.2c0,0.2,0,0.3,0.2,0.3c0.8,0,1.5,0,2.3,0c0.1,0,0.3-0.1,0.3,0.1c0,0.1-0.1,0.2-0.2,0.3
		c-0.2,0.2-0.5,0.2-0.7,0.2C50.5,32.6,50.1,32.6,49.7,32.6z"/>
	<path fill="#FFFFFF" d="M56.9,32.6c-0.3,0-0.7,0-1.1,0c-0.5-0.1-0.6-0.3-0.6-0.7c0-0.4,0-0.9,0-1.3c0-0.4,0.1-0.7,0.6-0.7
		c0.9-0.1,1.8-0.1,2.7,0c0.4,0,0.6,0.3,0.5,0.6c-0.1,0.2-0.6,0.5-0.8,0.5c-0.2,0-0.1-0.2-0.1-0.2c0-0.3-0.1-0.3-0.3-0.3
		c-0.4,0-0.9,0-1.3,0c-0.2,0-0.3,0-0.3,0.3c0,0.4,0,0.7,0,1.1c0,0.2,0,0.3,0.3,0.3c0.4,0,0.9,0,1.3,0c0.2,0,0.3-0.1,0.3-0.3
		c0-0.3,0.1-0.3,0.3-0.3c0,0,0,0,0,0c0.2,0.1,0.5-0.2,0.6,0.2c0.1,0.6-0.1,0.8-0.6,0.9c-0.1,0-0.2,0-0.2,0
		C57.7,32.6,57.4,32.6,56.9,32.6z"/>
	<path fill="#FFFFFF" d="M106,31.5c-0.3,0-0.7,0-1,0c-0.4,0-0.5-0.1-0.5-0.5c0-0.3,0-0.7,0-1c0-0.2,0.1-0.2,0.2-0.2
		c0.5,0,0.8,0.2,0.7,0.7c0,0.3,0.1,0.4,0.4,0.4c0.4,0,0.8,0,1.3,0c0.2,0,0.3-0.1,0.3-0.3c0-0.1,0-0.1,0-0.2c0-0.7,0.1-0.8,0.8-0.6
		c0.2,0,0.2,0.1,0.2,0.2c0,0.7,0,1.3,0,2c0,0.3-0.2,0.5-0.5,0.6c-0.7,0.1-1.5,0-2.2,0.1c-0.2,0-0.2-0.1-0.1-0.2
		c0.1-0.2,0.3-0.3,0.5-0.3c0.4-0.1,0.8,0,1.2,0c0.2,0,0.3-0.1,0.3-0.3c0-0.2-0.1-0.3-0.3-0.2C106.7,31.5,106.4,31.5,106,31.5
		C106,31.5,106,31.5,106,31.5z"/>
	<path fill="#FFFFFF" d="M66.2,31.2c0,0.4,0,0.8,0,1.1c0,0.2,0,0.3-0.3,0.3c-0.7,0-0.7,0-0.7-0.7c0-0.4-0.1-0.5-0.5-0.4
		c-0.4,0-0.8,0-1.1,0c-0.2,0-0.4,0-0.3,0.3c0,0.1,0,0.2,0,0.3c0,0.6,0.1,0.5-0.5,0.5c-0.4,0-0.4,0-0.4-0.5c0-0.5,0-1.1,0-1.6
		c0-0.4,0.4-0.7,0.8-0.7c0.1,0,0.1,0,0.1,0.1c0,0.1,0,0.1,0,0.2c0,0.8,0,0.8,0.8,0.8c0.3,0,0.6,0,0.9,0c0.2,0,0.3-0.1,0.2-0.2
		c0-0.1,0-0.1,0-0.2c0-0.7,0-0.7,0.7-0.7c0.2,0,0.2,0.1,0.2,0.3c0,0,0,0,0,0C66.2,30.4,66.2,30.8,66.2,31.2z"/>
	<path fill="#FFFFFF" d="M42.7,29.8c0.5,0,1,0,1.4,0c0.1,0,0.2-0.1,0.3,0.1c0,0.1,0,0.3-0.1,0.3c-0.2,0.1-0.4,0.1-0.6,0.1
		c-0.7,0-0.7,0-0.7,0.7c0,0.3,0,0.7,0,1c0,0.4-0.5,0.7-0.8,0.5c-0.2-0.1-0.1-0.2-0.1-0.3c0-0.6,0-1.1,0-1.7c0-0.2-0.1-0.3-0.3-0.3
		c-0.3,0-0.6,0-0.9,0c-0.1,0-0.2,0.1-0.3-0.1c0-0.1,0-0.2,0.1-0.3c0.1-0.1,0.3-0.2,0.5-0.2C41.7,29.8,42.2,29.8,42.7,29.8
		C42.7,29.8,42.7,29.8,42.7,29.8z"/>
	<path fill="#FFFFFF" d="M83.7,31c0-0.3,0-0.7,0-1c0-0.2,0.1-0.2,0.2-0.2c0.5,0,0.7,0.3,0.7,0.7c0,0.4,0,0.8,0,1.2
		c0,0.2,0.1,0.2,0.2,0.2c0.5,0,1,0,1.5,0c0.1,0,0.2,0,0.2,0.1c0,0.1,0,0.2-0.1,0.2c-0.1,0.1-0.3,0.2-0.5,0.2c-0.6,0.1-1.1,0.1-1.7,0
		c-0.5-0.1-0.6-0.2-0.6-0.7C83.7,31.6,83.7,31.3,83.7,31z"/>
	<path fill="#FFFFFF" d="M109,19.3c0-0.4-0.1-0.7-0.2-1c-0.3-1-1.1-1.6-2.4-1.7c-2-0.1-4-0.1-6,0c-1.4,0.1-2.2,0.8-2.4,2.1
		c-0.2,1.7-0.2,3.5,0,5.2c0.2,1.3,0.8,1.8,2,2.1c1.1,0.2,2.2,0.1,3.4,0.1c1,0,2,0,3-0.1c1.6-0.2,2.3-0.9,2.5-2.5
		C109,22.1,109,20.7,109,19.3z M106.8,23.2c0,0.6-0.3,0.9-0.9,1c-0.8,0.1-1.6,0-2.4,0.1c-0.8,0-1.6,0.1-2.4-0.1
		c-0.6-0.1-0.8-0.3-0.9-0.9c-0.1-1.3-0.1-2.6,0-4c0-0.6,0.3-0.9,0.9-1c1.5-0.1,3.1-0.1,4.6,0c0.1,0,0.1,0,0.2,0c0.6,0.1,0.9,0.4,1,1
		C106.9,20.7,106.9,21.9,106.8,23.2z"/>
	<path fill="#FFFFFF" d="M65.7,25.8c-0.9-1.4-1.8-2.9-2.7-4.3c-0.9-1.5-1.8-2.9-2.8-4.4c-0.2-0.4-0.6-0.6-1-0.7
		c-0.9-0.2-1.6,0.1-2.1,1c-1.8,2.9-3.6,5.8-5.4,8.7c0,0-0.1,0.1,0,0.2c0.7,0,1.5,0,2.2,0c0.2,0,0.2-0.1,0.3-0.2
		c0.4-0.6,0.7-1.1,1.1-1.7c0.1-0.2,0.2-0.3,0.5-0.3c2,0,4,0,6.1,0c0.2,0,0.3,0.1,0.5,0.2c0.4,0.6,0.7,1.2,1.1,1.8
		c0.1,0.1,0.1,0.2,0.3,0.2c0.8,0,1.5,0,2.3,0C65.9,25.9,65.8,25.9,65.7,25.8z M56.4,22.2c0.8-1.3,1.5-2.5,2.3-3.8
		c0.8,1.3,1.5,2.5,2.3,3.8C59.5,22.2,58,22.2,56.4,22.2z"/>
	<path fill="#FFFFFF" d="M93.8,30.6c0-0.5-0.2-0.7-0.7-0.8c-0.4,0-0.8,0-1.1,0c0,0,0,0,0,0c-0.4,0-0.8,0-1.2,0
		c-0.5,0-0.7,0.3-0.7,0.8c0,0.4,0,0.8,0,1.2c0,0.4,0.2,0.7,0.6,0.7c0.9,0.1,1.8,0.1,2.7,0c0.4,0,0.5-0.3,0.5-0.6
		C93.8,31.5,93.8,31,93.8,30.6z M92.6,32c-0.2,0-0.4,0-0.7,0c-0.2,0-0.6,0.1-0.8-0.1c-0.2-0.2-0.1-0.6-0.1-0.9c0-0.7,0-0.7,0.7-0.7
		c0.3,0,0.6,0,1,0c0.2,0,0.2,0.1,0.2,0.2c0,0.4,0,0.8,0,1.2C92.9,32,92.8,32,92.6,32z"/>
	<path fill="#FFFFFF" d="M80.2,30.6c0-0.5-0.2-0.7-0.7-0.8c-0.4,0-0.8,0-1.2,0c0,0,0,0,0,0c-0.4,0-0.7,0-1.1,0c0,0-0.1,0-0.1,0
		c-0.5,0.1-0.7,0.3-0.7,0.8c0,0.4,0,0.9,0,1.3c0,0.4,0.2,0.6,0.5,0.7c0.9,0.1,1.8,0.1,2.7,0c0.4,0,0.5-0.2,0.5-0.6
		C80.2,31.5,80.2,31,80.2,30.6z M78.5,32c-0.4,0-0.8,0.2-1.1-0.1c-0.2-0.2-0.1-0.7-0.1-1c0-0.5,0-0.5,0.6-0.5c0.1,0,0.3,0,0.4,0
		c0.2,0,0.6-0.1,0.8,0.1c0.2,0.2,0.1,0.6,0.1,0.9C79.3,32,79.3,32,78.5,32z"/>
	<g>
		<path fill="#FFFFFF" d="M29.9,33c-0.2,0-0.4,0.1-0.5,0.2c-0.3,0.3-0.6,0.6-0.9,0.9c-0.3,0.3-0.3,0.6,0,1c0.3,0.4,0.6,0.7,1,1
			c0.4,0.3,0.7,0.3,1,0c0.3-0.3,0.6-0.6,0.9-0.9c0.1-0.1,0.2-0.3,0.2-0.5C31.6,34.2,30.4,33,29.9,33z M31.1,35.1
			c-0.2,0.2-0.5,0.5-0.7,0.7c-0.3,0.3-0.5,0.3-0.9,0c-0.1-0.1-0.2-0.2-0.3-0.4c0,0-0.1-0.1-0.1-0.1c-0.7-0.7-0.7-0.8,0.1-1.5
			c0.7-0.8,0.8-0.8,1.5-0.1c0.1,0.2,0.3,0.3,0.4,0.5C31.4,34.6,31.3,34.8,31.1,35.1z"/>
	</g>
	<path fill="#FFFFFF" d="M30.7,34.6c0.1-0.2,0-0.5-0.2-0.6c-0.4,0-0.7,0-1.1,0c-0.2,0-0.3,0.1-0.2,0.2c0,0.3,0,0.5,0,0.8
		c0,0.1-0.1,0.3,0.1,0.3c0.2,0,0.1-0.2,0.1-0.3c0-0.1,0-0.2,0.1-0.1c0.3,0.1,0.6,0.5,1.1,0.3c-0.2-0.1-0.4-0.2-0.6-0.4
		C30.3,34.8,30.6,34.9,30.7,34.6z M30.3,34.7c-0.1,0-0.3,0-0.4,0c-0.1-0.1-0.5,0.2-0.4-0.2c0-0.1,0-0.2,0.1-0.2c0.3,0,0.5,0,0.8,0
		c0.1,0,0.1,0.1,0.1,0.2C30.4,34.6,30.4,34.6,30.3,34.7z"/>
</g>
</svg>
