<svg width="17" height="16" viewBox="0 0 17 16" fill="none" xmlns="http://www.w3.org/2000/svg">
<path d="M3.66016 15.5293C3.36393 15.5293 3.13151 15.4518 2.96289 15.2969C2.79427 15.1465 2.70085 14.9574 2.68262 14.7295C2.66895 14.5062 2.73958 14.2874 2.89453 14.0732C2.99479 13.9456 3.10872 13.7861 3.23633 13.5947C3.36849 13.4033 3.49837 13.2051 3.62598 13C3.75358 12.7904 3.86523 12.599 3.96094 12.4258C3.25 12.0658 2.63249 11.6123 2.1084 11.0654C1.58431 10.5186 1.17871 9.90788 0.891602 9.2334C0.604492 8.55436 0.460938 7.84115 0.460938 7.09375C0.460938 6.19141 0.668294 5.34831 1.08301 4.56445C1.49772 3.7806 2.07194 3.09245 2.80566 2.5C3.53939 1.90755 4.3916 1.44499 5.3623 1.1123C6.33757 0.775065 7.38346 0.606445 8.5 0.606445C9.61198 0.606445 10.6533 0.775065 11.624 1.1123C12.5993 1.44499 13.4538 1.90755 14.1875 2.5C14.9258 3.09245 15.5 3.7806 15.9102 4.56445C16.3249 5.34831 16.5322 6.19141 16.5322 7.09375C16.5322 7.83203 16.3955 8.5293 16.1221 9.18555C15.8486 9.8418 15.459 10.4388 14.9531 10.9766C14.4473 11.5143 13.8411 11.9792 13.1348 12.3711C12.4329 12.7585 11.6536 13.0547 10.7969 13.2598C9.9401 13.4694 9.02409 13.5674 8.04883 13.5537C7.55664 13.9092 7.03255 14.235 6.47656 14.5312C5.92057 14.832 5.39193 15.0736 4.89062 15.2559C4.38932 15.4382 3.97917 15.5293 3.66016 15.5293ZM4.54883 13.957C4.74935 13.875 5.00456 13.7428 5.31445 13.5605C5.62891 13.3783 5.95247 13.1755 6.28516 12.9521C6.6224 12.7288 6.92546 12.5169 7.19434 12.3164C7.33105 12.207 7.46094 12.1296 7.58398 12.084C7.70703 12.0339 7.84147 12.0088 7.9873 12.0088C8.09668 12.0133 8.19466 12.0156 8.28125 12.0156C8.36784 12.0156 8.44076 12.0156 8.5 12.0156C9.39779 12.0156 10.2386 11.888 11.0225 11.6328C11.8109 11.3776 12.5013 11.0244 13.0938 10.5732C13.6862 10.1221 14.1488 9.59798 14.4814 9.00098C14.8187 8.40397 14.9873 7.76823 14.9873 7.09375C14.9873 6.41016 14.8187 5.77214 14.4814 5.17969C14.1488 4.58268 13.6862 4.05859 13.0938 3.60742C12.5013 3.15625 11.8109 2.80306 11.0225 2.54785C10.2386 2.28809 9.39779 2.1582 8.5 2.1582C7.59766 2.1582 6.75456 2.28809 5.9707 2.54785C5.18685 2.80306 4.4987 3.15625 3.90625 3.60742C3.3138 4.05859 2.84896 4.58268 2.51172 5.17969C2.17904 5.77214 2.0127 6.41016 2.0127 7.09375C2.0127 7.67708 2.1403 8.23307 2.39551 8.76172C2.65527 9.29036 3.02669 9.77344 3.50977 10.2109C3.99284 10.6484 4.57389 11.029 5.25293 11.3525C5.47624 11.4574 5.61068 11.5918 5.65625 11.7559C5.70638 11.9199 5.67904 12.1022 5.57422 12.3027C5.4375 12.5443 5.25977 12.8109 5.04102 13.1025C4.82682 13.3988 4.6377 13.6471 4.47363 13.8477C4.44173 13.8932 4.43262 13.9274 4.44629 13.9502C4.46452 13.973 4.4987 13.9753 4.54883 13.957Z" fill="white"/>
</svg>
