<svg width="32" height="32" viewBox="0 0 32 32" fill="none" xmlns="http://www.w3.org/2000/svg">
<rect width="32" height="32" rx="10" fill="url(#paint0_linear_12779_23004)"/>
<path d="M17.6377 20.4201C15.0385 21.2863 12.5295 21.71 10.4375 21.716C11.4641 22.7397 12.7548 23.458 14.1659 23.7909C15.5769 24.1238 17.0526 24.0582 18.4285 23.6013C21.2658 22.6559 23.2318 20.2326 23.7807 17.4326C22.1378 18.5724 20.0255 19.6244 17.6377 20.4201Z" fill="white"/>
<path d="M17.7272 17.618L17.5151 18.1319H17.9393L17.7272 17.618Z" fill="white"/>
<path d="M11.9777 17.5648H11.6949V18.3971H11.9777C12.0352 18.4018 12.093 18.3945 12.1475 18.3757C12.202 18.3569 12.252 18.327 12.2944 18.2879C12.3368 18.2488 12.3707 18.2013 12.3938 18.1485C12.4169 18.0957 12.4289 18.0386 12.4289 17.981C12.4289 17.9233 12.4169 17.8662 12.3938 17.8134C12.3707 17.7606 12.3368 17.7131 12.2944 17.674C12.252 17.6349 12.202 17.6051 12.1475 17.5862C12.093 17.5674 12.0352 17.5601 11.9777 17.5648Z" fill="white"/>
<path d="M14.7958 11.4509C17.2448 10.6552 19.6157 10.2331 21.6486 10.1648C20.5707 9.17089 19.2453 8.48517 17.8112 8.17954C16.3772 7.87392 14.8874 7.95965 13.4978 8.42774C12.1083 8.89584 10.8703 9.72906 9.91349 10.8401C8.95669 11.9511 8.31635 13.2991 8.05957 14.7427C9.79949 13.4874 12.1302 12.3174 14.7958 11.4509Z" fill="white"/>
<path d="M19.0763 19.3468C20.7609 18.7996 22.3715 18.0464 23.8714 17.1043C24.0281 15.8967 23.9174 14.6695 23.5471 13.5095C23.1799 12.3456 22.5567 11.2786 21.7233 10.3869C19.9667 10.5274 18.2342 10.8851 16.5655 11.4517C15.0639 11.9426 13.6194 12.5936 12.2569 13.3933H13.8584V14.0104H12.1474V14.7323H13.6581V15.3307H12.1474V16.1001H13.9184V16.7172H11.3991V13.9393C9.15274 15.4728 7.9101 17.1999 8.33814 18.5467C9.03191 20.7277 13.8393 21.0856 19.0763 19.3468ZM15.5834 18.7308H15.2808V17.3883H15.5838L15.5834 18.7308ZM16.9805 17.6414H16.5616V18.7308H16.2585V17.642H15.8396V17.3889H16.9805V17.6414ZM19.6568 18.7308H18.6974V17.3883H19.0004V18.4776H19.6568V18.7308ZM17.6468 13.3933H20.4821V14.0201H19.4402V16.715H18.6873V14.0201H17.6461L17.6468 13.3933ZM17.8821 17.3883L18.4674 18.7308H18.1494L18.0331 18.4431H17.4254L17.3095 18.7308H16.9991L17.5826 17.3883H17.8821ZM14.4108 14.1697C14.5626 13.91 14.784 13.6979 15.0499 13.5572C15.3332 13.4073 15.6497 13.3314 15.9702 13.3364C16.2362 13.3328 16.5002 13.3828 16.7463 13.4836C16.9728 13.5774 17.1736 13.724 17.332 13.911L16.8486 14.367C16.7435 14.2477 16.614 14.1524 16.4688 14.0877C16.3236 14.023 16.1662 13.9902 16.0073 13.9917C15.8144 13.988 15.6238 14.0337 15.4536 14.1244C15.2947 14.2108 15.164 14.3411 15.0771 14.4996C14.9886 14.6706 14.9424 14.8604 14.9424 15.0529C14.9424 15.2454 14.9886 15.4352 15.0771 15.6061C15.1639 15.7646 15.2936 15.8954 15.4512 15.9837C15.6183 16.076 15.8066 16.1228 15.9974 16.1195C16.2015 16.1226 16.4031 16.0736 16.583 15.977V15.0032H17.271V16.352C17.0867 16.492 16.8789 16.5982 16.6575 16.6654C16.4304 16.7373 16.1937 16.7742 15.9555 16.7746C15.638 16.7796 15.3244 16.7036 15.0444 16.5538C14.7805 16.412 14.5609 16.2 14.41 15.9412C14.2591 15.6704 14.1799 15.3655 14.1799 15.0555C14.1799 14.7455 14.2591 14.4406 14.41 14.1697H14.4108ZM13.7555 17.702C13.8166 17.5974 13.9056 17.5119 14.0126 17.4552C14.1265 17.3947 14.2539 17.3641 14.3829 17.3661C14.4899 17.3646 14.5962 17.3848 14.6952 17.4255C14.7864 17.4635 14.8672 17.5228 14.9309 17.5983L14.7364 17.7825C14.6941 17.7344 14.642 17.696 14.5836 17.6698C14.5252 17.6437 14.4618 17.6305 14.3978 17.631C14.3204 17.6296 14.2439 17.6481 14.1756 17.6847C14.1116 17.7196 14.059 17.7722 14.0241 17.8362C13.9885 17.9053 13.9699 17.9819 13.9699 18.0596C13.9699 18.1373 13.9885 18.2139 14.0241 18.283C14.059 18.3469 14.1112 18.3997 14.1746 18.4354C14.2418 18.4726 14.3176 18.4915 14.3943 18.4901C14.4765 18.4913 14.5576 18.4715 14.63 18.4326V18.0393H14.9068V18.584C14.8327 18.6406 14.7491 18.6835 14.66 18.7106C14.5686 18.7397 14.4734 18.7546 14.3776 18.7547C14.2498 18.7567 14.1236 18.7261 14.011 18.6656C13.9047 18.6084 13.8163 18.523 13.7556 18.4187C13.6948 18.3092 13.6629 18.1861 13.6629 18.0608C13.6629 17.9356 13.6948 17.8124 13.7556 17.7029L13.7555 17.702ZM13.0383 17.3884H13.3413V18.7309H13.0383V17.3884ZM12.6259 18.4128C12.5653 18.5137 12.477 18.5951 12.3715 18.6473C12.2544 18.7048 12.1252 18.7334 11.9947 18.7308H11.3991V17.3883H11.9939C12.1243 17.3856 12.2535 17.4142 12.3707 17.4717C12.4762 17.5239 12.5644 17.6053 12.625 17.7062C12.6846 17.8143 12.7158 17.9357 12.7158 18.0591C12.7158 18.1825 12.6846 18.3039 12.625 18.412L12.6259 18.4128Z" fill="white"/>
<defs>
<linearGradient id="paint0_linear_12779_23004" x1="0" y1="32" x2="32" y2="0" gradientUnits="userSpaceOnUse">
<stop stop-color="#6E0000"/>
<stop offset="1" stop-color="#DB0010"/>
</linearGradient>
</defs>
</svg>
