<?xml version="1.0" encoding="utf-8"?>
<!-- Generator: Adobe Illustrator 26.5.0, SVG Export Plug-In . SVG Version: 6.00 Build 0)  -->
<svg version="1.1" id="Layer_1" xmlns="http://www.w3.org/2000/svg" xmlns:xlink="http://www.w3.org/1999/xlink" x="0px" y="0px"
	 viewBox="0 0 120 50" style="enable-background:new 0 0 120 50;" xml:space="preserve">
<style type="text/css">
	.st0{fill-rule:evenodd;clip-rule:evenodd;}
	.st1{display:none;}
	.st2{display:inline;fill-rule:evenodd;clip-rule:evenodd;fill:#FFFFFF;}
	.st3{display:inline;fill-rule:evenodd;clip-rule:evenodd;fill:#4A5863;}
	.st4{display:inline;}
	.st5{fill:#FFFFFF;}
	.st6{display:inline;fill:#9FCD67;}
</style>
<path class="st0" d="M115,50H5c-2.8,0-5-2.2-5-5V5c0-2.8,2.2-5,5-5h110c2.8,0,5,2.2,5,5v40C120,47.8,117.8,50,115,50z"/>
<g class="st1">
	<path class="st2" d="M110,10.3h-4.2V29h-2.2V10.3h-4.2V8.4H110V10.3z M97,10.3h-7.2v7h5.3v1.9h-5.3v7.9h7.6V29h-9.8V8.4H97V10.3z
		 M80.6,11c-0.6-0.5-1.5-0.7-2.8-0.7h-2.2v7h1.3c1.6,0,2.8-0.3,3.5-0.9c0.8-0.6,1.1-1.5,1.1-2.9C81.4,12.3,81.1,11.5,80.6,11z
		 M78.8,8.4c1.5,0,2.7,0.5,3.6,1.4c0.8,0.9,1.3,2.2,1.3,3.7c0,1.1-0.2,2-0.7,2.8c-0.5,0.8-1.3,1.4-2.4,1.8v0.1
		c1.2,0.3,2.2,1,2.7,1.9c0.6,0.9,0.9,2,0.9,3.3c0,1.9-0.5,3.4-1.6,4.3c-1.1,1-2.8,1.4-5,1.4h-4.2V8.4H78.8z M77.8,19.2h-2.2v8h2.2
		c1.3,0,2.4-0.3,3.1-0.9s1-1.6,1-2.9c0-1.4-0.3-2.4-1-3.1C80.2,19.5,79.2,19.2,77.8,19.2z M12.3,10.3c-0.4,0.3-0.5,0.8-0.5,1.3
		c0,0.6,0.2,1,0.5,1.3c0.4,0.3,0.8,0.5,1.3,0.5s0.9-0.2,1.3-0.5c0.4-0.3,0.5-0.8,0.5-1.3c0-0.6-0.2-1-0.5-1.3
		C14.4,10,14,9.9,13.5,9.9S12.6,10,12.3,10.3z M13.5,8.1c0.9,0,1.7,0.3,2.4,0.9c0.3,0.2,0.5,0.5,0.7,1c0.2,0.4,0.3,1,0.4,1.6
		c0,0.7-0.1,1.2-0.4,1.6s-0.5,0.7-0.8,1c-0.7,0.6-1.5,0.9-2.4,0.9c-0.9,0-1.7-0.3-2.4-0.9c-0.3-0.2-0.5-0.5-0.7-1
		c-0.2-0.4-0.4-1-0.4-1.6c0-0.7,0.1-1.2,0.4-1.6c0.2-0.4,0.5-0.7,0.8-1C11.8,8.4,12.6,8.1,13.5,8.1z M14.6,16.8v12.3h-2.2V16.8l0,0
		c0.3,0.1,0.7,0.2,1.1,0.2C13.9,16.9,14.2,16.9,14.6,16.8z"/>
	<path class="st3" d="M70.9,10.3h-4.2V29h-2.2V10.3h-4.2V8.4H71v1.9H70.9z M57.5,10.3h-6.6v7h5v1.9h-5V29h-2.2V8.4h8.9L57.5,10.3
		L57.5,10.3z M63,36.2C63,36.2,63.1,36.2,63,36.2c0.1,0.1,0.1,0.2,0.2,0.2c0,0,0,0,0,0.1l-2,3.1v2.1c0,0.2-0.1,0.3-0.3,0.3h-0.1
		c-0.2,0-0.2-0.1-0.2-0.3v-2.1l-2-3.1c0,0,0,0,0-0.1c0,0,0-0.1,0.1-0.1l0.1-0.1c0,0,0.1,0,0.2,0c0.1,0,0.2,0.1,0.3,0.2l1.6,2.6
		l1.6-2.6c0.1-0.1,0.2-0.2,0.3-0.2C62.9,36.2,62.9,36.2,63,36.2z M71.1,37.9c0,0.6-0.2,1-0.5,1.3c-0.4,0.3-0.9,0.4-1.6,0.4h-1.1v1.9
		c0,0.1,0,0.1-0.1,0.2c0,0-0.1,0.1-0.2,0.1h-0.1c-0.2,0-0.3-0.1-0.3-0.3v-5c0-0.1,0-0.2,0.1-0.2c0.1-0.1,0.1-0.1,0.2-0.1H69
		c0.7,0,1.2,0.1,1.5,0.4C70.9,36.9,71.1,37.3,71.1,37.9z M67.8,36.7v2.4H69c0.5,0,0.9-0.1,1.1-0.3s0.4-0.5,0.4-0.9
		c0-0.8-0.5-1.2-1.5-1.2H67.8z M54,36.2c0.2,0,0.3,0.1,0.3,0.3v4.8H57c0.2,0,0.3,0.1,0.3,0.2v0.1c0,0.2-0.1,0.2-0.3,0.2h-3
		c-0.1,0-0.2,0-0.2-0.1c-0.1-0.1-0.1-0.1-0.1-0.2v-5C53.7,36.2,53.8,36.2,54,36.2L54,36.2z M51.8,37.9c0,0.6-0.2,1-0.5,1.3
		c-0.4,0.3-0.9,0.4-1.6,0.4h-1.1v1.9c0,0.1,0,0.1-0.1,0.2c0,0-0.1,0.1-0.2,0.1h-0.1c-0.2,0-0.3-0.1-0.3-0.3v-5c0-0.1,0-0.2,0.1-0.2
		c0.1-0.1,0.1-0.1,0.2-0.1h1.4c0.7,0,1.2,0.1,1.5,0.4C51.7,36.9,51.8,37.3,51.8,37.9z M51.2,37.9c0-0.8-0.5-1.2-1.5-1.2h-1.2v2.4
		h1.2c0.5,0,0.9-0.1,1.1-0.3C51.1,38.6,51.2,38.3,51.2,37.9z M84.1,36.3L84.1,36.3c0.1-0.1,0.2-0.1,0.3-0.1s0.2,0.1,0.3,0.2l1.6,2.6
		l1.6-2.6c0.1-0.1,0.2-0.2,0.3-0.2c0.1,0,0.1,0,0.2,0c0,0,0.1,0,0.1,0.1c0,0,0,0.1,0.1,0.1c0,0,0,0,0,0.1l-2,3.1v2.1
		c0,0.2-0.1,0.3-0.3,0.3h-0.1C86,42,86,41.9,86,41.7v-2.1l-2-3.1C84,36.4,84,36.4,84.1,36.3C84,36.3,84,36.3,84.1,36.3z M73.2,36.2
		c0.2,0,0.3,0.1,0.3,0.3v4.8h2.7c0.2,0,0.3,0.1,0.3,0.2v0.1c0,0.2-0.1,0.2-0.3,0.2h-3c-0.1,0-0.2,0-0.2-0.1
		c-0.1-0.1-0.1-0.1-0.1-0.2v-5C72.9,36.2,73,36.2,73.2,36.2L73.2,36.2z M80.7,36.4l2,5.3c0,0,0,0.1-0.1,0.1s-0.2,0.1-0.2,0.1
		c-0.1,0-0.1,0-0.2,0s-0.1-0.1-0.2-0.2L81.5,40h-2.4l-0.6,1.6c0,0.1-0.1,0.2-0.2,0.2s-0.1,0-0.2,0s-0.2,0-0.2-0.1
		c-0.1,0-0.1-0.1-0.1-0.1l2-5.3c0-0.1,0.1-0.1,0.1-0.2c0.1,0,0.2-0.1,0.3-0.1c0.1,0,0.2,0,0.3,0.1C80.7,36.2,80.7,36.3,80.7,36.4z
		 M80.3,36.8l-1,2.6h2L80.3,36.8z M41.1,10.7C40.6,10.2,40,10,39.3,10s-1.3,0.2-1.8,0.7s-1,1.4-1.3,2.6c-0.3,1.3-0.5,3.1-0.5,5.4
		s0.2,4.1,0.5,5.4s0.7,2.2,1.3,2.7c0.5,0.5,1.1,0.7,1.8,0.7s1.3-0.2,1.8-0.7s1-1.4,1.3-2.7c0.3-1.3,0.5-3.1,0.5-5.4
		s-0.2-4.1-0.5-5.4C42.1,12.1,41.6,11.2,41.1,10.7z M44.4,12.6c0.5,1.6,0.7,3.6,0.7,6.2c0,2.5-0.3,4.6-0.7,6.2
		c-0.5,1.6-1.2,2.7-2,3.4c-0.9,0.7-1.9,1-3.1,1c-1.2,0-2.2-0.3-3.1-1c-0.9-0.7-1.6-1.9-2-3.4c-0.5-1.6-0.7-3.6-0.7-6.2
		s0.3-4.6,0.7-6.2c0.5-1.6,1.2-2.7,2-3.4c0.9-0.7,1.9-1.1,3.1-1c1.2,0,2.2,0.3,3.1,1C43.2,9.9,43.9,11,44.4,12.6z M30.3,24.1
		c0,1.7-0.5,2.9-1.4,3.9c-0.9,0.9-2.2,1.4-3.9,1.4c-1.1,0-2-0.2-2.8-0.7s-1.4-1.2-1.8-2c-0.4-0.9-0.7-1.9-0.7-3.1h2.1
		c0,1.2,0.3,2.2,0.9,2.9c0.6,0.7,1.4,1,2.5,1.1c0.9,0,1.7-0.3,2.2-0.9s0.8-1.4,0.8-2.5c0-0.9-0.3-1.7-0.9-2.4
		c-0.6-0.7-1.2-1.3-2.1-1.9c-0.8-0.6-1.6-1.1-2.5-1.8c-0.8-0.6-1.5-1.3-2.1-2.1c-0.5-0.8-0.8-1.8-0.9-3c0-1.5,0.5-2.6,1.4-3.5
		s2.1-1.3,3.6-1.3s2.7,0.5,3.6,1.4c0.9,1,1.4,2.4,1.5,4.2H28c-0.1-1.1-0.4-2-0.9-2.7s-1.3-1-2.3-1.1c-0.9,0-1.6,0.3-2.1,0.8
		s-0.8,1.1-0.8,1.9c0,0.9,0.3,1.7,0.9,2.3s1.2,1.2,2.1,1.8c0.8,0.5,1.6,1.1,2.5,1.7c0.8,0.6,1.5,1.4,2.1,2.2
		C30,21.7,30.3,22.8,30.3,24.1z M45.2,36.2L45.2,36.2c0.2,0,0.3,0,0.4,0.1s0.1,0.2,0.1,0.3v5c0,0.2-0.1,0.3-0.2,0.3h-0.1
		c-0.2,0-0.2-0.1-0.2-0.3v-4.7L43.7,40c-0.1,0.1-0.1,0.2-0.2,0.3c-0.1,0.1-0.2,0.1-0.3,0.1s-0.3,0-0.3-0.1c-0.1-0.1-0.1-0.2-0.2-0.3
		l-1.5-3.2v4.7c0,0.2-0.1,0.3-0.2,0.3h-0.1c-0.2,0-0.2-0.1-0.2-0.3v-5c0-0.1,0-0.2,0.1-0.3s0.2-0.1,0.3-0.1h0.1c0.2,0,0.3,0,0.3,0.1
		c0.1,0.1,0.1,0.2,0.2,0.3l1.5,3.3l1.5-3.3c0.1-0.2,0.1-0.3,0.2-0.3S45.1,36.2,45.2,36.2z M34.5,36.2c0.2,0.1,0.4,0.1,0.6,0.2
		c0.2,0.1,0.3,0.2,0.4,0.3c0.1,0.1,0.1,0.2,0.1,0.3s0,0.1-0.1,0.2l-0.1,0.1l-0.1,0.1h-0.1c-0.1-0.2-0.3-0.4-0.6-0.6
		c-0.3-0.2-0.6-0.2-0.9-0.2c-0.4,0-0.7,0.1-1,0.3c-0.2,0.2-0.4,0.4-0.4,0.7c0,0.2,0,0.3,0.1,0.4c0.1,0.1,0.2,0.2,0.3,0.3
		s0.3,0.1,0.5,0.2c0.2,0,0.4,0.1,0.6,0.1c0.2,0,0.5,0.1,0.7,0.2c0.2,0.1,0.4,0.2,0.6,0.3c0.2,0.1,0.3,0.3,0.4,0.5
		c0.1,0.2,0.2,0.4,0.2,0.7c0,0.2,0,0.5-0.1,0.7s-0.2,0.4-0.4,0.5s-0.4,0.2-0.6,0.3c-0.2,0.1-0.5,0.1-0.8,0.1s-0.6,0-0.8-0.1
		c-0.3-0.1-0.5-0.2-0.7-0.3s-0.3-0.2-0.4-0.4c-0.1-0.1-0.2-0.2-0.2-0.3s0-0.1,0.1-0.2l0.1-0.1l0.1-0.1h0.1c0.2,0.2,0.4,0.5,0.7,0.7
		s0.6,0.3,1,0.3s0.8-0.1,1-0.3s0.4-0.4,0.4-0.8c0-0.2,0-0.3-0.1-0.5c-0.1-0.1-0.2-0.2-0.3-0.3s-0.3-0.2-0.5-0.2s-0.4-0.1-0.6-0.1
		c-0.2-0.1-0.4-0.1-0.6-0.2c-0.2-0.1-0.4-0.2-0.5-0.3c-0.2-0.1-0.3-0.3-0.4-0.4c-0.1-0.2-0.2-0.4-0.2-0.7c0-0.2,0-0.4,0.1-0.6
		c0.1-0.2,0.2-0.3,0.4-0.5c0.2-0.1,0.4-0.2,0.6-0.3c0.2-0.1,0.5-0.1,0.7-0.1C34.1,36.1,34.3,36.1,34.5,36.2z M38.3,36.4v5.1
		c0,0.2-0.1,0.3-0.3,0.3l0,0c-0.2,0-0.2-0.1-0.2-0.3v-5.1c0-0.2,0.1-0.3,0.2-0.3h0.1C38.3,36.2,38.3,36.2,38.3,36.4z"/>
</g>
<g class="st1">
	<g class="st4">
		<polygon class="st5" points="61.3,7.3 61.3,42.7 62.3,42.7 62.3,35.9 75.2,35.9 75.2,31.8 65.3,31.8 65.3,27 73.7,27 73.7,22.9 
			65.3,22.9 65.3,18.3 75.2,18.3 75.2,14.1 62.3,14.1 62.3,7.3 		"/>
	</g>
	<g class="st4">
		<polygon class="st5" points="22.3,14.1 22.3,27.5 18.6,21.5 13.9,14.2 13.9,14.1 10,14.1 10,35.9 14.3,35.9 14.3,22.5 17.5,27.7 
			22.7,35.9 26.6,35.9 26.6,14.1 		"/>
	</g>
	<g class="st4">
		<polygon class="st5" points="29,35.9 43.3,35.9 43.3,31.8 33.4,31.8 33.4,27 41.8,27 41.8,22.9 33.4,22.9 33.4,18.3 43.3,18.3 
			43.3,14.1 29,14.1 		"/>
	</g>
	<g class="st4">
		<polygon class="st5" points="45,18.3 50,18.3 50,35.9 54.3,35.9 54.3,18.3 59.3,18.3 59.3,14.1 45,14.1 		"/>
	</g>
	<g class="st4">
		<polygon class="st5" points="89.6,27.5 86,21.6 81.3,14.2 81.2,14.1 77.4,14.1 77.4,35.9 81.7,35.9 81.7,22.5 84.9,27.8 90,35.9 
			94,35.9 94,14.1 89.6,14.1 		"/>
	</g>
	<g class="st4">
		<polygon class="st5" points="95.7,14.1 95.7,18.3 100.7,18.3 100.7,35.9 105.1,35.9 105.1,18.3 110,18.3 110,14.1 		"/>
	</g>
</g>
<g class="st1">
	<g class="st4">
		<path class="st5" d="M20.2,39c-1.6,0-2.8-1.3-2.8-2.8s1.3-2.8,2.8-2.8c1.6,0,2.8,1.3,2.8,2.8S21.7,39,20.2,39z"/>
	</g>
	<g class="st4">
		<path class="st5" d="M47.4,36.2c0-1.5,1.3-2.8,2.8-2.8c1.6,0,2.8,1.2,2.8,2.8c0,1.5-1.3,2.8-2.8,2.8C48.6,39,47.4,37.8,47.4,36.2z
			"/>
	</g>
	<g class="st4">
		<path class="st5" d="M42.7,39c-1.5,0-2.8-1.3-2.8-2.8s1.3-2.8,2.8-2.8c1.6,0,2.8,1.3,2.8,2.8C45.5,37.8,44.2,39,42.7,39z"/>
	</g>
	<path class="st6" d="M32.4,36.2c0-1.5,1.3-2.8,2.8-2.8c1.6,0,2.8,1.2,2.8,2.8c0,1.5-1.3,2.8-2.8,2.8C33.6,39,32.4,37.7,32.4,36.2z"
		/>
	<g class="st4">
		<path class="st5" d="M27.7,39c-1.6,0-2.8-1.3-2.8-2.8s1.3-2.8,2.8-2.8s2.7,1.2,2.7,2.8C30.4,37.8,29.2,39,27.7,39z"/>
	</g>
	<g class="st4">
		<path class="st5" d="M15.5,36.2c0,1.6-1.2,2.8-2.7,2.8S10,37.7,10,36.2s1.3-2.8,2.8-2.8C14.4,33.4,15.5,34.6,15.5,36.2z"/>
	</g>
	<g class="st4">
		<g>
			<g>
				<path class="st5" d="M78.2,32.5c0,1.2,0,2.4,0,3.5c0,3.3-2.5,5.8-5.8,5.9c-1.5,0-2.9-0.2-4.2-1.2c-1.4-1-2-2.4-2.1-4.1
					c-0.2-2.7,0-5.5-0.1-8.2c0-0.3,0.1-0.4,0.4-0.4c0.9,0,1.8,0,2.6,0c0.4,0,0.4,0.1,0.4,0.5c0,2.4,0,4.8,0,7.2c0,0.3,0,0.5,0.1,0.8
					c0.2,1.3,1.1,2.1,2.4,2.1s2.4-0.9,2.6-2.1c0-0.3,0.1-0.6,0.1-0.9c0-2.3,0-4.7,0-7c0-0.4,0.1-0.5,0.5-0.5c0.8,0,1.7,0,2.5,0
					c0.4,0,0.5,0.1,0.5,0.5C78.1,29.8,78.2,31.1,78.2,32.5z"/>
			</g>
			<g>
				<path class="st5" d="M61.1,33.9c0,0.8,0,1.5,0,2.3c0,1.4,0.8,2.1,2.1,2.1c0.4,0,0.5,0.1,0.5,0.5c0,0.7,0,1.5,0,2.2
					c0,0.5-0.2,0.5-0.6,0.5c-2.9,0.1-5-1.4-5.5-4.5c-0.1-0.4-0.1-0.8-0.1-1.2c0-3.6,0-7.3,0-10.9c0-0.4,0.1-0.6,0.5-0.5
					c0.8,0,1.7,0,2.5,0c0.3,0,0.5,0.1,0.5,0.5c0,0.9,0,1.7,0,2.6c0,0.3,0.1,0.5,0.4,0.4c0.5,0,1.1,0,1.6,0c0.3,0,0.4,0.1,0.4,0.4
					c0,0.8,0,1.5,0,2.3c0,0.3-0.1,0.4-0.4,0.4c-0.5,0-1.1,0-1.6,0c-0.3,0-0.4,0.1-0.4,0.4C61.1,32.3,61.1,33.1,61.1,33.9L61.1,33.9z
					"/>
			</g>
			<g>
				<path class="st5" d="M94.8,34.5c-0.1-2.4-1.1-4.3-3-5.7c-2.2-1.6-5.4-1.4-7.1,0.2c-0.1,0.1-0.1,0.2-0.2,0.1s-0.1-0.2-0.1-0.3
					c0-1.1,0-2.2,0-3.2c0-1.1,0-2.1,0-3.2c0-0.4-0.1-0.5-0.5-0.5c-0.9,0-1.7,0-2.6,0c-0.4,0-0.5,0.1-0.5,0.5c0,4.1,0,8.3,0,12.4
					c0,2.2,0.8,4,2.5,5.5c2.5,2.2,6.9,2.1,9.3-0.2C94.2,38.6,94.9,36.7,94.8,34.5z M90.1,37.7c-0.6,0.6-1.4,0.9-2.3,0.9
					c-1.3,0-2.2-0.6-2.8-1.7c-0.9-1.5-0.8-3.6,0.4-4.9c1.4-1.5,3.7-1.5,5,0.1C91.8,33.8,91.6,36.3,90.1,37.7z"/>
			</g>
			<g>
				<path class="st5" d="M101.1,37.1c2.8-1.2,5.7-2.4,8.5-3.6c0.3-0.1,0.4-0.2,0.3-0.6c-0.7-3.2-3.3-5.3-6.6-5.3c-0.3,0-0.6,0-0.8,0
					c-5.1,0.7-7.7,6.2-5.3,10.5c1.5,2.8,4.4,4.1,7.5,3.5c2.4-0.4,4.1-1.8,5-4.1c0.1-0.3,0.1-0.4-0.3-0.4c-1,0-2,0-3,0
					c-0.2,0-0.4,0-0.5,0.2c-1,1.6-3.7,1.7-5,0.5C100.4,37.4,100.4,37.4,101.1,37.1z M100,34.4c-0.3,0.1-0.4,0.1-0.4-0.2
					c0.1-1.9,1.8-3.5,3.5-3.5c1.1,0,1.9,0.3,2.6,0.9c0.2,0.2,0.2,0.3-0.1,0.4C103.8,32.8,101.9,33.6,100,34.4z"/>
			</g>
		</g>
		<g>
			<g>
				<path class="st5" d="M78.2,17.6c0,1.3,0,2.7,0,4c0,0.4-0.1,0.5-0.5,0.5c-0.8,0-1.7,0-2.5,0c-0.4,0-0.5-0.1-0.5-0.5
					c0-2.4,0-4.7,0-7.1c0-0.5,0-0.9-0.2-1.3c-0.2-0.8-0.8-1.3-1.6-1.5c-1.9-0.5-3.4,0.7-3.4,2.7c0,2.4,0,4.8,0,7.2
					c0,0.4-0.1,0.6-0.6,0.5c-0.8,0-1.7,0-2.5,0c-0.4,0-0.5-0.1-0.5-0.5c0-2.4,0-4.9,0-7.3c0-1.5,0.4-2.9,1.4-4.1
					c1.1-1.3,2.5-1.9,4.1-2c1.1-0.1,2.2,0,3.3,0.5c2.2,0.9,3.2,2.7,3.4,5C78.3,14.9,78.2,16.2,78.2,17.6L78.2,17.6z"/>
			</g>
			<g>
				<path class="st5" d="M26.7,17.6c0-1.2,0-2.4,0-3.6c0-2,0.7-3.7,2.3-4.8c1.4-1,2.9-1.2,4.5-1c0.3,0,0.3,0.2,0.3,0.4
					c0,0.9,0,1.7,0,2.6c0,0.3-0.1,0.3-0.4,0.3c-0.9-0.1-1.8,0-2.5,0.7c-0.6,0.5-0.8,1.2-0.8,2c0,2.5,0,4.9,0,7.4
					c0,0.6,0,0.6-0.6,0.6c-0.8,0-1.6,0-2.4,0c-0.5,0-0.5,0-0.5-0.6C26.7,20.2,26.7,18.9,26.7,17.6z"/>
			</g>
			<g>
				<path class="st5" d="M24,15.2c0-1.8-0.6-3.4-1.8-4.7c-1.6-1.8-3.6-2.5-6-2.3c-1.9,0.2-3.4,1-4.6,2.5S9.9,14,10,15.9
					c0.2,2.6,1.4,4.6,3.7,5.8c2.2,1.1,4.4,1,6.4-0.5c0.1,0,0.1-0.1,0.2-0.1s0.1,0.1,0.1,0.2c0.1,1.9-0.5,4.1-3.3,4.2
					c-1.1,0.1-2.2-0.2-2.9-1.3C14.1,24,13.9,24,13.7,24c-1,0-2.1,0-3.1,0c-0.3,0-0.4,0.1-0.3,0.4c0.3,1.1,0.8,2,1.7,2.7
					c1.6,1.4,3.5,1.8,5.5,1.7c3.6-0.3,6-2.6,6.3-6.2c0.1-1.3,0-2.7,0.1-3.8C24,17.3,24.1,16.3,24,15.2z M19.5,18
					c-1.6,1.8-4.5,1.2-5.5-1c-0.3-0.6-0.4-1.2-0.4-1.6c0-1.3,0.4-2.4,1.2-3.1c1.6-1.4,3.8-1.1,5,0.7C20.9,14.6,20.7,16.7,19.5,18z"
					/>
			</g>
			<g>
				<path class="st5" d="M39.5,17.7c2.9-1.2,5.8-2.4,8.7-3.7c0.2-0.1,0.4-0.2,0.3-0.5c-0.4-1.8-1.3-3.4-3-4.4c-3.3-2-7.5-1-9.5,2.4
					c-1.5,2.4-1.5,4.9-0.1,7.4c1.3,2.3,3.4,3.5,6.1,3.5c1,0,1.9-0.2,2.8-0.5c1.7-0.7,2.9-2,3.6-3.7c0.1-0.2,0.2-0.4-0.2-0.4
					c-1.1,0-2.1,0-3.2,0c-0.2,0-0.3,0.1-0.4,0.2c-1.1,1.7-3.8,1.8-5.2,0.3C39.1,17.9,39.1,17.9,39.5,17.7z M38.6,14.9
					c-0.2,0.1-0.4,0.1-0.3-0.2c0.3-2.2,1.9-3.6,3.7-3.5c0.9,0,1.7,0.3,2.4,0.9c0.2,0.2,0.3,0.3,0,0.4C42.4,13.3,40.5,14.1,38.6,14.9
					z"/>
			</g>
			<g>
				<path class="st5" d="M54.8,17.7c2.9-1.2,5.8-2.4,8.7-3.7c0.2-0.1,0.4-0.2,0.3-0.5C63,9.9,60,7.7,56.3,8.2
					c-3.7,0.4-6.4,3.8-6.1,7.6c0.3,3.7,3.4,6.7,7,6.6c3.1,0,5.4-1.6,6.4-4.2c0.1-0.3,0.1-0.5-0.3-0.5c-1,0-2,0-2.9,0
					c-0.2,0-0.4,0.1-0.5,0.3c-1.3,1.6-3.7,1.8-5.2,0.3C54.3,17.9,54.3,17.9,54.8,17.7z M53.9,14.9c-0.4,0.2-0.4-0.1-0.3-0.3
					c0.2-1.8,1.7-3.5,3.7-3.4c0.9,0,1.6,0.3,2.3,0.9c0.2,0.2,0.3,0.3-0.1,0.5C57.6,13.3,55.8,14.1,53.9,14.9z"/>
			</g>
		</g>
	</g>
</g>
<g>
	<g>
		<path class="st5" d="M26.7,17.1h11v2.5h-8.2v3.6H35v2.5h-5.4v4.1H38v2.5H26.7V17.1z"/>
		<path class="st5" d="M37.2,21.5h2.9l2.6,7.5l2.4-7.5h2.8L44,32.4h-2.6L37.2,21.5z"/>
		<path class="st5" d="M47.5,27c0-3.3,2.3-5.6,5.6-5.6c3.3,0,5.5,2.3,5.5,5.6c0,3.3-2.3,5.6-5.6,5.6C49.7,32.6,47.5,30.3,47.5,27z
			 M55.7,27L55.7,27c0-2.2-1-3.4-2.7-3.4c-1.7,0-2.7,1.2-2.7,3.3V27c0,2,1,3.2,2.6,3.2C54.7,30.2,55.7,29.1,55.7,27z"/>
		<path class="st5" d="M59.9,16.9h2.9v15.4h-2.9V16.9z"/>
		<path class="st5" d="M64.4,28v-6.5h2.8v6.3c0,1.4,0.7,2.3,2,2.3c1.5,0,2.1-1.3,2.1-3.1v-5.5h2.8v10.8h-2.8v-1.5
			c-0.6,1.1-1.6,1.7-3,1.7C65.9,32.6,64.4,30.8,64.4,28z"/>
		<path class="st5" d="M76.8,29.5v-5.7h-1.5v-2.3h1.5v-2l2.8-1.6v3.6h2.1v2.3h-2.2v5.4c0,0.5,0.3,0.8,0.8,0.8h1.3v2.4h-2.2
			C77.3,32.2,76.8,31.3,76.8,29.5z"/>
		<path class="st5" d="M83,17.2h3V20h-3V17.2z M83,21.5h2.9v10.8H83V21.5z"/>
		<path class="st5" d="M87.2,27c0-3.3,2.3-5.6,5.6-5.6c3.3,0,5.5,2.3,5.5,5.6c0,3.3-2.3,5.6-5.6,5.6C89.4,32.6,87.2,30.3,87.2,27z
			 M95.4,27L95.4,27c0-2.2-1-3.4-2.7-3.4c-1.7,0-2.7,1.2-2.7,3.3V27c0,2,1,3.2,2.6,3.2C94.3,30.2,95.4,29.1,95.4,27z"/>
		<path class="st5" d="M99.5,21.5h2.8v1.8c0.6-1.3,1.6-2,3.2-2c2.4,0,3.8,1.6,3.8,4.6v6.5h-2.8V26c0-1.5-0.6-2.3-1.9-2.3
			c-1.4,0-2.2,1.1-2.2,3.1v5.5h-2.8V21.5z"/>
	</g>
	<path class="st5" d="M22.7,34.3c-0.5,0-0.9-0.4-0.9-0.9c0-0.5,0.4-0.9,0.9-0.9c0.5,0,0.9,0.4,0.9,0.9C23.6,34,23.2,34.3,22.7,34.3
		 M22.7,32.4c-0.6,0-1.1,0.5-1.1,1.1c0,0.6,0.5,1.1,1.1,1.1c0.6,0,1.1-0.5,1.1-1.1C23.8,32.9,23.3,32.4,22.7,32.4"/>
	<g>
		<path class="st5" d="M20.9,24.2c0.9,0,1.9,0,2.9-0.1c-0.2-2.2-0.9-3.9-1.9-5.3C22,19.2,22,19.6,22,20C22,21.5,21.6,23,20.9,24.2z"
			/>
		<path class="st5" d="M20.5,24.8c-1.6,2.4-4.3,3.9-7.3,3.9c-0.2,0-0.4,0-0.6,0c-0.8,1.2-1.3,2.5-1.8,3.8c5.5,2.9,12.6-0.2,13.1-7.6
			C22.6,24.8,21.5,24.8,20.5,24.8z"/>
		<path class="st5" d="M10.7,16.5c1.5,3.4,2.7,7.5,10.2,7.7C21.6,23,22,21.5,22,20c0-0.4,0-0.8-0.1-1.2
			C19.3,15.4,14.6,14.4,10.7,16.5z"/>
		<path class="st5" d="M20.5,24.8c-4.5,0.2-6.6,1.9-8,3.9c0.2,0,0.4,0,0.6,0C16.3,28.8,18.9,27.2,20.5,24.8z"/>
	</g>
	<g>
		<path class="st5" d="M22.3,33.3h-0.2v-0.1h0.5v0.1h-0.2v0.5h-0.1V33.3z"/>
		<path class="st5" d="M22.6,33.2h0.2l0.1,0.4l0.1-0.4h0.2v0.6h-0.1v-0.5L23,33.8h-0.1l-0.1-0.5v0.5h-0.1V33.2z"/>
	</g>
</g>
</svg>
