<svg width="20" height="19" viewBox="0 0 20 19" fill="none" xmlns="http://www.w3.org/2000/svg">
    <path d="M2.50391 5.63721C1.99674 5.63721 1.60091 5.49495 1.31641 5.21045C1.03809 4.92594 0.898926 4.52083 0.898926 3.99512V2.01904C0.898926 1.49951 1.03809 1.09749 1.31641 0.812988C1.60091 0.522298 1.99674 0.376953 2.50391 0.376953H4.5542C5.06136 0.376953 5.4541 0.522298 5.73242 0.812988C6.01693 1.09749 6.15918 1.49951 6.15918 2.01904V3.99512C6.15918 4.52083 6.01693 4.92594 5.73242 5.21045C5.4541 5.49495 5.06136 5.63721 4.5542 5.63721H2.50391ZM8.96094 5.63721C8.45378 5.63721 8.06104 5.49495 7.78271 5.21045C7.50439 4.92594 7.36523 4.52083 7.36523 3.99512V2.01904C7.36523 1.49951 7.50439 1.09749 7.78271 0.812988C8.06104 0.522298 8.45378 0.376953 8.96094 0.376953H11.0205C11.5277 0.376953 11.9204 0.522298 12.1987 0.812988C12.4771 1.09749 12.6162 1.49951 12.6162 2.01904V3.99512C12.6162 4.52083 12.4771 4.92594 12.1987 5.21045C11.9204 5.49495 11.5277 5.63721 11.0205 5.63721H8.96094ZM15.4365 5.63721C14.9294 5.63721 14.5335 5.49495 14.249 5.21045C13.9707 4.92594 13.8315 4.52083 13.8315 3.99512V2.01904C13.8315 1.49951 13.9707 1.09749 14.249 0.812988C14.5335 0.522298 14.9294 0.376953 15.4365 0.376953H17.4868C17.994 0.376953 18.3867 0.522298 18.665 0.812988C18.9495 1.09749 19.0918 1.49951 19.0918 2.01904V3.99512C19.0918 4.52083 18.9495 4.92594 18.665 5.21045C18.3867 5.49495 17.994 5.63721 17.4868 5.63721H15.4365ZM2.50391 11.918C1.99674 11.918 1.60091 11.7757 1.31641 11.4912C1.03809 11.2067 0.898926 10.8047 0.898926 10.2852V8.2998C0.898926 7.77409 1.03809 7.36898 1.31641 7.08447C1.60091 6.79997 1.99674 6.65771 2.50391 6.65771H4.5542C5.06136 6.65771 5.4541 6.79997 5.73242 7.08447C6.01693 7.36898 6.15918 7.77409 6.15918 8.2998V10.2852C6.15918 10.8047 6.01693 11.2067 5.73242 11.4912C5.4541 11.7757 5.06136 11.918 4.5542 11.918H2.50391ZM8.96094 11.918C8.45378 11.918 8.06104 11.7757 7.78271 11.4912C7.50439 11.2067 7.36523 10.8047 7.36523 10.2852V8.2998C7.36523 7.77409 7.50439 7.36898 7.78271 7.08447C8.06104 6.79997 8.45378 6.65771 8.96094 6.65771H11.0205C11.5277 6.65771 11.9204 6.79997 12.1987 7.08447C12.4771 7.36898 12.6162 7.77409 12.6162 8.2998V10.2852C12.6162 10.8047 12.4771 11.2067 12.1987 11.4912C11.9204 11.7757 11.5277 11.918 11.0205 11.918H8.96094ZM15.4365 11.918C14.9294 11.918 14.5335 11.7757 14.249 11.4912C13.9707 11.2067 13.8315 10.8047 13.8315 10.2852V8.2998C13.8315 7.77409 13.9707 7.36898 14.249 7.08447C14.5335 6.79997 14.9294 6.65771 15.4365 6.65771H17.4868C17.994 6.65771 18.3867 6.79997 18.665 7.08447C18.9495 7.36898 19.0918 7.77409 19.0918 8.2998V10.2852C19.0918 10.8047 18.9495 11.2067 18.665 11.4912C18.3867 11.7757 17.994 11.918 17.4868 11.918H15.4365ZM2.50391 18.1987C1.99674 18.1987 1.60091 18.0565 1.31641 17.772C1.03809 17.4875 0.898926 17.0824 0.898926 16.5566V14.5806C0.898926 14.0549 1.03809 13.6497 1.31641 13.3652C1.60091 13.0807 1.99674 12.9385 2.50391 12.9385H4.5542C5.06136 12.9385 5.4541 13.0807 5.73242 13.3652C6.01693 13.6497 6.15918 14.0549 6.15918 14.5806V16.5566C6.15918 17.0824 6.01693 17.4875 5.73242 17.772C5.4541 18.0565 5.06136 18.1987 4.5542 18.1987H2.50391ZM8.96094 18.1987C8.45378 18.1987 8.06104 18.0565 7.78271 17.772C7.50439 17.4875 7.36523 17.0824 7.36523 16.5566V14.5806C7.36523 14.0549 7.50439 13.6497 7.78271 13.3652C8.06104 13.0807 8.45378 12.9385 8.96094 12.9385H11.0205C11.5277 12.9385 11.9204 13.0807 12.1987 13.3652C12.4771 13.6497 12.6162 14.0549 12.6162 14.5806V16.5566C12.6162 17.0824 12.4771 17.4875 12.1987 17.772C11.9204 18.0565 11.5277 18.1987 11.0205 18.1987H8.96094ZM15.4365 18.1987C14.9294 18.1987 14.5335 18.0565 14.249 17.772C13.9707 17.4875 13.8315 17.0824 13.8315 16.5566V14.5806C13.8315 14.0549 13.9707 13.6497 14.249 13.3652C14.5335 13.0807 14.9294 12.9385 15.4365 12.9385H17.4868C17.994 12.9385 18.3867 13.0807 18.665 13.3652C18.9495 13.6497 19.0918 14.0549 19.0918 14.5806V16.5566C19.0918 17.0824 18.9495 17.4875 18.665 17.772C18.3867 18.0565 17.994 18.1987 17.4868 18.1987H15.4365Z" fill="white"/>
</svg>
