<svg width="26" height="26" viewBox="0 0 26 26" fill="none" xmlns="http://www.w3.org/2000/svg">
<path d="M1.25293 9.00488C0.575846 9.00488 0.237305 8.65788 0.237305 7.96387V4.85352C0.237305 3.55013 0.567383 2.57259 1.22754 1.9209C1.89616 1.26074 2.89486 0.930664 4.22363 0.930664H7.32129C8.0153 0.930664 8.3623 1.26921 8.3623 1.94629C8.3623 2.63184 8.0153 2.97461 7.32129 2.97461H4.24902C3.61426 2.97461 3.1276 3.14388 2.78906 3.48242C2.45052 3.8125 2.28125 4.30762 2.28125 4.96777V7.96387C2.28125 8.65788 1.93848 9.00488 1.25293 9.00488ZM24.0664 9.00488C23.3893 9.00488 23.0508 8.65788 23.0508 7.96387V4.96777C23.0508 4.30762 22.8773 3.8125 22.5303 3.48242C22.1833 3.14388 21.6966 2.97461 21.0703 2.97461H17.998C17.3125 2.97461 16.9697 2.63184 16.9697 1.94629C16.9697 1.26921 17.3125 0.930664 17.998 0.930664H21.1084C22.4372 0.930664 23.4316 1.26074 24.0918 1.9209C24.7604 2.57259 25.0947 3.55013 25.0947 4.85352V7.96387C25.0947 8.65788 24.752 9.00488 24.0664 9.00488ZM4.22363 25.7754C2.89486 25.7754 1.89616 25.4453 1.22754 24.7852C0.567383 24.1335 0.237305 23.1517 0.237305 21.8398V18.7422C0.237305 18.0482 0.575846 17.7012 1.25293 17.7012C1.93848 17.7012 2.28125 18.0482 2.28125 18.7422V21.7383C2.28125 22.3984 2.45052 22.8936 2.78906 23.2236C3.1276 23.5622 3.61426 23.7314 4.24902 23.7314H7.32129C8.0153 23.7314 8.3623 24.0742 8.3623 24.7598C8.3623 25.4368 8.0153 25.7754 7.32129 25.7754H4.22363ZM17.998 25.7754C17.3125 25.7754 16.9697 25.4368 16.9697 24.7598C16.9697 24.0742 17.3125 23.7314 17.998 23.7314H21.0703C21.6966 23.7314 22.1833 23.5622 22.5303 23.2236C22.8773 22.8936 23.0508 22.3984 23.0508 21.7383V18.7422C23.0508 18.0482 23.3893 17.7012 24.0664 17.7012C24.752 17.7012 25.0947 18.0482 25.0947 18.7422V21.8398C25.0947 23.1517 24.7604 24.1335 24.0918 24.7852C23.4316 25.4453 22.4372 25.7754 21.1084 25.7754H17.998ZM7.00391 19.0977C6.33529 19.0977 5.83171 18.9326 5.49316 18.6025C5.15462 18.2725 4.98535 17.7773 4.98535 17.1172V10.4014C4.98535 9.73275 5.15462 9.2334 5.49316 8.90332C5.83171 8.57324 6.33529 8.4082 7.00391 8.4082H8.60352C8.85742 8.4082 9.03939 8.37858 9.14941 8.31934C9.2679 8.25163 9.39909 8.1416 9.54297 7.98926L10.0635 7.40527C10.2243 7.236 10.3978 7.10482 10.584 7.01172C10.7786 6.91862 11.041 6.87207 11.3711 6.87207H13.9355C14.2572 6.87207 14.5111 6.91862 14.6973 7.01172C14.8919 7.10482 15.0697 7.236 15.2305 7.40527L15.751 7.98926C15.8949 8.15007 16.026 8.26009 16.1445 8.31934C16.263 8.37858 16.445 8.4082 16.6904 8.4082H18.3408C19.001 8.4082 19.5003 8.57324 19.8389 8.90332C20.1859 9.2334 20.3594 9.73275 20.3594 10.4014V17.1172C20.3594 17.7773 20.1859 18.2725 19.8389 18.6025C19.5003 18.9326 19.001 19.0977 18.3408 19.0977H7.00391ZM12.6914 17.498C13.3939 17.498 14.0286 17.333 14.5957 17.0029C15.1712 16.6644 15.6283 16.2074 15.9668 15.6318C16.3138 15.0563 16.4873 14.4089 16.4873 13.6895C16.4873 12.987 16.3138 12.348 15.9668 11.7725C15.6283 11.1969 15.1712 10.7399 14.5957 10.4014C14.0286 10.0628 13.3939 9.89355 12.6914 9.89355C11.9805 9.89355 11.3372 10.0628 10.7617 10.4014C10.1862 10.7399 9.72493 11.1969 9.37793 11.7725C9.03939 12.348 8.87012 12.987 8.87012 13.6895C8.87012 14.4004 9.03939 15.0436 9.37793 15.6191C9.72493 16.1947 10.1862 16.6517 10.7617 16.9902C11.3372 17.3288 11.9805 17.498 12.6914 17.498ZM12.6787 16.4062C12.1794 16.4062 11.7223 16.2878 11.3076 16.0508C10.8929 15.8053 10.5628 15.4753 10.3174 15.0605C10.0804 14.6458 9.96191 14.1888 9.96191 13.6895C9.96191 13.1901 10.0804 12.7373 10.3174 12.3311C10.5628 11.9163 10.8929 11.5905 11.3076 11.3535C11.7223 11.1081 12.1794 10.9854 12.6787 10.9854C13.1696 10.9854 13.6182 11.1081 14.0244 11.3535C14.4391 11.5905 14.7692 11.9163 15.0146 12.3311C15.2601 12.7373 15.3828 13.1901 15.3828 13.6895C15.3828 14.1888 15.2601 14.6458 15.0146 15.0605C14.7692 15.4753 14.4391 15.8053 14.0244 16.0508C13.6182 16.2878 13.1696 16.4062 12.6787 16.4062ZM17.7441 11.8613C17.9811 11.8613 18.1842 11.7809 18.3535 11.6201C18.5228 11.4508 18.6074 11.2435 18.6074 10.998C18.6074 10.7611 18.5228 10.5622 18.3535 10.4014C18.1842 10.2321 17.9811 10.1475 17.7441 10.1475C17.5156 10.1475 17.3167 10.2321 17.1475 10.4014C16.9782 10.5622 16.8936 10.7611 16.8936 10.998C16.8936 11.2435 16.9782 11.4508 17.1475 11.6201C17.3167 11.7809 17.5156 11.8613 17.7441 11.8613Z" fill="#19994C"/>
</svg>
