<svg width="32" height="32" viewBox="0 0 32 32" fill="none" xmlns="http://www.w3.org/2000/svg">
<rect width="32" height="32" rx="10" fill="url(#paint0_linear_8970_60144)"/>
<path d="M10.3937 24C9.81549 23.9987 9.26142 23.7683 8.85254 23.3594C8.44366 22.9505 8.21326 22.3964 8.21191 21.8182V10.1818C8.21421 9.60387 8.44529 9.05036 8.85396 8.64169C9.26263 8.23302 9.81579 8.0023 10.3937 8H17.6665C18.2444 8.0023 18.7976 8.23302 19.2062 8.64169C19.6149 9.05036 19.846 9.60387 19.8483 10.1818V21.8182C19.8469 22.3964 19.6165 22.9505 19.2077 23.3594C18.7988 23.7683 18.2447 23.9987 17.6665 24H10.3937ZM12.1934 14.4968C11.9733 14.7465 11.8509 15.067 11.8483 15.3999C11.8648 15.7389 11.9836 16.0651 12.1892 16.3352C12.3981 16.6247 12.6424 16.887 12.9165 17.1158C13.2446 17.3989 13.5974 17.6522 13.9704 17.8729C13.9883 17.8838 14.0091 17.8891 14.0301 17.8881C14.0534 17.8895 14.0765 17.8842 14.0969 17.8729L14.1011 17.869C14.4679 17.6475 14.8151 17.3957 15.1395 17.1158C15.412 16.8854 15.6562 16.6233 15.8667 16.3352C16.0746 16.0674 16.1964 15.7424 16.2133 15.4038C16.2174 15.0513 16.0809 14.7112 15.8355 14.4581C15.7302 14.3504 15.6049 14.2649 15.4662 14.2063C15.3274 14.1478 15.1778 14.1175 15.0273 14.1172C14.8238 14.1203 14.6257 14.1763 14.4506 14.2798C14.2754 14.3834 14.1294 14.531 14.0287 14.7077C13.9287 14.531 13.7843 14.3834 13.6096 14.2798C13.435 14.1762 13.2374 14.1202 13.0344 14.1172C12.8757 14.1178 12.7188 14.1516 12.5741 14.2166C12.4294 14.2816 12.2992 14.3764 12.1934 14.4947V14.4968ZM21.3 21.2603V10.1818C21.3006 9.87606 21.2373 9.57342 21.1139 9.29368L22.1721 9.57884C22.449 9.65316 22.709 9.78128 22.9363 9.95597C23.1637 10.1307 23.3543 10.3485 23.4974 10.5969C23.6405 10.8454 23.7331 11.1195 23.7702 11.4038C23.8072 11.6881 23.7879 11.9771 23.7133 12.2539L21.3042 21.2539L21.3 21.2603Z" fill="white"/>
<defs>
<linearGradient id="paint0_linear_8970_60144" x1="0" y1="32" x2="32" y2="0" gradientUnits="userSpaceOnUse">
<stop stop-color="#148A60"/>
<stop offset="1" stop-color="#53D6AF"/>
</linearGradient>
</defs>
</svg>
