<svg width="32" height="32" viewBox="0 0 32 32" fill="none" xmlns="http://www.w3.org/2000/svg">
<path d="M0 12.8C0 8.31958 0 6.07937 0.871948 4.36808C1.63893 2.86278 2.86278 1.63893 4.36808 0.871948C6.07937 0 8.31958 0 12.8 0H19.2C23.6804 0 25.9206 0 27.6319 0.871948C29.1372 1.63893 30.3611 2.86278 31.1281 4.36808C32 6.07937 32 8.31958 32 12.8V19.2C32 23.6804 32 25.9206 31.1281 27.6319C30.3611 29.1372 29.1372 30.3611 27.6319 31.1281C25.9206 32 23.6804 32 19.2 32H12.8C8.31958 32 6.07937 32 4.36808 31.1281C2.86278 30.3611 1.63893 29.1372 0.871948 27.6319C0 25.9206 0 23.6804 0 19.2V12.8Z" fill="#0F0F1A"/>
<path d="M17.6583 21.088L18.05 21.7903C17.2882 21.6809 16.5184 21.6255 15.7444 21.6242H15.7147C14.1385 21.6242 12.5744 21.8511 11.0644 22.2955C10.8928 22.3468 10.7132 22.2482 10.6632 22.0767C10.6119 21.9051 10.7105 21.7255 10.882 21.6755C12.4623 21.2095 14.0912 20.9705 15.7444 20.9772C16.3846 20.9786 17.0235 21.0164 17.6583 21.0893V21.088Z" fill="white"/>
<path d="M10.6862 21.1731C10.701 21.1677 10.7145 21.1622 10.7307 21.1582C11.5709 20.911 12.4245 20.7273 13.2822 20.6071C13.2835 18.1786 13.2876 15.7515 13.2889 13.3243C14.1074 14.9883 14.9259 16.6551 15.739 18.3245C16.5548 16.6659 17.3706 15.0113 18.1864 13.354C18.1891 15.7164 18.1932 18.0773 18.1945 20.4396V20.5382L19.4709 20.8219L20.7824 19.5104V8H18.1013C17.3179 9.68698 16.5292 11.3699 15.7377 13.0542C14.9462 11.3699 14.1574 9.68563 13.3713 8H10.1405C10.3607 8.57809 10.4701 8.86443 10.6902 9.42901C10.6889 13.3446 10.6875 17.2588 10.6848 21.1731H10.6862Z" fill="white"/>
<path d="M21.9994 22.028C21.4483 22.1982 20.8972 22.3684 20.3461 22.5386C20.1665 23.0262 19.9869 23.5124 19.8072 24C19.6046 23.6353 19.4007 23.2693 19.1981 22.9046C18.4498 23.145 17.7015 23.3841 16.9533 23.6245C17.5638 23.1342 18.1743 22.6426 18.7848 22.1523C18.5889 21.7984 18.3917 21.4459 18.1959 21.092L19.6438 21.4135L20.7824 20.2749L20.6014 21.635L22.0007 22.028H21.9994Z" fill="#FFDD00"/>
</svg>
