<svg width="66" height="60" viewBox="0 0 66 60" fill="none" xmlns="http://www.w3.org/2000/svg">
<path fill-rule="evenodd" clip-rule="evenodd" d="M29.1722 47.2407C29.1722 47.2407 30.07 47.0976 31.0329 45.4971C31.0329 45.4971 31.4493 44.8856 30.8898 44.8465C30.8898 44.8465 30.6686 44.8986 29.0291 44.8726C29.0291 44.8726 28.0923 45.0027 28.3655 43.9878L28.5997 43.142C28.5997 43.142 28.6778 42.4784 29.4975 42.3873L33.5182 42.3222C33.5182 42.3222 36.1466 42.2832 33.9606 46.0306C33.9606 46.0306 31.6054 49.791 27.5848 49.8431H26.5829C26.5829 49.8431 26.2706 49.8431 26.4788 49.2966L26.7911 48.1776C26.7911 48.1776 26.9082 47.4359 27.7409 47.3969C27.7409 47.3969 28.7038 47.3188 29.1592 47.2277L29.1722 47.2407ZM24.4489 44.0008C24.6181 42.4003 25.7371 42.3483 25.7371 42.3483L27.4937 42.2702C28.2614 42.2962 28.0792 43.0249 28.0792 43.0249L25.8933 49.3096C25.6721 50.0513 25.1776 49.9992 25.1776 49.9992H24.3579C24.3579 49.9992 24.5791 49.726 24.4359 49.3746L23.6682 46.6682L24.4359 43.9878L24.4489 44.0008ZM9.60247 42.2962L7.26035 42.4003C7.26035 42.4003 6.47964 42.5825 6.06326 43.4803L3.6821 49.3746C3.6821 49.3746 3.49994 49.9862 3.89029 49.9472L5.72496 49.9732C5.72496 49.9732 6.28446 49.9472 6.62277 49.1925L9.91476 43.0509C9.91476 43.0509 10.3572 42.1791 9.61549 42.2832L9.60247 42.2962ZM8.05407 47.3058C7.76781 47.8393 8.30129 47.7482 8.30129 47.7482L12.0097 47.8262C14.3908 47.7221 15.679 44.4822 15.679 44.4822C15.679 44.4822 16.7069 42.1921 14.638 42.1661L11.3851 42.2442C10.6434 42.2832 10.3832 42.8948 10.3832 42.8948L9.99283 43.5714C9.57645 44.274 10.1229 44.4171 10.1229 44.4171H12.6342C13.1287 44.4041 12.9075 44.8726 12.9075 44.8726C12.387 45.9656 11.8535 45.9525 11.8535 45.9525L9.34224 46.0436C8.7437 46.0436 8.60057 46.408 8.60057 46.408C8.60057 46.408 8.22322 46.9935 8.04106 47.3318L8.05407 47.3058ZM21.1049 42.9468C21.1049 42.9468 20.8056 42.3613 20.2071 42.3613H18.6847C18.6847 42.3613 17.9951 42.3092 17.6177 43.0509L13.7532 49.3746C13.7532 49.3746 13.467 49.9081 13.9875 49.9081H15.8091C15.8091 49.9081 16.3816 49.9211 16.772 49.2315L18.971 45.4971C18.971 45.4971 19.4134 44.6514 19.5695 45.4191C19.5695 45.4191 19.6346 46.1347 19.4394 46.1737C19.4394 46.1737 19.2833 46.1998 19.1922 46.473L18.3985 48.4118C18.3985 48.4118 18.2814 48.8281 18.7498 48.8281H20.077C20.077 48.8281 20.7406 48.8282 20.8837 49.1925L21.0529 49.5958C21.0529 49.5958 21.1309 49.9211 21.7295 49.9211H23.46C23.46 49.9211 24.0586 49.9992 23.7333 49.1925C23.7333 49.1925 22.5622 45.6533 21.1049 42.9728V42.9468Z" fill="white"/>
<path fill-rule="evenodd" clip-rule="evenodd" d="M61.2334 41.6838C61.2334 41.3454 60.9862 41.2023 60.6348 41.2023C60.4787 41.2023 60.3616 41.2153 60.3095 41.2283V42.1782H60.6478C61.0122 42.1782 61.2334 41.983 61.2334 41.6838ZM61.4676 42.8288C61.5587 43.1931 61.6107 43.4403 61.6628 43.5444H61.3114C61.2724 43.4664 61.2074 43.2452 61.1423 42.9199C61.0642 42.5686 60.9211 42.4254 60.6218 42.4124H60.3095V43.5314H59.9712V40.9941C60.1404 40.9551 60.3876 40.9421 60.6088 40.9421C60.9601 40.9421 61.2074 41.0071 61.3635 41.1633C61.4936 41.2804 61.5717 41.4495 61.5717 41.6577C61.5717 41.996 61.3505 42.2172 61.0902 42.3213C61.2854 42.3994 61.4025 42.5816 61.4676 42.8548V42.8288ZM62.3784 41.2674C62.2093 40.9551 61.962 40.7209 61.6498 40.5517C61.3375 40.3826 61.0252 40.3045 60.6999 40.3045C60.3746 40.3045 60.0623 40.3826 59.75 40.5517C59.4377 40.7209 59.2035 40.9551 59.0214 41.2674C58.8522 41.5797 58.7611 41.905 58.7611 42.2303C58.7611 42.5555 58.8522 42.8808 59.0214 43.1931C59.1905 43.5054 59.4377 43.7396 59.737 43.9088C60.0493 44.0779 60.3616 44.169 60.6999 44.169C61.0382 44.169 61.3505 44.0779 61.6628 43.9088C61.975 43.7396 62.2093 43.4924 62.3784 43.1931C62.5476 42.8808 62.6387 42.5686 62.6387 42.2303C62.6387 41.8919 62.5476 41.5666 62.3784 41.2674ZM62.7167 43.3883C62.5085 43.7526 62.2223 44.0389 61.8579 44.2471C61.4936 44.4553 61.1033 44.5594 60.6999 44.5594C60.2965 44.5594 59.9192 44.4553 59.5418 44.2471C59.1775 44.0389 58.8913 43.7526 58.6831 43.3883C58.4749 43.024 58.3708 42.6336 58.3708 42.2433C58.3708 41.8529 58.4749 41.4495 58.6831 41.0852C58.8913 40.7079 59.1775 40.4346 59.5549 40.2264C59.9192 40.0313 60.3095 39.9272 60.6999 39.9272C61.0902 39.9272 61.4676 40.0313 61.8449 40.2264C62.2093 40.4216 62.5085 40.7079 62.7167 41.0852C62.9249 41.4626 63.029 41.8399 63.029 42.2433C63.029 42.6466 62.9249 43.024 62.7167 43.3883ZM58.7872 47.5261L55.8725 47.5651C55.274 47.5391 55.0918 47.2138 55.5082 46.368L56.8224 43.8177C57.564 42.1652 56.5361 42.2563 56.5361 42.2563H55.3C54.6104 42.2563 54.4152 43.076 54.4152 43.076L53.14 46.9405C52.4374 48.6711 52.8017 49.5559 54.22 49.621H58.1886C59.0474 49.5949 59.3337 49.0875 59.3337 49.0875L59.737 48.4629C60.3226 47.422 58.7872 47.5261 58.7872 47.5261ZM50.4466 45.8866C50.1733 46.4461 49.9391 46.8104 49.7309 46.9665C49.5358 47.1747 49.2755 47.3049 48.9763 47.3309L45.8925 47.3699C45.6322 47.3309 45.5021 47.1877 45.5151 46.9405C45.5021 46.8364 45.6192 46.5372 45.8664 46.0427C46.1137 45.5483 46.3218 45.223 46.491 45.0798C46.7642 44.7676 47.1026 44.5984 47.5059 44.5724L50.1864 44.5463C50.4596 44.5463 50.6548 44.6244 50.7328 44.7806C50.8109 44.9367 50.7328 45.314 50.4466 45.8866ZM51.4355 42.3213L47.1546 42.3474C45.5932 42.3864 44.292 43.6355 43.2641 46.1208C42.2231 48.567 42.4443 49.7901 43.9147 49.7641L48.7811 49.7251C50.2254 49.673 51.4095 48.3978 52.3203 45.8866C53.3612 43.4664 53.062 42.2823 51.4225 42.3343L51.4355 42.3213ZM40.8179 44.7285C40.5836 45.0668 40.2323 45.223 39.829 45.236H38.1634C38.1634 45.236 37.7731 45.1709 37.9032 44.8456L38.0463 44.5073C38.2545 44.156 38.7099 44.156 38.7099 44.156H40.5706C41.026 44.156 41.1041 44.3251 40.8179 44.7285ZM39.4256 47.2528C39.1914 47.5911 38.8401 47.7473 38.4367 47.7603H36.8102C36.8102 47.7603 36.3938 47.6952 36.6411 47.3049L36.8232 46.9796C37.0574 46.6282 37.4478 46.6803 37.4478 46.6803H39.1784C39.6208 46.6803 39.7118 46.8494 39.4256 47.2528ZM37.7601 49.8942C40.5316 49.8942 41.4945 48.567 41.4945 48.567C42.8217 46.8755 41.5465 46.1338 41.5465 46.1338C42.7696 45.6914 43.173 44.169 43.173 44.169C43.6154 42.2563 41.7417 42.2693 41.7417 42.2693C40.0371 42.2693 39.6208 42.2693 39.6208 42.2693C39.6208 42.2693 37.5389 42.2693 36.0295 42.2823C36.0295 42.2823 35.4049 42.2693 35.5611 42.5555C35.5611 42.5555 36.3158 43.7006 35.2748 46.0557C35.2748 46.0557 34.6503 47.7603 32.3081 49.2957C32.3081 49.2957 31.5795 49.7901 32.165 49.9072C32.165 49.9072 34.5201 50.0243 37.7601 49.9072V49.8942Z" fill="#D92E27"/>
<path fill-rule="evenodd" clip-rule="evenodd" d="M25.5725 29.1394C25.0338 28.421 25.4956 27.0099 28.0356 24.3159C30.5756 21.622 39.8376 14.6434 46.8418 10.2305C47.6885 11.3337 47.9194 12.2574 47.278 14.1303L45.1998 20.3392C40.9151 23.5719 26.7784 30.6787 25.5725 29.1137V29.1394Z" fill="white"/>
<path fill-rule="evenodd" clip-rule="evenodd" d="M34.6294 34.6046C37.7595 34.5789 41.3001 31.7567 42.5059 28.3444L43.173 26.4715C35.4504 30.6278 27.0864 34.1171 21.9294 34.7072L34.6294 34.5789V34.6046ZM37.2207 10L29.6263 10.077C26.4963 10.1026 22.9557 12.9248 21.7498 16.3115L17.9526 26.9333C21.3393 21.8276 29.6263 14.1307 37.2207 10Z" fill="#D92E27"/>
<path fill-rule="evenodd" clip-rule="evenodd" d="M41.8901 10C37.6568 11.3341 18.3888 23.6236 19.0558 31.4745C19.8255 34.2967 24.4694 33.0139 24.4694 33.0139C24.4694 33.0139 21.3906 32.9626 20.8518 30.987C19.9538 23.3157 41.8901 10 41.8901 10ZM26.9067 31.0896C29.8059 31.4232 36.9641 27.8313 44.1222 23.8545L44.3788 23.0592C43.2756 23.6493 42.6855 24.0598 42.5829 24.1367C36.3996 27.5234 30.3447 30.6022 26.9067 31.0896Z" fill="#C7C6C5"/>
</svg>
