<svg width="20" height="20" viewBox="0 0 20 20" fill="none" xmlns="http://www.w3.org/2000/svg">
    <path d="M3.63636 20C3.15415 20 2.69183 19.8083 2.35085 19.4673C2.00988 19.1264 1.81818 18.664 1.81818 18.1818V9.54545H0.909091C0.667985 9.54545 0.436823 9.44961 0.266335 9.27912C0.0958476 9.10863 0 8.87747 0 8.63636V5.90909C0 5.42688 0.191695 4.96455 0.53267 4.62358C0.873646 4.2826 1.33597 4.09091 1.81818 4.09091H4.90945C4.67069 3.67614 4.54492 3.20585 4.54545 2.72727C4.54545 2.00396 4.833 1.31047 5.34446 0.799006C5.85592 0.287543 6.54941 0 7.27273 0C7.99605 0 8.68953 0.287543 9.20099 0.799006C9.71246 1.31047 10 2.00396 10 2.72727C10 2.00396 10.2875 1.31047 10.799 0.799006C11.3105 0.287543 12.004 0 12.7273 0C13.4506 0 14.1441 0.287543 14.6555 0.799006C15.167 1.31047 15.4545 2.00396 15.4545 2.72727C15.4551 3.20585 15.3293 3.67614 15.0906 4.09091H18.1818C18.664 4.09091 19.1264 4.2826 19.4673 4.62358C19.8083 4.96455 20 5.42688 20 5.90909V8.63636C20 8.87747 19.9042 9.10863 19.7337 9.27912C19.5632 9.44961 19.332 9.54545 19.0909 9.54545H18.1818V18.1818C18.1818 18.664 17.9901 19.1264 17.6491 19.4673C17.3082 19.8083 16.8458 20 16.3636 20H3.63636ZM16.3636 18.6364C16.4842 18.6364 16.5998 18.5884 16.685 18.5032C16.7703 18.418 16.8182 18.3024 16.8182 18.1818V9.54545H10.68V18.6364H16.3636ZM3.18182 18.1818C3.18182 18.3024 3.22974 18.418 3.31499 18.5032C3.40023 18.5884 3.51581 18.6364 3.63636 18.6364H9.31818V9.54545H3.18004L3.18182 18.1818ZM18.6364 8.18182V5.90909C18.6347 5.78905 18.5863 5.67438 18.5014 5.58949C18.4165 5.5046 18.3019 5.45619 18.1818 5.45455H12.8906C12.837 5.45455 12.7827 5.45898 12.7273 5.45898C12.6718 5.45898 12.6193 5.45909 12.5657 5.45455H10.6818V8.18182H18.6381H18.6364ZM9.31818 8.18182V5.45455H7.4343C7.38067 5.45455 7.32636 5.45898 7.27273 5.45898C7.21909 5.45898 7.16301 5.45909 7.10938 5.45455H1.81818C1.69763 5.45455 1.58205 5.50247 1.4968 5.58771C1.41156 5.67296 1.36364 5.78854 1.36364 5.90909V8.18182H9.31996H9.31818ZM14.0092 3.18182C14.0621 3.03609 14.089 2.88228 14.0891 2.72727C14.0891 2.36561 13.9454 2.01887 13.6896 1.76314C13.4339 1.50741 13.0872 1.36364 12.7255 1.36364C12.3638 1.36364 12.0171 1.50741 11.7614 1.76314C11.5056 2.01887 11.3619 2.36561 11.3619 2.72727C11.3622 2.8821 11.3886 3.03576 11.44 3.18182H14.0092ZM8.55469 3.18182C8.60751 3.03609 8.63449 2.88228 8.63459 2.72727C8.63459 2.36561 8.49082 2.01887 8.23509 1.76314C7.97935 1.50741 7.63261 1.36364 7.27095 1.36364C6.90929 1.36364 6.56255 1.50741 6.30682 1.76314C6.05109 2.01887 5.90732 2.36561 5.90732 2.72727C5.90769 2.8821 5.93407 3.03576 5.98544 3.18182H8.55469Z" fill="#B5B5BA"/>
</svg>
