<svg width="57" height="37" viewBox="0 0 57 37" fill="none" xmlns="http://www.w3.org/2000/svg">
<rect x="0.29834" y="0.339844" width="55.8806" height="36" rx="8" fill="white"/>
<path d="M33.5986 16.6175C32.9357 16.0282 32.1624 15.7336 31.2417 15.7336C30.321 15.7336 29.5476 16.0282 28.8847 16.6175C28.2219 17.2067 27.8904 18.0169 27.8904 19.0481C27.8904 20.0792 28.2219 20.8894 28.8847 21.4787C29.5476 22.0679 30.321 22.3625 31.2417 22.3625C32.1624 22.3625 32.9357 22.0679 33.5986 21.4787C34.2615 20.8894 34.593 20.0792 34.593 19.0481C34.593 18.0169 34.2615 17.2067 33.5986 16.6175ZM29.9896 20.3738C29.6581 20.0424 29.474 19.6005 29.474 19.0481C29.474 18.4957 29.6581 18.0537 29.9896 17.7223C30.321 17.3908 30.7629 17.2067 31.2417 17.2067C31.7204 17.2067 32.1624 17.3908 32.4938 17.7223C32.8621 18.0537 33.0094 18.4957 33.0094 19.0481C33.0094 19.6005 32.8253 20.0424 32.4938 20.3738C32.1624 20.7053 31.7204 20.8526 31.2417 20.8526C30.7629 20.8526 30.321 20.6685 29.9896 20.3738ZM36.9499 22.1784V13.4872H35.4032V22.1415H36.9499V22.1784ZM41.9584 15.9177V19.3795C41.9584 20.2265 41.5165 20.7789 40.6694 20.7789C39.8224 20.7789 39.3805 20.2265 39.3805 19.3795V15.9177H37.8337V19.6373C37.8337 21.0736 38.7176 22.3625 40.6694 22.3625C42.6213 22.3625 43.5051 21.0736 43.5051 19.6373V15.9177H41.9584ZM26.1964 15.9177L24.6496 20.1529L23.1029 15.9177H21.4456L23.9499 22.1784H25.423L27.9272 15.9177H26.1964ZM21.4456 18.8639C21.4456 17.9432 21.151 17.2067 20.5986 16.6175C20.0462 16.0282 19.3097 15.7336 18.4258 15.7336C17.5051 15.7336 16.7686 16.0651 16.1057 16.6543C15.4796 17.2804 15.185 18.0537 15.185 19.0112C15.185 19.9687 15.4796 20.7789 16.1057 21.405C16.7318 22.0311 17.4683 22.3257 18.3522 22.3257C19.7148 22.3257 20.6723 21.7364 21.2247 20.4843L20.083 19.8214C19.7148 20.5948 19.1255 20.9631 18.389 20.9631C17.4683 20.9631 16.8054 20.3738 16.6949 19.3795H21.4456V18.8639ZM18.389 16.9489C19.2728 16.9489 19.8621 17.4645 20.0094 18.2747H16.6949C16.9527 17.5013 17.5788 16.9489 18.389 16.9489ZM15.185 22.1784L13.0859 18.4588C14.4117 17.9801 15.0745 17.0962 15.0745 15.8441C15.0745 14.3342 13.8961 13.3398 11.9811 13.3398H8.29834V22.1784H9.91874V18.6061H11.3182L13.3068 22.1784H15.185ZM12.0179 14.7761C12.9754 14.7761 13.4541 15.1812 13.4541 15.9546C13.4541 16.7279 12.9754 17.133 12.0179 17.133H9.91874V14.7761H12.0179ZM46.1935 22.3257C45.1992 22.3257 44.389 21.4787 44.389 20.4843V14.2237H45.9357V15.9177H47.2615V17.2067H45.9357V20.4107C45.9357 20.7053 46.1567 20.9631 46.4881 20.9631H47.2983V22.3625H46.1935V22.3257Z" fill="black"/>
</svg>
