<?xml version="1.0" encoding="UTF-8"?>
<svg id="Layer_1" xmlns="http://www.w3.org/2000/svg" version="1.1" viewBox="0 0 120 50">
  <!-- Generator: Adobe Illustrator 29.1.0, SVG Export Plug-In . SVG Version: 2.1.0 Build 142)  -->
  <defs>
    <style>
      .st0, .st1 {
        fill-rule: evenodd;
      }

      .st0, .st2 {
        fill: #fff;
      }

      .st3 {
        fill: #bf1220;
      }

      .st1 {
        fill: #4a5863;
      }

      .st4 {
        fill: #e61626;
      }

      .st5 {
        fill: #990e19;
      }

      .st6 {
        fill: #9fcd67;
      }

      .st7 {
        fill: #730a13;
      }

      .st8 {
        display: none;
      }
    </style>
  </defs>
  <g class="st8">
    <path class="st0" d="M110,10.3h-4.2v18.7h-2.2V10.3h-4.2v-1.9h10.6s0,1.9,0,1.9ZM97,10.3h-7.2v7h5.3v1.9h-5.3v7.9h7.6v1.9h-9.8V8.4h9.4v1.9ZM80.6,11c-.6-.5-1.5-.7-2.8-.7h-2.2v7h1.3c1.6,0,2.8-.3,3.5-.9.8-.6,1.1-1.5,1.1-2.9s-.4-2-.9-2.5ZM78.8,8.4c1.5,0,2.7.5,3.6,1.4.8.9,1.3,2.2,1.3,3.7s-.2,2-.7,2.8c-.5.8-1.3,1.4-2.4,1.8h0c1.2.4,2.2,1.1,2.7,2,.6.9.9,2,.9,3.3,0,1.9-.5,3.4-1.6,4.3-1.1,1-2.8,1.4-5,1.4h-4.2V8.4s5.4,0,5.4,0ZM77.8,19.2h-2.2v8h2.2c1.3,0,2.4-.3,3.1-.9s1-1.6,1-2.9-.3-2.4-1-3.1c-.7-.8-1.7-1.1-3.1-1.1ZM12.3,10.3c-.4.3-.5.8-.5,1.3s.2,1,.5,1.3c.4.3.8.5,1.3.5s.9-.2,1.3-.5c.4-.3.5-.8.5-1.3s-.2-1-.5-1.3c-.5-.3-.9-.4-1.4-.4s-.9.1-1.2.4ZM13.5,8.1c.9,0,1.7.3,2.4.9.3.2.5.5.7,1,.2.4.3,1,.4,1.6,0,.7-.1,1.2-.4,1.6s-.5.7-.8,1c-.7.6-1.5.9-2.4.9s-1.7-.3-2.4-.9c-.3-.2-.5-.5-.7-1-.2-.4-.4-1-.4-1.6s.1-1.2.4-1.6c.2-.4.5-.7.8-1,.7-.6,1.5-.9,2.4-.9ZM14.6,16.8v12.3h-2.2v-12.3h0c.3.1.7.2,1.1.2.4-.1.7-.1,1.1-.2Z"/>
    <path class="st1" d="M70.9,10.3h-4.2v18.7h-2.2V10.3h-4.2v-1.9h10.7v1.9h-.1ZM57.5,10.3h-6.6v7h5v1.9h-5v9.8h-2.2V8.4h8.9v1.9h0ZM63,36.2h0s0,.2.2.2h0l-2,3.2v2.1c0,.2,0,.3-.3.3h0q-.2,0-.2-.3v-2.1l-2-3.1h0v-.2h.2q.2,0,.3.2l1.6,2.6,1.6-2.6s.2-.2.3-.2h.3ZM71.1,37.9c0,.6-.2,1-.5,1.3-.4.3-.9.4-1.6.4h-1.1v2.1c0,.2,0,0-.2,0h0c-.2,0-.3,0-.3-.3v-5.2h1.7c.7,0,1.2,0,1.5.4.4.3.6.7.6,1.3h0ZM67.8,36.7v2.4h1.2c.5,0,.9,0,1.1-.3s.4-.5.4-.9c0-.8-.5-1.2-1.5-1.2h-1.2ZM54,36.2c.2,0,.3,0,.3.3v4.8h2.7c.2,0,.3,0,.3.2h0q0,.3-.3.3h-3.2v-5.2q0-.3.3-.3h0ZM51.8,37.9c0,.6-.2,1-.5,1.3-.4.3-.9.4-1.6.4h-1.1v2.1c0,.2,0,0-.2,0h0c-.2,0-.3,0-.3-.3v-5.2h1.6c.7,0,1.2,0,1.5.4.6.3.7.7.7,1.3h-.1ZM51.2,37.9c0-.8-.5-1.2-1.5-1.2h-1.2v2.4h1.2c.5,0,.9,0,1.1-.3.3-.2.4-.5.4-.9ZM84.1,36.3h.3c.1,0,.2,0,.3.2l1.6,2.6,1.6-2.6s.2-.2.3-.2h.2l-2,3.2v2.1c0,.2,0,.3-.3.3h0q-.2,0-.2-.3v-2.1l-2-3.1v-.2q0,0,0,0h.2ZM73.2,36.2c.2,0,.3,0,.3.3v4.8h2.7c.2,0,.3,0,.3.2h0q0,.3-.3.3h-3.2v-5.2q0-.3.3-.3h-.1ZM80.7,36.4l2,5.3h-.4l-.2-.2-.5-1.7h-2.4l-.6,1.6s0,.2-.2.2h-.4l2-5.3v-.2h.6c.2,0,.2.2.2.3h-.1ZM80.3,36.8l-1,2.6h2l-1-2.6ZM41.1,10.7c-.5-.5-1.1-.7-1.8-.7s-1.3.2-1.8.7-1,1.4-1.3,2.6c-.3,1.3-.5,3.1-.5,5.4s.2,4.1.5,5.4.7,2.2,1.3,2.7c.5.5,1.1.7,1.8.7s1.3-.2,1.8-.7,1-1.4,1.3-2.7c.3-1.3.5-3.1.5-5.4s-.2-4.1-.5-5.4c-.3-1.2-.8-2.1-1.3-2.6ZM44.4,12.6c.5,1.6.7,3.6.7,6.2s-.3,4.6-.7,6.2c-.5,1.6-1.2,2.7-2,3.4-.9.7-1.9,1-3.1,1s-2.2-.3-3.1-1c-.9-.7-1.6-1.9-2-3.4-.5-1.6-.7-3.6-.7-6.2s.3-4.6.7-6.2c.5-1.6,1.2-2.7,2-3.4.9-.7,1.9-1.1,3.1-1,1.2,0,2.2.3,3.1,1,.8.7,1.5,1.8,2,3.4ZM30.3,24.1c0,1.7-.5,2.9-1.4,3.9-.9.9-2.2,1.4-3.9,1.4s-2-.2-2.8-.7-1.4-1.2-1.8-2c-.4-.9-.7-1.9-.7-3.1h2.1c0,1.2.3,2.2.9,2.9.6.7,1.4,1,2.5,1.1.9,0,1.7-.3,2.2-.9s.8-1.4.8-2.5-.3-1.7-.9-2.4c-.6-.7-1.2-1.3-2.1-1.9-.8-.6-1.6-1.1-2.5-1.8-.8-.6-1.5-1.3-2.1-2.1-.5-.8-.8-1.8-.9-3,0-1.5.5-2.6,1.4-3.5s2.1-1.3,3.6-1.3,2.7.5,3.6,1.4c.9,1,1.4,2.4,1.5,4.2h-1.8c-.1-1.1-.4-2-.9-2.7s-1.3-1-2.3-1.1c-.9,0-1.6.3-2.1.8s-.8,1.1-.8,1.9.3,1.7.9,2.3,1.2,1.2,2.1,1.8c.8.5,1.6,1.1,2.5,1.7.8.6,1.5,1.4,2.1,2.2.5,1,.8,2.1.8,3.4ZM45.2,36.2h.4c.1,0,0,.2,0,.3v5c0,.2,0,.3-.2.3h0q-.2,0-.2-.3v-4.7l-1.5,3.1s0,.2-.2.3h-.6s0-.2-.2-.3l-1.5-3.2v4.7c0,.2,0,.3-.2.3h0q-.2,0-.2-.3v-5.3c0,0,.2,0,.3,0h.3s0,.2.2.3l1.5,3.3,1.5-3.3c0-.2,0-.3.2-.3h.4ZM34.5,36.2c.2,0,.4,0,.6.2.2,0,.3.2.4.3v.5h0v.2h0c0-.2-.3-.4-.6-.6-.3-.2-.6-.2-.9-.2s-.7,0-1,.3-.4.4-.4.7v.4l.3.3s.3,0,.5.2h.6c.2,0,.5,0,.7.2.2,0,.4.2.6.3.2,0,.3.3.4.5,0,.2.2.4.2.7v.7c0,.2-.2.4-.4.5s-.4.2-.6.3h-1.6c-.3,0-.5-.2-.7-.3s-.3-.2-.4-.4c0,0-.2-.2-.2-.3s0,0,0-.2h0v-.2h0c.2.2.4.5.7.7s.6.3,1,.3.8,0,1-.3.4-.4.4-.8v-.5l-.3-.3s-.3-.2-.5-.2h-.6c-.2,0-.4,0-.6-.2-.2,0-.4-.2-.5-.3-.2,0-.3-.3-.4-.4,0-.2-.2-.4-.2-.7v-.6c0-.2.2-.3.4-.5.2,0,.4-.2.6-.3h1.4-.2ZM38.3,36.4v5.1c0,.2,0,.3-.3.3h0q-.2,0-.2-.3v-5.1c0-.2,0-.3.2-.3h0c.1,0,.2,0,.2.3h0Z"/>
  </g>
  <g class="st8">
    <polygon class="st2" points="61.3 7.3 61.3 42.7 62.3 42.7 62.3 35.9 75.2 35.9 75.2 31.8 65.3 31.8 65.3 27 73.7 27 73.7 22.9 65.3 22.9 65.3 18.3 75.2 18.3 75.2 14.1 62.3 14.1 62.3 7.3 61.3 7.3"/>
    <polygon class="st2" points="22.3 14.1 22.3 27.5 18.6 21.5 13.9 14.2 13.9 14.1 10 14.1 10 35.9 14.3 35.9 14.3 22.5 17.5 27.7 22.7 35.9 26.6 35.9 26.6 14.1 22.3 14.1"/>
    <polygon class="st2" points="29 35.9 43.3 35.9 43.3 31.8 33.4 31.8 33.4 27 41.8 27 41.8 22.9 33.4 22.9 33.4 18.3 43.3 18.3 43.3 14.1 29 14.1 29 35.9"/>
    <polygon class="st2" points="45 18.3 50 18.3 50 35.9 54.3 35.9 54.3 18.3 59.3 18.3 59.3 14.1 45 14.1 45 18.3"/>
    <polygon class="st2" points="89.6 27.5 86 21.6 81.3 14.2 81.2 14.1 77.4 14.1 77.4 35.9 81.7 35.9 81.7 22.5 84.9 27.8 90 35.9 94 35.9 94 14.1 89.6 14.1 89.6 27.5"/>
    <polygon class="st2" points="95.7 14.1 95.7 18.3 100.7 18.3 100.7 35.9 105.1 35.9 105.1 18.3 110 18.3 110 14.1 95.7 14.1"/>
  </g>
  <g class="st8">
    <path class="st2" d="M20.2,39c-1.6,0-2.8-1.3-2.8-2.8s1.3-2.8,2.8-2.8,2.8,1.3,2.8,2.8-1.3,2.8-2.8,2.8Z"/>
    <path class="st2" d="M47.4,36.2c0-1.5,1.3-2.8,2.8-2.8s2.8,1.2,2.8,2.8-1.3,2.8-2.8,2.8-2.8-1.2-2.8-2.8Z"/>
    <path class="st2" d="M42.7,39c-1.5,0-2.8-1.3-2.8-2.8s1.3-2.8,2.8-2.8,2.8,1.3,2.8,2.8-1.3,2.8-2.8,2.8Z"/>
    <path class="st6" d="M32.4,36.2c0-1.5,1.3-2.8,2.8-2.8s2.8,1.2,2.8,2.8-1.3,2.8-2.8,2.8-2.8-1.3-2.8-2.8Z"/>
    <path class="st2" d="M27.7,39c-1.6,0-2.8-1.3-2.8-2.8s1.3-2.8,2.8-2.8,2.7,1.2,2.7,2.8-1.2,2.8-2.7,2.8Z"/>
    <path class="st2" d="M15.5,36.2c0,1.6-1.2,2.8-2.7,2.8s-2.8-1.3-2.8-2.8,1.3-2.8,2.8-2.8,2.7,1.2,2.7,2.8Z"/>
    <g>
      <g>
        <path class="st2" d="M78.2,32.5v3.5c0,3.3-2.5,5.8-5.8,5.9-1.5,0-2.9-.2-4.2-1.2-1.4-1-2-2.4-2.1-4.1-.2-2.7,0-5.5,0-8.2s0-.4.4-.4h2.6c.4,0,.4.1.4.5v8c.2,1.3,1.1,2.1,2.4,2.1s2.4-.9,2.6-2.1v-7.9c0-.4,0-.5.5-.5h2.5c.4,0,.5.1.5.5v3.9h.2Z"/>
        <path class="st2" d="M61.1,33.9v2.3c0,1.4.8,2.1,2.1,2.1s.5,0,.5.5v2.2c0,.5-.2.5-.6.5-2.9,0-5-1.4-5.5-4.5v-12.1c0-.4,0-.6.5-.5h2.5c.3,0,.5.1.5.5v2.6c0,.3,0,.5.4.4h1.6c.3,0,.4.1.4.4v2.3c0,.3,0,.4-.4.4h-1.6c-.3,0-.4.1-.4.4v2.5h0Z"/>
        <path class="st2" d="M94.8,34.5c0-2.4-1.1-4.3-3-5.7-2.2-1.6-5.4-1.4-7.1.2,0,.1,0,.2-.2.1s0-.2,0-.3v-6.4c0-.4,0-.5-.5-.5h-2.6c-.4,0-.5.1-.5.5v12.4c0,2.2.8,4,2.5,5.5,2.5,2.2,6.9,2.1,9.3-.2,1.6-1.5,2.3-3.4,2.2-5.6h-.1ZM90.1,37.7c-.6.6-1.4.9-2.3.9-1.3,0-2.2-.6-2.8-1.7-.9-1.5-.8-3.6.4-4.9,1.4-1.5,3.7-1.5,5,0,1.4,1.7,1.2,4.2-.3,5.6h0Z"/>
        <path class="st2" d="M101.1,37.1c2.8-1.2,5.7-2.4,8.5-3.6.3,0,.4-.2.3-.6-.7-3.2-3.3-5.3-6.6-5.3h-.8c-5.1.7-7.7,6.2-5.3,10.5,1.5,2.8,4.4,4.1,7.5,3.5,2.4-.4,4.1-1.8,5-4.1,0-.3,0-.4-.3-.4h-3c-.2,0-.4,0-.5.2-1,1.6-3.7,1.7-5,.5-.3-.3-.3-.5.2-.7ZM100,34.4c-.3,0-.4,0-.4-.2,0-1.9,1.8-3.5,3.5-3.5s1.9.3,2.6.9c.2.2.2.3,0,.4-1.8.8-3.7,1.6-5.6,2.4h0Z"/>
      </g>
      <g>
        <path class="st2" d="M78.2,17.6v4c0,.4,0,.5-.5.5h-2.5c-.4,0-.5-.1-.5-.5v-7.1c0-.5,0-.9-.2-1.3-.2-.8-.8-1.3-1.6-1.5-1.9-.5-3.4.7-3.4,2.7v7.2c0,.4,0,.6-.6.5h-2.5c-.4,0-.5-.1-.5-.5v-7.3c0-1.5.4-2.9,1.4-4.1,1.1-1.3,2.5-1.9,4.1-2,1.1-.1,2.2,0,3.3.5,2.2.9,3.2,2.7,3.4,5,.2,1.2,0,2.5,0,3.9h0Z"/>
        <path class="st2" d="M26.7,17.6v-3.6c0-2,.7-3.7,2.3-4.8,1.4-1,2.9-1.2,4.5-1,.3,0,.3.2.3.4v2.6q0,.3-.4.3c-.9-.1-1.8,0-2.5.7-.6.5-.8,1.2-.8,2v7.4c0,.4-.2.6-.6.6h-2.4c-.3,0-.5-.2-.5-.6.1-1.4.1-2.7.1-4Z"/>
        <path class="st2" d="M24,15.2c0-1.8-.6-3.4-1.8-4.7-1.6-1.8-3.6-2.5-6-2.3-1.9.2-3.4,1-4.6,2.5s-1.7,3.3-1.6,5.2c.2,2.6,1.4,4.6,3.7,5.8,2.2,1.1,4.4,1,6.4-.5.1,0,.1-.1.2-.1s.1.1.1.2c.1,1.9-.5,4.1-3.3,4.2-1.1.1-2.2-.2-2.9-1.3-.1-.2-.3-.2-.5-.2h-3.1c-.3,0-.4.1-.3.4.3,1.1.8,2,1.7,2.7,1.6,1.4,3.5,1.8,5.5,1.7,3.6-.3,6-2.6,6.3-6.2.1-1.3,0-2.7.1-3.8.1-1.5.2-2.5,0-3.6ZM19.5,18c-1.6,1.8-4.5,1.2-5.5-1-.3-.6-.4-1.2-.4-1.6,0-1.3.4-2.4,1.2-3.1,1.6-1.4,3.8-1.1,5,.7,1.1,1.6.9,3.7-.3,5Z"/>
        <path class="st2" d="M39.5,17.7c2.9-1.2,5.8-2.4,8.7-3.7.2-.1.4-.2.3-.5-.4-1.8-1.3-3.4-3-4.4-3.3-2-7.5-1-9.5,2.4-1.5,2.4-1.5,4.9,0,7.4,1.3,2.3,3.4,3.5,6.1,3.5s1.9-.2,2.8-.5c1.7-.7,2.9-2,3.6-3.7,0-.2.2-.4-.2-.4h-3.2c-.2,0-.3.1-.4.2-1.1,1.7-3.8,1.8-5.2.3-.2-.3-.2-.5,0-.6h0ZM38.6,14.9c-.2.1-.4.1-.3-.2.3-2.2,1.9-3.6,3.7-3.5.9,0,1.7.3,2.4.9.2.2.3.3,0,.4-2,.8-3.9,1.6-5.8,2.4Z"/>
        <path class="st2" d="M54.8,17.7c2.9-1.2,5.8-2.4,8.7-3.7.2-.1.4-.2.3-.5-.8-3.6-3.8-5.8-7.5-5.3-3.7.4-6.4,3.8-6.1,7.6.3,3.7,3.4,6.7,7,6.6,3.1,0,5.4-1.6,6.4-4.2,0-.3,0-.5-.3-.5h-2.9c-.2,0-.4.1-.5.3-1.3,1.6-3.7,1.8-5.2.3s-.3-.5,0-.6h0ZM53.9,14.9c-.4.2-.4-.1-.3-.3.2-1.8,1.7-3.5,3.7-3.4.9,0,1.6.3,2.3.9.2.2.3.3,0,.5-1.9.7-3.7,1.5-5.6,2.3h-.1Z"/>
      </g>
    </g>
  </g>
  <g class="st8">
    <path class="st2" d="M35.5,9.5h10.9l.3,3.5h-.7c-.3-1.5-.3-1.8-.8-2.3-.6-.6-1.6-.5-2.5-.5h-2.8c-.2,0-.4.1-.5.2,0,.1-.2.3-.2.5v4.5h1.2c.7,0,1.2-.2,1.6-.7.4-.4.6-1.1.7-2.1h.7v6.4h-.7c0-1-.3-1.8-.7-2.2-.4-.5-1-.7-1.7-.7h-1.1v5.1c0,.2,0,.3.2.5,0,.1.4.2.7.2h2.2c2.4,0,3.8-.7,4.1-3.7h.6l-.2,4.4h-11.3v-.7h.6c.4,0,.6-.1.8-.2s.2-.3.2-.5v-10.3c0-.2,0-.4-.2-.5,0-.1-.3-.2-.6-.2h-.8s0-.7,0-.7Z"/>
    <path class="st2" d="M46.1,13.8h4.9v.6c-.6,0-1,.1-1.1.2-.2.1-.2.2-.2.4v.4l2.4,5.1,2.2-4.9v-.3c0-.4-.5-.7-1.4-.8v-.6h3.7v.6c-.4,0-.7.1-.9.3s-.4.4-.5.6l-3.3,7.3h-.5l-3.5-7.5c0-.3-.3-.5-.5-.6s-1-.2-1.3-.2v-.6h0,0Z"/>
    <path class="st2" d="M60.2,13.5c1.2,0,2.2.4,3.1,1.3.8.8,1.2,1.9,1.2,3.3s-.2,1.8-.6,2.4c-.4.7-.9,1.2-1.6,1.6-.7.4-1.4.6-2.2.6-1.2,0-2.2-.4-3-1.3-.8-.8-1.2-2-1.2-3.3s.4-2.5,1.2-3.3c.9-.8,1.9-1.3,3.1-1.3M60.2,14.2c-.7,0-1.3.3-1.8.9-.5.6-.7,1.6-.7,3s.2,2.4.7,3,1,1,1.8,1,1.4-.3,1.8-1c.5-.6.7-1.7.7-3.1s-.2-2.3-.7-2.9c-.4-.6-1-.9-1.8-.9"/>
    <path class="st2" d="M67.5,9.4v11.8c0,.2,0,.3.2.4s.4.2.6.2h.6v.7h-4.4v-.7h.5c.3,0,.5-.1.7-.2,0-.1.2-.3.2-.6v-9.8c0-.3,0-.5-.3-.7-.2-.2-.5-.3-.9-.3h-.8v-.7h3.6Z"/>
    <path class="st2" d="M72,13.6v5.7c0,.7.2,1.2.6,1.6s.8.6,1.4.6,1.3-.3,1.8-.8c.5-.6.8-1.3.8-2.1v-3.2c0-.3,0-.5-.3-.7-.2-.2-.6-.3-1.3-.3v-.6l3.2-.2v7.1c0,.3,0,.6.3.8.2.2.5.3.8.3h.6v.6h-3c0,.1-.2-1.6-.2-1.6-.5.6-1.1,1.1-1.6,1.4s-1.1.5-1.7.5-1.5-.3-2-.8c-.6-.5-.8-1.4-.8-2.6v-3.8c0-.3,0-.6-.4-.8-.2-.1-.6-.2-1.2-.2v-.6s3-.3,3-.3Z"/>
    <path class="st2" d="M81.6,10.3h.6v3.5h5.5v.8h-5.5v5.5c0,.5,0,.8.4,1.1.2.3.5.4.9.4s.8-.2,1.1-.6c.3-.4.5-1,.5-1.9h.6c0,1.2-.3,2-.8,2.6s-1.2.8-2,.8-1.3-.2-1.7-.6c-.4-.4-.6-.9-.6-1.5v-5.8h-1.6v-.6c.7-.1,1.3-.4,1.6-.9.7-.6,1-1.6,1-2.8"/>
    <path class="st2" d="M85.8,13.8h3.6c0-.1,0,7.3,0,7.3,0,.2,0,.3.2.4s.3.2.6.2h.6v.7h-4.4v-.7h.6c.3,0,.5-.1.6-.2s.2-.3.2-.6v-5.3c0-.3,0-.6-.3-.8-.2-.2-.5-.3-.9-.3h-.7v-.7h0ZM88.3,9.7c.3,0,.5.1.8.3.2.2.3.5.3.7,0,.3,0,.5-.3.7s-.5.3-.8.3-.5-.1-.8-.3c-.2-.2-.3-.4-.3-.7s0-.5.3-.7.5-.3.8-.3"/>
    <path class="st2" d="M95.3,13.5c1.2,0,2.2.4,3.1,1.3.8.8,1.2,1.9,1.2,3.3s-.2,1.8-.6,2.4c-.4.7-.9,1.2-1.6,1.6s-1.4.6-2.2.6c-1.2,0-2.2-.4-3-1.3-.8-.8-1.2-2-1.2-3.3s.4-2.5,1.2-3.3c.9-.8,1.9-1.3,3.1-1.3M95.3,14.2c-.7,0-1.3.3-1.8.9-.5.6-.7,1.6-.7,3s.2,2.4.7,3,1,1,1.8,1,1.4-.3,1.8-1c.5-.6.7-1.7.7-3.1s-.2-2.3-.7-2.9c-.4-.6-1-.9-1.8-.9"/>
    <path class="st2" d="M99.4,13.8l3-.2c0,.5.2,1.2.3,1.9.4-.6.9-1.1,1.4-1.4.5-.3,1.2-.5,1.9-.5s1.1.1,1.5.3.7.6,1,1.1c.2.5.4,1,.4,1.6v4.2c0,.3,0,.5.2.7,0,.1.4.2.7.2h.3v.7h-4v-.7h0c.4,0,.7-.1.9-.2.2-.1.2-.3.2-.6v-3.7c0-.8,0-1.4-.4-1.8-.4-.6-.9-.8-1.6-.8s-1.3.3-1.8.8c-.5.6-.7,1.3-.7,2.2v3.2c0,.3,0,.5.2.7.2.1.4.2.7.2h.3v.7h-4v-.7h.3c.3,0,.6-.1.7-.2.2-.1.2-.3.2-.5v-5.6c0-.4,0-.6-.3-.8-.2-.2-.5-.3-.9-.3h-.5v-.5h0Z"/>
    <path class="st2" d="M50.9,25.3l.8-1.4h.6l.4,5.4h-.7c-.5-1.6-1-2.7-1.7-3.4-.8-.9-1.8-1.3-2.9-1.3s-1.6.2-2.2.7c-.7.4-1.2,1.1-1.5,2s-.5,1.8-.5,3.4.2,2.5.5,3.3c.3.9.8,1.5,1.4,2,.6.4,1.3.6,2.2.6s2-.3,2.6-.9c.6-.6.9-1.4.9-2.3v-1.3c0-.2,0-.4-.2-.5s-.4-.2-.8-.2h-1.2v-.6h5.6v.6h-.4c-.4,0-.6.1-.8.2s-.2.3-.2.5v5.2h-.6c-.2-.8-.5-1.6-.7-2.3-.5.8-1.1,1.3-1.7,1.7-.7.4-1.4.6-2.3.6s-2.3-.3-3.3-.9c-1-.6-1.8-1.4-2.4-2.5-.6-1.1-.9-1.9-.9-3.3s.3-2.2.9-3.3c.6-1.1,1.4-1.9,2.4-2.6,1-.6,2.1-.9,3.1-.9s1.2.1,1.7.3c.6.3,1.2.7,1.9,1.2"/>
    <path class="st2" d="M63.8,36.5l.2.3c0,.5-.6.4-1.2.4s-1.3,0-1.6-.2-.4-.5-.6-1c-.6.6-1.1,1-1.6,1.2s-1,.3-1.7.3-1.6-.2-2.1-.6c-.5-.4-.7-.9-.7-1.5,0-.9.6-1.6,1.6-2.2,1.1-.6,2.6-1,4.4-1.2v-1.3c0-.5-.2-.9-.6-1.2-.4-.3-.9-.5-1.5-.5s-1,.1-1.4.3c-.3.2-.4.3-.4.5s0,.2.2.4c.2.2.3.5.3.7,0,.3,0,.5-.3.7s-.4.3-.7.3-.6-.1-.8-.3c-.2-.2-.3-.5-.3-.8,0-.6.4-1.2,1.1-1.7.7-.5,1.7-.8,2.8-.8s1.9.2,2.5.7c.6.4.8,1,.8,1.6v4.7c0,.4,0,.6.2.8,0,0,.3.3.5.3h.9M60.4,32.6c-1.6.2-2.8.6-3.5,1.1-.5.4-.8.9-.8,1.6s0,.8.4,1.1c.3.3.6.4,1,.4.8,0,1.4-.3,2-.8.6-.6.8-1.2.8-2.1v-1.3h0Z"/>
    <path class="st2" d="M63.4,28.5l2.6-.2c0,.6.2,1.3.3,1.8.5-.7,1-1.1,1.5-1.4s1-.4,1.6-.4,1.1.2,1.5.5.7.8.9,1.5c.4-.7.9-1.2,1.4-1.5s1.1-.5,1.7-.5,1.4.2,1.8.7c.5.6.8,1.4.8,2.4v4.3c0,.3,0,.4.2.5.2,0,.4.2.8.2h.5v.7h-4.5v-.7h.5c.4,0,.7,0,.8-.2.2,0,.2-.2.2-.5v-4.3c0-.6-.2-1.1-.5-1.5s-.8-.5-1.3-.5-.8.1-1.1.3c-.3.2-.6.5-.8.9-.3.5-.4,1-.4,1.4v3.7c0,.3,0,.4.2.6,0,0,.4.2.7.2h.6v.7h-4.6v-.7h.5c.3,0,.6,0,.7-.2.2,0,.2-.3.2-.5v-4c0-.8-.2-1.5-.5-1.8-.3-.4-.7-.6-1.3-.6s-1.2.2-1.6.7c-.5.6-.8,1.4-.8,2.2v3.5c0,.3,0,.4.2.5.2,0,.4.2.8.2h.5v.7h-4.5v-.7h.7c.3,0,.5,0,.6-.2,0,0,.2-.3.2-.5v-5.7c0-.3,0-.5-.2-.7s-.5-.3-1-.3v-.6h.1Z"/>
    <path class="st2" d="M79.3,28.5h3.2c0-.1,0,7.3,0,7.3,0,.2,0,.3.2.4,0,0,.3.2.6.2h1v.7h-5.5v-.7h1.2c.3,0,.5,0,.6-.2,0,0,.2-.3.2-.6v-5.4c0-.3,0-.6-.3-.8-.2-.2-.5-.3-.9-.3h-.4v-.6h.1ZM81.4,24.4c.3,0,.5.1.8.3.2.2.3.5.3.7,0,.3,0,.5-.3.7-.2.2-.5.3-.8.3s-.5-.1-.8-.3c-.2-.2-.3-.4-.3-.7s0-.5.3-.7.5-.3.8-.3"/>
    <path class="st2" d="M84,28.5l3-.2c0,.5.2,1.2.3,1.9.4-.6.9-1.1,1.4-1.4s1.2-.5,1.9-.5,1.1.1,1.5.3c.4.2.7.6,1,1.1.2.5.4,1,.4,1.6v4.2c0,.3,0,.5.2.7,0,0,.4.2.7.2h.3v.7h-4v-.7h0c.4,0,.7,0,.9-.2s.2-.3.2-.6v-3.6c0-.8,0-1.4-.4-1.8-.4-.6-.9-.8-1.6-.8s-1.3.3-1.8.8c-.5.6-.7,1.3-.7,2.2v3.2c0,.3,0,.5.2.7.2,0,.4.2.7.2h.3v.7h-4.6v-.7h.6c.3,0,.6,0,.7-.2.2,0,.2-.3.2-.5v-5.6c0-.4,0-.6-.3-.8-.2-.2-.5-.3-.9-.3h-.3v-.6h.1Z"/>
    <path class="st2" d="M101.4,29c.6-.6,2.4-1.5,3-1.6.4,0,.7,0,.9.2.2.2-.2.6-.2.9s0,.4-.2.6-.3.2-.5.2c-.4,0-.6-.2-.7-.6,0-.2,0-.3-.3-.3s-1.3.6-1.6.9c.3.4.5.7.6.9,0,.3.2.6.2.9,0,.5,0,1-.4,1.4s-.7.8-1.3,1.1c-.6.3-1.2.5-1.8.5h-1c-.7,0-1.2,0-1.5.2-.2.2-.4.4-.4.7s0,.4.3.6c.2,0,.6.2,1.1.2h2.4c1.2,0,2.1.2,2.6.6.5.4.8.9.8,1.6s-.3,1.4-.9,1.9c-.8.7-2.1,1.1-3.8,1.1s-2.4-.2-3.1-.7c-.5-.4-.8-.8-.8-1.3s.2-.7.5-1,.9-.5,1.7-.7c-.6,0-1.1-.4-1.4-.7s-.5-.6-.5-1.1,0-.7.4-1,.7-.5,1.4-.8c-.5-.3-1-.6-1.2-1-.3-.4-.4-.9-.4-1.4,0-.8.3-1.5,1-2.1s1.6-.8,2.7-.8.9.1,1.3.2c.3,0,.7.1,1.1.4M99.4,37.2c-1.2,0-2,.2-2.5.5s-.8.7-.8,1.1.2.7.6,1c.5.3,1.2.5,2.1.5s1.9-.2,2.5-.5c.6-.4.8-.7.8-1.2s0-.5-.3-.7c-.2-.2-.4-.4-.8-.5-.3-.2-.8-.2-1.6-.2M98.9,28.8c-.6,0-1,.2-1.4.6s-.6,1-.6,1.7.2,1.4.6,1.8.8.6,1.4.6,1-.2,1.4-.6c.4-.4.6-1,.6-1.8s-.2-1.3-.6-1.7-.9-.6-1.4-.6"/>
    <path class="st2" d="M104.7,27.5c.3,0,.5.1.8.3.2.2.3.5.3.7,0,.3,0,.5-.3.7-.2.2-.5.3-.8.3s-.5-.1-.8-.3c-.2-.2-.3-.4-.3-.7s0-.5.3-.7.5-.3.8-.3"/>
    <path class="st2" d="M29.6,35.8h-.3v-.6h.6c.1,0,.2.2.2.2-.1.3-.4.4-.5.4M30.3,35.5c0-.2-.1-.4-.2-.5h-1.2v1.8h.4v-.7h.3l.4.7h.4l-.4-.7c.1,0,.3-.2.3-.5M29.6,37.3c-.8,0-1.5-.6-1.5-1.4s.7-1.4,1.5-1.4,1.5.6,1.5,1.4c-.1.7-.7,1.4-1.5,1.4M29.6,34.1c-1,0-1.8.8-1.8,1.8s.8,1.8,1.8,1.8,1.8-.8,1.8-1.8-.8-1.8-1.8-1.8"/>
    <path class="st2" d="M10,10.9c8.9-4.5,20.3.2,21.2,11.8-16.4,1.2-18.4-5.9-21.2-11.8"/>
    <path class="st2" d="M10,35.7c8.9,4.5,20.3-.2,21.2-11.8-16.4-1.3-18.4,5.8-21.2,11.8"/>
    <path class="st2" d="M28.1,14.5c-4.1-5.3-11.8-6.9-18.1-3.6,2.5,5.3,4.3,11.6,16.5,11.9,1.1-2,1.8-4.2,1.8-6.6s0-1.1-.2-1.7M13,29.8h1.1c4.9,0,9.3-2.4,11.8-6.1-7.3.4-10.8,3-12.9,6.1"/>
  </g>
  <g class="st8">
    <path class="st2" d="M67.4,6.2h-.2c-1.2-.5-2.5-.8-3.7-1.2h1c0,.2.2.2.3.2,4,.6,8,1.4,11.9,2.4,5,1.3,9.8,2.8,14.5,5.1,2.7,1.3,5.2,2.9,7.3,5,1.1,1.1,2,2.3,2.6,3.8,1,2.5.6,4.8-.9,7-.6.9-1.3,1.6-2.1,2.4-2.4,2.4-5.4,4-8.5,5.4-3.1,1.6-6.6,2.7-10.1,3.7-3.3.9-6.6,1.7-9.9,2.3-3.1.6-6.3,1.1-9.5,1.5-3,.4-5.9.6-8.9.8-5.6.4-11.2.5-16.8.4-4.8,0-9.6-.4-14.4-.9-.6,0-1.2,0-1.7-.2h10c4.3,0,8.6-.3,12.9-.8,3.2-.3,6.5-.7,9.7-1.2,5.8-.9,11.5-2.2,17.1-4,4.1-1.3,8-3,11.6-5.2,2.4-1.5,4.5-3.2,6.2-5.5,1.2-1.8,1.9-3.8,1.6-6-.2-1.7-1-3.2-2-4.6-.9-1.1-1.9-2.1-3-3-2.3-1.8-4.8-3.3-7.5-4.5-1-.4-1.9-.8-2.9-1.2h-.4c-1.3-.6-2.7-1.1-4.1-1.5h0v-.2h0Z"/>
    <path class="st2" d="M72.9,17.3c.6-.5,1.1-1,1.7-1.4,4.2-2.5,9.6-.3,10.8,4.4,1.1,4.3-1.9,8.6-6.4,9-3.3.3-6.4-1.6-7.5-4.7-.9-2.5-.5-4.8,1.1-6.9.2-.2.3-.3.3-.4h0Z"/>
    <path class="st2" d="M47,14.5h1.5s.2.1.4.1c1.8.3,3.3,1.1,4.3,2.6.2.3.2.4,0,.6-.6.3-1.2.6-1.7,1-.3.2-.5.1-.7-.1-.5-.6-1-1.1-1.8-1.4h0c-1.5-.6-4.1.1-5.2,1.4h0c-.3.2-.5.4-.7.7h0c-.2.2-.4.4-.5.7h0c-.6.7-.9,1.6-1,2.5,0,.7-.2,1.4.2,2.1h0c.2.8.7,1.3,1.4,1.7h0c.4.3.9.5,1.4.5h.5c1.8,0,3.2-.7,4.4-2,0-.2.4-.3.4-.6h-3.9c-.3,0-.4-.1-.3-.4.2-.6.4-1.2.5-1.8,0-.3.2-.4.6-.4h6.3c.3,0,.5.2.4.5-.2.7-.4,1.3-.6,2h0c0,.1,0,.2-.2.2-1.5,3.2-4.7,5.3-8.7,4.9-1.3-.1-2.5-.6-3.4-1.6-.6-.6-1-1.4-1.3-2.2h0c-.5-2.1-.2-3.9.7-5.7.5-1,1.2-1.8,2-2.6h0c.3-.3.5-.5.7-.7h0c.3-.1.5-.3.7-.5h0c.8-.8,2.1-1.4,3.6-1.6h0Z"/>
    <path class="st2" d="M29.3,21.3h0c.1-.2.1-.4.2-.5.5-1.8,1.1-3.7,1.6-5.5.1-.2.1-.4.5-.4h7s.3-.1.3.2v.2c-.2.6-.4,1.2-.5,1.8,0,.3-.2.5-.6.4h-4.2c-.3,0-.4.1-.5.4-.2.7-.4,1.4-.6,2,0,.4,0,.5.4.5h4c.3,0,.5,0,.4.4-.2.5-.3,1.1-.5,1.7,0,.3-.2.4-.5.4h-4.2c-.3,0-.4.1-.5.4-.3,1-.5,2-.9,2.9-.1.4,0,.4.3.4h4.2c.3,0,.4.1.3.4-.2.6-.4,1.2-.6,1.8,0,.2-.2.2-.4.2h-7.4c.3-1.1.6-2.2,1-3.3.4-1.5.8-2.9,1.2-4.4Z"/>
    <path class="st2" d="M56.3,15v-.2h7.8c.5,0,.7.2.6.7v.3h0c-.2.3-.3.7-.3,1s-.3.5-.7.5h-2c-.4,0-.5.1-.6.5-.2.7-.4,1.4-.6,2.1-.4,1.4-.8,2.8-1.2,4.3v.5c-.4,1.3-.8,2.7-1.2,4,0,.2,0,.3-.4.3h-2c-.3,0-.3-.1-.3-.3.5-1.5.9-3.1,1.3-4.6.4-1.4.8-2.9,1.2-4.3h0c.3-.7.4-1.4.6-2.1q0-.2-.2-.2h-2.2c-.3,0-.5-.2-.4-.5.2-.7.5-1.3.6-2h0Z"/>
  </g>
  <path class="st0" d="M115,50H5c-2.8,0-5-2.2-5-5V5C0,2.2,2.2,0,5,0h110c2.8,0,5,2.2,5,5v40c0,2.8-2.2,5-5,5Z"/>
  <g>
    <g id="logo_x5F_colour">
      <path class="st7" d="M22.2,22.7c-1.1-.6-2.2-1-3.3-1.2-.4,1.1-.7,2.2-.7,3.5s.2,2.4.7,3.5h0c1.1-.2,2.3-.5,3.3-1.2s2-1.4,2.7-2.3c-.7-.9-1.6-1.7-2.7-2.3Z"/>
      <path class="st5" d="M24.9,25h0c-.7.9-1.6,1.7-2.7,2.3-1.1.6-2.2,1-3.3,1.2-1.3,1.2-2.3,3.1-2.6,4.5h0c2.6-.4,5.2-1.3,7.7-2.7s4.5-3.2,6.2-5.3c-1.5.5-3.7.5-5.2,0Z"/>
      <path class="st3" d="M24,19.7c-2.4-1.4-5.1-2.3-7.7-2.7h0c1.3,1.4,2.2,2.9,2.6,4.5,1.1.2,2.3.5,3.3,1.2,1.1.6,2,1.4,2.7,2.3h0c1.5.5,3.7.5,5.2,0-1.6-2.1-3.7-3.9-6.2-5.3Z"/>
      <path class="st4" d="M18.3,25c0-1.2.2-2.4.7-3.5-.4-1.7-1.3-3.2-2.6-4.5h0c-1,2.5-1.5,5.2-1.5,8s.5,5.5,1.5,8c.4-1.5,1.3-3.4,2.6-4.5h0c-.4-1.1-.7-2.2-.7-3.5Z"/>
    </g>
    <path class="st3" d="M40.8,29.7h-2.4l-3-4.4h1c1.3,0,2-.6,2-1.6s-.7-1.6-2-1.6h-1.8v7.7h-2.2v-9.5h4.1c2.5,0,4.1,1.3,4.1,3.4s-.7,2.5-2,3l2.1,3ZM46.2,29.8c2.7,0,4.3-1.5,4.3-4.3v-5.3h-2.2v5.2c0,1.8-.8,2.5-2.1,2.5s-2.1-.7-2.1-2.5v-5.2h-2.2v5.3c0,2.8,1.6,4.3,4.3,4.3ZM58.7,24.7c.8-.4,1.3-1.1,1.3-2.1,0-1.5-1.2-2.5-3.6-2.5h-4.6v9.5h4.9c2.5,0,3.8-.9,3.8-2.6,0-1.2-.7-2-1.7-2.3ZM56.1,21.8c1.1,0,1.7.4,1.7,1.1s-.6,1.1-1.7,1.1h-2.2v-2.2h2.2ZM56.5,28h-2.6v-2.3h2.6c1.1,0,1.8.4,1.8,1.2,0,.8-.6,1.2-1.8,1.2ZM69.8,20.2h-2.2l-2.5,4.2-2.5-4.2h-2.3l3.7,6.1v3.4h2.2v-3.4l3.7-6.1Z"/>
    <path d="M79.3,23.6c0,2.1-1.6,3.4-4.1,3.4h-1.1v-1.8h1c1.3,0,2-.6,2-1.6s-.7-1.6-2-1.6h-1.8v7.7h-2.2v-9.5h4.1c2.5,0,4.1,1.3,4.1,3.4ZM80.6,29.7h5.6l.8-1.8h-4.2v-7.7h-2.2v9.5h0ZM95.8,29.7h2.3l-4.2-9.5h-2.2l-4.2,9.5h2.3l.8-2h4.4l.8,2ZM91.2,26l1.5-3.6,1.5,3.6h-3ZM105.2,20.2h-2.2l-2.5,4.2-2.5-4.2h-2.3l3.7,6.1v3.4h2.2v-3.4l3.7-6.1Z"/>
  </g>
</svg>