<svg width="32" height="32" viewBox="0 0 32 32" fill="none" xmlns="http://www.w3.org/2000/svg">
<rect width="32" height="32" rx="10" fill="url(#paint0_linear_12781_23048)"/>
<path d="M23.6535 16.1732C23.6535 15.8961 23.5842 15.619 23.4457 15.342C23.3072 14.9957 23.0994 14.7186 22.8223 14.4416C22.753 14.3723 22.753 14.3723 22.6838 14.303C22.476 14.1645 22.2682 14.0952 22.0604 13.9567C21.8526 13.8874 21.5756 13.8874 21.3678 13.8182C21.0907 13.8182 20.7444 13.8182 20.4673 13.8182C20.2595 13.8182 20.0517 13.8182 19.844 13.8182C19.5669 13.8182 19.2206 13.8182 18.9435 13.8182C18.5972 13.8182 18.2509 13.8182 17.9046 13.8182C17.5582 13.8182 17.2119 13.8182 16.8656 13.8182C16.5885 13.8182 16.2422 13.8182 15.9652 13.8182C15.7574 13.8182 15.5496 13.8182 15.3418 13.8182C15.134 13.8182 14.8569 13.8182 14.6491 13.8182C14.4414 13.8182 14.1643 13.8182 13.9565 13.8182C13.6795 13.8182 13.3331 13.8182 13.0561 13.8182C12.779 13.8182 12.8483 13.8182 12.779 13.6104C12.779 13.3333 12.779 13.1255 12.779 12.8485C12.779 12.7792 12.779 12.71 12.9175 12.71C13.1253 12.71 13.4024 12.71 13.6102 12.71C13.818 12.71 14.095 12.71 14.3028 12.71C14.4414 12.71 14.6491 12.71 14.7877 12.71C15.0647 12.71 15.3418 12.71 15.6188 12.71C15.6188 12.6407 15.6188 12.5022 15.5496 12.4329C15.5496 12.5022 15.5496 12.6407 15.6188 12.71C15.8959 12.71 16.2422 12.71 16.5193 12.71C16.6578 12.71 16.7963 12.71 16.9349 12.71C17.2119 12.71 17.5582 12.71 17.8353 12.71C18.1124 12.71 18.3894 12.71 18.6665 12.71C19.0128 12.71 19.3591 12.71 19.7054 12.71C19.7747 12.71 19.7747 12.71 19.844 12.71C19.9825 12.71 20.121 12.71 20.3288 12.71C20.4673 12.71 20.5366 12.71 20.6751 12.71C21.0214 12.7792 21.2985 12.8485 21.6448 12.9177C22.2682 13.1255 22.8916 13.4026 23.4457 13.7489C23.5149 13.7489 23.515 13.8182 23.5842 13.8182C23.515 13.3333 22.5453 11.8095 21.8526 11.0476C21.5063 10.7013 21.0907 10.355 20.7444 10.0087C20.7444 10.0779 20.7444 10.1472 20.6751 10.1472C20.6751 10.0779 20.6751 10.0087 20.7444 10.0087L20.6751 9.93939C20.3288 9.7316 19.9825 9.45454 19.7054 9.24675C19.6362 9.24675 19.6362 9.17749 19.5669 9.17749C19.3591 9.03896 19.1513 8.9697 18.9435 8.83117C18.6665 8.69264 18.4587 8.62338 18.1816 8.48485C17.6968 8.27706 17.1427 8.20779 16.6578 8.06926C16.3115 8.06926 15.8959 8 15.5496 8C15.2725 8 14.9955 8 14.7184 8C14.5106 8 14.2336 8 14.0258 8C13.6795 8 13.4024 8 13.0561 8C12.8483 8 12.5712 8 12.3634 8C12.1556 8 11.8786 8 11.6708 8C11.3937 8 11.1859 8 10.9089 8C10.7011 8 10.5626 8 10.3548 8C10.147 8 9.93919 8 9.80067 8C9.59287 8 9.38508 8 9.17729 8C8.90023 8 8.69244 8 8.41538 8C8.27686 8 8.27686 8.06926 8.27686 8.13853V8.20779C8.27686 8.27706 8.27686 8.27706 8.27686 8.34632C8.27686 10.9784 8.27686 13.5411 8.27686 16.1732C8.27686 16.2424 8.27686 16.3117 8.27686 16.381V16.4502C8.41538 16.9351 8.62318 17.3506 9.03876 17.697C9.24655 17.9048 9.45434 18.0433 9.7314 18.1818C9.93919 18.2511 10.2162 18.3203 10.4933 18.3203C10.6318 18.3203 10.8396 18.3203 10.9782 18.3203C11.2552 18.3203 11.463 18.3203 11.7401 18.3203C11.9479 18.3203 12.2249 18.3203 12.4327 18.3203C12.4327 18.2511 12.4327 18.1818 12.502 18.1126C12.502 18.1818 12.502 18.2511 12.4327 18.3203C12.7098 18.3203 12.9175 18.3203 13.1946 18.3203C13.4717 18.3203 13.818 18.3203 14.095 18.3203C14.095 18.2511 14.095 18.1818 14.1643 18.1126C14.1643 18.1818 14.1643 18.2511 14.095 18.3203C14.3028 18.3203 14.5799 18.3203 14.7877 18.3203C14.9955 18.3203 15.2033 18.3203 15.3418 18.3203C15.5496 18.3203 15.7574 18.3203 15.9652 18.3203C16.2422 18.3203 16.5885 18.3203 16.8656 18.3203C17.2119 18.3203 17.6275 18.3203 17.9738 18.3203C18.3201 18.3203 18.5972 18.3203 18.9435 18.3203C19.0128 18.3203 19.0821 18.3203 19.0821 18.4589C19.0821 18.5281 19.0821 18.6667 19.0821 18.7359V18.8052C19.0821 18.9437 19.0821 19.1515 19.0821 19.29C19.0821 19.4286 19.082 19.4286 18.9435 19.4286C18.7357 19.4286 18.4587 19.4286 18.2509 19.4286C17.9738 19.4286 17.766 19.4286 17.489 19.4286C17.2119 19.4286 16.8656 19.4286 16.5885 19.4286C16.3115 19.4286 15.9652 19.4286 15.6881 19.4286C15.4111 19.4286 15.2033 19.4286 14.9262 19.4286C14.9262 19.4978 14.8569 19.4978 14.8569 19.5671C14.8569 19.4978 14.8569 19.4978 14.9262 19.4286C14.6491 19.4286 14.3721 19.4286 14.095 19.4286C13.8872 19.4286 13.7487 19.4286 13.5409 19.4286C13.4024 19.4286 13.2639 19.4286 13.0561 19.4286C12.8483 19.4286 12.5712 19.4286 12.3634 19.4286C12.2942 19.4286 12.2249 19.4286 12.2249 19.4286C11.8786 19.4286 11.5323 19.4286 11.1859 19.3593C10.9782 19.3593 10.7704 19.29 10.5626 19.2208C10.424 19.1515 10.2162 19.1515 10.0777 19.0823C9.86993 19.013 9.7314 18.9437 9.52361 18.8745C9.31582 18.7359 9.10802 18.6667 8.90023 18.5281C8.69244 18.4589 8.55391 18.2511 8.27686 18.1818C8.27686 18.2511 8.27686 18.3203 8.27686 18.3203C8.41538 18.5974 8.48465 18.8052 8.62318 19.013C8.7617 19.29 8.9695 19.5671 9.10802 19.9134C9.31582 20.1905 9.52361 20.4675 9.7314 20.7446C9.93919 20.9524 10.147 21.1602 10.3548 21.368C10.6318 21.645 10.9089 21.8528 11.1859 22.1299C11.2552 21.9221 11.2552 21.7835 11.3245 21.5758C11.3245 21.7835 11.2552 21.9221 11.1859 22.1299C11.5323 22.3377 11.8786 22.6147 12.2249 22.8225C12.502 22.961 12.779 23.0996 13.0561 23.2381C13.3331 23.3766 13.6795 23.4459 13.9565 23.5844C14.1643 23.6537 14.4414 23.7229 14.6491 23.7922C14.7877 23.8615 14.9955 23.8615 15.134 23.8615C15.2725 23.8615 15.3418 23.9307 15.4803 23.9307C15.4803 23.8615 15.4803 23.7922 15.4803 23.7922C15.4803 23.8615 15.4803 23.9307 15.4803 23.9307C15.6881 23.9307 15.8266 23.9307 16.0344 24C16.3115 24 16.6578 24 16.9349 24C17.2119 24 17.5582 24 17.8353 24C18.1816 24 18.5279 24 18.8743 24C19.4284 24 19.9825 24 20.6059 24C21.5756 24 22.5453 24 23.515 24C23.7227 24 23.7227 24 23.7227 23.7922C23.6535 21.4372 23.6535 18.8052 23.6535 16.1732ZM20.3288 11.4632C20.3288 11.5325 20.3288 11.5325 20.3288 11.6017C20.3288 11.5325 20.3288 11.4632 20.3288 11.4632ZM17.0041 20.9524C17.0041 20.8831 16.9349 20.8139 16.9349 20.7446C17.0041 20.8139 17.0041 20.8831 17.0041 20.9524C17.1427 20.9524 17.3504 20.9524 17.489 20.9524C17.3504 20.9524 17.2119 20.9524 17.0041 20.9524ZM17.8353 20.9524V20.8831C17.766 20.8831 17.8353 20.8831 17.8353 20.9524C18.1124 20.9524 18.3894 20.9524 18.5972 20.9524C18.3201 20.9524 18.0431 20.9524 17.8353 20.9524ZM19.2898 20.9524C19.3591 20.9524 19.4976 20.9524 19.5669 20.8831C19.4976 20.8831 19.4284 20.8831 19.2898 20.9524Z" fill="white"/>
<defs>
<linearGradient id="paint0_linear_12781_23048" x1="42.5" y1="-8.5" x2="4.48882e-06" y2="32" gradientUnits="userSpaceOnUse">
<stop stop-color="#35FFB6"/>
<stop offset="1" stop-color="#4E0B77"/>
</linearGradient>
</defs>
</svg>
