<svg width="41" height="48" viewBox="0 0 41 48" fill="none" xmlns="http://www.w3.org/2000/svg">
<path d="M11.666 2.25L3.41602 1.125L2.66602 2.25L1.54102 13.125L3.41602 25.875L7.91602 34.125L7.54102 36.375L8.29102 39L10.166 38.625L18.041 45.375L20.666 48L21.791 47.25C24.916 44.25 31.241 38.25 31.541 38.25C31.916 38.25 32.666 39 33.041 39C33.341 39 33.416 37 33.416 36L33.791 34.875L35.291 32.625L39.416 19.5V9L38.291 1.125L32.666 1.5H27.041L18.791 1.125L11.666 2.25Z" fill="#58C8DE"/>
<ellipse cx="20.7785" cy="16.9875" rx="3.8625" ry="3.8625" fill="white"/>
<path d="M30.447 33.2234C30.447 34.3615 30.0726 34.9453 30.0726 34.9453C30.0726 34.9453 31.2705 35.5745 31.809 36.0979C31.809 36.0979 31.8659 35.5342 31.3598 33.8223C30.8508 32.1003 30.087 31.2019 30.087 31.2019C30.087 31.2019 30.447 32.0852 30.447 33.2234Z" fill="#163E71"/>
<path d="M11.2429 31.2019C11.2429 31.2019 10.4791 32.1003 9.97015 33.8223C9.46407 35.5342 9.52094 36.0979 9.52094 36.0979C10.0601 35.5738 11.2573 34.9453 11.2573 34.9453C11.2573 34.9453 10.883 34.3615 10.883 33.2234C10.883 32.0852 11.2429 31.2019 11.2429 31.2019Z" fill="white"/>
<path d="M38.9238 0.000719899C38.9238 0.000719899 34.8376 1.22887 30.1936 1.16912C26.3068 1.11872 25.6985 0.390185 20.6657 0.390185C15.6329 0.390185 15.0246 1.11944 11.1378 1.16912C6.49304 1.22887 2.4069 0.000719899 2.4069 0.000719899C2.4069 0.000719899 0.87567 6.22209 0.951979 11.8956C1.03189 17.8283 1.75827 25.5809 6.02511 33.4984C6.49664 34.3737 6.99625 35.2038 7.51386 35.9885L7.5117 36.0324C7.51674 37.3657 8.0545 39.0617 8.0545 39.0617C8.0545 39.0617 8.80968 38.8947 9.48494 38.7479L9.53462 38.7399C12.9909 42.9873 16.6991 45.5012 18.2843 46.4717C19.4613 47.1923 20.6664 48 20.6664 48C20.6664 48 21.8708 47.193 23.0486 46.4717C24.6431 45.4955 28.3859 42.9571 31.8601 38.6636L31.8918 38.624C32.5541 38.7903 33.2387 39.0164 33.2387 39.0164C33.2387 39.0164 33.7463 37.3707 33.7751 36.0554L33.8039 36.0115C34.3272 35.2189 34.8319 34.3817 35.3084 33.4976C39.5753 25.5802 40.3017 17.8276 40.3816 11.8949C40.4579 6.22137 38.9267 0 38.9267 0L38.9238 0.000719899ZM37.2939 23.946C36.0211 28.4576 34.6533 31.4776 32.6686 34.5242L32.6362 34.5703C32.7247 34.9439 32.7881 35.2945 32.8327 35.6177L32.8377 35.6588C32.9673 35.8272 33.1797 36.1087 33.387 36.4075L33.2373 38.6579L31.8896 38.1359L31.6528 37.2353L31.624 37.2123C31.4887 37.1101 31.3468 37.0064 31.2108 36.9128C30.9538 37.4816 30.4088 38.5556 29.5838 39.5282C28.4176 40.9025 27.013 41.9025 25.2896 42.5842C23.4308 43.3199 23.0507 43.4927 22.1163 44.5805C21.395 45.4192 21.0984 46.2183 21.0285 46.427L21.423 47.3586C21.0631 47.5925 20.7859 47.7761 20.6657 47.856C20.5455 47.7761 20.269 47.5925 19.9084 47.3586L20.3029 46.427C20.2338 46.2183 19.9364 45.4199 19.2151 44.5805C18.2807 43.4934 17.9006 43.3199 16.0418 42.5842C14.3183 41.9017 12.9138 40.9025 11.7476 39.5282C10.9226 38.5556 10.3776 37.4808 10.1206 36.9128C9.97663 37.0122 9.82474 37.123 9.6822 37.231L9.67932 37.2893L9.657 38.3426L8.26471 38.8962C8.02499 38.1028 7.68088 36.6054 7.68088 36.6054L8.49796 35.6415L8.503 35.5961C8.54475 35.2981 8.60235 34.9785 8.6801 34.638L8.69881 34.5768C6.69461 31.5121 5.31817 28.4828 4.03819 23.9446C2.5012 18.4949 2.28163 11.7077 2.71069 7.54526C3.03969 4.35467 3.64872 1.79615 3.64872 1.79615C3.64872 1.79615 6.57295 2.45486 8.15025 2.55492C12.6921 2.84216 13.8598 2.54484 15.2672 2.35551C16.6746 2.16618 18.1216 1.93653 20.6671 1.94589C23.2127 1.93581 24.6597 2.16546 26.0671 2.35551C27.4745 2.54484 28.6422 2.84288 33.184 2.55492C34.7613 2.45486 37.6855 1.79615 37.6855 1.79615C37.6855 1.79615 38.2946 4.35467 38.6236 7.54526C39.0526 11.7077 38.8331 18.4949 37.2961 23.9446L37.2939 23.946Z" fill="#163E71"/>
<path d="M29.668 29.5749C29.668 29.5749 29.5284 30.9722 28.6098 32.7489C27.6912 34.5256 26.6934 35.5637 26.6934 35.5637L28.3485 35.6134C28.1145 36.0158 27.7819 36.5118 27.3521 36.9805C26.4738 37.9387 25.2558 38.1381 24.2659 37.6227C23.5482 37.249 23.1357 36.4723 22.8607 34.7049C22.4417 32.0096 22.3416 28.7161 22.3416 25.9812V24.3405L22.3402 24.3045H26.8734L28.5903 21.4696H22.3445L22.3423 21.4321V19.939C23.3416 19.3833 24.0211 18.3826 24.0391 17.1444C24.0557 15.9911 23.5705 15.0473 22.8276 14.4167L22.9694 14.5067C23.1385 14.6291 23.3077 14.7824 23.4603 14.9717C24.0363 15.6895 24.1896 16.5793 24.1896 16.5793C24.0089 14.8515 22.6289 13.5543 20.7269 13.5543C18.8249 13.5543 17.1965 15.1294 17.1634 17.0717C17.1403 18.415 17.8703 19.5431 18.9624 20.1392L18.9898 20.1514V21.435L18.9919 21.4688H12.741L14.458 24.3038H18.9883L18.9898 24.3477V25.9812C18.9898 28.7161 18.8897 32.0096 18.4707 34.7049C18.1957 36.4723 17.7832 37.249 17.0655 37.6227C16.0756 38.1381 14.8575 37.9387 13.9793 36.9805C13.5495 36.5118 13.2176 36.0151 12.9829 35.6134L14.638 35.5637C14.638 35.5637 13.6402 34.5256 12.7216 32.7489C11.803 30.9722 11.6634 29.5749 11.6634 29.5749C11.6634 29.5749 10.5439 30.7087 9.72683 32.6093C8.80824 34.7452 8.70889 36.4622 8.7888 37.4801C8.7888 37.4801 9.72683 36.7012 10.2862 36.3823C10.2862 36.3823 10.8851 37.956 12.0226 39.2971C13.1406 40.6146 14.4688 41.5763 16.175 42.2516C18.0913 43.0104 18.5103 43.2098 19.4887 44.348C20.3936 45.4004 20.6664 46.3838 20.6664 46.3838C20.6664 46.3838 20.9393 45.4004 21.8442 44.348C22.8225 43.2098 23.2415 43.0104 25.1579 42.2516C26.864 41.5763 28.1922 40.6146 29.3102 39.2971C30.4477 37.956 31.0466 36.3823 31.0466 36.3823C31.6053 36.7019 32.544 37.4801 32.544 37.4801C32.6239 36.4622 32.5239 34.7452 31.606 32.6093C30.7889 30.7087 29.6695 29.5749 29.6695 29.5749H29.668ZM21.8578 15.5765C21.8679 15.2467 21.9025 14.8328 21.9025 14.8328C21.9025 14.8328 21.9723 14.7234 22.1321 14.6032C22.2919 14.4837 22.3769 14.4397 22.3769 14.4397C22.6951 14.6809 22.9449 14.9602 23.1601 15.2215C23.6778 15.8493 23.8239 16.6894 23.7123 17.4576C23.7123 17.4576 23.5899 17.472 23.3653 17.477C23.1407 17.482 22.9708 17.4619 22.6166 17.0724C22.2624 16.6829 22.0529 16.4634 21.9428 16.2438C21.8334 16.0242 21.8478 15.9047 21.8578 15.575V15.5765ZM21.4036 14.4988C21.6779 14.6881 21.7779 14.7731 21.8075 15.0027C21.8377 15.2323 21.7729 15.7413 21.6527 15.9659C21.5332 16.1905 21.3114 16.3547 20.7391 16.585C20.1805 16.8096 19.9652 16.9097 19.8011 16.7845C19.6362 16.6599 19.2569 16.3806 19.0675 16.1805C19.0193 16.1293 18.9977 16.061 18.9977 15.8162C18.9977 15.5714 19.1172 14.9581 19.2021 14.8134C19.2871 14.6687 19.3965 14.5391 19.7961 14.3591C20.1956 14.1799 20.4598 14.1597 20.6693 14.1597C20.8788 14.1597 21.1293 14.3094 21.4036 14.4988ZM20.6952 13.8134C20.6952 13.8134 20.67 13.92 20.5707 14.01C20.4706 14.0999 20.3187 14.0877 20.0264 14.1899C19.7118 14.3001 19.4822 14.4397 19.2928 14.5542C19.128 14.6543 19.0531 14.6737 18.8789 14.6492C18.704 14.624 18.7054 14.511 18.7054 14.511C19.2165 14.1187 19.9112 13.7731 20.6959 13.8141L20.6952 13.8134ZM17.7249 18.5345C17.6716 18.4431 17.6263 18.3474 17.591 18.2466C17.4182 17.7614 17.3966 17.1703 17.478 16.6182C17.478 16.6182 17.5514 16.7038 17.6263 16.7988C17.6263 16.7988 17.596 17.2329 17.676 17.7318C17.7559 18.2307 17.8106 18.5201 17.8106 18.5201L17.7249 18.5331V18.5345ZM18.5391 19.1198C18.1353 18.8599 17.8854 18.5806 17.8854 18.5806C17.8854 18.5806 17.8307 18.3711 17.7508 17.8218C17.6709 17.2725 17.6911 16.819 17.6911 16.819C17.9459 16.5498 18.4894 16.3352 18.704 16.2654C18.9185 16.1956 19.0085 16.2258 19.2828 16.4598C19.5571 16.6945 19.7169 16.7988 19.8817 16.9889C20.0466 17.1782 20.1214 17.6174 20.1315 18.0572C20.1416 18.4964 20.1265 18.7707 20.1265 18.7707C20.0019 18.9002 19.5477 19.1846 19.308 19.3293C19.0682 19.474 18.9437 19.379 18.5391 19.1198ZM31.5794 36.3679C31.4433 36.2743 30.8364 35.8877 30.8364 35.8877C30.8364 35.8877 30.6687 36.5277 30.4866 36.9028C30.2108 37.4693 29.7364 38.3303 29.0813 39.1028C27.972 40.4108 26.6898 41.3222 25.047 41.9723C23.1371 42.7282 22.6476 42.9521 21.6167 44.1514C21.4353 44.3631 21.2776 44.5711 21.1423 44.7705L20.6664 17.9416L20.1898 44.7705C20.0545 44.5711 19.8968 44.3631 19.7154 44.1514C18.6845 42.9521 18.1943 42.7282 16.2851 41.9723C14.6423 41.3222 13.3609 40.4101 12.2508 39.1028C11.5957 38.3303 11.1213 37.47 10.8456 36.9028C10.6627 36.5277 10.4957 35.8877 10.4957 35.8877C10.4957 35.8877 9.88809 36.2743 9.75275 36.3679C9.51878 36.5291 9.27257 36.7141 9.0674 36.874C9.07172 35.9467 9.24162 34.4969 10.0026 32.7273C10.4892 31.5949 11.0918 30.7375 11.4798 30.248C11.6122 30.8405 11.8894 31.79 12.456 32.8864C13.0247 33.9864 13.6186 34.8042 14.003 35.283C13.5193 35.2974 12.4711 35.329 12.4711 35.329L12.7245 35.7639C13.0333 36.2937 13.381 36.7717 13.7583 37.1828C14.7006 38.2108 16.0526 38.4873 17.2037 37.8883C18.0453 37.4499 18.4837 36.5702 18.7666 34.751C19.1136 32.5214 19.2892 29.5713 19.2892 25.9812V24.0338L19.2921 24.005H14.6272C14.4962 23.7891 13.638 22.3716 13.2731 21.769H19.2871L19.2892 21.7244V20.3803L19.3224 20.3983C20.1524 20.7957 21.066 20.6014 21.066 20.6014C21.066 20.6014 20.8665 20.6014 20.6059 20.5906C20.1517 20.5711 19.719 20.4739 19.3231 20.3112L19.29 20.2947V19.8131C19.1705 19.7584 19.11 19.6684 19.1654 19.5733C19.2439 19.438 19.7593 19.1191 20.0185 18.9744C20.2777 18.8297 20.5577 18.8743 21.0465 18.9845C21.5353 19.0946 22.0493 19.2688 22.0493 19.2688C22.2689 18.8196 22.8232 17.9759 23.0522 17.7614C23.2818 17.5468 23.7065 17.5065 23.7065 17.5065C23.6511 17.8542 23.5424 18.1861 23.392 18.4755C22.9463 19.3307 22.045 19.8131 22.045 19.8131V21.7698H28.0612C27.6969 22.3716 26.8381 23.7898 26.7071 24.0058H22.0421L22.045 24.0533V25.9819C22.045 29.572 22.2207 32.5222 22.5677 34.7517C22.8506 36.5709 23.289 37.4506 24.1306 37.889C25.281 38.488 26.6337 38.2115 27.576 37.1835C27.9532 36.7717 28.3009 36.2944 28.6098 35.7646L28.8632 35.3298C28.8632 35.3298 27.8157 35.2981 27.3312 35.2837C27.7157 34.8042 28.3096 33.9872 28.8783 32.8872C29.4449 31.7915 29.722 30.8419 29.8545 30.2487C30.2425 30.7383 30.8451 31.5957 31.3317 32.7281C32.0927 34.4976 32.2626 35.9467 32.2669 36.8747C32.0624 36.7156 31.8155 36.5298 31.5815 36.3686L31.5794 36.3679Z" fill="#163E71"/>
<path d="M12.209 16.0833C11.9751 16.0833 11.8584 16.3971 11.8584 17.0249C11.8584 17.6951 11.9772 18.0299 12.2141 18.0299C12.3422 18.0299 12.4351 17.9557 12.492 17.8081C12.5488 17.6606 12.5776 17.4252 12.5776 17.1026C12.5776 16.7477 12.5488 16.4886 12.492 16.3266C12.4351 16.1646 12.3401 16.0833 12.209 16.0833Z" fill="#163E71"/>
<path d="M8.13873 16.0833C7.90477 16.0833 7.78814 16.3971 7.78814 17.0249C7.78814 17.6951 7.90692 18.0299 8.14377 18.0299C8.27191 18.0299 8.36478 17.9557 8.42165 17.8081C8.47852 17.6606 8.50732 17.4252 8.50732 17.1026C8.50732 16.7477 8.47852 16.4886 8.42165 16.3266C8.36478 16.1646 8.26975 16.0833 8.13873 16.0833Z" fill="#163E71"/>
<path d="M36.885 2.75577C36.885 2.75577 34.5993 3.24459 32.2136 3.38425C29.6961 3.53183 28.5004 3.41448 25.795 3.07469C24.4552 2.90623 23.0831 2.65427 20.665 2.66363C18.2468 2.65355 16.8747 2.90623 15.535 3.07469C12.8296 3.41448 11.6338 3.53183 9.11635 3.38425C6.73061 3.24459 4.44493 2.75577 4.44493 2.75577C4.44493 2.75577 3.57385 6.5482 3.5465 11.7984C3.51626 17.5475 4.39886 24.6227 8.30719 31.8908C8.55699 32.3552 8.82048 32.8015 9.09404 33.2298L9.11491 33.1715C9.19842 32.9426 9.29129 32.7079 9.39424 32.4682C10.2286 30.528 11.3574 29.3719 11.4049 29.3237L11.9398 28.7823L12.0175 29.5396C12.019 29.5533 12.1658 30.8981 13.0369 32.5848C13.2637 33.0239 13.4861 33.4235 13.7165 33.759C14.8489 35.4097 15.3276 35.9028 15.3276 35.9028C14.9828 35.9129 14.016 35.9424 13.6222 35.9539C13.8166 36.2368 14.0225 36.5018 14.2399 36.7386C14.9749 37.5399 16.0166 37.7623 16.8949 37.3052C17.4197 37.0316 17.8271 36.4759 18.1115 34.6509C18.4527 32.4552 18.6262 29.5382 18.6262 25.9826V24.6673L18.565 24.6652H14.2514L12.0996 21.1118H18.6248L18.6262 21.0707V20.1802L18.6061 20.1637C17.6018 19.497 16.9395 18.3553 16.9395 17.0595C16.9395 15.0034 18.6061 13.3361 20.6628 13.3361C22.7196 13.3361 24.3861 15.0034 24.3861 17.0595C24.3861 18.3653 23.7137 19.5143 22.6965 20.1788L22.6994 20.2292V21.0563L22.7016 21.1125H29.226L27.0742 24.6659H22.698L22.6994 24.7098V25.984C22.6994 29.5403 22.8722 32.4567 23.2141 34.6524C23.4978 36.4773 23.906 37.0338 24.4308 37.3066C25.309 37.7638 26.3515 37.542 27.0858 36.7401C27.3032 36.5032 27.5083 36.239 27.7034 35.9554C27.3104 35.9431 26.3435 35.9143 25.998 35.9043C25.998 35.9043 26.4767 35.4111 27.6091 33.7604C27.8395 33.4249 28.0619 33.0247 28.2887 32.5862C29.1605 30.8995 29.3066 29.554 29.3081 29.5411L29.3858 28.7837L29.9207 29.3251C29.9682 29.3733 31.097 30.5295 31.9314 32.4696C32.0387 32.7187 32.1344 32.962 32.2208 33.1996L32.2309 33.2341C32.5052 32.8058 32.7686 32.3587 33.0192 31.893C36.9275 24.6249 37.8101 17.5497 37.7799 11.8006C37.7525 6.55036 36.8814 2.75793 36.8814 2.75793L36.885 2.75577ZM6.80836 16.7686C6.74861 16.9399 6.65862 17.1278 6.53984 17.3323L6.15469 17.9917H6.79396V18.6353H4.98269L6.01287 16.873C6.14461 16.6635 6.21084 16.4727 6.21084 16.3007C6.21084 16.215 6.1914 16.1445 6.15253 16.0897C6.11366 16.035 6.06542 16.0077 6.00711 16.0077C5.91496 16.0077 5.85449 16.0437 5.82642 16.1149C5.79834 16.1862 5.78394 16.3266 5.78394 16.5368V16.652H5.095C5.095 16.4144 5.10508 16.2287 5.12451 16.0941C5.14395 15.9594 5.18499 15.8407 5.24762 15.737C5.31025 15.6333 5.40527 15.5505 5.53414 15.4879C5.663 15.4253 5.81562 15.3943 5.99271 15.3943C6.28499 15.3943 6.50888 15.4714 6.6651 15.6247C6.82132 15.778 6.89979 15.9998 6.89979 16.2884C6.89979 16.4375 6.86955 16.5973 6.8098 16.7686H6.80836ZM8.92342 18.2919C8.74201 18.5756 8.48284 18.7174 8.14593 18.7174C7.8263 18.7174 7.57145 18.5842 7.38284 18.3186C7.1935 18.0529 7.0992 17.6239 7.0992 17.0307C7.0992 16.5102 7.1899 16.107 7.37204 15.8219C7.55417 15.5369 7.80902 15.3936 8.13657 15.3936H8.14593C8.48932 15.3936 8.74993 15.5347 8.92774 15.8169C9.10556 16.0991 9.19482 16.5145 9.19482 17.0638C9.19482 17.6131 9.10484 18.0076 8.92342 18.2919ZM10.5518 18.6353H9.86289V16.1423H9.45831V15.4764H10.5511L10.5518 18.6353ZM12.9937 18.2919C12.8123 18.5756 12.5532 18.7174 12.2162 18.7174C11.8793 18.7174 11.6418 18.5842 11.4531 18.3186C11.2638 18.0529 11.1695 17.6239 11.1695 17.0307C11.1695 16.5102 11.2602 16.107 11.4423 15.8219C11.6245 15.5369 11.8793 15.3936 12.2069 15.3936H12.2162C12.5596 15.3936 12.8202 15.5347 12.998 15.8169C13.1759 16.0991 13.2651 16.5145 13.2651 17.0638C13.2651 17.6131 13.1751 18.0076 12.9937 18.2919ZM32.5232 16.1502V16.7341H33.1747V17.3928H32.5232V18.6353H31.8047V15.4764H33.2647V16.1502H32.5232ZM35.4402 16.2028C35.3034 16.1581 35.1745 16.1351 35.0536 16.1351C34.8679 16.1351 34.7138 16.22 34.5914 16.3899C34.469 16.5598 34.4071 16.7758 34.4071 17.0379C34.4071 17.3208 34.469 17.5439 34.5921 17.7081C34.7152 17.8722 34.8801 17.9543 35.086 17.9543C35.1868 17.9543 35.3048 17.9291 35.4395 17.8794V18.6367C35.2876 18.6857 35.1522 18.7102 35.032 18.7102C34.6166 18.7102 34.2804 18.5547 34.022 18.243C33.7643 17.9312 33.6347 17.5216 33.6347 17.0141C33.6347 16.5426 33.765 16.1531 34.0256 15.8464C34.2862 15.5397 34.6152 15.3864 35.0133 15.3864C35.1681 15.3864 35.3099 15.4073 35.4395 15.4483L35.4402 16.2028ZM36.7886 12.9402L36.785 12.9963H4.54284C4.53708 12.6897 4.5342 12.3815 4.5342 12.072C4.5342 11.9827 4.5342 11.8935 4.53492 11.8035C4.55363 8.22845 4.97621 5.32365 5.22674 3.90905C6.13885 4.06815 7.57073 4.2834 9.05876 4.37051C11.6158 4.52025 12.8325 4.40938 15.6581 4.05519L16.3391 3.9652C17.4506 3.81475 18.7112 3.64413 20.6607 3.65205H20.6686C22.6181 3.64413 23.8786 3.81475 24.9901 3.9652L25.6712 4.05519C28.4968 4.4101 29.7134 4.52097 32.2705 4.37051C33.7578 4.2834 35.1897 4.06815 36.1025 3.90905C36.353 5.32365 36.7756 8.22845 36.7943 11.8035C36.7943 11.8927 36.795 11.9827 36.795 12.072C36.795 12.3628 36.7936 12.6522 36.7886 12.9402Z" fill="white"/>
<path d="M8.12433 6.5662L7.48938 9.01602C7.44763 9.17728 7.41019 9.38317 7.37564 9.63369H7.36196C7.32309 9.34861 7.24894 9.0045 7.14095 8.60208L6.57151 6.5662H5.48086L6.88899 11.1728H7.85869L9.24234 6.5662H8.12433Z" fill="#163E71"/>
<path d="M11.1717 6.43878C10.6469 6.43878 10.238 6.64611 9.94496 7.06149C9.65196 7.47687 9.5051 8.05567 9.5051 8.79861C9.5051 9.60418 9.65124 10.2197 9.94352 10.6466C10.2358 11.0735 10.6598 11.2866 11.217 11.2866C11.7742 11.2866 12.1702 11.0735 12.461 10.6466C12.7518 10.2197 12.8973 9.62001 12.8973 8.84684C12.8973 8.07367 12.7497 7.47903 12.4538 7.06293C12.1579 6.64683 11.731 6.43878 11.1717 6.43878ZM11.6216 9.95477C11.5172 10.1455 11.3668 10.2413 11.1717 10.2413C10.9903 10.2413 10.8513 10.1455 10.7556 9.95477C10.6598 9.76399 10.6123 9.38317 10.6123 8.81229C10.6123 7.92681 10.8009 7.48407 11.1781 7.48407C11.5784 7.48407 11.7785 7.93401 11.7785 8.83316C11.7785 9.38965 11.726 9.76399 11.6216 9.95477Z" fill="#163E71"/>
<path d="M14.7532 6.5662H13.7079V11.1721H15.581V10.1059H14.7532V6.5662Z" fill="#163E71"/>
<path d="M17.4528 10.17C17.3722 10.0815 17.3318 9.96124 17.3318 9.80935V6.56548H16.2585V9.42636C16.2585 10.1052 16.3722 10.5868 16.5997 10.8719C16.8272 11.157 17.2195 11.2995 17.7767 11.2995C18.154 11.2995 18.4477 11.2412 18.6586 11.1253C18.8688 11.0094 19.0286 10.8266 19.1366 10.5782C19.2446 10.3298 19.2986 9.9994 19.2986 9.58762V6.56476H18.2324V9.77047C18.2324 9.93605 18.1914 10.0663 18.1101 10.1607C18.0287 10.255 17.9171 10.3018 17.7775 10.3018C17.6378 10.3018 17.5334 10.2578 17.4528 10.1686V10.17Z" fill="#163E71"/>
<path d="M21.3107 6.5662H20.2554V11.1721H21.3006V9.12976L21.2733 8.55672L22.5742 11.1721H23.6468V6.5662H22.6015V8.7259L22.6397 9.22263L21.3107 6.5662Z" fill="#163E71"/>
<path d="M24.3314 7.61869H25.0456V11.1721H26.1053V7.61869H26.8266V6.5662H24.3314V7.61869Z" fill="#163E71"/>
<path d="M28.203 6.5662L27.5922 8.86952L26.9814 11.1728H28.0475L28.2304 10.4033H29.3347L29.5104 11.1728H30.5974L29.3758 6.5662H28.203ZM28.4205 9.57466C28.5702 8.90731 28.6861 8.2558 28.7689 7.61797H28.7826C28.861 8.23709 28.9776 8.8886 29.1346 9.57466H28.4205Z" fill="#163E71"/>
<path d="M33.8147 8.62439C33.9226 8.41634 33.9766 8.20037 33.9766 7.9772C33.9766 7.54238 33.8341 7.19827 33.549 6.94559C33.2639 6.6929 32.8752 6.5662 32.3828 6.5662H31.1647V11.1728H32.21V9.07505H32.2273L33.0724 11.1728H34.1768L33.3417 9.09593C33.549 8.9901 33.7059 8.83244 33.8147 8.62439ZM32.21 8.55024V7.456C32.4584 7.46319 32.6362 7.51287 32.7434 7.6043C32.85 7.69644 32.904 7.84906 32.904 8.06287C32.904 8.37819 32.6729 8.54016 32.2107 8.54952L32.21 8.55024Z" fill="#163E71"/>
<path d="M35.8851 6.5662H34.8398V11.1728H35.8851V6.5662Z" fill="#163E71"/>
<path d="M11.1789 7.75331C10.996 7.75331 10.8823 8.15934 10.8823 8.81229C10.8823 9.50195 10.9543 9.74815 10.9967 9.83382C11.0651 9.97132 11.1321 9.97132 11.1717 9.97132C11.2408 9.97132 11.3149 9.95333 11.3855 9.82518C11.4316 9.74096 11.5093 9.49979 11.5093 8.83316C11.5093 8.50849 11.4776 7.75331 11.1789 7.75331ZM11.3596 8.83316C11.3596 9.14272 11.3466 9.35365 11.3214 9.49331C11.2833 9.7064 11.2573 9.8223 11.194 9.8223C11.1306 9.8223 11.0954 9.70352 11.068 9.50483C11.0478 9.35941 11.032 9.13984 11.032 8.81301C11.032 8.61575 11.0421 8.45954 11.0565 8.33715C11.0853 8.04919 11.1263 7.89945 11.1825 7.89513C11.2386 7.89154 11.2861 8.02328 11.3315 8.34075C11.3495 8.46673 11.3588 8.62799 11.3588 8.83388L11.3596 8.83316Z" fill="#163E71"/>
<path d="M17.8135 9.66753C17.812 9.77263 17.8207 9.89213 17.7775 9.8835C17.7407 9.88709 17.7494 9.77407 17.7515 9.66753V6.1465H15.8402V9.42636C15.8402 9.51635 15.8424 9.60274 15.846 9.68696H15.7855C15.5854 9.68696 15.2996 9.68696 15.1729 9.68696V6.1465H13.2889V8.22989L13.2702 8.13054C13.1975 7.60142 13.0384 7.163 12.7958 6.82033C12.4236 6.29624 11.862 6.01908 11.1724 6.01908C10.4827 6.01908 9.97303 6.29552 9.60301 6.81889L9.62028 6.76561L9.80602 6.14578H7.80038C7.80038 6.14578 7.53834 7.15796 7.36268 7.83538C7.1935 7.23139 6.89043 6.14578 6.89043 6.14578H4.91574L6.57943 11.5911H8.17113L9.05444 8.65031L9.09332 8.52289C9.089 8.61287 9.08684 8.7043 9.08684 8.79861C9.08684 9.69848 9.25386 10.3809 9.59869 10.8834C9.96728 11.4212 10.5274 11.7056 11.2177 11.7056C11.9081 11.7056 12.4408 11.4212 12.808 10.8827C13.0398 10.5429 13.1931 10.1139 13.2666 9.60201L13.2896 9.4026V11.5911H16.0015V10.7351L16.0029 10.6228C16.0713 10.823 16.1613 10.9929 16.2736 11.1332C16.5839 11.522 17.09 11.7185 17.7782 11.7185C18.231 11.7185 18.5859 11.6444 18.8624 11.4925C19.1546 11.3312 19.3771 11.08 19.5225 10.7459C19.655 10.4414 19.7197 10.0627 19.7197 9.58834V6.1465H17.8149V9.66753H17.8135ZM8.05882 11.4421H6.68957L5.11732 6.29624H6.77596C6.77596 6.29624 7.30797 8.19821 7.36772 8.4113C7.53762 7.75691 7.91556 6.29624 7.91556 6.29624H9.60445L8.05882 11.4421ZM12.6827 10.7985C12.3401 11.301 11.8462 11.5565 11.2163 11.5565C10.5864 11.5565 10.0645 11.3017 9.72035 10.7992C9.39855 10.3291 9.23514 9.65601 9.23514 8.79933C9.23514 8.00312 9.39999 7.36601 9.72467 6.90671C10.0702 6.4179 10.5569 6.16954 11.1717 6.16954C11.8203 6.16954 12.3257 6.4179 12.6734 6.90743C13.0009 7.36817 13.1665 8.02112 13.1665 8.84756C13.1665 9.67401 13.0031 10.3284 12.6827 10.7985ZM15.851 11.4421H13.4386V6.29624H15.0231V9.8367H15.851V11.4421ZM17.9063 9.985C17.9438 9.94109 17.9632 9.86982 17.9632 9.77119V6.29624H19.5686V9.58834C19.5686 10.0419 19.5081 10.4004 19.3843 10.6862C19.2525 10.9893 19.0524 11.2167 18.7896 11.3614C18.5362 11.5011 18.2051 11.5688 17.7782 11.5688C17.1382 11.5688 16.671 11.391 16.3909 11.0397C16.1217 10.702 15.9907 10.1743 15.9907 9.42564V6.29552H17.6025V9.80863C17.6025 9.93245 17.6407 9.9742 17.6536 9.98788C17.6738 10.0102 17.704 10.0325 17.7789 10.0325C17.8538 10.0325 17.8862 10.0095 17.9078 9.98428L17.9063 9.985Z" fill="#163E71"/>
<path d="M34.4208 10.6495L34.4043 10.6135C34.1876 10.075 33.945 9.47027 33.8535 9.24422C33.9867 9.12472 34.1005 8.98362 34.1868 8.81733C34.3258 8.54952 34.3963 8.26732 34.3963 7.9772C34.3963 7.41928 34.2048 6.96718 33.8276 6.63171C33.4648 6.30992 32.9781 6.1465 32.3828 6.1465H30.7457V10.0167L30.7443 10.0879L29.699 6.1465H27.8805L26.5429 11.1916L26.5242 11.252V8.03695H27.2456V6.14578H22.1825V7.37033C21.95 6.90599 21.5706 6.14578 21.5706 6.14578H19.8364V11.5911H21.7203V10.3961C21.9428 10.8438 22.315 11.5911 22.315 11.5911H24.0672V8.06647L24.0629 8.03695H24.628V11.5911H28.3809C28.3809 11.5911 28.5119 11.0389 28.5637 10.8215H29.0028C29.0525 11.0382 29.1785 11.5911 29.1785 11.5911H32.6311V11.193C32.6376 11.2095 32.7917 11.5911 32.7917 11.5911H36.3069V6.14578H34.423V10.6487L34.4208 10.6495ZM23.9168 11.4421H22.4071C22.4071 11.4421 21.9399 10.5033 21.5706 9.75967V11.4421H19.9861V6.29624H21.4777C21.4777 6.29624 21.9543 7.24867 22.3323 8.00528V6.29624H23.9168V11.4421ZM26.3745 11.4421H24.7763V7.88794H24.0622V6.29624H27.0958V7.88794H26.3745V11.4421ZM34.5705 11.4205V6.29624H36.155V11.4421H32.891C32.891 11.4421 32.6455 10.8323 32.48 10.4213V11.4421H29.2966C29.2966 11.4421 29.1713 10.8942 29.1209 10.6725H28.4442C28.3917 10.8935 28.2614 11.4421 28.2614 11.4421H26.6322L27.9964 6.29624H29.5845L30.8703 11.1448L30.8962 11.2297V6.29624H32.3835C32.9414 6.29624 33.3935 6.4467 33.729 6.74402C34.0731 7.04925 34.2473 7.46392 34.2473 7.9772C34.2473 8.24285 34.1825 8.50201 34.0551 8.74822C33.9608 8.93035 33.8327 9.08009 33.6757 9.20031C33.7945 9.49619 34.4107 11.0281 34.549 11.373L34.5705 11.4205Z" fill="#163E71"/>
<path d="M33.1747 16.6068H32.6731V16.3403H33.2646H33.4146V16.1903V15.5365V15.3865H33.2646H31.8047H31.6547V15.5365V18.6016V18.7516H31.8047H32.5231H32.6731V18.6016V17.546H33.1747H33.3247V17.396V16.7568V16.6068H33.1747ZM35.3949 16.3843L35.5904 16.4462L35.5902 16.2412L35.5895 15.5091L35.5894 15.3984L35.4835 15.3659C35.3381 15.3212 35.1812 15.2992 35.0133 15.2992C34.5722 15.2992 34.202 15.4664 33.9127 15.7967C33.6245 16.1259 33.4847 16.5407 33.4847 17.0285C33.4847 17.548 33.6219 17.9827 33.9078 18.3182L33.9079 18.3183C34.1963 18.6558 34.575 18.8242 35.032 18.8242C35.1715 18.8242 35.3223 18.7968 35.4842 18.7461L35.5895 18.7132V18.603V17.8681V17.6551L35.3889 17.7269C35.264 17.7716 35.1638 17.7908 35.086 17.7908C34.9252 17.7908 34.8047 17.7316 34.7108 17.6102C34.6142 17.4851 34.5571 17.3046 34.5571 17.0516C34.5571 16.8221 34.6127 16.6459 34.7119 16.5123C34.8094 16.381 34.9208 16.3257 35.0536 16.3257C35.1561 16.3257 35.2696 16.3446 35.3949 16.3843ZM35.032 18.6742C35.1522 18.6742 35.2876 18.6505 35.4395 18.603L34.022 18.2209C34.2804 18.5233 34.6166 18.6742 35.032 18.6742Z" stroke="#163E71" stroke-width="0.3"/>
<path d="M12.2667 16.6611C12.2654 16.6603 12.2641 16.6595 12.2628 16.6587C12.2523 16.6526 12.215 16.6318 12.1639 16.6387C12.0953 16.6481 12.057 16.6973 12.0424 16.735C12.0308 16.7651 12.0317 16.7913 12.0321 16.8009C12.0323 16.8045 12.0326 16.808 12.033 16.8113C12.0173 16.8601 12.0085 16.9213 12.0137 16.9821C12.0099 16.9972 12.0073 17.0118 12.0053 17.0253C11.9921 17.1174 12.0052 17.2206 12.0261 17.296C12.0328 17.3202 12.042 17.3479 12.0548 17.3744C12.0533 17.3795 12.0518 17.3844 12.0503 17.389C12.0495 17.3916 12.0487 17.3944 12.0478 17.3972C12.0432 17.412 12.038 17.4288 12.0359 17.4373L12.0344 17.4439C12.034 17.4459 12.0328 17.4521 12.0321 17.46C12.0317 17.4636 12.031 17.4721 12.0317 17.4828L12.0317 17.4833C12.032 17.4888 12.0337 17.5228 12.0565 17.5571C12.0711 17.5758 12.1139 17.6081 12.142 17.6189C12.1701 17.6237 12.2194 17.6193 12.2394 17.6125C12.2726 17.5986 12.2916 17.5762 12.2951 17.5721L12.2954 17.5717C12.3057 17.5597 12.3118 17.5485 12.3129 17.5466L12.313 17.5464C12.3151 17.5426 12.3166 17.5395 12.3173 17.5379L12.3209 17.53C12.3234 17.5241 12.3267 17.5156 12.33 17.5069C12.3306 17.5054 12.3312 17.5041 12.3317 17.5028C12.3392 17.4975 12.3478 17.4907 12.3563 17.482C12.3824 17.4554 12.3947 17.4255 12.401 17.4032C12.407 17.3823 12.4096 17.361 12.4113 17.3425C12.4143 17.3074 12.4155 17.2572 12.4156 17.1854C12.4179 17.1745 12.4201 17.1635 12.4222 17.1526C12.4262 17.1464 12.4297 17.14 12.4328 17.1336C12.458 17.0814 12.4536 17.0288 12.4496 17.0011C12.4449 16.9687 12.435 16.9352 12.4233 16.9039C12.4222 16.9008 12.421 16.8977 12.4197 16.8945C12.4142 16.8805 12.4084 16.867 12.4026 16.8543C12.3955 16.8143 12.3837 16.7713 12.3609 16.7357C12.3466 16.7134 12.3175 16.6776 12.2667 16.6611ZM8.13934 16.4424C8.11578 16.4424 8.0987 16.4412 8.08645 16.44L8.06796 16.4381L8.06726 16.438C8.06298 16.4375 8.04959 16.4361 8.03572 16.4366C8.02837 16.4368 8.01036 16.4377 7.9892 16.4449C7.96617 16.4527 7.92886 16.4718 7.90471 16.515C7.88159 16.5564 7.88425 16.5957 7.88749 16.6151C7.89069 16.6343 7.89687 16.6488 7.8995 16.6547C7.9043 16.6654 7.91039 16.6758 7.91223 16.6789C7.91238 16.6792 7.9125 16.6794 7.91259 16.6795L7.92012 16.6927C7.93436 16.7186 7.98464 16.8166 7.98904 17.0817C7.98904 17.0959 7.98914 17.109 7.98934 17.1213C7.98931 17.1588 7.9885 17.192 7.98712 17.2212C7.98056 17.2433 7.97647 17.2656 7.97523 17.2879C7.94045 17.3136 7.91544 17.347 7.90056 17.3835C7.88377 17.4246 7.88019 17.4685 7.88808 17.5086C7.89486 17.5431 7.91635 17.6016 7.97701 17.6357C8.01065 17.6546 8.05127 17.6623 8.09246 17.654C8.13142 17.6461 8.16051 17.6263 8.17997 17.6079C8.2046 17.5846 8.22171 17.5563 8.234 17.5289C8.23786 17.5275 8.24209 17.5259 8.24657 17.5238C8.25741 17.5189 8.27915 17.5076 8.29888 17.4845C8.32185 17.4576 8.33733 17.4199 8.33467 17.3774C8.33234 17.3401 8.31698 17.3137 8.30808 17.3009C8.30465 17.296 8.30109 17.2915 8.29758 17.2875C8.29808 17.2862 8.29852 17.2851 8.29888 17.2842C8.30646 17.2643 8.31012 17.2443 8.3114 17.2278C8.31204 17.2194 8.31259 17.2057 8.31042 17.1897C8.30933 17.1817 8.30701 17.1687 8.30126 17.1538C8.29898 17.1479 8.29532 17.1394 8.28957 17.1298C8.28948 17.1263 8.28941 17.1227 8.28934 17.1189C8.28934 17.1054 8.28924 17.0922 8.28904 17.0794C8.28904 17.0698 8.28909 17.0608 8.28917 17.0524C8.29448 17.0442 8.29801 17.037 8.30021 17.032C8.30745 17.0158 8.31046 17.0017 8.31183 16.9938C8.31336 16.985 8.31399 16.9774 8.31428 16.9717C8.31485 16.9605 8.31439 16.9503 8.31377 16.9424C8.31255 16.927 8.30979 16.9096 8.30534 16.8931C8.30321 16.8852 8.29944 16.8728 8.29303 16.8593C8.29049 16.854 8.28652 16.8463 8.28075 16.8377C8.28476 16.8179 8.29343 16.7909 8.30791 16.7516C8.31352 16.7364 8.32097 16.716 8.32649 16.6961C8.33148 16.6781 8.33933 16.6456 8.33602 16.6087C8.33205 16.5647 8.31125 16.5115 8.25865 16.476C8.21487 16.4464 8.16794 16.4424 8.13934 16.4424Z" fill="#163E71" stroke="#163E71" stroke-width="0.3"/>
<path d="M20.6995 20.6442L21.1397 44.771C21.2751 44.5716 21.4327 44.3635 21.6141 44.1519C22.645 42.9525 23.1346 42.7286 25.0445 41.9727C26.6873 41.3227 27.9694 40.4113 29.0788 39.1032C29.7339 38.3308 30.2083 37.4698 30.484 36.9032C30.6662 36.5281 30.8339 35.8882 30.8339 35.8882C30.8339 35.8882 31.4408 36.2747 31.5768 36.3683L31.579 36.369C31.813 36.5303 32.0599 36.716 32.2643 36.8751C32.26 35.9472 32.0901 34.498 31.3292 32.7285C30.8425 31.5961 30.24 30.7387 29.8519 30.2492C29.7195 30.8424 29.4423 31.7919 28.8758 32.8876C28.307 33.9876 27.7131 34.8047 27.3287 35.2842C27.8132 35.2986 28.8606 35.3302 28.8606 35.3302L28.6072 35.7651C28.2984 36.2949 27.9507 36.7722 27.5735 37.184C26.6311 38.212 25.2784 38.4884 24.128 37.8895C23.2865 37.4511 22.848 36.5713 22.5651 34.7522C22.2181 32.5226 22.0425 29.5725 22.0425 25.9823V24.0537L22.0396 24.0062H26.7045C26.8356 23.7902 27.6944 22.3721 28.0587 21.7702H22.0425V19.8135C22.0425 19.8135 22.9438 19.3312 23.3894 18.476C23.5399 18.1866 23.6486 17.8547 23.704 17.507C23.704 17.507 23.2793 17.5473 23.0496 17.7618C22.8207 17.9763 22.2664 18.8201 22.0468 19.2693C22.0468 19.2693 21.5328 19.0951 21.044 18.9849C20.9027 18.9531 20.7788 18.9267 20.6678 18.9088L20.6986 20.5946C20.911 20.6018 21.0634 20.6018 21.0634 20.6018C21.0634 20.6018 20.9218 20.6319 20.6995 20.6442Z" fill="#163E71"/>
<path d="M20.6592 16.6167C20.6842 16.6066 20.71 16.5962 20.7366 16.5855C21.3089 16.3551 21.5306 16.191 21.6501 15.9664C21.7704 15.7418 21.8351 15.2328 21.8049 15.0032C21.7754 14.7735 21.6753 14.6886 21.4011 14.4992C21.1268 14.3099 20.8762 14.1602 20.6668 14.1602C20.6642 14.1602 20.6617 14.1602 20.6592 14.1602V16.6167Z" fill="#163E71"/>
<path d="M21.8999 14.8333C21.8999 14.8333 21.8654 15.2472 21.8553 15.5769V15.5755C21.8545 15.6025 21.8536 15.6281 21.8528 15.6524C21.8437 15.9254 21.8398 16.0427 21.9403 16.2443C22.0401 16.4433 22.2217 16.6424 22.5187 16.9681C22.5492 17.0016 22.581 17.0365 22.6141 17.0729C22.9683 17.4623 23.1382 17.4825 23.3628 17.4775C23.5874 17.4724 23.7098 17.458 23.7098 17.458C23.8214 16.6899 23.6752 15.8498 23.1576 15.222C22.9424 14.9607 22.6925 14.6814 22.3744 14.4402C22.3744 14.4402 22.2894 14.4841 22.1296 14.6036C21.9698 14.7238 21.8999 14.8333 21.8999 14.8333Z" fill="#163E71"/>
</svg>
