<?xml version="1.0" encoding="UTF-8"?>
<svg id="Layer_2" data-name="Layer 2" xmlns="http://www.w3.org/2000/svg" viewBox="0 0 120 50">
  <defs>
    <style>
      .cls-1 {
        fill: #e3e0f1;
      }

      .cls-2 {
        fill: #5e3ffe;
      }

      .cls-3 {
        fill: #0c0c0e;
        fill-rule: evenodd;
      }
    </style>
  </defs>
  <g id="Layer_1-2" data-name="Layer 1">
    <path class="cls-3" d="m115,50H5c-2.8,0-5-2.2-5-5V5C0,2.2,2.2,0,5,0h110c2.8,0,5,2.2,5,5v40c0,2.8-2.2,5-5,5Z"/>
    <g id="Layer_2-2" data-name="Layer 2-2">
      <g id="Layer_1-2" data-name="Layer 1-2">
        <polygon class="cls-1" points="17.3 14.82 22.46 14.82 25.05 10.32 8.09 10.32 10.7 14.82 17.27 14.82 13.98 20.51 16.58 25.01 19.88 19.3 17.3 14.82"/>
        <polygon class="cls-1" points="25.79 29.51 23.18 25.01 16.58 25.01 19.17 29.51 25.74 29.51 22.47 35.21 25.05 39.68 33.54 25.01 28.38 25.01 25.79 29.51"/>
        <polygon class="cls-2" points="18.5 15.51 20.28 18.62 26.48 18.62 27.68 18.62 27.08 19.66 23.98 25.01 25.79 28.12 33.06 15.51 18.5 15.51"/>
        <polygon class="cls-1" points="25.05 10.32 27.66 14.82 34.23 14.82 34.25 14.82 30.95 20.55 33.54 25.01 42.03 10.32 25.05 10.32"/>
        <path class="cls-1" d="m45.7,21.25c.95,0,1.82.37,2.54.97.09.09.09.21.02.3l-.65.67c-.09.09-.18.09-.28,0-.44-.39-.99-.6-1.57-.6-1.29,0-2.33,1.11-2.33,2.42s1.04,2.38,2.33,2.38c.58,0,1.04-.18,1.25-.25v-.9h-.83c-.12,0-.21-.09-.21-.18v-.83c0-.12.09-.21.21-.21h1.99c.09,0,.18.09.18.21v2.65c0,.09-.05.14-.09.16,0,0-1.06.67-2.58.67-2.07,0-3.74-1.64-3.74-3.71s1.69-3.74,3.76-3.74h0Z"/>
        <path class="cls-1" d="m54.55,28.4l3.23-6.99c.02-.07.09-.12.18-.12h.09c.09,0,.14.05.18.12l3.21,6.99c.07.14-.02.28-.18.28h-.9c-.16,0-.23-.07-.3-.21l-.51-1.13h-3.11l-.51,1.13c-.05.09-.14.21-.3.21h-.9c-.16,0-.23-.14-.18-.28h-.01Zm4.5-2.21l-1.04-2.28h-.02l-1.02,2.28h2.08Z"/>
        <path class="cls-1" d="m68.9,21.46c0-.09.07-.16.18-.16h.16c.09,0,.14.05.18.12l2.28,4.92h.02l2.28-4.92c.02-.07.09-.12.18-.12h.16c.12,0,.18.07.18.16l1.22,6.99c.02.14-.05.23-.18.23h-.95c-.09,0-.18-.09-.21-.16l-.62-3.95h.02l-1.82,4.08c-.02.07-.09.12-.18.12h-.18c-.09,0-.14-.05-.18-.12l-1.84-4.08h-.02l-.6,3.97c0,.07-.09.16-.18.16h-.95c-.14,0-.23-.09-.21-.23l1.25-7.01h0Z"/>
        <path class="cls-1" d="m83.32,21.6c0-.12.09-.21.21-.21h.97c.12,0,.21.09.21.21v6.87c0,.09-.09.21-.21.21h-.97c-.12,0-.21-.09-.21-.21,0,.02,0-6.87,0-6.87Z"/>
        <path class="cls-1" d="m92.66,21.48c0-.12.09-.18.21-.18h.25l4.33,4.59h0v-4.29c0-.12.09-.21.21-.21h.95c.12,0,.21.09.21.21v6.99c0,.09-.09.18-.21.18h-.25l-4.33-4.77h0v4.48c0,.09-.09.21-.21.21h-.95c-.12,0-.21-.09-.21-.21v-6.99h0Z"/>
        <path class="cls-1" d="m109.25,21.25c.95,0,1.82.37,2.54.97.09.09.09.21,0,.3l-.65.67c-.09.09-.18.09-.28,0-.44-.39-.99-.6-1.57-.6-1.29,0-2.33,1.11-2.33,2.42s1.04,2.38,2.36,2.38c.58,0,1.04-.18,1.25-.25v-.9h-.83c-.12,0-.21-.09-.21-.18v-.83c0-.12.09-.21.21-.21h1.99c.12,0,.18.09.18.21v2.65c0,.09-.05.14-.09.16,0,0-1.06.67-2.58.67-2.07,0-3.74-1.64-3.74-3.71s1.69-3.74,3.76-3.74h0Z"/>
      </g>
    </g>
  </g>
</svg>