<?xml version="1.0" encoding="UTF-8"?>
<svg xmlns="http://www.w3.org/2000/svg" version="1.1" viewBox="0 0 120 50">
  <!-- Generator: Adobe Illustrator 28.6.0, SVG Export Plug-In . SVG Version: 1.2.0 Build 709)  -->
  <g>
    <g id="Layer_1">
      <g id="Layer_1-2" data-name="Layer_1">
        <rect width="120" height="50" rx="5" ry="5" fill="#cf001c"/>
        <g id="EGTD_logo_sign_with_font">
          <g id="egtLogo">
            <circle id="whitebackground" cx="32" cy="25" r="14" fill="#fff"/>
            <g id="EGTLogoShapes">
              <path id="Path_24" d="M34.7,32.3c-4.3,1.4-8.4,2.1-11.8,2.1,3.4,3.4,8.5,4.6,13.1,3.1,4.7-1.6,7.9-5.5,8.8-10.1-2.7,1.9-6.2,3.6-10.1,4.9Z" fill="#cf001c"/>
              <path id="Path_25" d="M34.9,27.7l-.3.8h.7l-.3-.8h-.1Z" fill="#cf001c"/>
              <path id="Path_26" d="M25.4,27.6h-.5v1.4h.5c.4,0,.7-.3.7-.6s-.3-.7-.6-.7h-.1Z" fill="#cf001c"/>
              <path id="Path_27" d="M30,17.5c4-1.3,7.9-2,11.3-2.1-5.5-5-13.9-4.7-19,.8-1.7,1.9-2.9,4.2-3.3,6.7,2.9-2.1,6.7-4,11.1-5.4h-.1Z" fill="#cf001c"/>
              <path id="Path_28" d="M37.1,30.5c2.8-.9,5.4-2.1,7.9-3.7.3-2,0-4-.5-5.9-.6-1.9-1.6-3.7-3-5.1-2.9.2-5.7.8-8.5,1.7-2.5.8-4.8,1.9-7.1,3.2h2.6v1h-2.8v1.2h2.5v1h-2.5v1.3h2.9v1h-4.1v-4.6c-3.7,2.5-5.7,5.4-5,7.6,1.1,3.6,9,4.2,17.6,1.3ZM31.3,29.5h-.5v-2.2h.5v2.2ZM33.6,27.7h-.7v1.8h-.5v-1.8h-.7v-.4h1.9v.4ZM38,29.5h-1.6v-2.2h.5v1.8h1.1v.4ZM34.7,20.7h4.7v1h-1.7v4.4h-1.2v-4.4h-1.7v-1h0ZM35.1,27.3l1,2.2h-.5l-.2-.5h-1l-.2.5h-.5l1-2.2h.5,0ZM29.4,22c.2-.4.6-.8,1-1,.5-.2,1-.4,1.5-.4s.9,0,1.3.2.7.4,1,.7l-.8.7c-.3-.4-.9-.6-1.4-.6s-.6,0-.9.2c-.3.1-.5.4-.6.6-.3.6-.3,1.2,0,1.8.1.3.4.5.6.6.3.2.6.2.9.2s.7,0,1-.2v-1.6h1.1v2.2c-.3.2-.6.4-1,.5s-.8.2-1.2.2-1-.1-1.5-.4c-.4-.2-.8-.6-1-1-.5-.9-.5-2,0-2.9h0v.2ZM28.3,27.8c.1-.2.2-.3.4-.4.2,0,.4-.1.6-.1h.5c.1,0,.3.2.4.3l-.3.3c-.1-.2-.3-.3-.6-.2h-.4c-.1,0-.2.1-.2.2-.1.2-.1.5,0,.7,0,.1.1.2.2.3h.8v-.6h.5v.9c-.1,0-.3.2-.4.2h-.5c-.2,0-.4,0-.6-.1-.2,0-.3-.2-.4-.4-.2-.4-.2-.8,0-1.2h0ZM27.2,27.3h.5v2.2h-.5v-2.2ZM26.5,29c0,.2-.2.3-.4.4-.2,0-.4.1-.6.1h-1v-2.2h1c.2,0,.4,0,.6.1.2,0,.3.2.4.4.2.4.2.8,0,1.2h0Z" fill="#cf001c"/>
            </g>
          </g>
          <g id="egtDigital">
            <path id="egt" d="M52.3,14.8h6.1v1.5h-4.2v1.7h3.7v1.4h-3.7v1.9h4.4v1.5h-6.2v-8h0ZM67.7,14.8h7v1.5h-2.6v6.5h-1.9v-6.5h-2.6v-1.5h0ZM59.7,16.7c.4-.6.9-1.1,1.6-1.5,1.3-.6,2.8-.7,4.2-.2.6.2,1,.6,1.4,1l-1.2,1.1c-.5-.6-1.3-.9-2.1-.9s-.9.1-1.4.3c-.4.2-.7.5-.9.9s-.3.9-.3,1.3,0,.9.3,1.3.5.7.9.9c.4.2.9.3,1.3.3s1-.1,1.4-.3v-2.4h1.7v3.3c-.5.3-1,.6-1.5.7-.6.2-1.2.3-1.7.3-.8,0-1.6-.2-2.2-.5-.7-.3-1.2-.9-1.6-1.5-.4-.6-.6-1.4-.6-2.1s.2-1.5.6-2.2h0v.2Z" fill="#fff"/>
            <path id="digital" d="M77.8,35h-1.8v-8h1.8v8ZM86.3,28.5h-2.5v6.5h-1.8v-6.5h-2.5v-1.5h6.9v1.5h0ZM102.5,35h-5.8v-8h1.8v6.5h4v1.5h0ZM91.8,27l3.6,8h-1.9l-.7-1.7h-3.7l-.7,1.7h-1.9l3.6-8h1.8-.1ZM66.6,28.9c.4-.6.9-1.1,1.6-1.5s1.5-.6,2.3-.6,1.3.1,1.9.4c.5.2,1,.6,1.4,1l-1.2,1.1c-.5-.6-1.3-.9-2.1-.9s-.9,0-1.3.3c-.4.2-.7.5-.9.9-.2.4-.3.9-.3,1.3s0,.9.3,1.3c.5.8,1.3,1.3,2.3,1.2.5,0,1,0,1.4-.3v-2.3h1.7v3.2c-.4.4-1,.6-1.5.7-.6.2-1.1.3-1.7.3s-1.5-.2-2.2-.6c-.6-.3-1.2-.8-1.6-1.5-.4-.6-.6-1.4-.6-2.1s.2-1.5.6-2.1h0v.2ZM62.2,27h1.8v8h-1.8v-8ZM59.8,33.1c-.4.6-.9,1.1-1.6,1.4-.7.3-1.5.5-2.3.5h-3.6v-8h3.6c.8,0,1.6.2,2.3.5.6.3,1.2.8,1.6,1.4.7,1.3.7,2.9,0,4.2h0ZM90.8,28.8l-1.3,3h2.5l-1.2-3ZM55.8,28.5h-1.7v4.9h1.7c.7,0,1.4-.2,1.9-.6.5-.5.7-1.1.7-1.8s-.2-1.3-.7-1.8-1.2-.7-1.9-.7h0Z" fill="#fff"/>
          </g>
          <rect id="container" x="17.4" y="10" width="85.1" height="30" fill="none"/>
        </g>
      </g>
    </g>
  </g>
</svg>