<?xml version="1.0" encoding="UTF-8"?>
<svg id="Layer_1" xmlns="http://www.w3.org/2000/svg" version="1.1" xmlns:xlink="http://www.w3.org/1999/xlink" viewBox="0 0 120 50">
  <!-- Generator: Adobe Illustrator 29.3.1, SVG Export Plug-In . SVG Version: 2.1.0 Build 151)  -->
  <defs>
    <style>
      .st0 {
        fill: url(#radial-gradient);
      }

      .st1 {
        fill: url(#radial-gradient1);
      }

      .st2 {
        fill: #050711;
        fill-rule: evenodd;
      }

      .st3 {
        fill: #999;
      }

      .st4 {
        fill: #cba12e;
      }
    </style>
    <radialGradient id="radial-gradient" cx="42.3" cy="32.2" fx="42.3" fy="32.2" r="8.3" gradientTransform="translate(-4.3 -1.2) scale(1)" gradientUnits="userSpaceOnUse">
      <stop offset="0" stop-color="gray"/>
      <stop offset="1" stop-color="#b3b3b3"/>
    </radialGradient>
    <radialGradient id="radial-gradient1" cx="30" cy="22.8" fx="30" fy="22.8" r="8.7" gradientTransform="translate(-4.3 -1.2) scale(1)" gradientUnits="userSpaceOnUse">
      <stop offset=".1" stop-color="#dfc676"/>
      <stop offset="1" stop-color="#cba12e"/>
    </radialGradient>
  </defs>
  <path class="st2" d="M115,50H5c-2.8,0-5-2.2-5-5V5C0,2.2,2.2,0,5,0h110c2.8,0,5,2.2,5,5v40c0,2.8-2.2,5-5,5Z"/>
  <g>
    <g>
      <path class="st0" d="M41,24.9c-.1-.5-.4-.9-.7-1.3-.3-.4-.7-.7-1.2-1-.5-.3-1.1-.4-1.8-.4h-5c-.8,1.4-2.2,2.4-3.9,2.6,0,.4-.1.9-.1,1.3s0,.8.2,1.3c.1.5.4.9.7,1.3.3.4.7.7,1.2,1,.5.3,1.2.4,1.9.4h5v-2.7h-5.1c-.4,0-.7-.1-.9-.4-.2-.2-.3-.5-.3-.9s.1-.7.4-.9c.2-.2.5-.3.9-.3h5.1c.4,0,.7.1.9.4.2.2.3.5.3.9v4.3c0,.4-.1.7-.4.9-.2.2-.5.3-.9.3h-6.6v2.3h6.6c.4,0,.8,0,1.3-.2.5-.1.9-.4,1.3-.7.4-.3.7-.6,1-1.1.3-.5.4-.9.4-1.6v-4.3c0-.4,0-.8-.2-1.3Z"/>
      <path class="st1" d="M27.5,24.9h-4.2c-.3,0-.6-.1-.9-.3-.2-.2-.4-.5-.4-.9v-3.9c0-.3.1-.6.3-.9.2-.2.5-.4.9-.4h5.1c.3,0,.6.1.9.3.2.2.4.5.4.9s-.1.6-.3.9c-.2.2-.5.4-.9.4h-5.1v2.7h5c.7,0,1.4-.1,1.9-.4.5-.3.9-.6,1.2-1,.3-.4.5-.8.7-1.3.1-.5.2-.9.2-1.3,0-.7-.1-1.3-.4-1.8-.3-.5-.6-.9-1-1.2-.4-.3-.8-.5-1.3-.7-.5-.1-.9-.2-1.3-.2h-5.1c-.7,0-1.3.1-1.8.4-.5.3-.9.6-1.2,1-.3.4-.5.8-.7,1.3-.1.5-.2.9-.2,1.3v4c0,.7.1,1.3.4,1.8.3.5.6.9,1,1.2.4.3.8.5,1.3.7.5.1.9.2,1.3.2h4.2v-2.7Z"/>
    </g>
    <g>
      <g>
        <path class="st4" d="M50.6,18.4c0,.3,0,.5-.1.8,0,.3-.2.6-.4.8-.2.3-.4.5-.7.6-.3.2-.7.3-1.1.3h-3.1v-1.8h3.1c.2,0,.4,0,.5-.2.1-.2.2-.3.2-.6s0-.4-.2-.6-.3-.2-.5-.2h-3.1c-.2,0-.4,0-.5.2-.1.2-.2.3-.2.6v2.6c0,.2,0,.4.2.6.1.1.3.2.5.2h3v1.8h-3.1c-.2,0-.5,0-.8-.1-.3,0-.5-.2-.8-.4-.2-.2-.4-.5-.6-.8-.2-.3-.2-.7-.2-1.2v-2.6c0-.3,0-.5.1-.8,0-.3.2-.6.4-.8.2-.3.4-.5.7-.6.3-.2.7-.3,1.1-.3h3.1c.2,0,.5,0,.8.1.3,0,.5.2.8.4.2.2.4.5.6.8.2.3.2.7.2,1.2Z"/>
        <path class="st4" d="M59.1,22.6c0,.1,0,.3,0,.4,0,.1-.1.2-.2.3,0,0-.2.1-.3.2-.1,0-.2,0-.3,0h-3.8c-.2,0-.4,0-.7,0-.2,0-.5-.1-.7-.3-.2-.1-.5-.3-.7-.4-.2-.2-.4-.4-.6-.7-.2-.3-.3-.6-.4-.9,0-.3-.1-.7-.1-1.1v-4.3h1.7v4.3c0,.2,0,.5.1.7,0,.2.2.4.3.5.1.1.3.2.5.3.2,0,.4.1.6.1h3v-5.9h1.7v6.8Z"/>
        <path class="st4" d="M66.2,17.7h-3.8c-.2,0-.4,0-.5.2-.1.1-.2.3-.2.6v5.1h-1.7v-5.1c0-.3,0-.6.1-.9,0-.3.2-.5.3-.7s.3-.4.4-.5c.2-.1.3-.2.5-.3.2,0,.4-.1.5-.2.2,0,.3,0,.5,0h3.8v1.9Z"/>
        <path class="st4" d="M73.2,21c0,.3,0,.5-.1.8,0,.3-.2.6-.4.8-.2.3-.4.5-.7.6-.3.2-.7.3-1.1.3h-3.1c-.2,0-.5,0-.8-.1-.3,0-.5-.2-.8-.4-.2-.2-.4-.5-.6-.8-.2-.3-.2-.7-.2-1.2s0-.5.1-.8c0-.3.2-.6.4-.8.2-.3.4-.5.7-.6.3-.2.7-.3,1.1-.3h3.1v1.8h-3.1c-.2,0-.4,0-.5.2-.1.2-.2.3-.2.6s0,.4.2.6c.1.1.3.2.5.2h3c.2,0,.4,0,.5-.2.1-.2.2-.3.2-.6v-2.6c0-.2,0-.4-.2-.6s-.3-.2-.5-.2h-3.7v-1.8h3.7c.2,0,.5,0,.8.1.3,0,.5.2.8.4.2.2.4.5.6.8.2.3.2.7.2,1.2v2.6Z"/>
        <path class="st4" d="M81.1,20.9c0,.3,0,.6-.1.9,0,.3-.2.5-.3.7s-.3.4-.4.5c-.2.1-.3.2-.5.3-.2,0-.4.1-.5.2-.2,0-.4,0-.5,0h-4.6v-1.9h4.6c.2,0,.4,0,.5-.2.1-.1.2-.3.2-.6,0-.5-.3-.7-.7-.7h-2.6c-.4,0-.7,0-1-.2-.3-.1-.5-.3-.6-.5-.2-.2-.3-.4-.4-.7,0-.2-.1-.5-.1-.7,0-.4,0-.8.2-1.1s.3-.5.5-.7c.2-.2.4-.3.7-.4.2,0,.5-.1.7-.1h4.2v1.9h-4.2c0,0-.2,0-.2,0,0,0,0,0-.1,0,0,0,0,0,0,.1,0,0,0,0,0,.1,0,0,0,.1,0,.2,0,0,0,0,0,0,0,0,0,0,.1,0,0,0,0,0,.1,0h2.6c.4,0,.8,0,1.1.3s.6.4.7.6c.2.3.3.5.4.9,0,.3.1.6.1.9Z"/>
        <path class="st4" d="M83.5,23.6h-1.7v-7.8h1.7v7.8Z"/>
        <path class="st4" d="M92,21c0,.3,0,.5-.1.8,0,.3-.2.6-.4.8-.2.3-.4.5-.7.6-.3.2-.7.3-1.1.3h-3.1c-.2,0-.5,0-.8-.1-.3,0-.5-.2-.8-.4-.2-.2-.4-.5-.6-.8-.2-.3-.2-.7-.2-1.2s0-.5.1-.8c0-.3.2-.6.4-.8.2-.3.4-.5.7-.6.3-.2.7-.3,1.1-.3h3.1v1.8h-3.1c-.2,0-.4,0-.5.2-.1.2-.2.3-.2.6s0,.4.2.6c.1.1.3.2.5.2h3c.2,0,.4,0,.5-.2.1-.2.2-.3.2-.6v-2.6c0-.2,0-.4-.2-.6-.1-.1-.3-.2-.5-.2h-3.7v-1.8h3.7c.2,0,.5,0,.8.1.3,0,.5.2.8.4.2.2.4.5.6.8.2.3.2.7.2,1.2v2.6Z"/>
        <path class="st4" d="M100.6,23.6h-1.7v-4.3c0-.2,0-.5-.1-.7s-.2-.4-.3-.5c-.1-.1-.3-.2-.5-.3-.2,0-.4-.1-.6-.1h-3v5.9h-1.7v-6.8c0-.1,0-.3,0-.4,0-.1.1-.2.2-.3,0,0,.2-.1.3-.2s.2,0,.3,0h3.8c.2,0,.4,0,.7,0,.2,0,.5.1.7.3.2.1.5.3.7.4.2.2.4.4.6.7.2.3.3.6.4.9,0,.3.1.7.1,1.1v4.3Z"/>
      </g>
      <g>
        <path class="st3" d="M64.7,31.6c0,.3,0,.5-.1.8,0,.3-.2.6-.4.8-.2.3-.4.5-.7.6-.3.2-.7.3-1.1.3h-3.1c-.2,0-.5,0-.8-.1-.3,0-.5-.2-.8-.4-.2-.2-.4-.5-.6-.8-.2-.3-.2-.7-.2-1.2s0-.5.1-.8c0-.3.2-.6.4-.8.2-.3.4-.5.7-.6s.7-.3,1.1-.3h3.1v1.8h-3.1c-.2,0-.4,0-.5.2-.1.2-.2.3-.2.6s0,.4.2.6c.1.1.3.2.5.2h3c.2,0,.4,0,.5-.2.1-.2.2-.3.2-.6v-2.6c0-.2,0-.4-.2-.6-.1-.1-.3-.2-.5-.2h-3.7v-1.8h3.7c.2,0,.5,0,.8.1.3,0,.5.2.8.4.2.2.4.5.6.8.2.3.2.7.2,1.2v2.6Z"/>
        <path class="st3" d="M71.7,34.2h-1.7v-5.1c0-.2,0-.4-.2-.6-.1-.1-.3-.2-.5-.2h-2.2v5.9h-1.7v-6.8c0-.1,0-.3,0-.4,0-.1.1-.2.2-.3,0,0,.2-.1.3-.2s.2,0,.3,0h3.1c.2,0,.5,0,.8.1.3,0,.5.2.8.4v-.6h2.3c.2,0,.3,0,.5,0,.2,0,.4.1.5.2.2,0,.3.2.5.3.2.1.3.3.4.5.1.2.2.4.3.7,0,.3.1.5.1.9v5.1h-1.7v-5.1c0-.2,0-.4-.2-.6-.1-.1-.3-.2-.5-.2h-1.5c0,.2,0,.5,0,.7v5.1Z"/>
        <path class="st3" d="M78,34.2h-1.7v-7.8h1.7v7.8Z"/>
        <path class="st3" d="M86.5,34.2h-1.7v-4.3c0-.2,0-.5-.1-.7s-.2-.4-.3-.5c-.1-.1-.3-.2-.5-.3-.2,0-.4-.1-.6-.1h-3v5.9h-1.7v-6.8c0-.1,0-.3,0-.4,0-.1.1-.2.2-.3,0,0,.2-.1.3-.2s.2,0,.3,0h3.8c.2,0,.4,0,.7,0,.2,0,.5.1.7.3.2.1.5.3.7.4.2.2.4.4.6.7.2.3.3.6.4.9,0,.3.1.7.1,1.1v4.3Z"/>
        <path class="st3" d="M50.2,32.5h2.9c.9,0,1.1,0,1.2-.2.1-.1.2-.3.2-.6v-2.8c0-.2,0-.4-.2-.6-.1-.2-.3-.2-.5-.2h-3.1c-.2,0-.4,0-.5.2-.1.1-.2.3-.2.6,0,.2,0,.4.2.6.1.2.3.2.5.2h3.1v1.7h-3c-.4,0-.8,0-1.1-.3-.3-.2-.5-.4-.7-.6-.2-.3-.3-.5-.4-.8,0-.3-.1-.6-.1-.8,0-.5,0-.9.2-1.2.2-.3.4-.5.6-.7.2-.2.5-.3.8-.4.3,0,.5-.1.8-.1h3.1c.4,0,.8,0,1.1.3.3.2.5.4.7.6.2.3.3.5.4.8,0,.3.1.6.1.8v2.8c0,.5,0,.9-.2,1.2-.2.3-.4.6-.6.8-.2.2-.5.3-.8.4-.3,0-.5.1-1.5.1h-2.9v-1.7Z"/>
        <path class="st3" d="M89,32.5h2.9c.9,0,1.1,0,1.2-.2.1-.1.2-.3.2-.6v-2.8c0-.2,0-.4-.2-.6-.1-.2-.3-.2-.5-.2h-3.1c-.2,0-.4,0-.5.2-.1.1-.2.3-.2.6s0,.4.2.6c.1.2.3.2.5.2h3.1v1.7h-3c-.4,0-.8,0-1.1-.3-.3-.2-.5-.4-.7-.6-.2-.3-.3-.5-.4-.8,0-.3-.1-.6-.1-.8,0-.5,0-.9.2-1.2.2-.3.4-.5.6-.7.2-.2.5-.3.8-.4.3,0,.5-.1.8-.1h3.1c.4,0,.8,0,1.1.3.3.2.5.4.7.6.2.3.3.5.4.8,0,.3.1.6.1.8v2.8c0,.5,0,.9-.2,1.2-.2.3-.4.6-.6.8-.2.2-.5.3-.8.4-.3,0-.5.1-1.5.1h-2.9v-1.7Z"/>
      </g>
    </g>
  </g>
</svg>