<svg width="32" height="32" viewBox="0 0 32 32" fill="none" xmlns="http://www.w3.org/2000/svg">
<rect width="32" height="32" rx="10" fill="url(#paint0_linear_40389_56877)"/>
<path fill-rule="evenodd" clip-rule="evenodd" d="M14.3466 8.71771C15.241 7.76076 16.7589 7.76076 17.6533 8.71771L17.8954 8.97747C18.3414 9.45466 18.9721 9.71526 19.6249 9.69329L19.9804 9.68157C21.2894 9.63737 22.3625 10.7104 22.3183 12.0195L22.3066 12.3749C22.2846 13.0277 22.5452 13.6584 23.0224 14.1044L23.2822 14.3466C24.2391 15.241 24.2391 16.7589 23.2822 17.6533L23.0224 17.8954C22.5452 18.3414 22.2846 18.9721 22.3066 19.6249L22.3183 19.9804C22.3625 21.2894 21.2894 22.3625 19.9804 22.3183L19.6249 22.3066C18.9721 22.2846 18.3414 22.5452 17.8954 23.0224L17.6533 23.2822C16.7589 24.2391 15.241 24.2391 14.3466 23.2822L14.1044 23.0224C13.6584 22.5452 13.0277 22.2846 12.3749 22.3066L12.0195 22.3183C10.7104 22.3625 9.63737 21.2894 9.68157 19.9804L9.69329 19.6249C9.71526 18.9721 9.45466 18.3414 8.97747 17.8954L8.71771 17.6533C7.76076 16.7589 7.76076 15.241 8.71771 14.3466L8.97747 14.1044C9.45466 13.6584 9.71526 13.0277 9.69329 12.3749L9.68157 12.0195C9.63737 10.7104 10.7104 9.63737 12.0195 9.68157L12.3749 9.69329C13.0277 9.71526 13.6584 9.45466 14.1044 8.97747L14.3466 8.71771ZM14.9579 12.3007C14.654 12.0673 14.2112 12.2484 14.1581 12.6279L13.9013 14.4618C13.8817 14.6007 13.805 14.7253 13.6894 14.8046L12.163 15.8525C11.8471 16.0694 11.8829 16.546 12.2275 16.7138L13.8915 17.5253C14.0177 17.5868 14.1125 17.6983 14.1523 17.8329L14.6777 19.6083C14.7863 19.9758 15.2505 20.0891 15.5165 19.8134L16.8027 18.4804C16.9001 18.3796 17.0355 18.3243 17.1757 18.3281L19.0263 18.3779C19.4094 18.3881 19.6615 17.9807 19.4814 17.6425L18.6113 16.0077C18.5454 15.884 18.5342 15.7385 18.581 15.6064L19.2001 13.8603C19.3278 13.4993 19.0187 13.1343 18.6415 13.2011L16.8183 13.5243C16.6802 13.5488 16.538 13.514 16.4267 13.4286L14.9579 12.3007Z" fill="white"/>
<defs>
<linearGradient id="paint0_linear_40389_56877" x1="0" y1="32" x2="32" y2="0" gradientUnits="userSpaceOnUse">
<stop stop-color="#5D09EE"/>
<stop offset="1" stop-color="#FF6A00"/>
</linearGradient>
</defs>
</svg>
