<svg width="19" height="19" viewBox="0 0 19 19" fill="none" xmlns="http://www.w3.org/2000/svg">
<g clip-path="url(#clip0_9186_15863)">
<path d="M18.6665 9.33984C18.6665 4.36928 14.6371 0.339844 9.6665 0.339844C4.69594 0.339844 0.666504 4.36928 0.666504 9.33984C0.666504 13.8319 3.95766 17.5553 8.26025 18.2305V11.9414H5.9751V9.33984H8.26025V7.35703C8.26025 5.10141 9.60393 3.85547 11.6597 3.85547C12.6441 3.85547 13.6743 4.03125 13.6743 4.03125V6.24609H12.5395C11.4215 6.24609 11.0728 6.9399 11.0728 7.65234V9.33984H13.5688L13.1698 11.9414H11.0728V18.2305C15.3754 17.5553 18.6665 13.8319 18.6665 9.33984Z" fill="#D0D5DD"/>
</g>
<defs>
<clipPath id="clip0_9186_15863">
<rect width="18" height="18" fill="white" transform="translate(0.666504 0.339844)"/>
</clipPath>
</defs>
</svg>
