<svg width="32" height="32" viewBox="0 0 32 32" fill="none" xmlns="http://www.w3.org/2000/svg">
<rect width="32" height="32" rx="10" fill="url(#paint0_linear_12781_23024)"/>
<path d="M23.8195 12.8966C22.9576 10.8649 19.3868 10.434 15.5081 11.7268L13.7843 10.6802C13.2302 10.3724 12.6145 10.7418 12.6145 11.3575V13.0197C9.28994 14.9283 7.3814 17.6372 8.18176 19.5457C9.10525 21.7621 13.4149 22.0699 17.7245 20.2229C22.0341 18.4375 24.743 15.113 23.8195 12.8966ZM14.2768 12.0347L18.4017 14.4973C18.7095 14.682 18.7711 15.113 18.4017 15.2977L14.2768 17.6987C13.969 17.8834 13.538 17.6372 13.538 17.2062V12.4041C13.538 12.0962 13.969 11.85 14.2768 12.0347ZM12.122 21.0233C10.275 20.9002 9.47464 19.7304 9.96717 18.1297C9.96717 18.376 10.0287 18.6222 10.0903 18.8685C10.8291 20.5923 14.0921 20.8386 17.4166 19.361C17.4782 19.361 17.5398 19.2995 17.6013 19.2995C15.8159 20.4076 13.7843 21.0849 12.122 21.0233ZM19.9408 16.6521C18.2786 18.6838 15.2618 20.0382 13.2302 19.9151C11.1985 19.792 10.8907 18.0066 12.5529 16.0365C12.6145 15.9749 12.6145 15.9749 12.6761 15.9133V18.4375C12.6761 19.0532 13.2917 19.361 13.7843 19.1148L19.8793 15.5439C20.3718 15.2361 20.3102 14.6204 19.8793 14.3126L17.4166 12.9582C18.0939 12.7735 18.7095 12.6503 19.3252 12.7119C21.2953 12.8966 21.6031 14.6204 19.9408 16.6521ZM22.2188 13.7585V13.697C21.6031 12.3425 19.3868 11.9115 16.801 12.5272L16.3085 12.2809C17.6013 11.7268 18.8327 11.4806 19.9408 11.5421C21.5416 11.6653 22.3419 12.5272 22.2188 13.7585Z" fill="white"/>
<defs>
<linearGradient id="paint0_linear_12781_23024" x1="0" y1="32" x2="32" y2="0" gradientUnits="userSpaceOnUse">
<stop stop-color="#001C64"/>
<stop offset="1" stop-color="#325FFF"/>
</linearGradient>
</defs>
</svg>
