<?xml version="1.0" encoding="utf-8"?>
<!-- Generator: Adobe Illustrator 27.5.0, SVG Export Plug-In . SVG Version: 6.00 Build 0)  -->
<svg version="1.1" id="Layer_1" xmlns="http://www.w3.org/2000/svg" xmlns:xlink="http://www.w3.org/1999/xlink" x="0px" y="0px"
	 viewBox="0 0 300 450" style="enable-background:new 0 0 300 450;" xml:space="preserve">
<style type="text/css">
	.st0{fill:url(#SVGID_1_);}
	.st1{fill:#FFC600;}
	.st2{fill:url(#SVGID_00000048482968523950514780000007652034925473791891_);}
</style>
<g>
	<g>
		<rect width="300" height="450"/>
	</g>
	<g id="main_x5F_maxbet-logo_00000127015698555531537200000001410422898301861026_">
		<g>
			<linearGradient id="SVGID_1_" gradientUnits="userSpaceOnUse" x1="40.2497" y1="246.2091" x2="210.0131" y2="246.2091">
				<stop  offset="0" style="stop-color:#700036"/>
				<stop  offset="0.35" style="stop-color:#DB0010"/>
				<stop  offset="0.3631" style="stop-color:#DD090F"/>
				<stop  offset="0.449" style="stop-color:#E7420B"/>
				<stop  offset="0.5323" style="stop-color:#F07107"/>
				<stop  offset="0.611" style="stop-color:#F69604"/>
				<stop  offset="0.684" style="stop-color:#FBB002"/>
				<stop  offset="0.7492" style="stop-color:#FEC000"/>
				<stop  offset="0.8" style="stop-color:#FFC600"/>
			</linearGradient>
			<path class="st0" d="M210,245.1c-19.3-3.1-38.8-4.7-58.5-4.7c-36.8,0-73.2,5.5-108.1,16.3c-0.2,0.1-0.5,0.1-0.7,0.1
				c-1,0-2-0.7-2.3-1.7c-0.4-1.3,0.3-2.7,1.6-3.1c35.4-10.9,72.3-16.5,109.6-16.5c18.6,0,37,1.4,55.3,4.1L210,245.1z"/>
		</g>
		<path class="st1" d="M241,246.8l-6.6,2.2l-0.6,0.2l-3.7,1.2l-0.8,2.5l-1.5,4.9l-0.4,1.4c-0.5-0.7-1-1.4-1.5-2.1
			c-1-1.5-2.1-2.9-3.1-4.4l-4.9,1.7l-10,3.5l7-5.9l3.5-3l1.4-1.1l-2.7-4.5l-0.6-1l-0.8-1.3l9.6,1.9l8.3-7.5l-2,8.9L241,246.8z"/>
		
			<linearGradient id="SVGID_00000063615220630549628830000012653780346538775434_" gradientUnits="userSpaceOnUse" x1="150" y1="245.4843" x2="150" y2="190.697">
			<stop  offset="0" style="stop-color:#EE5B29"/>
			<stop  offset="0.1677" style="stop-color:#EB1D25"/>
			<stop  offset="0.3254" style="stop-color:#E71C24"/>
			<stop  offset="0.4731" style="stop-color:#DC1B22"/>
			<stop  offset="0.6164" style="stop-color:#C9181E"/>
			<stop  offset="0.6587" style="stop-color:#C2171C"/>
		</linearGradient>
		<path style="fill:url(#SVGID_00000063615220630549628830000012653780346538775434_);" d="M69,190.7c4.2,0,6.3,0,10.4,0
			c-0.1,14.9-0.2,29.7-0.3,44.6c-4.1,0.8-6.1,1.3-10.1,2.2c0.1-9.1,0.1-18.3,0.2-27.4c-3.3,6.8-6.5,13.6-9.6,20.5
			c-3.3-6.1-6.3-12.3-9.4-18.4c0,10.1-0.1,20.2-0.1,30.3c-4,1.2-6,1.8-10,3c0-16.3,0-32.6,0-48.9c-0.9-2.3-1.3-3.5-2.1-5.9
			c5,0,7.6,0,12.6,0c3,6.5,6,13.1,9.1,19.5C62.8,203.7,65.9,197.2,69,190.7z M110.6,230.3c-0.7-3.2-1-4.8-1.7-8
			c-4,0.4-6.1,0.6-10.1,1.1c-0.7,3.5-1.1,5.2-1.8,8.8c-4.2,0.6-6.3,1-10.5,1.8c3.1-12.9,6.3-25.8,9.6-38.7c-0.8-1.8-1.3-2.7-2.1-4.5
			c6.7,0,10.1,0,16.8,0c3.3,12.9,6.7,25.7,10.3,38.5C116.9,229.6,114.8,229.8,110.6,230.3z M100.7,214.6c2.7-0.2,4-0.3,6.7-0.5
			c-1.2-6-1.8-9-3-15.1c-0.1,0-0.2,0-0.4,0C102.6,205.2,102,208.4,100.7,214.6z M159.7,190.7c-3.1,6.2-6.3,12.4-9.4,18.6
			c3.2,6.2,6.3,12.5,9.5,18.7c-4.3-0.1-6.5-0.1-10.8,0c-2.2-4.9-3.3-7.4-5.5-12.3c-2.2,5-3.4,7.5-5.6,12.6
			c-4.3,0.2-6.5,0.3-10.8,0.6c3.2-6.5,6.4-13,9.6-19.4c-3.2-6.3-6.3-12.5-9.4-18.8c4.3,0,6.5,0,10.8,0c2.2,5,3.3,7.4,5.5,12.3
			c2.2-5,3.3-7.4,5.6-12.3C153.2,190.7,155.4,190.7,159.7,190.7z M196.3,198.4c0,3.3,0,5,0.1,8.3c-1.5,1.4-2.3,2-3.9,3.4
			c1.6,1.5,2.3,2.3,3.9,3.8c0,3.6,0,5.4,0.1,9.1c0,2.5-0.7,4.3-2.1,5.5c-1.4,1.2-3.5,1.6-6.2,1.3c-7-0.6-14-1.2-21-1.4
			c0-11.2-0.1-22.3-0.1-33.5c-0.9-1.6-1.3-2.4-2.2-4c7.7,0,15.4,0,23,0c2.7,0,4.7,0.7,6.2,2C195.5,194,196.2,195.9,196.3,198.4z
			 M186.1,204.3c0-1.7,0-2.5,0-4.2c0-0.9-0.5-1.4-1.5-1.4c-3-0.1-4.4-0.1-7.4-0.1c0,2.7,0,4.1,0,6.8c3,0.1,4.4,0.1,7.4,0.2
			C185.6,205.6,186.1,205.2,186.1,204.3z M186.2,220.1c0-2,0-3,0-5c0-0.9-0.5-1.4-1.5-1.5c-3-0.2-4.4-0.2-7.4-0.3c0,3,0,4.6,0,7.6
			c3,0.2,4.4,0.2,7.4,0.5C185.7,221.4,186.2,221,186.2,220.1z M233.4,200.5c0-3.3,0-6.5,0-9.8c9.7,0,18.9,0,28.6,0
			c0,4.6,0,6.9,0,11.5c-3.8-0.3-5.7-0.4-9.5-0.6c0,13.9,0.1,27.8,0.1,41.7c-4-1.2-6-1.8-10.1-2.8c0-7.8-0.1-15.6-0.1-23.4
			c0-5.3,0-10.7-0.1-16C239.4,200.8,236.4,200.7,233.4,200.5z M213.6,216.1c0,3.4,0,5.1,0.1,8.6c5.7,0.9,11.5,1.8,17.2,2.7
			c-2.9,2.6-5.7,5.2-8.6,7.8c-7.5-1.5-11.2-2.1-18.7-3.3c-0.1-12.2-0.2-24.5-0.3-36.7c-0.9-1.8-1.3-2.7-2.2-4.4c9.8,0,16.7,0,26.5,0
			c0,3.2,0,6.3,0,9.5c-4.1-0.2-10.1-0.4-14.2-0.6c0,3.1,0,4.6,0.1,7.6c4.7,0.4,4.6,0.3,9.3,0.7c0,3.1,0,6.1,0,9.2
			C219.7,216.8,216.6,216.4,213.6,216.1z"/>
	</g>
</g>
</svg>
