<svg width="32" height="32" viewBox="0 0 32 32" fill="none" xmlns="http://www.w3.org/2000/svg">
<rect width="32" height="32" rx="10" fill="url(#paint0_linear_12781_23060)"/>
<path d="M22.1739 19.5652C20.8696 19.5652 19.5652 19.4782 18.1739 19.4782C18.1739 18.7826 18.1739 18.1739 18.1739 17.4782C17.3044 17.4782 16.5218 17.4782 15.6522 17.4782C15.6522 17.6522 15.6522 17.913 15.6522 18.0869C15.6522 18.2609 15.6522 18.5217 15.6522 18.6956C15.6522 18.8696 15.6522 19.1304 15.6522 19.3913C14.3479 19.3913 13.0435 19.3043 11.7392 19.3043C11.7392 19.1304 11.7392 18.9565 11.7392 18.8696C11.7392 18.1739 11.7392 17.5652 11.7392 16.8696C11.7392 14.1739 11.7392 11.3913 11.7392 8.69565C11.7392 8.52174 11.7392 8.34783 11.7392 8.26087C11.7392 8 11.8261 8 12 8H12.087C13.1305 8 14.1739 8 15.2174 8C15.6522 8 15.6522 8 15.6522 8.43478C15.6522 10.087 15.6522 11.7391 15.6522 13.3913C15.6522 13.4783 15.6522 13.5652 15.6522 13.6522C16.5218 13.6522 17.3044 13.6522 18.1739 13.6522C18.1739 13.5652 18.1739 13.4783 18.1739 13.3913C18.1739 11.7391 18.1739 10.1739 18.1739 8.52174C18.1739 8.08696 18.1739 8.08696 18.6087 8.08696C19.6522 8.08696 20.6957 8.08696 21.6522 8.08696C22.087 8.08696 22.087 8.08696 22.087 8.52174C22.087 12.1739 22.087 15.8261 22.087 19.4782C22.1739 19.3913 22.1739 19.4782 22.1739 19.5652Z" fill="white"/>
<path d="M9.82617 19.913C11.1305 19.913 12.4349 20 13.7392 20C13.7392 20.087 13.7392 20.1739 13.7392 20.1739C13.7392 21.3043 13.7392 22.4348 13.7392 23.5652C13.7392 23.913 13.7392 24 13.3044 24C12.261 24 11.2175 24 10.174 24H10.087C9.82617 24 9.82617 24 9.82617 23.7391C9.82617 22.5217 9.82617 21.2174 9.82617 19.913C9.82617 20 9.82617 20 9.82617 19.913Z" fill="white"/>
<path d="M20.2609 20.1739C20.2609 20.2609 20.2609 20.3478 20.2609 20.3478C20.2609 21.4783 20.2609 22.5217 20.2609 23.6522C20.2609 23.7391 20.2609 23.7391 20.2609 23.8261C20.2609 23.913 20.174 24 20.087 24C20.0001 24 19.9131 24 19.8262 24C18.7827 24 17.8262 24 16.7827 24C16.7827 24 16.7827 24 16.6957 24C16.3479 24 16.3479 24 16.3479 23.6522C16.3479 22.5217 16.3479 21.3913 16.3479 20.1739V20.087C17.5653 20.1739 18.8696 20.1739 20.2609 20.1739Z" fill="white"/>
<defs>
<linearGradient id="paint0_linear_12781_23060" x1="0" y1="32" x2="32" y2="0" gradientUnits="userSpaceOnUse">
<stop stop-color="#17191A"/>
<stop offset="1" stop-color="#30363C"/>
</linearGradient>
</defs>
</svg>
