<svg width="32" height="32" viewBox="0 0 32 32" fill="none" xmlns="http://www.w3.org/2000/svg">
<rect width="32" height="32" rx="10" fill="url(#paint0_linear_8970_60128)"/>
<path d="M16.115 8.00463H16.4307C16.7762 7.97553 17.124 8.0151 17.4541 8.12104C17.7842 8.22698 18.0901 8.3972 18.3541 8.62189C18.5563 8.42368 18.797 8.26908 19.0614 8.16768C19.3257 8.06629 19.6081 8.02025 19.891 8.03242H20.152C20.4882 8.03477 20.8218 8.09165 21.1398 8.20084V8.22442C20.8892 8.3291 20.6747 8.50472 20.5225 8.72968C20.1971 9.19385 20.0113 9.74143 19.987 10.3078V13.6029C19.9884 13.7036 19.9839 13.8043 19.9735 13.9044C19.9312 14.2025 19.9656 14.5065 20.0737 14.7875C20.1817 15.0685 20.3597 15.3173 20.5907 15.5103L20.8653 15.6063V15.6341C20.514 15.8266 20.2491 16.1454 20.1242 16.5259C20.0209 16.9102 19.9702 17.3069 19.9735 17.7048V19.5027C20.0261 20.3121 19.8652 21.1212 19.507 21.8488C19.1307 22.5128 18.5244 23.016 17.8025 23.2636C17.144 23.4281 16.6362 23.5653 16.2792 23.6754C16.1055 23.7563 15.9477 23.8679 15.8135 24.0046C15.687 23.7851 15.4807 23.6228 15.2375 23.5516C14.7209 23.4914 14.2165 23.3525 13.7419 23.1398C13.3528 22.9248 13.0103 22.6345 12.7346 22.2858C12.4589 21.937 12.2554 21.5369 12.136 21.1086C12.0128 20.6414 11.9347 20.1634 11.9027 19.6813C11.7536 19.1875 11.4257 18.7672 10.9832 18.5023C10.9488 18.4686 10.9061 18.4448 10.8594 18.4333V18.3785L11.9541 18.1175H12.2421C12.5125 18.1347 12.7668 18.2521 12.9554 18.4467H12.9832C13.0599 18.2092 13.2277 18.0118 13.4497 17.8977C13.903 17.632 14.4199 17.4943 14.9453 17.4994V17.5272C14.6473 17.8935 14.5001 18.3597 14.5335 18.8307C14.4652 19.5038 14.6244 20.1804 14.9857 20.7524C15.1069 20.8482 15.2565 20.9012 15.411 20.9032H15.4387C15.6032 20.9032 15.7267 20.7934 15.8093 20.5739H15.8371C15.9493 20.7524 16.0316 20.8484 16.0838 20.8619H16.1385C16.2893 20.8619 16.44 20.6935 16.6051 20.3819C16.6917 20.1306 16.7289 19.865 16.7145 19.5996V17.5785C16.769 17.2061 16.7241 16.826 16.5843 16.4765C16.4446 16.1271 16.215 15.8208 15.9187 15.5886V15.5659C16.2148 15.4203 16.4524 15.1782 16.5924 14.8796C16.6764 14.6042 16.7134 14.3167 16.7019 14.0291V10.584C16.7082 10.1053 16.6011 9.63199 16.3893 9.20269C16.1775 8.77339 15.8671 8.40035 15.4834 8.11411V8.10063C15.6867 8.0322 15.9005 7.99972 16.115 8.00463Z" fill="white"/>
<defs>
<linearGradient id="paint0_linear_8970_60128" x1="0" y1="32" x2="32" y2="0" gradientUnits="userSpaceOnUse">
<stop stop-color="#4F0026"/>
<stop offset="1" stop-color="#920046"/>
</linearGradient>
</defs>
</svg>
