<svg width="19" height="20" viewBox="0 0 19 20" fill="none" xmlns="http://www.w3.org/2000/svg">
    <path d="M2.81505 19.9965C2.09186 19.9965 1.39849 19.709 0.887121 19.1976C0.375749 18.6862 0.0882568 17.9929 0.0882568 17.2697V2.72679C0.0882568 2.0036 0.375749 1.31024 0.887121 0.798864C1.39849 0.287492 2.09186 0 2.81505 0H11.9043C12.4016 0.000754924 12.8887 0.137504 13.3139 0.395438C13.7391 0.653372 14.0865 1.02254 14.3169 1.46325L16.8928 2.15427C17.5909 2.34314 18.1863 2.80092 18.5473 3.42757C18.9084 4.05422 19.0057 4.79839 18.819 5.49707L15.6981 17.1507C15.584 17.571 15.3703 17.9581 15.0767 18.2798C14.7832 18.6015 14.4179 18.8482 14.0098 19.0001C13.7549 19.3123 13.433 19.5643 13.0689 19.7373C12.7048 19.9102 12.3074 19.9998 11.9043 20L2.81505 19.9965ZM1.45165 2.72679V17.2697C1.45165 17.6313 1.5954 17.9779 1.85108 18.2336C2.10677 18.4893 2.45345 18.6331 2.81505 18.6331H11.9043C12.2659 18.6331 12.6126 18.4893 12.8683 18.2336C13.124 17.9779 13.2677 17.6313 13.2677 17.2697V2.72679C13.2677 2.36519 13.124 2.01851 12.8683 1.76283C12.6126 1.50714 12.2659 1.36339 11.9043 1.36339H2.81505C2.45389 1.36483 2.10823 1.50878 1.85286 1.76416C1.59748 2.01953 1.45309 2.36564 1.45165 2.72679ZM14.6311 15.8663L17.5035 5.14069C17.5499 4.96755 17.5609 4.78713 17.5372 4.60944C17.5135 4.43176 17.4552 4.26062 17.365 4.10572C17.2768 3.94969 17.1574 3.81291 17.0153 3.70362C16.8732 3.59433 16.7112 3.51457 16.5378 3.46929L14.6294 2.95846L14.6311 15.8663ZM7.28513 12.3349C6.82064 12.0612 6.38135 11.7467 5.97322 11.3945C5.63127 11.1054 5.324 10.7776 5.05719 10.4181C4.80006 10.0806 4.65164 9.67286 4.63113 9.24907C4.63172 8.83092 4.78493 8.42785 5.06252 8.11513C5.19499 7.96625 5.35839 7.84687 5.54006 7.76496C5.72173 7.68305 5.91773 7.64005 6.11702 7.63936C6.37048 7.64342 6.61804 7.71405 6.83599 7.84351C7.05394 7.97297 7.23488 8.15678 7.35969 8.37742C7.48547 8.15641 7.66629 7.97207 7.88517 7.84262C8.10404 7.71318 8.35343 7.6431 8.6077 7.63936C8.79617 7.64064 8.98289 7.67945 9.15625 7.75342C9.32961 7.82738 9.48646 7.93513 9.61782 8.0703C9.9251 8.38624 10.0941 8.81148 10.0883 9.25217C10.0666 9.67726 9.91499 10.085 9.65332 10.4207C9.39295 10.7817 9.0875 11.1083 8.74439 11.3918C8.33593 11.7428 7.8986 12.0593 7.4378 12.338C7.41365 12.3523 7.38596 12.3592 7.35792 12.358C7.33213 12.3576 7.30688 12.3488 7.28513 12.3349Z" fill="#B5B5BA"/>
</svg>
