<svg width="57" height="37" viewBox="0 0 57 37" fill="none" xmlns="http://www.w3.org/2000/svg">
<rect x="0.537109" y="0.339844" width="55.8806" height="36" rx="8" fill="white"/>
<path fill-rule="evenodd" clip-rule="evenodd" d="M28.2047 25.1898C26.6512 26.5305 24.6359 27.3398 22.4338 27.3398C17.5203 27.3398 13.5371 23.3104 13.5371 18.3398C13.5371 13.3693 17.5203 9.33984 22.4338 9.33984C24.6359 9.33984 26.6512 10.1492 28.2047 11.4899C29.7583 10.1492 31.7735 9.33984 33.9756 9.33984C38.8891 9.33984 42.8723 13.3693 42.8723 18.3398C42.8723 23.3104 38.8891 27.3398 33.9756 27.3398C31.7735 27.3398 29.7583 26.5305 28.2047 25.1898Z" fill="#ED0006"/>
<path fill-rule="evenodd" clip-rule="evenodd" d="M28.2046 25.1898C30.1175 23.5391 31.3304 21.0827 31.3304 18.3398C31.3304 15.5969 30.1175 13.1406 28.2046 11.4899C29.7581 10.1492 31.7734 9.33984 33.9755 9.33984C38.889 9.33984 42.8722 13.3693 42.8722 18.3398C42.8722 23.3104 38.889 27.3398 33.9755 27.3398C31.7734 27.3398 29.7581 26.5305 28.2046 25.1898Z" fill="#F9A000"/>
<path fill-rule="evenodd" clip-rule="evenodd" d="M28.2049 25.1902C30.1178 23.5394 31.3308 21.0831 31.3308 18.3402C31.3308 15.5973 30.1178 13.141 28.2049 11.4902C26.2921 13.141 25.0791 15.5973 25.0791 18.3402C25.0791 21.0831 26.2921 23.5394 28.2049 25.1902Z" fill="#FF5E00"/>
</svg>
