<?xml version="1.0" encoding="UTF-8"?>
<svg id="Layer_2" data-name="Layer 2" xmlns="http://www.w3.org/2000/svg" xmlns:xlink="http://www.w3.org/1999/xlink" viewBox="0 0 221.93 67.97">
  <defs>
    <style>
      .cls-1 {
        fill: #ec1b34;
      }

      .cls-2 {
        fill: #fff;
      }

      .cls-3 {
        fill: url(#linear-gradient);
      }
    </style>
    <linearGradient id="linear-gradient" x1="2.23" y1="55" x2="170.42" y2="55" gradientUnits="userSpaceOnUse">
      <stop offset="0" stop-color="#80132c"/>
      <stop offset="1" stop-color="#ec1b34"/>
    </linearGradient>
  </defs>
  <g id="Layer_1-2" data-name="Layer 1">
    <g id="white_maxbet-logo">
      <path class="cls-3" d="M170.42,53.91c-19.09-3.07-38.44-4.62-57.92-4.62-36.47,0-72.51,5.43-107.14,16.13-.23.08-.48.11-.71.11-1.03,0-1.99-.67-2.31-1.7-.4-1.28.32-2.63,1.59-3.02,35.09-10.85,71.62-16.35,108.57-16.35,18.39,0,36.69,1.36,54.75,4.07l3.17,5.38Z"/>
      <path class="cls-1" d="M201.15,55.58l-6.51,2.17-.55.18-3.67,1.22-.75,2.5-1.46,4.9-.43,1.43c-.49-.69-.97-1.37-1.46-2.05-1.02-1.44-2.05-2.89-3.07-4.33l-4.9,1.69-9.93,3.43,6.9-5.8,3.49-2.94,1.35-1.13-2.64-4.51-.59-1.01-.77-1.32,9.5,1.9,8.26-7.46-1.97,8.78,9.19,2.37Z"/>
      <path class="cls-2" d="M30.75,0h10.35c-.1,14.72-.2,29.45-.3,44.17-4.01.82-6.02,1.26-10.02,2.19.05-9.05.11-18.1.16-27.16-3.26,6.73-6.42,13.48-9.51,20.3-3.24-6.02-6.29-12.14-9.32-18.27-.03,10.01-.06,20.02-.08,30.02-3.98,1.15-5.97,1.75-9.93,3.02,0-16.15.02-32.31.03-48.46C1.28,3.52.85,2.36,0,0h12.48c2.94,6.48,5.9,12.95,9.05,19.33C24.53,12.84,27.59,6.41,30.75,0ZM71.98,39.23c-.66-3.17-1-4.77-1.66-7.97-4.01.38-6.01.59-10.01,1.06-.71,3.46-1.06,5.2-1.77,8.7-4.15.63-6.22.98-10.37,1.74,3.08-12.8,6.24-25.59,9.53-38.34-.84-1.75-1.26-2.63-2.1-4.41h16.62c3.31,12.75,6.68,25.49,10.16,38.19-4.16.35-6.25.56-10.4,1.03ZM62.07,23.73c2.64-.22,3.95-.32,6.59-.52-1.21-5.91-1.81-8.89-3.01-14.92-.15,0-.22,0-.37.01-1.28,6.1-1.93,9.19-3.21,15.43ZM120.56,0c-3.1,6.16-6.21,12.32-9.33,18.47,3.13,6.17,6.26,12.34,9.37,18.51-4.29-.08-6.44-.08-10.73-.03-2.2-4.87-3.3-7.3-5.49-12.17-2.21,4.96-3.32,7.45-5.54,12.49-4.29.19-6.44.31-10.72.63,3.14-6.43,6.3-12.84,9.49-19.24C94.46,12.47,91.37,6.24,88.29,0,92.55,0,94.68,0,98.95,0c2.18,4.92,3.27,7.36,5.46,12.23,2.21-4.91,3.31-7.36,5.5-12.23h10.66ZM156.79,7.62c.02,3.27.03,4.91.05,8.18-1.53,1.35-2.29,2.01-3.82,3.34,1.55,1.49,2.32,2.24,3.87,3.77.02,3.59.03,5.38.06,8.97.02,2.45-.69,4.25-2.1,5.4-1.42,1.15-3.45,1.57-6.11,1.31-6.94-.6-13.86-1.16-20.83-1.41-.03-11.07-.05-22.14-.08-33.21-.86-1.6-1.29-2.39-2.14-3.98,7.61,0,15.22,0,22.84,0,2.64,0,4.67.65,6.1,1.96,1.43,1.32,2.15,3.21,2.17,5.66ZM146.76,13.45c0-1.65-.01-2.47-.02-4.12,0-.91-.52-1.38-1.53-1.4-2.93-.05-4.39-.08-7.32-.12.01,2.69.02,4.04.03,6.74,2.93.08,4.39.12,7.32.22,1.02.03,1.52-.4,1.52-1.32ZM146.85,29.09c-.01-1.98-.02-2.96-.03-4.94,0-.91-.52-1.4-1.53-1.45-2.93-.15-4.4-.22-7.33-.34.01,3.02.02,4.53.03,7.54,2.94.16,4.41.25,7.34.45,1.02.07,1.53-.35,1.52-1.26ZM193.57,9.71V0c9.64,0,18.71,0,28.35,0,0,4.55,0,6.83,0,11.38-3.76-.25-5.65-.37-9.41-.6.03,13.76.06,27.51.09,41.27-3.98-1.18-5.97-1.74-9.96-2.81-.03-7.74-.07-15.47-.1-23.21-.02-5.28-.04-10.56-.07-15.84-2.97-.16-5.94-.33-8.91-.49ZM173.95,25.13c.02,3.39.04,5.09.06,8.48,5.68.91,11.36,1.81,17.03,2.72-2.83,2.57-5.65,5.13-8.48,7.7-7.41-1.49-11.09-2.09-18.56-3.27-.08-12.13-.17-24.26-.25-36.39-.87-1.76-1.3-2.63-2.16-4.37,9.74,0,16.52,0,26.27,0v9.36c-4.06-.16-9.97-.42-14.03-.58.02,3.03.03,4.54.05,7.57,4.67.35,4.52.34,9.19.7,0,3.04,0,6.07,0,9.11-3.04-.34-6.09-.69-9.13-1.03Z"/>
    </g>
  </g>
</svg>