<svg width="32" height="32" viewBox="0 0 32 32" fill="none" xmlns="http://www.w3.org/2000/svg">
<rect width="32" height="32" rx="10" fill="url(#paint0_linear_19470_3845)"/>
<path d="M23.9999 17.2287C24.0013 17.3064 23.9792 17.3826 23.9365 17.4475C23.8938 17.5124 23.8324 17.5629 23.7606 17.5924C23.6887 17.6218 23.6096 17.6289 23.5337 17.6127C23.4577 17.5964 23.3884 17.5577 23.3348 17.5014L21.549 15.7123L17.422 19.254C17.3167 19.3651 17.1899 19.4535 17.0492 19.514C16.9086 19.5745 16.7571 19.6056 16.604 19.6056C16.4509 19.6056 16.2994 19.5745 16.1587 19.514C16.0181 19.4535 15.8912 19.3651 15.7859 19.254L13.2951 16.414L8.85882 20.3048C8.82371 20.3419 8.78142 20.3713 8.73454 20.3915C8.68765 20.4117 8.63716 20.422 8.58613 20.422C8.53509 20.422 8.4846 20.4117 8.43771 20.3915C8.39083 20.3713 8.34854 20.3419 8.31343 20.3048L8.11723 20.1086C8.08019 20.0735 8.0507 20.0312 8.03055 19.9843C8.01039 19.9375 8 19.887 8 19.8359C8 19.7849 8.01039 19.7344 8.03055 19.6875C8.0507 19.6406 8.08019 19.5983 8.11723 19.5632L12.4803 13.6105C12.5857 13.4994 12.7125 13.411 12.8532 13.3505C12.9938 13.29 13.1453 13.2589 13.2984 13.2589C13.4515 13.2589 13.603 13.29 13.7436 13.3505C13.8843 13.411 14.0111 13.4994 14.1165 13.6105L16.6073 16.1014L19.138 13.1815L17.5019 11.7017C17.4487 11.644 17.4127 11.5726 17.3981 11.4956C17.3835 11.4185 17.3908 11.3389 17.4192 11.2657C17.4477 11.1926 17.496 11.129 17.5588 11.082C17.6217 11.035 17.6964 11.0066 17.7746 11H23.2218C23.3247 11.0047 23.4257 11.0297 23.519 11.0736C23.6123 11.1175 23.6959 11.1794 23.7651 11.2557C23.8344 11.332 23.8878 11.4213 23.9224 11.5184C23.957 11.6155 23.9721 11.7185 23.9667 11.8214L23.9999 17.2287Z" fill="white"/>
<defs>
<linearGradient id="paint0_linear_19470_3845" x1="0" y1="32" x2="32" y2="0" gradientUnits="userSpaceOnUse">
<stop stop-color="#700036"/>
<stop offset="1" stop-color="#DB0010"/>
</linearGradient>
</defs>
</svg>
