<svg width="32" height="32" viewBox="0 0 32 32" fill="none" xmlns="http://www.w3.org/2000/svg">
<rect width="32" height="32" rx="10" fill="url(#paint0_linear_8970_60085)"/>
<path d="M8 9.14286C8 8.51167 8.51167 8 9.14286 8H11.4286C12.0598 8 12.5714 8.51167 12.5714 9.14286V11.4286C12.5714 12.0598 12.0598 12.5714 11.4286 12.5714H9.14286C8.51167 12.5714 8 12.0598 8 11.4286V9.14286Z" fill="white"/>
<path d="M13.7143 9.14286C13.7143 8.51167 14.226 8 14.8571 8H17.1429C17.774 8 18.2857 8.51167 18.2857 9.14286V11.4286C18.2857 12.0598 17.774 12.5714 17.1429 12.5714H14.8571C14.226 12.5714 13.7143 12.0598 13.7143 11.4286V9.14286Z" fill="white"/>
<path d="M19.4286 9.14286C19.4286 8.51167 19.9402 8 20.5714 8H22.8571C23.4883 8 24 8.51167 24 9.14286V11.4286C24 12.0598 23.4883 12.5714 22.8571 12.5714H20.5714C19.9402 12.5714 19.4286 12.0598 19.4286 11.4286V9.14286Z" fill="white"/>
<path d="M8 14.8571C8 14.226 8.51167 13.7143 9.14286 13.7143H11.4286C12.0598 13.7143 12.5714 14.226 12.5714 14.8571V17.1429C12.5714 17.774 12.0598 18.2857 11.4286 18.2857H9.14286C8.51167 18.2857 8 17.774 8 17.1429V14.8571Z" fill="white"/>
<path d="M13.7143 14.8571C13.7143 14.226 14.226 13.7143 14.8571 13.7143H17.1429C17.774 13.7143 18.2857 14.226 18.2857 14.8571V17.1429C18.2857 17.774 17.774 18.2857 17.1429 18.2857H14.8571C14.226 18.2857 13.7143 17.774 13.7143 17.1429V14.8571Z" fill="white"/>
<path d="M19.4286 14.8571C19.4286 14.226 19.9402 13.7143 20.5714 13.7143H22.8571C23.4883 13.7143 24 14.226 24 14.8571V17.1429C24 17.774 23.4883 18.2857 22.8571 18.2857H20.5714C19.9402 18.2857 19.4286 17.774 19.4286 17.1429V14.8571Z" fill="white"/>
<path d="M8 20.5714C8 19.9402 8.51167 19.4286 9.14286 19.4286H11.4286C12.0598 19.4286 12.5714 19.9402 12.5714 20.5714V22.8571C12.5714 23.4883 12.0598 24 11.4286 24H9.14286C8.51167 24 8 23.4883 8 22.8571V20.5714Z" fill="white"/>
<path d="M13.7143 20.5714C13.7143 19.9402 14.226 19.4286 14.8571 19.4286H17.1429C17.774 19.4286 18.2857 19.9402 18.2857 20.5714V22.8571C18.2857 23.4883 17.774 24 17.1429 24H14.8571C14.226 24 13.7143 23.4883 13.7143 22.8571V20.5714Z" fill="white"/>
<path d="M19.4286 20.5714C19.4286 19.9402 19.9402 19.4286 20.5714 19.4286H22.8571C23.4883 19.4286 24 19.9402 24 20.5714V22.8571C24 23.4883 23.4883 24 22.8571 24H20.5714C19.9402 24 19.4286 23.4883 19.4286 22.8571V20.5714Z" fill="white"/>
<defs>
<linearGradient id="paint0_linear_8970_60085" x1="0" y1="32" x2="32" y2="0" gradientUnits="userSpaceOnUse">
<stop stop-color="#455359"/>
<stop offset="1" stop-color="#A9B4BE"/>
</linearGradient>
</defs>
</svg>
