<svg width="76" height="32" viewBox="0 0 76 32" fill="none" xmlns="http://www.w3.org/2000/svg">
<g clip-path="url(#clip0_9186_15970)">
<path d="M60.6971 20.1699C60.8081 21.1079 60.8951 22.0499 60.9911 22.9899C60.9951 23.0369 60.9971 23.0849 61.0011 23.1579H58.7461C58.7561 23.0109 58.7611 22.8759 58.7741 22.7419C58.8681 21.8079 58.9611 20.8739 59.0611 19.9419C59.0741 19.8239 59.0411 19.7599 58.9511 19.6839C58.0961 18.9559 58.2071 17.7139 59.1711 17.1679C59.8061 16.8079 60.6251 17.0059 61.0861 17.6299C61.5081 18.1999 61.4491 19.0859 60.9181 19.5549C60.7101 19.7389 60.6661 19.9089 60.6981 20.1699H60.6971ZM55.7421 14.0399C55.7451 12.9919 55.7261 11.9419 55.7601 10.8939C55.8141 9.22086 57.0821 7.63187 58.6811 7.17987C60.4581 6.67787 62.1951 7.28387 63.2601 8.79987C63.7461 9.49287 63.9861 10.2799 63.9931 11.1319C64.0001 12.1119 63.9951 13.0919 63.9951 14.0719C63.9951 14.0989 63.9891 14.1259 63.9841 14.1719H55.7591C55.7521 14.1219 55.7411 14.0809 55.7421 14.0409V14.0399ZM75.1111 5.91687V25.7279C75.1111 28.6889 72.7231 31.0979 69.7871 31.0979H6.13309C3.19709 31.0979 0.808105 28.6889 0.808105 25.7279V5.91687C0.808105 2.95587 3.19709 0.546875 6.13309 0.546875H69.7871C72.7231 0.546875 75.1111 2.95587 75.1111 5.91687ZM51.8231 14.4419C51.8291 18.3909 51.8281 22.3399 51.8281 26.2889V26.5449H67.8941V14.1799H66.4881V13.9349C66.4881 13.0589 66.5001 12.1809 66.4831 11.3049C66.4827 10.8492 66.4446 10.3943 66.3691 9.94489C66.0281 8.13089 65.0951 6.68086 63.5851 5.64386C62.0351 4.57886 60.3151 4.23789 58.4751 4.63889C56.8201 4.99889 55.4961 5.89087 54.5051 7.27087C53.7471 8.32587 53.3181 9.50787 53.2791 10.8129C53.2491 11.8469 53.2601 12.8829 53.2541 13.9189V14.1829C52.8461 14.1829 52.4641 14.1959 52.0831 14.1779C51.8721 14.1679 51.8231 14.2329 51.8231 14.4419ZM6.13309 29.9049H45.4131V1.73987H6.13309C3.84909 1.73987 1.9921 3.61387 1.9921 5.91687V25.7279C1.9921 28.0309 3.84911 29.9049 6.13211 29.9049H6.13309ZM4.99609 9.37488L5.00308 9.35287H6.02811C6.02811 9.66687 6.1201 9.89787 6.3031 10.0469C6.4861 10.1949 6.7351 10.2699 7.0491 10.2699C7.3311 10.2699 7.5471 10.2099 7.6951 10.0899C7.76714 10.0335 7.82487 9.9609 7.86362 9.87802C7.90236 9.79514 7.92103 9.70432 7.91809 9.61288C7.92173 9.52011 7.90457 9.42768 7.86789 9.34238C7.83121 9.25708 7.77593 9.18106 7.70609 9.11987C7.56509 8.99487 7.3161 8.87887 6.9621 8.76987C6.3541 8.58387 5.89209 8.36588 5.57709 8.11588C5.26209 7.86488 5.1051 7.52287 5.1051 7.08887C5.1051 6.65387 5.28208 6.29788 5.63708 6.02188C5.99208 5.74488 6.44411 5.60687 6.99411 5.60687C7.57811 5.60687 8.04808 5.75589 8.40408 6.05289C8.76008 6.34889 8.93211 6.73889 8.9201 7.22089L8.91309 7.24289H7.88809C7.88809 6.97789 7.80811 6.77286 7.64911 6.63086C7.49011 6.48886 7.2671 6.41788 6.9791 6.41788C6.7191 6.41788 6.51709 6.48088 6.37509 6.60788C6.30579 6.66787 6.25066 6.74249 6.21365 6.82635C6.17665 6.91022 6.1587 7.00123 6.1611 7.09286C6.1611 7.27286 6.2381 7.42087 6.3931 7.53687C6.5481 7.65187 6.81408 7.77387 7.19308 7.90387C7.77308 8.06887 8.2131 8.28488 8.5181 8.55188C8.8221 8.81788 8.97409 9.16889 8.97409 9.60489C8.97409 10.0599 8.79811 10.4189 8.44611 10.6819C8.09311 10.9449 7.6281 11.0769 7.0481 11.0769C6.4811 11.0769 5.9951 10.9339 5.5881 10.6489C5.1811 10.3639 4.98409 9.93888 4.99609 9.37488ZM9.5791 9.37488L9.58609 9.35287H10.6111C10.6111 9.66687 10.7031 9.89787 10.8861 10.0469C11.0691 10.1949 11.3181 10.2699 11.6321 10.2699C11.9141 10.2699 12.1291 10.2099 12.2781 10.0899C12.3502 10.0335 12.408 9.96097 12.4467 9.87808C12.4855 9.79519 12.5041 9.70434 12.5011 9.61288C12.5047 9.52011 12.4875 9.42769 12.4508 9.34241C12.4141 9.25712 12.3589 9.1811 12.2891 9.11987C12.1471 8.99487 11.8991 8.87887 11.5451 8.76987C10.9371 8.58387 10.4751 8.36588 10.1601 8.11588C9.8451 7.86488 9.68811 7.52287 9.68811 7.08887C9.68811 6.65387 9.86509 6.29788 10.2201 6.02188C10.5751 5.74488 11.0271 5.60687 11.5771 5.60687C12.1611 5.60687 12.6311 5.75589 12.9871 6.05289C13.3431 6.34889 13.5151 6.73889 13.5031 7.22089L13.4961 7.24289H12.4711C12.4711 6.97789 12.3911 6.77286 12.2321 6.63086C12.0721 6.48886 11.8501 6.41788 11.5621 6.41788C11.3021 6.41788 11.1001 6.48088 10.9581 6.60788C10.8888 6.66787 10.8337 6.74249 10.7967 6.82635C10.7597 6.91022 10.7417 7.00123 10.7441 7.09286C10.7441 7.27286 10.8211 7.42087 10.9761 7.53687C11.1301 7.65187 11.3971 7.77387 11.7761 7.90387C12.3561 8.06887 12.7961 8.28488 13.1011 8.55188C13.4051 8.81788 13.5571 9.16889 13.5571 9.60489C13.5571 10.0599 13.3811 10.4189 13.0291 10.6819C12.6761 10.9449 12.2101 11.0769 11.6311 11.0769C11.0641 11.0769 10.5771 10.9339 10.1711 10.6489C9.76408 10.3639 9.5671 9.93888 9.5791 9.37488ZM17.7531 10.9999H14.3361V5.68387H15.3931V10.1819H17.7531V10.9999ZM5.09711 16.9349L5.1051 16.9129H5.7851C5.7851 17.2469 5.91111 17.5039 6.16211 17.6859C6.41211 17.8659 6.69608 17.9579 7.01208 17.9579C7.35008 17.9579 7.61809 17.8809 7.81409 17.7279C7.91002 17.6552 7.98702 17.5604 8.03854 17.4516C8.09007 17.3428 8.11463 17.2232 8.11011 17.1029C8.11251 16.9894 8.09084 16.8768 8.04654 16.7723C8.00224 16.6679 7.93631 16.574 7.85309 16.4969C7.68109 16.3339 7.38009 16.1949 6.94809 16.0809C6.41209 15.9469 5.99408 15.7499 5.69308 15.4889C5.39308 15.2289 5.2431 14.9019 5.2431 14.5069C5.2431 14.0909 5.40409 13.7439 5.72809 13.4669C6.05109 13.1889 6.4711 13.0509 6.9881 13.0509C7.5431 13.0509 7.98509 13.2089 8.31409 13.5269C8.64409 13.8449 8.8041 14.2159 8.7941 14.6389L8.78308 14.6609H8.10309C8.10694 14.5209 8.08094 14.3817 8.02679 14.2525C7.97265 14.1234 7.89162 14.0073 7.78909 13.9119C7.58009 13.7149 7.31309 13.6169 6.98709 13.6169C6.65409 13.6169 6.39911 13.6979 6.22211 13.8609C6.13437 13.9411 6.06504 14.0395 6.01895 14.1491C5.97286 14.2587 5.95109 14.377 5.95511 14.4959C5.95511 14.7279 6.0531 14.9199 6.2471 15.0759C6.4411 15.2299 6.75708 15.3659 7.19308 15.4819C7.72408 15.6209 8.1281 15.8249 8.4061 16.0959C8.6841 16.3659 8.82208 16.6989 8.82208 17.0959C8.82208 17.5239 8.65511 17.8689 8.32111 18.1289C7.98611 18.3889 7.55108 18.5199 7.01208 18.5199C6.50309 18.5199 6.05409 18.3759 5.66409 18.0899C5.47869 17.9619 5.32922 17.7885 5.22995 17.5863C5.13068 17.3841 5.08495 17.1598 5.09711 16.9349ZM10.0411 17.9759C9.72611 17.6129 9.56808 17.1359 9.56808 16.5449V16.3849C9.56808 15.8169 9.73108 15.3479 10.0551 14.9769C10.3801 14.6059 10.7761 14.4199 11.2451 14.4199C11.7681 14.4199 12.1611 14.5839 12.4231 14.9129C12.6841 15.2409 12.8151 15.6779 12.8151 16.2229V16.6029H10.3101L10.3001 16.6219C10.3001 17.0179 10.3861 17.3399 10.5601 17.5869C10.7341 17.8349 11.0001 17.9579 11.3571 17.9579C11.5981 17.9579 11.8101 17.9229 11.9921 17.8539C12.1741 17.7839 12.3301 17.6889 12.4611 17.5669L12.7391 18.0349C12.5991 18.1709 12.4151 18.2859 12.1861 18.3799C11.9561 18.4729 11.6801 18.5199 11.3561 18.5199C10.7941 18.5199 10.3561 18.3389 10.0411 17.9759ZM10.3291 16.0189L10.3361 16.0369H12.1021V15.9789C12.1021 15.6919 12.0321 15.4539 11.8921 15.2669C11.7521 15.0799 11.5361 14.9859 11.2441 14.9859C11.1259 14.9837 11.0088 15.0088 10.9019 15.0591C10.7949 15.1094 10.7009 15.1835 10.6271 15.2759C10.4566 15.4887 10.3529 15.7472 10.3291 16.0189ZM15.1721 18.5199C14.6221 18.5199 14.1971 18.3319 13.8981 17.9539C13.5981 17.5769 13.4481 17.1069 13.4481 16.5439V16.3919C13.4481 15.8339 13.5991 15.3659 13.8991 14.9879C14.2001 14.6089 14.6241 14.4199 15.1721 14.4199C15.6091 14.4199 15.9661 14.5559 16.2451 14.8289C16.5241 15.1019 16.6591 15.4359 16.6491 15.8329L16.6421 15.8549H15.9941C15.999 15.6273 15.9151 15.4067 15.7601 15.2399C15.6862 15.1576 15.5954 15.0923 15.4939 15.0485C15.3924 15.0046 15.2826 14.9833 15.1721 14.9859C14.8221 14.9859 14.5671 15.1229 14.4061 15.3959C14.2461 15.6709 14.1661 16.0019 14.1661 16.3919V16.5449C14.1661 16.9419 14.2451 17.2759 14.4031 17.5489C14.5611 17.8219 14.8171 17.9579 15.1721 17.9579C15.3921 17.9579 15.5831 17.8839 15.7481 17.7369C15.8264 17.6702 15.8891 17.587 15.9316 17.4933C15.9741 17.3996 15.9955 17.2978 15.9941 17.1949H16.6381L16.6481 17.2169C16.6581 17.5569 16.5141 17.8599 16.2141 18.1239C15.9151 18.3879 15.5681 18.5199 15.1721 18.5199ZM18.8391 18.5199C18.4121 18.5199 18.0791 18.3829 17.8391 18.1079C17.6011 17.8329 17.4811 17.4039 17.4811 16.8219V14.4919H18.1951V16.8289C18.1951 17.2509 18.2561 17.5399 18.3791 17.6989C18.5021 17.8569 18.6941 17.9359 18.9551 17.9359C19.2081 17.9359 19.4171 17.8839 19.5831 17.7809C19.7497 17.6757 19.8802 17.5222 19.9571 17.3409V14.4929H20.6701V18.4429H20.0301L19.9831 17.8589C19.8699 18.0606 19.7062 18.2295 19.5081 18.3489C19.3045 18.4658 19.0728 18.525 18.8381 18.5199H18.8391ZM22.4221 18.4429H21.7091V14.4929H22.3461L22.4151 15.0699C22.5251 14.8649 22.6631 14.7059 22.8251 14.5909C22.9281 14.5186 23.0444 14.4675 23.1673 14.4403C23.2902 14.4132 23.4172 14.4107 23.5411 14.4329C23.5816 14.4393 23.6217 14.4483 23.6611 14.4599L23.5631 15.1279L23.1971 15.1059C23.0282 15.1003 22.8619 15.1475 22.7211 15.2409C22.5875 15.3367 22.4838 15.4684 22.4221 15.6209V18.4429ZM26.6871 18.3799C26.4571 18.4729 26.1811 18.5199 25.8571 18.5199C25.2951 18.5199 24.8571 18.3389 24.5421 17.9759C24.2271 17.6129 24.0691 17.1359 24.0691 16.5449V16.3849C24.0691 15.8169 24.2321 15.3479 24.5561 14.9769C24.8811 14.6059 25.2771 14.4199 25.7461 14.4199C26.2691 14.4199 26.6621 14.5839 26.9241 14.9129C27.1851 15.2409 27.3161 15.6779 27.3161 16.2229V16.6029H24.8111L24.8011 16.6219C24.8011 17.0179 24.8871 17.3399 25.0611 17.5869C25.2351 17.8349 25.5011 17.9579 25.8571 17.9579C26.0991 17.9579 26.3111 17.9229 26.4931 17.8539C26.6751 17.7839 26.8311 17.6889 26.9621 17.5669L27.2401 18.0349C27.1001 18.1709 26.9161 18.2859 26.6871 18.3799ZM24.8301 16.0189L24.8371 16.0369H26.6031V15.9789C26.6031 15.6919 26.5331 15.4539 26.3931 15.2669C26.2531 15.0799 26.0371 14.9859 25.7451 14.9859C25.6269 14.9837 25.5098 15.0088 25.4029 15.0591C25.2959 15.1094 25.2019 15.1835 25.1281 15.2759C24.9575 15.4887 24.8538 15.7472 24.8301 16.0189ZM5.8251 22.7499V23.7029C5.8251 24.1869 5.94408 24.5919 6.18008 24.9149C6.41608 25.2389 6.73411 25.4009 7.13211 25.4009C7.52811 25.4009 7.83409 25.2929 8.05209 25.0779C8.26909 24.8619 8.37711 24.5649 8.37711 24.1849H9.0611L9.06909 24.2069C9.07909 24.7069 8.90509 25.1239 8.54709 25.4589C8.19009 25.7949 7.71811 25.9629 7.13211 25.9629C6.53611 25.9629 6.05011 25.7499 5.67511 25.3239C5.30011 24.8979 5.11209 24.3579 5.11209 23.7039V22.7579C5.11209 22.1029 5.30011 21.5609 5.67511 21.1339C6.05011 20.7069 6.53511 20.4939 7.13211 20.4939C7.72811 20.4939 8.20208 20.6539 8.55508 20.9739C8.90708 21.2939 9.07809 21.7179 9.06909 22.2459L9.0611 22.2679H8.37711C8.37711 21.8959 8.26909 21.6009 8.05209 21.3849C7.83409 21.1679 7.52811 21.0599 7.13211 21.0599C6.94559 21.055 6.7608 21.0968 6.59454 21.1815C6.42829 21.2662 6.28581 21.3911 6.18008 21.5449C5.94308 21.8689 5.8251 22.2709 5.8251 22.7499ZM12.7671 22.4289C13.0821 22.8059 13.2391 23.2889 13.2391 23.8749V23.9549C13.2391 24.5449 13.0821 25.0259 12.7691 25.4009C12.4551 25.7759 12.0281 25.9629 11.4871 25.9629C10.9471 25.9629 10.5191 25.7749 10.2041 25.3989C9.8891 25.0229 9.73111 24.5419 9.73111 23.9549V23.8749C9.73111 23.2909 9.88809 22.8089 10.2021 22.4309C10.5161 22.0519 10.9421 21.8629 11.4801 21.8629C12.0231 21.8629 12.4521 22.0509 12.7671 22.4289ZM12.5261 23.8749C12.5261 23.4609 12.4371 23.1159 12.2601 22.8409C12.0821 22.5669 11.8221 22.4289 11.4801 22.4289C11.1401 22.4289 10.8821 22.5659 10.7071 22.8409C10.5321 23.1159 10.4441 23.4609 10.4441 23.8749V23.9549C10.4441 24.3739 10.5321 24.7189 10.7071 24.9919C10.8821 25.2649 11.1421 25.4019 11.4871 25.4019C11.8271 25.4019 12.0851 25.2649 12.2611 24.9919C12.4381 24.7189 12.5261 24.3739 12.5261 23.9549V23.8749ZM16.9421 22.2369C17.1741 22.4869 17.2891 22.8719 17.2891 23.3929V25.8859H16.5761V23.4069C16.5761 23.0589 16.5081 22.8119 16.3721 22.6669C16.2351 22.5199 16.0271 22.4469 15.7471 22.4469C15.5518 22.441 15.3586 22.4873 15.1871 22.5809C15.0341 22.6699 14.9085 22.7993 14.8241 22.9549V25.8869H14.1111V21.9359H14.7481L14.7981 22.5239C14.9291 22.3139 15.0931 22.1519 15.2891 22.0359C15.4933 21.9184 15.7256 21.8586 15.9611 21.8629C16.3831 21.8629 16.7111 21.9869 16.9411 22.2369H16.9421ZM21.1551 22.2369C21.3871 22.4869 21.5031 22.8719 21.5031 23.3929V25.8859H20.7901V23.4069C20.7901 23.0589 20.7221 22.8119 20.5851 22.6669C20.4491 22.5199 20.2411 22.4469 19.9611 22.4469C19.7658 22.441 19.5725 22.4873 19.4011 22.5809C19.248 22.6698 19.1224 22.7992 19.0381 22.9549V25.8869H18.3241V21.9359H18.9621L19.0121 22.5239C19.1421 22.3139 19.3061 22.1519 19.5021 22.0359C19.7063 21.9184 19.9386 21.8586 20.1741 21.8629C20.5971 21.8629 20.9241 21.9869 21.1551 22.2369ZM25.2251 22.3559C25.4881 22.6839 25.6191 23.1209 25.6191 23.6659V24.0459H23.1141L23.1031 24.0649C23.1031 24.4609 23.1901 24.7829 23.3631 25.0309C23.5371 25.2779 23.8031 25.4009 24.1601 25.4009C24.4011 25.4009 24.6131 25.3659 24.7951 25.2969C24.9771 25.2269 25.1341 25.1319 25.2641 25.0099L25.5431 25.4779C25.4031 25.6139 25.2181 25.7289 24.9891 25.8229C24.7591 25.9169 24.4831 25.9629 24.1591 25.9629C23.5981 25.9629 23.1591 25.7819 22.8441 25.4189C22.5291 25.0569 22.3721 24.5789 22.3721 23.9879V23.8279C22.3721 23.2599 22.5341 22.7909 22.8591 22.4199C23.1831 22.0489 23.5791 21.8629 24.0481 21.8629C24.5711 21.8629 24.9641 22.0269 25.2261 22.3559H25.2251ZM24.9051 23.4219C24.9051 23.1349 24.8351 22.8979 24.6951 22.7099C24.5561 22.5229 24.3401 22.4289 24.0481 22.4289C23.9299 22.4267 23.8128 22.4518 23.7058 22.5021C23.5989 22.5524 23.5049 22.6265 23.4311 22.7189C23.2598 22.9314 23.1554 23.19 23.1311 23.4619L23.1391 23.4799H24.9061L24.9051 23.4219ZM26.9691 23.8349V23.9879C26.9691 24.3849 27.0491 24.7199 27.2061 24.9919C27.3641 25.2649 27.6211 25.4019 27.9761 25.4019C28.1951 25.4019 28.3861 25.3269 28.5511 25.1799C28.6294 25.1132 28.692 25.03 28.7346 24.9363C28.7771 24.8426 28.7984 24.7407 28.7971 24.6379H29.4421L29.4521 24.6599C29.4621 24.9999 29.3171 25.3029 29.0181 25.5669C28.7181 25.8319 28.3711 25.9639 27.9751 25.9639C27.4251 25.9639 27.0001 25.7749 26.7011 25.3979C26.4021 25.0199 26.2521 24.5509 26.2521 23.9879V23.8349C26.2521 23.2769 26.4021 22.8099 26.7021 22.4309C27.0031 22.0519 27.4271 21.8629 27.9751 21.8629C28.4121 21.8629 28.7701 21.9989 29.0491 22.2719C29.3271 22.5449 29.4621 22.8789 29.4521 23.2759L29.4451 23.2979H28.7971C28.8022 23.0704 28.7187 22.8498 28.5641 22.6829C28.4901 22.6005 28.3991 22.5351 28.2975 22.4912C28.1958 22.4474 28.0858 22.4261 27.9751 22.4289C27.6251 22.4289 27.3701 22.5659 27.2101 22.8389C27.0501 23.1139 26.9701 23.4449 26.9701 23.8349H26.9691ZM31.9721 25.3209L32.0691 25.8139C31.999 25.8655 31.919 25.9019 31.8341 25.9209C31.7337 25.9484 31.6302 25.9625 31.5261 25.9629C31.2361 25.9629 31.0061 25.8749 30.8351 25.6989C30.6631 25.5219 30.5781 25.2449 30.5781 24.8689V22.4689H29.9551V21.9359H30.5781V20.9829H31.2911V21.9359H32.0331V22.4689H31.2911V24.8679C31.2911 25.0529 31.3291 25.1829 31.4051 25.2579C31.4451 25.2963 31.4925 25.3263 31.5444 25.3459C31.5963 25.3655 31.6517 25.3743 31.7071 25.3719C31.7535 25.3715 31.7998 25.3661 31.8451 25.3559C31.8951 25.3449 31.9381 25.3329 31.9721 25.3209ZM32.8551 20.1909H33.5681V20.9249H32.8551V20.1909ZM32.8551 21.9359H33.5681V25.8859H32.8551V21.9359ZM37.5341 22.4289C37.8491 22.8059 38.0061 23.2889 38.0061 23.8749V23.9549C38.0061 24.5449 37.8491 25.0259 37.5361 25.4009C37.2221 25.7759 36.7951 25.9629 36.2541 25.9629C35.7141 25.9629 35.2861 25.7749 34.9711 25.3989C34.6561 25.0229 34.4981 24.5419 34.4981 23.9549V23.8749C34.4981 23.2909 34.6551 22.8089 34.9681 22.4309C35.2831 22.0519 35.7081 21.8629 36.2471 21.8629C36.7901 21.8629 37.2191 22.0509 37.5341 22.4289ZM37.2931 23.8749C37.2931 23.4609 37.2041 23.1159 37.0261 22.8409C36.8491 22.5669 36.5891 22.4289 36.2461 22.4289C35.9061 22.4289 35.6491 22.5659 35.4741 22.8409C35.2991 23.1159 35.2111 23.4609 35.2111 23.8749V23.9549C35.2111 24.3739 35.2991 24.7189 35.4741 24.9919C35.6491 25.2649 35.9091 25.4019 36.2541 25.4019C36.5941 25.4019 36.8521 25.2649 37.0281 24.9919C37.2041 24.7189 37.2931 24.3739 37.2931 23.9549V23.8749ZM42.0571 23.3929V25.8859H41.3431V23.4069C41.3431 23.0589 41.2751 22.8119 41.1391 22.6669C41.0031 22.5199 40.7941 22.4469 40.5141 22.4469C40.3192 22.4412 40.1263 22.4874 39.9551 22.5809C39.8017 22.6697 39.6757 22.7991 39.5911 22.9549V25.8869H38.8781V21.9359H39.5151L39.5661 22.5239C39.6961 22.3139 39.8601 22.1519 40.0561 22.0359C40.2603 21.9184 40.4925 21.8586 40.7281 21.8629C41.1501 21.8629 41.4781 21.9869 41.7081 22.2369C41.9411 22.4869 42.0571 22.8719 42.0571 23.3929Z" fill="#98A2B3"/>
</g>
<defs>
<clipPath id="clip0_9186_15970">
<rect width="75" height="31" fill="white" transform="translate(0.367188 0.339844)"/>
</clipPath>
</defs>
</svg>
