<svg width="32" height="32" viewBox="0 0 32 32" fill="none" xmlns="http://www.w3.org/2000/svg">
<rect width="32" height="32" rx="10" fill="url(#paint0_linear_8970_60095)"/>
<path fill-rule="evenodd" clip-rule="evenodd" d="M13.9374 8.06113C14.0843 8.01345 14.204 7.99852 14.3126 8.00011C14.4005 8.00141 14.4809 8.01292 14.5618 8.02452C14.5808 8.02724 14.5998 8.02997 14.619 8.03257C14.8207 8.05898 15.0199 8.09937 15.2148 8.14421C15.3975 8.18622 15.5927 8.22734 15.7438 8.25918C15.8839 8.28869 15.9861 8.31023 16.0054 8.31711C16.0238 8.31074 16.1166 8.2918 16.2454 8.26551C16.4 8.23396 16.6065 8.19183 16.7986 8.1481C16.9936 8.10354 17.1952 8.06267 17.397 8.03646C17.4175 8.0338 17.4379 8.03098 17.4581 8.02817C17.6375 8.00332 17.8136 7.97892 18.0772 8.06502C18.3491 8.1536 18.4819 8.28081 18.6173 8.41054C18.6281 8.42084 18.6389 8.43117 18.6497 8.44149C18.7973 8.5816 18.9338 8.7345 19.0651 8.88545C19.1926 9.03193 19.3318 9.18502 19.4369 9.30075C19.5278 9.40076 19.5934 9.47286 19.6041 9.48868C19.6224 9.49449 19.7034 9.5315 19.8166 9.58322C19.9611 9.64923 20.158 9.73919 20.3438 9.81882C20.5277 9.89776 20.7182 9.98492 20.8968 10.0823C20.9142 10.0918 20.9314 10.1011 20.9487 10.1104C21.1092 10.1965 21.2668 10.2811 21.4304 10.5068C21.5953 10.7344 21.6271 10.913 21.6595 11.0943C21.6627 11.1122 21.6659 11.1301 21.6692 11.1481C21.7063 11.3483 21.7256 11.5523 21.7432 11.7518C21.7618 11.9619 21.7882 12.1874 21.807 12.3473C21.8203 12.4612 21.8297 12.5417 21.8297 12.5597C21.8408 12.5745 21.8847 12.6523 21.9462 12.7613C22.0238 12.8987 22.1294 13.0858 22.2326 13.2589C22.3351 13.4308 22.4388 13.6137 22.526 13.7977C22.5321 13.8105 22.5382 13.8232 22.5443 13.8359C22.6253 14.0052 22.7028 14.1673 22.7026 14.4545C22.7023 14.7453 22.6248 14.9068 22.5427 15.078C22.5375 15.0887 22.5324 15.0993 22.5273 15.1101C22.4397 15.2938 22.3355 15.4706 22.2326 15.6423C22.1247 15.8225 22.0142 16.0191 21.9356 16.159C21.8788 16.2601 21.8386 16.3315 21.8283 16.3455C21.828 16.3621 21.8193 16.4317 21.8068 16.5315C21.7867 16.6919 21.7568 16.9304 21.7367 17.1521C21.7187 17.3514 21.7002 17.5556 21.6627 17.7557C21.6599 17.771 21.6571 17.7862 21.6543 17.8013C21.6207 17.9852 21.5878 18.1651 21.42 18.3957C21.2552 18.6222 21.0985 18.706 20.9373 18.7922C20.9208 18.8011 20.9043 18.8099 20.8877 18.8189C20.709 18.9158 20.5226 19.0028 20.3386 19.0811C20.1506 19.1612 19.9509 19.2522 19.8054 19.3185C19.6936 19.3694 19.6139 19.4057 19.5961 19.4113C19.5859 19.4257 19.5307 19.4855 19.4525 19.5702C19.3452 19.6864 19.1947 19.8495 19.0573 20.0067C18.9257 20.1572 18.7833 20.3136 18.6355 20.4533C18.6255 20.4626 18.6157 20.472 18.6059 20.4814C18.4693 20.6113 18.3369 20.7372 18.063 20.8258C17.7861 20.9155 17.6047 20.8904 17.4157 20.8643C17.4043 20.8627 17.3929 20.8612 17.3814 20.8596C17.1797 20.8332 16.9805 20.7876 16.7856 20.7428C16.5794 20.6953 16.3572 20.6508 16.2004 20.6195C16.09 20.5974 16.0121 20.5818 15.9951 20.5762C15.9772 20.5824 15.8853 20.6012 15.7573 20.6273C15.6025 20.659 15.3949 20.7014 15.2018 20.7454C15.0068 20.7899 14.8052 20.8295 14.6034 20.8557C14.5875 20.8577 14.5717 20.8598 14.556 20.8619C14.3718 20.8865 14.1935 20.9102 13.9232 20.8219C13.6513 20.7334 13.5185 20.6062 13.3831 20.4764C13.3723 20.4661 13.3615 20.4558 13.3507 20.4455C13.2031 20.3054 13.068 20.1512 12.9366 20.0002C12.7952 19.8378 12.6391 19.6695 12.5309 19.5528C12.4574 19.4736 12.4061 19.4182 12.3964 19.4047C12.3805 19.3993 12.3154 19.3688 12.2225 19.3252C12.0758 19.2565 11.8596 19.1551 11.6566 19.0681L11.6444 19.0629C11.4643 18.9859 11.2782 18.9064 11.1036 18.8111C11.0873 18.8022 11.0711 18.7935 11.0549 18.7848C10.8933 18.6979 10.7347 18.6126 10.57 18.3853C10.4052 18.1578 10.3733 17.9792 10.3409 17.7979C10.3377 17.78 10.3345 17.762 10.3312 17.744C10.2941 17.5439 10.2749 17.3396 10.2572 17.1404C10.2386 16.9303 10.2122 16.7048 10.1935 16.5449C10.1801 16.4306 10.1706 16.3499 10.1707 16.3323C10.1606 16.3182 10.1228 16.2504 10.0691 16.154C9.99091 16.0134 9.87883 15.8121 9.76908 15.628C9.6666 15.4562 9.5616 15.2798 9.4744 15.0958C9.46831 15.083 9.46222 15.0702 9.45614 15.0575C9.37513 14.8883 9.29757 14.7262 9.29785 14.4389C9.29815 14.1482 9.37563 13.9867 9.45778 13.8154C9.46288 13.8048 9.46799 13.7941 9.4731 13.7834C9.56067 13.5996 9.66495 13.4163 9.76778 13.2446C9.87577 13.0644 9.98635 12.8676 10.0649 12.7278C10.1217 12.6268 10.1618 12.5555 10.1721 12.5415C10.1724 12.5253 10.1808 12.4588 10.193 12.363C10.2131 12.2044 10.2434 11.9653 10.2637 11.7414L10.2637 11.7413C10.2817 11.542 10.3002 11.3378 10.3377 11.1377C10.3405 11.1225 10.3433 11.1073 10.3461 11.0921C10.3797 10.9083 10.4126 10.7283 10.5804 10.4978C10.7463 10.2698 10.9039 10.1853 11.0662 10.0983C11.0816 10.09 11.0971 10.0817 11.1127 10.0733C11.2915 9.97635 11.483 9.89064 11.667 9.81233C11.8619 9.72926 12.0681 9.63449 12.2133 9.56773C12.3155 9.52077 12.3875 9.48766 12.4043 9.48221C12.4145 9.46789 12.4703 9.40754 12.5491 9.32219C12.6582 9.20418 12.8114 9.03836 12.9496 8.88026C13.0812 8.72963 13.2171 8.57861 13.365 8.43889C13.3777 8.42684 13.3903 8.41476 13.4029 8.4027C13.5366 8.27474 13.6691 8.14795 13.9374 8.06113ZM16.3186 11.5682C16.2271 11.5216 16.1261 11.4969 16.0236 11.496C16.0071 11.4959 15.9907 11.4963 15.9743 11.4973C15.8835 11.504 15.795 11.5293 15.7144 11.5717C15.6338 11.6142 15.5627 11.6728 15.5056 11.744L14.6372 12.8305L13.4013 13.2394C13.3052 13.2722 13.2179 13.3267 13.146 13.3987C13.0741 13.4707 13.0197 13.5583 12.9868 13.6547C12.954 13.7511 12.9436 13.8538 12.9565 13.9549C12.9694 14.056 13.0052 14.1527 13.0612 14.2377L13.8193 15.4009L13.8297 16.7029C13.83 16.8057 13.854 16.907 13.8998 16.9988C13.9456 17.0907 14.0119 17.1707 14.0937 17.2326C14.1754 17.2944 14.2702 17.3365 14.3708 17.3554C14.4714 17.3743 14.575 17.3696 14.6735 17.3416L16.0106 16.9755L17.249 17.3663C17.3458 17.3964 17.4481 17.4039 17.5482 17.3882C17.6483 17.3724 17.7435 17.3339 17.8265 17.2755C17.9095 17.2171 17.978 17.1404 18.0269 17.0512C18.0757 16.9621 18.1036 16.8629 18.1084 16.7613L18.172 15.3697L18.9223 14.3104C18.9819 14.2275 19.0216 14.1318 19.0385 14.031C19.0553 13.9301 19.0488 13.8267 19.0194 13.7288C18.99 13.6309 18.9386 13.5411 18.8691 13.4664C18.7996 13.3916 18.7139 13.334 18.6186 13.2979L17.3204 12.8072L16.5506 11.7647C16.4895 11.6821 16.41 11.6148 16.3186 11.5682Z" fill="white"/>
<path d="M11.3502 21.9397V19.8159C11.3934 19.8358 11.4384 19.8567 11.4835 19.8775C11.6827 19.9697 11.8816 20.0618 11.9115 20.0714C11.9211 20.0855 11.9811 20.1505 12.0675 20.2439C12.1898 20.3762 12.3648 20.5654 12.5238 20.748C12.6727 20.9193 12.8262 21.094 12.9937 21.2529C13.0057 21.2644 13.0177 21.2758 13.0296 21.2872C13.1837 21.4346 13.335 21.5793 13.6441 21.68C13.9516 21.7805 14.1536 21.7537 14.3631 21.7258C14.3804 21.7235 14.3977 21.7212 14.4152 21.719C14.644 21.6893 14.8728 21.6435 15.0941 21.593C15.3174 21.5422 15.5581 21.4934 15.7351 21.4576C15.8751 21.4292 15.9752 21.4089 15.9951 21.4021C16.014 21.4083 16.1006 21.4255 16.2235 21.45C16.4016 21.4855 16.656 21.5362 16.892 21.5905C17.1133 21.6414 17.3382 21.6927 17.5671 21.7229C17.5805 21.7247 17.5939 21.7265 17.6072 21.7284C17.8212 21.7581 18.0272 21.7867 18.3408 21.6852C18.6504 21.5851 18.8002 21.4425 18.9545 21.2956C18.9662 21.2844 18.978 21.2732 18.9898 21.262C19.1576 21.1035 19.3195 20.9265 19.4689 20.7557C19.6251 20.577 19.7964 20.3915 19.9182 20.2596C20.0081 20.1621 20.0711 20.0939 20.0811 20.0792C20.1109 20.07 20.3083 19.9807 20.5092 19.8898C20.5576 19.868 20.6062 19.846 20.6528 19.825V21.9397C20.6528 23.0328 19.7533 23.9323 18.6601 23.9323C18.5566 23.9329 18.4543 23.9094 18.3615 23.8635L16.0015 22.6861L13.6415 23.8635C13.3255 24.0215 12.9438 24.037 12.6445 23.9375C12.3451 23.8381 12.1167 23.6536 11.9331 23.4468C11.5658 23.0333 11.3502 22.5096 11.3502 21.9397Z" fill="white"/>
<path d="M20.079 20.0781C20.0829 20.0753 20.0835 20.0758 20.0811 20.0792C20.0769 20.0805 20.076 20.0802 20.079 20.0781Z" fill="white"/>
<path d="M15.995 21.3996C16.0001 21.3996 15.9999 21.4005 15.9951 21.4021C15.9901 21.4005 15.9899 21.3996 15.995 21.3996Z" fill="white"/>
<path d="M11.9136 20.0703C11.9166 20.0725 11.9157 20.0727 11.9115 20.0714C11.9092 20.068 11.9098 20.0676 11.9136 20.0703Z" fill="white"/>
<defs>
<linearGradient id="paint0_linear_8970_60095" x1="0" y1="32" x2="32" y2="0" gradientUnits="userSpaceOnUse">
<stop stop-color="#6C0985"/>
<stop offset="1" stop-color="#7379FE"/>
</linearGradient>
</defs>
</svg>
