<svg width="898" height="167" viewBox="0 0 898 167" fill="none" xmlns="http://www.w3.org/2000/svg">
<path d="M83.0255 0C37.1834 0 0 37.3201 0 83.3228C0 129.326 37.1834 166.646 83.0255 166.646C128.868 166.646 166.051 129.326 166.051 83.3228C165.976 37.3201 128.868 0 83.0255 0ZM137.589 138.096C123.582 152.083 104.366 160.766 83.0255 160.766C61.685 160.766 42.4686 152.083 28.4623 138.096C14.531 124.033 5.87238 104.754 5.87238 83.3228C5.87238 61.8916 14.531 42.6122 28.4623 28.55C42.4686 14.5627 61.685 5.88014 83.0255 5.88014C104.366 5.88014 123.582 14.5627 137.589 28.55C151.52 42.6122 160.179 61.8916 160.179 83.3228C160.179 104.754 151.52 124.033 137.589 138.096Z" fill="#F5F4F1"/>
<path d="M100.793 15.7512H100.73C95.0202 14.2624 89.0853 13.5243 82.9256 13.5243C76.4035 13.5243 70.0313 14.4126 63.9465 16.0265C62.4097 16.4393 61.4726 18.0032 61.8724 19.5546L64.7587 30.952C65.7832 35.1432 69.594 37.8706 73.6922 37.8706L91.0594 37.6454C95.1576 37.7204 98.8934 34.9305 99.993 30.8019L102.879 19.2668C103.266 17.7155 102.329 16.1391 100.78 15.7387L100.793 15.7512Z" fill="#F5F4F1"/>
<path d="M63.9715 150.907H64.034C69.7439 152.396 75.6788 153.134 81.8385 153.134C88.3606 153.134 94.7328 152.245 100.818 150.632C102.354 150.219 103.291 148.655 102.892 147.103L100.005 135.706C98.9809 131.515 95.1701 128.787 91.0719 128.787L73.7047 129.013C69.6065 128.938 65.8707 131.728 64.7711 135.856L61.8849 147.391C61.4976 148.943 62.4347 150.519 63.984 150.919L63.9715 150.907Z" fill="#F5F4F1"/>
<path d="M150.458 67.2087V67.1462C148.996 61.4162 146.81 55.8488 143.861 50.4316C140.737 44.7016 136.927 39.5095 132.591 34.943C131.491 33.7795 129.667 33.717 128.505 34.8054L119.884 42.7874C116.698 45.6899 116.136 50.344 118.097 53.9597L126.594 69.1229C128.493 72.7636 132.728 74.7153 136.864 73.7144L148.359 70.7368C149.908 70.3365 150.845 68.7601 150.445 67.2087H150.458Z" fill="#F5F4F1"/>
<path d="M15.5806 99.4494V99.512C17.0424 105.242 19.2289 110.809 22.1776 116.227C25.3012 121.957 29.112 127.149 33.4476 131.715C34.5471 132.879 36.3713 132.941 37.5333 131.853L46.1544 123.871C49.3405 120.968 49.9028 116.314 47.9411 112.698L39.4449 97.5352C37.5458 93.8945 33.3102 91.9428 29.1745 92.9437L17.6796 95.9213C16.1303 96.3217 15.1932 97.898 15.5931 99.4494H15.5806Z" fill="#F5F4F1"/>
<path d="M132.578 131.878L132.616 131.84C136.689 127.561 140.225 122.732 143.236 117.365C146.422 111.673 148.771 105.667 150.321 99.5619C150.72 98.0106 149.796 96.4342 148.259 96.0213L136.914 92.9687C132.766 91.8177 128.53 93.8194 126.519 97.3975L118.235 112.673C116.161 116.226 116.773 120.856 119.834 123.821L128.48 131.978C129.642 133.079 131.479 133.029 132.578 131.865V131.878Z" fill="#F5F4F1"/>
<path d="M33.4601 34.7803L33.4226 34.8178C29.3494 39.0966 25.8135 43.9258 22.8023 49.293C19.6163 54.9855 17.2673 60.9907 15.718 67.096C15.3182 68.6474 16.2428 70.2238 17.7796 70.6366L29.1245 73.6893C33.2727 74.8403 37.5083 72.8386 39.5199 69.2604L47.8037 53.9846C49.8778 50.4315 49.2656 45.8024 46.2044 42.8373L37.5583 34.6802C36.3963 33.5792 34.5596 33.6293 33.4601 34.7928V34.7803Z" fill="#F5F4F1"/>
<path d="M110.651 36.3317C113.025 37.733 116.048 36.9573 117.46 34.5802C118.872 32.2031 118.097 29.1755 115.723 27.7617C113.35 26.348 110.326 27.1362 108.914 29.5133C107.502 31.8904 108.277 34.918 110.651 36.3317Z" fill="#F5F4F1"/>
<path d="M55.063 130.451C52.689 129.05 49.6654 129.826 48.2535 132.203C46.8416 134.58 47.6163 137.608 49.9902 139.021C52.3642 140.435 55.3878 139.647 56.7997 137.27C58.2116 134.893 57.4369 131.865 55.063 130.451Z" fill="#F5F4F1"/>
<path d="M111.7 130.564C109.351 132.003 108.627 135.043 110.063 137.408C111.5 139.772 114.536 140.498 116.898 139.059C119.259 137.62 119.972 134.58 118.535 132.216C117.098 129.851 114.062 129.125 111.7 130.564Z" fill="#F5F4F1"/>
<path d="M55.2504 36.2067C57.5993 34.7679 58.324 31.7278 56.8872 29.3632C55.4503 26.9986 52.4142 26.273 50.0527 27.7117C47.6913 29.1505 46.9791 32.1907 48.4159 34.5552C49.8528 36.9198 52.8889 37.6454 55.2504 36.2067Z" fill="#F5F4F1"/>
<path d="M137.876 82.4096C137.689 85.162 139.738 87.514 142.487 87.7142C145.235 87.9144 147.597 85.8626 147.797 83.1102C147.997 80.3578 145.935 77.9932 143.186 77.8056C140.425 77.6179 138.076 79.6572 137.876 82.4096Z" fill="#F5F4F1"/>
<path d="M27.8126 83.0977C28 80.3453 25.9509 77.9932 23.2022 77.793C20.4534 77.5929 18.0919 79.6446 17.892 82.3971C17.6921 85.1495 19.7537 87.514 22.5025 87.7017C25.2513 87.8893 27.6127 85.8501 27.8126 83.0977Z" fill="#F5F4F1"/>
<path d="M83.2879 47.9919C63.7341 47.9919 47.9162 63.8808 47.9162 83.498C47.9162 103.115 63.7466 119.004 83.2879 119.004C102.829 119.004 118.66 103.115 118.66 83.498C118.66 63.8808 102.829 47.9919 83.2879 47.9919Z" fill="#F5F4F1"/>
<path d="M262.646 38.6088C282.337 38.6088 295.793 52.7711 293.582 66.9961C291.358 80.8707 273.316 95.5961 253.699 95.5961H230.21L225.125 128.15H203.284L208.37 95.5961L210.806 79.9324L214.892 54.1974L217.328 38.5337H262.733L262.658 38.6088H262.646ZM232.859 78.6437H256.348C264.944 78.6437 273.103 73.5393 274.178 66.9961C275.252 60.603 268.73 55.5736 260.072 55.5736H236.582L232.859 78.7188V78.6437Z" fill="#F2FF00"/>
<path d="M363.401 38.6088L389.327 128.162H365.837L360.252 106.093H320.007L307.476 128.162H284.561L335.188 38.6088H363.476H363.401ZM347.145 56.2242L327.954 91.3674H355.517L347.145 56.2242Z" fill="#F2FF00"/>
<path d="M469.728 38.6087C479.536 38.6087 487.92 41.774 493.568 47.016C498.94 54.4851 501.727 60.3152 500.652 67.0711C499.577 73.827 494.855 79.9323 487.258 87.051C483.172 90.0662 478.162 92.4432 473.077 93.9446L492.481 128.149H469.353L450.737 95.2332H432.332L427.11 128.149H405.132L410.355 95.2332L412.716 79.9198L416.802 54.1848L419.238 38.5211H469.716V38.5962L469.728 38.6087ZM435.069 77.9306H463.568C467.504 77.9306 471.952 76.8546 475.313 74.7653C478.674 72.5383 480.536 70.0987 481.036 67.0711C481.535 64.0434 480.461 61.6038 477.737 59.4519C475.088 57.3626 471.44 56.074 466.992 56.074H438.492L434.981 77.918H435.056L435.069 77.9306Z" fill="#F2FF00"/>
<path d="M550.755 38.6088L536.649 128.162H514.308L528.415 38.6088H550.755Z" fill="#F2FF00"/>
<path d="M653.759 128.024H630.269L612.227 91.2298H588.375L582.578 128.024H561.025L575.131 38.6838H596.684L591.524 71.6001H616.513L643.151 38.6838H666.203L630.469 82.2344L653.746 128.012L653.759 128.024Z" fill="#F2FF00"/>
<path d="M722.216 111.635H784.363L781.714 128.6H690.705C694.641 103.803 714.194 93.8195 720.854 90.5041C733.461 84.3237 748.567 79.4319 758.662 75.9163C765.534 73.3266 780.077 66.7834 769.47 58.6012C764.809 54.8604 756.076 54.4351 749.204 54.6478C737.247 54.7854 723.353 57.9506 707.885 62.4796L703.449 47.7417C714.194 44.2262 721.716 42.2744 729.375 40.6981C737.397 39.1842 744.131 38.2584 751.14 38.1083C761.523 37.7455 774.193 39.3969 783.001 44.1511C791.16 48.4674 798.832 57.8005 793.459 70.3115C792.022 73.4767 788.086 82.0967 773.118 87.9143C757.725 94.0947 729.363 101.001 722.128 111.485L722.203 111.623L722.216 111.635Z" fill="#F2FF00"/>
<path d="M881.607 89.5658H898L895.426 105.592H879.033L875.447 128.587H853.82L857.331 106.743H804.267L806.841 90.5041L842.787 38.9716H889.541L881.67 89.5658H881.595H881.607ZM865.427 55.1482H855.044L830.13 90.5041H859.779L865.364 55.1482H865.439H865.427Z" fill="#F2FF00"/>
</svg>
